%TF.GenerationSoftware,KiCad,Pcbnew,9.0.7*%
%TF.CreationDate,2026-04-16T10:53:18+01:00*%
%TF.ProjectId,stepperdriver front panel,73746570-7065-4726-9472-697665722066,rev?*%
%TF.SameCoordinates,Original*%
%TF.FileFunction,Drillmap*%
%TF.FilePolarity,Positive*%
%FSLAX45Y45*%
G04 Gerber Fmt 4.5, Leading zero omitted, Abs format (unit mm)*
G04 Created by KiCad (PCBNEW 9.0.7) date 2026-04-16 10:53:18*
%MOMM*%
%LPD*%
G01*
G04 APERTURE LIST*
%ADD10C,0.152400*%
%ADD11C,0.200000*%
%ADD12C,0.100000*%
G04 APERTURE END LIST*
D10*
X9700000Y-14200000D02*
X22400000Y-14200000D01*
X9600000Y-11175000D02*
X9400000Y-11275000D01*
X9600000Y-12125000D02*
X9400000Y-12025000D01*
X22500000Y-11175000D02*
X22500000Y-12125000D01*
X22500000Y-13700000D02*
X22700000Y-13600000D01*
X9700000Y-10700000D02*
X22400000Y-10700000D01*
X22400000Y-10700000D02*
G75*
G02*
X22700000Y-11000000I0J-300000D01*
G01*
X22500000Y-12750000D02*
X22700000Y-12850000D01*
X9700000Y-14200000D02*
G75*
G02*
X9400000Y-13900000I0J300000D01*
G01*
X22700000Y-12025000D02*
X22700000Y-12850000D01*
X9600000Y-11175000D02*
X9600000Y-12125000D01*
X9400000Y-11000000D02*
G75*
G02*
X9700000Y-10700000I300000J0D01*
G01*
X12480000Y-11950000D02*
X12480000Y-12789640D01*
X22700000Y-11275000D02*
X22700000Y-11000000D01*
X9600000Y-12750000D02*
X9600000Y-13700000D01*
X22500000Y-11175000D02*
X22700000Y-11275000D01*
X22700000Y-13600000D02*
X22700000Y-13900000D01*
X22500000Y-12750000D02*
X22500000Y-13700000D01*
X9600000Y-13700000D02*
X9400000Y-13600000D01*
X9400000Y-13600000D02*
X9400000Y-13900000D01*
X22700000Y-13900000D02*
G75*
G02*
X22400000Y-14200000I-300000J0D01*
G01*
X19090000Y-12789640D02*
X12480000Y-12790000D01*
X22500000Y-12125000D02*
X22700000Y-12025000D01*
X9400000Y-12025000D02*
X9400000Y-12850000D01*
X19090000Y-11950000D02*
X19090000Y-12789640D01*
X9600000Y-12750000D02*
X9400000Y-12850000D01*
X12480000Y-11950000D02*
X19090000Y-11950000D01*
X9400000Y-11000000D02*
X9400000Y-11275000D01*
D11*
D12*
X10430000Y-11750000D02*
X10530000Y-11850000D01*
X10530000Y-11750000D02*
X10430000Y-11850000D01*
X10430000Y-12950000D02*
X10530000Y-13050000D01*
X10530000Y-12950000D02*
X10430000Y-13050000D01*
X11177445Y-11750000D02*
X11277445Y-11850000D01*
X11277445Y-11750000D02*
X11177445Y-11850000D01*
X11177445Y-12950000D02*
X11277445Y-13050000D01*
X11277445Y-12950000D02*
X11177445Y-13050000D01*
X11924890Y-11750000D02*
X12024890Y-11850000D01*
X12024890Y-11750000D02*
X11924890Y-11850000D01*
X11924890Y-12950000D02*
X12024890Y-13050000D01*
X12024890Y-12950000D02*
X11924890Y-13050000D01*
X19540000Y-11849640D02*
X19640000Y-11949640D01*
X19640000Y-11849640D02*
X19540000Y-11949640D01*
X19540000Y-12849640D02*
X19640000Y-12949640D01*
X19640000Y-12849640D02*
X19540000Y-12949640D01*
X21490000Y-11849640D02*
X21590000Y-11949640D01*
X21590000Y-11849640D02*
X21490000Y-11949640D01*
X21490000Y-12849640D02*
X21590000Y-12949640D01*
X21590000Y-12849640D02*
X21490000Y-12949640D01*
D11*
X9653157Y-14519104D02*
X9653157Y-14319104D01*
X9653157Y-14319104D02*
X9700776Y-14319104D01*
X9700776Y-14319104D02*
X9729347Y-14328628D01*
X9729347Y-14328628D02*
X9748395Y-14347675D01*
X9748395Y-14347675D02*
X9757919Y-14366723D01*
X9757919Y-14366723D02*
X9767443Y-14404818D01*
X9767443Y-14404818D02*
X9767443Y-14433389D01*
X9767443Y-14433389D02*
X9757919Y-14471485D01*
X9757919Y-14471485D02*
X9748395Y-14490532D01*
X9748395Y-14490532D02*
X9729347Y-14509580D01*
X9729347Y-14509580D02*
X9700776Y-14519104D01*
X9700776Y-14519104D02*
X9653157Y-14519104D01*
X9853157Y-14519104D02*
X9853157Y-14385770D01*
X9853157Y-14423866D02*
X9862681Y-14404818D01*
X9862681Y-14404818D02*
X9872204Y-14395294D01*
X9872204Y-14395294D02*
X9891252Y-14385770D01*
X9891252Y-14385770D02*
X9910300Y-14385770D01*
X9976966Y-14519104D02*
X9976966Y-14385770D01*
X9976966Y-14319104D02*
X9967443Y-14328628D01*
X9967443Y-14328628D02*
X9976966Y-14338151D01*
X9976966Y-14338151D02*
X9986490Y-14328628D01*
X9986490Y-14328628D02*
X9976966Y-14319104D01*
X9976966Y-14319104D02*
X9976966Y-14338151D01*
X10100776Y-14519104D02*
X10081728Y-14509580D01*
X10081728Y-14509580D02*
X10072204Y-14490532D01*
X10072204Y-14490532D02*
X10072204Y-14319104D01*
X10205538Y-14519104D02*
X10186490Y-14509580D01*
X10186490Y-14509580D02*
X10176966Y-14490532D01*
X10176966Y-14490532D02*
X10176966Y-14319104D01*
X10434109Y-14519104D02*
X10434109Y-14319104D01*
X10434109Y-14319104D02*
X10500776Y-14461961D01*
X10500776Y-14461961D02*
X10567443Y-14319104D01*
X10567443Y-14319104D02*
X10567443Y-14519104D01*
X10748395Y-14519104D02*
X10748395Y-14414342D01*
X10748395Y-14414342D02*
X10738871Y-14395294D01*
X10738871Y-14395294D02*
X10719824Y-14385770D01*
X10719824Y-14385770D02*
X10681728Y-14385770D01*
X10681728Y-14385770D02*
X10662681Y-14395294D01*
X10748395Y-14509580D02*
X10729347Y-14519104D01*
X10729347Y-14519104D02*
X10681728Y-14519104D01*
X10681728Y-14519104D02*
X10662681Y-14509580D01*
X10662681Y-14509580D02*
X10653157Y-14490532D01*
X10653157Y-14490532D02*
X10653157Y-14471485D01*
X10653157Y-14471485D02*
X10662681Y-14452437D01*
X10662681Y-14452437D02*
X10681728Y-14442913D01*
X10681728Y-14442913D02*
X10729347Y-14442913D01*
X10729347Y-14442913D02*
X10748395Y-14433389D01*
X10843633Y-14385770D02*
X10843633Y-14585770D01*
X10843633Y-14395294D02*
X10862681Y-14385770D01*
X10862681Y-14385770D02*
X10900776Y-14385770D01*
X10900776Y-14385770D02*
X10919824Y-14395294D01*
X10919824Y-14395294D02*
X10929347Y-14404818D01*
X10929347Y-14404818D02*
X10938871Y-14423866D01*
X10938871Y-14423866D02*
X10938871Y-14481008D01*
X10938871Y-14481008D02*
X10929347Y-14500056D01*
X10929347Y-14500056D02*
X10919824Y-14509580D01*
X10919824Y-14509580D02*
X10900776Y-14519104D01*
X10900776Y-14519104D02*
X10862681Y-14519104D01*
X10862681Y-14519104D02*
X10843633Y-14509580D01*
X11024585Y-14500056D02*
X11034109Y-14509580D01*
X11034109Y-14509580D02*
X11024585Y-14519104D01*
X11024585Y-14519104D02*
X11015062Y-14509580D01*
X11015062Y-14509580D02*
X11024585Y-14500056D01*
X11024585Y-14500056D02*
X11024585Y-14519104D01*
X11024585Y-14395294D02*
X11034109Y-14404818D01*
X11034109Y-14404818D02*
X11024585Y-14414342D01*
X11024585Y-14414342D02*
X11015062Y-14404818D01*
X11015062Y-14404818D02*
X11024585Y-14395294D01*
X11024585Y-14395294D02*
X11024585Y-14414342D01*
D12*
X9292380Y-14797620D02*
X9392380Y-14897620D01*
X9392380Y-14797620D02*
X9292380Y-14897620D01*
D11*
X9757919Y-14939104D02*
X9643633Y-14939104D01*
X9700776Y-14939104D02*
X9700776Y-14739104D01*
X9700776Y-14739104D02*
X9681728Y-14767675D01*
X9681728Y-14767675D02*
X9662681Y-14786723D01*
X9662681Y-14786723D02*
X9643633Y-14796247D01*
X9843633Y-14920056D02*
X9853157Y-14929580D01*
X9853157Y-14929580D02*
X9843633Y-14939104D01*
X9843633Y-14939104D02*
X9834109Y-14929580D01*
X9834109Y-14929580D02*
X9843633Y-14920056D01*
X9843633Y-14920056D02*
X9843633Y-14939104D01*
X9976966Y-14739104D02*
X9996014Y-14739104D01*
X9996014Y-14739104D02*
X10015062Y-14748628D01*
X10015062Y-14748628D02*
X10024585Y-14758151D01*
X10024585Y-14758151D02*
X10034109Y-14777199D01*
X10034109Y-14777199D02*
X10043633Y-14815294D01*
X10043633Y-14815294D02*
X10043633Y-14862913D01*
X10043633Y-14862913D02*
X10034109Y-14901008D01*
X10034109Y-14901008D02*
X10024585Y-14920056D01*
X10024585Y-14920056D02*
X10015062Y-14929580D01*
X10015062Y-14929580D02*
X9996014Y-14939104D01*
X9996014Y-14939104D02*
X9976966Y-14939104D01*
X9976966Y-14939104D02*
X9957919Y-14929580D01*
X9957919Y-14929580D02*
X9948395Y-14920056D01*
X9948395Y-14920056D02*
X9938871Y-14901008D01*
X9938871Y-14901008D02*
X9929347Y-14862913D01*
X9929347Y-14862913D02*
X9929347Y-14815294D01*
X9929347Y-14815294D02*
X9938871Y-14777199D01*
X9938871Y-14777199D02*
X9948395Y-14758151D01*
X9948395Y-14758151D02*
X9957919Y-14748628D01*
X9957919Y-14748628D02*
X9976966Y-14739104D01*
X10167443Y-14739104D02*
X10186490Y-14739104D01*
X10186490Y-14739104D02*
X10205538Y-14748628D01*
X10205538Y-14748628D02*
X10215062Y-14758151D01*
X10215062Y-14758151D02*
X10224585Y-14777199D01*
X10224585Y-14777199D02*
X10234109Y-14815294D01*
X10234109Y-14815294D02*
X10234109Y-14862913D01*
X10234109Y-14862913D02*
X10224585Y-14901008D01*
X10224585Y-14901008D02*
X10215062Y-14920056D01*
X10215062Y-14920056D02*
X10205538Y-14929580D01*
X10205538Y-14929580D02*
X10186490Y-14939104D01*
X10186490Y-14939104D02*
X10167443Y-14939104D01*
X10167443Y-14939104D02*
X10148395Y-14929580D01*
X10148395Y-14929580D02*
X10138871Y-14920056D01*
X10138871Y-14920056D02*
X10129347Y-14901008D01*
X10129347Y-14901008D02*
X10119824Y-14862913D01*
X10119824Y-14862913D02*
X10119824Y-14815294D01*
X10119824Y-14815294D02*
X10129347Y-14777199D01*
X10129347Y-14777199D02*
X10138871Y-14758151D01*
X10138871Y-14758151D02*
X10148395Y-14748628D01*
X10148395Y-14748628D02*
X10167443Y-14739104D01*
X10357919Y-14739104D02*
X10376966Y-14739104D01*
X10376966Y-14739104D02*
X10396014Y-14748628D01*
X10396014Y-14748628D02*
X10405538Y-14758151D01*
X10405538Y-14758151D02*
X10415062Y-14777199D01*
X10415062Y-14777199D02*
X10424585Y-14815294D01*
X10424585Y-14815294D02*
X10424585Y-14862913D01*
X10424585Y-14862913D02*
X10415062Y-14901008D01*
X10415062Y-14901008D02*
X10405538Y-14920056D01*
X10405538Y-14920056D02*
X10396014Y-14929580D01*
X10396014Y-14929580D02*
X10376966Y-14939104D01*
X10376966Y-14939104D02*
X10357919Y-14939104D01*
X10357919Y-14939104D02*
X10338871Y-14929580D01*
X10338871Y-14929580D02*
X10329347Y-14920056D01*
X10329347Y-14920056D02*
X10319824Y-14901008D01*
X10319824Y-14901008D02*
X10310300Y-14862913D01*
X10310300Y-14862913D02*
X10310300Y-14815294D01*
X10310300Y-14815294D02*
X10319824Y-14777199D01*
X10319824Y-14777199D02*
X10329347Y-14758151D01*
X10329347Y-14758151D02*
X10338871Y-14748628D01*
X10338871Y-14748628D02*
X10357919Y-14739104D01*
X10510300Y-14939104D02*
X10510300Y-14805770D01*
X10510300Y-14824818D02*
X10519824Y-14815294D01*
X10519824Y-14815294D02*
X10538871Y-14805770D01*
X10538871Y-14805770D02*
X10567443Y-14805770D01*
X10567443Y-14805770D02*
X10586490Y-14815294D01*
X10586490Y-14815294D02*
X10596014Y-14834342D01*
X10596014Y-14834342D02*
X10596014Y-14939104D01*
X10596014Y-14834342D02*
X10605538Y-14815294D01*
X10605538Y-14815294D02*
X10624585Y-14805770D01*
X10624585Y-14805770D02*
X10653157Y-14805770D01*
X10653157Y-14805770D02*
X10672205Y-14815294D01*
X10672205Y-14815294D02*
X10681728Y-14834342D01*
X10681728Y-14834342D02*
X10681728Y-14939104D01*
X10776966Y-14939104D02*
X10776966Y-14805770D01*
X10776966Y-14824818D02*
X10786490Y-14815294D01*
X10786490Y-14815294D02*
X10805538Y-14805770D01*
X10805538Y-14805770D02*
X10834109Y-14805770D01*
X10834109Y-14805770D02*
X10853157Y-14815294D01*
X10853157Y-14815294D02*
X10862681Y-14834342D01*
X10862681Y-14834342D02*
X10862681Y-14939104D01*
X10862681Y-14834342D02*
X10872205Y-14815294D01*
X10872205Y-14815294D02*
X10891252Y-14805770D01*
X10891252Y-14805770D02*
X10919824Y-14805770D01*
X10919824Y-14805770D02*
X10938871Y-14815294D01*
X10938871Y-14815294D02*
X10948395Y-14834342D01*
X10948395Y-14834342D02*
X10948395Y-14939104D01*
X11338871Y-14729580D02*
X11167443Y-14986723D01*
X11596014Y-14739104D02*
X11615062Y-14739104D01*
X11615062Y-14739104D02*
X11634109Y-14748628D01*
X11634109Y-14748628D02*
X11643633Y-14758151D01*
X11643633Y-14758151D02*
X11653157Y-14777199D01*
X11653157Y-14777199D02*
X11662681Y-14815294D01*
X11662681Y-14815294D02*
X11662681Y-14862913D01*
X11662681Y-14862913D02*
X11653157Y-14901008D01*
X11653157Y-14901008D02*
X11643633Y-14920056D01*
X11643633Y-14920056D02*
X11634109Y-14929580D01*
X11634109Y-14929580D02*
X11615062Y-14939104D01*
X11615062Y-14939104D02*
X11596014Y-14939104D01*
X11596014Y-14939104D02*
X11576966Y-14929580D01*
X11576966Y-14929580D02*
X11567443Y-14920056D01*
X11567443Y-14920056D02*
X11557919Y-14901008D01*
X11557919Y-14901008D02*
X11548395Y-14862913D01*
X11548395Y-14862913D02*
X11548395Y-14815294D01*
X11548395Y-14815294D02*
X11557919Y-14777199D01*
X11557919Y-14777199D02*
X11567443Y-14758151D01*
X11567443Y-14758151D02*
X11576966Y-14748628D01*
X11576966Y-14748628D02*
X11596014Y-14739104D01*
X11748395Y-14920056D02*
X11757919Y-14929580D01*
X11757919Y-14929580D02*
X11748395Y-14939104D01*
X11748395Y-14939104D02*
X11738871Y-14929580D01*
X11738871Y-14929580D02*
X11748395Y-14920056D01*
X11748395Y-14920056D02*
X11748395Y-14939104D01*
X11881728Y-14739104D02*
X11900776Y-14739104D01*
X11900776Y-14739104D02*
X11919824Y-14748628D01*
X11919824Y-14748628D02*
X11929347Y-14758151D01*
X11929347Y-14758151D02*
X11938871Y-14777199D01*
X11938871Y-14777199D02*
X11948395Y-14815294D01*
X11948395Y-14815294D02*
X11948395Y-14862913D01*
X11948395Y-14862913D02*
X11938871Y-14901008D01*
X11938871Y-14901008D02*
X11929347Y-14920056D01*
X11929347Y-14920056D02*
X11919824Y-14929580D01*
X11919824Y-14929580D02*
X11900776Y-14939104D01*
X11900776Y-14939104D02*
X11881728Y-14939104D01*
X11881728Y-14939104D02*
X11862681Y-14929580D01*
X11862681Y-14929580D02*
X11853157Y-14920056D01*
X11853157Y-14920056D02*
X11843633Y-14901008D01*
X11843633Y-14901008D02*
X11834109Y-14862913D01*
X11834109Y-14862913D02*
X11834109Y-14815294D01*
X11834109Y-14815294D02*
X11843633Y-14777199D01*
X11843633Y-14777199D02*
X11853157Y-14758151D01*
X11853157Y-14758151D02*
X11862681Y-14748628D01*
X11862681Y-14748628D02*
X11881728Y-14739104D01*
X12015062Y-14739104D02*
X12138871Y-14739104D01*
X12138871Y-14739104D02*
X12072205Y-14815294D01*
X12072205Y-14815294D02*
X12100776Y-14815294D01*
X12100776Y-14815294D02*
X12119824Y-14824818D01*
X12119824Y-14824818D02*
X12129347Y-14834342D01*
X12129347Y-14834342D02*
X12138871Y-14853389D01*
X12138871Y-14853389D02*
X12138871Y-14901008D01*
X12138871Y-14901008D02*
X12129347Y-14920056D01*
X12129347Y-14920056D02*
X12119824Y-14929580D01*
X12119824Y-14929580D02*
X12100776Y-14939104D01*
X12100776Y-14939104D02*
X12043633Y-14939104D01*
X12043633Y-14939104D02*
X12024586Y-14929580D01*
X12024586Y-14929580D02*
X12015062Y-14920056D01*
X12234109Y-14939104D02*
X12272205Y-14939104D01*
X12272205Y-14939104D02*
X12291252Y-14929580D01*
X12291252Y-14929580D02*
X12300776Y-14920056D01*
X12300776Y-14920056D02*
X12319824Y-14891485D01*
X12319824Y-14891485D02*
X12329347Y-14853389D01*
X12329347Y-14853389D02*
X12329347Y-14777199D01*
X12329347Y-14777199D02*
X12319824Y-14758151D01*
X12319824Y-14758151D02*
X12310300Y-14748628D01*
X12310300Y-14748628D02*
X12291252Y-14739104D01*
X12291252Y-14739104D02*
X12253157Y-14739104D01*
X12253157Y-14739104D02*
X12234109Y-14748628D01*
X12234109Y-14748628D02*
X12224586Y-14758151D01*
X12224586Y-14758151D02*
X12215062Y-14777199D01*
X12215062Y-14777199D02*
X12215062Y-14824818D01*
X12215062Y-14824818D02*
X12224586Y-14843866D01*
X12224586Y-14843866D02*
X12234109Y-14853389D01*
X12234109Y-14853389D02*
X12253157Y-14862913D01*
X12253157Y-14862913D02*
X12291252Y-14862913D01*
X12291252Y-14862913D02*
X12310300Y-14853389D01*
X12310300Y-14853389D02*
X12319824Y-14843866D01*
X12319824Y-14843866D02*
X12329347Y-14824818D01*
X12500776Y-14805770D02*
X12500776Y-14939104D01*
X12453157Y-14729580D02*
X12405538Y-14872437D01*
X12405538Y-14872437D02*
X12529347Y-14872437D01*
X12596014Y-14739104D02*
X12596014Y-14777199D01*
X12672205Y-14739104D02*
X12672205Y-14777199D01*
X12967443Y-15015294D02*
X12957919Y-15005770D01*
X12957919Y-15005770D02*
X12938871Y-14977199D01*
X12938871Y-14977199D02*
X12929348Y-14958151D01*
X12929348Y-14958151D02*
X12919824Y-14929580D01*
X12919824Y-14929580D02*
X12910300Y-14881961D01*
X12910300Y-14881961D02*
X12910300Y-14843866D01*
X12910300Y-14843866D02*
X12919824Y-14796247D01*
X12919824Y-14796247D02*
X12929348Y-14767675D01*
X12929348Y-14767675D02*
X12938871Y-14748628D01*
X12938871Y-14748628D02*
X12957919Y-14720056D01*
X12957919Y-14720056D02*
X12967443Y-14710532D01*
X13148395Y-14939104D02*
X13034109Y-14939104D01*
X13091252Y-14939104D02*
X13091252Y-14739104D01*
X13091252Y-14739104D02*
X13072205Y-14767675D01*
X13072205Y-14767675D02*
X13053157Y-14786723D01*
X13053157Y-14786723D02*
X13034109Y-14796247D01*
X13272205Y-14739104D02*
X13291252Y-14739104D01*
X13291252Y-14739104D02*
X13310300Y-14748628D01*
X13310300Y-14748628D02*
X13319824Y-14758151D01*
X13319824Y-14758151D02*
X13329348Y-14777199D01*
X13329348Y-14777199D02*
X13338871Y-14815294D01*
X13338871Y-14815294D02*
X13338871Y-14862913D01*
X13338871Y-14862913D02*
X13329348Y-14901008D01*
X13329348Y-14901008D02*
X13319824Y-14920056D01*
X13319824Y-14920056D02*
X13310300Y-14929580D01*
X13310300Y-14929580D02*
X13291252Y-14939104D01*
X13291252Y-14939104D02*
X13272205Y-14939104D01*
X13272205Y-14939104D02*
X13253157Y-14929580D01*
X13253157Y-14929580D02*
X13243633Y-14920056D01*
X13243633Y-14920056D02*
X13234109Y-14901008D01*
X13234109Y-14901008D02*
X13224586Y-14862913D01*
X13224586Y-14862913D02*
X13224586Y-14815294D01*
X13224586Y-14815294D02*
X13234109Y-14777199D01*
X13234109Y-14777199D02*
X13243633Y-14758151D01*
X13243633Y-14758151D02*
X13253157Y-14748628D01*
X13253157Y-14748628D02*
X13272205Y-14739104D01*
X13576967Y-14939104D02*
X13576967Y-14739104D01*
X13662681Y-14939104D02*
X13662681Y-14834342D01*
X13662681Y-14834342D02*
X13653157Y-14815294D01*
X13653157Y-14815294D02*
X13634110Y-14805770D01*
X13634110Y-14805770D02*
X13605538Y-14805770D01*
X13605538Y-14805770D02*
X13586490Y-14815294D01*
X13586490Y-14815294D02*
X13576967Y-14824818D01*
X13786490Y-14939104D02*
X13767443Y-14929580D01*
X13767443Y-14929580D02*
X13757919Y-14920056D01*
X13757919Y-14920056D02*
X13748395Y-14901008D01*
X13748395Y-14901008D02*
X13748395Y-14843866D01*
X13748395Y-14843866D02*
X13757919Y-14824818D01*
X13757919Y-14824818D02*
X13767443Y-14815294D01*
X13767443Y-14815294D02*
X13786490Y-14805770D01*
X13786490Y-14805770D02*
X13815062Y-14805770D01*
X13815062Y-14805770D02*
X13834110Y-14815294D01*
X13834110Y-14815294D02*
X13843633Y-14824818D01*
X13843633Y-14824818D02*
X13853157Y-14843866D01*
X13853157Y-14843866D02*
X13853157Y-14901008D01*
X13853157Y-14901008D02*
X13843633Y-14920056D01*
X13843633Y-14920056D02*
X13834110Y-14929580D01*
X13834110Y-14929580D02*
X13815062Y-14939104D01*
X13815062Y-14939104D02*
X13786490Y-14939104D01*
X13967443Y-14939104D02*
X13948395Y-14929580D01*
X13948395Y-14929580D02*
X13938871Y-14910532D01*
X13938871Y-14910532D02*
X13938871Y-14739104D01*
X14119824Y-14929580D02*
X14100776Y-14939104D01*
X14100776Y-14939104D02*
X14062681Y-14939104D01*
X14062681Y-14939104D02*
X14043633Y-14929580D01*
X14043633Y-14929580D02*
X14034110Y-14910532D01*
X14034110Y-14910532D02*
X14034110Y-14834342D01*
X14034110Y-14834342D02*
X14043633Y-14815294D01*
X14043633Y-14815294D02*
X14062681Y-14805770D01*
X14062681Y-14805770D02*
X14100776Y-14805770D01*
X14100776Y-14805770D02*
X14119824Y-14815294D01*
X14119824Y-14815294D02*
X14129348Y-14834342D01*
X14129348Y-14834342D02*
X14129348Y-14853389D01*
X14129348Y-14853389D02*
X14034110Y-14872437D01*
X14205538Y-14929580D02*
X14224586Y-14939104D01*
X14224586Y-14939104D02*
X14262681Y-14939104D01*
X14262681Y-14939104D02*
X14281729Y-14929580D01*
X14281729Y-14929580D02*
X14291252Y-14910532D01*
X14291252Y-14910532D02*
X14291252Y-14901008D01*
X14291252Y-14901008D02*
X14281729Y-14881961D01*
X14281729Y-14881961D02*
X14262681Y-14872437D01*
X14262681Y-14872437D02*
X14234110Y-14872437D01*
X14234110Y-14872437D02*
X14215062Y-14862913D01*
X14215062Y-14862913D02*
X14205538Y-14843866D01*
X14205538Y-14843866D02*
X14205538Y-14834342D01*
X14205538Y-14834342D02*
X14215062Y-14815294D01*
X14215062Y-14815294D02*
X14234110Y-14805770D01*
X14234110Y-14805770D02*
X14262681Y-14805770D01*
X14262681Y-14805770D02*
X14281729Y-14815294D01*
X14357919Y-15015294D02*
X14367443Y-15005770D01*
X14367443Y-15005770D02*
X14386491Y-14977199D01*
X14386491Y-14977199D02*
X14396014Y-14958151D01*
X14396014Y-14958151D02*
X14405538Y-14929580D01*
X14405538Y-14929580D02*
X14415062Y-14881961D01*
X14415062Y-14881961D02*
X14415062Y-14843866D01*
X14415062Y-14843866D02*
X14405538Y-14796247D01*
X14405538Y-14796247D02*
X14396014Y-14767675D01*
X14396014Y-14767675D02*
X14386491Y-14748628D01*
X14386491Y-14748628D02*
X14367443Y-14720056D01*
X14367443Y-14720056D02*
X14357919Y-14710532D01*
X14719824Y-15015294D02*
X14710300Y-15005770D01*
X14710300Y-15005770D02*
X14691252Y-14977199D01*
X14691252Y-14977199D02*
X14681729Y-14958151D01*
X14681729Y-14958151D02*
X14672205Y-14929580D01*
X14672205Y-14929580D02*
X14662681Y-14881961D01*
X14662681Y-14881961D02*
X14662681Y-14843866D01*
X14662681Y-14843866D02*
X14672205Y-14796247D01*
X14672205Y-14796247D02*
X14681729Y-14767675D01*
X14681729Y-14767675D02*
X14691252Y-14748628D01*
X14691252Y-14748628D02*
X14710300Y-14720056D01*
X14710300Y-14720056D02*
X14719824Y-14710532D01*
X14796014Y-14805770D02*
X14796014Y-14939104D01*
X14796014Y-14824818D02*
X14805538Y-14815294D01*
X14805538Y-14815294D02*
X14824586Y-14805770D01*
X14824586Y-14805770D02*
X14853157Y-14805770D01*
X14853157Y-14805770D02*
X14872205Y-14815294D01*
X14872205Y-14815294D02*
X14881729Y-14834342D01*
X14881729Y-14834342D02*
X14881729Y-14939104D01*
X15005538Y-14939104D02*
X14986491Y-14929580D01*
X14986491Y-14929580D02*
X14976967Y-14920056D01*
X14976967Y-14920056D02*
X14967443Y-14901008D01*
X14967443Y-14901008D02*
X14967443Y-14843866D01*
X14967443Y-14843866D02*
X14976967Y-14824818D01*
X14976967Y-14824818D02*
X14986491Y-14815294D01*
X14986491Y-14815294D02*
X15005538Y-14805770D01*
X15005538Y-14805770D02*
X15034110Y-14805770D01*
X15034110Y-14805770D02*
X15053157Y-14815294D01*
X15053157Y-14815294D02*
X15062681Y-14824818D01*
X15062681Y-14824818D02*
X15072205Y-14843866D01*
X15072205Y-14843866D02*
X15072205Y-14901008D01*
X15072205Y-14901008D02*
X15062681Y-14920056D01*
X15062681Y-14920056D02*
X15053157Y-14929580D01*
X15053157Y-14929580D02*
X15034110Y-14939104D01*
X15034110Y-14939104D02*
X15005538Y-14939104D01*
X15129348Y-14805770D02*
X15205538Y-14805770D01*
X15157919Y-14739104D02*
X15157919Y-14910532D01*
X15157919Y-14910532D02*
X15167443Y-14929580D01*
X15167443Y-14929580D02*
X15186491Y-14939104D01*
X15186491Y-14939104D02*
X15205538Y-14939104D01*
X15424586Y-14805770D02*
X15424586Y-15005770D01*
X15424586Y-14815294D02*
X15443633Y-14805770D01*
X15443633Y-14805770D02*
X15481729Y-14805770D01*
X15481729Y-14805770D02*
X15500776Y-14815294D01*
X15500776Y-14815294D02*
X15510300Y-14824818D01*
X15510300Y-14824818D02*
X15519824Y-14843866D01*
X15519824Y-14843866D02*
X15519824Y-14901008D01*
X15519824Y-14901008D02*
X15510300Y-14920056D01*
X15510300Y-14920056D02*
X15500776Y-14929580D01*
X15500776Y-14929580D02*
X15481729Y-14939104D01*
X15481729Y-14939104D02*
X15443633Y-14939104D01*
X15443633Y-14939104D02*
X15424586Y-14929580D01*
X15634110Y-14939104D02*
X15615062Y-14929580D01*
X15615062Y-14929580D02*
X15605538Y-14910532D01*
X15605538Y-14910532D02*
X15605538Y-14739104D01*
X15796014Y-14939104D02*
X15796014Y-14834342D01*
X15796014Y-14834342D02*
X15786491Y-14815294D01*
X15786491Y-14815294D02*
X15767443Y-14805770D01*
X15767443Y-14805770D02*
X15729348Y-14805770D01*
X15729348Y-14805770D02*
X15710300Y-14815294D01*
X15796014Y-14929580D02*
X15776967Y-14939104D01*
X15776967Y-14939104D02*
X15729348Y-14939104D01*
X15729348Y-14939104D02*
X15710300Y-14929580D01*
X15710300Y-14929580D02*
X15700776Y-14910532D01*
X15700776Y-14910532D02*
X15700776Y-14891485D01*
X15700776Y-14891485D02*
X15710300Y-14872437D01*
X15710300Y-14872437D02*
X15729348Y-14862913D01*
X15729348Y-14862913D02*
X15776967Y-14862913D01*
X15776967Y-14862913D02*
X15796014Y-14853389D01*
X15862681Y-14805770D02*
X15938872Y-14805770D01*
X15891253Y-14739104D02*
X15891253Y-14910532D01*
X15891253Y-14910532D02*
X15900776Y-14929580D01*
X15900776Y-14929580D02*
X15919824Y-14939104D01*
X15919824Y-14939104D02*
X15938872Y-14939104D01*
X16081729Y-14929580D02*
X16062681Y-14939104D01*
X16062681Y-14939104D02*
X16024586Y-14939104D01*
X16024586Y-14939104D02*
X16005538Y-14929580D01*
X16005538Y-14929580D02*
X15996014Y-14910532D01*
X15996014Y-14910532D02*
X15996014Y-14834342D01*
X15996014Y-14834342D02*
X16005538Y-14815294D01*
X16005538Y-14815294D02*
X16024586Y-14805770D01*
X16024586Y-14805770D02*
X16062681Y-14805770D01*
X16062681Y-14805770D02*
X16081729Y-14815294D01*
X16081729Y-14815294D02*
X16091253Y-14834342D01*
X16091253Y-14834342D02*
X16091253Y-14853389D01*
X16091253Y-14853389D02*
X15996014Y-14872437D01*
X16262681Y-14939104D02*
X16262681Y-14739104D01*
X16262681Y-14929580D02*
X16243634Y-14939104D01*
X16243634Y-14939104D02*
X16205538Y-14939104D01*
X16205538Y-14939104D02*
X16186491Y-14929580D01*
X16186491Y-14929580D02*
X16176967Y-14920056D01*
X16176967Y-14920056D02*
X16167443Y-14901008D01*
X16167443Y-14901008D02*
X16167443Y-14843866D01*
X16167443Y-14843866D02*
X16176967Y-14824818D01*
X16176967Y-14824818D02*
X16186491Y-14815294D01*
X16186491Y-14815294D02*
X16205538Y-14805770D01*
X16205538Y-14805770D02*
X16243634Y-14805770D01*
X16243634Y-14805770D02*
X16262681Y-14815294D01*
X16338872Y-15015294D02*
X16348395Y-15005770D01*
X16348395Y-15005770D02*
X16367443Y-14977199D01*
X16367443Y-14977199D02*
X16376967Y-14958151D01*
X16376967Y-14958151D02*
X16386491Y-14929580D01*
X16386491Y-14929580D02*
X16396014Y-14881961D01*
X16396014Y-14881961D02*
X16396014Y-14843866D01*
X16396014Y-14843866D02*
X16386491Y-14796247D01*
X16386491Y-14796247D02*
X16376967Y-14767675D01*
X16376967Y-14767675D02*
X16367443Y-14748628D01*
X16367443Y-14748628D02*
X16348395Y-14720056D01*
X16348395Y-14720056D02*
X16338872Y-14710532D01*
M02*
