%TF.GenerationSoftware,KiCad,Pcbnew,9.0.7*%
%TF.CreationDate,2026-04-16T10:54:11+01:00*%
%TF.ProjectId,stepperdriver front panel,73746570-7065-4726-9472-697665722066,rev?*%
%TF.SameCoordinates,Original*%
%TF.FileFunction,Profile,NP*%
%FSLAX46Y46*%
G04 Gerber Fmt 4.6, Leading zero omitted, Abs format (unit mm)*
G04 Created by KiCad (PCBNEW 9.0.7) date 2026-04-16 10:54:11*
%MOMM*%
%LPD*%
G01*
G04 APERTURE LIST*
%TA.AperFunction,Profile*%
%ADD10C,0.152400*%
%TD*%
G04 APERTURE END LIST*
D10*
X97000000Y-142000000D02*
X224000000Y-142000000D01*
X96000000Y-111750000D02*
X94000000Y-112750000D01*
X96000000Y-121250000D02*
X94000000Y-120250000D01*
X225000000Y-111750000D02*
X225000000Y-121250000D01*
X225000000Y-137000000D02*
X227000000Y-136000000D01*
X97000000Y-107000000D02*
X224000000Y-107000000D01*
X224000000Y-107000000D02*
G75*
G02*
X227000000Y-110000000I0J-3000000D01*
G01*
X225000000Y-127500000D02*
X227000000Y-128500000D01*
X97000000Y-142000000D02*
G75*
G02*
X94000000Y-139000000I0J3000000D01*
G01*
X227000000Y-120250000D02*
X227000000Y-128500000D01*
X96000000Y-111750000D02*
X96000000Y-121250000D01*
X94000000Y-110000000D02*
G75*
G02*
X97000000Y-107000000I3000000J0D01*
G01*
X124800000Y-119500000D02*
X124800000Y-127896400D01*
X227000000Y-112750000D02*
X227000000Y-110000000D01*
X96000000Y-127500000D02*
X96000000Y-137000000D01*
X225000000Y-111750000D02*
X227000000Y-112750000D01*
X227000000Y-136000000D02*
X227000000Y-139000000D01*
X225000000Y-127500000D02*
X225000000Y-137000000D01*
X96000000Y-137000000D02*
X94000000Y-136000000D01*
X94000000Y-136000000D02*
X94000000Y-139000000D01*
X227000000Y-139000000D02*
G75*
G02*
X224000000Y-142000000I-3000000J0D01*
G01*
X190900000Y-127896400D02*
X124800000Y-127900000D01*
X225000000Y-121250000D02*
X227000000Y-120250000D01*
X94000000Y-120250000D02*
X94000000Y-128500000D01*
X190900000Y-119500000D02*
X190900000Y-127896400D01*
X96000000Y-127500000D02*
X94000000Y-128500000D01*
X124800000Y-119500000D02*
X190900000Y-119500000D01*
X94000000Y-110000000D02*
X94000000Y-112750000D01*
M02*
