%TF.GenerationSoftware,KiCad,Pcbnew,9.0.7*%
%TF.CreationDate,2026-04-16T10:54:11+01:00*%
%TF.ProjectId,stepperdriver front panel,73746570-7065-4726-9472-697665722066,rev?*%
%TF.SameCoordinates,Original*%
%TF.FileFunction,Copper,L1,Top*%
%TF.FilePolarity,Positive*%
%FSLAX46Y46*%
G04 Gerber Fmt 4.6, Leading zero omitted, Abs format (unit mm)*
G04 Created by KiCad (PCBNEW 9.0.7) date 2026-04-16 10:54:11*
%MOMM*%
%LPD*%
G01*
G04 APERTURE LIST*
%TA.AperFunction,ComponentPad*%
%ADD10C,1.508000*%
%TD*%
%TA.AperFunction,ViaPad*%
%ADD11C,4.316000*%
%TD*%
%TA.AperFunction,ViaPad*%
%ADD12C,0.600000*%
%TD*%
%TA.AperFunction,Conductor*%
%ADD13C,0.300000*%
%TD*%
%TA.AperFunction,Conductor*%
%ADD14C,0.230000*%
%TD*%
%TA.AperFunction,Conductor*%
%ADD15C,0.350000*%
%TD*%
G04 APERTURE END LIST*
D10*
%TO.P,U$4,1,Pin_1*%
%TO.N,+5V*%
X119748900Y-126000000D03*
%TO.P,U$4,2,Pin_2*%
%TO.N,ENCD_1.A*%
X119748900Y-124000000D03*
%TO.P,U$4,3,Pin_3*%
%TO.N,ENCD_1.B*%
X119748900Y-122000000D03*
%TO.P,U$4,4,Pin_4*%
%TO.N,GNDD*%
X119748900Y-120000000D03*
%TD*%
%TO.P,U$6,1,Pin_1*%
%TO.N,+5V*%
X104800000Y-126000000D03*
%TO.P,U$6,2,Pin_2*%
%TO.N,ENCD_2.A*%
X104800000Y-124000000D03*
%TO.P,U$6,3,Pin_3*%
%TO.N,ENCD_2.B*%
X104800000Y-122000000D03*
%TO.P,U$6,4,Pin_4*%
%TO.N,GNDD*%
X104800000Y-120000000D03*
%TD*%
%TO.P,U$5,1,Pin_1*%
%TO.N,+5V*%
X112274450Y-126000000D03*
%TO.P,U$5,2,Pin_2*%
%TO.N,ENCD_3.A*%
X112274450Y-124000000D03*
%TO.P,U$5,3,Pin_3*%
%TO.N,ENCD_3.B*%
X112274450Y-122000000D03*
%TO.P,U$5,4,Pin_4*%
%TO.N,GNDD*%
X112274450Y-120000000D03*
%TD*%
%TO.P,U$8,1,Pin_1*%
%TO.N,/limit_switch_power*%
X195900000Y-124996400D03*
%TO.P,U$8,2,Pin_2*%
%TO.N,INDUCTOR_LIMIT_SW_1*%
X195900000Y-122996400D03*
%TO.P,U$8,3,Pin_3*%
%TO.N,GNDD*%
X195900000Y-120996400D03*
%TO.P,U$8,4,Pin_4*%
%TO.N,/limit_switch_power*%
X202400000Y-124996400D03*
%TO.P,U$8,5,Pin_5*%
%TO.N,INDUCTOR_LIMIT_SW_2*%
X202400000Y-122996400D03*
%TO.P,U$8,6,Pin_6*%
%TO.N,GNDD*%
X202400000Y-120996400D03*
%TO.P,U$8,7,Pin_7*%
%TO.N,/limit_switch_power*%
X208900000Y-124996400D03*
%TO.P,U$8,8,Pin_8*%
%TO.N,INDUCTOR_LIMIT_SW_3*%
X208900000Y-122996400D03*
%TO.P,U$8,9,Pin_9*%
%TO.N,GNDD*%
X208900000Y-120996400D03*
%TO.P,U$8,10,Pin_10*%
%TO.N,/limit_switch_power*%
X215400000Y-124996400D03*
%TO.P,U$8,11,Pin_11*%
%TO.N,INDUCTOR_LIMIT_SW_4*%
X215400000Y-122996400D03*
%TO.P,U$8,12,Pin_12*%
%TO.N,GNDD*%
X215400000Y-120996400D03*
%TD*%
D11*
%TO.N,GNDD*%
X99921000Y-111340000D03*
D12*
X164450000Y-128900000D03*
X201670000Y-126440000D03*
D11*
X99921000Y-136330000D03*
D12*
X212800000Y-131600000D03*
X166600000Y-118650000D03*
X198200000Y-128700000D03*
X207700000Y-140750000D03*
D11*
X220921000Y-136330000D03*
D12*
X214000000Y-127350000D03*
X211750000Y-124000000D03*
X115400000Y-121650000D03*
X196900000Y-138100000D03*
X164200000Y-116250000D03*
X139000000Y-128700000D03*
X197900000Y-126150000D03*
X116550000Y-130950000D03*
D11*
X220921000Y-111340000D03*
D12*
X192150000Y-124400000D03*
X211850000Y-126200000D03*
X109550000Y-131150000D03*
X192350000Y-130900000D03*
X129300000Y-117900000D03*
X170700000Y-140550000D03*
X109498900Y-114896400D03*
X191900000Y-119150000D03*
X116050000Y-116600000D03*
%TO.N,+5V*%
X198550000Y-129750000D03*
X199000000Y-139300000D03*
%TO.N,+3V3*%
X206850000Y-135050000D03*
X206900000Y-114250000D03*
%TO.N,ENCD_1.A*%
X121700000Y-127800000D03*
%TO.N,ENCD_1.B*%
X122700000Y-130400000D03*
%TO.N,ENCD_2.A*%
X106500000Y-126950000D03*
%TO.N,ENCD_2.B*%
X107700000Y-128650000D03*
%TO.N,ENCD_3.A*%
X114100000Y-129850000D03*
%TO.N,ENCD_3.B*%
X114150000Y-131250000D03*
%TO.N,LED_M0_PANEL*%
X205250000Y-135150000D03*
X205400000Y-117750000D03*
%TO.N,LED_M1_PANEL*%
X204600000Y-117100000D03*
X204500000Y-134450000D03*
%TO.N,LED_PWR_PANEL*%
X206100000Y-136000000D03*
X202100000Y-111500000D03*
%TO.N,LED_M2_PANEL*%
X203850000Y-116300000D03*
X203850000Y-133250000D03*
%TO.N,LED_M3_PANEL*%
X203200000Y-133900000D03*
X201200000Y-115650000D03*
%TO.N,INDUCTOR_LIMIT_SW_1*%
X210950000Y-130450000D03*
X211950000Y-127750000D03*
%TO.N,INDUCTOR_LIMIT_SW_2*%
X200850000Y-127950000D03*
X209850000Y-129900000D03*
X210550000Y-127950000D03*
%TO.N,INDUCTOR_LIMIT_SW_3*%
X208950000Y-130450000D03*
%TO.N,INDUCTOR_LIMIT_SW_4*%
X212950000Y-128850000D03*
%TO.N,/limit_switch_power*%
X207650000Y-128850000D03*
%TO.N,LED_STATE_PANEL*%
X202500000Y-134700000D03*
X199300000Y-114950000D03*
%TD*%
D13*
%TO.N,+5V*%
X198550000Y-138850000D02*
X199000000Y-139300000D01*
X198550000Y-129750000D02*
X198550000Y-138850000D01*
%TO.N,+3V3*%
X206900000Y-114250000D02*
X206850000Y-114300000D01*
X206850000Y-114300000D02*
X206850000Y-135050000D01*
D14*
%TO.N,ENCD_1.A*%
X121700000Y-124500000D02*
X121146400Y-123946400D01*
X121700000Y-127800000D02*
X121700000Y-124500000D01*
X121146400Y-123946400D02*
X120146400Y-123946400D01*
%TO.N,ENCD_1.B*%
X122700000Y-130400000D02*
X122700000Y-122950000D01*
X121750000Y-122000000D02*
X120300000Y-122000000D01*
X122700000Y-122950000D02*
X121750000Y-122000000D01*
%TO.N,ENCD_2.A*%
X106150000Y-124000000D02*
X105300000Y-124000000D01*
X106500000Y-124350000D02*
X106150000Y-124000000D01*
X106500000Y-126950000D02*
X106500000Y-124350000D01*
%TO.N,ENCD_2.B*%
X107700000Y-122650000D02*
X107050000Y-122000000D01*
X107050000Y-122000000D02*
X105400000Y-122000000D01*
X107700000Y-128650000D02*
X107700000Y-122650000D01*
%TO.N,ENCD_3.A*%
X113700000Y-124000000D02*
X112800000Y-124000000D01*
X114100000Y-129850000D02*
X114100000Y-124400000D01*
X114100000Y-124400000D02*
X113700000Y-124000000D01*
%TO.N,ENCD_3.B*%
X115200000Y-123150000D02*
X114050000Y-122000000D01*
X114050000Y-122000000D02*
X112700000Y-122000000D01*
X114150000Y-131250000D02*
X115200000Y-130200000D01*
X115200000Y-130200000D02*
X115200000Y-123150000D01*
%TO.N,LED_M0_PANEL*%
X205400000Y-117750000D02*
X205400000Y-135000000D01*
X205400000Y-135000000D02*
X205250000Y-135150000D01*
%TO.N,LED_M1_PANEL*%
X204600000Y-134350000D02*
X204500000Y-134450000D01*
X204600000Y-117100000D02*
X204600000Y-134350000D01*
%TO.N,LED_PWR_PANEL*%
X204550000Y-111500000D02*
X205000000Y-111950000D01*
X205000000Y-111950000D02*
X205000000Y-116150000D01*
X206100000Y-117250000D02*
X206100000Y-136000000D01*
X205000000Y-116150000D02*
X206100000Y-117250000D01*
X202100000Y-111500000D02*
X204550000Y-111500000D01*
%TO.N,LED_M2_PANEL*%
X203850000Y-116300000D02*
X203850000Y-133250000D01*
%TO.N,LED_M3_PANEL*%
X200400000Y-115650000D02*
X199900000Y-116150000D01*
X199900000Y-133600000D02*
X200200000Y-133900000D01*
X201200000Y-115650000D02*
X200400000Y-115650000D01*
X200200000Y-133900000D02*
X203200000Y-133900000D01*
X199900000Y-116150000D02*
X199900000Y-133600000D01*
%TO.N,INDUCTOR_LIMIT_SW_1*%
X211950000Y-129750000D02*
X211950000Y-127750000D01*
X210950000Y-130450000D02*
X211250000Y-130450000D01*
X211250000Y-130450000D02*
X211950000Y-129750000D01*
%TO.N,INDUCTOR_LIMIT_SW_2*%
X201403600Y-122996400D02*
X200700000Y-123700000D01*
X200700000Y-127800000D02*
X200850000Y-127950000D01*
X209850000Y-128150000D02*
X210050000Y-127950000D01*
X202400000Y-122996400D02*
X201403600Y-122996400D01*
X200700000Y-123700000D02*
X200700000Y-127800000D01*
X209850000Y-129900000D02*
X209850000Y-128150000D01*
X210050000Y-127950000D02*
X210550000Y-127950000D01*
%TO.N,INDUCTOR_LIMIT_SW_3*%
X208950000Y-130450000D02*
X208950000Y-127550000D01*
X210550000Y-123450000D02*
X210096400Y-122996400D01*
X208950000Y-127550000D02*
X210550000Y-125950000D01*
X210096400Y-122996400D02*
X208900000Y-122996400D01*
X210550000Y-125950000D02*
X210550000Y-123450000D01*
%TO.N,INDUCTOR_LIMIT_SW_4*%
X213353600Y-122996400D02*
X215400000Y-122996400D01*
X212950000Y-128850000D02*
X212950000Y-123400000D01*
X212950000Y-123400000D02*
X213353600Y-122996400D01*
D15*
%TO.N,/limit_switch_power*%
X207700000Y-126196400D02*
X208900000Y-124996400D01*
X207700000Y-128800000D02*
X207700000Y-126196400D01*
X207650000Y-128850000D02*
X207700000Y-128800000D01*
D14*
%TO.N,LED_STATE_PANEL*%
X199300000Y-134100000D02*
X199900000Y-134700000D01*
X199300000Y-114950000D02*
X199300000Y-134100000D01*
X199900000Y-134700000D02*
X202500000Y-134700000D01*
%TD*%
%TA.AperFunction,Conductor*%
%TO.N,GNDD*%
G36*
X201319334Y-123700075D02*
G01*
X201375267Y-123741947D01*
X201399684Y-123807411D01*
X201400000Y-123816257D01*
X201400000Y-124862629D01*
X201397617Y-124886822D01*
X201395500Y-124897463D01*
X201395500Y-125095333D01*
X201397617Y-125105975D01*
X201400000Y-125130170D01*
X201400000Y-126100000D01*
X203360500Y-126100000D01*
X203427539Y-126119685D01*
X203473294Y-126172489D01*
X203484500Y-126224000D01*
X203484500Y-132785614D01*
X203464815Y-132852653D01*
X203448181Y-132873295D01*
X203409493Y-132911982D01*
X203409488Y-132911988D01*
X203337017Y-133037511D01*
X203337016Y-133037515D01*
X203299500Y-133177525D01*
X203299500Y-133177527D01*
X203299500Y-133225500D01*
X203279815Y-133292539D01*
X203227011Y-133338294D01*
X203175500Y-133349500D01*
X203127525Y-133349500D01*
X202998993Y-133383940D01*
X202987511Y-133387017D01*
X202861988Y-133459488D01*
X202861982Y-133459493D01*
X202823295Y-133498181D01*
X202761972Y-133531666D01*
X202735614Y-133534500D01*
X200402757Y-133534500D01*
X200373316Y-133525855D01*
X200343330Y-133519332D01*
X200338314Y-133515577D01*
X200335718Y-133514815D01*
X200315076Y-133498181D01*
X200301819Y-133484924D01*
X200268334Y-133423601D01*
X200265500Y-133397243D01*
X200265500Y-130674000D01*
X200285185Y-130606961D01*
X200337989Y-130561206D01*
X200389500Y-130550000D01*
X200850000Y-130550000D01*
X200850000Y-128615067D01*
X200869685Y-128548028D01*
X200922489Y-128502273D01*
X200941894Y-128495296D01*
X201062485Y-128462984D01*
X201188015Y-128390509D01*
X201290509Y-128288015D01*
X201362984Y-128162485D01*
X201400500Y-128022475D01*
X201400500Y-127877525D01*
X201362984Y-127737515D01*
X201357217Y-127727527D01*
X201290511Y-127611988D01*
X201290506Y-127611982D01*
X201188017Y-127509493D01*
X201188015Y-127509491D01*
X201163526Y-127495352D01*
X201127498Y-127474550D01*
X201079283Y-127423982D01*
X201065500Y-127367164D01*
X201065500Y-123902757D01*
X201074144Y-123873316D01*
X201080668Y-123843330D01*
X201084422Y-123838314D01*
X201085185Y-123835718D01*
X201101819Y-123815076D01*
X201188319Y-123728576D01*
X201249642Y-123695091D01*
X201319334Y-123700075D01*
G37*
%TD.AperFunction*%
%TA.AperFunction,Conductor*%
G36*
X224003471Y-107254695D02*
G01*
X224039829Y-107256736D01*
X224300454Y-107271373D01*
X224314253Y-107272927D01*
X224604064Y-107322168D01*
X224617620Y-107325262D01*
X224900092Y-107406641D01*
X224913218Y-107411234D01*
X225184800Y-107523727D01*
X225197314Y-107529753D01*
X225394633Y-107638808D01*
X225454598Y-107671950D01*
X225466372Y-107679348D01*
X225706110Y-107849451D01*
X225716982Y-107858121D01*
X225936169Y-108053997D01*
X225946002Y-108063830D01*
X226141878Y-108283017D01*
X226150548Y-108293889D01*
X226320651Y-108533627D01*
X226328049Y-108545401D01*
X226470242Y-108802678D01*
X226476275Y-108815206D01*
X226588765Y-109086782D01*
X226593358Y-109099907D01*
X226674737Y-109382379D01*
X226677831Y-109395936D01*
X226727070Y-109685735D01*
X226728627Y-109699553D01*
X226745305Y-109996527D01*
X226745500Y-110003480D01*
X226745500Y-112137574D01*
X226725815Y-112204613D01*
X226673011Y-112250368D01*
X226603853Y-112260312D01*
X226566046Y-112248483D01*
X225168754Y-111549837D01*
X225150755Y-111540837D01*
X225144163Y-111534245D01*
X225105742Y-111518330D01*
X225101792Y-111516355D01*
X225101790Y-111516353D01*
X225068542Y-111499730D01*
X225059651Y-111497296D01*
X225050624Y-111495500D01*
X225050623Y-111495500D01*
X225050621Y-111495500D01*
X225013437Y-111495500D01*
X225004647Y-111495188D01*
X225001262Y-111494947D01*
X224967544Y-111492550D01*
X224958694Y-111495500D01*
X224949377Y-111495500D01*
X224910972Y-111511406D01*
X224906798Y-111512798D01*
X224906790Y-111512802D01*
X224871493Y-111524568D01*
X224863498Y-111529125D01*
X224855834Y-111534246D01*
X224829524Y-111560554D01*
X224829525Y-111560555D01*
X224826411Y-111563668D01*
X224795008Y-111590906D01*
X224790839Y-111599241D01*
X224784245Y-111605836D01*
X224784243Y-111605838D01*
X224770008Y-111640200D01*
X224770009Y-111640201D01*
X224768319Y-111644279D01*
X224749729Y-111681463D01*
X224749068Y-111690759D01*
X224745501Y-111699372D01*
X224745500Y-111699377D01*
X224745500Y-111736561D01*
X224745188Y-111745352D01*
X224742551Y-111782453D01*
X224744079Y-111794572D01*
X224742789Y-111794734D01*
X224745500Y-111811424D01*
X224745500Y-121208698D01*
X224742551Y-121217545D01*
X224745500Y-121259036D01*
X224745500Y-121300621D01*
X224745501Y-121300628D01*
X224749068Y-121309240D01*
X224749729Y-121318537D01*
X224768315Y-121355711D01*
X224770000Y-121359778D01*
X224770006Y-121359790D01*
X224784245Y-121394163D01*
X224784245Y-121394164D01*
X224790839Y-121400758D01*
X224795008Y-121409094D01*
X224826419Y-121436337D01*
X224855837Y-121465755D01*
X224864451Y-121469323D01*
X224871495Y-121475432D01*
X224910957Y-121488586D01*
X224949377Y-121504500D01*
X224949383Y-121504500D01*
X224958432Y-121506300D01*
X224967542Y-121507449D01*
X224967544Y-121507448D01*
X224967545Y-121507449D01*
X225004646Y-121504812D01*
X225004647Y-121504812D01*
X225009037Y-121504500D01*
X225050623Y-121504500D01*
X225059234Y-121500932D01*
X225067882Y-121500317D01*
X225068537Y-121500271D01*
X225101789Y-121483644D01*
X225109781Y-121479995D01*
X225144163Y-121465755D01*
X225144166Y-121465751D01*
X225154321Y-121458967D01*
X225155044Y-121460049D01*
X225168757Y-121450159D01*
X226566048Y-120751514D01*
X226634811Y-120739140D01*
X226699350Y-120765908D01*
X226739172Y-120823318D01*
X226745500Y-120862424D01*
X226745500Y-127887574D01*
X226725815Y-127954613D01*
X226673011Y-128000368D01*
X226603853Y-128010312D01*
X226566046Y-127998483D01*
X225168754Y-127299837D01*
X225150755Y-127290837D01*
X225144163Y-127284245D01*
X225105742Y-127268330D01*
X225101792Y-127266355D01*
X225101790Y-127266353D01*
X225068542Y-127249730D01*
X225059651Y-127247296D01*
X225050624Y-127245500D01*
X225050623Y-127245500D01*
X225050621Y-127245500D01*
X225013437Y-127245500D01*
X225004647Y-127245188D01*
X225001262Y-127244947D01*
X224967544Y-127242550D01*
X224958694Y-127245500D01*
X224949377Y-127245500D01*
X224910972Y-127261406D01*
X224906798Y-127262798D01*
X224906790Y-127262802D01*
X224871493Y-127274568D01*
X224863498Y-127279125D01*
X224855834Y-127284246D01*
X224829524Y-127310554D01*
X224829525Y-127310555D01*
X224826411Y-127313668D01*
X224795008Y-127340906D01*
X224790839Y-127349241D01*
X224784245Y-127355836D01*
X224784243Y-127355838D01*
X224770008Y-127390200D01*
X224770009Y-127390201D01*
X224768319Y-127394279D01*
X224749729Y-127431463D01*
X224749068Y-127440759D01*
X224745501Y-127449372D01*
X224745500Y-127449377D01*
X224745500Y-127486561D01*
X224745188Y-127495352D01*
X224742551Y-127532453D01*
X224744079Y-127544572D01*
X224742789Y-127544734D01*
X224745500Y-127561424D01*
X224745500Y-136958698D01*
X224742551Y-136967545D01*
X224745500Y-137009036D01*
X224745500Y-137050621D01*
X224745501Y-137050628D01*
X224749068Y-137059240D01*
X224749729Y-137068537D01*
X224768315Y-137105711D01*
X224770000Y-137109778D01*
X224770006Y-137109790D01*
X224784245Y-137144163D01*
X224784245Y-137144164D01*
X224790839Y-137150758D01*
X224795008Y-137159094D01*
X224826419Y-137186337D01*
X224855837Y-137215755D01*
X224864451Y-137219323D01*
X224871495Y-137225432D01*
X224910957Y-137238586D01*
X224949377Y-137254500D01*
X224949383Y-137254500D01*
X224958432Y-137256300D01*
X224967542Y-137257449D01*
X224967544Y-137257448D01*
X224967545Y-137257449D01*
X225004646Y-137254812D01*
X225004647Y-137254812D01*
X225009037Y-137254500D01*
X225050623Y-137254500D01*
X225059234Y-137250932D01*
X225067882Y-137250317D01*
X225068537Y-137250271D01*
X225101789Y-137233644D01*
X225109781Y-137229995D01*
X225144163Y-137215755D01*
X225144166Y-137215751D01*
X225154321Y-137208967D01*
X225155044Y-137210049D01*
X225168757Y-137200159D01*
X226566048Y-136501514D01*
X226634811Y-136489140D01*
X226699350Y-136515908D01*
X226739172Y-136573318D01*
X226745500Y-136612424D01*
X226745500Y-138996519D01*
X226745305Y-139003472D01*
X226728627Y-139300446D01*
X226727070Y-139314264D01*
X226677831Y-139604063D01*
X226674737Y-139617620D01*
X226593358Y-139900092D01*
X226588765Y-139913217D01*
X226476275Y-140184793D01*
X226470242Y-140197321D01*
X226328049Y-140454598D01*
X226320651Y-140466372D01*
X226150548Y-140706110D01*
X226141878Y-140716982D01*
X225946002Y-140936169D01*
X225936169Y-140946002D01*
X225716982Y-141141878D01*
X225706110Y-141150548D01*
X225466372Y-141320651D01*
X225454598Y-141328049D01*
X225197321Y-141470242D01*
X225184793Y-141476275D01*
X224913217Y-141588765D01*
X224900092Y-141593358D01*
X224617620Y-141674737D01*
X224604063Y-141677831D01*
X224314264Y-141727070D01*
X224300446Y-141728627D01*
X224003472Y-141745305D01*
X223996519Y-141745500D01*
X97003481Y-141745500D01*
X96996528Y-141745305D01*
X96699553Y-141728627D01*
X96685735Y-141727070D01*
X96395936Y-141677831D01*
X96382379Y-141674737D01*
X96099907Y-141593358D01*
X96086782Y-141588765D01*
X95815206Y-141476275D01*
X95802678Y-141470242D01*
X95545401Y-141328049D01*
X95533627Y-141320651D01*
X95293889Y-141150548D01*
X95283017Y-141141878D01*
X95063830Y-140946002D01*
X95053997Y-140936169D01*
X94858121Y-140716982D01*
X94849451Y-140706110D01*
X94679348Y-140466372D01*
X94671950Y-140454598D01*
X94529757Y-140197321D01*
X94523727Y-140184800D01*
X94411234Y-139913217D01*
X94406641Y-139900092D01*
X94325262Y-139617620D01*
X94322168Y-139604063D01*
X94306155Y-139509815D01*
X94272927Y-139314253D01*
X94271373Y-139300454D01*
X94254695Y-139003471D01*
X94254500Y-138996519D01*
X94254500Y-136612425D01*
X94274185Y-136545386D01*
X94326989Y-136499631D01*
X94396147Y-136489687D01*
X94433954Y-136501516D01*
X95849242Y-137209160D01*
X95855837Y-137215755D01*
X95894267Y-137231673D01*
X95931463Y-137250271D01*
X95933836Y-137250439D01*
X95940763Y-137250931D01*
X95949377Y-137254500D01*
X95990964Y-137254500D01*
X96032455Y-137257449D01*
X96041302Y-137254500D01*
X96050623Y-137254500D01*
X96089040Y-137238587D01*
X96128506Y-137225432D01*
X96128507Y-137225430D01*
X96136495Y-137220877D01*
X96144153Y-137215758D01*
X96144163Y-137215755D01*
X96173577Y-137186340D01*
X96204992Y-137159094D01*
X96209160Y-137150757D01*
X96215755Y-137144163D01*
X96221010Y-137131475D01*
X96229994Y-137109787D01*
X96229994Y-137109786D01*
X96231674Y-137105729D01*
X96250271Y-137068537D01*
X96250931Y-137059237D01*
X96254500Y-137050623D01*
X96254500Y-137013437D01*
X96254812Y-137004645D01*
X96257449Y-136967542D01*
X96255922Y-136955427D01*
X96257208Y-136955264D01*
X96254500Y-136938575D01*
X96254500Y-130073920D01*
X104049499Y-130073920D01*
X104078340Y-130218907D01*
X104078343Y-130218917D01*
X104134912Y-130355488D01*
X104134919Y-130355501D01*
X104217048Y-130478415D01*
X104217051Y-130478419D01*
X104321580Y-130582948D01*
X104321584Y-130582951D01*
X104444498Y-130665080D01*
X104444511Y-130665087D01*
X104581082Y-130721656D01*
X104581087Y-130721658D01*
X104581091Y-130721658D01*
X104581092Y-130721659D01*
X104726079Y-130750500D01*
X104726082Y-130750500D01*
X104873920Y-130750500D01*
X104971462Y-130731096D01*
X105018913Y-130721658D01*
X105155495Y-130665084D01*
X105278416Y-130582951D01*
X105382951Y-130478416D01*
X105465084Y-130355495D01*
X105521658Y-130218913D01*
X105534992Y-130151881D01*
X105550500Y-130073920D01*
X111523949Y-130073920D01*
X111552790Y-130218907D01*
X111552793Y-130218917D01*
X111609362Y-130355488D01*
X111609369Y-130355501D01*
X111691498Y-130478415D01*
X111691501Y-130478419D01*
X111796030Y-130582948D01*
X111796034Y-130582951D01*
X111918948Y-130665080D01*
X111918961Y-130665087D01*
X112055532Y-130721656D01*
X112055537Y-130721658D01*
X112055541Y-130721658D01*
X112055542Y-130721659D01*
X112200529Y-130750500D01*
X112200532Y-130750500D01*
X112348370Y-130750500D01*
X112445912Y-130731096D01*
X112493363Y-130721658D01*
X112629945Y-130665084D01*
X112752866Y-130582951D01*
X112857401Y-130478416D01*
X112939534Y-130355495D01*
X112996108Y-130218913D01*
X113009442Y-130151881D01*
X113024950Y-130073920D01*
X113024950Y-129926079D01*
X112996109Y-129781092D01*
X112996108Y-129781091D01*
X112996108Y-129781087D01*
X112963300Y-129701881D01*
X112939537Y-129644511D01*
X112939530Y-129644498D01*
X112857401Y-129521584D01*
X112857398Y-129521580D01*
X112752869Y-129417051D01*
X112752865Y-129417048D01*
X112629951Y-129334919D01*
X112629938Y-129334912D01*
X112493367Y-129278343D01*
X112493357Y-129278340D01*
X112348370Y-129249500D01*
X112348368Y-129249500D01*
X112200532Y-129249500D01*
X112200530Y-129249500D01*
X112055542Y-129278340D01*
X112055532Y-129278343D01*
X111918961Y-129334912D01*
X111918948Y-129334919D01*
X111796034Y-129417048D01*
X111796030Y-129417051D01*
X111691501Y-129521580D01*
X111691498Y-129521584D01*
X111609369Y-129644498D01*
X111609362Y-129644511D01*
X111552793Y-129781082D01*
X111552790Y-129781092D01*
X111523950Y-129926079D01*
X111523950Y-129926082D01*
X111523950Y-130073918D01*
X111523950Y-130073920D01*
X111523949Y-130073920D01*
X105550500Y-130073920D01*
X105550500Y-129926079D01*
X105521659Y-129781092D01*
X105521658Y-129781091D01*
X105521658Y-129781087D01*
X105488850Y-129701881D01*
X105465087Y-129644511D01*
X105465080Y-129644498D01*
X105382951Y-129521584D01*
X105382948Y-129521580D01*
X105278419Y-129417051D01*
X105278415Y-129417048D01*
X105155501Y-129334919D01*
X105155488Y-129334912D01*
X105018917Y-129278343D01*
X105018907Y-129278340D01*
X104873920Y-129249500D01*
X104873918Y-129249500D01*
X104726082Y-129249500D01*
X104726080Y-129249500D01*
X104581092Y-129278340D01*
X104581082Y-129278343D01*
X104444511Y-129334912D01*
X104444498Y-129334919D01*
X104321584Y-129417048D01*
X104321580Y-129417051D01*
X104217051Y-129521580D01*
X104217048Y-129521584D01*
X104134919Y-129644498D01*
X104134912Y-129644511D01*
X104078343Y-129781082D01*
X104078340Y-129781092D01*
X104049500Y-129926079D01*
X104049500Y-129926082D01*
X104049500Y-130073918D01*
X104049500Y-130073920D01*
X104049499Y-130073920D01*
X96254500Y-130073920D01*
X96254500Y-127541301D01*
X96257449Y-127532455D01*
X96254500Y-127490963D01*
X96254500Y-127449377D01*
X96254500Y-127449376D01*
X96252703Y-127440348D01*
X96250270Y-127431461D01*
X96246531Y-127423982D01*
X96234540Y-127400000D01*
X96233643Y-127398207D01*
X96229991Y-127390206D01*
X96228653Y-127386976D01*
X96215755Y-127355837D01*
X96209160Y-127349242D01*
X96204992Y-127340906D01*
X96173577Y-127313659D01*
X96144163Y-127284245D01*
X96144162Y-127284244D01*
X96136508Y-127279129D01*
X96128507Y-127274568D01*
X96093216Y-127262804D01*
X96093216Y-127262803D01*
X96089028Y-127261407D01*
X96050623Y-127245500D01*
X96041304Y-127245500D01*
X96032454Y-127242550D01*
X95998324Y-127244976D01*
X95995354Y-127245188D01*
X95995353Y-127245188D01*
X95990962Y-127245500D01*
X95949377Y-127245500D01*
X95940764Y-127249067D01*
X95931464Y-127249728D01*
X95931461Y-127249729D01*
X95898198Y-127266359D01*
X95890207Y-127270007D01*
X95855835Y-127284245D01*
X95845683Y-127291029D01*
X95844965Y-127289954D01*
X95831248Y-127299836D01*
X94433953Y-127998483D01*
X94365189Y-128010858D01*
X94300650Y-127984090D01*
X94260828Y-127926680D01*
X94254500Y-127887574D01*
X94254500Y-120862425D01*
X94274185Y-120795386D01*
X94326989Y-120749631D01*
X94396147Y-120739687D01*
X94433954Y-120751516D01*
X95849242Y-121459160D01*
X95855837Y-121465755D01*
X95894267Y-121481673D01*
X95931463Y-121500271D01*
X95933836Y-121500439D01*
X95940763Y-121500931D01*
X95949377Y-121504500D01*
X95990964Y-121504500D01*
X96032455Y-121507449D01*
X96041302Y-121504500D01*
X96050623Y-121504500D01*
X96089040Y-121488587D01*
X96128506Y-121475432D01*
X96128507Y-121475430D01*
X96136495Y-121470877D01*
X96144153Y-121465758D01*
X96144163Y-121465755D01*
X96173577Y-121436340D01*
X96204992Y-121409094D01*
X96209160Y-121400757D01*
X96215755Y-121394163D01*
X96221010Y-121381475D01*
X96229994Y-121359787D01*
X96229994Y-121359786D01*
X96231674Y-121355729D01*
X96250271Y-121318537D01*
X96250931Y-121309237D01*
X96254500Y-121300623D01*
X96254500Y-121263437D01*
X96254812Y-121254645D01*
X96257449Y-121217542D01*
X96255922Y-121205427D01*
X96257208Y-121205264D01*
X96254500Y-121188575D01*
X96254500Y-119901302D01*
X103546000Y-119901302D01*
X103546000Y-120098697D01*
X103576876Y-120293646D01*
X103634196Y-120470053D01*
X103636191Y-120539894D01*
X103603947Y-120596052D01*
X103600000Y-120599999D01*
X103600000Y-127150000D01*
X105908216Y-127150000D01*
X105975255Y-127169685D01*
X106015603Y-127211999D01*
X106059491Y-127288015D01*
X106161985Y-127390509D01*
X106161986Y-127390510D01*
X106161988Y-127390511D01*
X106287511Y-127462982D01*
X106287512Y-127462982D01*
X106287515Y-127462984D01*
X106427525Y-127500500D01*
X106427528Y-127500500D01*
X106572472Y-127500500D01*
X106572475Y-127500500D01*
X106712485Y-127462984D01*
X106838015Y-127390509D01*
X106940509Y-127288015D01*
X107012984Y-127162485D01*
X107050500Y-127022475D01*
X107050500Y-126877525D01*
X107012984Y-126737515D01*
X106940509Y-126611985D01*
X106901819Y-126573295D01*
X106868334Y-126511972D01*
X106865500Y-126485614D01*
X106865500Y-124301883D01*
X106865500Y-124301881D01*
X106840592Y-124208922D01*
X106792473Y-124125578D01*
X106724422Y-124057527D01*
X106374422Y-123707527D01*
X106332750Y-123683467D01*
X106291079Y-123659408D01*
X106244598Y-123646954D01*
X106198119Y-123634500D01*
X106198118Y-123634500D01*
X106074000Y-123634500D01*
X106006961Y-123614815D01*
X105961206Y-123562011D01*
X105950000Y-123510500D01*
X105950000Y-122489500D01*
X105969685Y-122422461D01*
X106022489Y-122376706D01*
X106074000Y-122365500D01*
X106847243Y-122365500D01*
X106914282Y-122385185D01*
X106934924Y-122401819D01*
X107298181Y-122765076D01*
X107331666Y-122826399D01*
X107334500Y-122852757D01*
X107334500Y-128185614D01*
X107314815Y-128252653D01*
X107298181Y-128273295D01*
X107259493Y-128311982D01*
X107259488Y-128311988D01*
X107187017Y-128437511D01*
X107187016Y-128437515D01*
X107149500Y-128577525D01*
X107149500Y-128722475D01*
X107187016Y-128862485D01*
X107187017Y-128862488D01*
X107259488Y-128988011D01*
X107259490Y-128988013D01*
X107259491Y-128988015D01*
X107361985Y-129090509D01*
X107361986Y-129090510D01*
X107361988Y-129090511D01*
X107487511Y-129162982D01*
X107487512Y-129162982D01*
X107487515Y-129162984D01*
X107627525Y-129200500D01*
X107627528Y-129200500D01*
X107772472Y-129200500D01*
X107772475Y-129200500D01*
X107912485Y-129162984D01*
X108038015Y-129090509D01*
X108140509Y-128988015D01*
X108212984Y-128862485D01*
X108250500Y-128722475D01*
X108250500Y-128577525D01*
X108212984Y-128437515D01*
X108199089Y-128413449D01*
X108140511Y-128311988D01*
X108140506Y-128311982D01*
X108101819Y-128273295D01*
X108068334Y-128211972D01*
X108065500Y-128185614D01*
X108065500Y-122601883D01*
X108065500Y-122601881D01*
X108040592Y-122508922D01*
X107992473Y-122425578D01*
X107924422Y-122357527D01*
X107274422Y-121707527D01*
X107232750Y-121683467D01*
X107191079Y-121659408D01*
X107144598Y-121646954D01*
X107098119Y-121634500D01*
X107098118Y-121634500D01*
X106074000Y-121634500D01*
X106006961Y-121614815D01*
X105961206Y-121562011D01*
X105950000Y-121510500D01*
X105950000Y-120573649D01*
X105948211Y-120570373D01*
X105953195Y-120500681D01*
X105958893Y-120487719D01*
X105962125Y-120481375D01*
X106023123Y-120293646D01*
X106054000Y-120098697D01*
X106054000Y-119901302D01*
X111020450Y-119901302D01*
X111020450Y-120098697D01*
X111051327Y-120293647D01*
X111051327Y-120293650D01*
X111102649Y-120451601D01*
X111104644Y-120521442D01*
X111072400Y-120577599D01*
X111050000Y-120599999D01*
X111050000Y-120600000D01*
X111050000Y-127100000D01*
X113572597Y-127100000D01*
X113584142Y-127093696D01*
X113653834Y-127098680D01*
X113709767Y-127140552D01*
X113734184Y-127206016D01*
X113734500Y-127214862D01*
X113734500Y-129385614D01*
X113714815Y-129452653D01*
X113698181Y-129473295D01*
X113659493Y-129511982D01*
X113659488Y-129511988D01*
X113587017Y-129637511D01*
X113587016Y-129637515D01*
X113549500Y-129777525D01*
X113549500Y-129922475D01*
X113586881Y-130061982D01*
X113587017Y-130062488D01*
X113659488Y-130188011D01*
X113659490Y-130188013D01*
X113659491Y-130188015D01*
X113761985Y-130290509D01*
X113761986Y-130290510D01*
X113761988Y-130290511D01*
X113887511Y-130362982D01*
X113887512Y-130362982D01*
X113887515Y-130362984D01*
X114027525Y-130400500D01*
X114027528Y-130400500D01*
X114180602Y-130400500D01*
X114180602Y-130403214D01*
X114197063Y-130405777D01*
X114226975Y-130407917D01*
X114231224Y-130411098D01*
X114236470Y-130411915D01*
X114258905Y-130431819D01*
X114282909Y-130449788D01*
X114284763Y-130454760D01*
X114288735Y-130458284D01*
X114296847Y-130487157D01*
X114307327Y-130515252D01*
X114306198Y-130520438D01*
X114307635Y-130525549D01*
X114298849Y-130554224D01*
X114292476Y-130583525D01*
X114288069Y-130589411D01*
X114287168Y-130592353D01*
X114271325Y-130611779D01*
X114219925Y-130663180D01*
X114158602Y-130696666D01*
X114132243Y-130699500D01*
X114077525Y-130699500D01*
X113948993Y-130733940D01*
X113937511Y-130737017D01*
X113811988Y-130809488D01*
X113811982Y-130809493D01*
X113709493Y-130911982D01*
X113709488Y-130911988D01*
X113637017Y-131037511D01*
X113637016Y-131037515D01*
X113599500Y-131177525D01*
X113599500Y-131322475D01*
X113637016Y-131462485D01*
X113637017Y-131462488D01*
X113709488Y-131588011D01*
X113709490Y-131588013D01*
X113709491Y-131588015D01*
X113811985Y-131690509D01*
X113811986Y-131690510D01*
X113811988Y-131690511D01*
X113937511Y-131762982D01*
X113937512Y-131762982D01*
X113937515Y-131762984D01*
X114077525Y-131800500D01*
X114077528Y-131800500D01*
X114222472Y-131800500D01*
X114222475Y-131800500D01*
X114362485Y-131762984D01*
X114488015Y-131690509D01*
X114590509Y-131588015D01*
X114662984Y-131462485D01*
X114700500Y-131322475D01*
X114700500Y-131267757D01*
X114720185Y-131200718D01*
X114736819Y-131180076D01*
X115110461Y-130806434D01*
X115492473Y-130424422D01*
X115540592Y-130341078D01*
X115565500Y-130248119D01*
X115565500Y-130151881D01*
X115565500Y-130073920D01*
X118998399Y-130073920D01*
X119027240Y-130218907D01*
X119027243Y-130218917D01*
X119083812Y-130355488D01*
X119083819Y-130355501D01*
X119165948Y-130478415D01*
X119165951Y-130478419D01*
X119270480Y-130582948D01*
X119270484Y-130582951D01*
X119393398Y-130665080D01*
X119393411Y-130665087D01*
X119529982Y-130721656D01*
X119529987Y-130721658D01*
X119529991Y-130721658D01*
X119529992Y-130721659D01*
X119674979Y-130750500D01*
X119674982Y-130750500D01*
X119822820Y-130750500D01*
X119920362Y-130731096D01*
X119967813Y-130721658D01*
X120104395Y-130665084D01*
X120227316Y-130582951D01*
X120331851Y-130478416D01*
X120413984Y-130355495D01*
X120470558Y-130218913D01*
X120483892Y-130151881D01*
X120499400Y-130073920D01*
X120499400Y-129926079D01*
X120470559Y-129781092D01*
X120470558Y-129781091D01*
X120470558Y-129781087D01*
X120437750Y-129701881D01*
X120413987Y-129644511D01*
X120413980Y-129644498D01*
X120331851Y-129521584D01*
X120331848Y-129521580D01*
X120227319Y-129417051D01*
X120227315Y-129417048D01*
X120104401Y-129334919D01*
X120104388Y-129334912D01*
X119967817Y-129278343D01*
X119967807Y-129278340D01*
X119822820Y-129249500D01*
X119822818Y-129249500D01*
X119674982Y-129249500D01*
X119674980Y-129249500D01*
X119529992Y-129278340D01*
X119529982Y-129278343D01*
X119393411Y-129334912D01*
X119393398Y-129334919D01*
X119270484Y-129417048D01*
X119270480Y-129417051D01*
X119165951Y-129521580D01*
X119165948Y-129521584D01*
X119083819Y-129644498D01*
X119083812Y-129644511D01*
X119027243Y-129781082D01*
X119027240Y-129781092D01*
X118998400Y-129926079D01*
X118998400Y-129926082D01*
X118998400Y-130073918D01*
X118998400Y-130073920D01*
X118998399Y-130073920D01*
X115565500Y-130073920D01*
X115565500Y-123101881D01*
X115540592Y-123008922D01*
X115492473Y-122925578D01*
X115424422Y-122857527D01*
X114274422Y-121707527D01*
X114232750Y-121683467D01*
X114191079Y-121659408D01*
X114144598Y-121646954D01*
X114098119Y-121634500D01*
X114098118Y-121634500D01*
X113674000Y-121634500D01*
X113606961Y-121614815D01*
X113561206Y-121562011D01*
X113550000Y-121510500D01*
X113550000Y-120600000D01*
X113542224Y-120592224D01*
X113501665Y-120580315D01*
X113455910Y-120527511D01*
X113445966Y-120458353D01*
X113450773Y-120437682D01*
X113497572Y-120293650D01*
X113497572Y-120293647D01*
X113528450Y-120098697D01*
X113528450Y-119901302D01*
X118494900Y-119901302D01*
X118494900Y-120098697D01*
X118525777Y-120293647D01*
X118525777Y-120293650D01*
X118583365Y-120470885D01*
X118585360Y-120540726D01*
X118553116Y-120596883D01*
X118550000Y-120599999D01*
X118550000Y-120600000D01*
X118550000Y-127100000D01*
X121100000Y-127100000D01*
X121122819Y-127077181D01*
X121142255Y-127066568D01*
X121158989Y-127052068D01*
X121172320Y-127050151D01*
X121184142Y-127043696D01*
X121206228Y-127045275D01*
X121228147Y-127042124D01*
X121240398Y-127047719D01*
X121253834Y-127048680D01*
X121271560Y-127061950D01*
X121291703Y-127071149D01*
X121298985Y-127082480D01*
X121309767Y-127090552D01*
X121317504Y-127111297D01*
X121329477Y-127129927D01*
X121332628Y-127151845D01*
X121334184Y-127156016D01*
X121334500Y-127164862D01*
X121334500Y-127335614D01*
X121314815Y-127402653D01*
X121298181Y-127423295D01*
X121259493Y-127461982D01*
X121259488Y-127461988D01*
X121187017Y-127587511D01*
X121187016Y-127587515D01*
X121149500Y-127727525D01*
X121149500Y-127872475D01*
X121181508Y-127991929D01*
X121187017Y-128012488D01*
X121259488Y-128138011D01*
X121259490Y-128138013D01*
X121259491Y-128138015D01*
X121361985Y-128240509D01*
X121361986Y-128240510D01*
X121361988Y-128240511D01*
X121487511Y-128312982D01*
X121487512Y-128312982D01*
X121487515Y-128312984D01*
X121627525Y-128350500D01*
X121627528Y-128350500D01*
X121772472Y-128350500D01*
X121772475Y-128350500D01*
X121912485Y-128312984D01*
X122038015Y-128240509D01*
X122122819Y-128155705D01*
X122184142Y-128122220D01*
X122253834Y-128127204D01*
X122309767Y-128169076D01*
X122334184Y-128234540D01*
X122334500Y-128243386D01*
X122334500Y-129935614D01*
X122314815Y-130002653D01*
X122298181Y-130023295D01*
X122259493Y-130061982D01*
X122259488Y-130061988D01*
X122187017Y-130187511D01*
X122187016Y-130187515D01*
X122149500Y-130327525D01*
X122149500Y-130472475D01*
X122181622Y-130592353D01*
X122187017Y-130612488D01*
X122259488Y-130738011D01*
X122259490Y-130738013D01*
X122259491Y-130738015D01*
X122361985Y-130840509D01*
X122361986Y-130840510D01*
X122361988Y-130840511D01*
X122487511Y-130912982D01*
X122487512Y-130912982D01*
X122487515Y-130912984D01*
X122627525Y-130950500D01*
X122627528Y-130950500D01*
X122772472Y-130950500D01*
X122772475Y-130950500D01*
X122912485Y-130912984D01*
X123038015Y-130840509D01*
X123140509Y-130738015D01*
X123212984Y-130612485D01*
X123250500Y-130472475D01*
X123250500Y-130327525D01*
X123212984Y-130187515D01*
X123169665Y-130112485D01*
X123140511Y-130061988D01*
X123140506Y-130061982D01*
X123101819Y-130023295D01*
X123068334Y-129961972D01*
X123065500Y-129935614D01*
X123065500Y-129070320D01*
X195149499Y-129070320D01*
X195178340Y-129215307D01*
X195178343Y-129215317D01*
X195234912Y-129351888D01*
X195234919Y-129351901D01*
X195317048Y-129474815D01*
X195317051Y-129474819D01*
X195421580Y-129579348D01*
X195421584Y-129579351D01*
X195544498Y-129661480D01*
X195544511Y-129661487D01*
X195642032Y-129701881D01*
X195681087Y-129718058D01*
X195681091Y-129718058D01*
X195681092Y-129718059D01*
X195826079Y-129746900D01*
X195826082Y-129746900D01*
X195973920Y-129746900D01*
X196071462Y-129727496D01*
X196118913Y-129718058D01*
X196216769Y-129677525D01*
X197999500Y-129677525D01*
X197999500Y-129822475D01*
X198036879Y-129961972D01*
X198037017Y-129962488D01*
X198109488Y-130088011D01*
X198109493Y-130088017D01*
X198113181Y-130091705D01*
X198146666Y-130153028D01*
X198149500Y-130179386D01*
X198149500Y-138902726D01*
X198176793Y-139004589D01*
X198203156Y-139050250D01*
X198229520Y-139095913D01*
X198229522Y-139095915D01*
X198413181Y-139279574D01*
X198446666Y-139340897D01*
X198449500Y-139367255D01*
X198449500Y-139372475D01*
X198486301Y-139509815D01*
X198487017Y-139512488D01*
X198559488Y-139638011D01*
X198559490Y-139638013D01*
X198559491Y-139638015D01*
X198661985Y-139740509D01*
X198661986Y-139740510D01*
X198661988Y-139740511D01*
X198787511Y-139812982D01*
X198787512Y-139812982D01*
X198787515Y-139812984D01*
X198927525Y-139850500D01*
X198927528Y-139850500D01*
X199072472Y-139850500D01*
X199072475Y-139850500D01*
X199212485Y-139812984D01*
X199338015Y-139740509D01*
X199440509Y-139638015D01*
X199512984Y-139512485D01*
X199550500Y-139372475D01*
X199550500Y-139227525D01*
X199512984Y-139087515D01*
X199460447Y-138996519D01*
X199440511Y-138961988D01*
X199440506Y-138961982D01*
X199338017Y-138859493D01*
X199338011Y-138859488D01*
X199212488Y-138787017D01*
X199212489Y-138787017D01*
X199072471Y-138749499D01*
X199064415Y-138748439D01*
X199064655Y-138746609D01*
X199007461Y-138729815D01*
X198961706Y-138677011D01*
X198950500Y-138625500D01*
X198950500Y-134566757D01*
X198970185Y-134499718D01*
X199022989Y-134453963D01*
X199092147Y-134444019D01*
X199155703Y-134473044D01*
X199162181Y-134479076D01*
X199607527Y-134924422D01*
X199675578Y-134992473D01*
X199747753Y-135034144D01*
X199754458Y-135038015D01*
X199758922Y-135040592D01*
X199851881Y-135065500D01*
X202035614Y-135065500D01*
X202102653Y-135085185D01*
X202123295Y-135101819D01*
X202161985Y-135140509D01*
X202161986Y-135140510D01*
X202161988Y-135140511D01*
X202287511Y-135212982D01*
X202287512Y-135212982D01*
X202287515Y-135212984D01*
X202427525Y-135250500D01*
X202427528Y-135250500D01*
X202572472Y-135250500D01*
X202572475Y-135250500D01*
X202712485Y-135212984D01*
X202838015Y-135140509D01*
X202940509Y-135038015D01*
X203012984Y-134912485D01*
X203050500Y-134772475D01*
X203050500Y-134627525D01*
X203044891Y-134606592D01*
X203046554Y-134536743D01*
X203085717Y-134478881D01*
X203149945Y-134451377D01*
X203164666Y-134450500D01*
X203272472Y-134450500D01*
X203272475Y-134450500D01*
X203412485Y-134412984D01*
X203538015Y-134340509D01*
X203640509Y-134238015D01*
X203712984Y-134112485D01*
X203750500Y-133972475D01*
X203750500Y-133924500D01*
X203750912Y-133923093D01*
X203750532Y-133921678D01*
X203760729Y-133889662D01*
X203770185Y-133857461D01*
X203771291Y-133856502D01*
X203771737Y-133855104D01*
X203797634Y-133833675D01*
X203822989Y-133811706D01*
X203824803Y-133811195D01*
X203825568Y-133810563D01*
X203831083Y-133809428D01*
X203859650Y-133801392D01*
X203867045Y-133800500D01*
X203922475Y-133800500D01*
X204062485Y-133762984D01*
X204062488Y-133762981D01*
X204063049Y-133762750D01*
X204063561Y-133762694D01*
X204070335Y-133760880D01*
X204070618Y-133761936D01*
X204132518Y-133755282D01*
X204194997Y-133786558D01*
X204230649Y-133846647D01*
X204234500Y-133877312D01*
X204234500Y-133896033D01*
X204234087Y-133897439D01*
X204234468Y-133898855D01*
X204224270Y-133930870D01*
X204214815Y-133963072D01*
X204213664Y-133964169D01*
X204213263Y-133965429D01*
X204206308Y-133971183D01*
X204172502Y-134003418D01*
X204161985Y-134009491D01*
X204161982Y-134009493D01*
X204059493Y-134111982D01*
X204059488Y-134111988D01*
X203987017Y-134237511D01*
X203986061Y-134241078D01*
X203949500Y-134377525D01*
X203949500Y-134522475D01*
X203983432Y-134649109D01*
X203987017Y-134662488D01*
X204059488Y-134788011D01*
X204059490Y-134788013D01*
X204059491Y-134788015D01*
X204161985Y-134890509D01*
X204161986Y-134890510D01*
X204161988Y-134890511D01*
X204287511Y-134962982D01*
X204287512Y-134962982D01*
X204287515Y-134962984D01*
X204427525Y-135000500D01*
X204427528Y-135000500D01*
X204575500Y-135000500D01*
X204642539Y-135020185D01*
X204688294Y-135072989D01*
X204699500Y-135124500D01*
X204699500Y-135222475D01*
X204710221Y-135262485D01*
X204737017Y-135362488D01*
X204809488Y-135488011D01*
X204809490Y-135488013D01*
X204809491Y-135488015D01*
X204911985Y-135590509D01*
X204911986Y-135590510D01*
X204911988Y-135590511D01*
X205037511Y-135662982D01*
X205037512Y-135662982D01*
X205037515Y-135662984D01*
X205177525Y-135700500D01*
X205177528Y-135700500D01*
X205322471Y-135700500D01*
X205322475Y-135700500D01*
X205425145Y-135672989D01*
X205494990Y-135674652D01*
X205552853Y-135713814D01*
X205580358Y-135778042D01*
X205577009Y-135824857D01*
X205549500Y-135927525D01*
X205549500Y-136072475D01*
X205587016Y-136212485D01*
X205587017Y-136212488D01*
X205659488Y-136338011D01*
X205659490Y-136338013D01*
X205659491Y-136338015D01*
X205761985Y-136440509D01*
X205761986Y-136440510D01*
X205761988Y-136440511D01*
X205887511Y-136512982D01*
X205887512Y-136512982D01*
X205887515Y-136512984D01*
X206027525Y-136550500D01*
X206027528Y-136550500D01*
X206172472Y-136550500D01*
X206172475Y-136550500D01*
X206312485Y-136512984D01*
X206438015Y-136440509D01*
X206540509Y-136338015D01*
X206612984Y-136212485D01*
X206650500Y-136072475D01*
X206650500Y-135927525D01*
X206612984Y-135787515D01*
X206604818Y-135773372D01*
X206588345Y-135705473D01*
X206611196Y-135639446D01*
X206666117Y-135596254D01*
X206735670Y-135589611D01*
X206744292Y-135591595D01*
X206777525Y-135600500D01*
X206777527Y-135600500D01*
X206922472Y-135600500D01*
X206922475Y-135600500D01*
X207062485Y-135562984D01*
X207188015Y-135490509D01*
X207290509Y-135388015D01*
X207362984Y-135262485D01*
X207400500Y-135122475D01*
X207400500Y-134977525D01*
X207362984Y-134837515D01*
X207334406Y-134788017D01*
X207290511Y-134711988D01*
X207290506Y-134711982D01*
X207286819Y-134708295D01*
X207253334Y-134646972D01*
X207250500Y-134620614D01*
X207250500Y-129469785D01*
X207270185Y-129402746D01*
X207322989Y-129356991D01*
X207392147Y-129347047D01*
X207429900Y-129360114D01*
X207430001Y-129359872D01*
X207434078Y-129361560D01*
X207436504Y-129362400D01*
X207437515Y-129362984D01*
X207577525Y-129400500D01*
X207577528Y-129400500D01*
X207722472Y-129400500D01*
X207722475Y-129400500D01*
X207862485Y-129362984D01*
X207988015Y-129290509D01*
X208090509Y-129188015D01*
X208162984Y-129062485D01*
X208200500Y-128922475D01*
X208200500Y-128777525D01*
X208162984Y-128637515D01*
X208142112Y-128601365D01*
X208125500Y-128539365D01*
X208125500Y-126424009D01*
X208145185Y-126356970D01*
X208161819Y-126336328D01*
X208411829Y-126086319D01*
X208473152Y-126052834D01*
X208499510Y-126050000D01*
X209633743Y-126050000D01*
X209700782Y-126069685D01*
X209746537Y-126122489D01*
X209756481Y-126191647D01*
X209727456Y-126255203D01*
X209721424Y-126261681D01*
X209219424Y-126763681D01*
X209158101Y-126797166D01*
X209131743Y-126800000D01*
X208500000Y-126800000D01*
X208500000Y-127900000D01*
X208516420Y-127916420D01*
X208527539Y-127919685D01*
X208573294Y-127972489D01*
X208584500Y-128024000D01*
X208584500Y-129985614D01*
X208564815Y-130052653D01*
X208548181Y-130073295D01*
X208509493Y-130111982D01*
X208509488Y-130111988D01*
X208437017Y-130237511D01*
X208437016Y-130237515D01*
X208399500Y-130377525D01*
X208399500Y-130522475D01*
X208437016Y-130662485D01*
X208437017Y-130662488D01*
X208509488Y-130788011D01*
X208509490Y-130788013D01*
X208509491Y-130788015D01*
X208611985Y-130890509D01*
X208611986Y-130890510D01*
X208611988Y-130890511D01*
X208737511Y-130962982D01*
X208737512Y-130962982D01*
X208737515Y-130962984D01*
X208877525Y-131000500D01*
X208877528Y-131000500D01*
X209022472Y-131000500D01*
X209022475Y-131000500D01*
X209162485Y-130962984D01*
X209288015Y-130890509D01*
X209390509Y-130788015D01*
X209462984Y-130662485D01*
X209500500Y-130522475D01*
X209500500Y-130522466D01*
X209500635Y-130521444D01*
X209500991Y-130520637D01*
X209502603Y-130514624D01*
X209503540Y-130514875D01*
X209528898Y-130457545D01*
X209587220Y-130419071D01*
X209655664Y-130417847D01*
X209777525Y-130450500D01*
X209777529Y-130450500D01*
X209922472Y-130450500D01*
X209922475Y-130450500D01*
X210062485Y-130412984D01*
X210188015Y-130340509D01*
X210188019Y-130340504D01*
X210194461Y-130335562D01*
X210195280Y-130336630D01*
X210249142Y-130307220D01*
X210318834Y-130312204D01*
X210374767Y-130354076D01*
X210399184Y-130419540D01*
X210399500Y-130428386D01*
X210399500Y-130522475D01*
X210437016Y-130662485D01*
X210437017Y-130662488D01*
X210509488Y-130788011D01*
X210509493Y-130788017D01*
X210613681Y-130892205D01*
X210647166Y-130953528D01*
X210650000Y-130979886D01*
X210650000Y-131000000D01*
X210650000Y-135950000D01*
X211300000Y-135950000D01*
X211300000Y-130977600D01*
X211293458Y-130965620D01*
X211294103Y-130956590D01*
X211290940Y-130948109D01*
X211296556Y-130922286D01*
X211298442Y-130895928D01*
X211304259Y-130886875D01*
X211305791Y-130879836D01*
X211326942Y-130851582D01*
X211372089Y-130806434D01*
X211397766Y-130786730D01*
X211474422Y-130742473D01*
X212242472Y-129974423D01*
X212254999Y-129952727D01*
X212290592Y-129891078D01*
X212295301Y-129873503D01*
X212301734Y-129849499D01*
X212308975Y-129822472D01*
X212315500Y-129798120D01*
X212315500Y-129701881D01*
X212315500Y-129293386D01*
X212335185Y-129226347D01*
X212387989Y-129180592D01*
X212457147Y-129170648D01*
X212520703Y-129199673D01*
X212527181Y-129205705D01*
X212611985Y-129290509D01*
X212611986Y-129290510D01*
X212611988Y-129290511D01*
X212737511Y-129362982D01*
X212737512Y-129362982D01*
X212737515Y-129362984D01*
X212877525Y-129400500D01*
X212877528Y-129400500D01*
X213022472Y-129400500D01*
X213022475Y-129400500D01*
X213162485Y-129362984D01*
X213288015Y-129290509D01*
X213390509Y-129188015D01*
X213458460Y-129070320D01*
X214649499Y-129070320D01*
X214678340Y-129215307D01*
X214678343Y-129215317D01*
X214734912Y-129351888D01*
X214734919Y-129351901D01*
X214817048Y-129474815D01*
X214817051Y-129474819D01*
X214921580Y-129579348D01*
X214921584Y-129579351D01*
X215044498Y-129661480D01*
X215044511Y-129661487D01*
X215142032Y-129701881D01*
X215181087Y-129718058D01*
X215181091Y-129718058D01*
X215181092Y-129718059D01*
X215326079Y-129746900D01*
X215326082Y-129746900D01*
X215473920Y-129746900D01*
X215571462Y-129727496D01*
X215618913Y-129718058D01*
X215755495Y-129661484D01*
X215878416Y-129579351D01*
X215982951Y-129474816D01*
X216065084Y-129351895D01*
X216121658Y-129215313D01*
X216140083Y-129122687D01*
X216150500Y-129070320D01*
X216150500Y-128922479D01*
X216121659Y-128777492D01*
X216121658Y-128777491D01*
X216121658Y-128777487D01*
X216113358Y-128757449D01*
X216065087Y-128640911D01*
X216065080Y-128640898D01*
X215982951Y-128517984D01*
X215982948Y-128517980D01*
X215878419Y-128413451D01*
X215878415Y-128413448D01*
X215755501Y-128331319D01*
X215755488Y-128331312D01*
X215618917Y-128274743D01*
X215618907Y-128274740D01*
X215473920Y-128245900D01*
X215473918Y-128245900D01*
X215326082Y-128245900D01*
X215326080Y-128245900D01*
X215181092Y-128274740D01*
X215181082Y-128274743D01*
X215044511Y-128331312D01*
X215044498Y-128331319D01*
X214921584Y-128413448D01*
X214921580Y-128413451D01*
X214817051Y-128517980D01*
X214817048Y-128517984D01*
X214734919Y-128640898D01*
X214734912Y-128640911D01*
X214678343Y-128777482D01*
X214678340Y-128777492D01*
X214649500Y-128922479D01*
X214649500Y-128922482D01*
X214649500Y-129070318D01*
X214649500Y-129070320D01*
X214649499Y-129070320D01*
X213458460Y-129070320D01*
X213462984Y-129062485D01*
X213500500Y-128922475D01*
X213500500Y-128777525D01*
X213462984Y-128637515D01*
X213442113Y-128601366D01*
X213390511Y-128511988D01*
X213390506Y-128511982D01*
X213351819Y-128473295D01*
X213318334Y-128411972D01*
X213315500Y-128385614D01*
X213315500Y-128024000D01*
X213335185Y-127956961D01*
X213387989Y-127911206D01*
X213439500Y-127900000D01*
X213450000Y-127900000D01*
X213450000Y-126800000D01*
X213439500Y-126800000D01*
X213372461Y-126780315D01*
X213326706Y-126727511D01*
X213315500Y-126676000D01*
X213315500Y-123602757D01*
X213324144Y-123573316D01*
X213330668Y-123543330D01*
X213334422Y-123538314D01*
X213335185Y-123535718D01*
X213351819Y-123515076D01*
X213468676Y-123398219D01*
X213529999Y-123364734D01*
X213556357Y-123361900D01*
X214276000Y-123361900D01*
X214343039Y-123381585D01*
X214388794Y-123434389D01*
X214400000Y-123485900D01*
X214400000Y-124862629D01*
X214397617Y-124886822D01*
X214395500Y-124897463D01*
X214395500Y-125095333D01*
X214397617Y-125105975D01*
X214400000Y-125130170D01*
X214400000Y-126050000D01*
X216400000Y-126050000D01*
X216400000Y-125130170D01*
X216402383Y-125105975D01*
X216404500Y-125095333D01*
X216404500Y-124897463D01*
X216402383Y-124886822D01*
X216400000Y-124862629D01*
X216400000Y-123130170D01*
X216402383Y-123105975D01*
X216403198Y-123101881D01*
X216404500Y-123095335D01*
X216404500Y-122897465D01*
X216402383Y-122886822D01*
X216400000Y-122862629D01*
X216400000Y-122050000D01*
X216151410Y-122050000D01*
X216084371Y-122030315D01*
X216063729Y-122013681D01*
X215529410Y-121479362D01*
X215592993Y-121462325D01*
X215707007Y-121396499D01*
X215800099Y-121303407D01*
X215865925Y-121189393D01*
X215882962Y-121125809D01*
X216446541Y-121689388D01*
X216446543Y-121689388D01*
X216472516Y-121653641D01*
X216562126Y-121477773D01*
X216623123Y-121290046D01*
X216654000Y-121095097D01*
X216654000Y-120897702D01*
X216623123Y-120702753D01*
X216562126Y-120515026D01*
X216472520Y-120339168D01*
X216472512Y-120339155D01*
X216446542Y-120303410D01*
X216446541Y-120303409D01*
X215882962Y-120866989D01*
X215865925Y-120803407D01*
X215800099Y-120689393D01*
X215707007Y-120596301D01*
X215592993Y-120530475D01*
X215529409Y-120513437D01*
X216092989Y-119949857D01*
X216057239Y-119923883D01*
X215881369Y-119834272D01*
X215865823Y-119829220D01*
X215808150Y-119789780D01*
X215780955Y-119725420D01*
X215792872Y-119656574D01*
X215835258Y-119608188D01*
X215878416Y-119579351D01*
X215982951Y-119474816D01*
X216065084Y-119351895D01*
X216121658Y-119215313D01*
X216150500Y-119070318D01*
X216150500Y-118922482D01*
X216150500Y-118922479D01*
X216121659Y-118777492D01*
X216121658Y-118777491D01*
X216121658Y-118777487D01*
X216103946Y-118734726D01*
X216065087Y-118640911D01*
X216065080Y-118640898D01*
X215982951Y-118517984D01*
X215982948Y-118517980D01*
X215878419Y-118413451D01*
X215878415Y-118413448D01*
X215755501Y-118331319D01*
X215755488Y-118331312D01*
X215618917Y-118274743D01*
X215618907Y-118274740D01*
X215473920Y-118245900D01*
X215473918Y-118245900D01*
X215326082Y-118245900D01*
X215326080Y-118245900D01*
X215181092Y-118274740D01*
X215181082Y-118274743D01*
X215044511Y-118331312D01*
X215044498Y-118331319D01*
X214921584Y-118413448D01*
X214921580Y-118413451D01*
X214817051Y-118517980D01*
X214817048Y-118517984D01*
X214734919Y-118640898D01*
X214734912Y-118640911D01*
X214678343Y-118777482D01*
X214678340Y-118777492D01*
X214649500Y-118922479D01*
X214649500Y-118922482D01*
X214649500Y-119070318D01*
X214649500Y-119070320D01*
X214649499Y-119070320D01*
X214678340Y-119215307D01*
X214678343Y-119215317D01*
X214734912Y-119351888D01*
X214734919Y-119351901D01*
X214817048Y-119474815D01*
X214817051Y-119474819D01*
X214921580Y-119579348D01*
X214921588Y-119579354D01*
X214964742Y-119608189D01*
X215009548Y-119661801D01*
X215018255Y-119731126D01*
X214988101Y-119794153D01*
X214934177Y-119829220D01*
X214918628Y-119834272D01*
X214742762Y-119923882D01*
X214742760Y-119923883D01*
X214707010Y-119949856D01*
X214707010Y-119949857D01*
X215270591Y-120513437D01*
X215207007Y-120530475D01*
X215092993Y-120596301D01*
X214999901Y-120689393D01*
X214934075Y-120803407D01*
X214917037Y-120866990D01*
X214353457Y-120303410D01*
X214353456Y-120303410D01*
X214327483Y-120339160D01*
X214327482Y-120339162D01*
X214237873Y-120515026D01*
X214176876Y-120702753D01*
X214146000Y-120897702D01*
X214146000Y-121095097D01*
X214176876Y-121290046D01*
X214237873Y-121477773D01*
X214327483Y-121653639D01*
X214353457Y-121689388D01*
X214353457Y-121689389D01*
X214917037Y-121125809D01*
X214934075Y-121189393D01*
X214999901Y-121303407D01*
X215092993Y-121396499D01*
X215207007Y-121462325D01*
X215270590Y-121479362D01*
X214736271Y-122013681D01*
X214674948Y-122047166D01*
X214648590Y-122050000D01*
X214400000Y-122050000D01*
X214400000Y-122506900D01*
X214380315Y-122573939D01*
X214327511Y-122619694D01*
X214276000Y-122630900D01*
X213305481Y-122630900D01*
X213212521Y-122655808D01*
X213196458Y-122665083D01*
X213196456Y-122665084D01*
X213129181Y-122703925D01*
X213129175Y-122703929D01*
X212657529Y-123175575D01*
X212657527Y-123175578D01*
X212609408Y-123258920D01*
X212584500Y-123351881D01*
X212584500Y-126676000D01*
X212564815Y-126743039D01*
X212512011Y-126788794D01*
X212460500Y-126800000D01*
X210516257Y-126800000D01*
X210449218Y-126780315D01*
X210403463Y-126727511D01*
X210393519Y-126658353D01*
X210422544Y-126594797D01*
X210428576Y-126588319D01*
X210592886Y-126424009D01*
X210842473Y-126174422D01*
X210862126Y-126140382D01*
X210890592Y-126091078D01*
X210915500Y-125998119D01*
X210915500Y-123401881D01*
X210904189Y-123359669D01*
X210890592Y-123308922D01*
X210842473Y-123225578D01*
X210320822Y-122703927D01*
X210262648Y-122670340D01*
X210237479Y-122655808D01*
X210173920Y-122638778D01*
X210144519Y-122630900D01*
X210144518Y-122630900D01*
X210124000Y-122630900D01*
X210056961Y-122611215D01*
X210011206Y-122558411D01*
X210000000Y-122506900D01*
X210000000Y-122050000D01*
X209651410Y-122050000D01*
X209584371Y-122030315D01*
X209563729Y-122013681D01*
X209029410Y-121479362D01*
X209092993Y-121462325D01*
X209207007Y-121396499D01*
X209300099Y-121303407D01*
X209365925Y-121189393D01*
X209382962Y-121125809D01*
X209946541Y-121689388D01*
X209946543Y-121689388D01*
X209972516Y-121653641D01*
X210062126Y-121477773D01*
X210123123Y-121290046D01*
X210154000Y-121095097D01*
X210154000Y-120897702D01*
X210123123Y-120702753D01*
X210062126Y-120515026D01*
X209972520Y-120339168D01*
X209972512Y-120339155D01*
X209946542Y-120303410D01*
X209946541Y-120303409D01*
X209382962Y-120866989D01*
X209365925Y-120803407D01*
X209300099Y-120689393D01*
X209207007Y-120596301D01*
X209092993Y-120530475D01*
X209029409Y-120513437D01*
X209592989Y-119949857D01*
X209557239Y-119923883D01*
X209381373Y-119834273D01*
X209193646Y-119773276D01*
X208998697Y-119742400D01*
X208801303Y-119742400D01*
X208606353Y-119773276D01*
X208418626Y-119834273D01*
X208242762Y-119923882D01*
X208242760Y-119923883D01*
X208207010Y-119949856D01*
X208207010Y-119949857D01*
X208770591Y-120513437D01*
X208707007Y-120530475D01*
X208592993Y-120596301D01*
X208499901Y-120689393D01*
X208434075Y-120803407D01*
X208417037Y-120866990D01*
X207853457Y-120303410D01*
X207853456Y-120303410D01*
X207827483Y-120339160D01*
X207827482Y-120339162D01*
X207737873Y-120515026D01*
X207676876Y-120702753D01*
X207646000Y-120897702D01*
X207646000Y-121095097D01*
X207676876Y-121290046D01*
X207737873Y-121477773D01*
X207827483Y-121653639D01*
X207853457Y-121689388D01*
X207853457Y-121689389D01*
X208417037Y-121125809D01*
X208434075Y-121189393D01*
X208499901Y-121303407D01*
X208592993Y-121396499D01*
X208707007Y-121462325D01*
X208770590Y-121479362D01*
X208236271Y-122013681D01*
X208174948Y-122047166D01*
X208148590Y-122050000D01*
X207374500Y-122050000D01*
X207307461Y-122030315D01*
X207261706Y-121977511D01*
X207250500Y-121926000D01*
X207250500Y-114729386D01*
X207270185Y-114662347D01*
X207286819Y-114641705D01*
X207340509Y-114588015D01*
X207412984Y-114462485D01*
X207450500Y-114322475D01*
X207450500Y-114177525D01*
X207412984Y-114037515D01*
X207340509Y-113911985D01*
X207238015Y-113809491D01*
X207238013Y-113809490D01*
X207238011Y-113809488D01*
X207112488Y-113737017D01*
X207112489Y-113737017D01*
X207101006Y-113733940D01*
X206972475Y-113699500D01*
X206827525Y-113699500D01*
X206698993Y-113733940D01*
X206687511Y-113737017D01*
X206561988Y-113809488D01*
X206561982Y-113809493D01*
X206459493Y-113911982D01*
X206459488Y-113911988D01*
X206387017Y-114037511D01*
X206387016Y-114037515D01*
X206349500Y-114177525D01*
X206349500Y-114322475D01*
X206387016Y-114462485D01*
X206432887Y-114541936D01*
X206449500Y-114603935D01*
X206449500Y-116783243D01*
X206429815Y-116850282D01*
X206377011Y-116896037D01*
X206307853Y-116905981D01*
X206244297Y-116876956D01*
X206237819Y-116870924D01*
X205401819Y-116034924D01*
X205368334Y-115973601D01*
X205365500Y-115947243D01*
X205365500Y-113100000D01*
X207294048Y-113100000D01*
X211094048Y-113100000D01*
X211094048Y-109900000D01*
X207294048Y-109900000D01*
X207294048Y-113100000D01*
X205365500Y-113100000D01*
X205365500Y-111901883D01*
X205365500Y-111901881D01*
X205340592Y-111808922D01*
X205292473Y-111725578D01*
X205224422Y-111657527D01*
X204774422Y-111207527D01*
X204732750Y-111183467D01*
X204691079Y-111159408D01*
X204644598Y-111146954D01*
X204598119Y-111134500D01*
X204598118Y-111134500D01*
X202564386Y-111134500D01*
X202497347Y-111114815D01*
X202476705Y-111098181D01*
X202438017Y-111059493D01*
X202438011Y-111059488D01*
X202312488Y-110987017D01*
X202312489Y-110987017D01*
X202301006Y-110983940D01*
X202172475Y-110949500D01*
X202027525Y-110949500D01*
X201898993Y-110983940D01*
X201887511Y-110987017D01*
X201761988Y-111059488D01*
X201761982Y-111059493D01*
X201659493Y-111161982D01*
X201659488Y-111161988D01*
X201587017Y-111287511D01*
X201587016Y-111287515D01*
X201549500Y-111427525D01*
X201549500Y-111572475D01*
X201583504Y-111699377D01*
X201587017Y-111712488D01*
X201659488Y-111838011D01*
X201659490Y-111838013D01*
X201659491Y-111838015D01*
X201761985Y-111940509D01*
X201761986Y-111940510D01*
X201761988Y-111940511D01*
X201887511Y-112012982D01*
X201887512Y-112012982D01*
X201887515Y-112012984D01*
X202027525Y-112050500D01*
X202027528Y-112050500D01*
X202172472Y-112050500D01*
X202172475Y-112050500D01*
X202312485Y-112012984D01*
X202438015Y-111940509D01*
X202476705Y-111901819D01*
X202538028Y-111868334D01*
X202564386Y-111865500D01*
X204347243Y-111865500D01*
X204376683Y-111874144D01*
X204406670Y-111880668D01*
X204411685Y-111884422D01*
X204414282Y-111885185D01*
X204434924Y-111901819D01*
X204598181Y-112065076D01*
X204631666Y-112126399D01*
X204634500Y-112152757D01*
X204634500Y-116158953D01*
X204614815Y-116225992D01*
X204562011Y-116271747D01*
X204492853Y-116281691D01*
X204429297Y-116252666D01*
X204391523Y-116193888D01*
X204390738Y-116191096D01*
X204362984Y-116087515D01*
X204333885Y-116037115D01*
X204290511Y-115961988D01*
X204290506Y-115961982D01*
X204188017Y-115859493D01*
X204188011Y-115859488D01*
X204062488Y-115787017D01*
X204062489Y-115787017D01*
X204051006Y-115783940D01*
X203922475Y-115749500D01*
X203777525Y-115749500D01*
X203648993Y-115783940D01*
X203637511Y-115787017D01*
X203511988Y-115859488D01*
X203511982Y-115859493D01*
X203409493Y-115961982D01*
X203409488Y-115961988D01*
X203337017Y-116087511D01*
X203336214Y-116090509D01*
X203299500Y-116227525D01*
X203299500Y-116372475D01*
X203300022Y-116374422D01*
X203337017Y-116512488D01*
X203409488Y-116638011D01*
X203409493Y-116638017D01*
X203448181Y-116676705D01*
X203481666Y-116738028D01*
X203484500Y-116764386D01*
X203484500Y-120214089D01*
X203464815Y-120281128D01*
X203448181Y-120301770D01*
X202882962Y-120866989D01*
X202865925Y-120803407D01*
X202800099Y-120689393D01*
X202707007Y-120596301D01*
X202592993Y-120530475D01*
X202529409Y-120513437D01*
X203092989Y-119949857D01*
X203057239Y-119923883D01*
X202881373Y-119834273D01*
X202693646Y-119773276D01*
X202498697Y-119742400D01*
X202301303Y-119742400D01*
X202106353Y-119773276D01*
X201918626Y-119834273D01*
X201742762Y-119923882D01*
X201742760Y-119923883D01*
X201707010Y-119949856D01*
X201707010Y-119949857D01*
X202270591Y-120513437D01*
X202207007Y-120530475D01*
X202092993Y-120596301D01*
X201999901Y-120689393D01*
X201934075Y-120803407D01*
X201917037Y-120866990D01*
X201353457Y-120303410D01*
X201336927Y-120304711D01*
X201325511Y-120314604D01*
X201321888Y-120315124D01*
X201318987Y-120317362D01*
X201287561Y-120320060D01*
X201256353Y-120324548D01*
X201253021Y-120323026D01*
X201249374Y-120323340D01*
X201221483Y-120308623D01*
X201192797Y-120295523D01*
X201190817Y-120292442D01*
X201187579Y-120290734D01*
X201172072Y-120263274D01*
X201155023Y-120236745D01*
X201154316Y-120231832D01*
X201153222Y-120229894D01*
X201150000Y-120201810D01*
X201150000Y-119400000D01*
X200389500Y-119400000D01*
X200322461Y-119380315D01*
X200276706Y-119327511D01*
X200265500Y-119276000D01*
X200265500Y-116352757D01*
X200285185Y-116285718D01*
X200301819Y-116265076D01*
X200515076Y-116051819D01*
X200542003Y-116037115D01*
X200567822Y-116020523D01*
X200574022Y-116019631D01*
X200576399Y-116018334D01*
X200602757Y-116015500D01*
X200735614Y-116015500D01*
X200802653Y-116035185D01*
X200823295Y-116051819D01*
X200861985Y-116090509D01*
X200861986Y-116090510D01*
X200861988Y-116090511D01*
X200987511Y-116162982D01*
X200987512Y-116162982D01*
X200987515Y-116162984D01*
X201127525Y-116200500D01*
X201127528Y-116200500D01*
X201272472Y-116200500D01*
X201272475Y-116200500D01*
X201412485Y-116162984D01*
X201538015Y-116090509D01*
X201640509Y-115988015D01*
X201712984Y-115862485D01*
X201750500Y-115722475D01*
X201750500Y-115577525D01*
X201712984Y-115437515D01*
X201699630Y-115414386D01*
X201640511Y-115311988D01*
X201640506Y-115311982D01*
X201538017Y-115209493D01*
X201538011Y-115209488D01*
X201412488Y-115137017D01*
X201412489Y-115137017D01*
X201401006Y-115133940D01*
X201272475Y-115099500D01*
X201127525Y-115099500D01*
X200998993Y-115133940D01*
X200987511Y-115137017D01*
X200861988Y-115209488D01*
X200861982Y-115209493D01*
X200823295Y-115248181D01*
X200761972Y-115281666D01*
X200735614Y-115284500D01*
X200351881Y-115284500D01*
X200258920Y-115309408D01*
X200175578Y-115357527D01*
X200175575Y-115357529D01*
X199877181Y-115655924D01*
X199857744Y-115666536D01*
X199841011Y-115681037D01*
X199827679Y-115682953D01*
X199815858Y-115689409D01*
X199793771Y-115687829D01*
X199771853Y-115690981D01*
X199759601Y-115685385D01*
X199746166Y-115684425D01*
X199728439Y-115671154D01*
X199708297Y-115661956D01*
X199701014Y-115650624D01*
X199690233Y-115642553D01*
X199682495Y-115621807D01*
X199670523Y-115603178D01*
X199667371Y-115581259D01*
X199665816Y-115577089D01*
X199665500Y-115568243D01*
X199665500Y-115414386D01*
X199685185Y-115347347D01*
X199701819Y-115326705D01*
X199719116Y-115309408D01*
X199740509Y-115288015D01*
X199812984Y-115162485D01*
X199850500Y-115022475D01*
X199850500Y-114877525D01*
X199812984Y-114737515D01*
X199740509Y-114611985D01*
X199638015Y-114509491D01*
X199638013Y-114509490D01*
X199638011Y-114509488D01*
X199512488Y-114437017D01*
X199512489Y-114437017D01*
X199501006Y-114433940D01*
X199372475Y-114399500D01*
X199227525Y-114399500D01*
X199098993Y-114433940D01*
X199087511Y-114437017D01*
X198961988Y-114509488D01*
X198961982Y-114509493D01*
X198859493Y-114611982D01*
X198859488Y-114611988D01*
X198787017Y-114737511D01*
X198787016Y-114737515D01*
X198749500Y-114877525D01*
X198749500Y-115022475D01*
X198770139Y-115099500D01*
X198787017Y-115162488D01*
X198859488Y-115288011D01*
X198859493Y-115288017D01*
X198898181Y-115326705D01*
X198931666Y-115388028D01*
X198934500Y-115414386D01*
X198934500Y-129122687D01*
X198914815Y-129189726D01*
X198862011Y-129235481D01*
X198792853Y-129245425D01*
X198763061Y-129237254D01*
X198762492Y-129237018D01*
X198756756Y-129235481D01*
X198622475Y-129199500D01*
X198477525Y-129199500D01*
X198348993Y-129233940D01*
X198337511Y-129237017D01*
X198211988Y-129309488D01*
X198211982Y-129309493D01*
X198109493Y-129411982D01*
X198109488Y-129411988D01*
X198037017Y-129537511D01*
X198037016Y-129537515D01*
X197999500Y-129677525D01*
X196216769Y-129677525D01*
X196255495Y-129661484D01*
X196378416Y-129579351D01*
X196482951Y-129474816D01*
X196565084Y-129351895D01*
X196621658Y-129215313D01*
X196640083Y-129122687D01*
X196650500Y-129070320D01*
X196650500Y-128922479D01*
X196621659Y-128777492D01*
X196621658Y-128777491D01*
X196621658Y-128777487D01*
X196613358Y-128757449D01*
X196565087Y-128640911D01*
X196565080Y-128640898D01*
X196482951Y-128517984D01*
X196482948Y-128517980D01*
X196378419Y-128413451D01*
X196378415Y-128413448D01*
X196255501Y-128331319D01*
X196255488Y-128331312D01*
X196118917Y-128274743D01*
X196118907Y-128274740D01*
X195973920Y-128245900D01*
X195973918Y-128245900D01*
X195826082Y-128245900D01*
X195826080Y-128245900D01*
X195681092Y-128274740D01*
X195681082Y-128274743D01*
X195544511Y-128331312D01*
X195544498Y-128331319D01*
X195421584Y-128413448D01*
X195421580Y-128413451D01*
X195317051Y-128517980D01*
X195317048Y-128517984D01*
X195234919Y-128640898D01*
X195234912Y-128640911D01*
X195178343Y-128777482D01*
X195178340Y-128777492D01*
X195149500Y-128922479D01*
X195149500Y-128922482D01*
X195149500Y-129070318D01*
X195149500Y-129070320D01*
X195149499Y-129070320D01*
X123065500Y-129070320D01*
X123065500Y-127838268D01*
X124545496Y-127838268D01*
X124545500Y-127897273D01*
X124545500Y-127950621D01*
X124545502Y-127950635D01*
X124545503Y-127950637D01*
X124580049Y-128034028D01*
X124584254Y-128044177D01*
X124655847Y-128115762D01*
X124655848Y-128115762D01*
X124655849Y-128115763D01*
X124749391Y-128154503D01*
X124749392Y-128154502D01*
X124749393Y-128154503D01*
X124817936Y-128154499D01*
X190895561Y-128150900D01*
X190950623Y-128150900D01*
X190950630Y-128150897D01*
X190950637Y-128150897D01*
X190995555Y-128132288D01*
X191037655Y-128114850D01*
X191043510Y-128112810D01*
X191044172Y-128112147D01*
X191044175Y-128112147D01*
X191079969Y-128076349D01*
X191111813Y-128044505D01*
X191115317Y-128041304D01*
X191115750Y-128040567D01*
X191115755Y-128040563D01*
X191115757Y-128040556D01*
X191115763Y-128040551D01*
X191115769Y-128040534D01*
X191116813Y-128038762D01*
X191118464Y-128034028D01*
X191123251Y-128022471D01*
X191135899Y-127991929D01*
X191154500Y-127947023D01*
X191154500Y-127947022D01*
X191154501Y-127947020D01*
X191154503Y-127947011D01*
X191154500Y-127890592D01*
X191154500Y-120897702D01*
X194646000Y-120897702D01*
X194646000Y-121095097D01*
X194676876Y-121290046D01*
X194737873Y-121477773D01*
X194827483Y-121653639D01*
X194853457Y-121689388D01*
X194853457Y-121689389D01*
X195417037Y-121125809D01*
X195434075Y-121189393D01*
X195499901Y-121303407D01*
X195592993Y-121396499D01*
X195707007Y-121462325D01*
X195770590Y-121479362D01*
X195236271Y-122013681D01*
X195174948Y-122047166D01*
X195148590Y-122050000D01*
X194900000Y-122050000D01*
X194900000Y-122862629D01*
X194898565Y-122877190D01*
X194898508Y-122881808D01*
X194898114Y-122884319D01*
X194895500Y-122897465D01*
X194895500Y-123095335D01*
X194896802Y-123101881D01*
X194897617Y-123105975D01*
X194900000Y-123130170D01*
X194900000Y-124862629D01*
X194897617Y-124886822D01*
X194895500Y-124897463D01*
X194895500Y-125095333D01*
X194897617Y-125105975D01*
X194900000Y-125130170D01*
X194900000Y-125950000D01*
X195552646Y-125950000D01*
X195600094Y-125959437D01*
X195606998Y-125962297D01*
X195654520Y-125971749D01*
X195801062Y-126000900D01*
X195801065Y-126000900D01*
X195998937Y-126000900D01*
X196096631Y-125981466D01*
X196193002Y-125962297D01*
X196199905Y-125959437D01*
X196247354Y-125950000D01*
X196900000Y-125950000D01*
X196900000Y-125130170D01*
X196902383Y-125105975D01*
X196904500Y-125095333D01*
X196904500Y-124897463D01*
X196902383Y-124886822D01*
X196900000Y-124862629D01*
X196900000Y-123130170D01*
X196902383Y-123105975D01*
X196903198Y-123101881D01*
X196904500Y-123095335D01*
X196904500Y-122897465D01*
X196902383Y-122886822D01*
X196900000Y-122862629D01*
X196900000Y-122050000D01*
X196651410Y-122050000D01*
X196584371Y-122030315D01*
X196563729Y-122013681D01*
X196029410Y-121479362D01*
X196092993Y-121462325D01*
X196207007Y-121396499D01*
X196300099Y-121303407D01*
X196365925Y-121189393D01*
X196382962Y-121125809D01*
X196946541Y-121689388D01*
X196946543Y-121689388D01*
X196972516Y-121653641D01*
X197062126Y-121477773D01*
X197123123Y-121290046D01*
X197154000Y-121095097D01*
X197154000Y-120897702D01*
X197123123Y-120702753D01*
X197062126Y-120515026D01*
X196972520Y-120339168D01*
X196972512Y-120339155D01*
X196946542Y-120303410D01*
X196946541Y-120303409D01*
X196382962Y-120866989D01*
X196365925Y-120803407D01*
X196300099Y-120689393D01*
X196207007Y-120596301D01*
X196092993Y-120530475D01*
X196029409Y-120513437D01*
X196592989Y-119949857D01*
X196557239Y-119923883D01*
X196381369Y-119834272D01*
X196365823Y-119829220D01*
X196308150Y-119789780D01*
X196280955Y-119725420D01*
X196292872Y-119656574D01*
X196335258Y-119608188D01*
X196378416Y-119579351D01*
X196482951Y-119474816D01*
X196565084Y-119351895D01*
X196621658Y-119215313D01*
X196650500Y-119070318D01*
X196650500Y-118922482D01*
X196650500Y-118922479D01*
X196621659Y-118777492D01*
X196621658Y-118777491D01*
X196621658Y-118777487D01*
X196603946Y-118734726D01*
X196565087Y-118640911D01*
X196565080Y-118640898D01*
X196482951Y-118517984D01*
X196482948Y-118517980D01*
X196378419Y-118413451D01*
X196378415Y-118413448D01*
X196255501Y-118331319D01*
X196255488Y-118331312D01*
X196118917Y-118274743D01*
X196118907Y-118274740D01*
X195973920Y-118245900D01*
X195973918Y-118245900D01*
X195826082Y-118245900D01*
X195826080Y-118245900D01*
X195681092Y-118274740D01*
X195681082Y-118274743D01*
X195544511Y-118331312D01*
X195544498Y-118331319D01*
X195421584Y-118413448D01*
X195421580Y-118413451D01*
X195317051Y-118517980D01*
X195317048Y-118517984D01*
X195234919Y-118640898D01*
X195234912Y-118640911D01*
X195178343Y-118777482D01*
X195178340Y-118777492D01*
X195149500Y-118922479D01*
X195149500Y-118922482D01*
X195149500Y-119070318D01*
X195149500Y-119070320D01*
X195149499Y-119070320D01*
X195178340Y-119215307D01*
X195178343Y-119215317D01*
X195234912Y-119351888D01*
X195234919Y-119351901D01*
X195317048Y-119474815D01*
X195317051Y-119474819D01*
X195421580Y-119579348D01*
X195421588Y-119579354D01*
X195464742Y-119608189D01*
X195509548Y-119661801D01*
X195518255Y-119731126D01*
X195488101Y-119794153D01*
X195434177Y-119829220D01*
X195418628Y-119834272D01*
X195242762Y-119923882D01*
X195242760Y-119923883D01*
X195207010Y-119949856D01*
X195207010Y-119949857D01*
X195770591Y-120513437D01*
X195707007Y-120530475D01*
X195592993Y-120596301D01*
X195499901Y-120689393D01*
X195434075Y-120803407D01*
X195417037Y-120866990D01*
X194853457Y-120303410D01*
X194853456Y-120303410D01*
X194827483Y-120339160D01*
X194827482Y-120339162D01*
X194737873Y-120515026D01*
X194676876Y-120702753D01*
X194646000Y-120897702D01*
X191154500Y-120897702D01*
X191154500Y-119449378D01*
X191154498Y-119449373D01*
X191115757Y-119355839D01*
X191044160Y-119284242D01*
X190950626Y-119245501D01*
X190950624Y-119245500D01*
X190950623Y-119245500D01*
X124850623Y-119245500D01*
X124749377Y-119245500D01*
X124749375Y-119245500D01*
X124749373Y-119245501D01*
X124655839Y-119284242D01*
X124584242Y-119355839D01*
X124545501Y-119449373D01*
X124545500Y-119449378D01*
X124545500Y-127838222D01*
X124545496Y-127838268D01*
X123065500Y-127838268D01*
X123065500Y-122901883D01*
X123065500Y-122901881D01*
X123040592Y-122808922D01*
X122992473Y-122725578D01*
X122924422Y-122657527D01*
X121974422Y-121707527D01*
X121932750Y-121683467D01*
X121891079Y-121659408D01*
X121844598Y-121646954D01*
X121798119Y-121634500D01*
X121798118Y-121634500D01*
X121224000Y-121634500D01*
X121156961Y-121614815D01*
X121111206Y-121562011D01*
X121100000Y-121510500D01*
X121100000Y-120600000D01*
X121043154Y-120600000D01*
X120976115Y-120580315D01*
X120930360Y-120527511D01*
X120920416Y-120458353D01*
X120925223Y-120437682D01*
X120972022Y-120293650D01*
X120972022Y-120293647D01*
X121002900Y-120098697D01*
X121002900Y-119901302D01*
X120972023Y-119706353D01*
X120911026Y-119518626D01*
X120821420Y-119342768D01*
X120821412Y-119342755D01*
X120795442Y-119307010D01*
X120795441Y-119307009D01*
X120231862Y-119870589D01*
X120214825Y-119807007D01*
X120148999Y-119692993D01*
X120055907Y-119599901D01*
X119941893Y-119534075D01*
X119878309Y-119517037D01*
X120441888Y-118953458D01*
X120441888Y-118953456D01*
X120406139Y-118927483D01*
X120230269Y-118837872D01*
X120214723Y-118832820D01*
X120157050Y-118793380D01*
X120129855Y-118729020D01*
X120141772Y-118660174D01*
X120184158Y-118611788D01*
X120227316Y-118582951D01*
X120331851Y-118478416D01*
X120413984Y-118355495D01*
X120470558Y-118218913D01*
X120499400Y-118073918D01*
X120499400Y-117926082D01*
X120499400Y-117926079D01*
X120470559Y-117781092D01*
X120470558Y-117781091D01*
X120470558Y-117781087D01*
X120470556Y-117781082D01*
X120413987Y-117644511D01*
X120413980Y-117644498D01*
X120331851Y-117521584D01*
X120331848Y-117521580D01*
X120227319Y-117417051D01*
X120227315Y-117417048D01*
X120104401Y-117334919D01*
X120104388Y-117334912D01*
X119967817Y-117278343D01*
X119967807Y-117278340D01*
X119822820Y-117249500D01*
X119822818Y-117249500D01*
X119674982Y-117249500D01*
X119674980Y-117249500D01*
X119529992Y-117278340D01*
X119529982Y-117278343D01*
X119393411Y-117334912D01*
X119393398Y-117334919D01*
X119270484Y-117417048D01*
X119270480Y-117417051D01*
X119165951Y-117521580D01*
X119165948Y-117521584D01*
X119083819Y-117644498D01*
X119083812Y-117644511D01*
X119027243Y-117781082D01*
X119027240Y-117781092D01*
X118998400Y-117926079D01*
X118998400Y-117926082D01*
X118998400Y-118073918D01*
X118998400Y-118073920D01*
X118998399Y-118073920D01*
X119027240Y-118218907D01*
X119027243Y-118218917D01*
X119083812Y-118355488D01*
X119083819Y-118355501D01*
X119165948Y-118478415D01*
X119165951Y-118478419D01*
X119270480Y-118582948D01*
X119270488Y-118582954D01*
X119313642Y-118611789D01*
X119358448Y-118665401D01*
X119367155Y-118734726D01*
X119337001Y-118797753D01*
X119283077Y-118832820D01*
X119267528Y-118837872D01*
X119091662Y-118927482D01*
X119091660Y-118927483D01*
X119055910Y-118953456D01*
X119055910Y-118953457D01*
X119619491Y-119517037D01*
X119555907Y-119534075D01*
X119441893Y-119599901D01*
X119348801Y-119692993D01*
X119282975Y-119807007D01*
X119265937Y-119870590D01*
X118702357Y-119307010D01*
X118702356Y-119307010D01*
X118676383Y-119342760D01*
X118676382Y-119342762D01*
X118586773Y-119518626D01*
X118525776Y-119706353D01*
X118494900Y-119901302D01*
X113528450Y-119901302D01*
X113497573Y-119706353D01*
X113436576Y-119518626D01*
X113346970Y-119342768D01*
X113346962Y-119342755D01*
X113320992Y-119307010D01*
X113320991Y-119307009D01*
X112757412Y-119870589D01*
X112740375Y-119807007D01*
X112674549Y-119692993D01*
X112581457Y-119599901D01*
X112467443Y-119534075D01*
X112403859Y-119517037D01*
X112967439Y-118953457D01*
X112931689Y-118927483D01*
X112755819Y-118837872D01*
X112740273Y-118832820D01*
X112682600Y-118793380D01*
X112655405Y-118729020D01*
X112667322Y-118660174D01*
X112709708Y-118611788D01*
X112752866Y-118582951D01*
X112857401Y-118478416D01*
X112939534Y-118355495D01*
X112996108Y-118218913D01*
X113024950Y-118073918D01*
X113024950Y-117926082D01*
X113024950Y-117926079D01*
X112996109Y-117781092D01*
X112996108Y-117781091D01*
X112996108Y-117781087D01*
X112996106Y-117781082D01*
X112939537Y-117644511D01*
X112939530Y-117644498D01*
X112857401Y-117521584D01*
X112857398Y-117521580D01*
X112752869Y-117417051D01*
X112752865Y-117417048D01*
X112629951Y-117334919D01*
X112629938Y-117334912D01*
X112493367Y-117278343D01*
X112493357Y-117278340D01*
X112348370Y-117249500D01*
X112348368Y-117249500D01*
X112200532Y-117249500D01*
X112200530Y-117249500D01*
X112055542Y-117278340D01*
X112055532Y-117278343D01*
X111918961Y-117334912D01*
X111918948Y-117334919D01*
X111796034Y-117417048D01*
X111796030Y-117417051D01*
X111691501Y-117521580D01*
X111691498Y-117521584D01*
X111609369Y-117644498D01*
X111609362Y-117644511D01*
X111552793Y-117781082D01*
X111552790Y-117781092D01*
X111523950Y-117926079D01*
X111523950Y-117926082D01*
X111523950Y-118073918D01*
X111523950Y-118073920D01*
X111523949Y-118073920D01*
X111552790Y-118218907D01*
X111552793Y-118218917D01*
X111609362Y-118355488D01*
X111609369Y-118355501D01*
X111691498Y-118478415D01*
X111691501Y-118478419D01*
X111796030Y-118582948D01*
X111796038Y-118582954D01*
X111839192Y-118611789D01*
X111883998Y-118665401D01*
X111892705Y-118734726D01*
X111862551Y-118797753D01*
X111808627Y-118832820D01*
X111793078Y-118837872D01*
X111617212Y-118927482D01*
X111617210Y-118927483D01*
X111581460Y-118953456D01*
X111581460Y-118953457D01*
X112145041Y-119517037D01*
X112081457Y-119534075D01*
X111967443Y-119599901D01*
X111874351Y-119692993D01*
X111808525Y-119807007D01*
X111791487Y-119870590D01*
X111227907Y-119307010D01*
X111227906Y-119307010D01*
X111201933Y-119342760D01*
X111201932Y-119342762D01*
X111112323Y-119518626D01*
X111051326Y-119706353D01*
X111020450Y-119901302D01*
X106054000Y-119901302D01*
X106023123Y-119706353D01*
X105962126Y-119518626D01*
X105872520Y-119342768D01*
X105872512Y-119342755D01*
X105846542Y-119307010D01*
X105846541Y-119307009D01*
X105282962Y-119870589D01*
X105265925Y-119807007D01*
X105200099Y-119692993D01*
X105107007Y-119599901D01*
X104992993Y-119534075D01*
X104929409Y-119517037D01*
X105492989Y-118953457D01*
X105457239Y-118927483D01*
X105281369Y-118837872D01*
X105265823Y-118832820D01*
X105208150Y-118793380D01*
X105180955Y-118729020D01*
X105192872Y-118660174D01*
X105235258Y-118611788D01*
X105278416Y-118582951D01*
X105382951Y-118478416D01*
X105465084Y-118355495D01*
X105521658Y-118218913D01*
X105550500Y-118073918D01*
X105550500Y-117926082D01*
X105550500Y-117926079D01*
X105521659Y-117781092D01*
X105521658Y-117781091D01*
X105521658Y-117781087D01*
X105521656Y-117781082D01*
X105465087Y-117644511D01*
X105465080Y-117644498D01*
X105382951Y-117521584D01*
X105382948Y-117521580D01*
X105278419Y-117417051D01*
X105278415Y-117417048D01*
X105155501Y-117334919D01*
X105155488Y-117334912D01*
X105018917Y-117278343D01*
X105018907Y-117278340D01*
X104873920Y-117249500D01*
X104873918Y-117249500D01*
X104726082Y-117249500D01*
X104726080Y-117249500D01*
X104581092Y-117278340D01*
X104581082Y-117278343D01*
X104444511Y-117334912D01*
X104444498Y-117334919D01*
X104321584Y-117417048D01*
X104321580Y-117417051D01*
X104217051Y-117521580D01*
X104217048Y-117521584D01*
X104134919Y-117644498D01*
X104134912Y-117644511D01*
X104078343Y-117781082D01*
X104078340Y-117781092D01*
X104049500Y-117926079D01*
X104049500Y-117926082D01*
X104049500Y-118073918D01*
X104049500Y-118073920D01*
X104049499Y-118073920D01*
X104078340Y-118218907D01*
X104078343Y-118218917D01*
X104134912Y-118355488D01*
X104134919Y-118355501D01*
X104217048Y-118478415D01*
X104217051Y-118478419D01*
X104321580Y-118582948D01*
X104321588Y-118582954D01*
X104364742Y-118611789D01*
X104409548Y-118665401D01*
X104418255Y-118734726D01*
X104388101Y-118797753D01*
X104334177Y-118832820D01*
X104318628Y-118837872D01*
X104142762Y-118927482D01*
X104142760Y-118927483D01*
X104107010Y-118953456D01*
X104107010Y-118953457D01*
X104670591Y-119517037D01*
X104607007Y-119534075D01*
X104492993Y-119599901D01*
X104399901Y-119692993D01*
X104334075Y-119807007D01*
X104317037Y-119870590D01*
X103753457Y-119307010D01*
X103753456Y-119307010D01*
X103727483Y-119342760D01*
X103727482Y-119342762D01*
X103637873Y-119518626D01*
X103576876Y-119706353D01*
X103546000Y-119901302D01*
X96254500Y-119901302D01*
X96254500Y-114920000D01*
X147480000Y-114920000D01*
X151280000Y-114920000D01*
X164040000Y-114920000D01*
X167840000Y-114920000D01*
X167840000Y-114900000D01*
X180700000Y-114900000D01*
X184500000Y-114900000D01*
X184500000Y-113100000D01*
X195722619Y-113100000D01*
X199522619Y-113100000D01*
X199522619Y-109900000D01*
X195722619Y-109900000D01*
X195722619Y-113100000D01*
X184500000Y-113100000D01*
X184500000Y-111700000D01*
X180700000Y-111700000D01*
X180700000Y-114900000D01*
X167840000Y-114900000D01*
X167840000Y-111720000D01*
X164040000Y-111720000D01*
X164040000Y-114920000D01*
X151280000Y-114920000D01*
X151280000Y-111720000D01*
X147480000Y-111720000D01*
X147480000Y-114920000D01*
X96254500Y-114920000D01*
X96254500Y-114900000D01*
X130900000Y-114900000D01*
X134700000Y-114900000D01*
X134700000Y-111700000D01*
X130900000Y-111700000D01*
X130900000Y-114900000D01*
X96254500Y-114900000D01*
X96254500Y-111791301D01*
X96257449Y-111782455D01*
X96254500Y-111740963D01*
X96254500Y-111699377D01*
X96254500Y-111699376D01*
X96253257Y-111693130D01*
X96252962Y-111692240D01*
X96250282Y-111681618D01*
X96250271Y-111681463D01*
X96233643Y-111648207D01*
X96229991Y-111640206D01*
X96215755Y-111605838D01*
X96215755Y-111605837D01*
X96209160Y-111599242D01*
X96204992Y-111590906D01*
X96173577Y-111563659D01*
X96144163Y-111534245D01*
X96144162Y-111534244D01*
X96136508Y-111529129D01*
X96128507Y-111524568D01*
X96093216Y-111512804D01*
X96093216Y-111512803D01*
X96089028Y-111511407D01*
X96050623Y-111495500D01*
X96041304Y-111495500D01*
X96032454Y-111492550D01*
X95998324Y-111494976D01*
X95995354Y-111495188D01*
X95995353Y-111495188D01*
X95990962Y-111495500D01*
X95949377Y-111495500D01*
X95940764Y-111499067D01*
X95931464Y-111499728D01*
X95931461Y-111499729D01*
X95898198Y-111516359D01*
X95890207Y-111520007D01*
X95855835Y-111534245D01*
X95845683Y-111541029D01*
X95844965Y-111539954D01*
X95831248Y-111549836D01*
X94433953Y-112248483D01*
X94365189Y-112260858D01*
X94300650Y-112234090D01*
X94260828Y-112176680D01*
X94254500Y-112137574D01*
X94254500Y-110003480D01*
X94254695Y-109996528D01*
X94257343Y-109949377D01*
X94271373Y-109699541D01*
X94272927Y-109685747D01*
X94322169Y-109395931D01*
X94325262Y-109382379D01*
X94406641Y-109099907D01*
X94411234Y-109086782D01*
X94523730Y-108815191D01*
X94529749Y-108802692D01*
X94671953Y-108545395D01*
X94679348Y-108533627D01*
X94849458Y-108293879D01*
X94858114Y-108283025D01*
X95054008Y-108063818D01*
X95063818Y-108054008D01*
X95283025Y-107858114D01*
X95293879Y-107849458D01*
X95533632Y-107679344D01*
X95545395Y-107671953D01*
X95802692Y-107529749D01*
X95815191Y-107523730D01*
X96086786Y-107411232D01*
X96099903Y-107406642D01*
X96382384Y-107325260D01*
X96395931Y-107322169D01*
X96685747Y-107272927D01*
X96699543Y-107271373D01*
X96963262Y-107256563D01*
X96996529Y-107254695D01*
X97003481Y-107254500D01*
X97044875Y-107254500D01*
X223955125Y-107254500D01*
X223996519Y-107254500D01*
X224003471Y-107254695D01*
G37*
%TD.AperFunction*%
%TD*%
M02*
