%TF.GenerationSoftware,KiCad,Pcbnew,9.0.7*%
%TF.CreationDate,2026-04-16T10:54:11+01:00*%
%TF.ProjectId,stepperdriver front panel,73746570-7065-4726-9472-697665722066,rev?*%
%TF.SameCoordinates,Original*%
%TF.FileFunction,Soldermask,Top*%
%TF.FilePolarity,Negative*%
%FSLAX46Y46*%
G04 Gerber Fmt 4.6, Leading zero omitted, Abs format (unit mm)*
G04 Created by KiCad (PCBNEW 9.0.7) date 2026-04-16 10:54:11*
%MOMM*%
%LPD*%
G01*
G04 APERTURE LIST*
%ADD10C,1.600000*%
%ADD11C,1.000000*%
%ADD12C,1.609600*%
G04 APERTURE END LIST*
%TO.C,LED5*%
D10*
X183400000Y-113300000D02*
G75*
G02*
X181800000Y-113300000I-800000J0D01*
G01*
X181800000Y-113300000D02*
G75*
G02*
X183400000Y-113300000I800000J0D01*
G01*
%TO.C,LED1*%
X198422619Y-111500000D02*
G75*
G02*
X196822619Y-111500000I-800000J0D01*
G01*
X196822619Y-111500000D02*
G75*
G02*
X198422619Y-111500000I800000J0D01*
G01*
%TO.C,LED4*%
X166740000Y-113320000D02*
G75*
G02*
X165140000Y-113320000I-800000J0D01*
G01*
X165140000Y-113320000D02*
G75*
G02*
X166740000Y-113320000I800000J0D01*
G01*
%TO.C,LED3*%
X150180000Y-113320000D02*
G75*
G02*
X148580000Y-113320000I-800000J0D01*
G01*
X148580000Y-113320000D02*
G75*
G02*
X150180000Y-113320000I800000J0D01*
G01*
%TO.C,LED6*%
X209994048Y-111500000D02*
G75*
G02*
X208394048Y-111500000I-800000J0D01*
G01*
X208394048Y-111500000D02*
G75*
G02*
X209994048Y-111500000I800000J0D01*
G01*
%TO.C,LED2*%
X133600000Y-113300000D02*
G75*
G02*
X132000000Y-113300000I-800000J0D01*
G01*
X132000000Y-113300000D02*
G75*
G02*
X133600000Y-113300000I800000J0D01*
G01*
%TD*%
D11*
%TO.C,U$4*%
X119748900Y-118000000D03*
X119748900Y-130000000D03*
D12*
X119748900Y-126000000D03*
X119748900Y-124000000D03*
X119748900Y-122000000D03*
X119748900Y-120000000D03*
%TD*%
D11*
%TO.C,U$6*%
X104800000Y-118000000D03*
X104800000Y-130000000D03*
D12*
X104800000Y-126000000D03*
X104800000Y-124000000D03*
X104800000Y-122000000D03*
X104800000Y-120000000D03*
%TD*%
D11*
%TO.C,U$5*%
X112274450Y-118000000D03*
X112274450Y-130000000D03*
D12*
X112274450Y-126000000D03*
X112274450Y-124000000D03*
X112274450Y-122000000D03*
X112274450Y-120000000D03*
%TD*%
D11*
%TO.C,U$8*%
X195900000Y-118996400D03*
X195900000Y-128996400D03*
X215400000Y-118996400D03*
X215400000Y-128996400D03*
D12*
X195900000Y-124996400D03*
X195900000Y-122996400D03*
X195900000Y-120996400D03*
X202400000Y-124996400D03*
X202400000Y-122996400D03*
X202400000Y-120996400D03*
X208900000Y-124996400D03*
X208900000Y-122996400D03*
X208900000Y-120996400D03*
X215400000Y-124996400D03*
X215400000Y-122996400D03*
X215400000Y-120996400D03*
%TD*%
M02*
