%TF.GenerationSoftware,KiCad,Pcbnew,9.0.7*%
%TF.CreationDate,2026-04-16T10:54:11+01:00*%
%TF.ProjectId,stepperdriver front panel,73746570-7065-4726-9472-697665722066,rev?*%
%TF.SameCoordinates,Original*%
%TF.FileFunction,Copper,L2,Bot*%
%TF.FilePolarity,Positive*%
%FSLAX46Y46*%
G04 Gerber Fmt 4.6, Leading zero omitted, Abs format (unit mm)*
G04 Created by KiCad (PCBNEW 9.0.7) date 2026-04-16 10:54:11*
%MOMM*%
%LPD*%
G01*
G04 APERTURE LIST*
G04 Aperture macros list*
%AMRoundRect*
0 Rectangle with rounded corners*
0 $1 Rounding radius*
0 $2 $3 $4 $5 $6 $7 $8 $9 X,Y pos of 4 corners*
0 Add a 4 corners polygon primitive as box body*
4,1,4,$2,$3,$4,$5,$6,$7,$8,$9,$2,$3,0*
0 Add four circle primitives for the rounded corners*
1,1,$1+$1,$2,$3*
1,1,$1+$1,$4,$5*
1,1,$1+$1,$6,$7*
1,1,$1+$1,$8,$9*
0 Add four rect primitives between the rounded corners*
20,1,$1+$1,$2,$3,$4,$5,0*
20,1,$1+$1,$4,$5,$6,$7,0*
20,1,$1+$1,$6,$7,$8,$9,0*
20,1,$1+$1,$8,$9,$2,$3,0*%
G04 Aperture macros list end*
%TA.AperFunction,ComponentPad*%
%ADD10C,1.508000*%
%TD*%
%TA.AperFunction,SMDPad,CuDef*%
%ADD11RoundRect,0.135000X-0.185000X0.135000X-0.185000X-0.135000X0.185000X-0.135000X0.185000X0.135000X0*%
%TD*%
%TA.AperFunction,SMDPad,CuDef*%
%ADD12RoundRect,0.200000X-0.275000X0.200000X-0.275000X-0.200000X0.275000X-0.200000X0.275000X0.200000X0*%
%TD*%
%TA.AperFunction,SMDPad,CuDef*%
%ADD13R,1.400000X2.600000*%
%TD*%
%TA.AperFunction,SMDPad,CuDef*%
%ADD14R,0.250000X1.100000*%
%TD*%
%TA.AperFunction,SMDPad,CuDef*%
%ADD15R,1.700000X1.500000*%
%TD*%
%TA.AperFunction,ViaPad*%
%ADD16C,4.316000*%
%TD*%
%TA.AperFunction,ViaPad*%
%ADD17C,0.600000*%
%TD*%
%TA.AperFunction,Conductor*%
%ADD18C,0.210000*%
%TD*%
%TA.AperFunction,Conductor*%
%ADD19C,0.300000*%
%TD*%
%TA.AperFunction,Conductor*%
%ADD20C,0.350000*%
%TD*%
%TA.AperFunction,Conductor*%
%ADD21C,0.230000*%
%TD*%
G04 APERTURE END LIST*
D10*
%TO.P,U$4,1,Pin_1*%
%TO.N,+5V*%
X119748900Y-126000000D03*
%TO.P,U$4,2,Pin_2*%
%TO.N,ENCD_1.A*%
X119748900Y-124000000D03*
%TO.P,U$4,3,Pin_3*%
%TO.N,ENCD_1.B*%
X119748900Y-122000000D03*
%TO.P,U$4,4,Pin_4*%
%TO.N,GNDD*%
X119748900Y-120000000D03*
%TD*%
%TO.P,U$6,1,Pin_1*%
%TO.N,+5V*%
X104800000Y-126000000D03*
%TO.P,U$6,2,Pin_2*%
%TO.N,ENCD_2.A*%
X104800000Y-124000000D03*
%TO.P,U$6,3,Pin_3*%
%TO.N,ENCD_2.B*%
X104800000Y-122000000D03*
%TO.P,U$6,4,Pin_4*%
%TO.N,GNDD*%
X104800000Y-120000000D03*
%TD*%
%TO.P,U$5,1,Pin_1*%
%TO.N,+5V*%
X112274450Y-126000000D03*
%TO.P,U$5,2,Pin_2*%
%TO.N,ENCD_3.A*%
X112274450Y-124000000D03*
%TO.P,U$5,3,Pin_3*%
%TO.N,ENCD_3.B*%
X112274450Y-122000000D03*
%TO.P,U$5,4,Pin_4*%
%TO.N,GNDD*%
X112274450Y-120000000D03*
%TD*%
%TO.P,U$8,1,Pin_1*%
%TO.N,/limit_switch_power*%
X195900000Y-124996400D03*
%TO.P,U$8,2,Pin_2*%
%TO.N,INDUCTOR_LIMIT_SW_1*%
X195900000Y-122996400D03*
%TO.P,U$8,3,Pin_3*%
%TO.N,GNDD*%
X195900000Y-120996400D03*
%TO.P,U$8,4,Pin_4*%
%TO.N,/limit_switch_power*%
X202400000Y-124996400D03*
%TO.P,U$8,5,Pin_5*%
%TO.N,INDUCTOR_LIMIT_SW_2*%
X202400000Y-122996400D03*
%TO.P,U$8,6,Pin_6*%
%TO.N,GNDD*%
X202400000Y-120996400D03*
%TO.P,U$8,7,Pin_7*%
%TO.N,/limit_switch_power*%
X208900000Y-124996400D03*
%TO.P,U$8,8,Pin_8*%
%TO.N,INDUCTOR_LIMIT_SW_3*%
X208900000Y-122996400D03*
%TO.P,U$8,9,Pin_9*%
%TO.N,GNDD*%
X208900000Y-120996400D03*
%TO.P,U$8,10,Pin_10*%
%TO.N,/limit_switch_power*%
X215400000Y-124996400D03*
%TO.P,U$8,11,Pin_11*%
%TO.N,INDUCTOR_LIMIT_SW_4*%
X215400000Y-122996400D03*
%TO.P,U$8,12,Pin_12*%
%TO.N,GNDD*%
X215400000Y-120996400D03*
%TD*%
D11*
%TO.P,R6,1*%
%TO.N,GNDD*%
X206150000Y-121040000D03*
%TO.P,R6,2*%
%TO.N,INDUCTOR_LIMIT_SW_3*%
X206150000Y-122060000D03*
%TD*%
D12*
%TO.P,R3,1*%
%TO.N,/limit_switch_power*%
X202650000Y-128825000D03*
%TO.P,R3,2*%
%TO.N,+5V*%
X202650000Y-130475000D03*
%TD*%
D13*
%TO.P,LED5,1,K*%
%TO.N,LED_M3_PANEL*%
X185200000Y-113300000D03*
%TO.P,LED5,2,A*%
%TO.N,+3V3*%
X180000000Y-113300000D03*
%TD*%
%TO.P,LED1,1,K*%
%TO.N,LED_PWR_PANEL*%
X200222619Y-111500000D03*
%TO.P,LED1,2,A*%
%TO.N,+3V3*%
X195022619Y-111500000D03*
%TD*%
D11*
%TO.P,R10,1*%
%TO.N,INDUCTOR_LIMIT_SW_3*%
X206150000Y-123990000D03*
%TO.P,R10,2*%
%TO.N,/limit_switch_power*%
X206150000Y-125010000D03*
%TD*%
D13*
%TO.P,LED4,1,K*%
%TO.N,LED_M2_PANEL*%
X168540000Y-113320000D03*
%TO.P,LED4,2,A*%
%TO.N,+3V3*%
X163340000Y-113320000D03*
%TD*%
D12*
%TO.P,R4,1*%
%TO.N,/limit_switch_power*%
X204500000Y-128825000D03*
%TO.P,R4,2*%
%TO.N,+3V3*%
X204500000Y-130475000D03*
%TD*%
D11*
%TO.P,R11,1*%
%TO.N,INDUCTOR_LIMIT_SW_4*%
X212900000Y-123990000D03*
%TO.P,R11,2*%
%TO.N,/limit_switch_power*%
X212900000Y-125010000D03*
%TD*%
D13*
%TO.P,LED3,1,K*%
%TO.N,LED_M1_PANEL*%
X151980000Y-113320000D03*
%TO.P,LED3,2,A*%
%TO.N,+3V3*%
X146780000Y-113320000D03*
%TD*%
D11*
%TO.P,R7,1*%
%TO.N,GNDD*%
X200200000Y-121040000D03*
%TO.P,R7,2*%
%TO.N,INDUCTOR_LIMIT_SW_2*%
X200200000Y-122060000D03*
%TD*%
%TO.P,R8,1*%
%TO.N,INDUCTOR_LIMIT_SW_1*%
X198150000Y-123990000D03*
%TO.P,R8,2*%
%TO.N,/limit_switch_power*%
X198150000Y-125010000D03*
%TD*%
%TO.P,R5,1*%
%TO.N,GNDD*%
X212900000Y-121040000D03*
%TO.P,R5,2*%
%TO.N,INDUCTOR_LIMIT_SW_4*%
X212900000Y-122060000D03*
%TD*%
D12*
%TO.P,R1,1*%
%TO.N,/limit_switch_power*%
X206350000Y-128775000D03*
%TO.P,R1,2*%
%TO.N,+12V*%
X206350000Y-130425000D03*
%TD*%
D13*
%TO.P,LED6,1,K*%
%TO.N,LED_STATE_PANEL*%
X211794048Y-111500000D03*
%TO.P,LED6,2,A*%
%TO.N,+3V3*%
X206594048Y-111500000D03*
%TD*%
D11*
%TO.P,R2,1*%
%TO.N,GNDD*%
X198150000Y-121040000D03*
%TO.P,R2,2*%
%TO.N,INDUCTOR_LIMIT_SW_1*%
X198150000Y-122060000D03*
%TD*%
%TO.P,R9,1*%
%TO.N,INDUCTOR_LIMIT_SW_2*%
X200200000Y-123990000D03*
%TO.P,R9,2*%
%TO.N,/limit_switch_power*%
X200200000Y-125010000D03*
%TD*%
D13*
%TO.P,LED2,1,K*%
%TO.N,LED_M0_PANEL*%
X135400000Y-113300000D03*
%TO.P,LED2,2,A*%
%TO.N,+3V3*%
X130200000Y-113300000D03*
%TD*%
D14*
%TO.P,J1,1,Pin_1*%
%TO.N,GNDD*%
X198850000Y-138100000D03*
%TO.P,J1,2,Pin_2*%
%TO.N,+5V*%
X199350000Y-138100000D03*
%TO.P,J1,3,Pin_3*%
%TO.N,ENCD_3.B*%
X199850000Y-138100000D03*
%TO.P,J1,4,Pin_4*%
%TO.N,ENCD_3.A*%
X200350000Y-138100000D03*
%TO.P,J1,5,Pin_5*%
%TO.N,ENCD_2.B*%
X200850000Y-138100000D03*
%TO.P,J1,6,Pin_6*%
%TO.N,ENCD_2.A*%
X201350000Y-138100000D03*
%TO.P,J1,7,Pin_7*%
%TO.N,ENCD_1.B*%
X201850000Y-138100000D03*
%TO.P,J1,8,Pin_8*%
%TO.N,ENCD_1.A*%
X202350000Y-138100000D03*
%TO.P,J1,9,Pin_9*%
%TO.N,unconnected-(J1-Pin_9-Pad9)*%
X202850000Y-138100000D03*
%TO.P,J1,10,Pin_10*%
%TO.N,LED_STATE_PANEL*%
X203350000Y-138100000D03*
%TO.P,J1,11,Pin_11*%
%TO.N,LED_M3_PANEL*%
X203850000Y-138100000D03*
%TO.P,J1,12,Pin_12*%
%TO.N,LED_M2_PANEL*%
X204350000Y-138100000D03*
%TO.P,J1,13,Pin_13*%
%TO.N,LED_M1_PANEL*%
X204850000Y-138100000D03*
%TO.P,J1,14,Pin_14*%
%TO.N,LED_M0_PANEL*%
X205350000Y-138100000D03*
%TO.P,J1,15,Pin_15*%
%TO.N,LED_PWR_PANEL*%
X205850000Y-138100000D03*
%TO.P,J1,16,Pin_16*%
%TO.N,+3V3*%
X206350000Y-138100000D03*
%TO.P,J1,17,Pin_17*%
%TO.N,GNDD*%
X206850000Y-138100000D03*
%TO.P,J1,18,Pin_18*%
%TO.N,+12V*%
X207350000Y-138100000D03*
%TO.P,J1,19,Pin_19*%
%TO.N,GNDD*%
X207850000Y-138100000D03*
%TO.P,J1,20,Pin_20*%
%TO.N,unconnected-(J1-Pin_20-Pad20)*%
X208350000Y-138100000D03*
%TO.P,J1,21,Pin_21*%
%TO.N,INDUCTOR_LIMIT_SW_4*%
X208850000Y-138100000D03*
%TO.P,J1,22,Pin_22*%
%TO.N,INDUCTOR_LIMIT_SW_3*%
X209350000Y-138100000D03*
%TO.P,J1,23,Pin_23*%
%TO.N,INDUCTOR_LIMIT_SW_2*%
X209850000Y-138100000D03*
%TO.P,J1,24,Pin_24*%
%TO.N,INDUCTOR_LIMIT_SW_1*%
X210350000Y-138100000D03*
%TO.P,J1,25,Pin_25*%
%TO.N,unconnected-(J1-Pin_25-Pad25)*%
X210850000Y-138100000D03*
%TO.P,J1,26,Pin_26*%
%TO.N,unconnected-(J1-Pin_26-Pad26)*%
X211350000Y-138100000D03*
D15*
%TO.P,J1,MP,MountPin*%
%TO.N,unconnected-(J1-MountPin-PadMP)*%
X197200000Y-134200000D03*
X213000000Y-134200000D03*
%TD*%
D16*
%TO.N,GNDD*%
X99921000Y-111340000D03*
D17*
X164450000Y-128900000D03*
X201670000Y-126440000D03*
D16*
X99921000Y-136330000D03*
D17*
X212800000Y-131600000D03*
X166600000Y-118650000D03*
X198200000Y-128700000D03*
X207700000Y-140750000D03*
D16*
X220921000Y-136330000D03*
D17*
X214000000Y-127350000D03*
X211750000Y-124000000D03*
X115400000Y-121650000D03*
X196900000Y-138100000D03*
X164200000Y-116250000D03*
X139000000Y-128700000D03*
X197900000Y-126150000D03*
X116550000Y-130950000D03*
D16*
X220921000Y-111340000D03*
D17*
X192150000Y-124400000D03*
X211850000Y-126200000D03*
X109550000Y-131150000D03*
X192350000Y-130900000D03*
X129300000Y-117900000D03*
X170700000Y-140550000D03*
X109498900Y-114896400D03*
X191900000Y-119150000D03*
X116050000Y-116600000D03*
%TO.N,+5V*%
X198550000Y-129750000D03*
X199000000Y-139300000D03*
%TO.N,+3V3*%
X206850000Y-135050000D03*
X206900000Y-114250000D03*
%TO.N,ENCD_1.A*%
X121700000Y-127800000D03*
%TO.N,ENCD_1.B*%
X122700000Y-130400000D03*
%TO.N,ENCD_2.A*%
X106500000Y-126950000D03*
%TO.N,ENCD_2.B*%
X107700000Y-128650000D03*
%TO.N,ENCD_3.A*%
X114100000Y-129850000D03*
%TO.N,ENCD_3.B*%
X114150000Y-131250000D03*
%TO.N,LED_M0_PANEL*%
X205250000Y-135150000D03*
X205400000Y-117750000D03*
%TO.N,LED_M1_PANEL*%
X204600000Y-117100000D03*
X204500000Y-134450000D03*
%TO.N,LED_PWR_PANEL*%
X206100000Y-136000000D03*
X202100000Y-111500000D03*
%TO.N,LED_M2_PANEL*%
X203850000Y-116300000D03*
X203850000Y-133250000D03*
%TO.N,LED_M3_PANEL*%
X203200000Y-133900000D03*
X201200000Y-115650000D03*
%TO.N,INDUCTOR_LIMIT_SW_1*%
X210950000Y-130450000D03*
X211950000Y-127750000D03*
%TO.N,INDUCTOR_LIMIT_SW_2*%
X200850000Y-127950000D03*
X209850000Y-129900000D03*
X210550000Y-127950000D03*
%TO.N,INDUCTOR_LIMIT_SW_3*%
X208950000Y-130450000D03*
%TO.N,INDUCTOR_LIMIT_SW_4*%
X212950000Y-128850000D03*
%TO.N,/limit_switch_power*%
X207650000Y-128850000D03*
%TO.N,LED_STATE_PANEL*%
X202500000Y-134700000D03*
X199300000Y-114950000D03*
%TD*%
D18*
%TO.N,GNDD*%
X196900000Y-138100000D02*
X198850000Y-138100000D01*
D19*
%TO.N,+5V*%
X199000000Y-139300000D02*
X108300000Y-139300000D01*
X104800000Y-127050000D02*
X104800000Y-126000000D01*
X106150000Y-128400000D02*
X104800000Y-127050000D01*
X199350000Y-138950000D02*
X199000000Y-139300000D01*
X108300000Y-139300000D02*
X106150000Y-137150000D01*
X104800000Y-126000000D02*
X119748900Y-126000000D01*
X199350000Y-138100000D02*
X199350000Y-138950000D01*
X106150000Y-137150000D02*
X106150000Y-128400000D01*
X201725000Y-130475000D02*
X202650000Y-130475000D01*
X201000000Y-129750000D02*
X201725000Y-130475000D01*
X198550000Y-129750000D02*
X201000000Y-129750000D01*
%TO.N,+3V3*%
X180250000Y-110600000D02*
X180000000Y-110850000D01*
X180100000Y-110600000D02*
X147100000Y-110600000D01*
X206900000Y-114250000D02*
X195450000Y-114250000D01*
X147000000Y-110600000D02*
X147100000Y-110600000D01*
X194900000Y-110600000D02*
X180100000Y-110600000D01*
X146780000Y-110820000D02*
X147000000Y-110600000D01*
X206900000Y-112000000D02*
X206400000Y-111500000D01*
X130500000Y-110600000D02*
X130200000Y-110900000D01*
D18*
X206350000Y-137200000D02*
X206350000Y-138100000D01*
D19*
X180000000Y-110850000D02*
X180000000Y-112500000D01*
X130200000Y-110900000D02*
X130200000Y-112500000D01*
D20*
X206850000Y-134300000D02*
X206850000Y-135050000D01*
D19*
X163340000Y-112520000D02*
X163340000Y-110760000D01*
X206900000Y-114250000D02*
X206900000Y-112000000D01*
X194900000Y-113700000D02*
X194900000Y-111500000D01*
D20*
X204500000Y-131950000D02*
X206850000Y-134300000D01*
D19*
X146780000Y-112520000D02*
X146780000Y-110820000D01*
D18*
X206850000Y-135050000D02*
X206850000Y-136700000D01*
X206850000Y-136700000D02*
X206350000Y-137200000D01*
D20*
X204500000Y-130475000D02*
X204500000Y-131950000D01*
D19*
X195450000Y-114250000D02*
X194900000Y-113700000D01*
X147100000Y-110600000D02*
X130500000Y-110600000D01*
D21*
%TO.N,ENCD_1.A*%
X201150000Y-130750000D02*
X201850000Y-131450000D01*
X121700000Y-127800000D02*
X123650000Y-129750000D01*
X123650000Y-129750000D02*
X193200000Y-129750000D01*
X194200000Y-130750000D02*
X201150000Y-130750000D01*
X201850000Y-131450000D02*
X201850000Y-136050000D01*
X201850000Y-136050000D02*
X202350000Y-136550000D01*
X193200000Y-129750000D02*
X194200000Y-130750000D01*
X202350000Y-136550000D02*
X202350000Y-138100000D01*
D18*
%TO.N,ENCD_1.B*%
X122850000Y-130250000D02*
X192850000Y-130250000D01*
X201850000Y-136700000D02*
X201850000Y-138100000D01*
X193950000Y-131350000D02*
X200850000Y-131350000D01*
X201300000Y-136150000D02*
X201850000Y-136700000D01*
X192850000Y-130250000D02*
X193950000Y-131350000D01*
X200850000Y-131350000D02*
X201300000Y-131800000D01*
X122700000Y-130400000D02*
X122850000Y-130250000D01*
X201300000Y-131800000D02*
X201300000Y-136150000D01*
%TO.N,ENCD_2.A*%
X200250000Y-131800000D02*
X200700000Y-132250000D01*
X115700000Y-127750000D02*
X119750000Y-131800000D01*
X201350000Y-136800000D02*
X201350000Y-138100000D01*
X200700000Y-132250000D02*
X200700000Y-136150000D01*
X119750000Y-131800000D02*
X200250000Y-131800000D01*
X106500000Y-126950000D02*
X107300000Y-127750000D01*
X200700000Y-136150000D02*
X201350000Y-136800000D01*
X107300000Y-127750000D02*
X115700000Y-127750000D01*
%TO.N,ENCD_2.B*%
X107700000Y-128650000D02*
X107900000Y-128450000D01*
X115300000Y-128450000D02*
X119150000Y-132300000D01*
X200200000Y-136250000D02*
X200850000Y-136900000D01*
X119150000Y-132300000D02*
X199800000Y-132300000D01*
X107900000Y-128450000D02*
X115300000Y-128450000D01*
X199800000Y-132300000D02*
X200200000Y-132700000D01*
X200200000Y-132700000D02*
X200200000Y-136250000D01*
X200850000Y-136900000D02*
X200850000Y-138100000D01*
D21*
%TO.N,ENCD_3.A*%
X195200000Y-135850000D02*
X199025000Y-135850000D01*
X118100000Y-133850000D02*
X193200000Y-133850000D01*
X200350000Y-137175000D02*
X200350000Y-138100000D01*
X114100000Y-129850000D02*
X118100000Y-133850000D01*
X193200000Y-133850000D02*
X195200000Y-135850000D01*
X199025000Y-135850000D02*
X200350000Y-137175000D01*
D18*
%TO.N,ENCD_3.B*%
X117350000Y-134450000D02*
X192550000Y-134450000D01*
X199850000Y-137400000D02*
X199850000Y-138100000D01*
X192550000Y-134450000D02*
X194550000Y-136450000D01*
X198900000Y-136450000D02*
X199850000Y-137400000D01*
X194550000Y-136450000D02*
X198900000Y-136450000D01*
X114150000Y-131250000D02*
X117350000Y-134450000D01*
%TO.N,LED_M0_PANEL*%
X205250000Y-135150000D02*
X205350000Y-135250000D01*
D21*
X147200000Y-117800000D02*
X142700000Y-113300000D01*
X205350000Y-117800000D02*
X147200000Y-117800000D01*
D18*
X205350000Y-135250000D02*
X205350000Y-138100000D01*
D21*
X142700000Y-113300000D02*
X135400000Y-113300000D01*
X205400000Y-117750000D02*
X205350000Y-117800000D01*
%TO.N,LED_M1_PANEL*%
X204550000Y-117150000D02*
X162950000Y-117150000D01*
D18*
X204500000Y-134450000D02*
X204500000Y-135700000D01*
D21*
X162950000Y-117150000D02*
X158320000Y-112520000D01*
D18*
X204850000Y-136050000D02*
X204850000Y-138100000D01*
D21*
X204600000Y-117100000D02*
X204550000Y-117150000D01*
D18*
X204500000Y-135700000D02*
X204850000Y-136050000D01*
D21*
X158320000Y-112520000D02*
X151980000Y-112520000D01*
D18*
%TO.N,LED_PWR_PANEL*%
X205850000Y-136250000D02*
X205850000Y-138100000D01*
X206100000Y-136000000D02*
X205850000Y-136250000D01*
D21*
X202100000Y-111500000D02*
X200100000Y-111500000D01*
%TO.N,LED_M2_PANEL*%
X178650000Y-116300000D02*
X175670000Y-113320000D01*
D18*
X204350000Y-136350000D02*
X204350000Y-138100000D01*
X203850000Y-133250000D02*
X203850000Y-135850000D01*
D21*
X175670000Y-113320000D02*
X168540000Y-113320000D01*
D18*
X203850000Y-135850000D02*
X204350000Y-136350000D01*
D21*
X203850000Y-116300000D02*
X178650000Y-116300000D01*
D18*
%TO.N,LED_M3_PANEL*%
X203200000Y-133900000D02*
X203200000Y-135900000D01*
X203850000Y-136550000D02*
X203850000Y-138100000D01*
D21*
X201200000Y-115650000D02*
X195600000Y-115650000D01*
X195600000Y-115650000D02*
X193250000Y-113300000D01*
D18*
X203200000Y-135900000D02*
X203850000Y-136550000D01*
D21*
X193250000Y-113300000D02*
X185200000Y-113300000D01*
%TO.N,INDUCTOR_LIMIT_SW_1*%
X195900000Y-122996400D02*
X197996400Y-122996400D01*
X194100000Y-123400000D02*
X194503600Y-122996400D01*
X211950000Y-127750000D02*
X211350000Y-127150000D01*
X211350000Y-127150000D02*
X194500000Y-127150000D01*
D18*
X210350000Y-131050000D02*
X210350000Y-138100000D01*
D21*
X197996400Y-122996400D02*
X198150000Y-123150000D01*
D18*
X210950000Y-130450000D02*
X210350000Y-131050000D01*
D21*
X194503600Y-122996400D02*
X195900000Y-122996400D01*
D18*
X198150000Y-122060000D02*
X198150000Y-123150000D01*
X198150000Y-123150000D02*
X198150000Y-123990000D01*
D21*
X194500000Y-127150000D02*
X194100000Y-126750000D01*
X194100000Y-126750000D02*
X194100000Y-123400000D01*
%TO.N,INDUCTOR_LIMIT_SW_2*%
X202400000Y-122996400D02*
X200353600Y-122996400D01*
X200850000Y-127950000D02*
X210550000Y-127950000D01*
D18*
X200200000Y-123990000D02*
X200200000Y-123150000D01*
X200200000Y-123150000D02*
X200200000Y-122060000D01*
D21*
X200353600Y-122996400D02*
X200200000Y-123150000D01*
D18*
X209850000Y-129900000D02*
X209850000Y-138100000D01*
D21*
%TO.N,INDUCTOR_LIMIT_SW_3*%
X206150000Y-122750000D02*
X206150000Y-122060000D01*
D18*
X208950000Y-130450000D02*
X209350000Y-130850000D01*
D21*
X206396400Y-122996400D02*
X206150000Y-122750000D01*
X208900000Y-122996400D02*
X206396400Y-122996400D01*
D18*
X206150000Y-122060000D02*
X206150000Y-123990000D01*
X209350000Y-130850000D02*
X209350000Y-138100000D01*
D21*
%TO.N,INDUCTOR_LIMIT_SW_4*%
X213053600Y-122996400D02*
X212900000Y-123150000D01*
D18*
X208850000Y-138100000D02*
X208850000Y-132050000D01*
D21*
X208150000Y-129800000D02*
X208150000Y-131350000D01*
X212950000Y-128850000D02*
X209100000Y-128850000D01*
X215400000Y-122996400D02*
X213053600Y-122996400D01*
X209100000Y-128850000D02*
X208150000Y-129800000D01*
D18*
X208850000Y-132050000D02*
X208150000Y-131350000D01*
X212900000Y-123150000D02*
X212900000Y-122060000D01*
X212900000Y-123990000D02*
X212900000Y-123150000D01*
D20*
%TO.N,+12V*%
X207650000Y-131725000D02*
X206350000Y-130425000D01*
D18*
X207350000Y-138100000D02*
X207350000Y-136850000D01*
D20*
X207350000Y-136850000D02*
X207650000Y-136550000D01*
X207650000Y-136550000D02*
X207650000Y-131725000D01*
%TO.N,/limit_switch_power*%
X207650000Y-128850000D02*
X207575000Y-128775000D01*
X204500000Y-128825000D02*
X206300000Y-128825000D01*
X206300000Y-128825000D02*
X206350000Y-128775000D01*
X207575000Y-128775000D02*
X206350000Y-128775000D01*
X207348900Y-124996400D02*
X215400000Y-124996400D01*
X202650000Y-128825000D02*
X204500000Y-128825000D01*
X195900000Y-124996400D02*
X207348900Y-124996400D01*
X208900000Y-124996400D02*
X207348900Y-124996400D01*
D18*
%TO.N,LED_STATE_PANEL*%
X202500000Y-134700000D02*
X202500000Y-136000000D01*
X203350000Y-136850000D02*
X203350000Y-138100000D01*
D21*
X211600000Y-114500000D02*
X211600000Y-111500000D01*
D18*
X202500000Y-136000000D02*
X203350000Y-136850000D01*
D21*
X211150000Y-114950000D02*
X211600000Y-114500000D01*
X199300000Y-114950000D02*
X211150000Y-114950000D01*
%TD*%
%TA.AperFunction,Conductor*%
%TO.N,GNDD*%
G36*
X105975255Y-127169685D02*
G01*
X106015603Y-127211999D01*
X106059491Y-127288015D01*
X106161985Y-127390509D01*
X106161986Y-127390510D01*
X106161988Y-127390511D01*
X106287511Y-127462982D01*
X106287512Y-127462982D01*
X106287515Y-127462984D01*
X106427525Y-127500500D01*
X106496385Y-127500500D01*
X106563424Y-127520185D01*
X106584066Y-127536819D01*
X107015529Y-127968282D01*
X107081718Y-128034471D01*
X107162782Y-128081274D01*
X107213555Y-128094878D01*
X107273214Y-128131241D01*
X107303744Y-128194087D01*
X107295450Y-128263463D01*
X107269145Y-128302330D01*
X107259495Y-128311980D01*
X107259488Y-128311988D01*
X107187017Y-128437511D01*
X107187016Y-128437515D01*
X107149500Y-128577525D01*
X107149500Y-128722475D01*
X107187016Y-128862485D01*
X107187017Y-128862488D01*
X107259488Y-128988011D01*
X107259490Y-128988013D01*
X107259491Y-128988015D01*
X107361985Y-129090509D01*
X107361986Y-129090510D01*
X107361988Y-129090511D01*
X107487511Y-129162982D01*
X107487512Y-129162982D01*
X107487515Y-129162984D01*
X107627525Y-129200500D01*
X107627528Y-129200500D01*
X107772472Y-129200500D01*
X107772475Y-129200500D01*
X107912485Y-129162984D01*
X108038015Y-129090509D01*
X108140509Y-128988015D01*
X108210089Y-128867500D01*
X108260656Y-128819284D01*
X108317476Y-128805500D01*
X115101385Y-128805500D01*
X115168424Y-128825185D01*
X115189066Y-128841819D01*
X118865529Y-132518282D01*
X118931718Y-132584471D01*
X119012782Y-132631274D01*
X119103197Y-132655500D01*
X197461754Y-132655500D01*
X197470849Y-132658170D01*
X197480243Y-132656886D01*
X197503836Y-132667856D01*
X197528793Y-132675185D01*
X197534999Y-132682347D01*
X197543598Y-132686346D01*
X197557515Y-132708332D01*
X197574548Y-132727989D01*
X197576891Y-132738941D01*
X197580968Y-132745382D01*
X197585751Y-132780351D01*
X197585432Y-132826851D01*
X197565288Y-132893753D01*
X197512171Y-132939145D01*
X197461435Y-132950000D01*
X195700000Y-132950000D01*
X194297979Y-134261565D01*
X194235575Y-134292988D01*
X194166088Y-134285685D01*
X194125587Y-134258692D01*
X193424424Y-133557529D01*
X193424422Y-133557527D01*
X193382750Y-133533467D01*
X193341079Y-133509408D01*
X193294598Y-133496954D01*
X193248119Y-133484500D01*
X193248118Y-133484500D01*
X118302757Y-133484500D01*
X118235718Y-133464815D01*
X118215076Y-133448181D01*
X114686819Y-129919924D01*
X114653334Y-129858601D01*
X114650500Y-129832243D01*
X114650500Y-129777527D01*
X114650500Y-129777525D01*
X114612984Y-129637515D01*
X114569378Y-129561988D01*
X114540511Y-129511988D01*
X114540506Y-129511982D01*
X114438017Y-129409493D01*
X114438011Y-129409488D01*
X114312488Y-129337017D01*
X114312489Y-129337017D01*
X114301006Y-129333940D01*
X114172475Y-129299500D01*
X114027525Y-129299500D01*
X113898993Y-129333940D01*
X113887511Y-129337017D01*
X113761988Y-129409488D01*
X113761982Y-129409493D01*
X113659493Y-129511982D01*
X113659488Y-129511988D01*
X113587017Y-129637511D01*
X113587016Y-129637515D01*
X113549500Y-129777525D01*
X113549500Y-129922475D01*
X113586918Y-130062118D01*
X113587017Y-130062488D01*
X113659488Y-130188011D01*
X113659490Y-130188013D01*
X113659491Y-130188015D01*
X113761985Y-130290509D01*
X113761986Y-130290510D01*
X113761988Y-130290511D01*
X113887511Y-130362982D01*
X113887512Y-130362982D01*
X113887515Y-130362984D01*
X114027525Y-130400500D01*
X114082243Y-130400500D01*
X114111683Y-130409144D01*
X114141670Y-130415668D01*
X114146685Y-130419422D01*
X114149282Y-130420185D01*
X114169924Y-130436819D01*
X114220924Y-130487819D01*
X114254409Y-130549142D01*
X114249425Y-130618834D01*
X114207553Y-130674767D01*
X114142089Y-130699184D01*
X114133243Y-130699500D01*
X114077525Y-130699500D01*
X113948993Y-130733940D01*
X113937511Y-130737017D01*
X113811988Y-130809488D01*
X113811982Y-130809493D01*
X113709493Y-130911982D01*
X113709488Y-130911988D01*
X113637017Y-131037511D01*
X113637016Y-131037515D01*
X113599500Y-131177525D01*
X113599500Y-131322475D01*
X113632112Y-131444184D01*
X113637017Y-131462488D01*
X113709488Y-131588011D01*
X113709490Y-131588013D01*
X113709491Y-131588015D01*
X113811985Y-131690509D01*
X113811986Y-131690510D01*
X113811988Y-131690511D01*
X113937511Y-131762982D01*
X113937512Y-131762982D01*
X113937515Y-131762984D01*
X114077525Y-131800500D01*
X114146385Y-131800500D01*
X114213424Y-131820185D01*
X114234066Y-131836819D01*
X117131715Y-134734469D01*
X117131717Y-134734470D01*
X117131718Y-134734471D01*
X117212781Y-134781274D01*
X117303197Y-134805500D01*
X117396802Y-134805500D01*
X192351385Y-134805500D01*
X192418424Y-134825185D01*
X192439066Y-134841819D01*
X194265529Y-136668282D01*
X194331718Y-136734471D01*
X194412782Y-136781274D01*
X194503197Y-136805500D01*
X197433330Y-136805500D01*
X197500369Y-136825185D01*
X197546124Y-136877989D01*
X197557326Y-136930348D01*
X197550000Y-138000000D01*
X198150638Y-138000000D01*
X198217677Y-138019685D01*
X198263432Y-138072489D01*
X198273376Y-138141647D01*
X198244351Y-138205203D01*
X198238319Y-138211681D01*
X198225000Y-138225000D01*
X198225000Y-138697844D01*
X198231925Y-138762244D01*
X198219520Y-138831004D01*
X198171910Y-138882141D01*
X198108636Y-138899500D01*
X108517255Y-138899500D01*
X108450216Y-138879815D01*
X108429574Y-138863181D01*
X106586819Y-137020426D01*
X106553334Y-136959103D01*
X106550500Y-136932745D01*
X106550500Y-130073920D01*
X111523949Y-130073920D01*
X111552790Y-130218907D01*
X111552793Y-130218917D01*
X111609362Y-130355488D01*
X111609369Y-130355501D01*
X111691498Y-130478415D01*
X111691501Y-130478419D01*
X111796030Y-130582948D01*
X111796034Y-130582951D01*
X111918948Y-130665080D01*
X111918961Y-130665087D01*
X112024466Y-130708788D01*
X112055537Y-130721658D01*
X112055541Y-130721658D01*
X112055542Y-130721659D01*
X112200529Y-130750500D01*
X112200532Y-130750500D01*
X112348370Y-130750500D01*
X112445912Y-130731096D01*
X112493363Y-130721658D01*
X112629945Y-130665084D01*
X112752866Y-130582951D01*
X112857401Y-130478416D01*
X112939534Y-130355495D01*
X112996108Y-130218913D01*
X113011745Y-130140301D01*
X113024950Y-130073920D01*
X113024950Y-129926079D01*
X112996109Y-129781092D01*
X112996108Y-129781091D01*
X112996108Y-129781087D01*
X112970000Y-129718056D01*
X112939537Y-129644511D01*
X112939530Y-129644498D01*
X112857401Y-129521584D01*
X112857398Y-129521580D01*
X112752869Y-129417051D01*
X112752865Y-129417048D01*
X112629951Y-129334919D01*
X112629938Y-129334912D01*
X112493367Y-129278343D01*
X112493357Y-129278340D01*
X112348370Y-129249500D01*
X112348368Y-129249500D01*
X112200532Y-129249500D01*
X112200530Y-129249500D01*
X112055542Y-129278340D01*
X112055532Y-129278343D01*
X111918961Y-129334912D01*
X111918948Y-129334919D01*
X111796034Y-129417048D01*
X111796030Y-129417051D01*
X111691501Y-129521580D01*
X111691498Y-129521584D01*
X111609369Y-129644498D01*
X111609362Y-129644511D01*
X111552793Y-129781082D01*
X111552790Y-129781092D01*
X111523950Y-129926079D01*
X111523950Y-129926082D01*
X111523950Y-130073918D01*
X111523950Y-130073920D01*
X111523949Y-130073920D01*
X106550500Y-130073920D01*
X106550500Y-128347275D01*
X106550500Y-128347273D01*
X106523207Y-128245413D01*
X106470480Y-128154087D01*
X106395913Y-128079520D01*
X105678074Y-127361681D01*
X105644589Y-127300358D01*
X105649573Y-127230666D01*
X105691445Y-127174733D01*
X105756909Y-127150316D01*
X105765755Y-127150000D01*
X105908216Y-127150000D01*
X105975255Y-127169685D01*
G37*
%TD.AperFunction*%
%TA.AperFunction,Conductor*%
G36*
X196946541Y-121689388D02*
G01*
X196946543Y-121689388D01*
X196972516Y-121653641D01*
X197062126Y-121477771D01*
X197111571Y-121325599D01*
X197151009Y-121267923D01*
X197215367Y-121240725D01*
X197284214Y-121252640D01*
X197335689Y-121299884D01*
X197348578Y-121329322D01*
X197377592Y-121429188D01*
X197377593Y-121429191D01*
X197459261Y-121567285D01*
X197459268Y-121567294D01*
X197565587Y-121673613D01*
X197599072Y-121734936D01*
X197594088Y-121804628D01*
X197590761Y-121812368D01*
X197590419Y-121813476D01*
X197590418Y-121813481D01*
X197590418Y-121813482D01*
X197579500Y-121888418D01*
X197579500Y-122231582D01*
X197590418Y-122306518D01*
X197590418Y-122306519D01*
X197590419Y-122306521D01*
X197646921Y-122422099D01*
X197652893Y-122430463D01*
X197650940Y-122431856D01*
X197677525Y-122480542D01*
X197672541Y-122550234D01*
X197630669Y-122606167D01*
X197565205Y-122630584D01*
X197556359Y-122630900D01*
X197024000Y-122630900D01*
X196956961Y-122611215D01*
X196911206Y-122558411D01*
X196900000Y-122506900D01*
X196900000Y-122050000D01*
X196651410Y-122050000D01*
X196584371Y-122030315D01*
X196563729Y-122013681D01*
X196029410Y-121479362D01*
X196092993Y-121462325D01*
X196207007Y-121396499D01*
X196300099Y-121303407D01*
X196365925Y-121189393D01*
X196382962Y-121125809D01*
X196946541Y-121689388D01*
G37*
%TD.AperFunction*%
%TA.AperFunction,Conductor*%
G36*
X201934075Y-121189393D02*
G01*
X201999901Y-121303407D01*
X202092993Y-121396499D01*
X202207007Y-121462325D01*
X202270590Y-121479362D01*
X201786272Y-121963681D01*
X201724949Y-121997166D01*
X201698591Y-122000000D01*
X201400000Y-122000000D01*
X201400000Y-122506900D01*
X201380315Y-122573939D01*
X201327511Y-122619694D01*
X201276000Y-122630900D01*
X200793641Y-122630900D01*
X200726602Y-122611215D01*
X200680847Y-122558411D01*
X200670903Y-122489253D01*
X200697592Y-122430809D01*
X200697107Y-122430463D01*
X200698895Y-122427958D01*
X200699928Y-122425697D01*
X200702423Y-122423017D01*
X200703078Y-122422099D01*
X200731329Y-122364310D01*
X200759582Y-122306518D01*
X200770500Y-122231582D01*
X200770500Y-121888418D01*
X200759582Y-121813482D01*
X200759580Y-121813479D01*
X200759580Y-121813475D01*
X200756739Y-121804279D01*
X200758635Y-121803692D01*
X200748932Y-121746897D01*
X200776267Y-121682596D01*
X200784412Y-121673612D01*
X200890734Y-121567290D01*
X200890738Y-121567285D01*
X200972405Y-121429193D01*
X200977816Y-121410568D01*
X201015420Y-121351681D01*
X201078892Y-121322472D01*
X201148079Y-121332215D01*
X201201015Y-121377817D01*
X201214825Y-121406838D01*
X201237874Y-121477774D01*
X201327483Y-121653639D01*
X201353457Y-121689388D01*
X201353457Y-121689389D01*
X201917037Y-121125809D01*
X201934075Y-121189393D01*
G37*
%TD.AperFunction*%
%TA.AperFunction,Conductor*%
G36*
X162882539Y-111020185D02*
G01*
X162928294Y-111072989D01*
X162939500Y-111124500D01*
X162939500Y-111645500D01*
X162919815Y-111712539D01*
X162867011Y-111758294D01*
X162815500Y-111769500D01*
X162615323Y-111769500D01*
X162542264Y-111784032D01*
X162542260Y-111784033D01*
X162459399Y-111839399D01*
X162404033Y-111922260D01*
X162404032Y-111922264D01*
X162389500Y-111995321D01*
X162389500Y-114644678D01*
X162404032Y-114717735D01*
X162404033Y-114717739D01*
X162408500Y-114724424D01*
X162459399Y-114800601D01*
X162538321Y-114853334D01*
X162542260Y-114855966D01*
X162542264Y-114855967D01*
X162615321Y-114870499D01*
X162615324Y-114870500D01*
X162615326Y-114870500D01*
X163939138Y-114870500D01*
X164006177Y-114890185D01*
X164026819Y-114906819D01*
X164040000Y-114920000D01*
X167840000Y-114920000D01*
X167853181Y-114906819D01*
X167914504Y-114873334D01*
X167940862Y-114870500D01*
X169264676Y-114870500D01*
X169264677Y-114870499D01*
X169337740Y-114855966D01*
X169420601Y-114800601D01*
X169475966Y-114717740D01*
X169490500Y-114644674D01*
X169490500Y-113809500D01*
X169510185Y-113742461D01*
X169562989Y-113696706D01*
X169614500Y-113685500D01*
X175467243Y-113685500D01*
X175534282Y-113705185D01*
X175554924Y-113721819D01*
X178405923Y-116572819D01*
X178439408Y-116634142D01*
X178434424Y-116703834D01*
X178392552Y-116759767D01*
X178327088Y-116784184D01*
X178318242Y-116784500D01*
X163152757Y-116784500D01*
X163085718Y-116764815D01*
X163065076Y-116748181D01*
X158544424Y-112227529D01*
X158544422Y-112227527D01*
X158502750Y-112203467D01*
X158461079Y-112179408D01*
X158395322Y-112161789D01*
X158368119Y-112154500D01*
X158368118Y-112154500D01*
X153054500Y-112154500D01*
X152987461Y-112134815D01*
X152941706Y-112082011D01*
X152930500Y-112030500D01*
X152930500Y-111995323D01*
X152930499Y-111995321D01*
X152915967Y-111922264D01*
X152915966Y-111922260D01*
X152902605Y-111902264D01*
X152860601Y-111839399D01*
X152777740Y-111784034D01*
X152777739Y-111784033D01*
X152777735Y-111784032D01*
X152704677Y-111769500D01*
X152704674Y-111769500D01*
X151380862Y-111769500D01*
X151313823Y-111749815D01*
X151293181Y-111733181D01*
X151280000Y-111720000D01*
X147480000Y-111720000D01*
X147466819Y-111733181D01*
X147439891Y-111747884D01*
X147414073Y-111764477D01*
X147407872Y-111765368D01*
X147405496Y-111766666D01*
X147379138Y-111769500D01*
X147304500Y-111769500D01*
X147237461Y-111749815D01*
X147191706Y-111697011D01*
X147180500Y-111645500D01*
X147180500Y-111124500D01*
X147200185Y-111057461D01*
X147252989Y-111011706D01*
X147304500Y-111000500D01*
X162815500Y-111000500D01*
X162882539Y-111020185D01*
G37*
%TD.AperFunction*%
%TA.AperFunction,Conductor*%
G36*
X224003471Y-107254695D02*
G01*
X224039829Y-107256736D01*
X224300454Y-107271373D01*
X224314253Y-107272927D01*
X224604064Y-107322168D01*
X224617620Y-107325262D01*
X224900092Y-107406641D01*
X224913218Y-107411234D01*
X225184800Y-107523727D01*
X225197314Y-107529753D01*
X225394633Y-107638808D01*
X225454598Y-107671950D01*
X225466372Y-107679348D01*
X225706110Y-107849451D01*
X225716982Y-107858121D01*
X225936169Y-108053997D01*
X225946002Y-108063830D01*
X226141878Y-108283017D01*
X226150548Y-108293889D01*
X226320651Y-108533627D01*
X226328049Y-108545401D01*
X226470242Y-108802678D01*
X226476275Y-108815206D01*
X226588765Y-109086782D01*
X226593358Y-109099907D01*
X226674737Y-109382379D01*
X226677831Y-109395936D01*
X226727070Y-109685735D01*
X226728627Y-109699553D01*
X226745305Y-109996527D01*
X226745500Y-110003480D01*
X226745500Y-112137574D01*
X226725815Y-112204613D01*
X226673011Y-112250368D01*
X226603853Y-112260312D01*
X226566046Y-112248483D01*
X225168754Y-111549837D01*
X225150755Y-111540837D01*
X225144163Y-111534245D01*
X225105742Y-111518330D01*
X225101792Y-111516355D01*
X225101790Y-111516353D01*
X225068542Y-111499730D01*
X225059651Y-111497296D01*
X225050624Y-111495500D01*
X225050623Y-111495500D01*
X225050621Y-111495500D01*
X225013437Y-111495500D01*
X225004647Y-111495188D01*
X225001262Y-111494947D01*
X224967544Y-111492550D01*
X224958694Y-111495500D01*
X224949377Y-111495500D01*
X224910972Y-111511406D01*
X224906798Y-111512798D01*
X224906790Y-111512802D01*
X224871493Y-111524568D01*
X224863498Y-111529125D01*
X224855834Y-111534246D01*
X224829524Y-111560554D01*
X224829525Y-111560555D01*
X224826411Y-111563668D01*
X224795008Y-111590906D01*
X224790839Y-111599241D01*
X224784245Y-111605836D01*
X224784243Y-111605838D01*
X224770008Y-111640200D01*
X224770009Y-111640201D01*
X224768319Y-111644279D01*
X224749729Y-111681463D01*
X224749068Y-111690759D01*
X224745501Y-111699372D01*
X224745500Y-111699377D01*
X224745500Y-111736561D01*
X224745188Y-111745352D01*
X224742551Y-111782453D01*
X224744079Y-111794572D01*
X224742789Y-111794734D01*
X224745500Y-111811424D01*
X224745500Y-121208698D01*
X224742551Y-121217545D01*
X224745500Y-121259036D01*
X224745500Y-121300621D01*
X224745501Y-121300628D01*
X224749068Y-121309240D01*
X224749729Y-121318537D01*
X224768315Y-121355711D01*
X224770000Y-121359778D01*
X224770006Y-121359790D01*
X224784245Y-121394163D01*
X224784245Y-121394164D01*
X224790839Y-121400758D01*
X224795008Y-121409094D01*
X224826419Y-121436337D01*
X224855837Y-121465755D01*
X224864451Y-121469323D01*
X224871495Y-121475432D01*
X224910957Y-121488586D01*
X224949377Y-121504500D01*
X224949383Y-121504500D01*
X224958432Y-121506300D01*
X224967542Y-121507449D01*
X224967544Y-121507448D01*
X224967545Y-121507449D01*
X225004646Y-121504812D01*
X225004647Y-121504812D01*
X225009037Y-121504500D01*
X225050623Y-121504500D01*
X225059234Y-121500932D01*
X225067882Y-121500317D01*
X225068537Y-121500271D01*
X225101789Y-121483644D01*
X225109781Y-121479995D01*
X225144163Y-121465755D01*
X225144166Y-121465751D01*
X225154321Y-121458967D01*
X225155044Y-121460049D01*
X225168757Y-121450159D01*
X226566048Y-120751514D01*
X226634811Y-120739140D01*
X226699350Y-120765908D01*
X226739172Y-120823318D01*
X226745500Y-120862424D01*
X226745500Y-127887574D01*
X226725815Y-127954613D01*
X226673011Y-128000368D01*
X226603853Y-128010312D01*
X226566046Y-127998483D01*
X225168754Y-127299837D01*
X225150755Y-127290837D01*
X225144163Y-127284245D01*
X225105742Y-127268330D01*
X225101792Y-127266355D01*
X225101790Y-127266353D01*
X225068542Y-127249730D01*
X225059651Y-127247296D01*
X225050624Y-127245500D01*
X225050623Y-127245500D01*
X225050621Y-127245500D01*
X225013437Y-127245500D01*
X225004647Y-127245188D01*
X225001262Y-127244947D01*
X224967544Y-127242550D01*
X224958694Y-127245500D01*
X224949377Y-127245500D01*
X224910972Y-127261406D01*
X224906798Y-127262798D01*
X224906790Y-127262802D01*
X224871493Y-127274568D01*
X224863498Y-127279125D01*
X224855834Y-127284246D01*
X224829524Y-127310554D01*
X224829525Y-127310555D01*
X224826411Y-127313668D01*
X224795008Y-127340906D01*
X224790839Y-127349241D01*
X224784245Y-127355836D01*
X224784243Y-127355838D01*
X224770008Y-127390200D01*
X224770009Y-127390201D01*
X224768319Y-127394279D01*
X224749729Y-127431463D01*
X224749068Y-127440759D01*
X224745501Y-127449372D01*
X224745500Y-127449377D01*
X224745500Y-127486561D01*
X224745188Y-127495352D01*
X224742551Y-127532453D01*
X224744079Y-127544572D01*
X224742789Y-127544734D01*
X224745500Y-127561424D01*
X224745500Y-136958698D01*
X224742551Y-136967545D01*
X224745500Y-137009036D01*
X224745500Y-137050621D01*
X224745501Y-137050628D01*
X224749068Y-137059240D01*
X224749729Y-137068537D01*
X224768315Y-137105711D01*
X224770000Y-137109778D01*
X224770006Y-137109790D01*
X224784245Y-137144163D01*
X224784245Y-137144164D01*
X224790839Y-137150758D01*
X224795008Y-137159094D01*
X224826419Y-137186337D01*
X224855837Y-137215755D01*
X224864451Y-137219323D01*
X224871495Y-137225432D01*
X224910957Y-137238586D01*
X224949377Y-137254500D01*
X224949383Y-137254500D01*
X224958432Y-137256300D01*
X224967542Y-137257449D01*
X224967544Y-137257448D01*
X224967545Y-137257449D01*
X225004646Y-137254812D01*
X225004647Y-137254812D01*
X225009037Y-137254500D01*
X225050623Y-137254500D01*
X225059234Y-137250932D01*
X225067882Y-137250317D01*
X225068537Y-137250271D01*
X225101789Y-137233644D01*
X225109781Y-137229995D01*
X225144163Y-137215755D01*
X225144166Y-137215751D01*
X225154321Y-137208967D01*
X225155044Y-137210049D01*
X225168757Y-137200159D01*
X226566048Y-136501514D01*
X226634811Y-136489140D01*
X226699350Y-136515908D01*
X226739172Y-136573318D01*
X226745500Y-136612424D01*
X226745500Y-138996519D01*
X226745305Y-139003472D01*
X226728627Y-139300446D01*
X226727070Y-139314264D01*
X226677831Y-139604063D01*
X226674737Y-139617620D01*
X226593358Y-139900092D01*
X226588765Y-139913217D01*
X226476275Y-140184793D01*
X226470242Y-140197321D01*
X226328049Y-140454598D01*
X226320651Y-140466372D01*
X226150548Y-140706110D01*
X226141878Y-140716982D01*
X225946002Y-140936169D01*
X225936169Y-140946002D01*
X225716982Y-141141878D01*
X225706110Y-141150548D01*
X225466372Y-141320651D01*
X225454598Y-141328049D01*
X225197321Y-141470242D01*
X225184793Y-141476275D01*
X224913217Y-141588765D01*
X224900092Y-141593358D01*
X224617620Y-141674737D01*
X224604063Y-141677831D01*
X224314264Y-141727070D01*
X224300446Y-141728627D01*
X224003472Y-141745305D01*
X223996519Y-141745500D01*
X97003481Y-141745500D01*
X96996528Y-141745305D01*
X96699553Y-141728627D01*
X96685735Y-141727070D01*
X96395936Y-141677831D01*
X96382379Y-141674737D01*
X96099907Y-141593358D01*
X96086782Y-141588765D01*
X95815206Y-141476275D01*
X95802678Y-141470242D01*
X95545401Y-141328049D01*
X95533627Y-141320651D01*
X95293889Y-141150548D01*
X95283017Y-141141878D01*
X95063830Y-140946002D01*
X95053997Y-140936169D01*
X94858121Y-140716982D01*
X94849451Y-140706110D01*
X94679348Y-140466372D01*
X94671950Y-140454598D01*
X94529757Y-140197321D01*
X94523727Y-140184800D01*
X94411234Y-139913217D01*
X94406641Y-139900092D01*
X94325262Y-139617620D01*
X94322168Y-139604063D01*
X94306155Y-139509815D01*
X94272927Y-139314253D01*
X94271373Y-139300454D01*
X94254695Y-139003471D01*
X94254500Y-138996519D01*
X94254500Y-136612425D01*
X94274185Y-136545386D01*
X94326989Y-136499631D01*
X94396147Y-136489687D01*
X94433954Y-136501516D01*
X95849242Y-137209160D01*
X95855837Y-137215755D01*
X95894267Y-137231673D01*
X95931463Y-137250271D01*
X95933836Y-137250439D01*
X95940763Y-137250931D01*
X95949377Y-137254500D01*
X95990964Y-137254500D01*
X96032455Y-137257449D01*
X96041302Y-137254500D01*
X96050623Y-137254500D01*
X96089040Y-137238587D01*
X96128506Y-137225432D01*
X96128507Y-137225430D01*
X96136495Y-137220877D01*
X96144153Y-137215758D01*
X96144163Y-137215755D01*
X96173577Y-137186340D01*
X96204992Y-137159094D01*
X96209160Y-137150757D01*
X96215755Y-137144163D01*
X96221010Y-137131475D01*
X96229994Y-137109787D01*
X96229994Y-137109786D01*
X96231674Y-137105729D01*
X96250271Y-137068537D01*
X96250931Y-137059237D01*
X96254500Y-137050623D01*
X96254500Y-137013437D01*
X96254812Y-137004645D01*
X96257449Y-136967542D01*
X96255922Y-136955427D01*
X96257208Y-136955264D01*
X96254500Y-136938575D01*
X96254500Y-127541301D01*
X96257449Y-127532455D01*
X96254500Y-127490963D01*
X96254500Y-127449377D01*
X96254500Y-127449376D01*
X96252703Y-127440348D01*
X96250270Y-127431461D01*
X96243903Y-127418726D01*
X96233643Y-127398207D01*
X96229991Y-127390206D01*
X96223453Y-127374422D01*
X96215755Y-127355837D01*
X96209160Y-127349242D01*
X96204992Y-127340906D01*
X96173577Y-127313659D01*
X96144163Y-127284245D01*
X96144162Y-127284244D01*
X96136508Y-127279129D01*
X96128507Y-127274568D01*
X96093216Y-127262804D01*
X96093216Y-127262803D01*
X96089028Y-127261407D01*
X96050623Y-127245500D01*
X96041304Y-127245500D01*
X96032454Y-127242550D01*
X95998324Y-127244976D01*
X95995354Y-127245188D01*
X95995353Y-127245188D01*
X95990962Y-127245500D01*
X95949377Y-127245500D01*
X95940764Y-127249067D01*
X95931464Y-127249728D01*
X95931461Y-127249729D01*
X95898198Y-127266359D01*
X95890207Y-127270007D01*
X95855835Y-127284245D01*
X95845683Y-127291029D01*
X95844965Y-127289954D01*
X95831248Y-127299836D01*
X94433953Y-127998483D01*
X94365189Y-128010858D01*
X94300650Y-127984090D01*
X94260828Y-127926680D01*
X94254500Y-127887574D01*
X94254500Y-120862425D01*
X94274185Y-120795386D01*
X94326989Y-120749631D01*
X94396147Y-120739687D01*
X94433954Y-120751516D01*
X95849242Y-121459160D01*
X95855837Y-121465755D01*
X95894267Y-121481673D01*
X95931463Y-121500271D01*
X95933836Y-121500439D01*
X95940763Y-121500931D01*
X95949377Y-121504500D01*
X95990964Y-121504500D01*
X96032455Y-121507449D01*
X96041302Y-121504500D01*
X96050623Y-121504500D01*
X96089040Y-121488587D01*
X96128506Y-121475432D01*
X96128507Y-121475430D01*
X96136495Y-121470877D01*
X96144153Y-121465758D01*
X96144163Y-121465755D01*
X96173577Y-121436340D01*
X96204992Y-121409094D01*
X96209160Y-121400757D01*
X96215755Y-121394163D01*
X96222526Y-121377817D01*
X96229994Y-121359787D01*
X96229994Y-121359786D01*
X96231674Y-121355729D01*
X96250271Y-121318537D01*
X96250931Y-121309237D01*
X96254500Y-121300623D01*
X96254500Y-121263437D01*
X96254812Y-121254645D01*
X96257449Y-121217542D01*
X96255922Y-121205427D01*
X96257208Y-121205264D01*
X96254500Y-121188575D01*
X96254500Y-119901302D01*
X103546000Y-119901302D01*
X103546000Y-120098697D01*
X103576876Y-120293646D01*
X103634196Y-120470053D01*
X103636191Y-120539894D01*
X103603947Y-120596052D01*
X103600000Y-120599999D01*
X103600000Y-120600000D01*
X103600000Y-127150000D01*
X104323685Y-127150000D01*
X104390724Y-127169685D01*
X104431071Y-127211998D01*
X104479520Y-127295913D01*
X104479522Y-127295915D01*
X105713181Y-128529574D01*
X105746666Y-128590897D01*
X105749500Y-128617255D01*
X105749500Y-129707756D01*
X105729815Y-129774795D01*
X105677011Y-129820550D01*
X105607853Y-129830494D01*
X105544297Y-129801469D01*
X105510939Y-129755209D01*
X105465085Y-129644507D01*
X105465080Y-129644498D01*
X105382951Y-129521584D01*
X105382948Y-129521580D01*
X105278419Y-129417051D01*
X105278415Y-129417048D01*
X105155501Y-129334919D01*
X105155488Y-129334912D01*
X105018917Y-129278343D01*
X105018907Y-129278340D01*
X104873920Y-129249500D01*
X104873918Y-129249500D01*
X104726082Y-129249500D01*
X104726080Y-129249500D01*
X104581092Y-129278340D01*
X104581082Y-129278343D01*
X104444511Y-129334912D01*
X104444498Y-129334919D01*
X104321584Y-129417048D01*
X104321580Y-129417051D01*
X104217051Y-129521580D01*
X104217048Y-129521584D01*
X104134919Y-129644498D01*
X104134912Y-129644511D01*
X104078343Y-129781082D01*
X104078340Y-129781092D01*
X104049500Y-129926079D01*
X104049500Y-129926082D01*
X104049500Y-130073918D01*
X104049500Y-130073920D01*
X104049499Y-130073920D01*
X104078340Y-130218907D01*
X104078343Y-130218917D01*
X104134912Y-130355488D01*
X104134919Y-130355501D01*
X104217048Y-130478415D01*
X104217051Y-130478419D01*
X104321580Y-130582948D01*
X104321584Y-130582951D01*
X104444498Y-130665080D01*
X104444511Y-130665087D01*
X104550016Y-130708788D01*
X104581087Y-130721658D01*
X104581091Y-130721658D01*
X104581092Y-130721659D01*
X104726079Y-130750500D01*
X104726082Y-130750500D01*
X104873920Y-130750500D01*
X104971462Y-130731096D01*
X105018913Y-130721658D01*
X105155495Y-130665084D01*
X105278416Y-130582951D01*
X105382951Y-130478416D01*
X105465084Y-130355495D01*
X105510939Y-130244790D01*
X105554779Y-130190387D01*
X105621074Y-130168322D01*
X105688773Y-130185601D01*
X105736384Y-130236738D01*
X105749500Y-130292243D01*
X105749500Y-137097273D01*
X105749500Y-137202727D01*
X105759559Y-137240267D01*
X105776793Y-137304589D01*
X105803156Y-137350250D01*
X105829520Y-137395913D01*
X108054087Y-139620480D01*
X108145412Y-139673207D01*
X108247273Y-139700500D01*
X108352727Y-139700500D01*
X198570614Y-139700500D01*
X198637653Y-139720185D01*
X198658295Y-139736819D01*
X198661985Y-139740509D01*
X198661986Y-139740510D01*
X198661988Y-139740511D01*
X198787511Y-139812982D01*
X198787512Y-139812982D01*
X198787515Y-139812984D01*
X198927525Y-139850500D01*
X198927528Y-139850500D01*
X199072472Y-139850500D01*
X199072475Y-139850500D01*
X199212485Y-139812984D01*
X199338015Y-139740509D01*
X199440509Y-139638015D01*
X199512984Y-139512485D01*
X199550500Y-139372475D01*
X199550500Y-139367254D01*
X199559139Y-139337830D01*
X199565653Y-139307854D01*
X199569420Y-139302818D01*
X199570185Y-139300215D01*
X199586792Y-139279599D01*
X199588827Y-139277565D01*
X199588847Y-139277550D01*
X199588845Y-139277548D01*
X199595913Y-139270480D01*
X199670480Y-139195913D01*
X199700358Y-139144163D01*
X199723207Y-139104588D01*
X199750501Y-139002727D01*
X199750501Y-138997969D01*
X199755944Y-138982748D01*
X199769031Y-138964761D01*
X199778026Y-138944425D01*
X199789184Y-138937063D01*
X199797052Y-138926251D01*
X199817785Y-138918195D01*
X199836347Y-138905950D01*
X199857440Y-138902788D01*
X199862179Y-138900947D01*
X199865379Y-138901597D01*
X199872704Y-138900500D01*
X199999676Y-138900500D01*
X200075808Y-138885356D01*
X200124192Y-138885356D01*
X200200323Y-138900500D01*
X200200326Y-138900500D01*
X200499676Y-138900500D01*
X200575808Y-138885356D01*
X200624192Y-138885356D01*
X200700323Y-138900500D01*
X200700326Y-138900500D01*
X200999676Y-138900500D01*
X201075808Y-138885356D01*
X201124192Y-138885356D01*
X201200323Y-138900500D01*
X201200326Y-138900500D01*
X201499676Y-138900500D01*
X201575808Y-138885356D01*
X201624192Y-138885356D01*
X201700323Y-138900500D01*
X201700326Y-138900500D01*
X201999676Y-138900500D01*
X202075808Y-138885356D01*
X202124192Y-138885356D01*
X202200323Y-138900500D01*
X202200326Y-138900500D01*
X202499676Y-138900500D01*
X202575808Y-138885356D01*
X202624192Y-138885356D01*
X202700323Y-138900500D01*
X202700326Y-138900500D01*
X202999676Y-138900500D01*
X203075808Y-138885356D01*
X203124192Y-138885356D01*
X203200323Y-138900500D01*
X203200326Y-138900500D01*
X203499676Y-138900500D01*
X203575808Y-138885356D01*
X203624192Y-138885356D01*
X203700323Y-138900500D01*
X203700326Y-138900500D01*
X203999676Y-138900500D01*
X204075808Y-138885356D01*
X204124192Y-138885356D01*
X204200323Y-138900500D01*
X204200326Y-138900500D01*
X204499676Y-138900500D01*
X204575808Y-138885356D01*
X204624192Y-138885356D01*
X204700323Y-138900500D01*
X204700326Y-138900500D01*
X204999676Y-138900500D01*
X205075808Y-138885356D01*
X205124192Y-138885356D01*
X205200323Y-138900500D01*
X205200326Y-138900500D01*
X205499676Y-138900500D01*
X205575808Y-138885356D01*
X205624192Y-138885356D01*
X205700323Y-138900500D01*
X205700326Y-138900500D01*
X205999676Y-138900500D01*
X206075808Y-138885356D01*
X206079805Y-138885240D01*
X206081807Y-138884315D01*
X206097989Y-138884712D01*
X206117101Y-138884158D01*
X206126516Y-138885468D01*
X206127260Y-138885966D01*
X206200326Y-138900500D01*
X206234465Y-138900500D01*
X206242975Y-138901685D01*
X206267304Y-138912665D01*
X206292913Y-138920185D01*
X206301331Y-138928022D01*
X206306659Y-138930427D01*
X206310848Y-138936883D01*
X206325141Y-138950189D01*
X206367809Y-139007186D01*
X206367814Y-139007191D01*
X206482906Y-139093350D01*
X206482913Y-139093354D01*
X206617620Y-139143596D01*
X206617627Y-139143598D01*
X206677155Y-139149999D01*
X206677172Y-139150000D01*
X206725000Y-139150000D01*
X206725000Y-138685841D01*
X206726490Y-138680767D01*
X206725500Y-138680767D01*
X206725500Y-138224000D01*
X206745185Y-138156961D01*
X206797989Y-138111206D01*
X206849500Y-138100000D01*
X206850500Y-138100000D01*
X206917539Y-138119685D01*
X206963294Y-138172489D01*
X206974500Y-138224000D01*
X206974500Y-138675673D01*
X206975000Y-138685841D01*
X206975000Y-139150000D01*
X207022828Y-139150000D01*
X207022844Y-139149999D01*
X207082372Y-139143598D01*
X207082379Y-139143596D01*
X207217086Y-139093354D01*
X207217089Y-139093352D01*
X207275688Y-139049485D01*
X207341152Y-139025067D01*
X207409425Y-139039918D01*
X207424312Y-139049485D01*
X207482910Y-139093352D01*
X207482913Y-139093354D01*
X207617620Y-139143596D01*
X207617627Y-139143598D01*
X207677155Y-139149999D01*
X207677172Y-139150000D01*
X207725000Y-139150000D01*
X207725000Y-138685841D01*
X207726490Y-138680767D01*
X207725500Y-138680767D01*
X207725500Y-138224000D01*
X207745185Y-138156961D01*
X207797989Y-138111206D01*
X207849500Y-138100000D01*
X207850500Y-138100000D01*
X207917539Y-138119685D01*
X207963294Y-138172489D01*
X207974500Y-138224000D01*
X207974500Y-138675673D01*
X207975000Y-138685841D01*
X207975000Y-139150000D01*
X208022828Y-139150000D01*
X208022844Y-139149999D01*
X208082372Y-139143598D01*
X208082379Y-139143596D01*
X208217086Y-139093354D01*
X208217093Y-139093350D01*
X208332185Y-139007191D01*
X208332190Y-139007186D01*
X208374859Y-138950189D01*
X208399640Y-138931638D01*
X208423117Y-138911478D01*
X208427965Y-138910434D01*
X208430793Y-138908318D01*
X208457025Y-138901685D01*
X208465535Y-138900500D01*
X208499674Y-138900500D01*
X208572740Y-138885966D01*
X208573483Y-138885468D01*
X208582899Y-138884158D01*
X208590976Y-138885356D01*
X208624192Y-138885356D01*
X208700323Y-138900500D01*
X208700326Y-138900500D01*
X208999676Y-138900500D01*
X209075808Y-138885356D01*
X209124192Y-138885356D01*
X209200323Y-138900500D01*
X209200326Y-138900500D01*
X209499676Y-138900500D01*
X209575808Y-138885356D01*
X209624192Y-138885356D01*
X209700323Y-138900500D01*
X209700326Y-138900500D01*
X209999676Y-138900500D01*
X210075808Y-138885356D01*
X210124192Y-138885356D01*
X210200323Y-138900500D01*
X210200326Y-138900500D01*
X210499676Y-138900500D01*
X210575808Y-138885356D01*
X210624192Y-138885356D01*
X210700323Y-138900500D01*
X210700326Y-138900500D01*
X210999676Y-138900500D01*
X211075808Y-138885356D01*
X211124192Y-138885356D01*
X211200323Y-138900500D01*
X211200326Y-138900500D01*
X211499676Y-138900500D01*
X211499677Y-138900499D01*
X211572740Y-138885966D01*
X211655601Y-138830601D01*
X211710966Y-138747740D01*
X211725500Y-138674674D01*
X211725500Y-137525326D01*
X211725500Y-137525323D01*
X211725499Y-137525321D01*
X211710967Y-137452264D01*
X211710966Y-137452260D01*
X211655601Y-137369399D01*
X211572740Y-137314034D01*
X211572739Y-137314033D01*
X211572735Y-137314032D01*
X211499677Y-137299500D01*
X211499674Y-137299500D01*
X211200326Y-137299500D01*
X211124190Y-137314644D01*
X211075810Y-137314644D01*
X210999674Y-137299500D01*
X210829500Y-137299500D01*
X210762461Y-137279815D01*
X210716706Y-137227011D01*
X210705500Y-137175500D01*
X210705500Y-136074000D01*
X210725185Y-136006961D01*
X210777989Y-135961206D01*
X210829500Y-135950000D01*
X211300000Y-135950000D01*
X211300000Y-133425321D01*
X211899500Y-133425321D01*
X211899500Y-134974678D01*
X211914032Y-135047735D01*
X211914033Y-135047739D01*
X211914034Y-135047740D01*
X211969399Y-135130601D01*
X212052260Y-135185966D01*
X212052264Y-135185967D01*
X212125321Y-135200499D01*
X212125324Y-135200500D01*
X212125326Y-135200500D01*
X213874676Y-135200500D01*
X213874677Y-135200499D01*
X213947740Y-135185966D01*
X214030601Y-135130601D01*
X214085966Y-135047740D01*
X214100500Y-134974674D01*
X214100500Y-133425326D01*
X214100500Y-133425323D01*
X214100499Y-133425321D01*
X214085967Y-133352264D01*
X214085966Y-133352260D01*
X214030601Y-133269399D01*
X213947740Y-133214034D01*
X213947739Y-133214033D01*
X213947735Y-133214032D01*
X213874677Y-133199500D01*
X213874674Y-133199500D01*
X212125326Y-133199500D01*
X212125323Y-133199500D01*
X212052264Y-133214032D01*
X212052260Y-133214033D01*
X211969399Y-133269399D01*
X211914033Y-133352260D01*
X211914032Y-133352264D01*
X211899500Y-133425321D01*
X211300000Y-133425321D01*
X211300000Y-131124000D01*
X211319685Y-131056961D01*
X211372489Y-131011206D01*
X211424000Y-131000000D01*
X213450000Y-131000000D01*
X213450000Y-129118199D01*
X213453709Y-129088098D01*
X213457926Y-129071244D01*
X213458460Y-129070320D01*
X214649499Y-129070320D01*
X214678340Y-129215307D01*
X214678343Y-129215317D01*
X214734912Y-129351888D01*
X214734919Y-129351901D01*
X214817048Y-129474815D01*
X214817051Y-129474819D01*
X214921580Y-129579348D01*
X214921584Y-129579351D01*
X215044498Y-129661480D01*
X215044511Y-129661487D01*
X215181082Y-129718056D01*
X215181087Y-129718058D01*
X215181091Y-129718058D01*
X215181092Y-129718059D01*
X215326079Y-129746900D01*
X215326082Y-129746900D01*
X215473920Y-129746900D01*
X215571462Y-129727496D01*
X215618913Y-129718058D01*
X215755495Y-129661484D01*
X215878416Y-129579351D01*
X215982951Y-129474816D01*
X216065084Y-129351895D01*
X216067050Y-129347150D01*
X216082648Y-129309491D01*
X216121658Y-129215313D01*
X216142666Y-129109701D01*
X216150500Y-129070320D01*
X216150500Y-128922479D01*
X216121659Y-128777492D01*
X216121658Y-128777491D01*
X216121658Y-128777487D01*
X216113358Y-128757449D01*
X216065087Y-128640911D01*
X216065080Y-128640898D01*
X215982951Y-128517984D01*
X215982948Y-128517980D01*
X215878419Y-128413451D01*
X215878415Y-128413448D01*
X215755501Y-128331319D01*
X215755488Y-128331312D01*
X215618917Y-128274743D01*
X215618907Y-128274740D01*
X215473920Y-128245900D01*
X215473918Y-128245900D01*
X215326082Y-128245900D01*
X215326080Y-128245900D01*
X215181092Y-128274740D01*
X215181082Y-128274743D01*
X215044511Y-128331312D01*
X215044498Y-128331319D01*
X214921584Y-128413448D01*
X214921580Y-128413451D01*
X214817051Y-128517980D01*
X214817048Y-128517984D01*
X214734919Y-128640898D01*
X214734912Y-128640911D01*
X214678343Y-128777482D01*
X214678340Y-128777492D01*
X214649500Y-128922479D01*
X214649500Y-128922482D01*
X214649500Y-129070318D01*
X214649500Y-129070320D01*
X214649499Y-129070320D01*
X213458460Y-129070320D01*
X213462984Y-129062485D01*
X213500500Y-128922475D01*
X213500500Y-128777525D01*
X213462984Y-128637515D01*
X213462982Y-128637511D01*
X213459873Y-128630005D01*
X213462605Y-128628873D01*
X213450000Y-128581800D01*
X213450000Y-127200000D01*
X212034399Y-127200000D01*
X212033469Y-127199997D01*
X212024066Y-127199926D01*
X212022475Y-127199500D01*
X211967227Y-127199500D01*
X211966827Y-127199497D01*
X211933724Y-127189506D01*
X211900718Y-127179815D01*
X211900183Y-127179384D01*
X211899937Y-127179310D01*
X211899597Y-127178911D01*
X211880076Y-127163181D01*
X211574424Y-126857529D01*
X211574422Y-126857527D01*
X211532750Y-126833467D01*
X211491079Y-126809408D01*
X211444598Y-126796954D01*
X211398119Y-126784500D01*
X211398118Y-126784500D01*
X196974000Y-126784500D01*
X196906961Y-126764815D01*
X196861206Y-126712011D01*
X196850000Y-126660500D01*
X196850000Y-126051362D01*
X196869685Y-125984323D01*
X196886319Y-125963681D01*
X196900000Y-125950000D01*
X196900000Y-125545900D01*
X196919685Y-125478861D01*
X196972489Y-125433106D01*
X197024000Y-125421900D01*
X197645359Y-125421900D01*
X197712398Y-125441585D01*
X197733040Y-125458219D01*
X197737897Y-125463076D01*
X197737900Y-125463078D01*
X197848656Y-125517222D01*
X197853482Y-125519582D01*
X197928418Y-125530500D01*
X197928423Y-125530500D01*
X198371577Y-125530500D01*
X198371582Y-125530500D01*
X198446518Y-125519582D01*
X198529814Y-125478861D01*
X198562099Y-125463078D01*
X198562102Y-125463076D01*
X198566960Y-125458219D01*
X198628283Y-125424734D01*
X198654641Y-125421900D01*
X199695359Y-125421900D01*
X199762398Y-125441585D01*
X199783040Y-125458219D01*
X199787897Y-125463076D01*
X199787900Y-125463078D01*
X199898656Y-125517222D01*
X199903482Y-125519582D01*
X199978418Y-125530500D01*
X199978423Y-125530500D01*
X200421577Y-125530500D01*
X200421582Y-125530500D01*
X200496518Y-125519582D01*
X200579814Y-125478861D01*
X200612099Y-125463078D01*
X200612102Y-125463076D01*
X200616960Y-125458219D01*
X200678283Y-125424734D01*
X200704641Y-125421900D01*
X201276000Y-125421900D01*
X201343039Y-125441585D01*
X201388794Y-125494389D01*
X201400000Y-125545900D01*
X201400000Y-126100000D01*
X203400000Y-126100000D01*
X203400000Y-125545900D01*
X203419685Y-125478861D01*
X203472489Y-125433106D01*
X203524000Y-125421900D01*
X205645359Y-125421900D01*
X205712398Y-125441585D01*
X205733040Y-125458219D01*
X205737897Y-125463076D01*
X205737900Y-125463078D01*
X205848656Y-125517222D01*
X205853482Y-125519582D01*
X205928418Y-125530500D01*
X205928423Y-125530500D01*
X206371577Y-125530500D01*
X206371582Y-125530500D01*
X206446518Y-125519582D01*
X206529814Y-125478861D01*
X206562099Y-125463078D01*
X206562102Y-125463076D01*
X206566960Y-125458219D01*
X206628283Y-125424734D01*
X206654641Y-125421900D01*
X207292882Y-125421900D01*
X207776000Y-125421900D01*
X207843039Y-125441585D01*
X207888794Y-125494389D01*
X207900000Y-125545900D01*
X207900000Y-126050000D01*
X209900000Y-126050000D01*
X209900000Y-125545900D01*
X209919685Y-125478861D01*
X209972489Y-125433106D01*
X210024000Y-125421900D01*
X212395359Y-125421900D01*
X212462398Y-125441585D01*
X212483040Y-125458219D01*
X212487897Y-125463076D01*
X212487900Y-125463078D01*
X212598656Y-125517222D01*
X212603482Y-125519582D01*
X212678418Y-125530500D01*
X212678423Y-125530500D01*
X213121577Y-125530500D01*
X213121582Y-125530500D01*
X213196518Y-125519582D01*
X213279814Y-125478861D01*
X213312099Y-125463078D01*
X213312102Y-125463076D01*
X213316960Y-125458219D01*
X213378283Y-125424734D01*
X213404641Y-125421900D01*
X214276000Y-125421900D01*
X214343039Y-125441585D01*
X214388794Y-125494389D01*
X214400000Y-125545900D01*
X214400000Y-126050000D01*
X216400000Y-126050000D01*
X216400000Y-125130170D01*
X216402383Y-125105975D01*
X216404500Y-125095333D01*
X216404500Y-124897463D01*
X216402383Y-124886822D01*
X216400000Y-124862629D01*
X216400000Y-123130170D01*
X216402383Y-123105975D01*
X216403198Y-123101881D01*
X216404500Y-123095335D01*
X216404500Y-122897465D01*
X216402383Y-122886822D01*
X216400000Y-122862629D01*
X216400000Y-122050000D01*
X216151410Y-122050000D01*
X216084371Y-122030315D01*
X216063729Y-122013681D01*
X215529410Y-121479362D01*
X215592993Y-121462325D01*
X215707007Y-121396499D01*
X215800099Y-121303407D01*
X215865925Y-121189393D01*
X215882962Y-121125809D01*
X216446541Y-121689388D01*
X216446543Y-121689388D01*
X216472516Y-121653641D01*
X216562126Y-121477773D01*
X216623123Y-121290046D01*
X216654000Y-121095097D01*
X216654000Y-120897702D01*
X216623123Y-120702753D01*
X216562126Y-120515026D01*
X216472520Y-120339168D01*
X216472512Y-120339155D01*
X216446542Y-120303410D01*
X216446541Y-120303409D01*
X215882962Y-120866989D01*
X215865925Y-120803407D01*
X215800099Y-120689393D01*
X215707007Y-120596301D01*
X215592993Y-120530475D01*
X215529409Y-120513437D01*
X216092989Y-119949857D01*
X216057239Y-119923883D01*
X215881369Y-119834272D01*
X215865823Y-119829220D01*
X215808150Y-119789780D01*
X215780955Y-119725420D01*
X215792872Y-119656574D01*
X215835258Y-119608188D01*
X215878416Y-119579351D01*
X215982951Y-119474816D01*
X216065084Y-119351895D01*
X216121658Y-119215313D01*
X216150500Y-119070318D01*
X216150500Y-118922482D01*
X216150500Y-118922479D01*
X216121659Y-118777492D01*
X216121658Y-118777491D01*
X216121658Y-118777487D01*
X216103946Y-118734726D01*
X216065087Y-118640911D01*
X216065080Y-118640898D01*
X215982951Y-118517984D01*
X215982948Y-118517980D01*
X215878419Y-118413451D01*
X215878415Y-118413448D01*
X215755501Y-118331319D01*
X215755488Y-118331312D01*
X215618917Y-118274743D01*
X215618907Y-118274740D01*
X215473920Y-118245900D01*
X215473918Y-118245900D01*
X215326082Y-118245900D01*
X215326080Y-118245900D01*
X215181092Y-118274740D01*
X215181082Y-118274743D01*
X215044511Y-118331312D01*
X215044498Y-118331319D01*
X214921584Y-118413448D01*
X214921580Y-118413451D01*
X214817051Y-118517980D01*
X214817048Y-118517984D01*
X214734919Y-118640898D01*
X214734912Y-118640911D01*
X214678343Y-118777482D01*
X214678340Y-118777492D01*
X214649500Y-118922479D01*
X214649500Y-118922482D01*
X214649500Y-119070318D01*
X214649500Y-119070320D01*
X214649499Y-119070320D01*
X214678340Y-119215307D01*
X214678343Y-119215317D01*
X214734912Y-119351888D01*
X214734919Y-119351901D01*
X214817048Y-119474815D01*
X214817051Y-119474819D01*
X214921580Y-119579348D01*
X214921588Y-119579354D01*
X214964742Y-119608189D01*
X215009548Y-119661801D01*
X215018255Y-119731126D01*
X214988101Y-119794153D01*
X214934177Y-119829220D01*
X214918628Y-119834272D01*
X214742762Y-119923882D01*
X214742760Y-119923883D01*
X214707010Y-119949856D01*
X214707010Y-119949857D01*
X215270591Y-120513437D01*
X215207007Y-120530475D01*
X215092993Y-120596301D01*
X214999901Y-120689393D01*
X214934075Y-120803407D01*
X214917037Y-120866990D01*
X214353457Y-120303410D01*
X214353456Y-120303410D01*
X214327483Y-120339160D01*
X214327482Y-120339162D01*
X214237873Y-120515026D01*
X214176876Y-120702753D01*
X214146000Y-120897702D01*
X214146000Y-121095097D01*
X214176876Y-121290046D01*
X214237873Y-121477773D01*
X214327483Y-121653639D01*
X214353457Y-121689388D01*
X214353457Y-121689389D01*
X214917037Y-121125809D01*
X214934075Y-121189393D01*
X214999901Y-121303407D01*
X215092993Y-121396499D01*
X215207007Y-121462325D01*
X215270590Y-121479362D01*
X214736271Y-122013681D01*
X214674948Y-122047166D01*
X214648590Y-122050000D01*
X214400000Y-122050000D01*
X214400000Y-122506900D01*
X214380315Y-122573939D01*
X214327511Y-122619694D01*
X214276000Y-122630900D01*
X213493641Y-122630900D01*
X213426602Y-122611215D01*
X213380847Y-122558411D01*
X213370903Y-122489253D01*
X213397592Y-122430809D01*
X213397107Y-122430463D01*
X213398895Y-122427958D01*
X213399928Y-122425697D01*
X213402423Y-122423017D01*
X213403078Y-122422099D01*
X213431329Y-122364310D01*
X213459582Y-122306518D01*
X213470500Y-122231582D01*
X213470500Y-121888418D01*
X213459582Y-121813482D01*
X213459580Y-121813479D01*
X213459580Y-121813475D01*
X213456739Y-121804279D01*
X213458635Y-121803692D01*
X213448932Y-121746897D01*
X213476267Y-121682596D01*
X213484412Y-121673612D01*
X213590734Y-121567290D01*
X213590738Y-121567285D01*
X213672404Y-121429194D01*
X213712844Y-121290000D01*
X212087156Y-121290000D01*
X212127595Y-121429194D01*
X212209261Y-121567285D01*
X212209268Y-121567294D01*
X212315587Y-121673613D01*
X212349072Y-121734936D01*
X212344088Y-121804628D01*
X212340761Y-121812368D01*
X212340419Y-121813476D01*
X212340418Y-121813481D01*
X212340418Y-121813482D01*
X212329500Y-121888418D01*
X212329500Y-122231582D01*
X212340418Y-122306518D01*
X212340418Y-122306519D01*
X212340419Y-122306521D01*
X212396921Y-122422099D01*
X212396923Y-122422102D01*
X212487893Y-122513072D01*
X212487896Y-122513074D01*
X212487898Y-122513076D01*
X212487899Y-122513076D01*
X212492550Y-122516397D01*
X212535674Y-122571371D01*
X212544500Y-122617317D01*
X212544500Y-123064560D01*
X212534500Y-123101881D01*
X212534500Y-123198119D01*
X212544500Y-123235439D01*
X212544500Y-123432683D01*
X212524815Y-123499722D01*
X212492555Y-123533599D01*
X212487900Y-123536922D01*
X212396921Y-123627900D01*
X212340419Y-123743478D01*
X212340418Y-123743480D01*
X212340418Y-123743482D01*
X212329500Y-123818418D01*
X212329500Y-124161582D01*
X212340418Y-124236518D01*
X212340418Y-124236519D01*
X212340419Y-124236521D01*
X212396921Y-124352099D01*
X212396923Y-124352102D01*
X212404040Y-124359219D01*
X212437525Y-124420542D01*
X212432541Y-124490234D01*
X212390669Y-124546167D01*
X212325205Y-124570584D01*
X212316359Y-124570900D01*
X210024000Y-124570900D01*
X209956961Y-124551215D01*
X209911206Y-124498411D01*
X209900000Y-124446900D01*
X209900000Y-123130170D01*
X209902383Y-123105975D01*
X209903198Y-123101881D01*
X209904500Y-123095335D01*
X209904500Y-122897465D01*
X209902383Y-122886822D01*
X209900000Y-122862629D01*
X209900000Y-122050000D01*
X209651410Y-122050000D01*
X209584371Y-122030315D01*
X209563729Y-122013681D01*
X209029410Y-121479362D01*
X209092993Y-121462325D01*
X209207007Y-121396499D01*
X209300099Y-121303407D01*
X209365925Y-121189393D01*
X209382962Y-121125809D01*
X209946541Y-121689388D01*
X209946543Y-121689388D01*
X209972516Y-121653641D01*
X210062126Y-121477773D01*
X210123123Y-121290046D01*
X210154000Y-121095097D01*
X210154000Y-120897702D01*
X210143958Y-120834302D01*
X210136941Y-120790000D01*
X212087156Y-120790000D01*
X212650000Y-120790000D01*
X213150000Y-120790000D01*
X213712844Y-120790000D01*
X213672404Y-120650805D01*
X213590738Y-120512714D01*
X213590731Y-120512705D01*
X213477294Y-120399268D01*
X213477285Y-120399261D01*
X213339191Y-120317593D01*
X213339188Y-120317592D01*
X213185130Y-120272834D01*
X213150000Y-120270068D01*
X213150000Y-120790000D01*
X212650000Y-120790000D01*
X212650000Y-120270068D01*
X212649999Y-120270068D01*
X212614869Y-120272834D01*
X212614868Y-120272834D01*
X212460811Y-120317592D01*
X212460808Y-120317593D01*
X212322714Y-120399261D01*
X212322705Y-120399268D01*
X212209268Y-120512705D01*
X212209261Y-120512714D01*
X212127595Y-120650805D01*
X212087156Y-120790000D01*
X210136941Y-120790000D01*
X210123122Y-120702753D01*
X210062126Y-120515026D01*
X209972520Y-120339168D01*
X209972512Y-120339155D01*
X209946542Y-120303410D01*
X209946541Y-120303409D01*
X209382962Y-120866989D01*
X209365925Y-120803407D01*
X209300099Y-120689393D01*
X209207007Y-120596301D01*
X209092993Y-120530475D01*
X209029409Y-120513437D01*
X209592989Y-119949857D01*
X209557239Y-119923883D01*
X209381373Y-119834273D01*
X209193646Y-119773276D01*
X208998697Y-119742400D01*
X208801303Y-119742400D01*
X208606353Y-119773276D01*
X208418626Y-119834273D01*
X208242762Y-119923882D01*
X208242760Y-119923883D01*
X208207010Y-119949856D01*
X208207010Y-119949857D01*
X208770591Y-120513437D01*
X208707007Y-120530475D01*
X208592993Y-120596301D01*
X208499901Y-120689393D01*
X208434075Y-120803407D01*
X208417037Y-120866990D01*
X207853457Y-120303410D01*
X207853456Y-120303410D01*
X207827483Y-120339160D01*
X207827482Y-120339162D01*
X207737873Y-120515026D01*
X207676876Y-120702753D01*
X207646000Y-120897702D01*
X207646000Y-121095097D01*
X207676876Y-121290046D01*
X207737873Y-121477773D01*
X207827483Y-121653639D01*
X207853457Y-121689388D01*
X207853457Y-121689389D01*
X208417037Y-121125809D01*
X208434075Y-121189393D01*
X208499901Y-121303407D01*
X208592993Y-121396499D01*
X208707007Y-121462325D01*
X208770590Y-121479362D01*
X208236271Y-122013681D01*
X208174948Y-122047166D01*
X208148590Y-122050000D01*
X207900000Y-122050000D01*
X207900000Y-122506900D01*
X207880315Y-122573939D01*
X207827511Y-122619694D01*
X207776000Y-122630900D01*
X206743641Y-122630900D01*
X206676602Y-122611215D01*
X206630847Y-122558411D01*
X206620903Y-122489253D01*
X206647592Y-122430809D01*
X206647107Y-122430463D01*
X206648895Y-122427958D01*
X206649928Y-122425697D01*
X206652423Y-122423017D01*
X206653078Y-122422099D01*
X206681329Y-122364310D01*
X206709582Y-122306518D01*
X206720500Y-122231582D01*
X206720500Y-121888418D01*
X206709582Y-121813482D01*
X206709580Y-121813479D01*
X206709580Y-121813475D01*
X206706739Y-121804279D01*
X206708635Y-121803692D01*
X206698932Y-121746897D01*
X206726267Y-121682596D01*
X206734412Y-121673612D01*
X206840734Y-121567290D01*
X206840738Y-121567285D01*
X206922404Y-121429194D01*
X206962844Y-121290000D01*
X205337156Y-121290000D01*
X205377595Y-121429194D01*
X205459261Y-121567285D01*
X205459268Y-121567294D01*
X205565587Y-121673613D01*
X205599072Y-121734936D01*
X205594088Y-121804628D01*
X205590761Y-121812368D01*
X205590419Y-121813476D01*
X205590418Y-121813481D01*
X205590418Y-121813482D01*
X205579500Y-121888418D01*
X205579500Y-122231582D01*
X205590418Y-122306518D01*
X205590418Y-122306519D01*
X205590419Y-122306521D01*
X205646921Y-122422099D01*
X205646923Y-122422102D01*
X205745163Y-122520342D01*
X205743767Y-122521737D01*
X205756045Y-122539208D01*
X205775667Y-122564215D01*
X205776562Y-122568403D01*
X205777931Y-122570351D01*
X205781152Y-122589881D01*
X205784394Y-122605049D01*
X205784500Y-122607609D01*
X205784500Y-122701881D01*
X205784500Y-122798119D01*
X205793826Y-122832925D01*
X205794394Y-122846636D01*
X205794021Y-122848130D01*
X205794500Y-122851764D01*
X205794500Y-123432683D01*
X205774815Y-123499722D01*
X205742555Y-123533599D01*
X205737900Y-123536922D01*
X205646921Y-123627900D01*
X205590419Y-123743478D01*
X205590418Y-123743480D01*
X205590418Y-123743482D01*
X205579500Y-123818418D01*
X205579500Y-124161582D01*
X205590418Y-124236518D01*
X205590418Y-124236519D01*
X205590419Y-124236521D01*
X205646921Y-124352099D01*
X205646923Y-124352102D01*
X205654040Y-124359219D01*
X205687525Y-124420542D01*
X205682541Y-124490234D01*
X205640669Y-124546167D01*
X205575205Y-124570584D01*
X205566359Y-124570900D01*
X203524000Y-124570900D01*
X203456961Y-124551215D01*
X203411206Y-124498411D01*
X203400000Y-124446900D01*
X203400000Y-123130170D01*
X203402383Y-123105975D01*
X203403198Y-123101881D01*
X203404500Y-123095335D01*
X203404500Y-122897465D01*
X203402383Y-122886822D01*
X203400000Y-122862629D01*
X203400000Y-122000000D01*
X203101409Y-122000000D01*
X203034370Y-121980315D01*
X203013728Y-121963681D01*
X202529409Y-121479362D01*
X202592993Y-121462325D01*
X202707007Y-121396499D01*
X202800099Y-121303407D01*
X202865925Y-121189393D01*
X202882962Y-121125809D01*
X203446541Y-121689388D01*
X203446543Y-121689388D01*
X203472516Y-121653641D01*
X203562126Y-121477773D01*
X203623123Y-121290046D01*
X203654000Y-121095097D01*
X203654000Y-120897702D01*
X203643958Y-120834302D01*
X203636941Y-120790000D01*
X205337156Y-120790000D01*
X205900000Y-120790000D01*
X206400000Y-120790000D01*
X206962844Y-120790000D01*
X206922404Y-120650805D01*
X206840738Y-120512714D01*
X206840731Y-120512705D01*
X206727294Y-120399268D01*
X206727285Y-120399261D01*
X206589191Y-120317593D01*
X206589188Y-120317592D01*
X206435130Y-120272834D01*
X206400000Y-120270068D01*
X206400000Y-120790000D01*
X205900000Y-120790000D01*
X205900000Y-120270068D01*
X205899999Y-120270068D01*
X205864869Y-120272834D01*
X205864868Y-120272834D01*
X205710811Y-120317592D01*
X205710808Y-120317593D01*
X205572714Y-120399261D01*
X205572705Y-120399268D01*
X205459268Y-120512705D01*
X205459261Y-120512714D01*
X205377595Y-120650805D01*
X205337156Y-120790000D01*
X203636941Y-120790000D01*
X203623122Y-120702753D01*
X203562126Y-120515026D01*
X203472520Y-120339168D01*
X203472512Y-120339155D01*
X203446542Y-120303410D01*
X203446541Y-120303409D01*
X202882962Y-120866989D01*
X202865925Y-120803407D01*
X202800099Y-120689393D01*
X202707007Y-120596301D01*
X202592993Y-120530475D01*
X202529409Y-120513437D01*
X203092989Y-119949857D01*
X203057239Y-119923883D01*
X202881373Y-119834273D01*
X202693646Y-119773276D01*
X202498697Y-119742400D01*
X202301303Y-119742400D01*
X202106353Y-119773276D01*
X201918626Y-119834273D01*
X201742762Y-119923882D01*
X201742760Y-119923883D01*
X201707010Y-119949856D01*
X201707010Y-119949857D01*
X202270591Y-120513437D01*
X202207007Y-120530475D01*
X202092993Y-120596301D01*
X201999901Y-120689393D01*
X201934075Y-120803407D01*
X201917037Y-120866990D01*
X201353457Y-120303410D01*
X201353456Y-120303410D01*
X201327483Y-120339160D01*
X201327482Y-120339162D01*
X201237873Y-120515027D01*
X201200131Y-120631183D01*
X201160692Y-120688858D01*
X201096333Y-120716056D01*
X201027487Y-120704141D01*
X200976012Y-120656896D01*
X200975468Y-120655985D01*
X200890738Y-120512714D01*
X200890731Y-120512705D01*
X200777294Y-120399268D01*
X200777285Y-120399261D01*
X200639191Y-120317593D01*
X200639188Y-120317592D01*
X200485130Y-120272834D01*
X200450000Y-120270068D01*
X200450000Y-120916000D01*
X200430315Y-120983039D01*
X200377511Y-121028794D01*
X200326000Y-121040000D01*
X200200000Y-121040000D01*
X200200000Y-121166000D01*
X200180315Y-121233039D01*
X200127511Y-121278794D01*
X200076000Y-121290000D01*
X199387156Y-121290000D01*
X199427595Y-121429194D01*
X199509261Y-121567285D01*
X199509268Y-121567294D01*
X199615587Y-121673613D01*
X199649072Y-121734936D01*
X199644088Y-121804628D01*
X199640761Y-121812368D01*
X199640419Y-121813476D01*
X199640418Y-121813481D01*
X199640418Y-121813482D01*
X199629500Y-121888418D01*
X199629500Y-122231582D01*
X199640418Y-122306518D01*
X199640418Y-122306519D01*
X199640419Y-122306521D01*
X199696921Y-122422099D01*
X199696923Y-122422102D01*
X199787893Y-122513072D01*
X199787896Y-122513074D01*
X199787898Y-122513076D01*
X199787899Y-122513076D01*
X199792550Y-122516397D01*
X199835674Y-122571371D01*
X199844500Y-122617317D01*
X199844500Y-123064560D01*
X199834500Y-123101881D01*
X199834500Y-123198119D01*
X199844500Y-123235439D01*
X199844500Y-123432683D01*
X199824815Y-123499722D01*
X199792555Y-123533599D01*
X199787900Y-123536922D01*
X199696921Y-123627900D01*
X199640419Y-123743478D01*
X199640418Y-123743480D01*
X199640418Y-123743482D01*
X199629500Y-123818418D01*
X199629500Y-124161582D01*
X199640418Y-124236518D01*
X199640418Y-124236519D01*
X199640419Y-124236521D01*
X199696921Y-124352099D01*
X199696923Y-124352102D01*
X199704040Y-124359219D01*
X199737525Y-124420542D01*
X199732541Y-124490234D01*
X199690669Y-124546167D01*
X199625205Y-124570584D01*
X199616359Y-124570900D01*
X198733641Y-124570900D01*
X198666602Y-124551215D01*
X198620847Y-124498411D01*
X198610903Y-124429253D01*
X198639928Y-124365697D01*
X198645960Y-124359219D01*
X198653076Y-124352102D01*
X198653078Y-124352099D01*
X198681329Y-124294310D01*
X198709582Y-124236518D01*
X198720500Y-124161582D01*
X198720500Y-123818418D01*
X198709582Y-123743482D01*
X198707222Y-123738656D01*
X198653078Y-123627900D01*
X198627935Y-123602757D01*
X198562102Y-123536924D01*
X198562100Y-123536923D01*
X198562099Y-123536922D01*
X198557445Y-123533599D01*
X198553747Y-123528885D01*
X198548297Y-123526396D01*
X198532431Y-123501709D01*
X198514324Y-123478623D01*
X198512929Y-123471362D01*
X198510523Y-123467618D01*
X198505500Y-123432683D01*
X198505500Y-123251764D01*
X198509725Y-123219671D01*
X198515500Y-123198119D01*
X198515500Y-123101881D01*
X198509725Y-123080327D01*
X198505500Y-123048235D01*
X198505500Y-122617317D01*
X198525185Y-122550278D01*
X198557450Y-122516397D01*
X198562096Y-122513078D01*
X198562102Y-122513076D01*
X198653076Y-122422102D01*
X198653078Y-122422099D01*
X198681329Y-122364310D01*
X198709582Y-122306518D01*
X198720500Y-122231582D01*
X198720500Y-121888418D01*
X198709582Y-121813482D01*
X198709580Y-121813479D01*
X198709580Y-121813475D01*
X198706739Y-121804279D01*
X198708635Y-121803692D01*
X198698932Y-121746897D01*
X198726267Y-121682596D01*
X198734412Y-121673612D01*
X198840734Y-121567290D01*
X198840738Y-121567285D01*
X198922404Y-121429194D01*
X198962844Y-121290000D01*
X198274000Y-121290000D01*
X198206961Y-121270315D01*
X198161206Y-121217511D01*
X198150000Y-121166000D01*
X198150000Y-121040000D01*
X198024000Y-121040000D01*
X197956961Y-121020315D01*
X197911206Y-120967511D01*
X197900000Y-120916000D01*
X197900000Y-120790000D01*
X198400000Y-120790000D01*
X198962844Y-120790000D01*
X199387156Y-120790000D01*
X199950000Y-120790000D01*
X199950000Y-120270068D01*
X199949999Y-120270068D01*
X199914869Y-120272834D01*
X199914868Y-120272834D01*
X199760811Y-120317592D01*
X199760808Y-120317593D01*
X199622714Y-120399261D01*
X199622705Y-120399268D01*
X199509268Y-120512705D01*
X199509261Y-120512714D01*
X199427595Y-120650805D01*
X199387156Y-120790000D01*
X198962844Y-120790000D01*
X198922404Y-120650805D01*
X198840738Y-120512714D01*
X198840731Y-120512705D01*
X198727294Y-120399268D01*
X198727285Y-120399261D01*
X198589191Y-120317593D01*
X198589188Y-120317592D01*
X198435130Y-120272834D01*
X198400000Y-120270068D01*
X198400000Y-120790000D01*
X197900000Y-120790000D01*
X197900000Y-120270068D01*
X197899999Y-120270068D01*
X197864869Y-120272834D01*
X197864868Y-120272834D01*
X197710811Y-120317592D01*
X197710808Y-120317593D01*
X197572714Y-120399261D01*
X197572705Y-120399268D01*
X197459268Y-120512705D01*
X197459261Y-120512714D01*
X197377593Y-120650808D01*
X197361907Y-120704798D01*
X197324299Y-120763683D01*
X197260826Y-120792888D01*
X197191640Y-120783141D01*
X197138706Y-120737536D01*
X197125656Y-120707054D01*
X197124629Y-120707388D01*
X197062126Y-120515026D01*
X196972520Y-120339168D01*
X196972512Y-120339155D01*
X196946542Y-120303410D01*
X196946541Y-120303409D01*
X196382962Y-120866989D01*
X196365925Y-120803407D01*
X196300099Y-120689393D01*
X196207007Y-120596301D01*
X196092993Y-120530475D01*
X196029409Y-120513437D01*
X196592989Y-119949857D01*
X196557239Y-119923883D01*
X196381369Y-119834272D01*
X196365823Y-119829220D01*
X196308150Y-119789780D01*
X196280955Y-119725420D01*
X196292872Y-119656574D01*
X196335258Y-119608188D01*
X196378416Y-119579351D01*
X196482951Y-119474816D01*
X196565084Y-119351895D01*
X196621658Y-119215313D01*
X196650500Y-119070318D01*
X196650500Y-118922482D01*
X196650500Y-118922479D01*
X196621659Y-118777492D01*
X196621658Y-118777491D01*
X196621658Y-118777487D01*
X196603946Y-118734726D01*
X196565087Y-118640911D01*
X196565080Y-118640898D01*
X196482951Y-118517984D01*
X196482948Y-118517980D01*
X196378419Y-118413451D01*
X196378415Y-118413448D01*
X196347217Y-118392602D01*
X196302412Y-118338990D01*
X196293705Y-118269665D01*
X196323860Y-118206637D01*
X196383303Y-118169918D01*
X196416108Y-118165500D01*
X204987301Y-118165500D01*
X205054340Y-118185185D01*
X205061575Y-118190272D01*
X205061984Y-118190508D01*
X205061985Y-118190509D01*
X205111172Y-118218907D01*
X205187511Y-118262982D01*
X205187512Y-118262982D01*
X205187515Y-118262984D01*
X205327525Y-118300500D01*
X205327528Y-118300500D01*
X205472472Y-118300500D01*
X205472475Y-118300500D01*
X205612485Y-118262984D01*
X205738015Y-118190509D01*
X205840509Y-118088015D01*
X205912984Y-117962485D01*
X205950500Y-117822475D01*
X205950500Y-117677525D01*
X205912984Y-117537515D01*
X205903786Y-117521584D01*
X205840511Y-117411988D01*
X205840506Y-117411982D01*
X205738017Y-117309493D01*
X205738011Y-117309488D01*
X205612488Y-117237017D01*
X205612489Y-117237017D01*
X205601006Y-117233940D01*
X205472475Y-117199500D01*
X205327525Y-117199500D01*
X205306592Y-117205108D01*
X205236743Y-117203446D01*
X205178881Y-117164283D01*
X205151377Y-117100055D01*
X205150500Y-117085334D01*
X205150500Y-117027527D01*
X205150500Y-117027525D01*
X205112984Y-116887515D01*
X205040509Y-116761985D01*
X204938015Y-116659491D01*
X204938013Y-116659490D01*
X204938011Y-116659488D01*
X204812488Y-116587017D01*
X204812489Y-116587017D01*
X204801006Y-116583940D01*
X204672475Y-116549500D01*
X204527525Y-116549500D01*
X204519398Y-116549500D01*
X204519398Y-116547329D01*
X204461622Y-116538309D01*
X204409375Y-116491920D01*
X204390501Y-116424647D01*
X204394716Y-116394060D01*
X204400500Y-116372475D01*
X204400500Y-116227525D01*
X204362984Y-116087515D01*
X204290509Y-115961985D01*
X204188015Y-115859491D01*
X204188013Y-115859490D01*
X204188011Y-115859488D01*
X204062488Y-115787017D01*
X204062489Y-115787017D01*
X204030356Y-115778407D01*
X203922475Y-115749500D01*
X203777525Y-115749500D01*
X203669644Y-115778407D01*
X203637511Y-115787017D01*
X203511988Y-115859488D01*
X203511982Y-115859493D01*
X203473295Y-115898181D01*
X203411972Y-115931666D01*
X203385614Y-115934500D01*
X201855288Y-115934500D01*
X201788249Y-115914815D01*
X201742494Y-115862011D01*
X201732550Y-115792853D01*
X201735513Y-115778407D01*
X201736683Y-115774037D01*
X201750500Y-115722475D01*
X201750500Y-115577525D01*
X201722115Y-115471592D01*
X201723778Y-115401744D01*
X201762940Y-115343881D01*
X201827169Y-115316377D01*
X201841890Y-115315500D01*
X211198117Y-115315500D01*
X211198119Y-115315500D01*
X211291078Y-115290592D01*
X211374422Y-115242473D01*
X211892473Y-114724422D01*
X211940592Y-114641078D01*
X211965500Y-114548119D01*
X211965500Y-114451881D01*
X211965500Y-113174500D01*
X211985185Y-113107461D01*
X212037989Y-113061706D01*
X212089500Y-113050500D01*
X212518724Y-113050500D01*
X212518725Y-113050499D01*
X212591788Y-113035966D01*
X212674649Y-112980601D01*
X212730014Y-112897740D01*
X212744548Y-112824674D01*
X212744548Y-110175326D01*
X212744548Y-110175323D01*
X212744547Y-110175321D01*
X212730015Y-110102264D01*
X212730014Y-110102260D01*
X212674649Y-110019399D01*
X212591788Y-109964034D01*
X212591787Y-109964033D01*
X212591783Y-109964032D01*
X212518725Y-109949500D01*
X212518722Y-109949500D01*
X211194910Y-109949500D01*
X211127871Y-109929815D01*
X211107229Y-109913181D01*
X211094048Y-109900000D01*
X207294048Y-109900000D01*
X207280867Y-109913181D01*
X207219544Y-109946666D01*
X207193186Y-109949500D01*
X205869371Y-109949500D01*
X205796312Y-109964032D01*
X205796308Y-109964033D01*
X205713447Y-110019399D01*
X205658081Y-110102260D01*
X205658080Y-110102264D01*
X205643548Y-110175321D01*
X205643548Y-112824678D01*
X205658080Y-112897735D01*
X205658081Y-112897739D01*
X205665668Y-112909094D01*
X205713447Y-112980601D01*
X205783678Y-113027527D01*
X205796308Y-113035966D01*
X205796312Y-113035967D01*
X205869369Y-113050499D01*
X205869372Y-113050500D01*
X205869374Y-113050500D01*
X206375500Y-113050500D01*
X206442539Y-113070185D01*
X206488294Y-113122989D01*
X206499500Y-113174500D01*
X206499500Y-113725500D01*
X206479815Y-113792539D01*
X206427011Y-113838294D01*
X206375500Y-113849500D01*
X195667255Y-113849500D01*
X195600216Y-113829815D01*
X195579574Y-113813181D01*
X195336819Y-113570426D01*
X195303334Y-113509103D01*
X195300500Y-113482745D01*
X195300500Y-113174500D01*
X195303050Y-113165814D01*
X195301762Y-113156853D01*
X195312740Y-113132812D01*
X195320185Y-113107461D01*
X195327025Y-113101533D01*
X195330787Y-113093297D01*
X195353021Y-113079007D01*
X195372989Y-113061706D01*
X195383503Y-113059418D01*
X195389565Y-113055523D01*
X195424500Y-113050500D01*
X195621757Y-113050500D01*
X195688796Y-113070185D01*
X195709438Y-113086819D01*
X195722619Y-113100000D01*
X199522619Y-113100000D01*
X199535800Y-113086819D01*
X199597123Y-113053334D01*
X199623481Y-113050500D01*
X200947295Y-113050500D01*
X200947296Y-113050499D01*
X201020359Y-113035966D01*
X201103220Y-112980601D01*
X201158585Y-112897740D01*
X201173119Y-112824674D01*
X201173119Y-111989500D01*
X201192804Y-111922461D01*
X201245608Y-111876706D01*
X201297119Y-111865500D01*
X201635614Y-111865500D01*
X201702653Y-111885185D01*
X201723295Y-111901819D01*
X201761985Y-111940509D01*
X201761986Y-111940510D01*
X201761988Y-111940511D01*
X201887511Y-112012982D01*
X201887512Y-112012982D01*
X201887515Y-112012984D01*
X202027525Y-112050500D01*
X202027528Y-112050500D01*
X202172472Y-112050500D01*
X202172475Y-112050500D01*
X202312485Y-112012984D01*
X202438015Y-111940509D01*
X202540509Y-111838015D01*
X202612984Y-111712485D01*
X202650500Y-111572475D01*
X202650500Y-111427525D01*
X202612984Y-111287515D01*
X202540509Y-111161985D01*
X202438015Y-111059491D01*
X202438013Y-111059490D01*
X202438011Y-111059488D01*
X202312488Y-110987017D01*
X202312489Y-110987017D01*
X202301006Y-110983940D01*
X202172475Y-110949500D01*
X202027525Y-110949500D01*
X201898993Y-110983940D01*
X201887511Y-110987017D01*
X201761988Y-111059488D01*
X201761982Y-111059493D01*
X201723295Y-111098181D01*
X201661972Y-111131666D01*
X201635614Y-111134500D01*
X201297119Y-111134500D01*
X201230080Y-111114815D01*
X201184325Y-111062011D01*
X201173119Y-111010500D01*
X201173119Y-110175323D01*
X201173118Y-110175321D01*
X201158586Y-110102264D01*
X201158585Y-110102260D01*
X201103220Y-110019399D01*
X201020359Y-109964034D01*
X201020358Y-109964033D01*
X201020354Y-109964032D01*
X200947296Y-109949500D01*
X200947293Y-109949500D01*
X199623481Y-109949500D01*
X199556442Y-109929815D01*
X199535800Y-109913181D01*
X199522619Y-109900000D01*
X195722619Y-109900000D01*
X195709438Y-109913181D01*
X195648115Y-109946666D01*
X195621757Y-109949500D01*
X194297942Y-109949500D01*
X194224883Y-109964032D01*
X194224879Y-109964033D01*
X194142018Y-110019399D01*
X194086652Y-110102260D01*
X194081979Y-110113544D01*
X194080284Y-110112842D01*
X194054776Y-110161604D01*
X193994060Y-110196177D01*
X193965546Y-110199500D01*
X130447273Y-110199500D01*
X130345410Y-110226793D01*
X130254087Y-110279520D01*
X130254084Y-110279522D01*
X129879522Y-110654084D01*
X129879520Y-110654087D01*
X129826793Y-110745412D01*
X129812897Y-110797273D01*
X129812897Y-110797274D01*
X129812896Y-110797273D01*
X129799500Y-110847269D01*
X129799500Y-111625500D01*
X129779815Y-111692539D01*
X129727011Y-111738294D01*
X129675500Y-111749500D01*
X129475323Y-111749500D01*
X129402264Y-111764032D01*
X129402260Y-111764033D01*
X129319399Y-111819399D01*
X129264033Y-111902260D01*
X129264032Y-111902264D01*
X129249500Y-111975321D01*
X129249500Y-114624678D01*
X129264032Y-114697735D01*
X129264033Y-114697739D01*
X129277394Y-114717735D01*
X129319399Y-114780601D01*
X129402260Y-114835966D01*
X129402264Y-114835967D01*
X129475321Y-114850499D01*
X129475324Y-114850500D01*
X129475326Y-114850500D01*
X130799138Y-114850500D01*
X130866177Y-114870185D01*
X130886819Y-114886819D01*
X130900000Y-114900000D01*
X134700000Y-114900000D01*
X134713181Y-114886819D01*
X134774504Y-114853334D01*
X134800862Y-114850500D01*
X136124676Y-114850500D01*
X136124677Y-114850499D01*
X136197740Y-114835966D01*
X136280601Y-114780601D01*
X136335966Y-114697740D01*
X136350500Y-114624674D01*
X136350500Y-113789500D01*
X136370185Y-113722461D01*
X136422989Y-113676706D01*
X136474500Y-113665500D01*
X142497243Y-113665500D01*
X142564282Y-113685185D01*
X142584924Y-113701819D01*
X146907527Y-118024422D01*
X146975578Y-118092473D01*
X147058922Y-118140592D01*
X147151881Y-118165500D01*
X195383892Y-118165500D01*
X195450931Y-118185185D01*
X195496686Y-118237989D01*
X195506630Y-118307147D01*
X195477605Y-118370703D01*
X195452783Y-118392602D01*
X195421584Y-118413448D01*
X195421580Y-118413451D01*
X195317051Y-118517980D01*
X195317048Y-118517984D01*
X195234919Y-118640898D01*
X195234912Y-118640911D01*
X195178343Y-118777482D01*
X195178340Y-118777492D01*
X195149500Y-118922479D01*
X195149500Y-118922482D01*
X195149500Y-119070318D01*
X195149500Y-119070320D01*
X195149499Y-119070320D01*
X195178340Y-119215307D01*
X195178343Y-119215317D01*
X195234912Y-119351888D01*
X195234919Y-119351901D01*
X195317048Y-119474815D01*
X195317051Y-119474819D01*
X195421580Y-119579348D01*
X195421588Y-119579354D01*
X195464742Y-119608189D01*
X195509548Y-119661801D01*
X195518255Y-119731126D01*
X195488101Y-119794153D01*
X195434177Y-119829220D01*
X195418628Y-119834272D01*
X195242762Y-119923882D01*
X195242760Y-119923883D01*
X195207010Y-119949856D01*
X195207010Y-119949857D01*
X195770591Y-120513437D01*
X195707007Y-120530475D01*
X195592993Y-120596301D01*
X195499901Y-120689393D01*
X195434075Y-120803407D01*
X195417037Y-120866990D01*
X194853457Y-120303410D01*
X194853456Y-120303410D01*
X194827483Y-120339160D01*
X194827482Y-120339162D01*
X194737873Y-120515026D01*
X194676876Y-120702753D01*
X194646000Y-120897702D01*
X194646000Y-121095097D01*
X194676876Y-121290046D01*
X194737873Y-121477773D01*
X194827483Y-121653639D01*
X194853457Y-121689388D01*
X194853457Y-121689389D01*
X195417037Y-121125809D01*
X195434075Y-121189393D01*
X195499901Y-121303407D01*
X195592993Y-121396499D01*
X195707007Y-121462325D01*
X195770590Y-121479362D01*
X195236271Y-122013681D01*
X195174948Y-122047166D01*
X195148590Y-122050000D01*
X194900000Y-122050000D01*
X194900000Y-122506900D01*
X194880315Y-122573939D01*
X194827511Y-122619694D01*
X194776000Y-122630900D01*
X194455481Y-122630900D01*
X194362521Y-122655808D01*
X194346458Y-122665083D01*
X194346456Y-122665084D01*
X194279181Y-122703925D01*
X194279175Y-122703929D01*
X193807529Y-123175575D01*
X193807527Y-123175578D01*
X193759408Y-123258920D01*
X193734500Y-123351881D01*
X193734500Y-126798118D01*
X193759408Y-126891079D01*
X193783467Y-126932750D01*
X193807527Y-126974422D01*
X194207527Y-127374422D01*
X194275578Y-127442473D01*
X194275579Y-127442474D01*
X194275581Y-127442475D01*
X194309371Y-127461983D01*
X194309373Y-127461985D01*
X194309374Y-127461985D01*
X194358922Y-127490592D01*
X194451880Y-127515500D01*
X194451881Y-127515500D01*
X198826000Y-127515500D01*
X198893039Y-127535185D01*
X198938794Y-127587989D01*
X198950000Y-127639500D01*
X198950000Y-129130503D01*
X198930315Y-129197542D01*
X198877511Y-129243297D01*
X198808353Y-129253241D01*
X198770057Y-129239987D01*
X198769999Y-129240128D01*
X198767632Y-129239147D01*
X198764001Y-129237891D01*
X198762487Y-129237017D01*
X198762486Y-129237016D01*
X198762485Y-129237016D01*
X198622475Y-129199500D01*
X198477525Y-129199500D01*
X198348993Y-129233940D01*
X198337511Y-129237017D01*
X198211988Y-129309488D01*
X198211982Y-129309493D01*
X198109493Y-129411982D01*
X198109488Y-129411988D01*
X198037017Y-129537511D01*
X198037016Y-129537515D01*
X197999500Y-129677525D01*
X197999500Y-129822475D01*
X198034435Y-129952851D01*
X198037017Y-129962488D01*
X198109488Y-130088011D01*
X198109493Y-130088017D01*
X198194295Y-130172819D01*
X198227780Y-130234142D01*
X198222796Y-130303834D01*
X198180924Y-130359767D01*
X198115460Y-130384184D01*
X198106614Y-130384500D01*
X194402757Y-130384500D01*
X194335718Y-130364815D01*
X194315076Y-130348181D01*
X193424424Y-129457529D01*
X193424422Y-129457527D01*
X193364007Y-129422646D01*
X193341079Y-129409408D01*
X193292232Y-129396320D01*
X193248119Y-129384500D01*
X193248118Y-129384500D01*
X123852757Y-129384500D01*
X123785718Y-129364815D01*
X123765076Y-129348181D01*
X123487215Y-129070320D01*
X195149499Y-129070320D01*
X195178340Y-129215307D01*
X195178343Y-129215317D01*
X195234912Y-129351888D01*
X195234919Y-129351901D01*
X195317048Y-129474815D01*
X195317051Y-129474819D01*
X195421580Y-129579348D01*
X195421584Y-129579351D01*
X195544498Y-129661480D01*
X195544511Y-129661487D01*
X195681082Y-129718056D01*
X195681087Y-129718058D01*
X195681091Y-129718058D01*
X195681092Y-129718059D01*
X195826079Y-129746900D01*
X195826082Y-129746900D01*
X195973920Y-129746900D01*
X196071462Y-129727496D01*
X196118913Y-129718058D01*
X196255495Y-129661484D01*
X196378416Y-129579351D01*
X196482951Y-129474816D01*
X196565084Y-129351895D01*
X196567050Y-129347150D01*
X196582648Y-129309491D01*
X196621658Y-129215313D01*
X196642666Y-129109701D01*
X196650500Y-129070320D01*
X196650500Y-128922479D01*
X196621659Y-128777492D01*
X196621658Y-128777491D01*
X196621658Y-128777487D01*
X196613358Y-128757449D01*
X196565087Y-128640911D01*
X196565080Y-128640898D01*
X196482951Y-128517984D01*
X196482948Y-128517980D01*
X196378419Y-128413451D01*
X196378415Y-128413448D01*
X196255501Y-128331319D01*
X196255488Y-128331312D01*
X196118917Y-128274743D01*
X196118907Y-128274740D01*
X195973920Y-128245900D01*
X195973918Y-128245900D01*
X195826082Y-128245900D01*
X195826080Y-128245900D01*
X195681092Y-128274740D01*
X195681082Y-128274743D01*
X195544511Y-128331312D01*
X195544498Y-128331319D01*
X195421584Y-128413448D01*
X195421580Y-128413451D01*
X195317051Y-128517980D01*
X195317048Y-128517984D01*
X195234919Y-128640898D01*
X195234912Y-128640911D01*
X195178343Y-128777482D01*
X195178340Y-128777492D01*
X195149500Y-128922479D01*
X195149500Y-128922482D01*
X195149500Y-129070318D01*
X195149500Y-129070320D01*
X195149499Y-129070320D01*
X123487215Y-129070320D01*
X122286819Y-127869924D01*
X122269533Y-127838268D01*
X124545496Y-127838268D01*
X124545500Y-127897273D01*
X124545500Y-127950621D01*
X124545502Y-127950635D01*
X124545503Y-127950637D01*
X124580049Y-128034028D01*
X124584254Y-128044177D01*
X124655847Y-128115762D01*
X124655848Y-128115762D01*
X124655849Y-128115763D01*
X124749391Y-128154503D01*
X124749392Y-128154502D01*
X124749393Y-128154503D01*
X124817936Y-128154499D01*
X190895561Y-128150900D01*
X190950623Y-128150900D01*
X190950630Y-128150897D01*
X190950637Y-128150897D01*
X190995555Y-128132288D01*
X191037655Y-128114850D01*
X191043510Y-128112810D01*
X191044172Y-128112147D01*
X191044175Y-128112147D01*
X191079969Y-128076349D01*
X191111813Y-128044505D01*
X191115317Y-128041304D01*
X191115750Y-128040567D01*
X191115755Y-128040563D01*
X191115757Y-128040556D01*
X191115763Y-128040551D01*
X191115769Y-128040534D01*
X191116813Y-128038762D01*
X191118464Y-128034028D01*
X191135897Y-127991935D01*
X191135899Y-127991929D01*
X191153004Y-127950635D01*
X191154500Y-127947023D01*
X191154500Y-127947022D01*
X191154501Y-127947020D01*
X191154503Y-127947011D01*
X191154500Y-127891078D01*
X191154500Y-119449378D01*
X191154498Y-119449373D01*
X191115757Y-119355839D01*
X191044160Y-119284242D01*
X190950626Y-119245501D01*
X190950624Y-119245500D01*
X190950623Y-119245500D01*
X124850623Y-119245500D01*
X124749377Y-119245500D01*
X124749375Y-119245500D01*
X124749373Y-119245501D01*
X124655839Y-119284242D01*
X124584242Y-119355839D01*
X124545501Y-119449373D01*
X124545500Y-119449378D01*
X124545500Y-127838222D01*
X124545496Y-127838268D01*
X122269533Y-127838268D01*
X122253334Y-127808601D01*
X122250500Y-127782243D01*
X122250500Y-127727527D01*
X122250500Y-127727525D01*
X122212984Y-127587515D01*
X122211243Y-127584500D01*
X122140511Y-127461988D01*
X122140506Y-127461982D01*
X122038017Y-127359493D01*
X122038011Y-127359488D01*
X121912488Y-127287017D01*
X121912489Y-127287017D01*
X121888824Y-127280676D01*
X121772475Y-127249500D01*
X121627525Y-127249500D01*
X121511176Y-127280676D01*
X121487511Y-127287017D01*
X121361988Y-127359488D01*
X121361982Y-127359493D01*
X121259493Y-127461982D01*
X121259488Y-127461988D01*
X121187017Y-127587511D01*
X121187016Y-127587515D01*
X121149500Y-127727525D01*
X121149500Y-127872475D01*
X121181508Y-127991929D01*
X121187017Y-128012488D01*
X121259488Y-128138011D01*
X121259490Y-128138013D01*
X121259491Y-128138015D01*
X121361985Y-128240509D01*
X121361986Y-128240510D01*
X121361988Y-128240511D01*
X121487511Y-128312982D01*
X121487512Y-128312982D01*
X121487515Y-128312984D01*
X121627525Y-128350500D01*
X121682243Y-128350500D01*
X121749282Y-128370185D01*
X121769924Y-128386819D01*
X123065924Y-129682819D01*
X123076536Y-129702255D01*
X123091037Y-129718989D01*
X123092953Y-129732320D01*
X123099409Y-129744142D01*
X123097829Y-129766228D01*
X123100981Y-129788147D01*
X123095385Y-129800398D01*
X123094425Y-129813834D01*
X123081154Y-129831560D01*
X123071956Y-129851703D01*
X123060624Y-129858985D01*
X123052553Y-129869767D01*
X123031807Y-129877504D01*
X123013178Y-129889477D01*
X122991259Y-129892628D01*
X122987089Y-129894184D01*
X122978243Y-129894500D01*
X122955218Y-129894500D01*
X122920731Y-129887641D01*
X122920335Y-129889120D01*
X122912486Y-129887017D01*
X122912485Y-129887016D01*
X122772475Y-129849500D01*
X122627525Y-129849500D01*
X122523014Y-129877504D01*
X122487511Y-129887017D01*
X122361988Y-129959488D01*
X122361982Y-129959493D01*
X122259493Y-130061982D01*
X122259488Y-130061988D01*
X122187017Y-130187511D01*
X122187016Y-130187515D01*
X122149500Y-130327525D01*
X122149500Y-130472475D01*
X122187016Y-130612485D01*
X122187017Y-130612488D01*
X122259488Y-130738011D01*
X122259490Y-130738013D01*
X122259491Y-130738015D01*
X122361985Y-130840509D01*
X122361986Y-130840510D01*
X122361988Y-130840511D01*
X122487511Y-130912982D01*
X122487512Y-130912982D01*
X122487515Y-130912984D01*
X122627525Y-130950500D01*
X122627528Y-130950500D01*
X122772472Y-130950500D01*
X122772475Y-130950500D01*
X122912485Y-130912984D01*
X123038015Y-130840509D01*
X123140509Y-130738015D01*
X123181221Y-130667500D01*
X123231788Y-130619284D01*
X123288608Y-130605500D01*
X192651385Y-130605500D01*
X192718424Y-130625185D01*
X192739066Y-130641819D01*
X193330066Y-131232819D01*
X193363551Y-131294142D01*
X193358567Y-131363834D01*
X193316695Y-131419767D01*
X193251231Y-131444184D01*
X193242385Y-131444500D01*
X119948615Y-131444500D01*
X119881576Y-131424815D01*
X119860934Y-131408181D01*
X119363783Y-130911030D01*
X119330298Y-130849707D01*
X119335282Y-130780015D01*
X119377154Y-130724082D01*
X119442618Y-130699665D01*
X119498915Y-130708787D01*
X119529987Y-130721658D01*
X119529991Y-130721658D01*
X119529992Y-130721659D01*
X119674979Y-130750500D01*
X119674982Y-130750500D01*
X119822820Y-130750500D01*
X119920362Y-130731096D01*
X119967813Y-130721658D01*
X120104395Y-130665084D01*
X120227316Y-130582951D01*
X120331851Y-130478416D01*
X120413984Y-130355495D01*
X120470558Y-130218913D01*
X120486195Y-130140301D01*
X120499400Y-130073920D01*
X120499400Y-129926079D01*
X120470559Y-129781092D01*
X120470558Y-129781091D01*
X120470558Y-129781087D01*
X120444450Y-129718056D01*
X120413987Y-129644511D01*
X120413980Y-129644498D01*
X120331851Y-129521584D01*
X120331848Y-129521580D01*
X120227319Y-129417051D01*
X120227315Y-129417048D01*
X120104401Y-129334919D01*
X120104388Y-129334912D01*
X119967817Y-129278343D01*
X119967807Y-129278340D01*
X119822820Y-129249500D01*
X119822818Y-129249500D01*
X119674982Y-129249500D01*
X119674980Y-129249500D01*
X119529992Y-129278340D01*
X119529982Y-129278343D01*
X119393411Y-129334912D01*
X119393398Y-129334919D01*
X119270484Y-129417048D01*
X119270480Y-129417051D01*
X119165951Y-129521580D01*
X119165948Y-129521584D01*
X119083819Y-129644498D01*
X119083812Y-129644511D01*
X119027243Y-129781082D01*
X119027240Y-129781092D01*
X118998400Y-129926079D01*
X118998400Y-129926082D01*
X118998400Y-130073918D01*
X118998400Y-130073920D01*
X118998399Y-130073920D01*
X119027240Y-130218907D01*
X119027243Y-130218917D01*
X119040111Y-130249983D01*
X119047580Y-130319453D01*
X119016304Y-130381932D01*
X118956215Y-130417584D01*
X118886390Y-130415089D01*
X118837869Y-130385116D01*
X115918284Y-127465531D01*
X115918282Y-127465529D01*
X115859279Y-127431463D01*
X115837219Y-127418726D01*
X115792010Y-127406613D01*
X115746803Y-127394500D01*
X115746802Y-127394500D01*
X107498615Y-127394500D01*
X107431576Y-127374815D01*
X107410934Y-127358181D01*
X107086819Y-127034066D01*
X107053334Y-126972743D01*
X107050500Y-126946385D01*
X107050500Y-126877527D01*
X107050500Y-126877525D01*
X107012984Y-126737515D01*
X107010646Y-126733466D01*
X106940511Y-126611988D01*
X106935562Y-126605539D01*
X106936630Y-126604719D01*
X106907220Y-126550858D01*
X106912204Y-126481166D01*
X106954076Y-126425233D01*
X107019540Y-126400816D01*
X107028386Y-126400500D01*
X110926000Y-126400500D01*
X110993039Y-126420185D01*
X111038794Y-126472989D01*
X111050000Y-126524500D01*
X111050000Y-127100000D01*
X113550000Y-127100000D01*
X113550000Y-126524500D01*
X113569685Y-126457461D01*
X113622489Y-126411706D01*
X113674000Y-126400500D01*
X118426000Y-126400500D01*
X118493039Y-126420185D01*
X118538794Y-126472989D01*
X118550000Y-126524500D01*
X118550000Y-127100000D01*
X121100000Y-127100000D01*
X121100000Y-120600000D01*
X121043154Y-120600000D01*
X120976115Y-120580315D01*
X120930360Y-120527511D01*
X120920416Y-120458353D01*
X120925223Y-120437682D01*
X120972022Y-120293650D01*
X120972022Y-120293647D01*
X121002900Y-120098697D01*
X121002900Y-119901302D01*
X120972023Y-119706353D01*
X120911026Y-119518626D01*
X120821420Y-119342768D01*
X120821412Y-119342755D01*
X120795442Y-119307010D01*
X120795441Y-119307009D01*
X120231862Y-119870589D01*
X120214825Y-119807007D01*
X120148999Y-119692993D01*
X120055907Y-119599901D01*
X119941893Y-119534075D01*
X119878309Y-119517037D01*
X120441889Y-118953457D01*
X120406139Y-118927483D01*
X120230269Y-118837872D01*
X120214723Y-118832820D01*
X120157050Y-118793380D01*
X120129855Y-118729020D01*
X120141772Y-118660174D01*
X120184158Y-118611788D01*
X120227316Y-118582951D01*
X120331851Y-118478416D01*
X120413984Y-118355495D01*
X120470558Y-118218913D01*
X120481183Y-118165499D01*
X120499400Y-118073920D01*
X120499400Y-117926079D01*
X120470559Y-117781092D01*
X120470558Y-117781091D01*
X120470558Y-117781087D01*
X120470556Y-117781082D01*
X120413987Y-117644511D01*
X120413980Y-117644498D01*
X120331851Y-117521584D01*
X120331848Y-117521580D01*
X120227319Y-117417051D01*
X120227315Y-117417048D01*
X120104401Y-117334919D01*
X120104388Y-117334912D01*
X119967817Y-117278343D01*
X119967807Y-117278340D01*
X119822820Y-117249500D01*
X119822818Y-117249500D01*
X119674982Y-117249500D01*
X119674980Y-117249500D01*
X119529992Y-117278340D01*
X119529982Y-117278343D01*
X119393411Y-117334912D01*
X119393398Y-117334919D01*
X119270484Y-117417048D01*
X119270480Y-117417051D01*
X119165951Y-117521580D01*
X119165948Y-117521584D01*
X119083819Y-117644498D01*
X119083812Y-117644511D01*
X119027243Y-117781082D01*
X119027240Y-117781092D01*
X118998400Y-117926079D01*
X118998400Y-117926082D01*
X118998400Y-118073918D01*
X118998400Y-118073920D01*
X118998399Y-118073920D01*
X119027240Y-118218907D01*
X119027243Y-118218917D01*
X119083812Y-118355488D01*
X119083819Y-118355501D01*
X119165948Y-118478415D01*
X119165951Y-118478419D01*
X119270480Y-118582948D01*
X119270488Y-118582954D01*
X119313642Y-118611789D01*
X119358448Y-118665401D01*
X119367155Y-118734726D01*
X119337001Y-118797753D01*
X119283077Y-118832820D01*
X119267528Y-118837872D01*
X119091662Y-118927482D01*
X119091660Y-118927483D01*
X119055910Y-118953456D01*
X119055910Y-118953457D01*
X119619491Y-119517037D01*
X119555907Y-119534075D01*
X119441893Y-119599901D01*
X119348801Y-119692993D01*
X119282975Y-119807007D01*
X119265937Y-119870590D01*
X118702357Y-119307010D01*
X118702356Y-119307010D01*
X118676383Y-119342760D01*
X118676382Y-119342762D01*
X118586773Y-119518626D01*
X118525776Y-119706353D01*
X118494900Y-119901302D01*
X118494900Y-120098697D01*
X118525777Y-120293647D01*
X118525777Y-120293650D01*
X118583365Y-120470885D01*
X118585360Y-120540726D01*
X118553116Y-120596883D01*
X118550000Y-120599999D01*
X118550000Y-125475500D01*
X118530315Y-125542539D01*
X118477511Y-125588294D01*
X118426000Y-125599500D01*
X113674000Y-125599500D01*
X113606961Y-125579815D01*
X113561206Y-125527011D01*
X113550000Y-125475500D01*
X113550000Y-120600000D01*
X113542224Y-120592224D01*
X113501665Y-120580315D01*
X113455910Y-120527511D01*
X113445966Y-120458353D01*
X113450773Y-120437682D01*
X113497572Y-120293650D01*
X113497572Y-120293647D01*
X113528450Y-120098697D01*
X113528450Y-119901302D01*
X113497573Y-119706353D01*
X113436576Y-119518626D01*
X113346970Y-119342768D01*
X113346962Y-119342755D01*
X113320992Y-119307010D01*
X113320991Y-119307009D01*
X112757412Y-119870589D01*
X112740375Y-119807007D01*
X112674549Y-119692993D01*
X112581457Y-119599901D01*
X112467443Y-119534075D01*
X112403859Y-119517037D01*
X112967439Y-118953457D01*
X112931689Y-118927483D01*
X112755819Y-118837872D01*
X112740273Y-118832820D01*
X112682600Y-118793380D01*
X112655405Y-118729020D01*
X112667322Y-118660174D01*
X112709708Y-118611788D01*
X112752866Y-118582951D01*
X112857401Y-118478416D01*
X112939534Y-118355495D01*
X112996108Y-118218913D01*
X113006733Y-118165499D01*
X113024950Y-118073920D01*
X113024950Y-117926079D01*
X112996109Y-117781092D01*
X112996108Y-117781091D01*
X112996108Y-117781087D01*
X112996106Y-117781082D01*
X112939537Y-117644511D01*
X112939530Y-117644498D01*
X112857401Y-117521584D01*
X112857398Y-117521580D01*
X112752869Y-117417051D01*
X112752865Y-117417048D01*
X112629951Y-117334919D01*
X112629938Y-117334912D01*
X112493367Y-117278343D01*
X112493357Y-117278340D01*
X112348370Y-117249500D01*
X112348368Y-117249500D01*
X112200532Y-117249500D01*
X112200530Y-117249500D01*
X112055542Y-117278340D01*
X112055532Y-117278343D01*
X111918961Y-117334912D01*
X111918948Y-117334919D01*
X111796034Y-117417048D01*
X111796030Y-117417051D01*
X111691501Y-117521580D01*
X111691498Y-117521584D01*
X111609369Y-117644498D01*
X111609362Y-117644511D01*
X111552793Y-117781082D01*
X111552790Y-117781092D01*
X111523950Y-117926079D01*
X111523950Y-117926082D01*
X111523950Y-118073918D01*
X111523950Y-118073920D01*
X111523949Y-118073920D01*
X111552790Y-118218907D01*
X111552793Y-118218917D01*
X111609362Y-118355488D01*
X111609369Y-118355501D01*
X111691498Y-118478415D01*
X111691501Y-118478419D01*
X111796030Y-118582948D01*
X111796038Y-118582954D01*
X111839192Y-118611789D01*
X111883998Y-118665401D01*
X111892705Y-118734726D01*
X111862551Y-118797753D01*
X111808627Y-118832820D01*
X111793078Y-118837872D01*
X111617212Y-118927482D01*
X111617210Y-118927483D01*
X111581460Y-118953456D01*
X111581460Y-118953457D01*
X112145041Y-119517037D01*
X112081457Y-119534075D01*
X111967443Y-119599901D01*
X111874351Y-119692993D01*
X111808525Y-119807007D01*
X111791487Y-119870590D01*
X111227907Y-119307010D01*
X111227906Y-119307010D01*
X111201933Y-119342760D01*
X111201932Y-119342762D01*
X111112323Y-119518626D01*
X111051326Y-119706353D01*
X111020450Y-119901302D01*
X111020450Y-120098697D01*
X111051327Y-120293647D01*
X111051327Y-120293650D01*
X111102649Y-120451601D01*
X111104644Y-120521442D01*
X111072400Y-120577599D01*
X111050000Y-120599999D01*
X111050000Y-125475500D01*
X111030315Y-125542539D01*
X110977511Y-125588294D01*
X110926000Y-125599500D01*
X106074000Y-125599500D01*
X106006961Y-125579815D01*
X105961206Y-125527011D01*
X105950000Y-125475500D01*
X105950000Y-120573649D01*
X105948211Y-120570373D01*
X105953195Y-120500681D01*
X105958893Y-120487719D01*
X105962125Y-120481375D01*
X106023123Y-120293646D01*
X106054000Y-120098697D01*
X106054000Y-119901302D01*
X106023123Y-119706353D01*
X105962126Y-119518626D01*
X105872520Y-119342768D01*
X105872512Y-119342755D01*
X105846542Y-119307010D01*
X105846541Y-119307009D01*
X105282962Y-119870589D01*
X105265925Y-119807007D01*
X105200099Y-119692993D01*
X105107007Y-119599901D01*
X104992993Y-119534075D01*
X104929409Y-119517037D01*
X105492989Y-118953457D01*
X105457239Y-118927483D01*
X105281369Y-118837872D01*
X105265823Y-118832820D01*
X105208150Y-118793380D01*
X105180955Y-118729020D01*
X105192872Y-118660174D01*
X105235258Y-118611788D01*
X105278416Y-118582951D01*
X105382951Y-118478416D01*
X105465084Y-118355495D01*
X105521658Y-118218913D01*
X105532283Y-118165499D01*
X105550500Y-118073920D01*
X105550500Y-117926079D01*
X105521659Y-117781092D01*
X105521658Y-117781091D01*
X105521658Y-117781087D01*
X105521656Y-117781082D01*
X105465087Y-117644511D01*
X105465080Y-117644498D01*
X105382951Y-117521584D01*
X105382948Y-117521580D01*
X105278419Y-117417051D01*
X105278415Y-117417048D01*
X105155501Y-117334919D01*
X105155488Y-117334912D01*
X105018917Y-117278343D01*
X105018907Y-117278340D01*
X104873920Y-117249500D01*
X104873918Y-117249500D01*
X104726082Y-117249500D01*
X104726080Y-117249500D01*
X104581092Y-117278340D01*
X104581082Y-117278343D01*
X104444511Y-117334912D01*
X104444498Y-117334919D01*
X104321584Y-117417048D01*
X104321580Y-117417051D01*
X104217051Y-117521580D01*
X104217048Y-117521584D01*
X104134919Y-117644498D01*
X104134912Y-117644511D01*
X104078343Y-117781082D01*
X104078340Y-117781092D01*
X104049500Y-117926079D01*
X104049500Y-117926082D01*
X104049500Y-118073918D01*
X104049500Y-118073920D01*
X104049499Y-118073920D01*
X104078340Y-118218907D01*
X104078343Y-118218917D01*
X104134912Y-118355488D01*
X104134919Y-118355501D01*
X104217048Y-118478415D01*
X104217051Y-118478419D01*
X104321580Y-118582948D01*
X104321588Y-118582954D01*
X104364742Y-118611789D01*
X104409548Y-118665401D01*
X104418255Y-118734726D01*
X104388101Y-118797753D01*
X104334177Y-118832820D01*
X104318628Y-118837872D01*
X104142762Y-118927482D01*
X104142760Y-118927483D01*
X104107010Y-118953456D01*
X104107010Y-118953457D01*
X104670591Y-119517037D01*
X104607007Y-119534075D01*
X104492993Y-119599901D01*
X104399901Y-119692993D01*
X104334075Y-119807007D01*
X104317037Y-119870590D01*
X103753457Y-119307010D01*
X103753456Y-119307010D01*
X103727483Y-119342760D01*
X103727482Y-119342762D01*
X103637873Y-119518626D01*
X103576876Y-119706353D01*
X103546000Y-119901302D01*
X96254500Y-119901302D01*
X96254500Y-111811424D01*
X96257210Y-111794734D01*
X96255921Y-111794572D01*
X96257446Y-111782461D01*
X96257449Y-111782455D01*
X96254500Y-111740963D01*
X96254500Y-111699377D01*
X96250931Y-111690764D01*
X96250271Y-111681466D01*
X96250271Y-111681463D01*
X96233643Y-111648207D01*
X96229991Y-111640206D01*
X96229989Y-111640200D01*
X96215755Y-111605837D01*
X96209160Y-111599242D01*
X96204992Y-111590906D01*
X96173577Y-111563659D01*
X96144163Y-111534245D01*
X96144162Y-111534244D01*
X96136508Y-111529129D01*
X96128507Y-111524568D01*
X96093216Y-111512804D01*
X96093216Y-111512803D01*
X96089028Y-111511407D01*
X96050623Y-111495500D01*
X96041304Y-111495500D01*
X96032454Y-111492550D01*
X95998324Y-111494976D01*
X95995354Y-111495188D01*
X95995353Y-111495188D01*
X95990962Y-111495500D01*
X95949377Y-111495500D01*
X95940764Y-111499067D01*
X95931464Y-111499728D01*
X95931461Y-111499729D01*
X95898198Y-111516359D01*
X95890207Y-111520007D01*
X95855835Y-111534245D01*
X95845683Y-111541029D01*
X95844965Y-111539954D01*
X95831248Y-111549836D01*
X94433953Y-112248483D01*
X94365189Y-112260858D01*
X94300650Y-112234090D01*
X94260828Y-112176680D01*
X94254500Y-112137574D01*
X94254500Y-110003480D01*
X94254695Y-109996528D01*
X94258441Y-109929815D01*
X94271373Y-109699543D01*
X94272927Y-109685747D01*
X94322169Y-109395931D01*
X94325262Y-109382379D01*
X94406641Y-109099907D01*
X94411234Y-109086782D01*
X94523730Y-108815191D01*
X94529749Y-108802692D01*
X94671953Y-108545395D01*
X94679348Y-108533627D01*
X94849458Y-108293879D01*
X94858114Y-108283025D01*
X95054008Y-108063818D01*
X95063818Y-108054008D01*
X95283025Y-107858114D01*
X95293879Y-107849458D01*
X95533632Y-107679344D01*
X95545395Y-107671953D01*
X95802692Y-107529749D01*
X95815191Y-107523730D01*
X96086786Y-107411232D01*
X96099903Y-107406642D01*
X96382384Y-107325260D01*
X96395931Y-107322169D01*
X96685747Y-107272927D01*
X96699543Y-107271373D01*
X96963262Y-107256563D01*
X96996529Y-107254695D01*
X97003481Y-107254500D01*
X97044875Y-107254500D01*
X223955125Y-107254500D01*
X223996519Y-107254500D01*
X224003471Y-107254695D01*
G37*
%TD.AperFunction*%
%TD*%
M02*
