M48
; DRILL file {KiCad 9.0.7} date 2026-04-16T10:53:18+0100
; FORMAT={-:-/ absolute / inch / decimal}
; #@! TF.CreationDate,2026-04-16T10:53:18+01:00
; #@! TF.GenerationSoftware,Kicad,Pcbnew,9.0.7
; #@! TF.FileFunction,Plated,1,2,PTH
FMAT,2
INCH
; #@! TA.AperFunction,Plated,PTH,ViaDrill
T1C0.0118
; #@! TA.AperFunction,Plated,PTH,ComponentDrill
T2C0.0394
; #@! TA.AperFunction,Plated,PTH,ViaDrill
T3C0.1299
%
G90
G05
T1
X4.1929Y-4.998
X4.2402Y-5.065
X4.311Y-4.5235
X4.313Y-5.1634
X4.4921Y-5.1122
X4.4941Y-5.1673
X4.5433Y-4.7894
X4.5689Y-4.5906
X4.5886Y-5.1555
X4.7913Y-5.0315
X4.8307Y-5.1339
X5.0906Y-4.6417
X5.4724Y-5.0669
X6.4646Y-4.5768
X6.4744Y-5.0748
X6.5591Y-4.6713
X6.7205Y-5.5335
X7.5551Y-4.6909
X7.565Y-4.8976
X7.5728Y-5.1535
X7.752Y-5.437
X7.7913Y-4.9665
X7.8031Y-5.0669
X7.8169Y-5.1083
X7.8346Y-5.4843
X7.8465Y-4.5256
X7.9075Y-5.0374
X7.9213Y-4.5531
X7.9398Y-4.978
X7.9567Y-4.3898
X7.9724Y-5.3031
X8.0Y-5.2717
X8.0256Y-4.5787
X8.0256Y-5.2461
X8.0512Y-5.2933
X8.0551Y-4.6102
X8.0807Y-5.3209
X8.0866Y-4.6358
X8.1142Y-5.3543
X8.1437Y-5.3169
X8.1457Y-4.498
X8.1752Y-5.0728
X8.1772Y-5.5413
X8.2264Y-5.1358
X8.2618Y-5.1142
X8.2894Y-5.0374
X8.3051Y-5.1358
X8.3366Y-4.8819
X8.3406Y-4.9685
X8.3445Y-5.0295
X8.378Y-5.1811
X8.3839Y-5.0728
X8.4252Y-5.0138
T2
X4.126Y-4.7244
X4.126Y-4.8031
X4.126Y-4.8819
X4.126Y-4.9606
X4.4203Y-4.7244
X4.4203Y-4.8031
X4.4203Y-4.8819
X4.4203Y-4.9606
X4.7145Y-4.7244
X4.7145Y-4.8031
X4.7145Y-4.8819
X4.7145Y-4.9606
X7.7126Y-4.7636
X7.7126Y-4.8424
X7.7126Y-4.9211
X7.9685Y-4.7636
X7.9685Y-4.8424
X7.9685Y-4.9211
X8.2244Y-4.7636
X8.2244Y-4.8424
X8.2244Y-4.9211
X8.4803Y-4.7636
X8.4803Y-4.8424
X8.4803Y-4.9211
T3
X3.9339Y-4.3835
X3.9339Y-5.3673
X8.6977Y-4.3835
X8.6977Y-5.3673
M30
