%TF.GenerationSoftware,KiCad,Pcbnew,9.0.7*%
%TF.CreationDate,2026-04-16T10:54:11+01:00*%
%TF.ProjectId,stepperdriver front panel,73746570-7065-4726-9472-697665722066,rev?*%
%TF.SameCoordinates,Original*%
%TF.FileFunction,AssemblyDrawing,Bot*%
%FSLAX46Y46*%
G04 Gerber Fmt 4.6, Leading zero omitted, Abs format (unit mm)*
G04 Created by KiCad (PCBNEW 9.0.7) date 2026-04-16 10:54:11*
%MOMM*%
%LPD*%
G01*
G04 APERTURE LIST*
%ADD10C,0.150000*%
%ADD11C,0.040000*%
%ADD12C,0.060000*%
%ADD13C,0.100000*%
G04 APERTURE END LIST*
D10*
X207774819Y-117716667D02*
X206774819Y-117716667D01*
X206774819Y-117716667D02*
X206774819Y-118097619D01*
X206774819Y-118097619D02*
X206822438Y-118192857D01*
X206822438Y-118192857D02*
X206870057Y-118240476D01*
X206870057Y-118240476D02*
X206965295Y-118288095D01*
X206965295Y-118288095D02*
X207108152Y-118288095D01*
X207108152Y-118288095D02*
X207203390Y-118240476D01*
X207203390Y-118240476D02*
X207251009Y-118192857D01*
X207251009Y-118192857D02*
X207298628Y-118097619D01*
X207298628Y-118097619D02*
X207298628Y-117716667D01*
X207774819Y-118716667D02*
X206774819Y-118716667D01*
X206774819Y-118716667D02*
X206774819Y-118954762D01*
X206774819Y-118954762D02*
X206822438Y-119097619D01*
X206822438Y-119097619D02*
X206917676Y-119192857D01*
X206917676Y-119192857D02*
X207012914Y-119240476D01*
X207012914Y-119240476D02*
X207203390Y-119288095D01*
X207203390Y-119288095D02*
X207346247Y-119288095D01*
X207346247Y-119288095D02*
X207536723Y-119240476D01*
X207536723Y-119240476D02*
X207631961Y-119192857D01*
X207631961Y-119192857D02*
X207727200Y-119097619D01*
X207727200Y-119097619D02*
X207774819Y-118954762D01*
X207774819Y-118954762D02*
X207774819Y-118716667D01*
X207774819Y-119859524D02*
X207727200Y-119764286D01*
X207727200Y-119764286D02*
X207679580Y-119716667D01*
X207679580Y-119716667D02*
X207584342Y-119669048D01*
X207584342Y-119669048D02*
X207298628Y-119669048D01*
X207298628Y-119669048D02*
X207203390Y-119716667D01*
X207203390Y-119716667D02*
X207155771Y-119764286D01*
X207155771Y-119764286D02*
X207108152Y-119859524D01*
X207108152Y-119859524D02*
X207108152Y-120002381D01*
X207108152Y-120002381D02*
X207155771Y-120097619D01*
X207155771Y-120097619D02*
X207203390Y-120145238D01*
X207203390Y-120145238D02*
X207298628Y-120192857D01*
X207298628Y-120192857D02*
X207584342Y-120192857D01*
X207584342Y-120192857D02*
X207679580Y-120145238D01*
X207679580Y-120145238D02*
X207727200Y-120097619D01*
X207727200Y-120097619D02*
X207774819Y-120002381D01*
X207774819Y-120002381D02*
X207774819Y-119859524D01*
X207108152Y-120526191D02*
X207774819Y-120716667D01*
X207774819Y-120716667D02*
X207298628Y-120907143D01*
X207298628Y-120907143D02*
X207774819Y-121097619D01*
X207774819Y-121097619D02*
X207108152Y-121288095D01*
X207108152Y-121669048D02*
X207774819Y-121669048D01*
X207203390Y-121669048D02*
X207155771Y-121716667D01*
X207155771Y-121716667D02*
X207108152Y-121811905D01*
X207108152Y-121811905D02*
X207108152Y-121954762D01*
X207108152Y-121954762D02*
X207155771Y-122050000D01*
X207155771Y-122050000D02*
X207251009Y-122097619D01*
X207251009Y-122097619D02*
X207774819Y-122097619D01*
X207774819Y-123335715D02*
X206774819Y-123335715D01*
X206774819Y-123335715D02*
X206774819Y-123573810D01*
X206774819Y-123573810D02*
X206822438Y-123716667D01*
X206822438Y-123716667D02*
X206917676Y-123811905D01*
X206917676Y-123811905D02*
X207012914Y-123859524D01*
X207012914Y-123859524D02*
X207203390Y-123907143D01*
X207203390Y-123907143D02*
X207346247Y-123907143D01*
X207346247Y-123907143D02*
X207536723Y-123859524D01*
X207536723Y-123859524D02*
X207631961Y-123811905D01*
X207631961Y-123811905D02*
X207727200Y-123716667D01*
X207727200Y-123716667D02*
X207774819Y-123573810D01*
X207774819Y-123573810D02*
X207774819Y-123335715D01*
X207774819Y-124335715D02*
X206774819Y-124335715D01*
X206774819Y-124335715D02*
X207774819Y-124907143D01*
X207774819Y-124907143D02*
X206774819Y-124907143D01*
X207774819Y-125383334D02*
X206774819Y-125383334D01*
D11*
X206268200Y-121506667D02*
X206144391Y-121420000D01*
X206268200Y-121358095D02*
X206008200Y-121358095D01*
X206008200Y-121358095D02*
X206008200Y-121457143D01*
X206008200Y-121457143D02*
X206020581Y-121481905D01*
X206020581Y-121481905D02*
X206032962Y-121494286D01*
X206032962Y-121494286D02*
X206057724Y-121506667D01*
X206057724Y-121506667D02*
X206094867Y-121506667D01*
X206094867Y-121506667D02*
X206119629Y-121494286D01*
X206119629Y-121494286D02*
X206132010Y-121481905D01*
X206132010Y-121481905D02*
X206144391Y-121457143D01*
X206144391Y-121457143D02*
X206144391Y-121358095D01*
X206008200Y-121729524D02*
X206008200Y-121680000D01*
X206008200Y-121680000D02*
X206020581Y-121655238D01*
X206020581Y-121655238D02*
X206032962Y-121642857D01*
X206032962Y-121642857D02*
X206070105Y-121618095D01*
X206070105Y-121618095D02*
X206119629Y-121605714D01*
X206119629Y-121605714D02*
X206218677Y-121605714D01*
X206218677Y-121605714D02*
X206243439Y-121618095D01*
X206243439Y-121618095D02*
X206255820Y-121630476D01*
X206255820Y-121630476D02*
X206268200Y-121655238D01*
X206268200Y-121655238D02*
X206268200Y-121704762D01*
X206268200Y-121704762D02*
X206255820Y-121729524D01*
X206255820Y-121729524D02*
X206243439Y-121741905D01*
X206243439Y-121741905D02*
X206218677Y-121754286D01*
X206218677Y-121754286D02*
X206156772Y-121754286D01*
X206156772Y-121754286D02*
X206132010Y-121741905D01*
X206132010Y-121741905D02*
X206119629Y-121729524D01*
X206119629Y-121729524D02*
X206107248Y-121704762D01*
X206107248Y-121704762D02*
X206107248Y-121655238D01*
X206107248Y-121655238D02*
X206119629Y-121630476D01*
X206119629Y-121630476D02*
X206132010Y-121618095D01*
X206132010Y-121618095D02*
X206156772Y-121605714D01*
D10*
X203534819Y-129102381D02*
X203534819Y-129197619D01*
X203534819Y-129197619D02*
X203582438Y-129292857D01*
X203582438Y-129292857D02*
X203630057Y-129340476D01*
X203630057Y-129340476D02*
X203725295Y-129388095D01*
X203725295Y-129388095D02*
X203915771Y-129435714D01*
X203915771Y-129435714D02*
X204153866Y-129435714D01*
X204153866Y-129435714D02*
X204344342Y-129388095D01*
X204344342Y-129388095D02*
X204439580Y-129340476D01*
X204439580Y-129340476D02*
X204487200Y-129292857D01*
X204487200Y-129292857D02*
X204534819Y-129197619D01*
X204534819Y-129197619D02*
X204534819Y-129102381D01*
X204534819Y-129102381D02*
X204487200Y-129007143D01*
X204487200Y-129007143D02*
X204439580Y-128959524D01*
X204439580Y-128959524D02*
X204344342Y-128911905D01*
X204344342Y-128911905D02*
X204153866Y-128864286D01*
X204153866Y-128864286D02*
X203915771Y-128864286D01*
X203915771Y-128864286D02*
X203725295Y-128911905D01*
X203725295Y-128911905D02*
X203630057Y-128959524D01*
X203630057Y-128959524D02*
X203582438Y-129007143D01*
X203582438Y-129007143D02*
X203534819Y-129102381D01*
X204534819Y-130435714D02*
X204058628Y-130102381D01*
X204534819Y-129864286D02*
X203534819Y-129864286D01*
X203534819Y-129864286D02*
X203534819Y-130245238D01*
X203534819Y-130245238D02*
X203582438Y-130340476D01*
X203582438Y-130340476D02*
X203630057Y-130388095D01*
X203630057Y-130388095D02*
X203725295Y-130435714D01*
X203725295Y-130435714D02*
X203868152Y-130435714D01*
X203868152Y-130435714D02*
X203963390Y-130388095D01*
X203963390Y-130388095D02*
X204011009Y-130340476D01*
X204011009Y-130340476D02*
X204058628Y-130245238D01*
X204058628Y-130245238D02*
X204058628Y-129864286D01*
D12*
X202831927Y-129583333D02*
X202641451Y-129450000D01*
X202831927Y-129354762D02*
X202431927Y-129354762D01*
X202431927Y-129354762D02*
X202431927Y-129507143D01*
X202431927Y-129507143D02*
X202450975Y-129545238D01*
X202450975Y-129545238D02*
X202470022Y-129564285D01*
X202470022Y-129564285D02*
X202508118Y-129583333D01*
X202508118Y-129583333D02*
X202565260Y-129583333D01*
X202565260Y-129583333D02*
X202603356Y-129564285D01*
X202603356Y-129564285D02*
X202622403Y-129545238D01*
X202622403Y-129545238D02*
X202641451Y-129507143D01*
X202641451Y-129507143D02*
X202641451Y-129354762D01*
X202431927Y-129716666D02*
X202431927Y-129964285D01*
X202431927Y-129964285D02*
X202584308Y-129830952D01*
X202584308Y-129830952D02*
X202584308Y-129888095D01*
X202584308Y-129888095D02*
X202603356Y-129926190D01*
X202603356Y-129926190D02*
X202622403Y-129945238D01*
X202622403Y-129945238D02*
X202660499Y-129964285D01*
X202660499Y-129964285D02*
X202755737Y-129964285D01*
X202755737Y-129964285D02*
X202793832Y-129945238D01*
X202793832Y-129945238D02*
X202812880Y-129926190D01*
X202812880Y-129926190D02*
X202831927Y-129888095D01*
X202831927Y-129888095D02*
X202831927Y-129773809D01*
X202831927Y-129773809D02*
X202812880Y-129735714D01*
X202812880Y-129735714D02*
X202793832Y-129716666D01*
D10*
X191954761Y-117279819D02*
X191288095Y-118279819D01*
X191288095Y-117279819D02*
X191954761Y-118279819D01*
X191002380Y-117279819D02*
X190335714Y-117279819D01*
X190335714Y-117279819D02*
X191002380Y-118279819D01*
X191002380Y-118279819D02*
X190335714Y-118279819D01*
X189954761Y-118279819D02*
X189954761Y-117279819D01*
X189954761Y-117279819D02*
X189621428Y-117994104D01*
X189621428Y-117994104D02*
X189288095Y-117279819D01*
X189288095Y-117279819D02*
X189288095Y-118279819D01*
X188811904Y-118279819D02*
X188811904Y-117279819D01*
X188811904Y-117279819D02*
X188573809Y-117279819D01*
X188573809Y-117279819D02*
X188430952Y-117327438D01*
X188430952Y-117327438D02*
X188335714Y-117422676D01*
X188335714Y-117422676D02*
X188288095Y-117517914D01*
X188288095Y-117517914D02*
X188240476Y-117708390D01*
X188240476Y-117708390D02*
X188240476Y-117851247D01*
X188240476Y-117851247D02*
X188288095Y-118041723D01*
X188288095Y-118041723D02*
X188335714Y-118136961D01*
X188335714Y-118136961D02*
X188430952Y-118232200D01*
X188430952Y-118232200D02*
X188573809Y-118279819D01*
X188573809Y-118279819D02*
X188811904Y-118279819D01*
X187811904Y-118279819D02*
X187811904Y-117279819D01*
X187240476Y-118279819D02*
X187669047Y-117708390D01*
X187240476Y-117279819D02*
X187811904Y-117851247D01*
X186240476Y-118184580D02*
X186288095Y-118232200D01*
X186288095Y-118232200D02*
X186430952Y-118279819D01*
X186430952Y-118279819D02*
X186526190Y-118279819D01*
X186526190Y-118279819D02*
X186669047Y-118232200D01*
X186669047Y-118232200D02*
X186764285Y-118136961D01*
X186764285Y-118136961D02*
X186811904Y-118041723D01*
X186811904Y-118041723D02*
X186859523Y-117851247D01*
X186859523Y-117851247D02*
X186859523Y-117708390D01*
X186859523Y-117708390D02*
X186811904Y-117517914D01*
X186811904Y-117517914D02*
X186764285Y-117422676D01*
X186764285Y-117422676D02*
X186669047Y-117327438D01*
X186669047Y-117327438D02*
X186526190Y-117279819D01*
X186526190Y-117279819D02*
X186430952Y-117279819D01*
X186430952Y-117279819D02*
X186288095Y-117327438D01*
X186288095Y-117327438D02*
X186240476Y-117375057D01*
X185478571Y-117756009D02*
X185335714Y-117803628D01*
X185335714Y-117803628D02*
X185288095Y-117851247D01*
X185288095Y-117851247D02*
X185240476Y-117946485D01*
X185240476Y-117946485D02*
X185240476Y-118089342D01*
X185240476Y-118089342D02*
X185288095Y-118184580D01*
X185288095Y-118184580D02*
X185335714Y-118232200D01*
X185335714Y-118232200D02*
X185430952Y-118279819D01*
X185430952Y-118279819D02*
X185811904Y-118279819D01*
X185811904Y-118279819D02*
X185811904Y-117279819D01*
X185811904Y-117279819D02*
X185478571Y-117279819D01*
X185478571Y-117279819D02*
X185383333Y-117327438D01*
X185383333Y-117327438D02*
X185335714Y-117375057D01*
X185335714Y-117375057D02*
X185288095Y-117470295D01*
X185288095Y-117470295D02*
X185288095Y-117565533D01*
X185288095Y-117565533D02*
X185335714Y-117660771D01*
X185335714Y-117660771D02*
X185383333Y-117708390D01*
X185383333Y-117708390D02*
X185478571Y-117756009D01*
X185478571Y-117756009D02*
X185811904Y-117756009D01*
X184811904Y-118279819D02*
X184811904Y-117279819D01*
X184811904Y-117279819D02*
X184573809Y-117279819D01*
X184573809Y-117279819D02*
X184430952Y-117327438D01*
X184430952Y-117327438D02*
X184335714Y-117422676D01*
X184335714Y-117422676D02*
X184288095Y-117517914D01*
X184288095Y-117517914D02*
X184240476Y-117708390D01*
X184240476Y-117708390D02*
X184240476Y-117851247D01*
X184240476Y-117851247D02*
X184288095Y-118041723D01*
X184288095Y-118041723D02*
X184335714Y-118136961D01*
X184335714Y-118136961D02*
X184430952Y-118232200D01*
X184430952Y-118232200D02*
X184573809Y-118279819D01*
X184573809Y-118279819D02*
X184811904Y-118279819D01*
X183811904Y-118279819D02*
X183811904Y-117279819D01*
X183811904Y-117279819D02*
X183573809Y-117279819D01*
X183573809Y-117279819D02*
X183430952Y-117327438D01*
X183430952Y-117327438D02*
X183335714Y-117422676D01*
X183335714Y-117422676D02*
X183288095Y-117517914D01*
X183288095Y-117517914D02*
X183240476Y-117708390D01*
X183240476Y-117708390D02*
X183240476Y-117851247D01*
X183240476Y-117851247D02*
X183288095Y-118041723D01*
X183288095Y-118041723D02*
X183335714Y-118136961D01*
X183335714Y-118136961D02*
X183430952Y-118232200D01*
X183430952Y-118232200D02*
X183573809Y-118279819D01*
X183573809Y-118279819D02*
X183811904Y-118279819D01*
X182288095Y-117327438D02*
X182383333Y-117279819D01*
X182383333Y-117279819D02*
X182526190Y-117279819D01*
X182526190Y-117279819D02*
X182669047Y-117327438D01*
X182669047Y-117327438D02*
X182764285Y-117422676D01*
X182764285Y-117422676D02*
X182811904Y-117517914D01*
X182811904Y-117517914D02*
X182859523Y-117708390D01*
X182859523Y-117708390D02*
X182859523Y-117851247D01*
X182859523Y-117851247D02*
X182811904Y-118041723D01*
X182811904Y-118041723D02*
X182764285Y-118136961D01*
X182764285Y-118136961D02*
X182669047Y-118232200D01*
X182669047Y-118232200D02*
X182526190Y-118279819D01*
X182526190Y-118279819D02*
X182430952Y-118279819D01*
X182430952Y-118279819D02*
X182288095Y-118232200D01*
X182288095Y-118232200D02*
X182240476Y-118184580D01*
X182240476Y-118184580D02*
X182240476Y-117851247D01*
X182240476Y-117851247D02*
X182430952Y-117851247D01*
X181383333Y-117613152D02*
X181383333Y-118279819D01*
X181621428Y-117232200D02*
X181859523Y-117946485D01*
X181859523Y-117946485D02*
X181240476Y-117946485D01*
X180383333Y-117279819D02*
X180859523Y-117279819D01*
X180859523Y-117279819D02*
X180907142Y-117756009D01*
X180907142Y-117756009D02*
X180859523Y-117708390D01*
X180859523Y-117708390D02*
X180764285Y-117660771D01*
X180764285Y-117660771D02*
X180526190Y-117660771D01*
X180526190Y-117660771D02*
X180430952Y-117708390D01*
X180430952Y-117708390D02*
X180383333Y-117756009D01*
X180383333Y-117756009D02*
X180335714Y-117851247D01*
X180335714Y-117851247D02*
X180335714Y-118089342D01*
X180335714Y-118089342D02*
X180383333Y-118184580D01*
X180383333Y-118184580D02*
X180430952Y-118232200D01*
X180430952Y-118232200D02*
X180526190Y-118279819D01*
X180526190Y-118279819D02*
X180764285Y-118279819D01*
X180764285Y-118279819D02*
X180859523Y-118232200D01*
X180859523Y-118232200D02*
X180907142Y-118184580D01*
X179954761Y-118232200D02*
X179811904Y-118279819D01*
X179811904Y-118279819D02*
X179573809Y-118279819D01*
X179573809Y-118279819D02*
X179478571Y-118232200D01*
X179478571Y-118232200D02*
X179430952Y-118184580D01*
X179430952Y-118184580D02*
X179383333Y-118089342D01*
X179383333Y-118089342D02*
X179383333Y-117994104D01*
X179383333Y-117994104D02*
X179430952Y-117898866D01*
X179430952Y-117898866D02*
X179478571Y-117851247D01*
X179478571Y-117851247D02*
X179573809Y-117803628D01*
X179573809Y-117803628D02*
X179764285Y-117756009D01*
X179764285Y-117756009D02*
X179859523Y-117708390D01*
X179859523Y-117708390D02*
X179907142Y-117660771D01*
X179907142Y-117660771D02*
X179954761Y-117565533D01*
X179954761Y-117565533D02*
X179954761Y-117470295D01*
X179954761Y-117470295D02*
X179907142Y-117375057D01*
X179907142Y-117375057D02*
X179859523Y-117327438D01*
X179859523Y-117327438D02*
X179764285Y-117279819D01*
X179764285Y-117279819D02*
X179526190Y-117279819D01*
X179526190Y-117279819D02*
X179383333Y-117327438D01*
X178954761Y-117898866D02*
X178192857Y-117898866D01*
X177669047Y-118279819D02*
X177478571Y-118279819D01*
X177478571Y-118279819D02*
X177383333Y-118232200D01*
X177383333Y-118232200D02*
X177335714Y-118184580D01*
X177335714Y-118184580D02*
X177240476Y-118041723D01*
X177240476Y-118041723D02*
X177192857Y-117851247D01*
X177192857Y-117851247D02*
X177192857Y-117470295D01*
X177192857Y-117470295D02*
X177240476Y-117375057D01*
X177240476Y-117375057D02*
X177288095Y-117327438D01*
X177288095Y-117327438D02*
X177383333Y-117279819D01*
X177383333Y-117279819D02*
X177573809Y-117279819D01*
X177573809Y-117279819D02*
X177669047Y-117327438D01*
X177669047Y-117327438D02*
X177716666Y-117375057D01*
X177716666Y-117375057D02*
X177764285Y-117470295D01*
X177764285Y-117470295D02*
X177764285Y-117708390D01*
X177764285Y-117708390D02*
X177716666Y-117803628D01*
X177716666Y-117803628D02*
X177669047Y-117851247D01*
X177669047Y-117851247D02*
X177573809Y-117898866D01*
X177573809Y-117898866D02*
X177383333Y-117898866D01*
X177383333Y-117898866D02*
X177288095Y-117851247D01*
X177288095Y-117851247D02*
X177240476Y-117803628D01*
X177240476Y-117803628D02*
X177192857Y-117708390D01*
X206977380Y-115479819D02*
X206310714Y-116479819D01*
X206310714Y-115479819D02*
X206977380Y-116479819D01*
X206024999Y-115479819D02*
X205358333Y-115479819D01*
X205358333Y-115479819D02*
X206024999Y-116479819D01*
X206024999Y-116479819D02*
X205358333Y-116479819D01*
X204977380Y-116479819D02*
X204977380Y-115479819D01*
X204977380Y-115479819D02*
X204644047Y-116194104D01*
X204644047Y-116194104D02*
X204310714Y-115479819D01*
X204310714Y-115479819D02*
X204310714Y-116479819D01*
X203834523Y-116479819D02*
X203834523Y-115479819D01*
X203834523Y-115479819D02*
X203596428Y-115479819D01*
X203596428Y-115479819D02*
X203453571Y-115527438D01*
X203453571Y-115527438D02*
X203358333Y-115622676D01*
X203358333Y-115622676D02*
X203310714Y-115717914D01*
X203310714Y-115717914D02*
X203263095Y-115908390D01*
X203263095Y-115908390D02*
X203263095Y-116051247D01*
X203263095Y-116051247D02*
X203310714Y-116241723D01*
X203310714Y-116241723D02*
X203358333Y-116336961D01*
X203358333Y-116336961D02*
X203453571Y-116432200D01*
X203453571Y-116432200D02*
X203596428Y-116479819D01*
X203596428Y-116479819D02*
X203834523Y-116479819D01*
X202834523Y-116479819D02*
X202834523Y-115479819D01*
X202263095Y-116479819D02*
X202691666Y-115908390D01*
X202263095Y-115479819D02*
X202834523Y-116051247D01*
X201263095Y-116384580D02*
X201310714Y-116432200D01*
X201310714Y-116432200D02*
X201453571Y-116479819D01*
X201453571Y-116479819D02*
X201548809Y-116479819D01*
X201548809Y-116479819D02*
X201691666Y-116432200D01*
X201691666Y-116432200D02*
X201786904Y-116336961D01*
X201786904Y-116336961D02*
X201834523Y-116241723D01*
X201834523Y-116241723D02*
X201882142Y-116051247D01*
X201882142Y-116051247D02*
X201882142Y-115908390D01*
X201882142Y-115908390D02*
X201834523Y-115717914D01*
X201834523Y-115717914D02*
X201786904Y-115622676D01*
X201786904Y-115622676D02*
X201691666Y-115527438D01*
X201691666Y-115527438D02*
X201548809Y-115479819D01*
X201548809Y-115479819D02*
X201453571Y-115479819D01*
X201453571Y-115479819D02*
X201310714Y-115527438D01*
X201310714Y-115527438D02*
X201263095Y-115575057D01*
X200501190Y-115956009D02*
X200358333Y-116003628D01*
X200358333Y-116003628D02*
X200310714Y-116051247D01*
X200310714Y-116051247D02*
X200263095Y-116146485D01*
X200263095Y-116146485D02*
X200263095Y-116289342D01*
X200263095Y-116289342D02*
X200310714Y-116384580D01*
X200310714Y-116384580D02*
X200358333Y-116432200D01*
X200358333Y-116432200D02*
X200453571Y-116479819D01*
X200453571Y-116479819D02*
X200834523Y-116479819D01*
X200834523Y-116479819D02*
X200834523Y-115479819D01*
X200834523Y-115479819D02*
X200501190Y-115479819D01*
X200501190Y-115479819D02*
X200405952Y-115527438D01*
X200405952Y-115527438D02*
X200358333Y-115575057D01*
X200358333Y-115575057D02*
X200310714Y-115670295D01*
X200310714Y-115670295D02*
X200310714Y-115765533D01*
X200310714Y-115765533D02*
X200358333Y-115860771D01*
X200358333Y-115860771D02*
X200405952Y-115908390D01*
X200405952Y-115908390D02*
X200501190Y-115956009D01*
X200501190Y-115956009D02*
X200834523Y-115956009D01*
X199834523Y-116479819D02*
X199834523Y-115479819D01*
X199834523Y-115479819D02*
X199596428Y-115479819D01*
X199596428Y-115479819D02*
X199453571Y-115527438D01*
X199453571Y-115527438D02*
X199358333Y-115622676D01*
X199358333Y-115622676D02*
X199310714Y-115717914D01*
X199310714Y-115717914D02*
X199263095Y-115908390D01*
X199263095Y-115908390D02*
X199263095Y-116051247D01*
X199263095Y-116051247D02*
X199310714Y-116241723D01*
X199310714Y-116241723D02*
X199358333Y-116336961D01*
X199358333Y-116336961D02*
X199453571Y-116432200D01*
X199453571Y-116432200D02*
X199596428Y-116479819D01*
X199596428Y-116479819D02*
X199834523Y-116479819D01*
X198834523Y-116479819D02*
X198834523Y-115479819D01*
X198834523Y-115479819D02*
X198596428Y-115479819D01*
X198596428Y-115479819D02*
X198453571Y-115527438D01*
X198453571Y-115527438D02*
X198358333Y-115622676D01*
X198358333Y-115622676D02*
X198310714Y-115717914D01*
X198310714Y-115717914D02*
X198263095Y-115908390D01*
X198263095Y-115908390D02*
X198263095Y-116051247D01*
X198263095Y-116051247D02*
X198310714Y-116241723D01*
X198310714Y-116241723D02*
X198358333Y-116336961D01*
X198358333Y-116336961D02*
X198453571Y-116432200D01*
X198453571Y-116432200D02*
X198596428Y-116479819D01*
X198596428Y-116479819D02*
X198834523Y-116479819D01*
X197310714Y-115527438D02*
X197405952Y-115479819D01*
X197405952Y-115479819D02*
X197548809Y-115479819D01*
X197548809Y-115479819D02*
X197691666Y-115527438D01*
X197691666Y-115527438D02*
X197786904Y-115622676D01*
X197786904Y-115622676D02*
X197834523Y-115717914D01*
X197834523Y-115717914D02*
X197882142Y-115908390D01*
X197882142Y-115908390D02*
X197882142Y-116051247D01*
X197882142Y-116051247D02*
X197834523Y-116241723D01*
X197834523Y-116241723D02*
X197786904Y-116336961D01*
X197786904Y-116336961D02*
X197691666Y-116432200D01*
X197691666Y-116432200D02*
X197548809Y-116479819D01*
X197548809Y-116479819D02*
X197453571Y-116479819D01*
X197453571Y-116479819D02*
X197310714Y-116432200D01*
X197310714Y-116432200D02*
X197263095Y-116384580D01*
X197263095Y-116384580D02*
X197263095Y-116051247D01*
X197263095Y-116051247D02*
X197453571Y-116051247D01*
X196405952Y-115813152D02*
X196405952Y-116479819D01*
X196644047Y-115432200D02*
X196882142Y-116146485D01*
X196882142Y-116146485D02*
X196263095Y-116146485D01*
X195405952Y-115479819D02*
X195882142Y-115479819D01*
X195882142Y-115479819D02*
X195929761Y-115956009D01*
X195929761Y-115956009D02*
X195882142Y-115908390D01*
X195882142Y-115908390D02*
X195786904Y-115860771D01*
X195786904Y-115860771D02*
X195548809Y-115860771D01*
X195548809Y-115860771D02*
X195453571Y-115908390D01*
X195453571Y-115908390D02*
X195405952Y-115956009D01*
X195405952Y-115956009D02*
X195358333Y-116051247D01*
X195358333Y-116051247D02*
X195358333Y-116289342D01*
X195358333Y-116289342D02*
X195405952Y-116384580D01*
X195405952Y-116384580D02*
X195453571Y-116432200D01*
X195453571Y-116432200D02*
X195548809Y-116479819D01*
X195548809Y-116479819D02*
X195786904Y-116479819D01*
X195786904Y-116479819D02*
X195882142Y-116432200D01*
X195882142Y-116432200D02*
X195929761Y-116384580D01*
X194977380Y-116432200D02*
X194834523Y-116479819D01*
X194834523Y-116479819D02*
X194596428Y-116479819D01*
X194596428Y-116479819D02*
X194501190Y-116432200D01*
X194501190Y-116432200D02*
X194453571Y-116384580D01*
X194453571Y-116384580D02*
X194405952Y-116289342D01*
X194405952Y-116289342D02*
X194405952Y-116194104D01*
X194405952Y-116194104D02*
X194453571Y-116098866D01*
X194453571Y-116098866D02*
X194501190Y-116051247D01*
X194501190Y-116051247D02*
X194596428Y-116003628D01*
X194596428Y-116003628D02*
X194786904Y-115956009D01*
X194786904Y-115956009D02*
X194882142Y-115908390D01*
X194882142Y-115908390D02*
X194929761Y-115860771D01*
X194929761Y-115860771D02*
X194977380Y-115765533D01*
X194977380Y-115765533D02*
X194977380Y-115670295D01*
X194977380Y-115670295D02*
X194929761Y-115575057D01*
X194929761Y-115575057D02*
X194882142Y-115527438D01*
X194882142Y-115527438D02*
X194786904Y-115479819D01*
X194786904Y-115479819D02*
X194548809Y-115479819D01*
X194548809Y-115479819D02*
X194405952Y-115527438D01*
X193977380Y-116098866D02*
X193215476Y-116098866D01*
X192691666Y-116479819D02*
X192501190Y-116479819D01*
X192501190Y-116479819D02*
X192405952Y-116432200D01*
X192405952Y-116432200D02*
X192358333Y-116384580D01*
X192358333Y-116384580D02*
X192263095Y-116241723D01*
X192263095Y-116241723D02*
X192215476Y-116051247D01*
X192215476Y-116051247D02*
X192215476Y-115670295D01*
X192215476Y-115670295D02*
X192263095Y-115575057D01*
X192263095Y-115575057D02*
X192310714Y-115527438D01*
X192310714Y-115527438D02*
X192405952Y-115479819D01*
X192405952Y-115479819D02*
X192596428Y-115479819D01*
X192596428Y-115479819D02*
X192691666Y-115527438D01*
X192691666Y-115527438D02*
X192739285Y-115575057D01*
X192739285Y-115575057D02*
X192786904Y-115670295D01*
X192786904Y-115670295D02*
X192786904Y-115908390D01*
X192786904Y-115908390D02*
X192739285Y-116003628D01*
X192739285Y-116003628D02*
X192691666Y-116051247D01*
X192691666Y-116051247D02*
X192596428Y-116098866D01*
X192596428Y-116098866D02*
X192405952Y-116098866D01*
X192405952Y-116098866D02*
X192310714Y-116051247D01*
X192310714Y-116051247D02*
X192263095Y-116003628D01*
X192263095Y-116003628D02*
X192215476Y-115908390D01*
X207774819Y-121619048D02*
X206774819Y-121619048D01*
X206774819Y-121619048D02*
X206774819Y-122000000D01*
X206774819Y-122000000D02*
X206822438Y-122095238D01*
X206822438Y-122095238D02*
X206870057Y-122142857D01*
X206870057Y-122142857D02*
X206965295Y-122190476D01*
X206965295Y-122190476D02*
X207108152Y-122190476D01*
X207108152Y-122190476D02*
X207203390Y-122142857D01*
X207203390Y-122142857D02*
X207251009Y-122095238D01*
X207251009Y-122095238D02*
X207298628Y-122000000D01*
X207298628Y-122000000D02*
X207298628Y-121619048D01*
X206774819Y-122619048D02*
X207584342Y-122619048D01*
X207584342Y-122619048D02*
X207679580Y-122666667D01*
X207679580Y-122666667D02*
X207727200Y-122714286D01*
X207727200Y-122714286D02*
X207774819Y-122809524D01*
X207774819Y-122809524D02*
X207774819Y-123000000D01*
X207774819Y-123000000D02*
X207727200Y-123095238D01*
X207727200Y-123095238D02*
X207679580Y-123142857D01*
X207679580Y-123142857D02*
X207584342Y-123190476D01*
X207584342Y-123190476D02*
X206774819Y-123190476D01*
X207108152Y-123666667D02*
X208108152Y-123666667D01*
X207155771Y-123666667D02*
X207108152Y-123761905D01*
X207108152Y-123761905D02*
X207108152Y-123952381D01*
X207108152Y-123952381D02*
X207155771Y-124047619D01*
X207155771Y-124047619D02*
X207203390Y-124095238D01*
X207203390Y-124095238D02*
X207298628Y-124142857D01*
X207298628Y-124142857D02*
X207584342Y-124142857D01*
X207584342Y-124142857D02*
X207679580Y-124095238D01*
X207679580Y-124095238D02*
X207727200Y-124047619D01*
X207727200Y-124047619D02*
X207774819Y-123952381D01*
X207774819Y-123952381D02*
X207774819Y-123761905D01*
X207774819Y-123761905D02*
X207727200Y-123666667D01*
X207774819Y-125333334D02*
X206774819Y-125333334D01*
X206774819Y-125333334D02*
X206774819Y-125571429D01*
X206774819Y-125571429D02*
X206822438Y-125714286D01*
X206822438Y-125714286D02*
X206917676Y-125809524D01*
X206917676Y-125809524D02*
X207012914Y-125857143D01*
X207012914Y-125857143D02*
X207203390Y-125904762D01*
X207203390Y-125904762D02*
X207346247Y-125904762D01*
X207346247Y-125904762D02*
X207536723Y-125857143D01*
X207536723Y-125857143D02*
X207631961Y-125809524D01*
X207631961Y-125809524D02*
X207727200Y-125714286D01*
X207727200Y-125714286D02*
X207774819Y-125571429D01*
X207774819Y-125571429D02*
X207774819Y-125333334D01*
X207774819Y-126333334D02*
X206774819Y-126333334D01*
X206774819Y-126333334D02*
X207774819Y-126904762D01*
X207774819Y-126904762D02*
X206774819Y-126904762D01*
X207774819Y-127380953D02*
X206774819Y-127380953D01*
D11*
X206268200Y-124332857D02*
X206144391Y-124246190D01*
X206268200Y-124184285D02*
X206008200Y-124184285D01*
X206008200Y-124184285D02*
X206008200Y-124283333D01*
X206008200Y-124283333D02*
X206020581Y-124308095D01*
X206020581Y-124308095D02*
X206032962Y-124320476D01*
X206032962Y-124320476D02*
X206057724Y-124332857D01*
X206057724Y-124332857D02*
X206094867Y-124332857D01*
X206094867Y-124332857D02*
X206119629Y-124320476D01*
X206119629Y-124320476D02*
X206132010Y-124308095D01*
X206132010Y-124308095D02*
X206144391Y-124283333D01*
X206144391Y-124283333D02*
X206144391Y-124184285D01*
X206268200Y-124580476D02*
X206268200Y-124431904D01*
X206268200Y-124506190D02*
X206008200Y-124506190D01*
X206008200Y-124506190D02*
X206045343Y-124481428D01*
X206045343Y-124481428D02*
X206070105Y-124456666D01*
X206070105Y-124456666D02*
X206082486Y-124431904D01*
X206008200Y-124741428D02*
X206008200Y-124766190D01*
X206008200Y-124766190D02*
X206020581Y-124790952D01*
X206020581Y-124790952D02*
X206032962Y-124803333D01*
X206032962Y-124803333D02*
X206057724Y-124815714D01*
X206057724Y-124815714D02*
X206107248Y-124828095D01*
X206107248Y-124828095D02*
X206169153Y-124828095D01*
X206169153Y-124828095D02*
X206218677Y-124815714D01*
X206218677Y-124815714D02*
X206243439Y-124803333D01*
X206243439Y-124803333D02*
X206255820Y-124790952D01*
X206255820Y-124790952D02*
X206268200Y-124766190D01*
X206268200Y-124766190D02*
X206268200Y-124741428D01*
X206268200Y-124741428D02*
X206255820Y-124716666D01*
X206255820Y-124716666D02*
X206243439Y-124704285D01*
X206243439Y-124704285D02*
X206218677Y-124691904D01*
X206218677Y-124691904D02*
X206169153Y-124679523D01*
X206169153Y-124679523D02*
X206107248Y-124679523D01*
X206107248Y-124679523D02*
X206057724Y-124691904D01*
X206057724Y-124691904D02*
X206032962Y-124704285D01*
X206032962Y-124704285D02*
X206020581Y-124716666D01*
X206020581Y-124716666D02*
X206008200Y-124741428D01*
D10*
X175294761Y-117299819D02*
X174628095Y-118299819D01*
X174628095Y-117299819D02*
X175294761Y-118299819D01*
X174342380Y-117299819D02*
X173675714Y-117299819D01*
X173675714Y-117299819D02*
X174342380Y-118299819D01*
X174342380Y-118299819D02*
X173675714Y-118299819D01*
X173294761Y-118299819D02*
X173294761Y-117299819D01*
X173294761Y-117299819D02*
X172961428Y-118014104D01*
X172961428Y-118014104D02*
X172628095Y-117299819D01*
X172628095Y-117299819D02*
X172628095Y-118299819D01*
X172151904Y-118299819D02*
X172151904Y-117299819D01*
X172151904Y-117299819D02*
X171913809Y-117299819D01*
X171913809Y-117299819D02*
X171770952Y-117347438D01*
X171770952Y-117347438D02*
X171675714Y-117442676D01*
X171675714Y-117442676D02*
X171628095Y-117537914D01*
X171628095Y-117537914D02*
X171580476Y-117728390D01*
X171580476Y-117728390D02*
X171580476Y-117871247D01*
X171580476Y-117871247D02*
X171628095Y-118061723D01*
X171628095Y-118061723D02*
X171675714Y-118156961D01*
X171675714Y-118156961D02*
X171770952Y-118252200D01*
X171770952Y-118252200D02*
X171913809Y-118299819D01*
X171913809Y-118299819D02*
X172151904Y-118299819D01*
X171151904Y-118299819D02*
X171151904Y-117299819D01*
X170580476Y-118299819D02*
X171009047Y-117728390D01*
X170580476Y-117299819D02*
X171151904Y-117871247D01*
X169580476Y-118204580D02*
X169628095Y-118252200D01*
X169628095Y-118252200D02*
X169770952Y-118299819D01*
X169770952Y-118299819D02*
X169866190Y-118299819D01*
X169866190Y-118299819D02*
X170009047Y-118252200D01*
X170009047Y-118252200D02*
X170104285Y-118156961D01*
X170104285Y-118156961D02*
X170151904Y-118061723D01*
X170151904Y-118061723D02*
X170199523Y-117871247D01*
X170199523Y-117871247D02*
X170199523Y-117728390D01*
X170199523Y-117728390D02*
X170151904Y-117537914D01*
X170151904Y-117537914D02*
X170104285Y-117442676D01*
X170104285Y-117442676D02*
X170009047Y-117347438D01*
X170009047Y-117347438D02*
X169866190Y-117299819D01*
X169866190Y-117299819D02*
X169770952Y-117299819D01*
X169770952Y-117299819D02*
X169628095Y-117347438D01*
X169628095Y-117347438D02*
X169580476Y-117395057D01*
X168818571Y-117776009D02*
X168675714Y-117823628D01*
X168675714Y-117823628D02*
X168628095Y-117871247D01*
X168628095Y-117871247D02*
X168580476Y-117966485D01*
X168580476Y-117966485D02*
X168580476Y-118109342D01*
X168580476Y-118109342D02*
X168628095Y-118204580D01*
X168628095Y-118204580D02*
X168675714Y-118252200D01*
X168675714Y-118252200D02*
X168770952Y-118299819D01*
X168770952Y-118299819D02*
X169151904Y-118299819D01*
X169151904Y-118299819D02*
X169151904Y-117299819D01*
X169151904Y-117299819D02*
X168818571Y-117299819D01*
X168818571Y-117299819D02*
X168723333Y-117347438D01*
X168723333Y-117347438D02*
X168675714Y-117395057D01*
X168675714Y-117395057D02*
X168628095Y-117490295D01*
X168628095Y-117490295D02*
X168628095Y-117585533D01*
X168628095Y-117585533D02*
X168675714Y-117680771D01*
X168675714Y-117680771D02*
X168723333Y-117728390D01*
X168723333Y-117728390D02*
X168818571Y-117776009D01*
X168818571Y-117776009D02*
X169151904Y-117776009D01*
X168151904Y-118299819D02*
X168151904Y-117299819D01*
X168151904Y-117299819D02*
X167913809Y-117299819D01*
X167913809Y-117299819D02*
X167770952Y-117347438D01*
X167770952Y-117347438D02*
X167675714Y-117442676D01*
X167675714Y-117442676D02*
X167628095Y-117537914D01*
X167628095Y-117537914D02*
X167580476Y-117728390D01*
X167580476Y-117728390D02*
X167580476Y-117871247D01*
X167580476Y-117871247D02*
X167628095Y-118061723D01*
X167628095Y-118061723D02*
X167675714Y-118156961D01*
X167675714Y-118156961D02*
X167770952Y-118252200D01*
X167770952Y-118252200D02*
X167913809Y-118299819D01*
X167913809Y-118299819D02*
X168151904Y-118299819D01*
X167151904Y-118299819D02*
X167151904Y-117299819D01*
X167151904Y-117299819D02*
X166913809Y-117299819D01*
X166913809Y-117299819D02*
X166770952Y-117347438D01*
X166770952Y-117347438D02*
X166675714Y-117442676D01*
X166675714Y-117442676D02*
X166628095Y-117537914D01*
X166628095Y-117537914D02*
X166580476Y-117728390D01*
X166580476Y-117728390D02*
X166580476Y-117871247D01*
X166580476Y-117871247D02*
X166628095Y-118061723D01*
X166628095Y-118061723D02*
X166675714Y-118156961D01*
X166675714Y-118156961D02*
X166770952Y-118252200D01*
X166770952Y-118252200D02*
X166913809Y-118299819D01*
X166913809Y-118299819D02*
X167151904Y-118299819D01*
X165628095Y-117347438D02*
X165723333Y-117299819D01*
X165723333Y-117299819D02*
X165866190Y-117299819D01*
X165866190Y-117299819D02*
X166009047Y-117347438D01*
X166009047Y-117347438D02*
X166104285Y-117442676D01*
X166104285Y-117442676D02*
X166151904Y-117537914D01*
X166151904Y-117537914D02*
X166199523Y-117728390D01*
X166199523Y-117728390D02*
X166199523Y-117871247D01*
X166199523Y-117871247D02*
X166151904Y-118061723D01*
X166151904Y-118061723D02*
X166104285Y-118156961D01*
X166104285Y-118156961D02*
X166009047Y-118252200D01*
X166009047Y-118252200D02*
X165866190Y-118299819D01*
X165866190Y-118299819D02*
X165770952Y-118299819D01*
X165770952Y-118299819D02*
X165628095Y-118252200D01*
X165628095Y-118252200D02*
X165580476Y-118204580D01*
X165580476Y-118204580D02*
X165580476Y-117871247D01*
X165580476Y-117871247D02*
X165770952Y-117871247D01*
X164723333Y-117633152D02*
X164723333Y-118299819D01*
X164961428Y-117252200D02*
X165199523Y-117966485D01*
X165199523Y-117966485D02*
X164580476Y-117966485D01*
X163723333Y-117299819D02*
X164199523Y-117299819D01*
X164199523Y-117299819D02*
X164247142Y-117776009D01*
X164247142Y-117776009D02*
X164199523Y-117728390D01*
X164199523Y-117728390D02*
X164104285Y-117680771D01*
X164104285Y-117680771D02*
X163866190Y-117680771D01*
X163866190Y-117680771D02*
X163770952Y-117728390D01*
X163770952Y-117728390D02*
X163723333Y-117776009D01*
X163723333Y-117776009D02*
X163675714Y-117871247D01*
X163675714Y-117871247D02*
X163675714Y-118109342D01*
X163675714Y-118109342D02*
X163723333Y-118204580D01*
X163723333Y-118204580D02*
X163770952Y-118252200D01*
X163770952Y-118252200D02*
X163866190Y-118299819D01*
X163866190Y-118299819D02*
X164104285Y-118299819D01*
X164104285Y-118299819D02*
X164199523Y-118252200D01*
X164199523Y-118252200D02*
X164247142Y-118204580D01*
X163294761Y-118252200D02*
X163151904Y-118299819D01*
X163151904Y-118299819D02*
X162913809Y-118299819D01*
X162913809Y-118299819D02*
X162818571Y-118252200D01*
X162818571Y-118252200D02*
X162770952Y-118204580D01*
X162770952Y-118204580D02*
X162723333Y-118109342D01*
X162723333Y-118109342D02*
X162723333Y-118014104D01*
X162723333Y-118014104D02*
X162770952Y-117918866D01*
X162770952Y-117918866D02*
X162818571Y-117871247D01*
X162818571Y-117871247D02*
X162913809Y-117823628D01*
X162913809Y-117823628D02*
X163104285Y-117776009D01*
X163104285Y-117776009D02*
X163199523Y-117728390D01*
X163199523Y-117728390D02*
X163247142Y-117680771D01*
X163247142Y-117680771D02*
X163294761Y-117585533D01*
X163294761Y-117585533D02*
X163294761Y-117490295D01*
X163294761Y-117490295D02*
X163247142Y-117395057D01*
X163247142Y-117395057D02*
X163199523Y-117347438D01*
X163199523Y-117347438D02*
X163104285Y-117299819D01*
X163104285Y-117299819D02*
X162866190Y-117299819D01*
X162866190Y-117299819D02*
X162723333Y-117347438D01*
X162294761Y-117918866D02*
X161532857Y-117918866D01*
X161009047Y-118299819D02*
X160818571Y-118299819D01*
X160818571Y-118299819D02*
X160723333Y-118252200D01*
X160723333Y-118252200D02*
X160675714Y-118204580D01*
X160675714Y-118204580D02*
X160580476Y-118061723D01*
X160580476Y-118061723D02*
X160532857Y-117871247D01*
X160532857Y-117871247D02*
X160532857Y-117490295D01*
X160532857Y-117490295D02*
X160580476Y-117395057D01*
X160580476Y-117395057D02*
X160628095Y-117347438D01*
X160628095Y-117347438D02*
X160723333Y-117299819D01*
X160723333Y-117299819D02*
X160913809Y-117299819D01*
X160913809Y-117299819D02*
X161009047Y-117347438D01*
X161009047Y-117347438D02*
X161056666Y-117395057D01*
X161056666Y-117395057D02*
X161104285Y-117490295D01*
X161104285Y-117490295D02*
X161104285Y-117728390D01*
X161104285Y-117728390D02*
X161056666Y-117823628D01*
X161056666Y-117823628D02*
X161009047Y-117871247D01*
X161009047Y-117871247D02*
X160913809Y-117918866D01*
X160913809Y-117918866D02*
X160723333Y-117918866D01*
X160723333Y-117918866D02*
X160628095Y-117871247D01*
X160628095Y-117871247D02*
X160580476Y-117823628D01*
X160580476Y-117823628D02*
X160532857Y-117728390D01*
X205384819Y-129102381D02*
X205384819Y-129197619D01*
X205384819Y-129197619D02*
X205432438Y-129292857D01*
X205432438Y-129292857D02*
X205480057Y-129340476D01*
X205480057Y-129340476D02*
X205575295Y-129388095D01*
X205575295Y-129388095D02*
X205765771Y-129435714D01*
X205765771Y-129435714D02*
X206003866Y-129435714D01*
X206003866Y-129435714D02*
X206194342Y-129388095D01*
X206194342Y-129388095D02*
X206289580Y-129340476D01*
X206289580Y-129340476D02*
X206337200Y-129292857D01*
X206337200Y-129292857D02*
X206384819Y-129197619D01*
X206384819Y-129197619D02*
X206384819Y-129102381D01*
X206384819Y-129102381D02*
X206337200Y-129007143D01*
X206337200Y-129007143D02*
X206289580Y-128959524D01*
X206289580Y-128959524D02*
X206194342Y-128911905D01*
X206194342Y-128911905D02*
X206003866Y-128864286D01*
X206003866Y-128864286D02*
X205765771Y-128864286D01*
X205765771Y-128864286D02*
X205575295Y-128911905D01*
X205575295Y-128911905D02*
X205480057Y-128959524D01*
X205480057Y-128959524D02*
X205432438Y-129007143D01*
X205432438Y-129007143D02*
X205384819Y-129102381D01*
X206384819Y-130435714D02*
X205908628Y-130102381D01*
X206384819Y-129864286D02*
X205384819Y-129864286D01*
X205384819Y-129864286D02*
X205384819Y-130245238D01*
X205384819Y-130245238D02*
X205432438Y-130340476D01*
X205432438Y-130340476D02*
X205480057Y-130388095D01*
X205480057Y-130388095D02*
X205575295Y-130435714D01*
X205575295Y-130435714D02*
X205718152Y-130435714D01*
X205718152Y-130435714D02*
X205813390Y-130388095D01*
X205813390Y-130388095D02*
X205861009Y-130340476D01*
X205861009Y-130340476D02*
X205908628Y-130245238D01*
X205908628Y-130245238D02*
X205908628Y-129864286D01*
D12*
X204681927Y-129583333D02*
X204491451Y-129450000D01*
X204681927Y-129354762D02*
X204281927Y-129354762D01*
X204281927Y-129354762D02*
X204281927Y-129507143D01*
X204281927Y-129507143D02*
X204300975Y-129545238D01*
X204300975Y-129545238D02*
X204320022Y-129564285D01*
X204320022Y-129564285D02*
X204358118Y-129583333D01*
X204358118Y-129583333D02*
X204415260Y-129583333D01*
X204415260Y-129583333D02*
X204453356Y-129564285D01*
X204453356Y-129564285D02*
X204472403Y-129545238D01*
X204472403Y-129545238D02*
X204491451Y-129507143D01*
X204491451Y-129507143D02*
X204491451Y-129354762D01*
X204415260Y-129926190D02*
X204681927Y-129926190D01*
X204262880Y-129830952D02*
X204548594Y-129735714D01*
X204548594Y-129735714D02*
X204548594Y-129983333D01*
D10*
X214524819Y-121619048D02*
X213524819Y-121619048D01*
X213524819Y-121619048D02*
X213524819Y-122000000D01*
X213524819Y-122000000D02*
X213572438Y-122095238D01*
X213572438Y-122095238D02*
X213620057Y-122142857D01*
X213620057Y-122142857D02*
X213715295Y-122190476D01*
X213715295Y-122190476D02*
X213858152Y-122190476D01*
X213858152Y-122190476D02*
X213953390Y-122142857D01*
X213953390Y-122142857D02*
X214001009Y-122095238D01*
X214001009Y-122095238D02*
X214048628Y-122000000D01*
X214048628Y-122000000D02*
X214048628Y-121619048D01*
X213524819Y-122619048D02*
X214334342Y-122619048D01*
X214334342Y-122619048D02*
X214429580Y-122666667D01*
X214429580Y-122666667D02*
X214477200Y-122714286D01*
X214477200Y-122714286D02*
X214524819Y-122809524D01*
X214524819Y-122809524D02*
X214524819Y-123000000D01*
X214524819Y-123000000D02*
X214477200Y-123095238D01*
X214477200Y-123095238D02*
X214429580Y-123142857D01*
X214429580Y-123142857D02*
X214334342Y-123190476D01*
X214334342Y-123190476D02*
X213524819Y-123190476D01*
X213858152Y-123666667D02*
X214858152Y-123666667D01*
X213905771Y-123666667D02*
X213858152Y-123761905D01*
X213858152Y-123761905D02*
X213858152Y-123952381D01*
X213858152Y-123952381D02*
X213905771Y-124047619D01*
X213905771Y-124047619D02*
X213953390Y-124095238D01*
X213953390Y-124095238D02*
X214048628Y-124142857D01*
X214048628Y-124142857D02*
X214334342Y-124142857D01*
X214334342Y-124142857D02*
X214429580Y-124095238D01*
X214429580Y-124095238D02*
X214477200Y-124047619D01*
X214477200Y-124047619D02*
X214524819Y-123952381D01*
X214524819Y-123952381D02*
X214524819Y-123761905D01*
X214524819Y-123761905D02*
X214477200Y-123666667D01*
X214524819Y-125333334D02*
X213524819Y-125333334D01*
X213524819Y-125333334D02*
X213524819Y-125571429D01*
X213524819Y-125571429D02*
X213572438Y-125714286D01*
X213572438Y-125714286D02*
X213667676Y-125809524D01*
X213667676Y-125809524D02*
X213762914Y-125857143D01*
X213762914Y-125857143D02*
X213953390Y-125904762D01*
X213953390Y-125904762D02*
X214096247Y-125904762D01*
X214096247Y-125904762D02*
X214286723Y-125857143D01*
X214286723Y-125857143D02*
X214381961Y-125809524D01*
X214381961Y-125809524D02*
X214477200Y-125714286D01*
X214477200Y-125714286D02*
X214524819Y-125571429D01*
X214524819Y-125571429D02*
X214524819Y-125333334D01*
X214524819Y-126333334D02*
X213524819Y-126333334D01*
X213524819Y-126333334D02*
X214524819Y-126904762D01*
X214524819Y-126904762D02*
X213524819Y-126904762D01*
X214524819Y-127380953D02*
X213524819Y-127380953D01*
D11*
X213018200Y-124332857D02*
X212894391Y-124246190D01*
X213018200Y-124184285D02*
X212758200Y-124184285D01*
X212758200Y-124184285D02*
X212758200Y-124283333D01*
X212758200Y-124283333D02*
X212770581Y-124308095D01*
X212770581Y-124308095D02*
X212782962Y-124320476D01*
X212782962Y-124320476D02*
X212807724Y-124332857D01*
X212807724Y-124332857D02*
X212844867Y-124332857D01*
X212844867Y-124332857D02*
X212869629Y-124320476D01*
X212869629Y-124320476D02*
X212882010Y-124308095D01*
X212882010Y-124308095D02*
X212894391Y-124283333D01*
X212894391Y-124283333D02*
X212894391Y-124184285D01*
X213018200Y-124580476D02*
X213018200Y-124431904D01*
X213018200Y-124506190D02*
X212758200Y-124506190D01*
X212758200Y-124506190D02*
X212795343Y-124481428D01*
X212795343Y-124481428D02*
X212820105Y-124456666D01*
X212820105Y-124456666D02*
X212832486Y-124431904D01*
X213018200Y-124828095D02*
X213018200Y-124679523D01*
X213018200Y-124753809D02*
X212758200Y-124753809D01*
X212758200Y-124753809D02*
X212795343Y-124729047D01*
X212795343Y-124729047D02*
X212820105Y-124704285D01*
X212820105Y-124704285D02*
X212832486Y-124679523D01*
D10*
X158734761Y-117299819D02*
X158068095Y-118299819D01*
X158068095Y-117299819D02*
X158734761Y-118299819D01*
X157782380Y-117299819D02*
X157115714Y-117299819D01*
X157115714Y-117299819D02*
X157782380Y-118299819D01*
X157782380Y-118299819D02*
X157115714Y-118299819D01*
X156734761Y-118299819D02*
X156734761Y-117299819D01*
X156734761Y-117299819D02*
X156401428Y-118014104D01*
X156401428Y-118014104D02*
X156068095Y-117299819D01*
X156068095Y-117299819D02*
X156068095Y-118299819D01*
X155591904Y-118299819D02*
X155591904Y-117299819D01*
X155591904Y-117299819D02*
X155353809Y-117299819D01*
X155353809Y-117299819D02*
X155210952Y-117347438D01*
X155210952Y-117347438D02*
X155115714Y-117442676D01*
X155115714Y-117442676D02*
X155068095Y-117537914D01*
X155068095Y-117537914D02*
X155020476Y-117728390D01*
X155020476Y-117728390D02*
X155020476Y-117871247D01*
X155020476Y-117871247D02*
X155068095Y-118061723D01*
X155068095Y-118061723D02*
X155115714Y-118156961D01*
X155115714Y-118156961D02*
X155210952Y-118252200D01*
X155210952Y-118252200D02*
X155353809Y-118299819D01*
X155353809Y-118299819D02*
X155591904Y-118299819D01*
X154591904Y-118299819D02*
X154591904Y-117299819D01*
X154020476Y-118299819D02*
X154449047Y-117728390D01*
X154020476Y-117299819D02*
X154591904Y-117871247D01*
X153020476Y-118204580D02*
X153068095Y-118252200D01*
X153068095Y-118252200D02*
X153210952Y-118299819D01*
X153210952Y-118299819D02*
X153306190Y-118299819D01*
X153306190Y-118299819D02*
X153449047Y-118252200D01*
X153449047Y-118252200D02*
X153544285Y-118156961D01*
X153544285Y-118156961D02*
X153591904Y-118061723D01*
X153591904Y-118061723D02*
X153639523Y-117871247D01*
X153639523Y-117871247D02*
X153639523Y-117728390D01*
X153639523Y-117728390D02*
X153591904Y-117537914D01*
X153591904Y-117537914D02*
X153544285Y-117442676D01*
X153544285Y-117442676D02*
X153449047Y-117347438D01*
X153449047Y-117347438D02*
X153306190Y-117299819D01*
X153306190Y-117299819D02*
X153210952Y-117299819D01*
X153210952Y-117299819D02*
X153068095Y-117347438D01*
X153068095Y-117347438D02*
X153020476Y-117395057D01*
X152258571Y-117776009D02*
X152115714Y-117823628D01*
X152115714Y-117823628D02*
X152068095Y-117871247D01*
X152068095Y-117871247D02*
X152020476Y-117966485D01*
X152020476Y-117966485D02*
X152020476Y-118109342D01*
X152020476Y-118109342D02*
X152068095Y-118204580D01*
X152068095Y-118204580D02*
X152115714Y-118252200D01*
X152115714Y-118252200D02*
X152210952Y-118299819D01*
X152210952Y-118299819D02*
X152591904Y-118299819D01*
X152591904Y-118299819D02*
X152591904Y-117299819D01*
X152591904Y-117299819D02*
X152258571Y-117299819D01*
X152258571Y-117299819D02*
X152163333Y-117347438D01*
X152163333Y-117347438D02*
X152115714Y-117395057D01*
X152115714Y-117395057D02*
X152068095Y-117490295D01*
X152068095Y-117490295D02*
X152068095Y-117585533D01*
X152068095Y-117585533D02*
X152115714Y-117680771D01*
X152115714Y-117680771D02*
X152163333Y-117728390D01*
X152163333Y-117728390D02*
X152258571Y-117776009D01*
X152258571Y-117776009D02*
X152591904Y-117776009D01*
X151591904Y-118299819D02*
X151591904Y-117299819D01*
X151591904Y-117299819D02*
X151353809Y-117299819D01*
X151353809Y-117299819D02*
X151210952Y-117347438D01*
X151210952Y-117347438D02*
X151115714Y-117442676D01*
X151115714Y-117442676D02*
X151068095Y-117537914D01*
X151068095Y-117537914D02*
X151020476Y-117728390D01*
X151020476Y-117728390D02*
X151020476Y-117871247D01*
X151020476Y-117871247D02*
X151068095Y-118061723D01*
X151068095Y-118061723D02*
X151115714Y-118156961D01*
X151115714Y-118156961D02*
X151210952Y-118252200D01*
X151210952Y-118252200D02*
X151353809Y-118299819D01*
X151353809Y-118299819D02*
X151591904Y-118299819D01*
X150591904Y-118299819D02*
X150591904Y-117299819D01*
X150591904Y-117299819D02*
X150353809Y-117299819D01*
X150353809Y-117299819D02*
X150210952Y-117347438D01*
X150210952Y-117347438D02*
X150115714Y-117442676D01*
X150115714Y-117442676D02*
X150068095Y-117537914D01*
X150068095Y-117537914D02*
X150020476Y-117728390D01*
X150020476Y-117728390D02*
X150020476Y-117871247D01*
X150020476Y-117871247D02*
X150068095Y-118061723D01*
X150068095Y-118061723D02*
X150115714Y-118156961D01*
X150115714Y-118156961D02*
X150210952Y-118252200D01*
X150210952Y-118252200D02*
X150353809Y-118299819D01*
X150353809Y-118299819D02*
X150591904Y-118299819D01*
X149068095Y-117347438D02*
X149163333Y-117299819D01*
X149163333Y-117299819D02*
X149306190Y-117299819D01*
X149306190Y-117299819D02*
X149449047Y-117347438D01*
X149449047Y-117347438D02*
X149544285Y-117442676D01*
X149544285Y-117442676D02*
X149591904Y-117537914D01*
X149591904Y-117537914D02*
X149639523Y-117728390D01*
X149639523Y-117728390D02*
X149639523Y-117871247D01*
X149639523Y-117871247D02*
X149591904Y-118061723D01*
X149591904Y-118061723D02*
X149544285Y-118156961D01*
X149544285Y-118156961D02*
X149449047Y-118252200D01*
X149449047Y-118252200D02*
X149306190Y-118299819D01*
X149306190Y-118299819D02*
X149210952Y-118299819D01*
X149210952Y-118299819D02*
X149068095Y-118252200D01*
X149068095Y-118252200D02*
X149020476Y-118204580D01*
X149020476Y-118204580D02*
X149020476Y-117871247D01*
X149020476Y-117871247D02*
X149210952Y-117871247D01*
X148163333Y-117633152D02*
X148163333Y-118299819D01*
X148401428Y-117252200D02*
X148639523Y-117966485D01*
X148639523Y-117966485D02*
X148020476Y-117966485D01*
X147163333Y-117299819D02*
X147639523Y-117299819D01*
X147639523Y-117299819D02*
X147687142Y-117776009D01*
X147687142Y-117776009D02*
X147639523Y-117728390D01*
X147639523Y-117728390D02*
X147544285Y-117680771D01*
X147544285Y-117680771D02*
X147306190Y-117680771D01*
X147306190Y-117680771D02*
X147210952Y-117728390D01*
X147210952Y-117728390D02*
X147163333Y-117776009D01*
X147163333Y-117776009D02*
X147115714Y-117871247D01*
X147115714Y-117871247D02*
X147115714Y-118109342D01*
X147115714Y-118109342D02*
X147163333Y-118204580D01*
X147163333Y-118204580D02*
X147210952Y-118252200D01*
X147210952Y-118252200D02*
X147306190Y-118299819D01*
X147306190Y-118299819D02*
X147544285Y-118299819D01*
X147544285Y-118299819D02*
X147639523Y-118252200D01*
X147639523Y-118252200D02*
X147687142Y-118204580D01*
X146734761Y-118252200D02*
X146591904Y-118299819D01*
X146591904Y-118299819D02*
X146353809Y-118299819D01*
X146353809Y-118299819D02*
X146258571Y-118252200D01*
X146258571Y-118252200D02*
X146210952Y-118204580D01*
X146210952Y-118204580D02*
X146163333Y-118109342D01*
X146163333Y-118109342D02*
X146163333Y-118014104D01*
X146163333Y-118014104D02*
X146210952Y-117918866D01*
X146210952Y-117918866D02*
X146258571Y-117871247D01*
X146258571Y-117871247D02*
X146353809Y-117823628D01*
X146353809Y-117823628D02*
X146544285Y-117776009D01*
X146544285Y-117776009D02*
X146639523Y-117728390D01*
X146639523Y-117728390D02*
X146687142Y-117680771D01*
X146687142Y-117680771D02*
X146734761Y-117585533D01*
X146734761Y-117585533D02*
X146734761Y-117490295D01*
X146734761Y-117490295D02*
X146687142Y-117395057D01*
X146687142Y-117395057D02*
X146639523Y-117347438D01*
X146639523Y-117347438D02*
X146544285Y-117299819D01*
X146544285Y-117299819D02*
X146306190Y-117299819D01*
X146306190Y-117299819D02*
X146163333Y-117347438D01*
X145734761Y-117918866D02*
X144972857Y-117918866D01*
X144449047Y-118299819D02*
X144258571Y-118299819D01*
X144258571Y-118299819D02*
X144163333Y-118252200D01*
X144163333Y-118252200D02*
X144115714Y-118204580D01*
X144115714Y-118204580D02*
X144020476Y-118061723D01*
X144020476Y-118061723D02*
X143972857Y-117871247D01*
X143972857Y-117871247D02*
X143972857Y-117490295D01*
X143972857Y-117490295D02*
X144020476Y-117395057D01*
X144020476Y-117395057D02*
X144068095Y-117347438D01*
X144068095Y-117347438D02*
X144163333Y-117299819D01*
X144163333Y-117299819D02*
X144353809Y-117299819D01*
X144353809Y-117299819D02*
X144449047Y-117347438D01*
X144449047Y-117347438D02*
X144496666Y-117395057D01*
X144496666Y-117395057D02*
X144544285Y-117490295D01*
X144544285Y-117490295D02*
X144544285Y-117728390D01*
X144544285Y-117728390D02*
X144496666Y-117823628D01*
X144496666Y-117823628D02*
X144449047Y-117871247D01*
X144449047Y-117871247D02*
X144353809Y-117918866D01*
X144353809Y-117918866D02*
X144163333Y-117918866D01*
X144163333Y-117918866D02*
X144068095Y-117871247D01*
X144068095Y-117871247D02*
X144020476Y-117823628D01*
X144020476Y-117823628D02*
X143972857Y-117728390D01*
X201824819Y-117716667D02*
X200824819Y-117716667D01*
X200824819Y-117716667D02*
X200824819Y-118097619D01*
X200824819Y-118097619D02*
X200872438Y-118192857D01*
X200872438Y-118192857D02*
X200920057Y-118240476D01*
X200920057Y-118240476D02*
X201015295Y-118288095D01*
X201015295Y-118288095D02*
X201158152Y-118288095D01*
X201158152Y-118288095D02*
X201253390Y-118240476D01*
X201253390Y-118240476D02*
X201301009Y-118192857D01*
X201301009Y-118192857D02*
X201348628Y-118097619D01*
X201348628Y-118097619D02*
X201348628Y-117716667D01*
X201824819Y-118716667D02*
X200824819Y-118716667D01*
X200824819Y-118716667D02*
X200824819Y-118954762D01*
X200824819Y-118954762D02*
X200872438Y-119097619D01*
X200872438Y-119097619D02*
X200967676Y-119192857D01*
X200967676Y-119192857D02*
X201062914Y-119240476D01*
X201062914Y-119240476D02*
X201253390Y-119288095D01*
X201253390Y-119288095D02*
X201396247Y-119288095D01*
X201396247Y-119288095D02*
X201586723Y-119240476D01*
X201586723Y-119240476D02*
X201681961Y-119192857D01*
X201681961Y-119192857D02*
X201777200Y-119097619D01*
X201777200Y-119097619D02*
X201824819Y-118954762D01*
X201824819Y-118954762D02*
X201824819Y-118716667D01*
X201824819Y-119859524D02*
X201777200Y-119764286D01*
X201777200Y-119764286D02*
X201729580Y-119716667D01*
X201729580Y-119716667D02*
X201634342Y-119669048D01*
X201634342Y-119669048D02*
X201348628Y-119669048D01*
X201348628Y-119669048D02*
X201253390Y-119716667D01*
X201253390Y-119716667D02*
X201205771Y-119764286D01*
X201205771Y-119764286D02*
X201158152Y-119859524D01*
X201158152Y-119859524D02*
X201158152Y-120002381D01*
X201158152Y-120002381D02*
X201205771Y-120097619D01*
X201205771Y-120097619D02*
X201253390Y-120145238D01*
X201253390Y-120145238D02*
X201348628Y-120192857D01*
X201348628Y-120192857D02*
X201634342Y-120192857D01*
X201634342Y-120192857D02*
X201729580Y-120145238D01*
X201729580Y-120145238D02*
X201777200Y-120097619D01*
X201777200Y-120097619D02*
X201824819Y-120002381D01*
X201824819Y-120002381D02*
X201824819Y-119859524D01*
X201158152Y-120526191D02*
X201824819Y-120716667D01*
X201824819Y-120716667D02*
X201348628Y-120907143D01*
X201348628Y-120907143D02*
X201824819Y-121097619D01*
X201824819Y-121097619D02*
X201158152Y-121288095D01*
X201158152Y-121669048D02*
X201824819Y-121669048D01*
X201253390Y-121669048D02*
X201205771Y-121716667D01*
X201205771Y-121716667D02*
X201158152Y-121811905D01*
X201158152Y-121811905D02*
X201158152Y-121954762D01*
X201158152Y-121954762D02*
X201205771Y-122050000D01*
X201205771Y-122050000D02*
X201301009Y-122097619D01*
X201301009Y-122097619D02*
X201824819Y-122097619D01*
X201824819Y-123335715D02*
X200824819Y-123335715D01*
X200824819Y-123335715D02*
X200824819Y-123573810D01*
X200824819Y-123573810D02*
X200872438Y-123716667D01*
X200872438Y-123716667D02*
X200967676Y-123811905D01*
X200967676Y-123811905D02*
X201062914Y-123859524D01*
X201062914Y-123859524D02*
X201253390Y-123907143D01*
X201253390Y-123907143D02*
X201396247Y-123907143D01*
X201396247Y-123907143D02*
X201586723Y-123859524D01*
X201586723Y-123859524D02*
X201681961Y-123811905D01*
X201681961Y-123811905D02*
X201777200Y-123716667D01*
X201777200Y-123716667D02*
X201824819Y-123573810D01*
X201824819Y-123573810D02*
X201824819Y-123335715D01*
X201824819Y-124335715D02*
X200824819Y-124335715D01*
X200824819Y-124335715D02*
X201824819Y-124907143D01*
X201824819Y-124907143D02*
X200824819Y-124907143D01*
X201824819Y-125383334D02*
X200824819Y-125383334D01*
D11*
X200318200Y-121506667D02*
X200194391Y-121420000D01*
X200318200Y-121358095D02*
X200058200Y-121358095D01*
X200058200Y-121358095D02*
X200058200Y-121457143D01*
X200058200Y-121457143D02*
X200070581Y-121481905D01*
X200070581Y-121481905D02*
X200082962Y-121494286D01*
X200082962Y-121494286D02*
X200107724Y-121506667D01*
X200107724Y-121506667D02*
X200144867Y-121506667D01*
X200144867Y-121506667D02*
X200169629Y-121494286D01*
X200169629Y-121494286D02*
X200182010Y-121481905D01*
X200182010Y-121481905D02*
X200194391Y-121457143D01*
X200194391Y-121457143D02*
X200194391Y-121358095D01*
X200058200Y-121593333D02*
X200058200Y-121766667D01*
X200058200Y-121766667D02*
X200318200Y-121655238D01*
D10*
X199774819Y-121619048D02*
X198774819Y-121619048D01*
X198774819Y-121619048D02*
X198774819Y-122000000D01*
X198774819Y-122000000D02*
X198822438Y-122095238D01*
X198822438Y-122095238D02*
X198870057Y-122142857D01*
X198870057Y-122142857D02*
X198965295Y-122190476D01*
X198965295Y-122190476D02*
X199108152Y-122190476D01*
X199108152Y-122190476D02*
X199203390Y-122142857D01*
X199203390Y-122142857D02*
X199251009Y-122095238D01*
X199251009Y-122095238D02*
X199298628Y-122000000D01*
X199298628Y-122000000D02*
X199298628Y-121619048D01*
X198774819Y-122619048D02*
X199584342Y-122619048D01*
X199584342Y-122619048D02*
X199679580Y-122666667D01*
X199679580Y-122666667D02*
X199727200Y-122714286D01*
X199727200Y-122714286D02*
X199774819Y-122809524D01*
X199774819Y-122809524D02*
X199774819Y-123000000D01*
X199774819Y-123000000D02*
X199727200Y-123095238D01*
X199727200Y-123095238D02*
X199679580Y-123142857D01*
X199679580Y-123142857D02*
X199584342Y-123190476D01*
X199584342Y-123190476D02*
X198774819Y-123190476D01*
X199108152Y-123666667D02*
X200108152Y-123666667D01*
X199155771Y-123666667D02*
X199108152Y-123761905D01*
X199108152Y-123761905D02*
X199108152Y-123952381D01*
X199108152Y-123952381D02*
X199155771Y-124047619D01*
X199155771Y-124047619D02*
X199203390Y-124095238D01*
X199203390Y-124095238D02*
X199298628Y-124142857D01*
X199298628Y-124142857D02*
X199584342Y-124142857D01*
X199584342Y-124142857D02*
X199679580Y-124095238D01*
X199679580Y-124095238D02*
X199727200Y-124047619D01*
X199727200Y-124047619D02*
X199774819Y-123952381D01*
X199774819Y-123952381D02*
X199774819Y-123761905D01*
X199774819Y-123761905D02*
X199727200Y-123666667D01*
X199774819Y-125333334D02*
X198774819Y-125333334D01*
X198774819Y-125333334D02*
X198774819Y-125571429D01*
X198774819Y-125571429D02*
X198822438Y-125714286D01*
X198822438Y-125714286D02*
X198917676Y-125809524D01*
X198917676Y-125809524D02*
X199012914Y-125857143D01*
X199012914Y-125857143D02*
X199203390Y-125904762D01*
X199203390Y-125904762D02*
X199346247Y-125904762D01*
X199346247Y-125904762D02*
X199536723Y-125857143D01*
X199536723Y-125857143D02*
X199631961Y-125809524D01*
X199631961Y-125809524D02*
X199727200Y-125714286D01*
X199727200Y-125714286D02*
X199774819Y-125571429D01*
X199774819Y-125571429D02*
X199774819Y-125333334D01*
X199774819Y-126333334D02*
X198774819Y-126333334D01*
X198774819Y-126333334D02*
X199774819Y-126904762D01*
X199774819Y-126904762D02*
X198774819Y-126904762D01*
X199774819Y-127380953D02*
X198774819Y-127380953D01*
D11*
X198268200Y-124456667D02*
X198144391Y-124370000D01*
X198268200Y-124308095D02*
X198008200Y-124308095D01*
X198008200Y-124308095D02*
X198008200Y-124407143D01*
X198008200Y-124407143D02*
X198020581Y-124431905D01*
X198020581Y-124431905D02*
X198032962Y-124444286D01*
X198032962Y-124444286D02*
X198057724Y-124456667D01*
X198057724Y-124456667D02*
X198094867Y-124456667D01*
X198094867Y-124456667D02*
X198119629Y-124444286D01*
X198119629Y-124444286D02*
X198132010Y-124431905D01*
X198132010Y-124431905D02*
X198144391Y-124407143D01*
X198144391Y-124407143D02*
X198144391Y-124308095D01*
X198119629Y-124605238D02*
X198107248Y-124580476D01*
X198107248Y-124580476D02*
X198094867Y-124568095D01*
X198094867Y-124568095D02*
X198070105Y-124555714D01*
X198070105Y-124555714D02*
X198057724Y-124555714D01*
X198057724Y-124555714D02*
X198032962Y-124568095D01*
X198032962Y-124568095D02*
X198020581Y-124580476D01*
X198020581Y-124580476D02*
X198008200Y-124605238D01*
X198008200Y-124605238D02*
X198008200Y-124654762D01*
X198008200Y-124654762D02*
X198020581Y-124679524D01*
X198020581Y-124679524D02*
X198032962Y-124691905D01*
X198032962Y-124691905D02*
X198057724Y-124704286D01*
X198057724Y-124704286D02*
X198070105Y-124704286D01*
X198070105Y-124704286D02*
X198094867Y-124691905D01*
X198094867Y-124691905D02*
X198107248Y-124679524D01*
X198107248Y-124679524D02*
X198119629Y-124654762D01*
X198119629Y-124654762D02*
X198119629Y-124605238D01*
X198119629Y-124605238D02*
X198132010Y-124580476D01*
X198132010Y-124580476D02*
X198144391Y-124568095D01*
X198144391Y-124568095D02*
X198169153Y-124555714D01*
X198169153Y-124555714D02*
X198218677Y-124555714D01*
X198218677Y-124555714D02*
X198243439Y-124568095D01*
X198243439Y-124568095D02*
X198255820Y-124580476D01*
X198255820Y-124580476D02*
X198268200Y-124605238D01*
X198268200Y-124605238D02*
X198268200Y-124654762D01*
X198268200Y-124654762D02*
X198255820Y-124679524D01*
X198255820Y-124679524D02*
X198243439Y-124691905D01*
X198243439Y-124691905D02*
X198218677Y-124704286D01*
X198218677Y-124704286D02*
X198169153Y-124704286D01*
X198169153Y-124704286D02*
X198144391Y-124691905D01*
X198144391Y-124691905D02*
X198132010Y-124679524D01*
X198132010Y-124679524D02*
X198119629Y-124654762D01*
D10*
X214524819Y-117716667D02*
X213524819Y-117716667D01*
X213524819Y-117716667D02*
X213524819Y-118097619D01*
X213524819Y-118097619D02*
X213572438Y-118192857D01*
X213572438Y-118192857D02*
X213620057Y-118240476D01*
X213620057Y-118240476D02*
X213715295Y-118288095D01*
X213715295Y-118288095D02*
X213858152Y-118288095D01*
X213858152Y-118288095D02*
X213953390Y-118240476D01*
X213953390Y-118240476D02*
X214001009Y-118192857D01*
X214001009Y-118192857D02*
X214048628Y-118097619D01*
X214048628Y-118097619D02*
X214048628Y-117716667D01*
X214524819Y-118716667D02*
X213524819Y-118716667D01*
X213524819Y-118716667D02*
X213524819Y-118954762D01*
X213524819Y-118954762D02*
X213572438Y-119097619D01*
X213572438Y-119097619D02*
X213667676Y-119192857D01*
X213667676Y-119192857D02*
X213762914Y-119240476D01*
X213762914Y-119240476D02*
X213953390Y-119288095D01*
X213953390Y-119288095D02*
X214096247Y-119288095D01*
X214096247Y-119288095D02*
X214286723Y-119240476D01*
X214286723Y-119240476D02*
X214381961Y-119192857D01*
X214381961Y-119192857D02*
X214477200Y-119097619D01*
X214477200Y-119097619D02*
X214524819Y-118954762D01*
X214524819Y-118954762D02*
X214524819Y-118716667D01*
X214524819Y-119859524D02*
X214477200Y-119764286D01*
X214477200Y-119764286D02*
X214429580Y-119716667D01*
X214429580Y-119716667D02*
X214334342Y-119669048D01*
X214334342Y-119669048D02*
X214048628Y-119669048D01*
X214048628Y-119669048D02*
X213953390Y-119716667D01*
X213953390Y-119716667D02*
X213905771Y-119764286D01*
X213905771Y-119764286D02*
X213858152Y-119859524D01*
X213858152Y-119859524D02*
X213858152Y-120002381D01*
X213858152Y-120002381D02*
X213905771Y-120097619D01*
X213905771Y-120097619D02*
X213953390Y-120145238D01*
X213953390Y-120145238D02*
X214048628Y-120192857D01*
X214048628Y-120192857D02*
X214334342Y-120192857D01*
X214334342Y-120192857D02*
X214429580Y-120145238D01*
X214429580Y-120145238D02*
X214477200Y-120097619D01*
X214477200Y-120097619D02*
X214524819Y-120002381D01*
X214524819Y-120002381D02*
X214524819Y-119859524D01*
X213858152Y-120526191D02*
X214524819Y-120716667D01*
X214524819Y-120716667D02*
X214048628Y-120907143D01*
X214048628Y-120907143D02*
X214524819Y-121097619D01*
X214524819Y-121097619D02*
X213858152Y-121288095D01*
X213858152Y-121669048D02*
X214524819Y-121669048D01*
X213953390Y-121669048D02*
X213905771Y-121716667D01*
X213905771Y-121716667D02*
X213858152Y-121811905D01*
X213858152Y-121811905D02*
X213858152Y-121954762D01*
X213858152Y-121954762D02*
X213905771Y-122050000D01*
X213905771Y-122050000D02*
X214001009Y-122097619D01*
X214001009Y-122097619D02*
X214524819Y-122097619D01*
X214524819Y-123335715D02*
X213524819Y-123335715D01*
X213524819Y-123335715D02*
X213524819Y-123573810D01*
X213524819Y-123573810D02*
X213572438Y-123716667D01*
X213572438Y-123716667D02*
X213667676Y-123811905D01*
X213667676Y-123811905D02*
X213762914Y-123859524D01*
X213762914Y-123859524D02*
X213953390Y-123907143D01*
X213953390Y-123907143D02*
X214096247Y-123907143D01*
X214096247Y-123907143D02*
X214286723Y-123859524D01*
X214286723Y-123859524D02*
X214381961Y-123811905D01*
X214381961Y-123811905D02*
X214477200Y-123716667D01*
X214477200Y-123716667D02*
X214524819Y-123573810D01*
X214524819Y-123573810D02*
X214524819Y-123335715D01*
X214524819Y-124335715D02*
X213524819Y-124335715D01*
X213524819Y-124335715D02*
X214524819Y-124907143D01*
X214524819Y-124907143D02*
X213524819Y-124907143D01*
X214524819Y-125383334D02*
X213524819Y-125383334D01*
D11*
X213018200Y-121506667D02*
X212894391Y-121420000D01*
X213018200Y-121358095D02*
X212758200Y-121358095D01*
X212758200Y-121358095D02*
X212758200Y-121457143D01*
X212758200Y-121457143D02*
X212770581Y-121481905D01*
X212770581Y-121481905D02*
X212782962Y-121494286D01*
X212782962Y-121494286D02*
X212807724Y-121506667D01*
X212807724Y-121506667D02*
X212844867Y-121506667D01*
X212844867Y-121506667D02*
X212869629Y-121494286D01*
X212869629Y-121494286D02*
X212882010Y-121481905D01*
X212882010Y-121481905D02*
X212894391Y-121457143D01*
X212894391Y-121457143D02*
X212894391Y-121358095D01*
X212758200Y-121741905D02*
X212758200Y-121618095D01*
X212758200Y-121618095D02*
X212882010Y-121605714D01*
X212882010Y-121605714D02*
X212869629Y-121618095D01*
X212869629Y-121618095D02*
X212857248Y-121642857D01*
X212857248Y-121642857D02*
X212857248Y-121704762D01*
X212857248Y-121704762D02*
X212869629Y-121729524D01*
X212869629Y-121729524D02*
X212882010Y-121741905D01*
X212882010Y-121741905D02*
X212906772Y-121754286D01*
X212906772Y-121754286D02*
X212968677Y-121754286D01*
X212968677Y-121754286D02*
X212993439Y-121741905D01*
X212993439Y-121741905D02*
X213005820Y-121729524D01*
X213005820Y-121729524D02*
X213018200Y-121704762D01*
X213018200Y-121704762D02*
X213018200Y-121642857D01*
X213018200Y-121642857D02*
X213005820Y-121618095D01*
X213005820Y-121618095D02*
X212993439Y-121605714D01*
D10*
X207234819Y-129052381D02*
X207234819Y-129147619D01*
X207234819Y-129147619D02*
X207282438Y-129242857D01*
X207282438Y-129242857D02*
X207330057Y-129290476D01*
X207330057Y-129290476D02*
X207425295Y-129338095D01*
X207425295Y-129338095D02*
X207615771Y-129385714D01*
X207615771Y-129385714D02*
X207853866Y-129385714D01*
X207853866Y-129385714D02*
X208044342Y-129338095D01*
X208044342Y-129338095D02*
X208139580Y-129290476D01*
X208139580Y-129290476D02*
X208187200Y-129242857D01*
X208187200Y-129242857D02*
X208234819Y-129147619D01*
X208234819Y-129147619D02*
X208234819Y-129052381D01*
X208234819Y-129052381D02*
X208187200Y-128957143D01*
X208187200Y-128957143D02*
X208139580Y-128909524D01*
X208139580Y-128909524D02*
X208044342Y-128861905D01*
X208044342Y-128861905D02*
X207853866Y-128814286D01*
X207853866Y-128814286D02*
X207615771Y-128814286D01*
X207615771Y-128814286D02*
X207425295Y-128861905D01*
X207425295Y-128861905D02*
X207330057Y-128909524D01*
X207330057Y-128909524D02*
X207282438Y-128957143D01*
X207282438Y-128957143D02*
X207234819Y-129052381D01*
X208234819Y-130385714D02*
X207758628Y-130052381D01*
X208234819Y-129814286D02*
X207234819Y-129814286D01*
X207234819Y-129814286D02*
X207234819Y-130195238D01*
X207234819Y-130195238D02*
X207282438Y-130290476D01*
X207282438Y-130290476D02*
X207330057Y-130338095D01*
X207330057Y-130338095D02*
X207425295Y-130385714D01*
X207425295Y-130385714D02*
X207568152Y-130385714D01*
X207568152Y-130385714D02*
X207663390Y-130338095D01*
X207663390Y-130338095D02*
X207711009Y-130290476D01*
X207711009Y-130290476D02*
X207758628Y-130195238D01*
X207758628Y-130195238D02*
X207758628Y-129814286D01*
D12*
X206531927Y-129533333D02*
X206341451Y-129400000D01*
X206531927Y-129304762D02*
X206131927Y-129304762D01*
X206131927Y-129304762D02*
X206131927Y-129457143D01*
X206131927Y-129457143D02*
X206150975Y-129495238D01*
X206150975Y-129495238D02*
X206170022Y-129514285D01*
X206170022Y-129514285D02*
X206208118Y-129533333D01*
X206208118Y-129533333D02*
X206265260Y-129533333D01*
X206265260Y-129533333D02*
X206303356Y-129514285D01*
X206303356Y-129514285D02*
X206322403Y-129495238D01*
X206322403Y-129495238D02*
X206341451Y-129457143D01*
X206341451Y-129457143D02*
X206341451Y-129304762D01*
X206531927Y-129914285D02*
X206531927Y-129685714D01*
X206531927Y-129800000D02*
X206131927Y-129800000D01*
X206131927Y-129800000D02*
X206189070Y-129761904D01*
X206189070Y-129761904D02*
X206227165Y-129723809D01*
X206227165Y-129723809D02*
X206246213Y-129685714D01*
D10*
X218548809Y-115479819D02*
X217882143Y-116479819D01*
X217882143Y-115479819D02*
X218548809Y-116479819D01*
X217596428Y-115479819D02*
X216929762Y-115479819D01*
X216929762Y-115479819D02*
X217596428Y-116479819D01*
X217596428Y-116479819D02*
X216929762Y-116479819D01*
X216548809Y-116479819D02*
X216548809Y-115479819D01*
X216548809Y-115479819D02*
X216215476Y-116194104D01*
X216215476Y-116194104D02*
X215882143Y-115479819D01*
X215882143Y-115479819D02*
X215882143Y-116479819D01*
X215405952Y-116479819D02*
X215405952Y-115479819D01*
X215405952Y-115479819D02*
X215167857Y-115479819D01*
X215167857Y-115479819D02*
X215025000Y-115527438D01*
X215025000Y-115527438D02*
X214929762Y-115622676D01*
X214929762Y-115622676D02*
X214882143Y-115717914D01*
X214882143Y-115717914D02*
X214834524Y-115908390D01*
X214834524Y-115908390D02*
X214834524Y-116051247D01*
X214834524Y-116051247D02*
X214882143Y-116241723D01*
X214882143Y-116241723D02*
X214929762Y-116336961D01*
X214929762Y-116336961D02*
X215025000Y-116432200D01*
X215025000Y-116432200D02*
X215167857Y-116479819D01*
X215167857Y-116479819D02*
X215405952Y-116479819D01*
X214405952Y-116479819D02*
X214405952Y-115479819D01*
X213834524Y-116479819D02*
X214263095Y-115908390D01*
X213834524Y-115479819D02*
X214405952Y-116051247D01*
X212834524Y-116384580D02*
X212882143Y-116432200D01*
X212882143Y-116432200D02*
X213025000Y-116479819D01*
X213025000Y-116479819D02*
X213120238Y-116479819D01*
X213120238Y-116479819D02*
X213263095Y-116432200D01*
X213263095Y-116432200D02*
X213358333Y-116336961D01*
X213358333Y-116336961D02*
X213405952Y-116241723D01*
X213405952Y-116241723D02*
X213453571Y-116051247D01*
X213453571Y-116051247D02*
X213453571Y-115908390D01*
X213453571Y-115908390D02*
X213405952Y-115717914D01*
X213405952Y-115717914D02*
X213358333Y-115622676D01*
X213358333Y-115622676D02*
X213263095Y-115527438D01*
X213263095Y-115527438D02*
X213120238Y-115479819D01*
X213120238Y-115479819D02*
X213025000Y-115479819D01*
X213025000Y-115479819D02*
X212882143Y-115527438D01*
X212882143Y-115527438D02*
X212834524Y-115575057D01*
X212072619Y-115956009D02*
X211929762Y-116003628D01*
X211929762Y-116003628D02*
X211882143Y-116051247D01*
X211882143Y-116051247D02*
X211834524Y-116146485D01*
X211834524Y-116146485D02*
X211834524Y-116289342D01*
X211834524Y-116289342D02*
X211882143Y-116384580D01*
X211882143Y-116384580D02*
X211929762Y-116432200D01*
X211929762Y-116432200D02*
X212025000Y-116479819D01*
X212025000Y-116479819D02*
X212405952Y-116479819D01*
X212405952Y-116479819D02*
X212405952Y-115479819D01*
X212405952Y-115479819D02*
X212072619Y-115479819D01*
X212072619Y-115479819D02*
X211977381Y-115527438D01*
X211977381Y-115527438D02*
X211929762Y-115575057D01*
X211929762Y-115575057D02*
X211882143Y-115670295D01*
X211882143Y-115670295D02*
X211882143Y-115765533D01*
X211882143Y-115765533D02*
X211929762Y-115860771D01*
X211929762Y-115860771D02*
X211977381Y-115908390D01*
X211977381Y-115908390D02*
X212072619Y-115956009D01*
X212072619Y-115956009D02*
X212405952Y-115956009D01*
X211405952Y-116479819D02*
X211405952Y-115479819D01*
X211405952Y-115479819D02*
X211167857Y-115479819D01*
X211167857Y-115479819D02*
X211025000Y-115527438D01*
X211025000Y-115527438D02*
X210929762Y-115622676D01*
X210929762Y-115622676D02*
X210882143Y-115717914D01*
X210882143Y-115717914D02*
X210834524Y-115908390D01*
X210834524Y-115908390D02*
X210834524Y-116051247D01*
X210834524Y-116051247D02*
X210882143Y-116241723D01*
X210882143Y-116241723D02*
X210929762Y-116336961D01*
X210929762Y-116336961D02*
X211025000Y-116432200D01*
X211025000Y-116432200D02*
X211167857Y-116479819D01*
X211167857Y-116479819D02*
X211405952Y-116479819D01*
X210405952Y-116479819D02*
X210405952Y-115479819D01*
X210405952Y-115479819D02*
X210167857Y-115479819D01*
X210167857Y-115479819D02*
X210025000Y-115527438D01*
X210025000Y-115527438D02*
X209929762Y-115622676D01*
X209929762Y-115622676D02*
X209882143Y-115717914D01*
X209882143Y-115717914D02*
X209834524Y-115908390D01*
X209834524Y-115908390D02*
X209834524Y-116051247D01*
X209834524Y-116051247D02*
X209882143Y-116241723D01*
X209882143Y-116241723D02*
X209929762Y-116336961D01*
X209929762Y-116336961D02*
X210025000Y-116432200D01*
X210025000Y-116432200D02*
X210167857Y-116479819D01*
X210167857Y-116479819D02*
X210405952Y-116479819D01*
X208882143Y-115527438D02*
X208977381Y-115479819D01*
X208977381Y-115479819D02*
X209120238Y-115479819D01*
X209120238Y-115479819D02*
X209263095Y-115527438D01*
X209263095Y-115527438D02*
X209358333Y-115622676D01*
X209358333Y-115622676D02*
X209405952Y-115717914D01*
X209405952Y-115717914D02*
X209453571Y-115908390D01*
X209453571Y-115908390D02*
X209453571Y-116051247D01*
X209453571Y-116051247D02*
X209405952Y-116241723D01*
X209405952Y-116241723D02*
X209358333Y-116336961D01*
X209358333Y-116336961D02*
X209263095Y-116432200D01*
X209263095Y-116432200D02*
X209120238Y-116479819D01*
X209120238Y-116479819D02*
X209025000Y-116479819D01*
X209025000Y-116479819D02*
X208882143Y-116432200D01*
X208882143Y-116432200D02*
X208834524Y-116384580D01*
X208834524Y-116384580D02*
X208834524Y-116051247D01*
X208834524Y-116051247D02*
X209025000Y-116051247D01*
X207977381Y-115813152D02*
X207977381Y-116479819D01*
X208215476Y-115432200D02*
X208453571Y-116146485D01*
X208453571Y-116146485D02*
X207834524Y-116146485D01*
X206977381Y-115479819D02*
X207453571Y-115479819D01*
X207453571Y-115479819D02*
X207501190Y-115956009D01*
X207501190Y-115956009D02*
X207453571Y-115908390D01*
X207453571Y-115908390D02*
X207358333Y-115860771D01*
X207358333Y-115860771D02*
X207120238Y-115860771D01*
X207120238Y-115860771D02*
X207025000Y-115908390D01*
X207025000Y-115908390D02*
X206977381Y-115956009D01*
X206977381Y-115956009D02*
X206929762Y-116051247D01*
X206929762Y-116051247D02*
X206929762Y-116289342D01*
X206929762Y-116289342D02*
X206977381Y-116384580D01*
X206977381Y-116384580D02*
X207025000Y-116432200D01*
X207025000Y-116432200D02*
X207120238Y-116479819D01*
X207120238Y-116479819D02*
X207358333Y-116479819D01*
X207358333Y-116479819D02*
X207453571Y-116432200D01*
X207453571Y-116432200D02*
X207501190Y-116384580D01*
X206548809Y-116432200D02*
X206405952Y-116479819D01*
X206405952Y-116479819D02*
X206167857Y-116479819D01*
X206167857Y-116479819D02*
X206072619Y-116432200D01*
X206072619Y-116432200D02*
X206025000Y-116384580D01*
X206025000Y-116384580D02*
X205977381Y-116289342D01*
X205977381Y-116289342D02*
X205977381Y-116194104D01*
X205977381Y-116194104D02*
X206025000Y-116098866D01*
X206025000Y-116098866D02*
X206072619Y-116051247D01*
X206072619Y-116051247D02*
X206167857Y-116003628D01*
X206167857Y-116003628D02*
X206358333Y-115956009D01*
X206358333Y-115956009D02*
X206453571Y-115908390D01*
X206453571Y-115908390D02*
X206501190Y-115860771D01*
X206501190Y-115860771D02*
X206548809Y-115765533D01*
X206548809Y-115765533D02*
X206548809Y-115670295D01*
X206548809Y-115670295D02*
X206501190Y-115575057D01*
X206501190Y-115575057D02*
X206453571Y-115527438D01*
X206453571Y-115527438D02*
X206358333Y-115479819D01*
X206358333Y-115479819D02*
X206120238Y-115479819D01*
X206120238Y-115479819D02*
X205977381Y-115527438D01*
X205548809Y-116098866D02*
X204786905Y-116098866D01*
X204263095Y-116479819D02*
X204072619Y-116479819D01*
X204072619Y-116479819D02*
X203977381Y-116432200D01*
X203977381Y-116432200D02*
X203929762Y-116384580D01*
X203929762Y-116384580D02*
X203834524Y-116241723D01*
X203834524Y-116241723D02*
X203786905Y-116051247D01*
X203786905Y-116051247D02*
X203786905Y-115670295D01*
X203786905Y-115670295D02*
X203834524Y-115575057D01*
X203834524Y-115575057D02*
X203882143Y-115527438D01*
X203882143Y-115527438D02*
X203977381Y-115479819D01*
X203977381Y-115479819D02*
X204167857Y-115479819D01*
X204167857Y-115479819D02*
X204263095Y-115527438D01*
X204263095Y-115527438D02*
X204310714Y-115575057D01*
X204310714Y-115575057D02*
X204358333Y-115670295D01*
X204358333Y-115670295D02*
X204358333Y-115908390D01*
X204358333Y-115908390D02*
X204310714Y-116003628D01*
X204310714Y-116003628D02*
X204263095Y-116051247D01*
X204263095Y-116051247D02*
X204167857Y-116098866D01*
X204167857Y-116098866D02*
X203977381Y-116098866D01*
X203977381Y-116098866D02*
X203882143Y-116051247D01*
X203882143Y-116051247D02*
X203834524Y-116003628D01*
X203834524Y-116003628D02*
X203786905Y-115908390D01*
X199774819Y-117716667D02*
X198774819Y-117716667D01*
X198774819Y-117716667D02*
X198774819Y-118097619D01*
X198774819Y-118097619D02*
X198822438Y-118192857D01*
X198822438Y-118192857D02*
X198870057Y-118240476D01*
X198870057Y-118240476D02*
X198965295Y-118288095D01*
X198965295Y-118288095D02*
X199108152Y-118288095D01*
X199108152Y-118288095D02*
X199203390Y-118240476D01*
X199203390Y-118240476D02*
X199251009Y-118192857D01*
X199251009Y-118192857D02*
X199298628Y-118097619D01*
X199298628Y-118097619D02*
X199298628Y-117716667D01*
X199774819Y-118716667D02*
X198774819Y-118716667D01*
X198774819Y-118716667D02*
X198774819Y-118954762D01*
X198774819Y-118954762D02*
X198822438Y-119097619D01*
X198822438Y-119097619D02*
X198917676Y-119192857D01*
X198917676Y-119192857D02*
X199012914Y-119240476D01*
X199012914Y-119240476D02*
X199203390Y-119288095D01*
X199203390Y-119288095D02*
X199346247Y-119288095D01*
X199346247Y-119288095D02*
X199536723Y-119240476D01*
X199536723Y-119240476D02*
X199631961Y-119192857D01*
X199631961Y-119192857D02*
X199727200Y-119097619D01*
X199727200Y-119097619D02*
X199774819Y-118954762D01*
X199774819Y-118954762D02*
X199774819Y-118716667D01*
X199774819Y-119859524D02*
X199727200Y-119764286D01*
X199727200Y-119764286D02*
X199679580Y-119716667D01*
X199679580Y-119716667D02*
X199584342Y-119669048D01*
X199584342Y-119669048D02*
X199298628Y-119669048D01*
X199298628Y-119669048D02*
X199203390Y-119716667D01*
X199203390Y-119716667D02*
X199155771Y-119764286D01*
X199155771Y-119764286D02*
X199108152Y-119859524D01*
X199108152Y-119859524D02*
X199108152Y-120002381D01*
X199108152Y-120002381D02*
X199155771Y-120097619D01*
X199155771Y-120097619D02*
X199203390Y-120145238D01*
X199203390Y-120145238D02*
X199298628Y-120192857D01*
X199298628Y-120192857D02*
X199584342Y-120192857D01*
X199584342Y-120192857D02*
X199679580Y-120145238D01*
X199679580Y-120145238D02*
X199727200Y-120097619D01*
X199727200Y-120097619D02*
X199774819Y-120002381D01*
X199774819Y-120002381D02*
X199774819Y-119859524D01*
X199108152Y-120526191D02*
X199774819Y-120716667D01*
X199774819Y-120716667D02*
X199298628Y-120907143D01*
X199298628Y-120907143D02*
X199774819Y-121097619D01*
X199774819Y-121097619D02*
X199108152Y-121288095D01*
X199108152Y-121669048D02*
X199774819Y-121669048D01*
X199203390Y-121669048D02*
X199155771Y-121716667D01*
X199155771Y-121716667D02*
X199108152Y-121811905D01*
X199108152Y-121811905D02*
X199108152Y-121954762D01*
X199108152Y-121954762D02*
X199155771Y-122050000D01*
X199155771Y-122050000D02*
X199251009Y-122097619D01*
X199251009Y-122097619D02*
X199774819Y-122097619D01*
X199774819Y-123335715D02*
X198774819Y-123335715D01*
X198774819Y-123335715D02*
X198774819Y-123573810D01*
X198774819Y-123573810D02*
X198822438Y-123716667D01*
X198822438Y-123716667D02*
X198917676Y-123811905D01*
X198917676Y-123811905D02*
X199012914Y-123859524D01*
X199012914Y-123859524D02*
X199203390Y-123907143D01*
X199203390Y-123907143D02*
X199346247Y-123907143D01*
X199346247Y-123907143D02*
X199536723Y-123859524D01*
X199536723Y-123859524D02*
X199631961Y-123811905D01*
X199631961Y-123811905D02*
X199727200Y-123716667D01*
X199727200Y-123716667D02*
X199774819Y-123573810D01*
X199774819Y-123573810D02*
X199774819Y-123335715D01*
X199774819Y-124335715D02*
X198774819Y-124335715D01*
X198774819Y-124335715D02*
X199774819Y-124907143D01*
X199774819Y-124907143D02*
X198774819Y-124907143D01*
X199774819Y-125383334D02*
X198774819Y-125383334D01*
D11*
X198268200Y-121506667D02*
X198144391Y-121420000D01*
X198268200Y-121358095D02*
X198008200Y-121358095D01*
X198008200Y-121358095D02*
X198008200Y-121457143D01*
X198008200Y-121457143D02*
X198020581Y-121481905D01*
X198020581Y-121481905D02*
X198032962Y-121494286D01*
X198032962Y-121494286D02*
X198057724Y-121506667D01*
X198057724Y-121506667D02*
X198094867Y-121506667D01*
X198094867Y-121506667D02*
X198119629Y-121494286D01*
X198119629Y-121494286D02*
X198132010Y-121481905D01*
X198132010Y-121481905D02*
X198144391Y-121457143D01*
X198144391Y-121457143D02*
X198144391Y-121358095D01*
X198032962Y-121605714D02*
X198020581Y-121618095D01*
X198020581Y-121618095D02*
X198008200Y-121642857D01*
X198008200Y-121642857D02*
X198008200Y-121704762D01*
X198008200Y-121704762D02*
X198020581Y-121729524D01*
X198020581Y-121729524D02*
X198032962Y-121741905D01*
X198032962Y-121741905D02*
X198057724Y-121754286D01*
X198057724Y-121754286D02*
X198082486Y-121754286D01*
X198082486Y-121754286D02*
X198119629Y-121741905D01*
X198119629Y-121741905D02*
X198268200Y-121593333D01*
X198268200Y-121593333D02*
X198268200Y-121754286D01*
D10*
X201824819Y-121619048D02*
X200824819Y-121619048D01*
X200824819Y-121619048D02*
X200824819Y-122000000D01*
X200824819Y-122000000D02*
X200872438Y-122095238D01*
X200872438Y-122095238D02*
X200920057Y-122142857D01*
X200920057Y-122142857D02*
X201015295Y-122190476D01*
X201015295Y-122190476D02*
X201158152Y-122190476D01*
X201158152Y-122190476D02*
X201253390Y-122142857D01*
X201253390Y-122142857D02*
X201301009Y-122095238D01*
X201301009Y-122095238D02*
X201348628Y-122000000D01*
X201348628Y-122000000D02*
X201348628Y-121619048D01*
X200824819Y-122619048D02*
X201634342Y-122619048D01*
X201634342Y-122619048D02*
X201729580Y-122666667D01*
X201729580Y-122666667D02*
X201777200Y-122714286D01*
X201777200Y-122714286D02*
X201824819Y-122809524D01*
X201824819Y-122809524D02*
X201824819Y-123000000D01*
X201824819Y-123000000D02*
X201777200Y-123095238D01*
X201777200Y-123095238D02*
X201729580Y-123142857D01*
X201729580Y-123142857D02*
X201634342Y-123190476D01*
X201634342Y-123190476D02*
X200824819Y-123190476D01*
X201158152Y-123666667D02*
X202158152Y-123666667D01*
X201205771Y-123666667D02*
X201158152Y-123761905D01*
X201158152Y-123761905D02*
X201158152Y-123952381D01*
X201158152Y-123952381D02*
X201205771Y-124047619D01*
X201205771Y-124047619D02*
X201253390Y-124095238D01*
X201253390Y-124095238D02*
X201348628Y-124142857D01*
X201348628Y-124142857D02*
X201634342Y-124142857D01*
X201634342Y-124142857D02*
X201729580Y-124095238D01*
X201729580Y-124095238D02*
X201777200Y-124047619D01*
X201777200Y-124047619D02*
X201824819Y-123952381D01*
X201824819Y-123952381D02*
X201824819Y-123761905D01*
X201824819Y-123761905D02*
X201777200Y-123666667D01*
X201824819Y-125333334D02*
X200824819Y-125333334D01*
X200824819Y-125333334D02*
X200824819Y-125571429D01*
X200824819Y-125571429D02*
X200872438Y-125714286D01*
X200872438Y-125714286D02*
X200967676Y-125809524D01*
X200967676Y-125809524D02*
X201062914Y-125857143D01*
X201062914Y-125857143D02*
X201253390Y-125904762D01*
X201253390Y-125904762D02*
X201396247Y-125904762D01*
X201396247Y-125904762D02*
X201586723Y-125857143D01*
X201586723Y-125857143D02*
X201681961Y-125809524D01*
X201681961Y-125809524D02*
X201777200Y-125714286D01*
X201777200Y-125714286D02*
X201824819Y-125571429D01*
X201824819Y-125571429D02*
X201824819Y-125333334D01*
X201824819Y-126333334D02*
X200824819Y-126333334D01*
X200824819Y-126333334D02*
X201824819Y-126904762D01*
X201824819Y-126904762D02*
X200824819Y-126904762D01*
X201824819Y-127380953D02*
X200824819Y-127380953D01*
D11*
X200318200Y-124456667D02*
X200194391Y-124370000D01*
X200318200Y-124308095D02*
X200058200Y-124308095D01*
X200058200Y-124308095D02*
X200058200Y-124407143D01*
X200058200Y-124407143D02*
X200070581Y-124431905D01*
X200070581Y-124431905D02*
X200082962Y-124444286D01*
X200082962Y-124444286D02*
X200107724Y-124456667D01*
X200107724Y-124456667D02*
X200144867Y-124456667D01*
X200144867Y-124456667D02*
X200169629Y-124444286D01*
X200169629Y-124444286D02*
X200182010Y-124431905D01*
X200182010Y-124431905D02*
X200194391Y-124407143D01*
X200194391Y-124407143D02*
X200194391Y-124308095D01*
X200318200Y-124580476D02*
X200318200Y-124630000D01*
X200318200Y-124630000D02*
X200305820Y-124654762D01*
X200305820Y-124654762D02*
X200293439Y-124667143D01*
X200293439Y-124667143D02*
X200256296Y-124691905D01*
X200256296Y-124691905D02*
X200206772Y-124704286D01*
X200206772Y-124704286D02*
X200107724Y-124704286D01*
X200107724Y-124704286D02*
X200082962Y-124691905D01*
X200082962Y-124691905D02*
X200070581Y-124679524D01*
X200070581Y-124679524D02*
X200058200Y-124654762D01*
X200058200Y-124654762D02*
X200058200Y-124605238D01*
X200058200Y-124605238D02*
X200070581Y-124580476D01*
X200070581Y-124580476D02*
X200082962Y-124568095D01*
X200082962Y-124568095D02*
X200107724Y-124555714D01*
X200107724Y-124555714D02*
X200169629Y-124555714D01*
X200169629Y-124555714D02*
X200194391Y-124568095D01*
X200194391Y-124568095D02*
X200206772Y-124580476D01*
X200206772Y-124580476D02*
X200219153Y-124605238D01*
X200219153Y-124605238D02*
X200219153Y-124654762D01*
X200219153Y-124654762D02*
X200206772Y-124679524D01*
X200206772Y-124679524D02*
X200194391Y-124691905D01*
X200194391Y-124691905D02*
X200169629Y-124704286D01*
D10*
X142154761Y-117279819D02*
X141488095Y-118279819D01*
X141488095Y-117279819D02*
X142154761Y-118279819D01*
X141202380Y-117279819D02*
X140535714Y-117279819D01*
X140535714Y-117279819D02*
X141202380Y-118279819D01*
X141202380Y-118279819D02*
X140535714Y-118279819D01*
X140154761Y-118279819D02*
X140154761Y-117279819D01*
X140154761Y-117279819D02*
X139821428Y-117994104D01*
X139821428Y-117994104D02*
X139488095Y-117279819D01*
X139488095Y-117279819D02*
X139488095Y-118279819D01*
X139011904Y-118279819D02*
X139011904Y-117279819D01*
X139011904Y-117279819D02*
X138773809Y-117279819D01*
X138773809Y-117279819D02*
X138630952Y-117327438D01*
X138630952Y-117327438D02*
X138535714Y-117422676D01*
X138535714Y-117422676D02*
X138488095Y-117517914D01*
X138488095Y-117517914D02*
X138440476Y-117708390D01*
X138440476Y-117708390D02*
X138440476Y-117851247D01*
X138440476Y-117851247D02*
X138488095Y-118041723D01*
X138488095Y-118041723D02*
X138535714Y-118136961D01*
X138535714Y-118136961D02*
X138630952Y-118232200D01*
X138630952Y-118232200D02*
X138773809Y-118279819D01*
X138773809Y-118279819D02*
X139011904Y-118279819D01*
X138011904Y-118279819D02*
X138011904Y-117279819D01*
X137440476Y-118279819D02*
X137869047Y-117708390D01*
X137440476Y-117279819D02*
X138011904Y-117851247D01*
X136440476Y-118184580D02*
X136488095Y-118232200D01*
X136488095Y-118232200D02*
X136630952Y-118279819D01*
X136630952Y-118279819D02*
X136726190Y-118279819D01*
X136726190Y-118279819D02*
X136869047Y-118232200D01*
X136869047Y-118232200D02*
X136964285Y-118136961D01*
X136964285Y-118136961D02*
X137011904Y-118041723D01*
X137011904Y-118041723D02*
X137059523Y-117851247D01*
X137059523Y-117851247D02*
X137059523Y-117708390D01*
X137059523Y-117708390D02*
X137011904Y-117517914D01*
X137011904Y-117517914D02*
X136964285Y-117422676D01*
X136964285Y-117422676D02*
X136869047Y-117327438D01*
X136869047Y-117327438D02*
X136726190Y-117279819D01*
X136726190Y-117279819D02*
X136630952Y-117279819D01*
X136630952Y-117279819D02*
X136488095Y-117327438D01*
X136488095Y-117327438D02*
X136440476Y-117375057D01*
X135678571Y-117756009D02*
X135535714Y-117803628D01*
X135535714Y-117803628D02*
X135488095Y-117851247D01*
X135488095Y-117851247D02*
X135440476Y-117946485D01*
X135440476Y-117946485D02*
X135440476Y-118089342D01*
X135440476Y-118089342D02*
X135488095Y-118184580D01*
X135488095Y-118184580D02*
X135535714Y-118232200D01*
X135535714Y-118232200D02*
X135630952Y-118279819D01*
X135630952Y-118279819D02*
X136011904Y-118279819D01*
X136011904Y-118279819D02*
X136011904Y-117279819D01*
X136011904Y-117279819D02*
X135678571Y-117279819D01*
X135678571Y-117279819D02*
X135583333Y-117327438D01*
X135583333Y-117327438D02*
X135535714Y-117375057D01*
X135535714Y-117375057D02*
X135488095Y-117470295D01*
X135488095Y-117470295D02*
X135488095Y-117565533D01*
X135488095Y-117565533D02*
X135535714Y-117660771D01*
X135535714Y-117660771D02*
X135583333Y-117708390D01*
X135583333Y-117708390D02*
X135678571Y-117756009D01*
X135678571Y-117756009D02*
X136011904Y-117756009D01*
X135011904Y-118279819D02*
X135011904Y-117279819D01*
X135011904Y-117279819D02*
X134773809Y-117279819D01*
X134773809Y-117279819D02*
X134630952Y-117327438D01*
X134630952Y-117327438D02*
X134535714Y-117422676D01*
X134535714Y-117422676D02*
X134488095Y-117517914D01*
X134488095Y-117517914D02*
X134440476Y-117708390D01*
X134440476Y-117708390D02*
X134440476Y-117851247D01*
X134440476Y-117851247D02*
X134488095Y-118041723D01*
X134488095Y-118041723D02*
X134535714Y-118136961D01*
X134535714Y-118136961D02*
X134630952Y-118232200D01*
X134630952Y-118232200D02*
X134773809Y-118279819D01*
X134773809Y-118279819D02*
X135011904Y-118279819D01*
X134011904Y-118279819D02*
X134011904Y-117279819D01*
X134011904Y-117279819D02*
X133773809Y-117279819D01*
X133773809Y-117279819D02*
X133630952Y-117327438D01*
X133630952Y-117327438D02*
X133535714Y-117422676D01*
X133535714Y-117422676D02*
X133488095Y-117517914D01*
X133488095Y-117517914D02*
X133440476Y-117708390D01*
X133440476Y-117708390D02*
X133440476Y-117851247D01*
X133440476Y-117851247D02*
X133488095Y-118041723D01*
X133488095Y-118041723D02*
X133535714Y-118136961D01*
X133535714Y-118136961D02*
X133630952Y-118232200D01*
X133630952Y-118232200D02*
X133773809Y-118279819D01*
X133773809Y-118279819D02*
X134011904Y-118279819D01*
X132488095Y-117327438D02*
X132583333Y-117279819D01*
X132583333Y-117279819D02*
X132726190Y-117279819D01*
X132726190Y-117279819D02*
X132869047Y-117327438D01*
X132869047Y-117327438D02*
X132964285Y-117422676D01*
X132964285Y-117422676D02*
X133011904Y-117517914D01*
X133011904Y-117517914D02*
X133059523Y-117708390D01*
X133059523Y-117708390D02*
X133059523Y-117851247D01*
X133059523Y-117851247D02*
X133011904Y-118041723D01*
X133011904Y-118041723D02*
X132964285Y-118136961D01*
X132964285Y-118136961D02*
X132869047Y-118232200D01*
X132869047Y-118232200D02*
X132726190Y-118279819D01*
X132726190Y-118279819D02*
X132630952Y-118279819D01*
X132630952Y-118279819D02*
X132488095Y-118232200D01*
X132488095Y-118232200D02*
X132440476Y-118184580D01*
X132440476Y-118184580D02*
X132440476Y-117851247D01*
X132440476Y-117851247D02*
X132630952Y-117851247D01*
X131583333Y-117613152D02*
X131583333Y-118279819D01*
X131821428Y-117232200D02*
X132059523Y-117946485D01*
X132059523Y-117946485D02*
X131440476Y-117946485D01*
X130583333Y-117279819D02*
X131059523Y-117279819D01*
X131059523Y-117279819D02*
X131107142Y-117756009D01*
X131107142Y-117756009D02*
X131059523Y-117708390D01*
X131059523Y-117708390D02*
X130964285Y-117660771D01*
X130964285Y-117660771D02*
X130726190Y-117660771D01*
X130726190Y-117660771D02*
X130630952Y-117708390D01*
X130630952Y-117708390D02*
X130583333Y-117756009D01*
X130583333Y-117756009D02*
X130535714Y-117851247D01*
X130535714Y-117851247D02*
X130535714Y-118089342D01*
X130535714Y-118089342D02*
X130583333Y-118184580D01*
X130583333Y-118184580D02*
X130630952Y-118232200D01*
X130630952Y-118232200D02*
X130726190Y-118279819D01*
X130726190Y-118279819D02*
X130964285Y-118279819D01*
X130964285Y-118279819D02*
X131059523Y-118232200D01*
X131059523Y-118232200D02*
X131107142Y-118184580D01*
X130154761Y-118232200D02*
X130011904Y-118279819D01*
X130011904Y-118279819D02*
X129773809Y-118279819D01*
X129773809Y-118279819D02*
X129678571Y-118232200D01*
X129678571Y-118232200D02*
X129630952Y-118184580D01*
X129630952Y-118184580D02*
X129583333Y-118089342D01*
X129583333Y-118089342D02*
X129583333Y-117994104D01*
X129583333Y-117994104D02*
X129630952Y-117898866D01*
X129630952Y-117898866D02*
X129678571Y-117851247D01*
X129678571Y-117851247D02*
X129773809Y-117803628D01*
X129773809Y-117803628D02*
X129964285Y-117756009D01*
X129964285Y-117756009D02*
X130059523Y-117708390D01*
X130059523Y-117708390D02*
X130107142Y-117660771D01*
X130107142Y-117660771D02*
X130154761Y-117565533D01*
X130154761Y-117565533D02*
X130154761Y-117470295D01*
X130154761Y-117470295D02*
X130107142Y-117375057D01*
X130107142Y-117375057D02*
X130059523Y-117327438D01*
X130059523Y-117327438D02*
X129964285Y-117279819D01*
X129964285Y-117279819D02*
X129726190Y-117279819D01*
X129726190Y-117279819D02*
X129583333Y-117327438D01*
X129154761Y-117898866D02*
X128392857Y-117898866D01*
X127869047Y-118279819D02*
X127678571Y-118279819D01*
X127678571Y-118279819D02*
X127583333Y-118232200D01*
X127583333Y-118232200D02*
X127535714Y-118184580D01*
X127535714Y-118184580D02*
X127440476Y-118041723D01*
X127440476Y-118041723D02*
X127392857Y-117851247D01*
X127392857Y-117851247D02*
X127392857Y-117470295D01*
X127392857Y-117470295D02*
X127440476Y-117375057D01*
X127440476Y-117375057D02*
X127488095Y-117327438D01*
X127488095Y-117327438D02*
X127583333Y-117279819D01*
X127583333Y-117279819D02*
X127773809Y-117279819D01*
X127773809Y-117279819D02*
X127869047Y-117327438D01*
X127869047Y-117327438D02*
X127916666Y-117375057D01*
X127916666Y-117375057D02*
X127964285Y-117470295D01*
X127964285Y-117470295D02*
X127964285Y-117708390D01*
X127964285Y-117708390D02*
X127916666Y-117803628D01*
X127916666Y-117803628D02*
X127869047Y-117851247D01*
X127869047Y-117851247D02*
X127773809Y-117898866D01*
X127773809Y-117898866D02*
X127583333Y-117898866D01*
X127583333Y-117898866D02*
X127488095Y-117851247D01*
X127488095Y-117851247D02*
X127440476Y-117803628D01*
X127440476Y-117803628D02*
X127392857Y-117708390D01*
X211290475Y-130500057D02*
X211242856Y-130452438D01*
X211242856Y-130452438D02*
X211147618Y-130404819D01*
X211147618Y-130404819D02*
X210909523Y-130404819D01*
X210909523Y-130404819D02*
X210814285Y-130452438D01*
X210814285Y-130452438D02*
X210766666Y-130500057D01*
X210766666Y-130500057D02*
X210719047Y-130595295D01*
X210719047Y-130595295D02*
X210719047Y-130690533D01*
X210719047Y-130690533D02*
X210766666Y-130833390D01*
X210766666Y-130833390D02*
X211338094Y-131404819D01*
X211338094Y-131404819D02*
X210719047Y-131404819D01*
X209861904Y-130738152D02*
X209861904Y-131404819D01*
X210099999Y-130357200D02*
X210338094Y-131071485D01*
X210338094Y-131071485D02*
X209719047Y-131071485D01*
X208576189Y-130738152D02*
X208576189Y-131738152D01*
X208576189Y-130785771D02*
X208480951Y-130738152D01*
X208480951Y-130738152D02*
X208290475Y-130738152D01*
X208290475Y-130738152D02*
X208195237Y-130785771D01*
X208195237Y-130785771D02*
X208147618Y-130833390D01*
X208147618Y-130833390D02*
X208099999Y-130928628D01*
X208099999Y-130928628D02*
X208099999Y-131214342D01*
X208099999Y-131214342D02*
X208147618Y-131309580D01*
X208147618Y-131309580D02*
X208195237Y-131357200D01*
X208195237Y-131357200D02*
X208290475Y-131404819D01*
X208290475Y-131404819D02*
X208480951Y-131404819D01*
X208480951Y-131404819D02*
X208576189Y-131357200D01*
X207671427Y-131404819D02*
X207671427Y-130738152D01*
X207671427Y-130404819D02*
X207719046Y-130452438D01*
X207719046Y-130452438D02*
X207671427Y-130500057D01*
X207671427Y-130500057D02*
X207623808Y-130452438D01*
X207623808Y-130452438D02*
X207671427Y-130404819D01*
X207671427Y-130404819D02*
X207671427Y-130500057D01*
X207195237Y-130738152D02*
X207195237Y-131404819D01*
X207195237Y-130833390D02*
X207147618Y-130785771D01*
X207147618Y-130785771D02*
X207052380Y-130738152D01*
X207052380Y-130738152D02*
X206909523Y-130738152D01*
X206909523Y-130738152D02*
X206814285Y-130785771D01*
X206814285Y-130785771D02*
X206766666Y-130881009D01*
X206766666Y-130881009D02*
X206766666Y-131404819D01*
X206338094Y-131357200D02*
X206242856Y-131404819D01*
X206242856Y-131404819D02*
X206052380Y-131404819D01*
X206052380Y-131404819D02*
X205957142Y-131357200D01*
X205957142Y-131357200D02*
X205909523Y-131261961D01*
X205909523Y-131261961D02*
X205909523Y-131214342D01*
X205909523Y-131214342D02*
X205957142Y-131119104D01*
X205957142Y-131119104D02*
X206052380Y-131071485D01*
X206052380Y-131071485D02*
X206195237Y-131071485D01*
X206195237Y-131071485D02*
X206290475Y-131023866D01*
X206290475Y-131023866D02*
X206338094Y-130928628D01*
X206338094Y-130928628D02*
X206338094Y-130881009D01*
X206338094Y-130881009D02*
X206290475Y-130785771D01*
X206290475Y-130785771D02*
X206195237Y-130738152D01*
X206195237Y-130738152D02*
X206052380Y-130738152D01*
X206052380Y-130738152D02*
X205957142Y-130785771D01*
X206283333Y-134054819D02*
X206283333Y-134769104D01*
X206283333Y-134769104D02*
X206330952Y-134911961D01*
X206330952Y-134911961D02*
X206426190Y-135007200D01*
X206426190Y-135007200D02*
X206569047Y-135054819D01*
X206569047Y-135054819D02*
X206664285Y-135054819D01*
X205283333Y-135054819D02*
X205854761Y-135054819D01*
X205569047Y-135054819D02*
X205569047Y-134054819D01*
X205569047Y-134054819D02*
X205664285Y-134197676D01*
X205664285Y-134197676D02*
X205759523Y-134292914D01*
X205759523Y-134292914D02*
X205854761Y-134340533D01*
D13*
%TO.C,R6*%
X205880000Y-121025000D02*
X205880000Y-122075000D01*
X205880000Y-122075000D02*
X206420000Y-122075000D01*
X206420000Y-121025000D02*
X205880000Y-121025000D01*
X206420000Y-122075000D02*
X206420000Y-121025000D01*
%TO.C,R3*%
X202237500Y-128850000D02*
X202237500Y-130450000D01*
X202237500Y-130450000D02*
X203062500Y-130450000D01*
X203062500Y-128850000D02*
X202237500Y-128850000D01*
X203062500Y-130450000D02*
X203062500Y-128850000D01*
%TO.C,LED5*%
X179100000Y-111550000D02*
X186100000Y-111550000D01*
X179100000Y-115050000D02*
X179100000Y-111550000D01*
X186100000Y-111550000D02*
X186100000Y-115050000D01*
X186100000Y-115050000D02*
X179100000Y-115050000D01*
%TO.C,LED1*%
X194122619Y-109750000D02*
X201122619Y-109750000D01*
X194122619Y-113250000D02*
X194122619Y-109750000D01*
X201122619Y-109750000D02*
X201122619Y-113250000D01*
X201122619Y-113250000D02*
X194122619Y-113250000D01*
%TO.C,R10*%
X205880000Y-123975000D02*
X205880000Y-125025000D01*
X205880000Y-125025000D02*
X206420000Y-125025000D01*
X206420000Y-123975000D02*
X205880000Y-123975000D01*
X206420000Y-125025000D02*
X206420000Y-123975000D01*
%TO.C,LED4*%
X162440000Y-111570000D02*
X169440000Y-111570000D01*
X162440000Y-115070000D02*
X162440000Y-111570000D01*
X169440000Y-111570000D02*
X169440000Y-115070000D01*
X169440000Y-115070000D02*
X162440000Y-115070000D01*
%TO.C,R4*%
X204087500Y-128850000D02*
X204087500Y-130450000D01*
X204087500Y-130450000D02*
X204912500Y-130450000D01*
X204912500Y-128850000D02*
X204087500Y-128850000D01*
X204912500Y-130450000D02*
X204912500Y-128850000D01*
%TO.C,R11*%
X212630000Y-123975000D02*
X212630000Y-125025000D01*
X212630000Y-125025000D02*
X213170000Y-125025000D01*
X213170000Y-123975000D02*
X212630000Y-123975000D01*
X213170000Y-125025000D02*
X213170000Y-123975000D01*
%TO.C,LED3*%
X145880000Y-111570000D02*
X152880000Y-111570000D01*
X145880000Y-115070000D02*
X145880000Y-111570000D01*
X152880000Y-111570000D02*
X152880000Y-115070000D01*
X152880000Y-115070000D02*
X145880000Y-115070000D01*
%TO.C,R7*%
X199930000Y-121025000D02*
X199930000Y-122075000D01*
X199930000Y-122075000D02*
X200470000Y-122075000D01*
X200470000Y-121025000D02*
X199930000Y-121025000D01*
X200470000Y-122075000D02*
X200470000Y-121025000D01*
%TO.C,R8*%
X197880000Y-123975000D02*
X197880000Y-125025000D01*
X197880000Y-125025000D02*
X198420000Y-125025000D01*
X198420000Y-123975000D02*
X197880000Y-123975000D01*
X198420000Y-125025000D02*
X198420000Y-123975000D01*
%TO.C,R5*%
X212630000Y-121025000D02*
X212630000Y-122075000D01*
X212630000Y-122075000D02*
X213170000Y-122075000D01*
X213170000Y-121025000D02*
X212630000Y-121025000D01*
X213170000Y-122075000D02*
X213170000Y-121025000D01*
%TO.C,R1*%
X205937500Y-128800000D02*
X205937500Y-130400000D01*
X205937500Y-130400000D02*
X206762500Y-130400000D01*
X206762500Y-128800000D02*
X205937500Y-128800000D01*
X206762500Y-130400000D02*
X206762500Y-128800000D01*
%TO.C,LED6*%
X205694048Y-109750000D02*
X212694048Y-109750000D01*
X205694048Y-113250000D02*
X205694048Y-109750000D01*
X212694048Y-109750000D02*
X212694048Y-113250000D01*
X212694048Y-113250000D02*
X205694048Y-113250000D01*
%TO.C,R2*%
X197880000Y-121025000D02*
X197880000Y-122075000D01*
X197880000Y-122075000D02*
X198420000Y-122075000D01*
X198420000Y-121025000D02*
X197880000Y-121025000D01*
X198420000Y-122075000D02*
X198420000Y-121025000D01*
%TO.C,R9*%
X199930000Y-123975000D02*
X199930000Y-125025000D01*
X199930000Y-125025000D02*
X200470000Y-125025000D01*
X200470000Y-123975000D02*
X199930000Y-123975000D01*
X200470000Y-125025000D02*
X200470000Y-123975000D01*
%TO.C,LED2*%
X129300000Y-111550000D02*
X136300000Y-111550000D01*
X129300000Y-115050000D02*
X129300000Y-111550000D01*
X136300000Y-111550000D02*
X136300000Y-115050000D01*
X136300000Y-115050000D02*
X129300000Y-115050000D01*
%TO.C,J1*%
X196850000Y-132825000D02*
X213350000Y-132825000D01*
X196850000Y-137725000D02*
X196850000Y-132825000D01*
X197550000Y-137725000D02*
X196850000Y-137725000D01*
X197550000Y-137725000D02*
X197550000Y-137465000D01*
X198300000Y-133325000D02*
X197800000Y-132825000D01*
X198300000Y-133325000D02*
X211900000Y-133325000D01*
X198850000Y-137050000D02*
X198600000Y-137450000D01*
X199100000Y-137465000D02*
X198850000Y-137050000D01*
X211900000Y-133325000D02*
X212400000Y-132825000D01*
X212650000Y-137465000D02*
X197550000Y-137465000D01*
X212650000Y-137725000D02*
X212650000Y-137465000D01*
X212650000Y-137725000D02*
X213350000Y-137725000D01*
X213350000Y-132825000D02*
X213350000Y-137725000D01*
%TD*%
M02*
