%TF.GenerationSoftware,KiCad,Pcbnew,9.0.7*%
%TF.CreationDate,2026-04-16T10:12:26+01:00*%
%TF.ProjectId,stepper driver,73746570-7065-4722-9064-72697665722e,rev?*%
%TF.SameCoordinates,Original*%
%TF.FileFunction,Legend,Bot*%
%TF.FilePolarity,Positive*%
%FSLAX46Y46*%
G04 Gerber Fmt 4.6, Leading zero omitted, Abs format (unit mm)*
G04 Created by KiCad (PCBNEW 9.0.7) date 2026-04-16 10:12:26*
%MOMM*%
%LPD*%
G01*
G04 APERTURE LIST*
G04 Aperture macros list*
%AMRoundRect*
0 Rectangle with rounded corners*
0 $1 Rounding radius*
0 $2 $3 $4 $5 $6 $7 $8 $9 X,Y pos of 4 corners*
0 Add a 4 corners polygon primitive as box body*
4,1,4,$2,$3,$4,$5,$6,$7,$8,$9,$2,$3,0*
0 Add four circle primitives for the rounded corners*
1,1,$1+$1,$2,$3*
1,1,$1+$1,$4,$5*
1,1,$1+$1,$6,$7*
1,1,$1+$1,$8,$9*
0 Add four rect primitives between the rounded corners*
20,1,$1+$1,$2,$3,$4,$5,0*
20,1,$1+$1,$4,$5,$6,$7,0*
20,1,$1+$1,$6,$7,$8,$9,0*
20,1,$1+$1,$8,$9,$2,$3,0*%
G04 Aperture macros list end*
%ADD10C,0.150000*%
%ADD11C,0.120000*%
%ADD12RoundRect,0.250000X0.650000X1.550000X-0.650000X1.550000X-0.650000X-1.550000X0.650000X-1.550000X0*%
%ADD13O,1.800000X3.600000*%
%ADD14RoundRect,0.250000X-0.550000X0.550000X-0.550000X-0.550000X0.550000X-0.550000X0.550000X0.550000X0*%
%ADD15C,1.600000*%
%ADD16RoundRect,0.250000X-0.650000X-1.550000X0.650000X-1.550000X0.650000X1.550000X-0.650000X1.550000X0*%
%ADD17C,2.000000*%
%ADD18C,0.650000*%
%ADD19O,1.000000X2.100000*%
%ADD20O,1.000000X1.800000*%
%ADD21R,1.700000X1.700000*%
%ADD22C,1.700000*%
%ADD23RoundRect,0.140000X-0.170000X0.140000X-0.170000X-0.140000X0.170000X-0.140000X0.170000X0.140000X0*%
%ADD24RoundRect,0.150000X0.150000X-0.587500X0.150000X0.587500X-0.150000X0.587500X-0.150000X-0.587500X0*%
%ADD25RoundRect,0.140000X0.170000X-0.140000X0.170000X0.140000X-0.170000X0.140000X-0.170000X-0.140000X0*%
%ADD26RoundRect,0.135000X-0.135000X-0.185000X0.135000X-0.185000X0.135000X0.185000X-0.135000X0.185000X0*%
%ADD27RoundRect,0.135000X0.135000X0.185000X-0.135000X0.185000X-0.135000X-0.185000X0.135000X-0.185000X0*%
%ADD28RoundRect,0.150000X-0.150000X0.587500X-0.150000X-0.587500X0.150000X-0.587500X0.150000X0.587500X0*%
%TA.AperFunction,Profile*%
%ADD29C,0.200000*%
%TD*%
G04 APERTURE END LIST*
D10*
X108438104Y-99989314D02*
X108476200Y-99951218D01*
X108476200Y-99951218D02*
X108514295Y-99836933D01*
X108514295Y-99836933D02*
X108514295Y-99760742D01*
X108514295Y-99760742D02*
X108476200Y-99646456D01*
X108476200Y-99646456D02*
X108400009Y-99570266D01*
X108400009Y-99570266D02*
X108323819Y-99532171D01*
X108323819Y-99532171D02*
X108171438Y-99494075D01*
X108171438Y-99494075D02*
X108057152Y-99494075D01*
X108057152Y-99494075D02*
X107904771Y-99532171D01*
X107904771Y-99532171D02*
X107828580Y-99570266D01*
X107828580Y-99570266D02*
X107752390Y-99646456D01*
X107752390Y-99646456D02*
X107714295Y-99760742D01*
X107714295Y-99760742D02*
X107714295Y-99836933D01*
X107714295Y-99836933D02*
X107752390Y-99951218D01*
X107752390Y-99951218D02*
X107790485Y-99989314D01*
X107714295Y-100675028D02*
X107714295Y-100522647D01*
X107714295Y-100522647D02*
X107752390Y-100446456D01*
X107752390Y-100446456D02*
X107790485Y-100408361D01*
X107790485Y-100408361D02*
X107904771Y-100332171D01*
X107904771Y-100332171D02*
X108057152Y-100294075D01*
X108057152Y-100294075D02*
X108361914Y-100294075D01*
X108361914Y-100294075D02*
X108438104Y-100332171D01*
X108438104Y-100332171D02*
X108476200Y-100370266D01*
X108476200Y-100370266D02*
X108514295Y-100446456D01*
X108514295Y-100446456D02*
X108514295Y-100598837D01*
X108514295Y-100598837D02*
X108476200Y-100675028D01*
X108476200Y-100675028D02*
X108438104Y-100713123D01*
X108438104Y-100713123D02*
X108361914Y-100751218D01*
X108361914Y-100751218D02*
X108171438Y-100751218D01*
X108171438Y-100751218D02*
X108095247Y-100713123D01*
X108095247Y-100713123D02*
X108057152Y-100675028D01*
X108057152Y-100675028D02*
X108019057Y-100598837D01*
X108019057Y-100598837D02*
X108019057Y-100446456D01*
X108019057Y-100446456D02*
X108057152Y-100370266D01*
X108057152Y-100370266D02*
X108095247Y-100332171D01*
X108095247Y-100332171D02*
X108171438Y-100294075D01*
X107714295Y-101017885D02*
X107714295Y-101513123D01*
X107714295Y-101513123D02*
X108019057Y-101246457D01*
X108019057Y-101246457D02*
X108019057Y-101360742D01*
X108019057Y-101360742D02*
X108057152Y-101436933D01*
X108057152Y-101436933D02*
X108095247Y-101475028D01*
X108095247Y-101475028D02*
X108171438Y-101513123D01*
X108171438Y-101513123D02*
X108361914Y-101513123D01*
X108361914Y-101513123D02*
X108438104Y-101475028D01*
X108438104Y-101475028D02*
X108476200Y-101436933D01*
X108476200Y-101436933D02*
X108514295Y-101360742D01*
X108514295Y-101360742D02*
X108514295Y-101132171D01*
X108514295Y-101132171D02*
X108476200Y-101055980D01*
X108476200Y-101055980D02*
X108438104Y-101017885D01*
X184076190Y-93538485D02*
X184152380Y-93500390D01*
X184152380Y-93500390D02*
X184228571Y-93424200D01*
X184228571Y-93424200D02*
X184342857Y-93309914D01*
X184342857Y-93309914D02*
X184419047Y-93271819D01*
X184419047Y-93271819D02*
X184495238Y-93271819D01*
X184457142Y-93462295D02*
X184533333Y-93424200D01*
X184533333Y-93424200D02*
X184609523Y-93348009D01*
X184609523Y-93348009D02*
X184647619Y-93195628D01*
X184647619Y-93195628D02*
X184647619Y-92928961D01*
X184647619Y-92928961D02*
X184609523Y-92776580D01*
X184609523Y-92776580D02*
X184533333Y-92700390D01*
X184533333Y-92700390D02*
X184457142Y-92662295D01*
X184457142Y-92662295D02*
X184304761Y-92662295D01*
X184304761Y-92662295D02*
X184228571Y-92700390D01*
X184228571Y-92700390D02*
X184152380Y-92776580D01*
X184152380Y-92776580D02*
X184114285Y-92928961D01*
X184114285Y-92928961D02*
X184114285Y-93195628D01*
X184114285Y-93195628D02*
X184152380Y-93348009D01*
X184152380Y-93348009D02*
X184228571Y-93424200D01*
X184228571Y-93424200D02*
X184304761Y-93462295D01*
X184304761Y-93462295D02*
X184457142Y-93462295D01*
X183847619Y-92662295D02*
X183314285Y-92662295D01*
X183314285Y-92662295D02*
X183657143Y-93462295D01*
X115958398Y-94882681D02*
X115996494Y-94844585D01*
X115996494Y-94844585D02*
X116034589Y-94730300D01*
X116034589Y-94730300D02*
X116034589Y-94654109D01*
X116034589Y-94654109D02*
X115996494Y-94539823D01*
X115996494Y-94539823D02*
X115920303Y-94463633D01*
X115920303Y-94463633D02*
X115844113Y-94425538D01*
X115844113Y-94425538D02*
X115691732Y-94387442D01*
X115691732Y-94387442D02*
X115577446Y-94387442D01*
X115577446Y-94387442D02*
X115425065Y-94425538D01*
X115425065Y-94425538D02*
X115348874Y-94463633D01*
X115348874Y-94463633D02*
X115272684Y-94539823D01*
X115272684Y-94539823D02*
X115234589Y-94654109D01*
X115234589Y-94654109D02*
X115234589Y-94730300D01*
X115234589Y-94730300D02*
X115272684Y-94844585D01*
X115272684Y-94844585D02*
X115310779Y-94882681D01*
X115501255Y-95568395D02*
X116034589Y-95568395D01*
X115196494Y-95377919D02*
X115767922Y-95187442D01*
X115767922Y-95187442D02*
X115767922Y-95682681D01*
X115501255Y-96330300D02*
X116034589Y-96330300D01*
X115196494Y-96139824D02*
X115767922Y-95949347D01*
X115767922Y-95949347D02*
X115767922Y-96444586D01*
X111895114Y-100289314D02*
X111933210Y-100251218D01*
X111933210Y-100251218D02*
X111971305Y-100136933D01*
X111971305Y-100136933D02*
X111971305Y-100060742D01*
X111971305Y-100060742D02*
X111933210Y-99946456D01*
X111933210Y-99946456D02*
X111857019Y-99870266D01*
X111857019Y-99870266D02*
X111780829Y-99832171D01*
X111780829Y-99832171D02*
X111628448Y-99794075D01*
X111628448Y-99794075D02*
X111514162Y-99794075D01*
X111514162Y-99794075D02*
X111361781Y-99832171D01*
X111361781Y-99832171D02*
X111285590Y-99870266D01*
X111285590Y-99870266D02*
X111209400Y-99946456D01*
X111209400Y-99946456D02*
X111171305Y-100060742D01*
X111171305Y-100060742D02*
X111171305Y-100136933D01*
X111171305Y-100136933D02*
X111209400Y-100251218D01*
X111209400Y-100251218D02*
X111247495Y-100289314D01*
X111171305Y-100975028D02*
X111171305Y-100822647D01*
X111171305Y-100822647D02*
X111209400Y-100746456D01*
X111209400Y-100746456D02*
X111247495Y-100708361D01*
X111247495Y-100708361D02*
X111361781Y-100632171D01*
X111361781Y-100632171D02*
X111514162Y-100594075D01*
X111514162Y-100594075D02*
X111818924Y-100594075D01*
X111818924Y-100594075D02*
X111895114Y-100632171D01*
X111895114Y-100632171D02*
X111933210Y-100670266D01*
X111933210Y-100670266D02*
X111971305Y-100746456D01*
X111971305Y-100746456D02*
X111971305Y-100898837D01*
X111971305Y-100898837D02*
X111933210Y-100975028D01*
X111933210Y-100975028D02*
X111895114Y-101013123D01*
X111895114Y-101013123D02*
X111818924Y-101051218D01*
X111818924Y-101051218D02*
X111628448Y-101051218D01*
X111628448Y-101051218D02*
X111552257Y-101013123D01*
X111552257Y-101013123D02*
X111514162Y-100975028D01*
X111514162Y-100975028D02*
X111476067Y-100898837D01*
X111476067Y-100898837D02*
X111476067Y-100746456D01*
X111476067Y-100746456D02*
X111514162Y-100670266D01*
X111514162Y-100670266D02*
X111552257Y-100632171D01*
X111552257Y-100632171D02*
X111628448Y-100594075D01*
X111171305Y-101775028D02*
X111171305Y-101394076D01*
X111171305Y-101394076D02*
X111552257Y-101355980D01*
X111552257Y-101355980D02*
X111514162Y-101394076D01*
X111514162Y-101394076D02*
X111476067Y-101470266D01*
X111476067Y-101470266D02*
X111476067Y-101660742D01*
X111476067Y-101660742D02*
X111514162Y-101736933D01*
X111514162Y-101736933D02*
X111552257Y-101775028D01*
X111552257Y-101775028D02*
X111628448Y-101813123D01*
X111628448Y-101813123D02*
X111818924Y-101813123D01*
X111818924Y-101813123D02*
X111895114Y-101775028D01*
X111895114Y-101775028D02*
X111933210Y-101736933D01*
X111933210Y-101736933D02*
X111971305Y-101660742D01*
X111971305Y-101660742D02*
X111971305Y-101470266D01*
X111971305Y-101470266D02*
X111933210Y-101394076D01*
X111933210Y-101394076D02*
X111895114Y-101355980D01*
X188207142Y-93488485D02*
X188283332Y-93450390D01*
X188283332Y-93450390D02*
X188359523Y-93374200D01*
X188359523Y-93374200D02*
X188473809Y-93259914D01*
X188473809Y-93259914D02*
X188549999Y-93221819D01*
X188549999Y-93221819D02*
X188626190Y-93221819D01*
X188588094Y-93412295D02*
X188664285Y-93374200D01*
X188664285Y-93374200D02*
X188740475Y-93298009D01*
X188740475Y-93298009D02*
X188778571Y-93145628D01*
X188778571Y-93145628D02*
X188778571Y-92878961D01*
X188778571Y-92878961D02*
X188740475Y-92726580D01*
X188740475Y-92726580D02*
X188664285Y-92650390D01*
X188664285Y-92650390D02*
X188588094Y-92612295D01*
X188588094Y-92612295D02*
X188435713Y-92612295D01*
X188435713Y-92612295D02*
X188359523Y-92650390D01*
X188359523Y-92650390D02*
X188283332Y-92726580D01*
X188283332Y-92726580D02*
X188245237Y-92878961D01*
X188245237Y-92878961D02*
X188245237Y-93145628D01*
X188245237Y-93145628D02*
X188283332Y-93298009D01*
X188283332Y-93298009D02*
X188359523Y-93374200D01*
X188359523Y-93374200D02*
X188435713Y-93412295D01*
X188435713Y-93412295D02*
X188588094Y-93412295D01*
X187483333Y-93412295D02*
X187940476Y-93412295D01*
X187711904Y-93412295D02*
X187711904Y-92612295D01*
X187711904Y-92612295D02*
X187788095Y-92726580D01*
X187788095Y-92726580D02*
X187864285Y-92802771D01*
X187864285Y-92802771D02*
X187940476Y-92840866D01*
X186988094Y-92612295D02*
X186911904Y-92612295D01*
X186911904Y-92612295D02*
X186835713Y-92650390D01*
X186835713Y-92650390D02*
X186797618Y-92688485D01*
X186797618Y-92688485D02*
X186759523Y-92764676D01*
X186759523Y-92764676D02*
X186721428Y-92917057D01*
X186721428Y-92917057D02*
X186721428Y-93107533D01*
X186721428Y-93107533D02*
X186759523Y-93259914D01*
X186759523Y-93259914D02*
X186797618Y-93336104D01*
X186797618Y-93336104D02*
X186835713Y-93374200D01*
X186835713Y-93374200D02*
X186911904Y-93412295D01*
X186911904Y-93412295D02*
X186988094Y-93412295D01*
X186988094Y-93412295D02*
X187064285Y-93374200D01*
X187064285Y-93374200D02*
X187102380Y-93336104D01*
X187102380Y-93336104D02*
X187140475Y-93259914D01*
X187140475Y-93259914D02*
X187178571Y-93107533D01*
X187178571Y-93107533D02*
X187178571Y-92917057D01*
X187178571Y-92917057D02*
X187140475Y-92764676D01*
X187140475Y-92764676D02*
X187102380Y-92688485D01*
X187102380Y-92688485D02*
X187064285Y-92650390D01*
X187064285Y-92650390D02*
X186988094Y-92612295D01*
X163986104Y-94935714D02*
X164024200Y-94897618D01*
X164024200Y-94897618D02*
X164062295Y-94783333D01*
X164062295Y-94783333D02*
X164062295Y-94707142D01*
X164062295Y-94707142D02*
X164024200Y-94592856D01*
X164024200Y-94592856D02*
X163948009Y-94516666D01*
X163948009Y-94516666D02*
X163871819Y-94478571D01*
X163871819Y-94478571D02*
X163719438Y-94440475D01*
X163719438Y-94440475D02*
X163605152Y-94440475D01*
X163605152Y-94440475D02*
X163452771Y-94478571D01*
X163452771Y-94478571D02*
X163376580Y-94516666D01*
X163376580Y-94516666D02*
X163300390Y-94592856D01*
X163300390Y-94592856D02*
X163262295Y-94707142D01*
X163262295Y-94707142D02*
X163262295Y-94783333D01*
X163262295Y-94783333D02*
X163300390Y-94897618D01*
X163300390Y-94897618D02*
X163338485Y-94935714D01*
X163262295Y-95202380D02*
X163262295Y-95735714D01*
X163262295Y-95735714D02*
X164062295Y-95392856D01*
X163262295Y-96383333D02*
X163262295Y-96230952D01*
X163262295Y-96230952D02*
X163300390Y-96154761D01*
X163300390Y-96154761D02*
X163338485Y-96116666D01*
X163338485Y-96116666D02*
X163452771Y-96040476D01*
X163452771Y-96040476D02*
X163605152Y-96002380D01*
X163605152Y-96002380D02*
X163909914Y-96002380D01*
X163909914Y-96002380D02*
X163986104Y-96040476D01*
X163986104Y-96040476D02*
X164024200Y-96078571D01*
X164024200Y-96078571D02*
X164062295Y-96154761D01*
X164062295Y-96154761D02*
X164062295Y-96307142D01*
X164062295Y-96307142D02*
X164024200Y-96383333D01*
X164024200Y-96383333D02*
X163986104Y-96421428D01*
X163986104Y-96421428D02*
X163909914Y-96459523D01*
X163909914Y-96459523D02*
X163719438Y-96459523D01*
X163719438Y-96459523D02*
X163643247Y-96421428D01*
X163643247Y-96421428D02*
X163605152Y-96383333D01*
X163605152Y-96383333D02*
X163567057Y-96307142D01*
X163567057Y-96307142D02*
X163567057Y-96154761D01*
X163567057Y-96154761D02*
X163605152Y-96078571D01*
X163605152Y-96078571D02*
X163643247Y-96040476D01*
X163643247Y-96040476D02*
X163719438Y-96002380D01*
X165245114Y-100389314D02*
X165283210Y-100351218D01*
X165283210Y-100351218D02*
X165321305Y-100236933D01*
X165321305Y-100236933D02*
X165321305Y-100160742D01*
X165321305Y-100160742D02*
X165283210Y-100046456D01*
X165283210Y-100046456D02*
X165207019Y-99970266D01*
X165207019Y-99970266D02*
X165130829Y-99932171D01*
X165130829Y-99932171D02*
X164978448Y-99894075D01*
X164978448Y-99894075D02*
X164864162Y-99894075D01*
X164864162Y-99894075D02*
X164711781Y-99932171D01*
X164711781Y-99932171D02*
X164635590Y-99970266D01*
X164635590Y-99970266D02*
X164559400Y-100046456D01*
X164559400Y-100046456D02*
X164521305Y-100160742D01*
X164521305Y-100160742D02*
X164521305Y-100236933D01*
X164521305Y-100236933D02*
X164559400Y-100351218D01*
X164559400Y-100351218D02*
X164597495Y-100389314D01*
X164864162Y-100846456D02*
X164826067Y-100770266D01*
X164826067Y-100770266D02*
X164787971Y-100732171D01*
X164787971Y-100732171D02*
X164711781Y-100694075D01*
X164711781Y-100694075D02*
X164673686Y-100694075D01*
X164673686Y-100694075D02*
X164597495Y-100732171D01*
X164597495Y-100732171D02*
X164559400Y-100770266D01*
X164559400Y-100770266D02*
X164521305Y-100846456D01*
X164521305Y-100846456D02*
X164521305Y-100998837D01*
X164521305Y-100998837D02*
X164559400Y-101075028D01*
X164559400Y-101075028D02*
X164597495Y-101113123D01*
X164597495Y-101113123D02*
X164673686Y-101151218D01*
X164673686Y-101151218D02*
X164711781Y-101151218D01*
X164711781Y-101151218D02*
X164787971Y-101113123D01*
X164787971Y-101113123D02*
X164826067Y-101075028D01*
X164826067Y-101075028D02*
X164864162Y-100998837D01*
X164864162Y-100998837D02*
X164864162Y-100846456D01*
X164864162Y-100846456D02*
X164902257Y-100770266D01*
X164902257Y-100770266D02*
X164940352Y-100732171D01*
X164940352Y-100732171D02*
X165016543Y-100694075D01*
X165016543Y-100694075D02*
X165168924Y-100694075D01*
X165168924Y-100694075D02*
X165245114Y-100732171D01*
X165245114Y-100732171D02*
X165283210Y-100770266D01*
X165283210Y-100770266D02*
X165321305Y-100846456D01*
X165321305Y-100846456D02*
X165321305Y-100998837D01*
X165321305Y-100998837D02*
X165283210Y-101075028D01*
X165283210Y-101075028D02*
X165245114Y-101113123D01*
X165245114Y-101113123D02*
X165168924Y-101151218D01*
X165168924Y-101151218D02*
X165016543Y-101151218D01*
X165016543Y-101151218D02*
X164940352Y-101113123D01*
X164940352Y-101113123D02*
X164902257Y-101075028D01*
X164902257Y-101075028D02*
X164864162Y-100998837D01*
X165321305Y-101532171D02*
X165321305Y-101684552D01*
X165321305Y-101684552D02*
X165283210Y-101760742D01*
X165283210Y-101760742D02*
X165245114Y-101798838D01*
X165245114Y-101798838D02*
X165130829Y-101875028D01*
X165130829Y-101875028D02*
X164978448Y-101913123D01*
X164978448Y-101913123D02*
X164673686Y-101913123D01*
X164673686Y-101913123D02*
X164597495Y-101875028D01*
X164597495Y-101875028D02*
X164559400Y-101836933D01*
X164559400Y-101836933D02*
X164521305Y-101760742D01*
X164521305Y-101760742D02*
X164521305Y-101608361D01*
X164521305Y-101608361D02*
X164559400Y-101532171D01*
X164559400Y-101532171D02*
X164597495Y-101494076D01*
X164597495Y-101494076D02*
X164673686Y-101455980D01*
X164673686Y-101455980D02*
X164864162Y-101455980D01*
X164864162Y-101455980D02*
X164940352Y-101494076D01*
X164940352Y-101494076D02*
X164978448Y-101532171D01*
X164978448Y-101532171D02*
X165016543Y-101608361D01*
X165016543Y-101608361D02*
X165016543Y-101760742D01*
X165016543Y-101760742D02*
X164978448Y-101836933D01*
X164978448Y-101836933D02*
X164940352Y-101875028D01*
X164940352Y-101875028D02*
X164864162Y-101913123D01*
X144436104Y-96935714D02*
X144474200Y-96897618D01*
X144474200Y-96897618D02*
X144512295Y-96783333D01*
X144512295Y-96783333D02*
X144512295Y-96707142D01*
X144512295Y-96707142D02*
X144474200Y-96592856D01*
X144474200Y-96592856D02*
X144398009Y-96516666D01*
X144398009Y-96516666D02*
X144321819Y-96478571D01*
X144321819Y-96478571D02*
X144169438Y-96440475D01*
X144169438Y-96440475D02*
X144055152Y-96440475D01*
X144055152Y-96440475D02*
X143902771Y-96478571D01*
X143902771Y-96478571D02*
X143826580Y-96516666D01*
X143826580Y-96516666D02*
X143750390Y-96592856D01*
X143750390Y-96592856D02*
X143712295Y-96707142D01*
X143712295Y-96707142D02*
X143712295Y-96783333D01*
X143712295Y-96783333D02*
X143750390Y-96897618D01*
X143750390Y-96897618D02*
X143788485Y-96935714D01*
X143712295Y-97202380D02*
X143712295Y-97735714D01*
X143712295Y-97735714D02*
X144512295Y-97392856D01*
X143788485Y-98002380D02*
X143750390Y-98040476D01*
X143750390Y-98040476D02*
X143712295Y-98116666D01*
X143712295Y-98116666D02*
X143712295Y-98307142D01*
X143712295Y-98307142D02*
X143750390Y-98383333D01*
X143750390Y-98383333D02*
X143788485Y-98421428D01*
X143788485Y-98421428D02*
X143864676Y-98459523D01*
X143864676Y-98459523D02*
X143940866Y-98459523D01*
X143940866Y-98459523D02*
X144055152Y-98421428D01*
X144055152Y-98421428D02*
X144512295Y-97964285D01*
X144512295Y-97964285D02*
X144512295Y-98459523D01*
X194164285Y-95766195D02*
X194430952Y-95385242D01*
X194621428Y-95766195D02*
X194621428Y-94966195D01*
X194621428Y-94966195D02*
X194316666Y-94966195D01*
X194316666Y-94966195D02*
X194240476Y-95004290D01*
X194240476Y-95004290D02*
X194202381Y-95042385D01*
X194202381Y-95042385D02*
X194164285Y-95118576D01*
X194164285Y-95118576D02*
X194164285Y-95232861D01*
X194164285Y-95232861D02*
X194202381Y-95309052D01*
X194202381Y-95309052D02*
X194240476Y-95347147D01*
X194240476Y-95347147D02*
X194316666Y-95385242D01*
X194316666Y-95385242D02*
X194621428Y-95385242D01*
X193478571Y-95232861D02*
X193478571Y-95766195D01*
X193669047Y-94928100D02*
X193859524Y-95499528D01*
X193859524Y-95499528D02*
X193364285Y-95499528D01*
X193097619Y-95042385D02*
X193059523Y-95004290D01*
X193059523Y-95004290D02*
X192983333Y-94966195D01*
X192983333Y-94966195D02*
X192792857Y-94966195D01*
X192792857Y-94966195D02*
X192716666Y-95004290D01*
X192716666Y-95004290D02*
X192678571Y-95042385D01*
X192678571Y-95042385D02*
X192640476Y-95118576D01*
X192640476Y-95118576D02*
X192640476Y-95194766D01*
X192640476Y-95194766D02*
X192678571Y-95309052D01*
X192678571Y-95309052D02*
X193135714Y-95766195D01*
X193135714Y-95766195D02*
X192640476Y-95766195D01*
X176964285Y-84562295D02*
X177230952Y-84181342D01*
X177421428Y-84562295D02*
X177421428Y-83762295D01*
X177421428Y-83762295D02*
X177116666Y-83762295D01*
X177116666Y-83762295D02*
X177040476Y-83800390D01*
X177040476Y-83800390D02*
X177002381Y-83838485D01*
X177002381Y-83838485D02*
X176964285Y-83914676D01*
X176964285Y-83914676D02*
X176964285Y-84028961D01*
X176964285Y-84028961D02*
X177002381Y-84105152D01*
X177002381Y-84105152D02*
X177040476Y-84143247D01*
X177040476Y-84143247D02*
X177116666Y-84181342D01*
X177116666Y-84181342D02*
X177421428Y-84181342D01*
X176659524Y-83838485D02*
X176621428Y-83800390D01*
X176621428Y-83800390D02*
X176545238Y-83762295D01*
X176545238Y-83762295D02*
X176354762Y-83762295D01*
X176354762Y-83762295D02*
X176278571Y-83800390D01*
X176278571Y-83800390D02*
X176240476Y-83838485D01*
X176240476Y-83838485D02*
X176202381Y-83914676D01*
X176202381Y-83914676D02*
X176202381Y-83990866D01*
X176202381Y-83990866D02*
X176240476Y-84105152D01*
X176240476Y-84105152D02*
X176697619Y-84562295D01*
X176697619Y-84562295D02*
X176202381Y-84562295D01*
X175440476Y-84562295D02*
X175897619Y-84562295D01*
X175669047Y-84562295D02*
X175669047Y-83762295D01*
X175669047Y-83762295D02*
X175745238Y-83876580D01*
X175745238Y-83876580D02*
X175821428Y-83952771D01*
X175821428Y-83952771D02*
X175897619Y-83990866D01*
X178426190Y-92088485D02*
X178502380Y-92050390D01*
X178502380Y-92050390D02*
X178578571Y-91974200D01*
X178578571Y-91974200D02*
X178692857Y-91859914D01*
X178692857Y-91859914D02*
X178769047Y-91821819D01*
X178769047Y-91821819D02*
X178845238Y-91821819D01*
X178807142Y-92012295D02*
X178883333Y-91974200D01*
X178883333Y-91974200D02*
X178959523Y-91898009D01*
X178959523Y-91898009D02*
X178997619Y-91745628D01*
X178997619Y-91745628D02*
X178997619Y-91478961D01*
X178997619Y-91478961D02*
X178959523Y-91326580D01*
X178959523Y-91326580D02*
X178883333Y-91250390D01*
X178883333Y-91250390D02*
X178807142Y-91212295D01*
X178807142Y-91212295D02*
X178654761Y-91212295D01*
X178654761Y-91212295D02*
X178578571Y-91250390D01*
X178578571Y-91250390D02*
X178502380Y-91326580D01*
X178502380Y-91326580D02*
X178464285Y-91478961D01*
X178464285Y-91478961D02*
X178464285Y-91745628D01*
X178464285Y-91745628D02*
X178502380Y-91898009D01*
X178502380Y-91898009D02*
X178578571Y-91974200D01*
X178578571Y-91974200D02*
X178654761Y-92012295D01*
X178654761Y-92012295D02*
X178807142Y-92012295D01*
X178007143Y-91555152D02*
X178083333Y-91517057D01*
X178083333Y-91517057D02*
X178121428Y-91478961D01*
X178121428Y-91478961D02*
X178159524Y-91402771D01*
X178159524Y-91402771D02*
X178159524Y-91364676D01*
X178159524Y-91364676D02*
X178121428Y-91288485D01*
X178121428Y-91288485D02*
X178083333Y-91250390D01*
X178083333Y-91250390D02*
X178007143Y-91212295D01*
X178007143Y-91212295D02*
X177854762Y-91212295D01*
X177854762Y-91212295D02*
X177778571Y-91250390D01*
X177778571Y-91250390D02*
X177740476Y-91288485D01*
X177740476Y-91288485D02*
X177702381Y-91364676D01*
X177702381Y-91364676D02*
X177702381Y-91402771D01*
X177702381Y-91402771D02*
X177740476Y-91478961D01*
X177740476Y-91478961D02*
X177778571Y-91517057D01*
X177778571Y-91517057D02*
X177854762Y-91555152D01*
X177854762Y-91555152D02*
X178007143Y-91555152D01*
X178007143Y-91555152D02*
X178083333Y-91593247D01*
X178083333Y-91593247D02*
X178121428Y-91631342D01*
X178121428Y-91631342D02*
X178159524Y-91707533D01*
X178159524Y-91707533D02*
X178159524Y-91859914D01*
X178159524Y-91859914D02*
X178121428Y-91936104D01*
X178121428Y-91936104D02*
X178083333Y-91974200D01*
X178083333Y-91974200D02*
X178007143Y-92012295D01*
X178007143Y-92012295D02*
X177854762Y-92012295D01*
X177854762Y-92012295D02*
X177778571Y-91974200D01*
X177778571Y-91974200D02*
X177740476Y-91936104D01*
X177740476Y-91936104D02*
X177702381Y-91859914D01*
X177702381Y-91859914D02*
X177702381Y-91707533D01*
X177702381Y-91707533D02*
X177740476Y-91631342D01*
X177740476Y-91631342D02*
X177778571Y-91593247D01*
X177778571Y-91593247D02*
X177854762Y-91555152D01*
X152195114Y-100089314D02*
X152233210Y-100051218D01*
X152233210Y-100051218D02*
X152271305Y-99936933D01*
X152271305Y-99936933D02*
X152271305Y-99860742D01*
X152271305Y-99860742D02*
X152233210Y-99746456D01*
X152233210Y-99746456D02*
X152157019Y-99670266D01*
X152157019Y-99670266D02*
X152080829Y-99632171D01*
X152080829Y-99632171D02*
X151928448Y-99594075D01*
X151928448Y-99594075D02*
X151814162Y-99594075D01*
X151814162Y-99594075D02*
X151661781Y-99632171D01*
X151661781Y-99632171D02*
X151585590Y-99670266D01*
X151585590Y-99670266D02*
X151509400Y-99746456D01*
X151509400Y-99746456D02*
X151471305Y-99860742D01*
X151471305Y-99860742D02*
X151471305Y-99936933D01*
X151471305Y-99936933D02*
X151509400Y-100051218D01*
X151509400Y-100051218D02*
X151547495Y-100089314D01*
X151814162Y-100546456D02*
X151776067Y-100470266D01*
X151776067Y-100470266D02*
X151737971Y-100432171D01*
X151737971Y-100432171D02*
X151661781Y-100394075D01*
X151661781Y-100394075D02*
X151623686Y-100394075D01*
X151623686Y-100394075D02*
X151547495Y-100432171D01*
X151547495Y-100432171D02*
X151509400Y-100470266D01*
X151509400Y-100470266D02*
X151471305Y-100546456D01*
X151471305Y-100546456D02*
X151471305Y-100698837D01*
X151471305Y-100698837D02*
X151509400Y-100775028D01*
X151509400Y-100775028D02*
X151547495Y-100813123D01*
X151547495Y-100813123D02*
X151623686Y-100851218D01*
X151623686Y-100851218D02*
X151661781Y-100851218D01*
X151661781Y-100851218D02*
X151737971Y-100813123D01*
X151737971Y-100813123D02*
X151776067Y-100775028D01*
X151776067Y-100775028D02*
X151814162Y-100698837D01*
X151814162Y-100698837D02*
X151814162Y-100546456D01*
X151814162Y-100546456D02*
X151852257Y-100470266D01*
X151852257Y-100470266D02*
X151890352Y-100432171D01*
X151890352Y-100432171D02*
X151966543Y-100394075D01*
X151966543Y-100394075D02*
X152118924Y-100394075D01*
X152118924Y-100394075D02*
X152195114Y-100432171D01*
X152195114Y-100432171D02*
X152233210Y-100470266D01*
X152233210Y-100470266D02*
X152271305Y-100546456D01*
X152271305Y-100546456D02*
X152271305Y-100698837D01*
X152271305Y-100698837D02*
X152233210Y-100775028D01*
X152233210Y-100775028D02*
X152195114Y-100813123D01*
X152195114Y-100813123D02*
X152118924Y-100851218D01*
X152118924Y-100851218D02*
X151966543Y-100851218D01*
X151966543Y-100851218D02*
X151890352Y-100813123D01*
X151890352Y-100813123D02*
X151852257Y-100775028D01*
X151852257Y-100775028D02*
X151814162Y-100698837D01*
X151471305Y-101536933D02*
X151471305Y-101384552D01*
X151471305Y-101384552D02*
X151509400Y-101308361D01*
X151509400Y-101308361D02*
X151547495Y-101270266D01*
X151547495Y-101270266D02*
X151661781Y-101194076D01*
X151661781Y-101194076D02*
X151814162Y-101155980D01*
X151814162Y-101155980D02*
X152118924Y-101155980D01*
X152118924Y-101155980D02*
X152195114Y-101194076D01*
X152195114Y-101194076D02*
X152233210Y-101232171D01*
X152233210Y-101232171D02*
X152271305Y-101308361D01*
X152271305Y-101308361D02*
X152271305Y-101460742D01*
X152271305Y-101460742D02*
X152233210Y-101536933D01*
X152233210Y-101536933D02*
X152195114Y-101575028D01*
X152195114Y-101575028D02*
X152118924Y-101613123D01*
X152118924Y-101613123D02*
X151928448Y-101613123D01*
X151928448Y-101613123D02*
X151852257Y-101575028D01*
X151852257Y-101575028D02*
X151814162Y-101536933D01*
X151814162Y-101536933D02*
X151776067Y-101460742D01*
X151776067Y-101460742D02*
X151776067Y-101308361D01*
X151776067Y-101308361D02*
X151814162Y-101232171D01*
X151814162Y-101232171D02*
X151852257Y-101194076D01*
X151852257Y-101194076D02*
X151928448Y-101155980D01*
X141695114Y-99989314D02*
X141733210Y-99951218D01*
X141733210Y-99951218D02*
X141771305Y-99836933D01*
X141771305Y-99836933D02*
X141771305Y-99760742D01*
X141771305Y-99760742D02*
X141733210Y-99646456D01*
X141733210Y-99646456D02*
X141657019Y-99570266D01*
X141657019Y-99570266D02*
X141580829Y-99532171D01*
X141580829Y-99532171D02*
X141428448Y-99494075D01*
X141428448Y-99494075D02*
X141314162Y-99494075D01*
X141314162Y-99494075D02*
X141161781Y-99532171D01*
X141161781Y-99532171D02*
X141085590Y-99570266D01*
X141085590Y-99570266D02*
X141009400Y-99646456D01*
X141009400Y-99646456D02*
X140971305Y-99760742D01*
X140971305Y-99760742D02*
X140971305Y-99836933D01*
X140971305Y-99836933D02*
X141009400Y-99951218D01*
X141009400Y-99951218D02*
X141047495Y-99989314D01*
X141771305Y-100370266D02*
X141771305Y-100522647D01*
X141771305Y-100522647D02*
X141733210Y-100598837D01*
X141733210Y-100598837D02*
X141695114Y-100636933D01*
X141695114Y-100636933D02*
X141580829Y-100713123D01*
X141580829Y-100713123D02*
X141428448Y-100751218D01*
X141428448Y-100751218D02*
X141123686Y-100751218D01*
X141123686Y-100751218D02*
X141047495Y-100713123D01*
X141047495Y-100713123D02*
X141009400Y-100675028D01*
X141009400Y-100675028D02*
X140971305Y-100598837D01*
X140971305Y-100598837D02*
X140971305Y-100446456D01*
X140971305Y-100446456D02*
X141009400Y-100370266D01*
X141009400Y-100370266D02*
X141047495Y-100332171D01*
X141047495Y-100332171D02*
X141123686Y-100294075D01*
X141123686Y-100294075D02*
X141314162Y-100294075D01*
X141314162Y-100294075D02*
X141390352Y-100332171D01*
X141390352Y-100332171D02*
X141428448Y-100370266D01*
X141428448Y-100370266D02*
X141466543Y-100446456D01*
X141466543Y-100446456D02*
X141466543Y-100598837D01*
X141466543Y-100598837D02*
X141428448Y-100675028D01*
X141428448Y-100675028D02*
X141390352Y-100713123D01*
X141390352Y-100713123D02*
X141314162Y-100751218D01*
X140971305Y-101246457D02*
X140971305Y-101322647D01*
X140971305Y-101322647D02*
X141009400Y-101398838D01*
X141009400Y-101398838D02*
X141047495Y-101436933D01*
X141047495Y-101436933D02*
X141123686Y-101475028D01*
X141123686Y-101475028D02*
X141276067Y-101513123D01*
X141276067Y-101513123D02*
X141466543Y-101513123D01*
X141466543Y-101513123D02*
X141618924Y-101475028D01*
X141618924Y-101475028D02*
X141695114Y-101436933D01*
X141695114Y-101436933D02*
X141733210Y-101398838D01*
X141733210Y-101398838D02*
X141771305Y-101322647D01*
X141771305Y-101322647D02*
X141771305Y-101246457D01*
X141771305Y-101246457D02*
X141733210Y-101170266D01*
X141733210Y-101170266D02*
X141695114Y-101132171D01*
X141695114Y-101132171D02*
X141618924Y-101094076D01*
X141618924Y-101094076D02*
X141466543Y-101055980D01*
X141466543Y-101055980D02*
X141276067Y-101055980D01*
X141276067Y-101055980D02*
X141123686Y-101094076D01*
X141123686Y-101094076D02*
X141047495Y-101132171D01*
X141047495Y-101132171D02*
X141009400Y-101170266D01*
X141009400Y-101170266D02*
X140971305Y-101246457D01*
X151636104Y-97035714D02*
X151674200Y-96997618D01*
X151674200Y-96997618D02*
X151712295Y-96883333D01*
X151712295Y-96883333D02*
X151712295Y-96807142D01*
X151712295Y-96807142D02*
X151674200Y-96692856D01*
X151674200Y-96692856D02*
X151598009Y-96616666D01*
X151598009Y-96616666D02*
X151521819Y-96578571D01*
X151521819Y-96578571D02*
X151369438Y-96540475D01*
X151369438Y-96540475D02*
X151255152Y-96540475D01*
X151255152Y-96540475D02*
X151102771Y-96578571D01*
X151102771Y-96578571D02*
X151026580Y-96616666D01*
X151026580Y-96616666D02*
X150950390Y-96692856D01*
X150950390Y-96692856D02*
X150912295Y-96807142D01*
X150912295Y-96807142D02*
X150912295Y-96883333D01*
X150912295Y-96883333D02*
X150950390Y-96997618D01*
X150950390Y-96997618D02*
X150988485Y-97035714D01*
X150912295Y-97302380D02*
X150912295Y-97835714D01*
X150912295Y-97835714D02*
X151712295Y-97492856D01*
X150912295Y-98064285D02*
X150912295Y-98559523D01*
X150912295Y-98559523D02*
X151217057Y-98292857D01*
X151217057Y-98292857D02*
X151217057Y-98407142D01*
X151217057Y-98407142D02*
X151255152Y-98483333D01*
X151255152Y-98483333D02*
X151293247Y-98521428D01*
X151293247Y-98521428D02*
X151369438Y-98559523D01*
X151369438Y-98559523D02*
X151559914Y-98559523D01*
X151559914Y-98559523D02*
X151636104Y-98521428D01*
X151636104Y-98521428D02*
X151674200Y-98483333D01*
X151674200Y-98483333D02*
X151712295Y-98407142D01*
X151712295Y-98407142D02*
X151712295Y-98178571D01*
X151712295Y-98178571D02*
X151674200Y-98102380D01*
X151674200Y-98102380D02*
X151636104Y-98064285D01*
X171526190Y-77788485D02*
X171602380Y-77750390D01*
X171602380Y-77750390D02*
X171678571Y-77674200D01*
X171678571Y-77674200D02*
X171792857Y-77559914D01*
X171792857Y-77559914D02*
X171869047Y-77521819D01*
X171869047Y-77521819D02*
X171945238Y-77521819D01*
X171907142Y-77712295D02*
X171983333Y-77674200D01*
X171983333Y-77674200D02*
X172059523Y-77598009D01*
X172059523Y-77598009D02*
X172097619Y-77445628D01*
X172097619Y-77445628D02*
X172097619Y-77178961D01*
X172097619Y-77178961D02*
X172059523Y-77026580D01*
X172059523Y-77026580D02*
X171983333Y-76950390D01*
X171983333Y-76950390D02*
X171907142Y-76912295D01*
X171907142Y-76912295D02*
X171754761Y-76912295D01*
X171754761Y-76912295D02*
X171678571Y-76950390D01*
X171678571Y-76950390D02*
X171602380Y-77026580D01*
X171602380Y-77026580D02*
X171564285Y-77178961D01*
X171564285Y-77178961D02*
X171564285Y-77445628D01*
X171564285Y-77445628D02*
X171602380Y-77598009D01*
X171602380Y-77598009D02*
X171678571Y-77674200D01*
X171678571Y-77674200D02*
X171754761Y-77712295D01*
X171754761Y-77712295D02*
X171907142Y-77712295D01*
X170878571Y-76912295D02*
X171030952Y-76912295D01*
X171030952Y-76912295D02*
X171107143Y-76950390D01*
X171107143Y-76950390D02*
X171145238Y-76988485D01*
X171145238Y-76988485D02*
X171221428Y-77102771D01*
X171221428Y-77102771D02*
X171259524Y-77255152D01*
X171259524Y-77255152D02*
X171259524Y-77559914D01*
X171259524Y-77559914D02*
X171221428Y-77636104D01*
X171221428Y-77636104D02*
X171183333Y-77674200D01*
X171183333Y-77674200D02*
X171107143Y-77712295D01*
X171107143Y-77712295D02*
X170954762Y-77712295D01*
X170954762Y-77712295D02*
X170878571Y-77674200D01*
X170878571Y-77674200D02*
X170840476Y-77636104D01*
X170840476Y-77636104D02*
X170802381Y-77559914D01*
X170802381Y-77559914D02*
X170802381Y-77369438D01*
X170802381Y-77369438D02*
X170840476Y-77293247D01*
X170840476Y-77293247D02*
X170878571Y-77255152D01*
X170878571Y-77255152D02*
X170954762Y-77217057D01*
X170954762Y-77217057D02*
X171107143Y-77217057D01*
X171107143Y-77217057D02*
X171183333Y-77255152D01*
X171183333Y-77255152D02*
X171221428Y-77293247D01*
X171221428Y-77293247D02*
X171259524Y-77369438D01*
X145095114Y-100089314D02*
X145133210Y-100051218D01*
X145133210Y-100051218D02*
X145171305Y-99936933D01*
X145171305Y-99936933D02*
X145171305Y-99860742D01*
X145171305Y-99860742D02*
X145133210Y-99746456D01*
X145133210Y-99746456D02*
X145057019Y-99670266D01*
X145057019Y-99670266D02*
X144980829Y-99632171D01*
X144980829Y-99632171D02*
X144828448Y-99594075D01*
X144828448Y-99594075D02*
X144714162Y-99594075D01*
X144714162Y-99594075D02*
X144561781Y-99632171D01*
X144561781Y-99632171D02*
X144485590Y-99670266D01*
X144485590Y-99670266D02*
X144409400Y-99746456D01*
X144409400Y-99746456D02*
X144371305Y-99860742D01*
X144371305Y-99860742D02*
X144371305Y-99936933D01*
X144371305Y-99936933D02*
X144409400Y-100051218D01*
X144409400Y-100051218D02*
X144447495Y-100089314D01*
X145171305Y-100470266D02*
X145171305Y-100622647D01*
X145171305Y-100622647D02*
X145133210Y-100698837D01*
X145133210Y-100698837D02*
X145095114Y-100736933D01*
X145095114Y-100736933D02*
X144980829Y-100813123D01*
X144980829Y-100813123D02*
X144828448Y-100851218D01*
X144828448Y-100851218D02*
X144523686Y-100851218D01*
X144523686Y-100851218D02*
X144447495Y-100813123D01*
X144447495Y-100813123D02*
X144409400Y-100775028D01*
X144409400Y-100775028D02*
X144371305Y-100698837D01*
X144371305Y-100698837D02*
X144371305Y-100546456D01*
X144371305Y-100546456D02*
X144409400Y-100470266D01*
X144409400Y-100470266D02*
X144447495Y-100432171D01*
X144447495Y-100432171D02*
X144523686Y-100394075D01*
X144523686Y-100394075D02*
X144714162Y-100394075D01*
X144714162Y-100394075D02*
X144790352Y-100432171D01*
X144790352Y-100432171D02*
X144828448Y-100470266D01*
X144828448Y-100470266D02*
X144866543Y-100546456D01*
X144866543Y-100546456D02*
X144866543Y-100698837D01*
X144866543Y-100698837D02*
X144828448Y-100775028D01*
X144828448Y-100775028D02*
X144790352Y-100813123D01*
X144790352Y-100813123D02*
X144714162Y-100851218D01*
X144447495Y-101155980D02*
X144409400Y-101194076D01*
X144409400Y-101194076D02*
X144371305Y-101270266D01*
X144371305Y-101270266D02*
X144371305Y-101460742D01*
X144371305Y-101460742D02*
X144409400Y-101536933D01*
X144409400Y-101536933D02*
X144447495Y-101575028D01*
X144447495Y-101575028D02*
X144523686Y-101613123D01*
X144523686Y-101613123D02*
X144599876Y-101613123D01*
X144599876Y-101613123D02*
X144714162Y-101575028D01*
X144714162Y-101575028D02*
X145171305Y-101117885D01*
X145171305Y-101117885D02*
X145171305Y-101613123D01*
X122314285Y-89012295D02*
X122580952Y-88631342D01*
X122771428Y-89012295D02*
X122771428Y-88212295D01*
X122771428Y-88212295D02*
X122466666Y-88212295D01*
X122466666Y-88212295D02*
X122390476Y-88250390D01*
X122390476Y-88250390D02*
X122352381Y-88288485D01*
X122352381Y-88288485D02*
X122314285Y-88364676D01*
X122314285Y-88364676D02*
X122314285Y-88478961D01*
X122314285Y-88478961D02*
X122352381Y-88555152D01*
X122352381Y-88555152D02*
X122390476Y-88593247D01*
X122390476Y-88593247D02*
X122466666Y-88631342D01*
X122466666Y-88631342D02*
X122771428Y-88631342D01*
X121590476Y-88212295D02*
X121971428Y-88212295D01*
X121971428Y-88212295D02*
X122009524Y-88593247D01*
X122009524Y-88593247D02*
X121971428Y-88555152D01*
X121971428Y-88555152D02*
X121895238Y-88517057D01*
X121895238Y-88517057D02*
X121704762Y-88517057D01*
X121704762Y-88517057D02*
X121628571Y-88555152D01*
X121628571Y-88555152D02*
X121590476Y-88593247D01*
X121590476Y-88593247D02*
X121552381Y-88669438D01*
X121552381Y-88669438D02*
X121552381Y-88859914D01*
X121552381Y-88859914D02*
X121590476Y-88936104D01*
X121590476Y-88936104D02*
X121628571Y-88974200D01*
X121628571Y-88974200D02*
X121704762Y-89012295D01*
X121704762Y-89012295D02*
X121895238Y-89012295D01*
X121895238Y-89012295D02*
X121971428Y-88974200D01*
X121971428Y-88974200D02*
X122009524Y-88936104D01*
X121285714Y-88212295D02*
X120790476Y-88212295D01*
X120790476Y-88212295D02*
X121057142Y-88517057D01*
X121057142Y-88517057D02*
X120942857Y-88517057D01*
X120942857Y-88517057D02*
X120866666Y-88555152D01*
X120866666Y-88555152D02*
X120828571Y-88593247D01*
X120828571Y-88593247D02*
X120790476Y-88669438D01*
X120790476Y-88669438D02*
X120790476Y-88859914D01*
X120790476Y-88859914D02*
X120828571Y-88936104D01*
X120828571Y-88936104D02*
X120866666Y-88974200D01*
X120866666Y-88974200D02*
X120942857Y-89012295D01*
X120942857Y-89012295D02*
X121171428Y-89012295D01*
X121171428Y-89012295D02*
X121247619Y-88974200D01*
X121247619Y-88974200D02*
X121285714Y-88936104D01*
X111036104Y-97085714D02*
X111074200Y-97047618D01*
X111074200Y-97047618D02*
X111112295Y-96933333D01*
X111112295Y-96933333D02*
X111112295Y-96857142D01*
X111112295Y-96857142D02*
X111074200Y-96742856D01*
X111074200Y-96742856D02*
X110998009Y-96666666D01*
X110998009Y-96666666D02*
X110921819Y-96628571D01*
X110921819Y-96628571D02*
X110769438Y-96590475D01*
X110769438Y-96590475D02*
X110655152Y-96590475D01*
X110655152Y-96590475D02*
X110502771Y-96628571D01*
X110502771Y-96628571D02*
X110426580Y-96666666D01*
X110426580Y-96666666D02*
X110350390Y-96742856D01*
X110350390Y-96742856D02*
X110312295Y-96857142D01*
X110312295Y-96857142D02*
X110312295Y-96933333D01*
X110312295Y-96933333D02*
X110350390Y-97047618D01*
X110350390Y-97047618D02*
X110388485Y-97085714D01*
X110578961Y-97771428D02*
X111112295Y-97771428D01*
X110274200Y-97580952D02*
X110845628Y-97390475D01*
X110845628Y-97390475D02*
X110845628Y-97885714D01*
X110312295Y-98571428D02*
X110312295Y-98190476D01*
X110312295Y-98190476D02*
X110693247Y-98152380D01*
X110693247Y-98152380D02*
X110655152Y-98190476D01*
X110655152Y-98190476D02*
X110617057Y-98266666D01*
X110617057Y-98266666D02*
X110617057Y-98457142D01*
X110617057Y-98457142D02*
X110655152Y-98533333D01*
X110655152Y-98533333D02*
X110693247Y-98571428D01*
X110693247Y-98571428D02*
X110769438Y-98609523D01*
X110769438Y-98609523D02*
X110959914Y-98609523D01*
X110959914Y-98609523D02*
X111036104Y-98571428D01*
X111036104Y-98571428D02*
X111074200Y-98533333D01*
X111074200Y-98533333D02*
X111112295Y-98457142D01*
X111112295Y-98457142D02*
X111112295Y-98266666D01*
X111112295Y-98266666D02*
X111074200Y-98190476D01*
X111074200Y-98190476D02*
X111036104Y-98152380D01*
X118995114Y-100339314D02*
X119033210Y-100301218D01*
X119033210Y-100301218D02*
X119071305Y-100186933D01*
X119071305Y-100186933D02*
X119071305Y-100110742D01*
X119071305Y-100110742D02*
X119033210Y-99996456D01*
X119033210Y-99996456D02*
X118957019Y-99920266D01*
X118957019Y-99920266D02*
X118880829Y-99882171D01*
X118880829Y-99882171D02*
X118728448Y-99844075D01*
X118728448Y-99844075D02*
X118614162Y-99844075D01*
X118614162Y-99844075D02*
X118461781Y-99882171D01*
X118461781Y-99882171D02*
X118385590Y-99920266D01*
X118385590Y-99920266D02*
X118309400Y-99996456D01*
X118309400Y-99996456D02*
X118271305Y-100110742D01*
X118271305Y-100110742D02*
X118271305Y-100186933D01*
X118271305Y-100186933D02*
X118309400Y-100301218D01*
X118309400Y-100301218D02*
X118347495Y-100339314D01*
X118271305Y-101063123D02*
X118271305Y-100682171D01*
X118271305Y-100682171D02*
X118652257Y-100644075D01*
X118652257Y-100644075D02*
X118614162Y-100682171D01*
X118614162Y-100682171D02*
X118576067Y-100758361D01*
X118576067Y-100758361D02*
X118576067Y-100948837D01*
X118576067Y-100948837D02*
X118614162Y-101025028D01*
X118614162Y-101025028D02*
X118652257Y-101063123D01*
X118652257Y-101063123D02*
X118728448Y-101101218D01*
X118728448Y-101101218D02*
X118918924Y-101101218D01*
X118918924Y-101101218D02*
X118995114Y-101063123D01*
X118995114Y-101063123D02*
X119033210Y-101025028D01*
X119033210Y-101025028D02*
X119071305Y-100948837D01*
X119071305Y-100948837D02*
X119071305Y-100758361D01*
X119071305Y-100758361D02*
X119033210Y-100682171D01*
X119033210Y-100682171D02*
X118995114Y-100644075D01*
X119071305Y-101482171D02*
X119071305Y-101634552D01*
X119071305Y-101634552D02*
X119033210Y-101710742D01*
X119033210Y-101710742D02*
X118995114Y-101748838D01*
X118995114Y-101748838D02*
X118880829Y-101825028D01*
X118880829Y-101825028D02*
X118728448Y-101863123D01*
X118728448Y-101863123D02*
X118423686Y-101863123D01*
X118423686Y-101863123D02*
X118347495Y-101825028D01*
X118347495Y-101825028D02*
X118309400Y-101786933D01*
X118309400Y-101786933D02*
X118271305Y-101710742D01*
X118271305Y-101710742D02*
X118271305Y-101558361D01*
X118271305Y-101558361D02*
X118309400Y-101482171D01*
X118309400Y-101482171D02*
X118347495Y-101444076D01*
X118347495Y-101444076D02*
X118423686Y-101405980D01*
X118423686Y-101405980D02*
X118614162Y-101405980D01*
X118614162Y-101405980D02*
X118690352Y-101444076D01*
X118690352Y-101444076D02*
X118728448Y-101482171D01*
X118728448Y-101482171D02*
X118766543Y-101558361D01*
X118766543Y-101558361D02*
X118766543Y-101710742D01*
X118766543Y-101710742D02*
X118728448Y-101786933D01*
X118728448Y-101786933D02*
X118690352Y-101825028D01*
X118690352Y-101825028D02*
X118614162Y-101863123D01*
X158226104Y-100085714D02*
X158264200Y-100047618D01*
X158264200Y-100047618D02*
X158302295Y-99933333D01*
X158302295Y-99933333D02*
X158302295Y-99857142D01*
X158302295Y-99857142D02*
X158264200Y-99742856D01*
X158264200Y-99742856D02*
X158188009Y-99666666D01*
X158188009Y-99666666D02*
X158111819Y-99628571D01*
X158111819Y-99628571D02*
X157959438Y-99590475D01*
X157959438Y-99590475D02*
X157845152Y-99590475D01*
X157845152Y-99590475D02*
X157692771Y-99628571D01*
X157692771Y-99628571D02*
X157616580Y-99666666D01*
X157616580Y-99666666D02*
X157540390Y-99742856D01*
X157540390Y-99742856D02*
X157502295Y-99857142D01*
X157502295Y-99857142D02*
X157502295Y-99933333D01*
X157502295Y-99933333D02*
X157540390Y-100047618D01*
X157540390Y-100047618D02*
X157578485Y-100085714D01*
X158302295Y-100466666D02*
X158302295Y-100619047D01*
X158302295Y-100619047D02*
X158264200Y-100695237D01*
X158264200Y-100695237D02*
X158226104Y-100733333D01*
X158226104Y-100733333D02*
X158111819Y-100809523D01*
X158111819Y-100809523D02*
X157959438Y-100847618D01*
X157959438Y-100847618D02*
X157654676Y-100847618D01*
X157654676Y-100847618D02*
X157578485Y-100809523D01*
X157578485Y-100809523D02*
X157540390Y-100771428D01*
X157540390Y-100771428D02*
X157502295Y-100695237D01*
X157502295Y-100695237D02*
X157502295Y-100542856D01*
X157502295Y-100542856D02*
X157540390Y-100466666D01*
X157540390Y-100466666D02*
X157578485Y-100428571D01*
X157578485Y-100428571D02*
X157654676Y-100390475D01*
X157654676Y-100390475D02*
X157845152Y-100390475D01*
X157845152Y-100390475D02*
X157921342Y-100428571D01*
X157921342Y-100428571D02*
X157959438Y-100466666D01*
X157959438Y-100466666D02*
X157997533Y-100542856D01*
X157997533Y-100542856D02*
X157997533Y-100695237D01*
X157997533Y-100695237D02*
X157959438Y-100771428D01*
X157959438Y-100771428D02*
X157921342Y-100809523D01*
X157921342Y-100809523D02*
X157845152Y-100847618D01*
X158302295Y-101609523D02*
X158302295Y-101152380D01*
X158302295Y-101380952D02*
X157502295Y-101380952D01*
X157502295Y-101380952D02*
X157616580Y-101304761D01*
X157616580Y-101304761D02*
X157692771Y-101228571D01*
X157692771Y-101228571D02*
X157730866Y-101152380D01*
X186214285Y-87932295D02*
X186480952Y-87551342D01*
X186671428Y-87932295D02*
X186671428Y-87132295D01*
X186671428Y-87132295D02*
X186366666Y-87132295D01*
X186366666Y-87132295D02*
X186290476Y-87170390D01*
X186290476Y-87170390D02*
X186252381Y-87208485D01*
X186252381Y-87208485D02*
X186214285Y-87284676D01*
X186214285Y-87284676D02*
X186214285Y-87398961D01*
X186214285Y-87398961D02*
X186252381Y-87475152D01*
X186252381Y-87475152D02*
X186290476Y-87513247D01*
X186290476Y-87513247D02*
X186366666Y-87551342D01*
X186366666Y-87551342D02*
X186671428Y-87551342D01*
X185947619Y-87132295D02*
X185452381Y-87132295D01*
X185452381Y-87132295D02*
X185719047Y-87437057D01*
X185719047Y-87437057D02*
X185604762Y-87437057D01*
X185604762Y-87437057D02*
X185528571Y-87475152D01*
X185528571Y-87475152D02*
X185490476Y-87513247D01*
X185490476Y-87513247D02*
X185452381Y-87589438D01*
X185452381Y-87589438D02*
X185452381Y-87779914D01*
X185452381Y-87779914D02*
X185490476Y-87856104D01*
X185490476Y-87856104D02*
X185528571Y-87894200D01*
X185528571Y-87894200D02*
X185604762Y-87932295D01*
X185604762Y-87932295D02*
X185833333Y-87932295D01*
X185833333Y-87932295D02*
X185909524Y-87894200D01*
X185909524Y-87894200D02*
X185947619Y-87856104D01*
X184766666Y-87132295D02*
X184919047Y-87132295D01*
X184919047Y-87132295D02*
X184995238Y-87170390D01*
X184995238Y-87170390D02*
X185033333Y-87208485D01*
X185033333Y-87208485D02*
X185109523Y-87322771D01*
X185109523Y-87322771D02*
X185147619Y-87475152D01*
X185147619Y-87475152D02*
X185147619Y-87779914D01*
X185147619Y-87779914D02*
X185109523Y-87856104D01*
X185109523Y-87856104D02*
X185071428Y-87894200D01*
X185071428Y-87894200D02*
X184995238Y-87932295D01*
X184995238Y-87932295D02*
X184842857Y-87932295D01*
X184842857Y-87932295D02*
X184766666Y-87894200D01*
X184766666Y-87894200D02*
X184728571Y-87856104D01*
X184728571Y-87856104D02*
X184690476Y-87779914D01*
X184690476Y-87779914D02*
X184690476Y-87589438D01*
X184690476Y-87589438D02*
X184728571Y-87513247D01*
X184728571Y-87513247D02*
X184766666Y-87475152D01*
X184766666Y-87475152D02*
X184842857Y-87437057D01*
X184842857Y-87437057D02*
X184995238Y-87437057D01*
X184995238Y-87437057D02*
X185071428Y-87475152D01*
X185071428Y-87475152D02*
X185109523Y-87513247D01*
X185109523Y-87513247D02*
X185147619Y-87589438D01*
X139064285Y-89112295D02*
X139330952Y-88731342D01*
X139521428Y-89112295D02*
X139521428Y-88312295D01*
X139521428Y-88312295D02*
X139216666Y-88312295D01*
X139216666Y-88312295D02*
X139140476Y-88350390D01*
X139140476Y-88350390D02*
X139102381Y-88388485D01*
X139102381Y-88388485D02*
X139064285Y-88464676D01*
X139064285Y-88464676D02*
X139064285Y-88578961D01*
X139064285Y-88578961D02*
X139102381Y-88655152D01*
X139102381Y-88655152D02*
X139140476Y-88693247D01*
X139140476Y-88693247D02*
X139216666Y-88731342D01*
X139216666Y-88731342D02*
X139521428Y-88731342D01*
X138378571Y-88312295D02*
X138530952Y-88312295D01*
X138530952Y-88312295D02*
X138607143Y-88350390D01*
X138607143Y-88350390D02*
X138645238Y-88388485D01*
X138645238Y-88388485D02*
X138721428Y-88502771D01*
X138721428Y-88502771D02*
X138759524Y-88655152D01*
X138759524Y-88655152D02*
X138759524Y-88959914D01*
X138759524Y-88959914D02*
X138721428Y-89036104D01*
X138721428Y-89036104D02*
X138683333Y-89074200D01*
X138683333Y-89074200D02*
X138607143Y-89112295D01*
X138607143Y-89112295D02*
X138454762Y-89112295D01*
X138454762Y-89112295D02*
X138378571Y-89074200D01*
X138378571Y-89074200D02*
X138340476Y-89036104D01*
X138340476Y-89036104D02*
X138302381Y-88959914D01*
X138302381Y-88959914D02*
X138302381Y-88769438D01*
X138302381Y-88769438D02*
X138340476Y-88693247D01*
X138340476Y-88693247D02*
X138378571Y-88655152D01*
X138378571Y-88655152D02*
X138454762Y-88617057D01*
X138454762Y-88617057D02*
X138607143Y-88617057D01*
X138607143Y-88617057D02*
X138683333Y-88655152D01*
X138683333Y-88655152D02*
X138721428Y-88693247D01*
X138721428Y-88693247D02*
X138759524Y-88769438D01*
X137616666Y-88578961D02*
X137616666Y-89112295D01*
X137807142Y-88274200D02*
X137997619Y-88845628D01*
X137997619Y-88845628D02*
X137502380Y-88845628D01*
X179976190Y-82038485D02*
X180052380Y-82000390D01*
X180052380Y-82000390D02*
X180128571Y-81924200D01*
X180128571Y-81924200D02*
X180242857Y-81809914D01*
X180242857Y-81809914D02*
X180319047Y-81771819D01*
X180319047Y-81771819D02*
X180395238Y-81771819D01*
X180357142Y-81962295D02*
X180433333Y-81924200D01*
X180433333Y-81924200D02*
X180509523Y-81848009D01*
X180509523Y-81848009D02*
X180547619Y-81695628D01*
X180547619Y-81695628D02*
X180547619Y-81428961D01*
X180547619Y-81428961D02*
X180509523Y-81276580D01*
X180509523Y-81276580D02*
X180433333Y-81200390D01*
X180433333Y-81200390D02*
X180357142Y-81162295D01*
X180357142Y-81162295D02*
X180204761Y-81162295D01*
X180204761Y-81162295D02*
X180128571Y-81200390D01*
X180128571Y-81200390D02*
X180052380Y-81276580D01*
X180052380Y-81276580D02*
X180014285Y-81428961D01*
X180014285Y-81428961D02*
X180014285Y-81695628D01*
X180014285Y-81695628D02*
X180052380Y-81848009D01*
X180052380Y-81848009D02*
X180128571Y-81924200D01*
X180128571Y-81924200D02*
X180204761Y-81962295D01*
X180204761Y-81962295D02*
X180357142Y-81962295D01*
X179290476Y-81162295D02*
X179671428Y-81162295D01*
X179671428Y-81162295D02*
X179709524Y-81543247D01*
X179709524Y-81543247D02*
X179671428Y-81505152D01*
X179671428Y-81505152D02*
X179595238Y-81467057D01*
X179595238Y-81467057D02*
X179404762Y-81467057D01*
X179404762Y-81467057D02*
X179328571Y-81505152D01*
X179328571Y-81505152D02*
X179290476Y-81543247D01*
X179290476Y-81543247D02*
X179252381Y-81619438D01*
X179252381Y-81619438D02*
X179252381Y-81809914D01*
X179252381Y-81809914D02*
X179290476Y-81886104D01*
X179290476Y-81886104D02*
X179328571Y-81924200D01*
X179328571Y-81924200D02*
X179404762Y-81962295D01*
X179404762Y-81962295D02*
X179595238Y-81962295D01*
X179595238Y-81962295D02*
X179671428Y-81924200D01*
X179671428Y-81924200D02*
X179709524Y-81886104D01*
X128445114Y-100489314D02*
X128483210Y-100451218D01*
X128483210Y-100451218D02*
X128521305Y-100336933D01*
X128521305Y-100336933D02*
X128521305Y-100260742D01*
X128521305Y-100260742D02*
X128483210Y-100146456D01*
X128483210Y-100146456D02*
X128407019Y-100070266D01*
X128407019Y-100070266D02*
X128330829Y-100032171D01*
X128330829Y-100032171D02*
X128178448Y-99994075D01*
X128178448Y-99994075D02*
X128064162Y-99994075D01*
X128064162Y-99994075D02*
X127911781Y-100032171D01*
X127911781Y-100032171D02*
X127835590Y-100070266D01*
X127835590Y-100070266D02*
X127759400Y-100146456D01*
X127759400Y-100146456D02*
X127721305Y-100260742D01*
X127721305Y-100260742D02*
X127721305Y-100336933D01*
X127721305Y-100336933D02*
X127759400Y-100451218D01*
X127759400Y-100451218D02*
X127797495Y-100489314D01*
X127721305Y-101175028D02*
X127721305Y-101022647D01*
X127721305Y-101022647D02*
X127759400Y-100946456D01*
X127759400Y-100946456D02*
X127797495Y-100908361D01*
X127797495Y-100908361D02*
X127911781Y-100832171D01*
X127911781Y-100832171D02*
X128064162Y-100794075D01*
X128064162Y-100794075D02*
X128368924Y-100794075D01*
X128368924Y-100794075D02*
X128445114Y-100832171D01*
X128445114Y-100832171D02*
X128483210Y-100870266D01*
X128483210Y-100870266D02*
X128521305Y-100946456D01*
X128521305Y-100946456D02*
X128521305Y-101098837D01*
X128521305Y-101098837D02*
X128483210Y-101175028D01*
X128483210Y-101175028D02*
X128445114Y-101213123D01*
X128445114Y-101213123D02*
X128368924Y-101251218D01*
X128368924Y-101251218D02*
X128178448Y-101251218D01*
X128178448Y-101251218D02*
X128102257Y-101213123D01*
X128102257Y-101213123D02*
X128064162Y-101175028D01*
X128064162Y-101175028D02*
X128026067Y-101098837D01*
X128026067Y-101098837D02*
X128026067Y-100946456D01*
X128026067Y-100946456D02*
X128064162Y-100870266D01*
X128064162Y-100870266D02*
X128102257Y-100832171D01*
X128102257Y-100832171D02*
X128178448Y-100794075D01*
X127721305Y-101936933D02*
X127721305Y-101784552D01*
X127721305Y-101784552D02*
X127759400Y-101708361D01*
X127759400Y-101708361D02*
X127797495Y-101670266D01*
X127797495Y-101670266D02*
X127911781Y-101594076D01*
X127911781Y-101594076D02*
X128064162Y-101555980D01*
X128064162Y-101555980D02*
X128368924Y-101555980D01*
X128368924Y-101555980D02*
X128445114Y-101594076D01*
X128445114Y-101594076D02*
X128483210Y-101632171D01*
X128483210Y-101632171D02*
X128521305Y-101708361D01*
X128521305Y-101708361D02*
X128521305Y-101860742D01*
X128521305Y-101860742D02*
X128483210Y-101936933D01*
X128483210Y-101936933D02*
X128445114Y-101975028D01*
X128445114Y-101975028D02*
X128368924Y-102013123D01*
X128368924Y-102013123D02*
X128178448Y-102013123D01*
X128178448Y-102013123D02*
X128102257Y-101975028D01*
X128102257Y-101975028D02*
X128064162Y-101936933D01*
X128064162Y-101936933D02*
X128026067Y-101860742D01*
X128026067Y-101860742D02*
X128026067Y-101708361D01*
X128026067Y-101708361D02*
X128064162Y-101632171D01*
X128064162Y-101632171D02*
X128102257Y-101594076D01*
X128102257Y-101594076D02*
X128178448Y-101555980D01*
X177364285Y-75112295D02*
X177630952Y-74731342D01*
X177821428Y-75112295D02*
X177821428Y-74312295D01*
X177821428Y-74312295D02*
X177516666Y-74312295D01*
X177516666Y-74312295D02*
X177440476Y-74350390D01*
X177440476Y-74350390D02*
X177402381Y-74388485D01*
X177402381Y-74388485D02*
X177364285Y-74464676D01*
X177364285Y-74464676D02*
X177364285Y-74578961D01*
X177364285Y-74578961D02*
X177402381Y-74655152D01*
X177402381Y-74655152D02*
X177440476Y-74693247D01*
X177440476Y-74693247D02*
X177516666Y-74731342D01*
X177516666Y-74731342D02*
X177821428Y-74731342D01*
X177059524Y-74388485D02*
X177021428Y-74350390D01*
X177021428Y-74350390D02*
X176945238Y-74312295D01*
X176945238Y-74312295D02*
X176754762Y-74312295D01*
X176754762Y-74312295D02*
X176678571Y-74350390D01*
X176678571Y-74350390D02*
X176640476Y-74388485D01*
X176640476Y-74388485D02*
X176602381Y-74464676D01*
X176602381Y-74464676D02*
X176602381Y-74540866D01*
X176602381Y-74540866D02*
X176640476Y-74655152D01*
X176640476Y-74655152D02*
X177097619Y-75112295D01*
X177097619Y-75112295D02*
X176602381Y-75112295D01*
X175916666Y-74312295D02*
X176069047Y-74312295D01*
X176069047Y-74312295D02*
X176145238Y-74350390D01*
X176145238Y-74350390D02*
X176183333Y-74388485D01*
X176183333Y-74388485D02*
X176259523Y-74502771D01*
X176259523Y-74502771D02*
X176297619Y-74655152D01*
X176297619Y-74655152D02*
X176297619Y-74959914D01*
X176297619Y-74959914D02*
X176259523Y-75036104D01*
X176259523Y-75036104D02*
X176221428Y-75074200D01*
X176221428Y-75074200D02*
X176145238Y-75112295D01*
X176145238Y-75112295D02*
X175992857Y-75112295D01*
X175992857Y-75112295D02*
X175916666Y-75074200D01*
X175916666Y-75074200D02*
X175878571Y-75036104D01*
X175878571Y-75036104D02*
X175840476Y-74959914D01*
X175840476Y-74959914D02*
X175840476Y-74769438D01*
X175840476Y-74769438D02*
X175878571Y-74693247D01*
X175878571Y-74693247D02*
X175916666Y-74655152D01*
X175916666Y-74655152D02*
X175992857Y-74617057D01*
X175992857Y-74617057D02*
X176145238Y-74617057D01*
X176145238Y-74617057D02*
X176221428Y-74655152D01*
X176221428Y-74655152D02*
X176259523Y-74693247D01*
X176259523Y-74693247D02*
X176297619Y-74769438D01*
X105164285Y-88062295D02*
X105430952Y-87681342D01*
X105621428Y-88062295D02*
X105621428Y-87262295D01*
X105621428Y-87262295D02*
X105316666Y-87262295D01*
X105316666Y-87262295D02*
X105240476Y-87300390D01*
X105240476Y-87300390D02*
X105202381Y-87338485D01*
X105202381Y-87338485D02*
X105164285Y-87414676D01*
X105164285Y-87414676D02*
X105164285Y-87528961D01*
X105164285Y-87528961D02*
X105202381Y-87605152D01*
X105202381Y-87605152D02*
X105240476Y-87643247D01*
X105240476Y-87643247D02*
X105316666Y-87681342D01*
X105316666Y-87681342D02*
X105621428Y-87681342D01*
X104440476Y-87262295D02*
X104821428Y-87262295D01*
X104821428Y-87262295D02*
X104859524Y-87643247D01*
X104859524Y-87643247D02*
X104821428Y-87605152D01*
X104821428Y-87605152D02*
X104745238Y-87567057D01*
X104745238Y-87567057D02*
X104554762Y-87567057D01*
X104554762Y-87567057D02*
X104478571Y-87605152D01*
X104478571Y-87605152D02*
X104440476Y-87643247D01*
X104440476Y-87643247D02*
X104402381Y-87719438D01*
X104402381Y-87719438D02*
X104402381Y-87909914D01*
X104402381Y-87909914D02*
X104440476Y-87986104D01*
X104440476Y-87986104D02*
X104478571Y-88024200D01*
X104478571Y-88024200D02*
X104554762Y-88062295D01*
X104554762Y-88062295D02*
X104745238Y-88062295D01*
X104745238Y-88062295D02*
X104821428Y-88024200D01*
X104821428Y-88024200D02*
X104859524Y-87986104D01*
X104097619Y-87338485D02*
X104059523Y-87300390D01*
X104059523Y-87300390D02*
X103983333Y-87262295D01*
X103983333Y-87262295D02*
X103792857Y-87262295D01*
X103792857Y-87262295D02*
X103716666Y-87300390D01*
X103716666Y-87300390D02*
X103678571Y-87338485D01*
X103678571Y-87338485D02*
X103640476Y-87414676D01*
X103640476Y-87414676D02*
X103640476Y-87490866D01*
X103640476Y-87490866D02*
X103678571Y-87605152D01*
X103678571Y-87605152D02*
X104135714Y-88062295D01*
X104135714Y-88062295D02*
X103640476Y-88062295D01*
X130106900Y-94893572D02*
X130144996Y-94855476D01*
X130144996Y-94855476D02*
X130183091Y-94741191D01*
X130183091Y-94741191D02*
X130183091Y-94665000D01*
X130183091Y-94665000D02*
X130144996Y-94550714D01*
X130144996Y-94550714D02*
X130068805Y-94474524D01*
X130068805Y-94474524D02*
X129992615Y-94436429D01*
X129992615Y-94436429D02*
X129840234Y-94398333D01*
X129840234Y-94398333D02*
X129725948Y-94398333D01*
X129725948Y-94398333D02*
X129573567Y-94436429D01*
X129573567Y-94436429D02*
X129497376Y-94474524D01*
X129497376Y-94474524D02*
X129421186Y-94550714D01*
X129421186Y-94550714D02*
X129383091Y-94665000D01*
X129383091Y-94665000D02*
X129383091Y-94741191D01*
X129383091Y-94741191D02*
X129421186Y-94855476D01*
X129421186Y-94855476D02*
X129459281Y-94893572D01*
X129649757Y-95579286D02*
X130183091Y-95579286D01*
X129344996Y-95388810D02*
X129916424Y-95198333D01*
X129916424Y-95198333D02*
X129916424Y-95693572D01*
X129725948Y-96112619D02*
X129687853Y-96036429D01*
X129687853Y-96036429D02*
X129649757Y-95998334D01*
X129649757Y-95998334D02*
X129573567Y-95960238D01*
X129573567Y-95960238D02*
X129535472Y-95960238D01*
X129535472Y-95960238D02*
X129459281Y-95998334D01*
X129459281Y-95998334D02*
X129421186Y-96036429D01*
X129421186Y-96036429D02*
X129383091Y-96112619D01*
X129383091Y-96112619D02*
X129383091Y-96265000D01*
X129383091Y-96265000D02*
X129421186Y-96341191D01*
X129421186Y-96341191D02*
X129459281Y-96379286D01*
X129459281Y-96379286D02*
X129535472Y-96417381D01*
X129535472Y-96417381D02*
X129573567Y-96417381D01*
X129573567Y-96417381D02*
X129649757Y-96379286D01*
X129649757Y-96379286D02*
X129687853Y-96341191D01*
X129687853Y-96341191D02*
X129725948Y-96265000D01*
X129725948Y-96265000D02*
X129725948Y-96112619D01*
X129725948Y-96112619D02*
X129764043Y-96036429D01*
X129764043Y-96036429D02*
X129802138Y-95998334D01*
X129802138Y-95998334D02*
X129878329Y-95960238D01*
X129878329Y-95960238D02*
X130030710Y-95960238D01*
X130030710Y-95960238D02*
X130106900Y-95998334D01*
X130106900Y-95998334D02*
X130144996Y-96036429D01*
X130144996Y-96036429D02*
X130183091Y-96112619D01*
X130183091Y-96112619D02*
X130183091Y-96265000D01*
X130183091Y-96265000D02*
X130144996Y-96341191D01*
X130144996Y-96341191D02*
X130106900Y-96379286D01*
X130106900Y-96379286D02*
X130030710Y-96417381D01*
X130030710Y-96417381D02*
X129878329Y-96417381D01*
X129878329Y-96417381D02*
X129802138Y-96379286D01*
X129802138Y-96379286D02*
X129764043Y-96341191D01*
X129764043Y-96341191D02*
X129725948Y-96265000D01*
X135086104Y-96935714D02*
X135124200Y-96897618D01*
X135124200Y-96897618D02*
X135162295Y-96783333D01*
X135162295Y-96783333D02*
X135162295Y-96707142D01*
X135162295Y-96707142D02*
X135124200Y-96592856D01*
X135124200Y-96592856D02*
X135048009Y-96516666D01*
X135048009Y-96516666D02*
X134971819Y-96478571D01*
X134971819Y-96478571D02*
X134819438Y-96440475D01*
X134819438Y-96440475D02*
X134705152Y-96440475D01*
X134705152Y-96440475D02*
X134552771Y-96478571D01*
X134552771Y-96478571D02*
X134476580Y-96516666D01*
X134476580Y-96516666D02*
X134400390Y-96592856D01*
X134400390Y-96592856D02*
X134362295Y-96707142D01*
X134362295Y-96707142D02*
X134362295Y-96783333D01*
X134362295Y-96783333D02*
X134400390Y-96897618D01*
X134400390Y-96897618D02*
X134438485Y-96935714D01*
X134362295Y-97659523D02*
X134362295Y-97278571D01*
X134362295Y-97278571D02*
X134743247Y-97240475D01*
X134743247Y-97240475D02*
X134705152Y-97278571D01*
X134705152Y-97278571D02*
X134667057Y-97354761D01*
X134667057Y-97354761D02*
X134667057Y-97545237D01*
X134667057Y-97545237D02*
X134705152Y-97621428D01*
X134705152Y-97621428D02*
X134743247Y-97659523D01*
X134743247Y-97659523D02*
X134819438Y-97697618D01*
X134819438Y-97697618D02*
X135009914Y-97697618D01*
X135009914Y-97697618D02*
X135086104Y-97659523D01*
X135086104Y-97659523D02*
X135124200Y-97621428D01*
X135124200Y-97621428D02*
X135162295Y-97545237D01*
X135162295Y-97545237D02*
X135162295Y-97354761D01*
X135162295Y-97354761D02*
X135124200Y-97278571D01*
X135124200Y-97278571D02*
X135086104Y-97240475D01*
X134362295Y-98192857D02*
X134362295Y-98269047D01*
X134362295Y-98269047D02*
X134400390Y-98345238D01*
X134400390Y-98345238D02*
X134438485Y-98383333D01*
X134438485Y-98383333D02*
X134514676Y-98421428D01*
X134514676Y-98421428D02*
X134667057Y-98459523D01*
X134667057Y-98459523D02*
X134857533Y-98459523D01*
X134857533Y-98459523D02*
X135009914Y-98421428D01*
X135009914Y-98421428D02*
X135086104Y-98383333D01*
X135086104Y-98383333D02*
X135124200Y-98345238D01*
X135124200Y-98345238D02*
X135162295Y-98269047D01*
X135162295Y-98269047D02*
X135162295Y-98192857D01*
X135162295Y-98192857D02*
X135124200Y-98116666D01*
X135124200Y-98116666D02*
X135086104Y-98078571D01*
X135086104Y-98078571D02*
X135009914Y-98040476D01*
X135009914Y-98040476D02*
X134857533Y-98002380D01*
X134857533Y-98002380D02*
X134667057Y-98002380D01*
X134667057Y-98002380D02*
X134514676Y-98040476D01*
X134514676Y-98040476D02*
X134438485Y-98078571D01*
X134438485Y-98078571D02*
X134400390Y-98116666D01*
X134400390Y-98116666D02*
X134362295Y-98192857D01*
X193114285Y-75362295D02*
X193380952Y-74981342D01*
X193571428Y-75362295D02*
X193571428Y-74562295D01*
X193571428Y-74562295D02*
X193266666Y-74562295D01*
X193266666Y-74562295D02*
X193190476Y-74600390D01*
X193190476Y-74600390D02*
X193152381Y-74638485D01*
X193152381Y-74638485D02*
X193114285Y-74714676D01*
X193114285Y-74714676D02*
X193114285Y-74828961D01*
X193114285Y-74828961D02*
X193152381Y-74905152D01*
X193152381Y-74905152D02*
X193190476Y-74943247D01*
X193190476Y-74943247D02*
X193266666Y-74981342D01*
X193266666Y-74981342D02*
X193571428Y-74981342D01*
X192809524Y-74638485D02*
X192771428Y-74600390D01*
X192771428Y-74600390D02*
X192695238Y-74562295D01*
X192695238Y-74562295D02*
X192504762Y-74562295D01*
X192504762Y-74562295D02*
X192428571Y-74600390D01*
X192428571Y-74600390D02*
X192390476Y-74638485D01*
X192390476Y-74638485D02*
X192352381Y-74714676D01*
X192352381Y-74714676D02*
X192352381Y-74790866D01*
X192352381Y-74790866D02*
X192390476Y-74905152D01*
X192390476Y-74905152D02*
X192847619Y-75362295D01*
X192847619Y-75362295D02*
X192352381Y-75362295D01*
X192047619Y-74638485D02*
X192009523Y-74600390D01*
X192009523Y-74600390D02*
X191933333Y-74562295D01*
X191933333Y-74562295D02*
X191742857Y-74562295D01*
X191742857Y-74562295D02*
X191666666Y-74600390D01*
X191666666Y-74600390D02*
X191628571Y-74638485D01*
X191628571Y-74638485D02*
X191590476Y-74714676D01*
X191590476Y-74714676D02*
X191590476Y-74790866D01*
X191590476Y-74790866D02*
X191628571Y-74905152D01*
X191628571Y-74905152D02*
X192085714Y-75362295D01*
X192085714Y-75362295D02*
X191590476Y-75362295D01*
X161336104Y-97085714D02*
X161374200Y-97047618D01*
X161374200Y-97047618D02*
X161412295Y-96933333D01*
X161412295Y-96933333D02*
X161412295Y-96857142D01*
X161412295Y-96857142D02*
X161374200Y-96742856D01*
X161374200Y-96742856D02*
X161298009Y-96666666D01*
X161298009Y-96666666D02*
X161221819Y-96628571D01*
X161221819Y-96628571D02*
X161069438Y-96590475D01*
X161069438Y-96590475D02*
X160955152Y-96590475D01*
X160955152Y-96590475D02*
X160802771Y-96628571D01*
X160802771Y-96628571D02*
X160726580Y-96666666D01*
X160726580Y-96666666D02*
X160650390Y-96742856D01*
X160650390Y-96742856D02*
X160612295Y-96857142D01*
X160612295Y-96857142D02*
X160612295Y-96933333D01*
X160612295Y-96933333D02*
X160650390Y-97047618D01*
X160650390Y-97047618D02*
X160688485Y-97085714D01*
X160612295Y-97352380D02*
X160612295Y-97885714D01*
X160612295Y-97885714D02*
X161412295Y-97542856D01*
X160955152Y-98304761D02*
X160917057Y-98228571D01*
X160917057Y-98228571D02*
X160878961Y-98190476D01*
X160878961Y-98190476D02*
X160802771Y-98152380D01*
X160802771Y-98152380D02*
X160764676Y-98152380D01*
X160764676Y-98152380D02*
X160688485Y-98190476D01*
X160688485Y-98190476D02*
X160650390Y-98228571D01*
X160650390Y-98228571D02*
X160612295Y-98304761D01*
X160612295Y-98304761D02*
X160612295Y-98457142D01*
X160612295Y-98457142D02*
X160650390Y-98533333D01*
X160650390Y-98533333D02*
X160688485Y-98571428D01*
X160688485Y-98571428D02*
X160764676Y-98609523D01*
X160764676Y-98609523D02*
X160802771Y-98609523D01*
X160802771Y-98609523D02*
X160878961Y-98571428D01*
X160878961Y-98571428D02*
X160917057Y-98533333D01*
X160917057Y-98533333D02*
X160955152Y-98457142D01*
X160955152Y-98457142D02*
X160955152Y-98304761D01*
X160955152Y-98304761D02*
X160993247Y-98228571D01*
X160993247Y-98228571D02*
X161031342Y-98190476D01*
X161031342Y-98190476D02*
X161107533Y-98152380D01*
X161107533Y-98152380D02*
X161259914Y-98152380D01*
X161259914Y-98152380D02*
X161336104Y-98190476D01*
X161336104Y-98190476D02*
X161374200Y-98228571D01*
X161374200Y-98228571D02*
X161412295Y-98304761D01*
X161412295Y-98304761D02*
X161412295Y-98457142D01*
X161412295Y-98457142D02*
X161374200Y-98533333D01*
X161374200Y-98533333D02*
X161336104Y-98571428D01*
X161336104Y-98571428D02*
X161259914Y-98609523D01*
X161259914Y-98609523D02*
X161107533Y-98609523D01*
X161107533Y-98609523D02*
X161031342Y-98571428D01*
X161031342Y-98571428D02*
X160993247Y-98533333D01*
X160993247Y-98533333D02*
X160955152Y-98457142D01*
X149036104Y-95035714D02*
X149074200Y-94997618D01*
X149074200Y-94997618D02*
X149112295Y-94883333D01*
X149112295Y-94883333D02*
X149112295Y-94807142D01*
X149112295Y-94807142D02*
X149074200Y-94692856D01*
X149074200Y-94692856D02*
X148998009Y-94616666D01*
X148998009Y-94616666D02*
X148921819Y-94578571D01*
X148921819Y-94578571D02*
X148769438Y-94540475D01*
X148769438Y-94540475D02*
X148655152Y-94540475D01*
X148655152Y-94540475D02*
X148502771Y-94578571D01*
X148502771Y-94578571D02*
X148426580Y-94616666D01*
X148426580Y-94616666D02*
X148350390Y-94692856D01*
X148350390Y-94692856D02*
X148312295Y-94807142D01*
X148312295Y-94807142D02*
X148312295Y-94883333D01*
X148312295Y-94883333D02*
X148350390Y-94997618D01*
X148350390Y-94997618D02*
X148388485Y-95035714D01*
X148312295Y-95302380D02*
X148312295Y-95835714D01*
X148312295Y-95835714D02*
X149112295Y-95492856D01*
X149112295Y-96559523D02*
X149112295Y-96102380D01*
X149112295Y-96330952D02*
X148312295Y-96330952D01*
X148312295Y-96330952D02*
X148426580Y-96254761D01*
X148426580Y-96254761D02*
X148502771Y-96178571D01*
X148502771Y-96178571D02*
X148540866Y-96102380D01*
X139064285Y-92862295D02*
X139330952Y-92481342D01*
X139521428Y-92862295D02*
X139521428Y-92062295D01*
X139521428Y-92062295D02*
X139216666Y-92062295D01*
X139216666Y-92062295D02*
X139140476Y-92100390D01*
X139140476Y-92100390D02*
X139102381Y-92138485D01*
X139102381Y-92138485D02*
X139064285Y-92214676D01*
X139064285Y-92214676D02*
X139064285Y-92328961D01*
X139064285Y-92328961D02*
X139102381Y-92405152D01*
X139102381Y-92405152D02*
X139140476Y-92443247D01*
X139140476Y-92443247D02*
X139216666Y-92481342D01*
X139216666Y-92481342D02*
X139521428Y-92481342D01*
X138378571Y-92062295D02*
X138530952Y-92062295D01*
X138530952Y-92062295D02*
X138607143Y-92100390D01*
X138607143Y-92100390D02*
X138645238Y-92138485D01*
X138645238Y-92138485D02*
X138721428Y-92252771D01*
X138721428Y-92252771D02*
X138759524Y-92405152D01*
X138759524Y-92405152D02*
X138759524Y-92709914D01*
X138759524Y-92709914D02*
X138721428Y-92786104D01*
X138721428Y-92786104D02*
X138683333Y-92824200D01*
X138683333Y-92824200D02*
X138607143Y-92862295D01*
X138607143Y-92862295D02*
X138454762Y-92862295D01*
X138454762Y-92862295D02*
X138378571Y-92824200D01*
X138378571Y-92824200D02*
X138340476Y-92786104D01*
X138340476Y-92786104D02*
X138302381Y-92709914D01*
X138302381Y-92709914D02*
X138302381Y-92519438D01*
X138302381Y-92519438D02*
X138340476Y-92443247D01*
X138340476Y-92443247D02*
X138378571Y-92405152D01*
X138378571Y-92405152D02*
X138454762Y-92367057D01*
X138454762Y-92367057D02*
X138607143Y-92367057D01*
X138607143Y-92367057D02*
X138683333Y-92405152D01*
X138683333Y-92405152D02*
X138721428Y-92443247D01*
X138721428Y-92443247D02*
X138759524Y-92519438D01*
X137997619Y-92138485D02*
X137959523Y-92100390D01*
X137959523Y-92100390D02*
X137883333Y-92062295D01*
X137883333Y-92062295D02*
X137692857Y-92062295D01*
X137692857Y-92062295D02*
X137616666Y-92100390D01*
X137616666Y-92100390D02*
X137578571Y-92138485D01*
X137578571Y-92138485D02*
X137540476Y-92214676D01*
X137540476Y-92214676D02*
X137540476Y-92290866D01*
X137540476Y-92290866D02*
X137578571Y-92405152D01*
X137578571Y-92405152D02*
X138035714Y-92862295D01*
X138035714Y-92862295D02*
X137540476Y-92862295D01*
X160964285Y-93362295D02*
X161230952Y-92981342D01*
X161421428Y-93362295D02*
X161421428Y-92562295D01*
X161421428Y-92562295D02*
X161116666Y-92562295D01*
X161116666Y-92562295D02*
X161040476Y-92600390D01*
X161040476Y-92600390D02*
X161002381Y-92638485D01*
X161002381Y-92638485D02*
X160964285Y-92714676D01*
X160964285Y-92714676D02*
X160964285Y-92828961D01*
X160964285Y-92828961D02*
X161002381Y-92905152D01*
X161002381Y-92905152D02*
X161040476Y-92943247D01*
X161040476Y-92943247D02*
X161116666Y-92981342D01*
X161116666Y-92981342D02*
X161421428Y-92981342D01*
X160278571Y-92562295D02*
X160430952Y-92562295D01*
X160430952Y-92562295D02*
X160507143Y-92600390D01*
X160507143Y-92600390D02*
X160545238Y-92638485D01*
X160545238Y-92638485D02*
X160621428Y-92752771D01*
X160621428Y-92752771D02*
X160659524Y-92905152D01*
X160659524Y-92905152D02*
X160659524Y-93209914D01*
X160659524Y-93209914D02*
X160621428Y-93286104D01*
X160621428Y-93286104D02*
X160583333Y-93324200D01*
X160583333Y-93324200D02*
X160507143Y-93362295D01*
X160507143Y-93362295D02*
X160354762Y-93362295D01*
X160354762Y-93362295D02*
X160278571Y-93324200D01*
X160278571Y-93324200D02*
X160240476Y-93286104D01*
X160240476Y-93286104D02*
X160202381Y-93209914D01*
X160202381Y-93209914D02*
X160202381Y-93019438D01*
X160202381Y-93019438D02*
X160240476Y-92943247D01*
X160240476Y-92943247D02*
X160278571Y-92905152D01*
X160278571Y-92905152D02*
X160354762Y-92867057D01*
X160354762Y-92867057D02*
X160507143Y-92867057D01*
X160507143Y-92867057D02*
X160583333Y-92905152D01*
X160583333Y-92905152D02*
X160621428Y-92943247D01*
X160621428Y-92943247D02*
X160659524Y-93019438D01*
X159935714Y-92562295D02*
X159440476Y-92562295D01*
X159440476Y-92562295D02*
X159707142Y-92867057D01*
X159707142Y-92867057D02*
X159592857Y-92867057D01*
X159592857Y-92867057D02*
X159516666Y-92905152D01*
X159516666Y-92905152D02*
X159478571Y-92943247D01*
X159478571Y-92943247D02*
X159440476Y-93019438D01*
X159440476Y-93019438D02*
X159440476Y-93209914D01*
X159440476Y-93209914D02*
X159478571Y-93286104D01*
X159478571Y-93286104D02*
X159516666Y-93324200D01*
X159516666Y-93324200D02*
X159592857Y-93362295D01*
X159592857Y-93362295D02*
X159821428Y-93362295D01*
X159821428Y-93362295D02*
X159897619Y-93324200D01*
X159897619Y-93324200D02*
X159935714Y-93286104D01*
X172954285Y-75212295D02*
X173220952Y-74831342D01*
X173411428Y-75212295D02*
X173411428Y-74412295D01*
X173411428Y-74412295D02*
X173106666Y-74412295D01*
X173106666Y-74412295D02*
X173030476Y-74450390D01*
X173030476Y-74450390D02*
X172992381Y-74488485D01*
X172992381Y-74488485D02*
X172954285Y-74564676D01*
X172954285Y-74564676D02*
X172954285Y-74678961D01*
X172954285Y-74678961D02*
X172992381Y-74755152D01*
X172992381Y-74755152D02*
X173030476Y-74793247D01*
X173030476Y-74793247D02*
X173106666Y-74831342D01*
X173106666Y-74831342D02*
X173411428Y-74831342D01*
X172687619Y-74412295D02*
X172192381Y-74412295D01*
X172192381Y-74412295D02*
X172459047Y-74717057D01*
X172459047Y-74717057D02*
X172344762Y-74717057D01*
X172344762Y-74717057D02*
X172268571Y-74755152D01*
X172268571Y-74755152D02*
X172230476Y-74793247D01*
X172230476Y-74793247D02*
X172192381Y-74869438D01*
X172192381Y-74869438D02*
X172192381Y-75059914D01*
X172192381Y-75059914D02*
X172230476Y-75136104D01*
X172230476Y-75136104D02*
X172268571Y-75174200D01*
X172268571Y-75174200D02*
X172344762Y-75212295D01*
X172344762Y-75212295D02*
X172573333Y-75212295D01*
X172573333Y-75212295D02*
X172649524Y-75174200D01*
X172649524Y-75174200D02*
X172687619Y-75136104D01*
X171430476Y-75212295D02*
X171887619Y-75212295D01*
X171659047Y-75212295D02*
X171659047Y-74412295D01*
X171659047Y-74412295D02*
X171735238Y-74526580D01*
X171735238Y-74526580D02*
X171811428Y-74602771D01*
X171811428Y-74602771D02*
X171887619Y-74640866D01*
X186064285Y-95766195D02*
X186330952Y-95385242D01*
X186521428Y-95766195D02*
X186521428Y-94966195D01*
X186521428Y-94966195D02*
X186216666Y-94966195D01*
X186216666Y-94966195D02*
X186140476Y-95004290D01*
X186140476Y-95004290D02*
X186102381Y-95042385D01*
X186102381Y-95042385D02*
X186064285Y-95118576D01*
X186064285Y-95118576D02*
X186064285Y-95232861D01*
X186064285Y-95232861D02*
X186102381Y-95309052D01*
X186102381Y-95309052D02*
X186140476Y-95347147D01*
X186140476Y-95347147D02*
X186216666Y-95385242D01*
X186216666Y-95385242D02*
X186521428Y-95385242D01*
X185797619Y-94966195D02*
X185302381Y-94966195D01*
X185302381Y-94966195D02*
X185569047Y-95270957D01*
X185569047Y-95270957D02*
X185454762Y-95270957D01*
X185454762Y-95270957D02*
X185378571Y-95309052D01*
X185378571Y-95309052D02*
X185340476Y-95347147D01*
X185340476Y-95347147D02*
X185302381Y-95423338D01*
X185302381Y-95423338D02*
X185302381Y-95613814D01*
X185302381Y-95613814D02*
X185340476Y-95690004D01*
X185340476Y-95690004D02*
X185378571Y-95728100D01*
X185378571Y-95728100D02*
X185454762Y-95766195D01*
X185454762Y-95766195D02*
X185683333Y-95766195D01*
X185683333Y-95766195D02*
X185759524Y-95728100D01*
X185759524Y-95728100D02*
X185797619Y-95690004D01*
X184845238Y-95309052D02*
X184921428Y-95270957D01*
X184921428Y-95270957D02*
X184959523Y-95232861D01*
X184959523Y-95232861D02*
X184997619Y-95156671D01*
X184997619Y-95156671D02*
X184997619Y-95118576D01*
X184997619Y-95118576D02*
X184959523Y-95042385D01*
X184959523Y-95042385D02*
X184921428Y-95004290D01*
X184921428Y-95004290D02*
X184845238Y-94966195D01*
X184845238Y-94966195D02*
X184692857Y-94966195D01*
X184692857Y-94966195D02*
X184616666Y-95004290D01*
X184616666Y-95004290D02*
X184578571Y-95042385D01*
X184578571Y-95042385D02*
X184540476Y-95118576D01*
X184540476Y-95118576D02*
X184540476Y-95156671D01*
X184540476Y-95156671D02*
X184578571Y-95232861D01*
X184578571Y-95232861D02*
X184616666Y-95270957D01*
X184616666Y-95270957D02*
X184692857Y-95309052D01*
X184692857Y-95309052D02*
X184845238Y-95309052D01*
X184845238Y-95309052D02*
X184921428Y-95347147D01*
X184921428Y-95347147D02*
X184959523Y-95385242D01*
X184959523Y-95385242D02*
X184997619Y-95461433D01*
X184997619Y-95461433D02*
X184997619Y-95613814D01*
X184997619Y-95613814D02*
X184959523Y-95690004D01*
X184959523Y-95690004D02*
X184921428Y-95728100D01*
X184921428Y-95728100D02*
X184845238Y-95766195D01*
X184845238Y-95766195D02*
X184692857Y-95766195D01*
X184692857Y-95766195D02*
X184616666Y-95728100D01*
X184616666Y-95728100D02*
X184578571Y-95690004D01*
X184578571Y-95690004D02*
X184540476Y-95613814D01*
X184540476Y-95613814D02*
X184540476Y-95461433D01*
X184540476Y-95461433D02*
X184578571Y-95385242D01*
X184578571Y-95385242D02*
X184616666Y-95347147D01*
X184616666Y-95347147D02*
X184692857Y-95309052D01*
X168286104Y-96885714D02*
X168324200Y-96847618D01*
X168324200Y-96847618D02*
X168362295Y-96733333D01*
X168362295Y-96733333D02*
X168362295Y-96657142D01*
X168362295Y-96657142D02*
X168324200Y-96542856D01*
X168324200Y-96542856D02*
X168248009Y-96466666D01*
X168248009Y-96466666D02*
X168171819Y-96428571D01*
X168171819Y-96428571D02*
X168019438Y-96390475D01*
X168019438Y-96390475D02*
X167905152Y-96390475D01*
X167905152Y-96390475D02*
X167752771Y-96428571D01*
X167752771Y-96428571D02*
X167676580Y-96466666D01*
X167676580Y-96466666D02*
X167600390Y-96542856D01*
X167600390Y-96542856D02*
X167562295Y-96657142D01*
X167562295Y-96657142D02*
X167562295Y-96733333D01*
X167562295Y-96733333D02*
X167600390Y-96847618D01*
X167600390Y-96847618D02*
X167638485Y-96885714D01*
X167562295Y-97152380D02*
X167562295Y-97685714D01*
X167562295Y-97685714D02*
X168362295Y-97342856D01*
X167562295Y-97914285D02*
X167562295Y-98447619D01*
X167562295Y-98447619D02*
X168362295Y-98104761D01*
X156464285Y-91162295D02*
X156730952Y-90781342D01*
X156921428Y-91162295D02*
X156921428Y-90362295D01*
X156921428Y-90362295D02*
X156616666Y-90362295D01*
X156616666Y-90362295D02*
X156540476Y-90400390D01*
X156540476Y-90400390D02*
X156502381Y-90438485D01*
X156502381Y-90438485D02*
X156464285Y-90514676D01*
X156464285Y-90514676D02*
X156464285Y-90628961D01*
X156464285Y-90628961D02*
X156502381Y-90705152D01*
X156502381Y-90705152D02*
X156540476Y-90743247D01*
X156540476Y-90743247D02*
X156616666Y-90781342D01*
X156616666Y-90781342D02*
X156921428Y-90781342D01*
X155778571Y-90362295D02*
X155930952Y-90362295D01*
X155930952Y-90362295D02*
X156007143Y-90400390D01*
X156007143Y-90400390D02*
X156045238Y-90438485D01*
X156045238Y-90438485D02*
X156121428Y-90552771D01*
X156121428Y-90552771D02*
X156159524Y-90705152D01*
X156159524Y-90705152D02*
X156159524Y-91009914D01*
X156159524Y-91009914D02*
X156121428Y-91086104D01*
X156121428Y-91086104D02*
X156083333Y-91124200D01*
X156083333Y-91124200D02*
X156007143Y-91162295D01*
X156007143Y-91162295D02*
X155854762Y-91162295D01*
X155854762Y-91162295D02*
X155778571Y-91124200D01*
X155778571Y-91124200D02*
X155740476Y-91086104D01*
X155740476Y-91086104D02*
X155702381Y-91009914D01*
X155702381Y-91009914D02*
X155702381Y-90819438D01*
X155702381Y-90819438D02*
X155740476Y-90743247D01*
X155740476Y-90743247D02*
X155778571Y-90705152D01*
X155778571Y-90705152D02*
X155854762Y-90667057D01*
X155854762Y-90667057D02*
X156007143Y-90667057D01*
X156007143Y-90667057D02*
X156083333Y-90705152D01*
X156083333Y-90705152D02*
X156121428Y-90743247D01*
X156121428Y-90743247D02*
X156159524Y-90819438D01*
X155435714Y-90362295D02*
X154902380Y-90362295D01*
X154902380Y-90362295D02*
X155245238Y-91162295D01*
X189164285Y-84512295D02*
X189430952Y-84131342D01*
X189621428Y-84512295D02*
X189621428Y-83712295D01*
X189621428Y-83712295D02*
X189316666Y-83712295D01*
X189316666Y-83712295D02*
X189240476Y-83750390D01*
X189240476Y-83750390D02*
X189202381Y-83788485D01*
X189202381Y-83788485D02*
X189164285Y-83864676D01*
X189164285Y-83864676D02*
X189164285Y-83978961D01*
X189164285Y-83978961D02*
X189202381Y-84055152D01*
X189202381Y-84055152D02*
X189240476Y-84093247D01*
X189240476Y-84093247D02*
X189316666Y-84131342D01*
X189316666Y-84131342D02*
X189621428Y-84131342D01*
X188859524Y-83788485D02*
X188821428Y-83750390D01*
X188821428Y-83750390D02*
X188745238Y-83712295D01*
X188745238Y-83712295D02*
X188554762Y-83712295D01*
X188554762Y-83712295D02*
X188478571Y-83750390D01*
X188478571Y-83750390D02*
X188440476Y-83788485D01*
X188440476Y-83788485D02*
X188402381Y-83864676D01*
X188402381Y-83864676D02*
X188402381Y-83940866D01*
X188402381Y-83940866D02*
X188440476Y-84055152D01*
X188440476Y-84055152D02*
X188897619Y-84512295D01*
X188897619Y-84512295D02*
X188402381Y-84512295D01*
X187907142Y-83712295D02*
X187830952Y-83712295D01*
X187830952Y-83712295D02*
X187754761Y-83750390D01*
X187754761Y-83750390D02*
X187716666Y-83788485D01*
X187716666Y-83788485D02*
X187678571Y-83864676D01*
X187678571Y-83864676D02*
X187640476Y-84017057D01*
X187640476Y-84017057D02*
X187640476Y-84207533D01*
X187640476Y-84207533D02*
X187678571Y-84359914D01*
X187678571Y-84359914D02*
X187716666Y-84436104D01*
X187716666Y-84436104D02*
X187754761Y-84474200D01*
X187754761Y-84474200D02*
X187830952Y-84512295D01*
X187830952Y-84512295D02*
X187907142Y-84512295D01*
X187907142Y-84512295D02*
X187983333Y-84474200D01*
X187983333Y-84474200D02*
X188021428Y-84436104D01*
X188021428Y-84436104D02*
X188059523Y-84359914D01*
X188059523Y-84359914D02*
X188097619Y-84207533D01*
X188097619Y-84207533D02*
X188097619Y-84017057D01*
X188097619Y-84017057D02*
X188059523Y-83864676D01*
X188059523Y-83864676D02*
X188021428Y-83788485D01*
X188021428Y-83788485D02*
X187983333Y-83750390D01*
X187983333Y-83750390D02*
X187907142Y-83712295D01*
X132392564Y-94831235D02*
X132430660Y-94793139D01*
X132430660Y-94793139D02*
X132468755Y-94678854D01*
X132468755Y-94678854D02*
X132468755Y-94602663D01*
X132468755Y-94602663D02*
X132430660Y-94488377D01*
X132430660Y-94488377D02*
X132354469Y-94412187D01*
X132354469Y-94412187D02*
X132278279Y-94374092D01*
X132278279Y-94374092D02*
X132125898Y-94335996D01*
X132125898Y-94335996D02*
X132011612Y-94335996D01*
X132011612Y-94335996D02*
X131859231Y-94374092D01*
X131859231Y-94374092D02*
X131783040Y-94412187D01*
X131783040Y-94412187D02*
X131706850Y-94488377D01*
X131706850Y-94488377D02*
X131668755Y-94602663D01*
X131668755Y-94602663D02*
X131668755Y-94678854D01*
X131668755Y-94678854D02*
X131706850Y-94793139D01*
X131706850Y-94793139D02*
X131744945Y-94831235D01*
X131935421Y-95516949D02*
X132468755Y-95516949D01*
X131630660Y-95326473D02*
X132202088Y-95135996D01*
X132202088Y-95135996D02*
X132202088Y-95631235D01*
X132468755Y-95974092D02*
X132468755Y-96126473D01*
X132468755Y-96126473D02*
X132430660Y-96202663D01*
X132430660Y-96202663D02*
X132392564Y-96240759D01*
X132392564Y-96240759D02*
X132278279Y-96316949D01*
X132278279Y-96316949D02*
X132125898Y-96355044D01*
X132125898Y-96355044D02*
X131821136Y-96355044D01*
X131821136Y-96355044D02*
X131744945Y-96316949D01*
X131744945Y-96316949D02*
X131706850Y-96278854D01*
X131706850Y-96278854D02*
X131668755Y-96202663D01*
X131668755Y-96202663D02*
X131668755Y-96050282D01*
X131668755Y-96050282D02*
X131706850Y-95974092D01*
X131706850Y-95974092D02*
X131744945Y-95935997D01*
X131744945Y-95935997D02*
X131821136Y-95897901D01*
X131821136Y-95897901D02*
X132011612Y-95897901D01*
X132011612Y-95897901D02*
X132087802Y-95935997D01*
X132087802Y-95935997D02*
X132125898Y-95974092D01*
X132125898Y-95974092D02*
X132163993Y-96050282D01*
X132163993Y-96050282D02*
X132163993Y-96202663D01*
X132163993Y-96202663D02*
X132125898Y-96278854D01*
X132125898Y-96278854D02*
X132087802Y-96316949D01*
X132087802Y-96316949D02*
X132011612Y-96355044D01*
X190214285Y-87932295D02*
X190480952Y-87551342D01*
X190671428Y-87932295D02*
X190671428Y-87132295D01*
X190671428Y-87132295D02*
X190366666Y-87132295D01*
X190366666Y-87132295D02*
X190290476Y-87170390D01*
X190290476Y-87170390D02*
X190252381Y-87208485D01*
X190252381Y-87208485D02*
X190214285Y-87284676D01*
X190214285Y-87284676D02*
X190214285Y-87398961D01*
X190214285Y-87398961D02*
X190252381Y-87475152D01*
X190252381Y-87475152D02*
X190290476Y-87513247D01*
X190290476Y-87513247D02*
X190366666Y-87551342D01*
X190366666Y-87551342D02*
X190671428Y-87551342D01*
X189528571Y-87398961D02*
X189528571Y-87932295D01*
X189719047Y-87094200D02*
X189909524Y-87665628D01*
X189909524Y-87665628D02*
X189414285Y-87665628D01*
X188690476Y-87932295D02*
X189147619Y-87932295D01*
X188919047Y-87932295D02*
X188919047Y-87132295D01*
X188919047Y-87132295D02*
X188995238Y-87246580D01*
X188995238Y-87246580D02*
X189071428Y-87322771D01*
X189071428Y-87322771D02*
X189147619Y-87360866D01*
X132026104Y-100489314D02*
X132064200Y-100451218D01*
X132064200Y-100451218D02*
X132102295Y-100336933D01*
X132102295Y-100336933D02*
X132102295Y-100260742D01*
X132102295Y-100260742D02*
X132064200Y-100146456D01*
X132064200Y-100146456D02*
X131988009Y-100070266D01*
X131988009Y-100070266D02*
X131911819Y-100032171D01*
X131911819Y-100032171D02*
X131759438Y-99994075D01*
X131759438Y-99994075D02*
X131645152Y-99994075D01*
X131645152Y-99994075D02*
X131492771Y-100032171D01*
X131492771Y-100032171D02*
X131416580Y-100070266D01*
X131416580Y-100070266D02*
X131340390Y-100146456D01*
X131340390Y-100146456D02*
X131302295Y-100260742D01*
X131302295Y-100260742D02*
X131302295Y-100336933D01*
X131302295Y-100336933D02*
X131340390Y-100451218D01*
X131340390Y-100451218D02*
X131378485Y-100489314D01*
X131302295Y-101175028D02*
X131302295Y-101022647D01*
X131302295Y-101022647D02*
X131340390Y-100946456D01*
X131340390Y-100946456D02*
X131378485Y-100908361D01*
X131378485Y-100908361D02*
X131492771Y-100832171D01*
X131492771Y-100832171D02*
X131645152Y-100794075D01*
X131645152Y-100794075D02*
X131949914Y-100794075D01*
X131949914Y-100794075D02*
X132026104Y-100832171D01*
X132026104Y-100832171D02*
X132064200Y-100870266D01*
X132064200Y-100870266D02*
X132102295Y-100946456D01*
X132102295Y-100946456D02*
X132102295Y-101098837D01*
X132102295Y-101098837D02*
X132064200Y-101175028D01*
X132064200Y-101175028D02*
X132026104Y-101213123D01*
X132026104Y-101213123D02*
X131949914Y-101251218D01*
X131949914Y-101251218D02*
X131759438Y-101251218D01*
X131759438Y-101251218D02*
X131683247Y-101213123D01*
X131683247Y-101213123D02*
X131645152Y-101175028D01*
X131645152Y-101175028D02*
X131607057Y-101098837D01*
X131607057Y-101098837D02*
X131607057Y-100946456D01*
X131607057Y-100946456D02*
X131645152Y-100870266D01*
X131645152Y-100870266D02*
X131683247Y-100832171D01*
X131683247Y-100832171D02*
X131759438Y-100794075D01*
X131378485Y-101555980D02*
X131340390Y-101594076D01*
X131340390Y-101594076D02*
X131302295Y-101670266D01*
X131302295Y-101670266D02*
X131302295Y-101860742D01*
X131302295Y-101860742D02*
X131340390Y-101936933D01*
X131340390Y-101936933D02*
X131378485Y-101975028D01*
X131378485Y-101975028D02*
X131454676Y-102013123D01*
X131454676Y-102013123D02*
X131530866Y-102013123D01*
X131530866Y-102013123D02*
X131645152Y-101975028D01*
X131645152Y-101975028D02*
X132102295Y-101517885D01*
X132102295Y-101517885D02*
X132102295Y-102013123D01*
X105114285Y-90412295D02*
X105380952Y-90031342D01*
X105571428Y-90412295D02*
X105571428Y-89612295D01*
X105571428Y-89612295D02*
X105266666Y-89612295D01*
X105266666Y-89612295D02*
X105190476Y-89650390D01*
X105190476Y-89650390D02*
X105152381Y-89688485D01*
X105152381Y-89688485D02*
X105114285Y-89764676D01*
X105114285Y-89764676D02*
X105114285Y-89878961D01*
X105114285Y-89878961D02*
X105152381Y-89955152D01*
X105152381Y-89955152D02*
X105190476Y-89993247D01*
X105190476Y-89993247D02*
X105266666Y-90031342D01*
X105266666Y-90031342D02*
X105571428Y-90031342D01*
X104390476Y-89612295D02*
X104771428Y-89612295D01*
X104771428Y-89612295D02*
X104809524Y-89993247D01*
X104809524Y-89993247D02*
X104771428Y-89955152D01*
X104771428Y-89955152D02*
X104695238Y-89917057D01*
X104695238Y-89917057D02*
X104504762Y-89917057D01*
X104504762Y-89917057D02*
X104428571Y-89955152D01*
X104428571Y-89955152D02*
X104390476Y-89993247D01*
X104390476Y-89993247D02*
X104352381Y-90069438D01*
X104352381Y-90069438D02*
X104352381Y-90259914D01*
X104352381Y-90259914D02*
X104390476Y-90336104D01*
X104390476Y-90336104D02*
X104428571Y-90374200D01*
X104428571Y-90374200D02*
X104504762Y-90412295D01*
X104504762Y-90412295D02*
X104695238Y-90412295D01*
X104695238Y-90412295D02*
X104771428Y-90374200D01*
X104771428Y-90374200D02*
X104809524Y-90336104D01*
X103666666Y-89878961D02*
X103666666Y-90412295D01*
X103857142Y-89574200D02*
X104047619Y-90145628D01*
X104047619Y-90145628D02*
X103552380Y-90145628D01*
X168595114Y-99989314D02*
X168633210Y-99951218D01*
X168633210Y-99951218D02*
X168671305Y-99836933D01*
X168671305Y-99836933D02*
X168671305Y-99760742D01*
X168671305Y-99760742D02*
X168633210Y-99646456D01*
X168633210Y-99646456D02*
X168557019Y-99570266D01*
X168557019Y-99570266D02*
X168480829Y-99532171D01*
X168480829Y-99532171D02*
X168328448Y-99494075D01*
X168328448Y-99494075D02*
X168214162Y-99494075D01*
X168214162Y-99494075D02*
X168061781Y-99532171D01*
X168061781Y-99532171D02*
X167985590Y-99570266D01*
X167985590Y-99570266D02*
X167909400Y-99646456D01*
X167909400Y-99646456D02*
X167871305Y-99760742D01*
X167871305Y-99760742D02*
X167871305Y-99836933D01*
X167871305Y-99836933D02*
X167909400Y-99951218D01*
X167909400Y-99951218D02*
X167947495Y-99989314D01*
X168214162Y-100446456D02*
X168176067Y-100370266D01*
X168176067Y-100370266D02*
X168137971Y-100332171D01*
X168137971Y-100332171D02*
X168061781Y-100294075D01*
X168061781Y-100294075D02*
X168023686Y-100294075D01*
X168023686Y-100294075D02*
X167947495Y-100332171D01*
X167947495Y-100332171D02*
X167909400Y-100370266D01*
X167909400Y-100370266D02*
X167871305Y-100446456D01*
X167871305Y-100446456D02*
X167871305Y-100598837D01*
X167871305Y-100598837D02*
X167909400Y-100675028D01*
X167909400Y-100675028D02*
X167947495Y-100713123D01*
X167947495Y-100713123D02*
X168023686Y-100751218D01*
X168023686Y-100751218D02*
X168061781Y-100751218D01*
X168061781Y-100751218D02*
X168137971Y-100713123D01*
X168137971Y-100713123D02*
X168176067Y-100675028D01*
X168176067Y-100675028D02*
X168214162Y-100598837D01*
X168214162Y-100598837D02*
X168214162Y-100446456D01*
X168214162Y-100446456D02*
X168252257Y-100370266D01*
X168252257Y-100370266D02*
X168290352Y-100332171D01*
X168290352Y-100332171D02*
X168366543Y-100294075D01*
X168366543Y-100294075D02*
X168518924Y-100294075D01*
X168518924Y-100294075D02*
X168595114Y-100332171D01*
X168595114Y-100332171D02*
X168633210Y-100370266D01*
X168633210Y-100370266D02*
X168671305Y-100446456D01*
X168671305Y-100446456D02*
X168671305Y-100598837D01*
X168671305Y-100598837D02*
X168633210Y-100675028D01*
X168633210Y-100675028D02*
X168595114Y-100713123D01*
X168595114Y-100713123D02*
X168518924Y-100751218D01*
X168518924Y-100751218D02*
X168366543Y-100751218D01*
X168366543Y-100751218D02*
X168290352Y-100713123D01*
X168290352Y-100713123D02*
X168252257Y-100675028D01*
X168252257Y-100675028D02*
X168214162Y-100598837D01*
X167871305Y-101017885D02*
X167871305Y-101551219D01*
X167871305Y-101551219D02*
X168671305Y-101208361D01*
X122314285Y-92962295D02*
X122580952Y-92581342D01*
X122771428Y-92962295D02*
X122771428Y-92162295D01*
X122771428Y-92162295D02*
X122466666Y-92162295D01*
X122466666Y-92162295D02*
X122390476Y-92200390D01*
X122390476Y-92200390D02*
X122352381Y-92238485D01*
X122352381Y-92238485D02*
X122314285Y-92314676D01*
X122314285Y-92314676D02*
X122314285Y-92428961D01*
X122314285Y-92428961D02*
X122352381Y-92505152D01*
X122352381Y-92505152D02*
X122390476Y-92543247D01*
X122390476Y-92543247D02*
X122466666Y-92581342D01*
X122466666Y-92581342D02*
X122771428Y-92581342D01*
X121590476Y-92162295D02*
X121971428Y-92162295D01*
X121971428Y-92162295D02*
X122009524Y-92543247D01*
X122009524Y-92543247D02*
X121971428Y-92505152D01*
X121971428Y-92505152D02*
X121895238Y-92467057D01*
X121895238Y-92467057D02*
X121704762Y-92467057D01*
X121704762Y-92467057D02*
X121628571Y-92505152D01*
X121628571Y-92505152D02*
X121590476Y-92543247D01*
X121590476Y-92543247D02*
X121552381Y-92619438D01*
X121552381Y-92619438D02*
X121552381Y-92809914D01*
X121552381Y-92809914D02*
X121590476Y-92886104D01*
X121590476Y-92886104D02*
X121628571Y-92924200D01*
X121628571Y-92924200D02*
X121704762Y-92962295D01*
X121704762Y-92962295D02*
X121895238Y-92962295D01*
X121895238Y-92962295D02*
X121971428Y-92924200D01*
X121971428Y-92924200D02*
X122009524Y-92886104D01*
X120790476Y-92962295D02*
X121247619Y-92962295D01*
X121019047Y-92962295D02*
X121019047Y-92162295D01*
X121019047Y-92162295D02*
X121095238Y-92276580D01*
X121095238Y-92276580D02*
X121171428Y-92352771D01*
X121171428Y-92352771D02*
X121247619Y-92390866D01*
X192076190Y-93788485D02*
X192152380Y-93750390D01*
X192152380Y-93750390D02*
X192228571Y-93674200D01*
X192228571Y-93674200D02*
X192342857Y-93559914D01*
X192342857Y-93559914D02*
X192419047Y-93521819D01*
X192419047Y-93521819D02*
X192495238Y-93521819D01*
X192457142Y-93712295D02*
X192533333Y-93674200D01*
X192533333Y-93674200D02*
X192609523Y-93598009D01*
X192609523Y-93598009D02*
X192647619Y-93445628D01*
X192647619Y-93445628D02*
X192647619Y-93178961D01*
X192647619Y-93178961D02*
X192609523Y-93026580D01*
X192609523Y-93026580D02*
X192533333Y-92950390D01*
X192533333Y-92950390D02*
X192457142Y-92912295D01*
X192457142Y-92912295D02*
X192304761Y-92912295D01*
X192304761Y-92912295D02*
X192228571Y-92950390D01*
X192228571Y-92950390D02*
X192152380Y-93026580D01*
X192152380Y-93026580D02*
X192114285Y-93178961D01*
X192114285Y-93178961D02*
X192114285Y-93445628D01*
X192114285Y-93445628D02*
X192152380Y-93598009D01*
X192152380Y-93598009D02*
X192228571Y-93674200D01*
X192228571Y-93674200D02*
X192304761Y-93712295D01*
X192304761Y-93712295D02*
X192457142Y-93712295D01*
X191733333Y-93712295D02*
X191580952Y-93712295D01*
X191580952Y-93712295D02*
X191504762Y-93674200D01*
X191504762Y-93674200D02*
X191466666Y-93636104D01*
X191466666Y-93636104D02*
X191390476Y-93521819D01*
X191390476Y-93521819D02*
X191352381Y-93369438D01*
X191352381Y-93369438D02*
X191352381Y-93064676D01*
X191352381Y-93064676D02*
X191390476Y-92988485D01*
X191390476Y-92988485D02*
X191428571Y-92950390D01*
X191428571Y-92950390D02*
X191504762Y-92912295D01*
X191504762Y-92912295D02*
X191657143Y-92912295D01*
X191657143Y-92912295D02*
X191733333Y-92950390D01*
X191733333Y-92950390D02*
X191771428Y-92988485D01*
X191771428Y-92988485D02*
X191809524Y-93064676D01*
X191809524Y-93064676D02*
X191809524Y-93255152D01*
X191809524Y-93255152D02*
X191771428Y-93331342D01*
X191771428Y-93331342D02*
X191733333Y-93369438D01*
X191733333Y-93369438D02*
X191657143Y-93407533D01*
X191657143Y-93407533D02*
X191504762Y-93407533D01*
X191504762Y-93407533D02*
X191428571Y-93369438D01*
X191428571Y-93369438D02*
X191390476Y-93331342D01*
X191390476Y-93331342D02*
X191352381Y-93255152D01*
X146936104Y-94785714D02*
X146974200Y-94747618D01*
X146974200Y-94747618D02*
X147012295Y-94633333D01*
X147012295Y-94633333D02*
X147012295Y-94557142D01*
X147012295Y-94557142D02*
X146974200Y-94442856D01*
X146974200Y-94442856D02*
X146898009Y-94366666D01*
X146898009Y-94366666D02*
X146821819Y-94328571D01*
X146821819Y-94328571D02*
X146669438Y-94290475D01*
X146669438Y-94290475D02*
X146555152Y-94290475D01*
X146555152Y-94290475D02*
X146402771Y-94328571D01*
X146402771Y-94328571D02*
X146326580Y-94366666D01*
X146326580Y-94366666D02*
X146250390Y-94442856D01*
X146250390Y-94442856D02*
X146212295Y-94557142D01*
X146212295Y-94557142D02*
X146212295Y-94633333D01*
X146212295Y-94633333D02*
X146250390Y-94747618D01*
X146250390Y-94747618D02*
X146288485Y-94785714D01*
X146212295Y-95052380D02*
X146212295Y-95585714D01*
X146212295Y-95585714D02*
X147012295Y-95242856D01*
X146212295Y-96042857D02*
X146212295Y-96119047D01*
X146212295Y-96119047D02*
X146250390Y-96195238D01*
X146250390Y-96195238D02*
X146288485Y-96233333D01*
X146288485Y-96233333D02*
X146364676Y-96271428D01*
X146364676Y-96271428D02*
X146517057Y-96309523D01*
X146517057Y-96309523D02*
X146707533Y-96309523D01*
X146707533Y-96309523D02*
X146859914Y-96271428D01*
X146859914Y-96271428D02*
X146936104Y-96233333D01*
X146936104Y-96233333D02*
X146974200Y-96195238D01*
X146974200Y-96195238D02*
X147012295Y-96119047D01*
X147012295Y-96119047D02*
X147012295Y-96042857D01*
X147012295Y-96042857D02*
X146974200Y-95966666D01*
X146974200Y-95966666D02*
X146936104Y-95928571D01*
X146936104Y-95928571D02*
X146859914Y-95890476D01*
X146859914Y-95890476D02*
X146707533Y-95852380D01*
X146707533Y-95852380D02*
X146517057Y-95852380D01*
X146517057Y-95852380D02*
X146364676Y-95890476D01*
X146364676Y-95890476D02*
X146288485Y-95928571D01*
X146288485Y-95928571D02*
X146250390Y-95966666D01*
X146250390Y-95966666D02*
X146212295Y-96042857D01*
X181764285Y-84362295D02*
X182030952Y-83981342D01*
X182221428Y-84362295D02*
X182221428Y-83562295D01*
X182221428Y-83562295D02*
X181916666Y-83562295D01*
X181916666Y-83562295D02*
X181840476Y-83600390D01*
X181840476Y-83600390D02*
X181802381Y-83638485D01*
X181802381Y-83638485D02*
X181764285Y-83714676D01*
X181764285Y-83714676D02*
X181764285Y-83828961D01*
X181764285Y-83828961D02*
X181802381Y-83905152D01*
X181802381Y-83905152D02*
X181840476Y-83943247D01*
X181840476Y-83943247D02*
X181916666Y-83981342D01*
X181916666Y-83981342D02*
X182221428Y-83981342D01*
X181459524Y-83638485D02*
X181421428Y-83600390D01*
X181421428Y-83600390D02*
X181345238Y-83562295D01*
X181345238Y-83562295D02*
X181154762Y-83562295D01*
X181154762Y-83562295D02*
X181078571Y-83600390D01*
X181078571Y-83600390D02*
X181040476Y-83638485D01*
X181040476Y-83638485D02*
X181002381Y-83714676D01*
X181002381Y-83714676D02*
X181002381Y-83790866D01*
X181002381Y-83790866D02*
X181040476Y-83905152D01*
X181040476Y-83905152D02*
X181497619Y-84362295D01*
X181497619Y-84362295D02*
X181002381Y-84362295D01*
X180545238Y-83905152D02*
X180621428Y-83867057D01*
X180621428Y-83867057D02*
X180659523Y-83828961D01*
X180659523Y-83828961D02*
X180697619Y-83752771D01*
X180697619Y-83752771D02*
X180697619Y-83714676D01*
X180697619Y-83714676D02*
X180659523Y-83638485D01*
X180659523Y-83638485D02*
X180621428Y-83600390D01*
X180621428Y-83600390D02*
X180545238Y-83562295D01*
X180545238Y-83562295D02*
X180392857Y-83562295D01*
X180392857Y-83562295D02*
X180316666Y-83600390D01*
X180316666Y-83600390D02*
X180278571Y-83638485D01*
X180278571Y-83638485D02*
X180240476Y-83714676D01*
X180240476Y-83714676D02*
X180240476Y-83752771D01*
X180240476Y-83752771D02*
X180278571Y-83828961D01*
X180278571Y-83828961D02*
X180316666Y-83867057D01*
X180316666Y-83867057D02*
X180392857Y-83905152D01*
X180392857Y-83905152D02*
X180545238Y-83905152D01*
X180545238Y-83905152D02*
X180621428Y-83943247D01*
X180621428Y-83943247D02*
X180659523Y-83981342D01*
X180659523Y-83981342D02*
X180697619Y-84057533D01*
X180697619Y-84057533D02*
X180697619Y-84209914D01*
X180697619Y-84209914D02*
X180659523Y-84286104D01*
X180659523Y-84286104D02*
X180621428Y-84324200D01*
X180621428Y-84324200D02*
X180545238Y-84362295D01*
X180545238Y-84362295D02*
X180392857Y-84362295D01*
X180392857Y-84362295D02*
X180316666Y-84324200D01*
X180316666Y-84324200D02*
X180278571Y-84286104D01*
X180278571Y-84286104D02*
X180240476Y-84209914D01*
X180240476Y-84209914D02*
X180240476Y-84057533D01*
X180240476Y-84057533D02*
X180278571Y-83981342D01*
X180278571Y-83981342D02*
X180316666Y-83943247D01*
X180316666Y-83943247D02*
X180392857Y-83905152D01*
X165936104Y-94835714D02*
X165974200Y-94797618D01*
X165974200Y-94797618D02*
X166012295Y-94683333D01*
X166012295Y-94683333D02*
X166012295Y-94607142D01*
X166012295Y-94607142D02*
X165974200Y-94492856D01*
X165974200Y-94492856D02*
X165898009Y-94416666D01*
X165898009Y-94416666D02*
X165821819Y-94378571D01*
X165821819Y-94378571D02*
X165669438Y-94340475D01*
X165669438Y-94340475D02*
X165555152Y-94340475D01*
X165555152Y-94340475D02*
X165402771Y-94378571D01*
X165402771Y-94378571D02*
X165326580Y-94416666D01*
X165326580Y-94416666D02*
X165250390Y-94492856D01*
X165250390Y-94492856D02*
X165212295Y-94607142D01*
X165212295Y-94607142D02*
X165212295Y-94683333D01*
X165212295Y-94683333D02*
X165250390Y-94797618D01*
X165250390Y-94797618D02*
X165288485Y-94835714D01*
X165212295Y-95102380D02*
X165212295Y-95635714D01*
X165212295Y-95635714D02*
X166012295Y-95292856D01*
X165212295Y-96321428D02*
X165212295Y-95940476D01*
X165212295Y-95940476D02*
X165593247Y-95902380D01*
X165593247Y-95902380D02*
X165555152Y-95940476D01*
X165555152Y-95940476D02*
X165517057Y-96016666D01*
X165517057Y-96016666D02*
X165517057Y-96207142D01*
X165517057Y-96207142D02*
X165555152Y-96283333D01*
X165555152Y-96283333D02*
X165593247Y-96321428D01*
X165593247Y-96321428D02*
X165669438Y-96359523D01*
X165669438Y-96359523D02*
X165859914Y-96359523D01*
X165859914Y-96359523D02*
X165936104Y-96321428D01*
X165936104Y-96321428D02*
X165974200Y-96283333D01*
X165974200Y-96283333D02*
X166012295Y-96207142D01*
X166012295Y-96207142D02*
X166012295Y-96016666D01*
X166012295Y-96016666D02*
X165974200Y-95940476D01*
X165974200Y-95940476D02*
X165936104Y-95902380D01*
X176816190Y-77705747D02*
X176892380Y-77667652D01*
X176892380Y-77667652D02*
X176968571Y-77591462D01*
X176968571Y-77591462D02*
X177082857Y-77477176D01*
X177082857Y-77477176D02*
X177159047Y-77439081D01*
X177159047Y-77439081D02*
X177235238Y-77439081D01*
X177197142Y-77629557D02*
X177273333Y-77591462D01*
X177273333Y-77591462D02*
X177349523Y-77515271D01*
X177349523Y-77515271D02*
X177387619Y-77362890D01*
X177387619Y-77362890D02*
X177387619Y-77096223D01*
X177387619Y-77096223D02*
X177349523Y-76943842D01*
X177349523Y-76943842D02*
X177273333Y-76867652D01*
X177273333Y-76867652D02*
X177197142Y-76829557D01*
X177197142Y-76829557D02*
X177044761Y-76829557D01*
X177044761Y-76829557D02*
X176968571Y-76867652D01*
X176968571Y-76867652D02*
X176892380Y-76943842D01*
X176892380Y-76943842D02*
X176854285Y-77096223D01*
X176854285Y-77096223D02*
X176854285Y-77362890D01*
X176854285Y-77362890D02*
X176892380Y-77515271D01*
X176892380Y-77515271D02*
X176968571Y-77591462D01*
X176968571Y-77591462D02*
X177044761Y-77629557D01*
X177044761Y-77629557D02*
X177197142Y-77629557D01*
X176168571Y-77096223D02*
X176168571Y-77629557D01*
X176359047Y-76791462D02*
X176549524Y-77362890D01*
X176549524Y-77362890D02*
X176054285Y-77362890D01*
X122464285Y-91212295D02*
X122730952Y-90831342D01*
X122921428Y-91212295D02*
X122921428Y-90412295D01*
X122921428Y-90412295D02*
X122616666Y-90412295D01*
X122616666Y-90412295D02*
X122540476Y-90450390D01*
X122540476Y-90450390D02*
X122502381Y-90488485D01*
X122502381Y-90488485D02*
X122464285Y-90564676D01*
X122464285Y-90564676D02*
X122464285Y-90678961D01*
X122464285Y-90678961D02*
X122502381Y-90755152D01*
X122502381Y-90755152D02*
X122540476Y-90793247D01*
X122540476Y-90793247D02*
X122616666Y-90831342D01*
X122616666Y-90831342D02*
X122921428Y-90831342D01*
X121740476Y-90412295D02*
X122121428Y-90412295D01*
X122121428Y-90412295D02*
X122159524Y-90793247D01*
X122159524Y-90793247D02*
X122121428Y-90755152D01*
X122121428Y-90755152D02*
X122045238Y-90717057D01*
X122045238Y-90717057D02*
X121854762Y-90717057D01*
X121854762Y-90717057D02*
X121778571Y-90755152D01*
X121778571Y-90755152D02*
X121740476Y-90793247D01*
X121740476Y-90793247D02*
X121702381Y-90869438D01*
X121702381Y-90869438D02*
X121702381Y-91059914D01*
X121702381Y-91059914D02*
X121740476Y-91136104D01*
X121740476Y-91136104D02*
X121778571Y-91174200D01*
X121778571Y-91174200D02*
X121854762Y-91212295D01*
X121854762Y-91212295D02*
X122045238Y-91212295D01*
X122045238Y-91212295D02*
X122121428Y-91174200D01*
X122121428Y-91174200D02*
X122159524Y-91136104D01*
X120978571Y-90412295D02*
X121359523Y-90412295D01*
X121359523Y-90412295D02*
X121397619Y-90793247D01*
X121397619Y-90793247D02*
X121359523Y-90755152D01*
X121359523Y-90755152D02*
X121283333Y-90717057D01*
X121283333Y-90717057D02*
X121092857Y-90717057D01*
X121092857Y-90717057D02*
X121016666Y-90755152D01*
X121016666Y-90755152D02*
X120978571Y-90793247D01*
X120978571Y-90793247D02*
X120940476Y-90869438D01*
X120940476Y-90869438D02*
X120940476Y-91059914D01*
X120940476Y-91059914D02*
X120978571Y-91136104D01*
X120978571Y-91136104D02*
X121016666Y-91174200D01*
X121016666Y-91174200D02*
X121092857Y-91212295D01*
X121092857Y-91212295D02*
X121283333Y-91212295D01*
X121283333Y-91212295D02*
X121359523Y-91174200D01*
X121359523Y-91174200D02*
X121397619Y-91136104D01*
X182164285Y-87732295D02*
X182430952Y-87351342D01*
X182621428Y-87732295D02*
X182621428Y-86932295D01*
X182621428Y-86932295D02*
X182316666Y-86932295D01*
X182316666Y-86932295D02*
X182240476Y-86970390D01*
X182240476Y-86970390D02*
X182202381Y-87008485D01*
X182202381Y-87008485D02*
X182164285Y-87084676D01*
X182164285Y-87084676D02*
X182164285Y-87198961D01*
X182164285Y-87198961D02*
X182202381Y-87275152D01*
X182202381Y-87275152D02*
X182240476Y-87313247D01*
X182240476Y-87313247D02*
X182316666Y-87351342D01*
X182316666Y-87351342D02*
X182621428Y-87351342D01*
X181897619Y-86932295D02*
X181402381Y-86932295D01*
X181402381Y-86932295D02*
X181669047Y-87237057D01*
X181669047Y-87237057D02*
X181554762Y-87237057D01*
X181554762Y-87237057D02*
X181478571Y-87275152D01*
X181478571Y-87275152D02*
X181440476Y-87313247D01*
X181440476Y-87313247D02*
X181402381Y-87389438D01*
X181402381Y-87389438D02*
X181402381Y-87579914D01*
X181402381Y-87579914D02*
X181440476Y-87656104D01*
X181440476Y-87656104D02*
X181478571Y-87694200D01*
X181478571Y-87694200D02*
X181554762Y-87732295D01*
X181554762Y-87732295D02*
X181783333Y-87732295D01*
X181783333Y-87732295D02*
X181859524Y-87694200D01*
X181859524Y-87694200D02*
X181897619Y-87656104D01*
X181135714Y-86932295D02*
X180602380Y-86932295D01*
X180602380Y-86932295D02*
X180945238Y-87732295D01*
X190114285Y-95766195D02*
X190380952Y-95385242D01*
X190571428Y-95766195D02*
X190571428Y-94966195D01*
X190571428Y-94966195D02*
X190266666Y-94966195D01*
X190266666Y-94966195D02*
X190190476Y-95004290D01*
X190190476Y-95004290D02*
X190152381Y-95042385D01*
X190152381Y-95042385D02*
X190114285Y-95118576D01*
X190114285Y-95118576D02*
X190114285Y-95232861D01*
X190114285Y-95232861D02*
X190152381Y-95309052D01*
X190152381Y-95309052D02*
X190190476Y-95347147D01*
X190190476Y-95347147D02*
X190266666Y-95385242D01*
X190266666Y-95385242D02*
X190571428Y-95385242D01*
X189428571Y-95232861D02*
X189428571Y-95766195D01*
X189619047Y-94928100D02*
X189809524Y-95499528D01*
X189809524Y-95499528D02*
X189314285Y-95499528D01*
X189085714Y-94966195D02*
X188590476Y-94966195D01*
X188590476Y-94966195D02*
X188857142Y-95270957D01*
X188857142Y-95270957D02*
X188742857Y-95270957D01*
X188742857Y-95270957D02*
X188666666Y-95309052D01*
X188666666Y-95309052D02*
X188628571Y-95347147D01*
X188628571Y-95347147D02*
X188590476Y-95423338D01*
X188590476Y-95423338D02*
X188590476Y-95613814D01*
X188590476Y-95613814D02*
X188628571Y-95690004D01*
X188628571Y-95690004D02*
X188666666Y-95728100D01*
X188666666Y-95728100D02*
X188742857Y-95766195D01*
X188742857Y-95766195D02*
X188971428Y-95766195D01*
X188971428Y-95766195D02*
X189047619Y-95728100D01*
X189047619Y-95728100D02*
X189085714Y-95690004D01*
X194214285Y-87982295D02*
X194480952Y-87601342D01*
X194671428Y-87982295D02*
X194671428Y-87182295D01*
X194671428Y-87182295D02*
X194366666Y-87182295D01*
X194366666Y-87182295D02*
X194290476Y-87220390D01*
X194290476Y-87220390D02*
X194252381Y-87258485D01*
X194252381Y-87258485D02*
X194214285Y-87334676D01*
X194214285Y-87334676D02*
X194214285Y-87448961D01*
X194214285Y-87448961D02*
X194252381Y-87525152D01*
X194252381Y-87525152D02*
X194290476Y-87563247D01*
X194290476Y-87563247D02*
X194366666Y-87601342D01*
X194366666Y-87601342D02*
X194671428Y-87601342D01*
X193528571Y-87448961D02*
X193528571Y-87982295D01*
X193719047Y-87144200D02*
X193909524Y-87715628D01*
X193909524Y-87715628D02*
X193414285Y-87715628D01*
X192957142Y-87182295D02*
X192880952Y-87182295D01*
X192880952Y-87182295D02*
X192804761Y-87220390D01*
X192804761Y-87220390D02*
X192766666Y-87258485D01*
X192766666Y-87258485D02*
X192728571Y-87334676D01*
X192728571Y-87334676D02*
X192690476Y-87487057D01*
X192690476Y-87487057D02*
X192690476Y-87677533D01*
X192690476Y-87677533D02*
X192728571Y-87829914D01*
X192728571Y-87829914D02*
X192766666Y-87906104D01*
X192766666Y-87906104D02*
X192804761Y-87944200D01*
X192804761Y-87944200D02*
X192880952Y-87982295D01*
X192880952Y-87982295D02*
X192957142Y-87982295D01*
X192957142Y-87982295D02*
X193033333Y-87944200D01*
X193033333Y-87944200D02*
X193071428Y-87906104D01*
X193071428Y-87906104D02*
X193109523Y-87829914D01*
X193109523Y-87829914D02*
X193147619Y-87677533D01*
X193147619Y-87677533D02*
X193147619Y-87487057D01*
X193147619Y-87487057D02*
X193109523Y-87334676D01*
X193109523Y-87334676D02*
X193071428Y-87258485D01*
X193071428Y-87258485D02*
X193033333Y-87220390D01*
X193033333Y-87220390D02*
X192957142Y-87182295D01*
X148595114Y-100189314D02*
X148633210Y-100151218D01*
X148633210Y-100151218D02*
X148671305Y-100036933D01*
X148671305Y-100036933D02*
X148671305Y-99960742D01*
X148671305Y-99960742D02*
X148633210Y-99846456D01*
X148633210Y-99846456D02*
X148557019Y-99770266D01*
X148557019Y-99770266D02*
X148480829Y-99732171D01*
X148480829Y-99732171D02*
X148328448Y-99694075D01*
X148328448Y-99694075D02*
X148214162Y-99694075D01*
X148214162Y-99694075D02*
X148061781Y-99732171D01*
X148061781Y-99732171D02*
X147985590Y-99770266D01*
X147985590Y-99770266D02*
X147909400Y-99846456D01*
X147909400Y-99846456D02*
X147871305Y-99960742D01*
X147871305Y-99960742D02*
X147871305Y-100036933D01*
X147871305Y-100036933D02*
X147909400Y-100151218D01*
X147909400Y-100151218D02*
X147947495Y-100189314D01*
X148214162Y-100646456D02*
X148176067Y-100570266D01*
X148176067Y-100570266D02*
X148137971Y-100532171D01*
X148137971Y-100532171D02*
X148061781Y-100494075D01*
X148061781Y-100494075D02*
X148023686Y-100494075D01*
X148023686Y-100494075D02*
X147947495Y-100532171D01*
X147947495Y-100532171D02*
X147909400Y-100570266D01*
X147909400Y-100570266D02*
X147871305Y-100646456D01*
X147871305Y-100646456D02*
X147871305Y-100798837D01*
X147871305Y-100798837D02*
X147909400Y-100875028D01*
X147909400Y-100875028D02*
X147947495Y-100913123D01*
X147947495Y-100913123D02*
X148023686Y-100951218D01*
X148023686Y-100951218D02*
X148061781Y-100951218D01*
X148061781Y-100951218D02*
X148137971Y-100913123D01*
X148137971Y-100913123D02*
X148176067Y-100875028D01*
X148176067Y-100875028D02*
X148214162Y-100798837D01*
X148214162Y-100798837D02*
X148214162Y-100646456D01*
X148214162Y-100646456D02*
X148252257Y-100570266D01*
X148252257Y-100570266D02*
X148290352Y-100532171D01*
X148290352Y-100532171D02*
X148366543Y-100494075D01*
X148366543Y-100494075D02*
X148518924Y-100494075D01*
X148518924Y-100494075D02*
X148595114Y-100532171D01*
X148595114Y-100532171D02*
X148633210Y-100570266D01*
X148633210Y-100570266D02*
X148671305Y-100646456D01*
X148671305Y-100646456D02*
X148671305Y-100798837D01*
X148671305Y-100798837D02*
X148633210Y-100875028D01*
X148633210Y-100875028D02*
X148595114Y-100913123D01*
X148595114Y-100913123D02*
X148518924Y-100951218D01*
X148518924Y-100951218D02*
X148366543Y-100951218D01*
X148366543Y-100951218D02*
X148290352Y-100913123D01*
X148290352Y-100913123D02*
X148252257Y-100875028D01*
X148252257Y-100875028D02*
X148214162Y-100798837D01*
X148214162Y-101408361D02*
X148176067Y-101332171D01*
X148176067Y-101332171D02*
X148137971Y-101294076D01*
X148137971Y-101294076D02*
X148061781Y-101255980D01*
X148061781Y-101255980D02*
X148023686Y-101255980D01*
X148023686Y-101255980D02*
X147947495Y-101294076D01*
X147947495Y-101294076D02*
X147909400Y-101332171D01*
X147909400Y-101332171D02*
X147871305Y-101408361D01*
X147871305Y-101408361D02*
X147871305Y-101560742D01*
X147871305Y-101560742D02*
X147909400Y-101636933D01*
X147909400Y-101636933D02*
X147947495Y-101675028D01*
X147947495Y-101675028D02*
X148023686Y-101713123D01*
X148023686Y-101713123D02*
X148061781Y-101713123D01*
X148061781Y-101713123D02*
X148137971Y-101675028D01*
X148137971Y-101675028D02*
X148176067Y-101636933D01*
X148176067Y-101636933D02*
X148214162Y-101560742D01*
X148214162Y-101560742D02*
X148214162Y-101408361D01*
X148214162Y-101408361D02*
X148252257Y-101332171D01*
X148252257Y-101332171D02*
X148290352Y-101294076D01*
X148290352Y-101294076D02*
X148366543Y-101255980D01*
X148366543Y-101255980D02*
X148518924Y-101255980D01*
X148518924Y-101255980D02*
X148595114Y-101294076D01*
X148595114Y-101294076D02*
X148633210Y-101332171D01*
X148633210Y-101332171D02*
X148671305Y-101408361D01*
X148671305Y-101408361D02*
X148671305Y-101560742D01*
X148671305Y-101560742D02*
X148633210Y-101636933D01*
X148633210Y-101636933D02*
X148595114Y-101675028D01*
X148595114Y-101675028D02*
X148518924Y-101713123D01*
X148518924Y-101713123D02*
X148366543Y-101713123D01*
X148366543Y-101713123D02*
X148290352Y-101675028D01*
X148290352Y-101675028D02*
X148252257Y-101636933D01*
X148252257Y-101636933D02*
X148214162Y-101560742D01*
X181364285Y-75162295D02*
X181630952Y-74781342D01*
X181821428Y-75162295D02*
X181821428Y-74362295D01*
X181821428Y-74362295D02*
X181516666Y-74362295D01*
X181516666Y-74362295D02*
X181440476Y-74400390D01*
X181440476Y-74400390D02*
X181402381Y-74438485D01*
X181402381Y-74438485D02*
X181364285Y-74514676D01*
X181364285Y-74514676D02*
X181364285Y-74628961D01*
X181364285Y-74628961D02*
X181402381Y-74705152D01*
X181402381Y-74705152D02*
X181440476Y-74743247D01*
X181440476Y-74743247D02*
X181516666Y-74781342D01*
X181516666Y-74781342D02*
X181821428Y-74781342D01*
X181097619Y-74362295D02*
X180602381Y-74362295D01*
X180602381Y-74362295D02*
X180869047Y-74667057D01*
X180869047Y-74667057D02*
X180754762Y-74667057D01*
X180754762Y-74667057D02*
X180678571Y-74705152D01*
X180678571Y-74705152D02*
X180640476Y-74743247D01*
X180640476Y-74743247D02*
X180602381Y-74819438D01*
X180602381Y-74819438D02*
X180602381Y-75009914D01*
X180602381Y-75009914D02*
X180640476Y-75086104D01*
X180640476Y-75086104D02*
X180678571Y-75124200D01*
X180678571Y-75124200D02*
X180754762Y-75162295D01*
X180754762Y-75162295D02*
X180983333Y-75162295D01*
X180983333Y-75162295D02*
X181059524Y-75124200D01*
X181059524Y-75124200D02*
X181097619Y-75086104D01*
X180107142Y-74362295D02*
X180030952Y-74362295D01*
X180030952Y-74362295D02*
X179954761Y-74400390D01*
X179954761Y-74400390D02*
X179916666Y-74438485D01*
X179916666Y-74438485D02*
X179878571Y-74514676D01*
X179878571Y-74514676D02*
X179840476Y-74667057D01*
X179840476Y-74667057D02*
X179840476Y-74857533D01*
X179840476Y-74857533D02*
X179878571Y-75009914D01*
X179878571Y-75009914D02*
X179916666Y-75086104D01*
X179916666Y-75086104D02*
X179954761Y-75124200D01*
X179954761Y-75124200D02*
X180030952Y-75162295D01*
X180030952Y-75162295D02*
X180107142Y-75162295D01*
X180107142Y-75162295D02*
X180183333Y-75124200D01*
X180183333Y-75124200D02*
X180221428Y-75086104D01*
X180221428Y-75086104D02*
X180259523Y-75009914D01*
X180259523Y-75009914D02*
X180297619Y-74857533D01*
X180297619Y-74857533D02*
X180297619Y-74667057D01*
X180297619Y-74667057D02*
X180259523Y-74514676D01*
X180259523Y-74514676D02*
X180221428Y-74438485D01*
X180221428Y-74438485D02*
X180183333Y-74400390D01*
X180183333Y-74400390D02*
X180107142Y-74362295D01*
X182114285Y-95766195D02*
X182380952Y-95385242D01*
X182571428Y-95766195D02*
X182571428Y-94966195D01*
X182571428Y-94966195D02*
X182266666Y-94966195D01*
X182266666Y-94966195D02*
X182190476Y-95004290D01*
X182190476Y-95004290D02*
X182152381Y-95042385D01*
X182152381Y-95042385D02*
X182114285Y-95118576D01*
X182114285Y-95118576D02*
X182114285Y-95232861D01*
X182114285Y-95232861D02*
X182152381Y-95309052D01*
X182152381Y-95309052D02*
X182190476Y-95347147D01*
X182190476Y-95347147D02*
X182266666Y-95385242D01*
X182266666Y-95385242D02*
X182571428Y-95385242D01*
X181847619Y-94966195D02*
X181352381Y-94966195D01*
X181352381Y-94966195D02*
X181619047Y-95270957D01*
X181619047Y-95270957D02*
X181504762Y-95270957D01*
X181504762Y-95270957D02*
X181428571Y-95309052D01*
X181428571Y-95309052D02*
X181390476Y-95347147D01*
X181390476Y-95347147D02*
X181352381Y-95423338D01*
X181352381Y-95423338D02*
X181352381Y-95613814D01*
X181352381Y-95613814D02*
X181390476Y-95690004D01*
X181390476Y-95690004D02*
X181428571Y-95728100D01*
X181428571Y-95728100D02*
X181504762Y-95766195D01*
X181504762Y-95766195D02*
X181733333Y-95766195D01*
X181733333Y-95766195D02*
X181809524Y-95728100D01*
X181809524Y-95728100D02*
X181847619Y-95690004D01*
X180971428Y-95766195D02*
X180819047Y-95766195D01*
X180819047Y-95766195D02*
X180742857Y-95728100D01*
X180742857Y-95728100D02*
X180704761Y-95690004D01*
X180704761Y-95690004D02*
X180628571Y-95575719D01*
X180628571Y-95575719D02*
X180590476Y-95423338D01*
X180590476Y-95423338D02*
X180590476Y-95118576D01*
X180590476Y-95118576D02*
X180628571Y-95042385D01*
X180628571Y-95042385D02*
X180666666Y-95004290D01*
X180666666Y-95004290D02*
X180742857Y-94966195D01*
X180742857Y-94966195D02*
X180895238Y-94966195D01*
X180895238Y-94966195D02*
X180971428Y-95004290D01*
X180971428Y-95004290D02*
X181009523Y-95042385D01*
X181009523Y-95042385D02*
X181047619Y-95118576D01*
X181047619Y-95118576D02*
X181047619Y-95309052D01*
X181047619Y-95309052D02*
X181009523Y-95385242D01*
X181009523Y-95385242D02*
X180971428Y-95423338D01*
X180971428Y-95423338D02*
X180895238Y-95461433D01*
X180895238Y-95461433D02*
X180742857Y-95461433D01*
X180742857Y-95461433D02*
X180666666Y-95423338D01*
X180666666Y-95423338D02*
X180628571Y-95385242D01*
X180628571Y-95385242D02*
X180590476Y-95309052D01*
X135545114Y-100339314D02*
X135583210Y-100301218D01*
X135583210Y-100301218D02*
X135621305Y-100186933D01*
X135621305Y-100186933D02*
X135621305Y-100110742D01*
X135621305Y-100110742D02*
X135583210Y-99996456D01*
X135583210Y-99996456D02*
X135507019Y-99920266D01*
X135507019Y-99920266D02*
X135430829Y-99882171D01*
X135430829Y-99882171D02*
X135278448Y-99844075D01*
X135278448Y-99844075D02*
X135164162Y-99844075D01*
X135164162Y-99844075D02*
X135011781Y-99882171D01*
X135011781Y-99882171D02*
X134935590Y-99920266D01*
X134935590Y-99920266D02*
X134859400Y-99996456D01*
X134859400Y-99996456D02*
X134821305Y-100110742D01*
X134821305Y-100110742D02*
X134821305Y-100186933D01*
X134821305Y-100186933D02*
X134859400Y-100301218D01*
X134859400Y-100301218D02*
X134897495Y-100339314D01*
X134821305Y-101025028D02*
X134821305Y-100872647D01*
X134821305Y-100872647D02*
X134859400Y-100796456D01*
X134859400Y-100796456D02*
X134897495Y-100758361D01*
X134897495Y-100758361D02*
X135011781Y-100682171D01*
X135011781Y-100682171D02*
X135164162Y-100644075D01*
X135164162Y-100644075D02*
X135468924Y-100644075D01*
X135468924Y-100644075D02*
X135545114Y-100682171D01*
X135545114Y-100682171D02*
X135583210Y-100720266D01*
X135583210Y-100720266D02*
X135621305Y-100796456D01*
X135621305Y-100796456D02*
X135621305Y-100948837D01*
X135621305Y-100948837D02*
X135583210Y-101025028D01*
X135583210Y-101025028D02*
X135545114Y-101063123D01*
X135545114Y-101063123D02*
X135468924Y-101101218D01*
X135468924Y-101101218D02*
X135278448Y-101101218D01*
X135278448Y-101101218D02*
X135202257Y-101063123D01*
X135202257Y-101063123D02*
X135164162Y-101025028D01*
X135164162Y-101025028D02*
X135126067Y-100948837D01*
X135126067Y-100948837D02*
X135126067Y-100796456D01*
X135126067Y-100796456D02*
X135164162Y-100720266D01*
X135164162Y-100720266D02*
X135202257Y-100682171D01*
X135202257Y-100682171D02*
X135278448Y-100644075D01*
X134821305Y-101596457D02*
X134821305Y-101672647D01*
X134821305Y-101672647D02*
X134859400Y-101748838D01*
X134859400Y-101748838D02*
X134897495Y-101786933D01*
X134897495Y-101786933D02*
X134973686Y-101825028D01*
X134973686Y-101825028D02*
X135126067Y-101863123D01*
X135126067Y-101863123D02*
X135316543Y-101863123D01*
X135316543Y-101863123D02*
X135468924Y-101825028D01*
X135468924Y-101825028D02*
X135545114Y-101786933D01*
X135545114Y-101786933D02*
X135583210Y-101748838D01*
X135583210Y-101748838D02*
X135621305Y-101672647D01*
X135621305Y-101672647D02*
X135621305Y-101596457D01*
X135621305Y-101596457D02*
X135583210Y-101520266D01*
X135583210Y-101520266D02*
X135545114Y-101482171D01*
X135545114Y-101482171D02*
X135468924Y-101444076D01*
X135468924Y-101444076D02*
X135316543Y-101405980D01*
X135316543Y-101405980D02*
X135126067Y-101405980D01*
X135126067Y-101405980D02*
X134973686Y-101444076D01*
X134973686Y-101444076D02*
X134897495Y-101482171D01*
X134897495Y-101482171D02*
X134859400Y-101520266D01*
X134859400Y-101520266D02*
X134821305Y-101596457D01*
X105464285Y-92912295D02*
X105730952Y-92531342D01*
X105921428Y-92912295D02*
X105921428Y-92112295D01*
X105921428Y-92112295D02*
X105616666Y-92112295D01*
X105616666Y-92112295D02*
X105540476Y-92150390D01*
X105540476Y-92150390D02*
X105502381Y-92188485D01*
X105502381Y-92188485D02*
X105464285Y-92264676D01*
X105464285Y-92264676D02*
X105464285Y-92378961D01*
X105464285Y-92378961D02*
X105502381Y-92455152D01*
X105502381Y-92455152D02*
X105540476Y-92493247D01*
X105540476Y-92493247D02*
X105616666Y-92531342D01*
X105616666Y-92531342D02*
X105921428Y-92531342D01*
X104740476Y-92112295D02*
X105121428Y-92112295D01*
X105121428Y-92112295D02*
X105159524Y-92493247D01*
X105159524Y-92493247D02*
X105121428Y-92455152D01*
X105121428Y-92455152D02*
X105045238Y-92417057D01*
X105045238Y-92417057D02*
X104854762Y-92417057D01*
X104854762Y-92417057D02*
X104778571Y-92455152D01*
X104778571Y-92455152D02*
X104740476Y-92493247D01*
X104740476Y-92493247D02*
X104702381Y-92569438D01*
X104702381Y-92569438D02*
X104702381Y-92759914D01*
X104702381Y-92759914D02*
X104740476Y-92836104D01*
X104740476Y-92836104D02*
X104778571Y-92874200D01*
X104778571Y-92874200D02*
X104854762Y-92912295D01*
X104854762Y-92912295D02*
X105045238Y-92912295D01*
X105045238Y-92912295D02*
X105121428Y-92874200D01*
X105121428Y-92874200D02*
X105159524Y-92836104D01*
X104207142Y-92112295D02*
X104130952Y-92112295D01*
X104130952Y-92112295D02*
X104054761Y-92150390D01*
X104054761Y-92150390D02*
X104016666Y-92188485D01*
X104016666Y-92188485D02*
X103978571Y-92264676D01*
X103978571Y-92264676D02*
X103940476Y-92417057D01*
X103940476Y-92417057D02*
X103940476Y-92607533D01*
X103940476Y-92607533D02*
X103978571Y-92759914D01*
X103978571Y-92759914D02*
X104016666Y-92836104D01*
X104016666Y-92836104D02*
X104054761Y-92874200D01*
X104054761Y-92874200D02*
X104130952Y-92912295D01*
X104130952Y-92912295D02*
X104207142Y-92912295D01*
X104207142Y-92912295D02*
X104283333Y-92874200D01*
X104283333Y-92874200D02*
X104321428Y-92836104D01*
X104321428Y-92836104D02*
X104359523Y-92759914D01*
X104359523Y-92759914D02*
X104397619Y-92607533D01*
X104397619Y-92607533D02*
X104397619Y-92417057D01*
X104397619Y-92417057D02*
X104359523Y-92264676D01*
X104359523Y-92264676D02*
X104321428Y-92188485D01*
X104321428Y-92188485D02*
X104283333Y-92150390D01*
X104283333Y-92150390D02*
X104207142Y-92112295D01*
X190776190Y-77925985D02*
X190852380Y-77887890D01*
X190852380Y-77887890D02*
X190928571Y-77811700D01*
X190928571Y-77811700D02*
X191042857Y-77697414D01*
X191042857Y-77697414D02*
X191119047Y-77659319D01*
X191119047Y-77659319D02*
X191195238Y-77659319D01*
X191157142Y-77849795D02*
X191233333Y-77811700D01*
X191233333Y-77811700D02*
X191309523Y-77735509D01*
X191309523Y-77735509D02*
X191347619Y-77583128D01*
X191347619Y-77583128D02*
X191347619Y-77316461D01*
X191347619Y-77316461D02*
X191309523Y-77164080D01*
X191309523Y-77164080D02*
X191233333Y-77087890D01*
X191233333Y-77087890D02*
X191157142Y-77049795D01*
X191157142Y-77049795D02*
X191004761Y-77049795D01*
X191004761Y-77049795D02*
X190928571Y-77087890D01*
X190928571Y-77087890D02*
X190852380Y-77164080D01*
X190852380Y-77164080D02*
X190814285Y-77316461D01*
X190814285Y-77316461D02*
X190814285Y-77583128D01*
X190814285Y-77583128D02*
X190852380Y-77735509D01*
X190852380Y-77735509D02*
X190928571Y-77811700D01*
X190928571Y-77811700D02*
X191004761Y-77849795D01*
X191004761Y-77849795D02*
X191157142Y-77849795D01*
X190509524Y-77125985D02*
X190471428Y-77087890D01*
X190471428Y-77087890D02*
X190395238Y-77049795D01*
X190395238Y-77049795D02*
X190204762Y-77049795D01*
X190204762Y-77049795D02*
X190128571Y-77087890D01*
X190128571Y-77087890D02*
X190090476Y-77125985D01*
X190090476Y-77125985D02*
X190052381Y-77202176D01*
X190052381Y-77202176D02*
X190052381Y-77278366D01*
X190052381Y-77278366D02*
X190090476Y-77392652D01*
X190090476Y-77392652D02*
X190547619Y-77849795D01*
X190547619Y-77849795D02*
X190052381Y-77849795D01*
X139064285Y-91162295D02*
X139330952Y-90781342D01*
X139521428Y-91162295D02*
X139521428Y-90362295D01*
X139521428Y-90362295D02*
X139216666Y-90362295D01*
X139216666Y-90362295D02*
X139140476Y-90400390D01*
X139140476Y-90400390D02*
X139102381Y-90438485D01*
X139102381Y-90438485D02*
X139064285Y-90514676D01*
X139064285Y-90514676D02*
X139064285Y-90628961D01*
X139064285Y-90628961D02*
X139102381Y-90705152D01*
X139102381Y-90705152D02*
X139140476Y-90743247D01*
X139140476Y-90743247D02*
X139216666Y-90781342D01*
X139216666Y-90781342D02*
X139521428Y-90781342D01*
X138378571Y-90362295D02*
X138530952Y-90362295D01*
X138530952Y-90362295D02*
X138607143Y-90400390D01*
X138607143Y-90400390D02*
X138645238Y-90438485D01*
X138645238Y-90438485D02*
X138721428Y-90552771D01*
X138721428Y-90552771D02*
X138759524Y-90705152D01*
X138759524Y-90705152D02*
X138759524Y-91009914D01*
X138759524Y-91009914D02*
X138721428Y-91086104D01*
X138721428Y-91086104D02*
X138683333Y-91124200D01*
X138683333Y-91124200D02*
X138607143Y-91162295D01*
X138607143Y-91162295D02*
X138454762Y-91162295D01*
X138454762Y-91162295D02*
X138378571Y-91124200D01*
X138378571Y-91124200D02*
X138340476Y-91086104D01*
X138340476Y-91086104D02*
X138302381Y-91009914D01*
X138302381Y-91009914D02*
X138302381Y-90819438D01*
X138302381Y-90819438D02*
X138340476Y-90743247D01*
X138340476Y-90743247D02*
X138378571Y-90705152D01*
X138378571Y-90705152D02*
X138454762Y-90667057D01*
X138454762Y-90667057D02*
X138607143Y-90667057D01*
X138607143Y-90667057D02*
X138683333Y-90705152D01*
X138683333Y-90705152D02*
X138721428Y-90743247D01*
X138721428Y-90743247D02*
X138759524Y-90819438D01*
X137616666Y-90362295D02*
X137769047Y-90362295D01*
X137769047Y-90362295D02*
X137845238Y-90400390D01*
X137845238Y-90400390D02*
X137883333Y-90438485D01*
X137883333Y-90438485D02*
X137959523Y-90552771D01*
X137959523Y-90552771D02*
X137997619Y-90705152D01*
X137997619Y-90705152D02*
X137997619Y-91009914D01*
X137997619Y-91009914D02*
X137959523Y-91086104D01*
X137959523Y-91086104D02*
X137921428Y-91124200D01*
X137921428Y-91124200D02*
X137845238Y-91162295D01*
X137845238Y-91162295D02*
X137692857Y-91162295D01*
X137692857Y-91162295D02*
X137616666Y-91124200D01*
X137616666Y-91124200D02*
X137578571Y-91086104D01*
X137578571Y-91086104D02*
X137540476Y-91009914D01*
X137540476Y-91009914D02*
X137540476Y-90819438D01*
X137540476Y-90819438D02*
X137578571Y-90743247D01*
X137578571Y-90743247D02*
X137616666Y-90705152D01*
X137616666Y-90705152D02*
X137692857Y-90667057D01*
X137692857Y-90667057D02*
X137845238Y-90667057D01*
X137845238Y-90667057D02*
X137921428Y-90705152D01*
X137921428Y-90705152D02*
X137959523Y-90743247D01*
X137959523Y-90743247D02*
X137997619Y-90819438D01*
X161826104Y-100085714D02*
X161864200Y-100047618D01*
X161864200Y-100047618D02*
X161902295Y-99933333D01*
X161902295Y-99933333D02*
X161902295Y-99857142D01*
X161902295Y-99857142D02*
X161864200Y-99742856D01*
X161864200Y-99742856D02*
X161788009Y-99666666D01*
X161788009Y-99666666D02*
X161711819Y-99628571D01*
X161711819Y-99628571D02*
X161559438Y-99590475D01*
X161559438Y-99590475D02*
X161445152Y-99590475D01*
X161445152Y-99590475D02*
X161292771Y-99628571D01*
X161292771Y-99628571D02*
X161216580Y-99666666D01*
X161216580Y-99666666D02*
X161140390Y-99742856D01*
X161140390Y-99742856D02*
X161102295Y-99857142D01*
X161102295Y-99857142D02*
X161102295Y-99933333D01*
X161102295Y-99933333D02*
X161140390Y-100047618D01*
X161140390Y-100047618D02*
X161178485Y-100085714D01*
X161902295Y-100466666D02*
X161902295Y-100619047D01*
X161902295Y-100619047D02*
X161864200Y-100695237D01*
X161864200Y-100695237D02*
X161826104Y-100733333D01*
X161826104Y-100733333D02*
X161711819Y-100809523D01*
X161711819Y-100809523D02*
X161559438Y-100847618D01*
X161559438Y-100847618D02*
X161254676Y-100847618D01*
X161254676Y-100847618D02*
X161178485Y-100809523D01*
X161178485Y-100809523D02*
X161140390Y-100771428D01*
X161140390Y-100771428D02*
X161102295Y-100695237D01*
X161102295Y-100695237D02*
X161102295Y-100542856D01*
X161102295Y-100542856D02*
X161140390Y-100466666D01*
X161140390Y-100466666D02*
X161178485Y-100428571D01*
X161178485Y-100428571D02*
X161254676Y-100390475D01*
X161254676Y-100390475D02*
X161445152Y-100390475D01*
X161445152Y-100390475D02*
X161521342Y-100428571D01*
X161521342Y-100428571D02*
X161559438Y-100466666D01*
X161559438Y-100466666D02*
X161597533Y-100542856D01*
X161597533Y-100542856D02*
X161597533Y-100695237D01*
X161597533Y-100695237D02*
X161559438Y-100771428D01*
X161559438Y-100771428D02*
X161521342Y-100809523D01*
X161521342Y-100809523D02*
X161445152Y-100847618D01*
X161102295Y-101114285D02*
X161102295Y-101609523D01*
X161102295Y-101609523D02*
X161407057Y-101342857D01*
X161407057Y-101342857D02*
X161407057Y-101457142D01*
X161407057Y-101457142D02*
X161445152Y-101533333D01*
X161445152Y-101533333D02*
X161483247Y-101571428D01*
X161483247Y-101571428D02*
X161559438Y-101609523D01*
X161559438Y-101609523D02*
X161749914Y-101609523D01*
X161749914Y-101609523D02*
X161826104Y-101571428D01*
X161826104Y-101571428D02*
X161864200Y-101533333D01*
X161864200Y-101533333D02*
X161902295Y-101457142D01*
X161902295Y-101457142D02*
X161902295Y-101228571D01*
X161902295Y-101228571D02*
X161864200Y-101152380D01*
X161864200Y-101152380D02*
X161826104Y-101114285D01*
X185926190Y-77788485D02*
X186002380Y-77750390D01*
X186002380Y-77750390D02*
X186078571Y-77674200D01*
X186078571Y-77674200D02*
X186192857Y-77559914D01*
X186192857Y-77559914D02*
X186269047Y-77521819D01*
X186269047Y-77521819D02*
X186345238Y-77521819D01*
X186307142Y-77712295D02*
X186383333Y-77674200D01*
X186383333Y-77674200D02*
X186459523Y-77598009D01*
X186459523Y-77598009D02*
X186497619Y-77445628D01*
X186497619Y-77445628D02*
X186497619Y-77178961D01*
X186497619Y-77178961D02*
X186459523Y-77026580D01*
X186459523Y-77026580D02*
X186383333Y-76950390D01*
X186383333Y-76950390D02*
X186307142Y-76912295D01*
X186307142Y-76912295D02*
X186154761Y-76912295D01*
X186154761Y-76912295D02*
X186078571Y-76950390D01*
X186078571Y-76950390D02*
X186002380Y-77026580D01*
X186002380Y-77026580D02*
X185964285Y-77178961D01*
X185964285Y-77178961D02*
X185964285Y-77445628D01*
X185964285Y-77445628D02*
X186002380Y-77598009D01*
X186002380Y-77598009D02*
X186078571Y-77674200D01*
X186078571Y-77674200D02*
X186154761Y-77712295D01*
X186154761Y-77712295D02*
X186307142Y-77712295D01*
X185697619Y-76912295D02*
X185202381Y-76912295D01*
X185202381Y-76912295D02*
X185469047Y-77217057D01*
X185469047Y-77217057D02*
X185354762Y-77217057D01*
X185354762Y-77217057D02*
X185278571Y-77255152D01*
X185278571Y-77255152D02*
X185240476Y-77293247D01*
X185240476Y-77293247D02*
X185202381Y-77369438D01*
X185202381Y-77369438D02*
X185202381Y-77559914D01*
X185202381Y-77559914D02*
X185240476Y-77636104D01*
X185240476Y-77636104D02*
X185278571Y-77674200D01*
X185278571Y-77674200D02*
X185354762Y-77712295D01*
X185354762Y-77712295D02*
X185583333Y-77712295D01*
X185583333Y-77712295D02*
X185659524Y-77674200D01*
X185659524Y-77674200D02*
X185697619Y-77636104D01*
X171614285Y-82512295D02*
X171880952Y-82131342D01*
X172071428Y-82512295D02*
X172071428Y-81712295D01*
X172071428Y-81712295D02*
X171766666Y-81712295D01*
X171766666Y-81712295D02*
X171690476Y-81750390D01*
X171690476Y-81750390D02*
X171652381Y-81788485D01*
X171652381Y-81788485D02*
X171614285Y-81864676D01*
X171614285Y-81864676D02*
X171614285Y-81978961D01*
X171614285Y-81978961D02*
X171652381Y-82055152D01*
X171652381Y-82055152D02*
X171690476Y-82093247D01*
X171690476Y-82093247D02*
X171766666Y-82131342D01*
X171766666Y-82131342D02*
X172071428Y-82131342D01*
X171309524Y-81788485D02*
X171271428Y-81750390D01*
X171271428Y-81750390D02*
X171195238Y-81712295D01*
X171195238Y-81712295D02*
X171004762Y-81712295D01*
X171004762Y-81712295D02*
X170928571Y-81750390D01*
X170928571Y-81750390D02*
X170890476Y-81788485D01*
X170890476Y-81788485D02*
X170852381Y-81864676D01*
X170852381Y-81864676D02*
X170852381Y-81940866D01*
X170852381Y-81940866D02*
X170890476Y-82055152D01*
X170890476Y-82055152D02*
X171347619Y-82512295D01*
X171347619Y-82512295D02*
X170852381Y-82512295D01*
X170471428Y-82512295D02*
X170319047Y-82512295D01*
X170319047Y-82512295D02*
X170242857Y-82474200D01*
X170242857Y-82474200D02*
X170204761Y-82436104D01*
X170204761Y-82436104D02*
X170128571Y-82321819D01*
X170128571Y-82321819D02*
X170090476Y-82169438D01*
X170090476Y-82169438D02*
X170090476Y-81864676D01*
X170090476Y-81864676D02*
X170128571Y-81788485D01*
X170128571Y-81788485D02*
X170166666Y-81750390D01*
X170166666Y-81750390D02*
X170242857Y-81712295D01*
X170242857Y-81712295D02*
X170395238Y-81712295D01*
X170395238Y-81712295D02*
X170471428Y-81750390D01*
X170471428Y-81750390D02*
X170509523Y-81788485D01*
X170509523Y-81788485D02*
X170547619Y-81864676D01*
X170547619Y-81864676D02*
X170547619Y-82055152D01*
X170547619Y-82055152D02*
X170509523Y-82131342D01*
X170509523Y-82131342D02*
X170471428Y-82169438D01*
X170471428Y-82169438D02*
X170395238Y-82207533D01*
X170395238Y-82207533D02*
X170242857Y-82207533D01*
X170242857Y-82207533D02*
X170166666Y-82169438D01*
X170166666Y-82169438D02*
X170128571Y-82131342D01*
X170128571Y-82131342D02*
X170090476Y-82055152D01*
X117370493Y-94836368D02*
X117408589Y-94798272D01*
X117408589Y-94798272D02*
X117446684Y-94683987D01*
X117446684Y-94683987D02*
X117446684Y-94607796D01*
X117446684Y-94607796D02*
X117408589Y-94493510D01*
X117408589Y-94493510D02*
X117332398Y-94417320D01*
X117332398Y-94417320D02*
X117256208Y-94379225D01*
X117256208Y-94379225D02*
X117103827Y-94341129D01*
X117103827Y-94341129D02*
X116989541Y-94341129D01*
X116989541Y-94341129D02*
X116837160Y-94379225D01*
X116837160Y-94379225D02*
X116760969Y-94417320D01*
X116760969Y-94417320D02*
X116684779Y-94493510D01*
X116684779Y-94493510D02*
X116646684Y-94607796D01*
X116646684Y-94607796D02*
X116646684Y-94683987D01*
X116646684Y-94683987D02*
X116684779Y-94798272D01*
X116684779Y-94798272D02*
X116722874Y-94836368D01*
X116913350Y-95522082D02*
X117446684Y-95522082D01*
X116608589Y-95331606D02*
X117180017Y-95141129D01*
X117180017Y-95141129D02*
X117180017Y-95636368D01*
X116646684Y-95864939D02*
X116646684Y-96360177D01*
X116646684Y-96360177D02*
X116951446Y-96093511D01*
X116951446Y-96093511D02*
X116951446Y-96207796D01*
X116951446Y-96207796D02*
X116989541Y-96283987D01*
X116989541Y-96283987D02*
X117027636Y-96322082D01*
X117027636Y-96322082D02*
X117103827Y-96360177D01*
X117103827Y-96360177D02*
X117294303Y-96360177D01*
X117294303Y-96360177D02*
X117370493Y-96322082D01*
X117370493Y-96322082D02*
X117408589Y-96283987D01*
X117408589Y-96283987D02*
X117446684Y-96207796D01*
X117446684Y-96207796D02*
X117446684Y-95979225D01*
X117446684Y-95979225D02*
X117408589Y-95903034D01*
X117408589Y-95903034D02*
X117370493Y-95864939D01*
X115445114Y-100489314D02*
X115483210Y-100451218D01*
X115483210Y-100451218D02*
X115521305Y-100336933D01*
X115521305Y-100336933D02*
X115521305Y-100260742D01*
X115521305Y-100260742D02*
X115483210Y-100146456D01*
X115483210Y-100146456D02*
X115407019Y-100070266D01*
X115407019Y-100070266D02*
X115330829Y-100032171D01*
X115330829Y-100032171D02*
X115178448Y-99994075D01*
X115178448Y-99994075D02*
X115064162Y-99994075D01*
X115064162Y-99994075D02*
X114911781Y-100032171D01*
X114911781Y-100032171D02*
X114835590Y-100070266D01*
X114835590Y-100070266D02*
X114759400Y-100146456D01*
X114759400Y-100146456D02*
X114721305Y-100260742D01*
X114721305Y-100260742D02*
X114721305Y-100336933D01*
X114721305Y-100336933D02*
X114759400Y-100451218D01*
X114759400Y-100451218D02*
X114797495Y-100489314D01*
X114721305Y-101175028D02*
X114721305Y-101022647D01*
X114721305Y-101022647D02*
X114759400Y-100946456D01*
X114759400Y-100946456D02*
X114797495Y-100908361D01*
X114797495Y-100908361D02*
X114911781Y-100832171D01*
X114911781Y-100832171D02*
X115064162Y-100794075D01*
X115064162Y-100794075D02*
X115368924Y-100794075D01*
X115368924Y-100794075D02*
X115445114Y-100832171D01*
X115445114Y-100832171D02*
X115483210Y-100870266D01*
X115483210Y-100870266D02*
X115521305Y-100946456D01*
X115521305Y-100946456D02*
X115521305Y-101098837D01*
X115521305Y-101098837D02*
X115483210Y-101175028D01*
X115483210Y-101175028D02*
X115445114Y-101213123D01*
X115445114Y-101213123D02*
X115368924Y-101251218D01*
X115368924Y-101251218D02*
X115178448Y-101251218D01*
X115178448Y-101251218D02*
X115102257Y-101213123D01*
X115102257Y-101213123D02*
X115064162Y-101175028D01*
X115064162Y-101175028D02*
X115026067Y-101098837D01*
X115026067Y-101098837D02*
X115026067Y-100946456D01*
X115026067Y-100946456D02*
X115064162Y-100870266D01*
X115064162Y-100870266D02*
X115102257Y-100832171D01*
X115102257Y-100832171D02*
X115178448Y-100794075D01*
X115521305Y-102013123D02*
X115521305Y-101555980D01*
X115521305Y-101784552D02*
X114721305Y-101784552D01*
X114721305Y-101784552D02*
X114835590Y-101708361D01*
X114835590Y-101708361D02*
X114911781Y-101632171D01*
X114911781Y-101632171D02*
X114949876Y-101555980D01*
X125026104Y-100085714D02*
X125064200Y-100047618D01*
X125064200Y-100047618D02*
X125102295Y-99933333D01*
X125102295Y-99933333D02*
X125102295Y-99857142D01*
X125102295Y-99857142D02*
X125064200Y-99742856D01*
X125064200Y-99742856D02*
X124988009Y-99666666D01*
X124988009Y-99666666D02*
X124911819Y-99628571D01*
X124911819Y-99628571D02*
X124759438Y-99590475D01*
X124759438Y-99590475D02*
X124645152Y-99590475D01*
X124645152Y-99590475D02*
X124492771Y-99628571D01*
X124492771Y-99628571D02*
X124416580Y-99666666D01*
X124416580Y-99666666D02*
X124340390Y-99742856D01*
X124340390Y-99742856D02*
X124302295Y-99857142D01*
X124302295Y-99857142D02*
X124302295Y-99933333D01*
X124302295Y-99933333D02*
X124340390Y-100047618D01*
X124340390Y-100047618D02*
X124378485Y-100085714D01*
X124302295Y-100771428D02*
X124302295Y-100619047D01*
X124302295Y-100619047D02*
X124340390Y-100542856D01*
X124340390Y-100542856D02*
X124378485Y-100504761D01*
X124378485Y-100504761D02*
X124492771Y-100428571D01*
X124492771Y-100428571D02*
X124645152Y-100390475D01*
X124645152Y-100390475D02*
X124949914Y-100390475D01*
X124949914Y-100390475D02*
X125026104Y-100428571D01*
X125026104Y-100428571D02*
X125064200Y-100466666D01*
X125064200Y-100466666D02*
X125102295Y-100542856D01*
X125102295Y-100542856D02*
X125102295Y-100695237D01*
X125102295Y-100695237D02*
X125064200Y-100771428D01*
X125064200Y-100771428D02*
X125026104Y-100809523D01*
X125026104Y-100809523D02*
X124949914Y-100847618D01*
X124949914Y-100847618D02*
X124759438Y-100847618D01*
X124759438Y-100847618D02*
X124683247Y-100809523D01*
X124683247Y-100809523D02*
X124645152Y-100771428D01*
X124645152Y-100771428D02*
X124607057Y-100695237D01*
X124607057Y-100695237D02*
X124607057Y-100542856D01*
X124607057Y-100542856D02*
X124645152Y-100466666D01*
X124645152Y-100466666D02*
X124683247Y-100428571D01*
X124683247Y-100428571D02*
X124759438Y-100390475D01*
X124568961Y-101533333D02*
X125102295Y-101533333D01*
X124264200Y-101342857D02*
X124835628Y-101152380D01*
X124835628Y-101152380D02*
X124835628Y-101647619D01*
X193164285Y-84712295D02*
X193430952Y-84331342D01*
X193621428Y-84712295D02*
X193621428Y-83912295D01*
X193621428Y-83912295D02*
X193316666Y-83912295D01*
X193316666Y-83912295D02*
X193240476Y-83950390D01*
X193240476Y-83950390D02*
X193202381Y-83988485D01*
X193202381Y-83988485D02*
X193164285Y-84064676D01*
X193164285Y-84064676D02*
X193164285Y-84178961D01*
X193164285Y-84178961D02*
X193202381Y-84255152D01*
X193202381Y-84255152D02*
X193240476Y-84293247D01*
X193240476Y-84293247D02*
X193316666Y-84331342D01*
X193316666Y-84331342D02*
X193621428Y-84331342D01*
X192402381Y-84712295D02*
X192859524Y-84712295D01*
X192630952Y-84712295D02*
X192630952Y-83912295D01*
X192630952Y-83912295D02*
X192707143Y-84026580D01*
X192707143Y-84026580D02*
X192783333Y-84102771D01*
X192783333Y-84102771D02*
X192859524Y-84140866D01*
X191945238Y-84255152D02*
X192021428Y-84217057D01*
X192021428Y-84217057D02*
X192059523Y-84178961D01*
X192059523Y-84178961D02*
X192097619Y-84102771D01*
X192097619Y-84102771D02*
X192097619Y-84064676D01*
X192097619Y-84064676D02*
X192059523Y-83988485D01*
X192059523Y-83988485D02*
X192021428Y-83950390D01*
X192021428Y-83950390D02*
X191945238Y-83912295D01*
X191945238Y-83912295D02*
X191792857Y-83912295D01*
X191792857Y-83912295D02*
X191716666Y-83950390D01*
X191716666Y-83950390D02*
X191678571Y-83988485D01*
X191678571Y-83988485D02*
X191640476Y-84064676D01*
X191640476Y-84064676D02*
X191640476Y-84102771D01*
X191640476Y-84102771D02*
X191678571Y-84178961D01*
X191678571Y-84178961D02*
X191716666Y-84217057D01*
X191716666Y-84217057D02*
X191792857Y-84255152D01*
X191792857Y-84255152D02*
X191945238Y-84255152D01*
X191945238Y-84255152D02*
X192021428Y-84293247D01*
X192021428Y-84293247D02*
X192059523Y-84331342D01*
X192059523Y-84331342D02*
X192097619Y-84407533D01*
X192097619Y-84407533D02*
X192097619Y-84559914D01*
X192097619Y-84559914D02*
X192059523Y-84636104D01*
X192059523Y-84636104D02*
X192021428Y-84674200D01*
X192021428Y-84674200D02*
X191945238Y-84712295D01*
X191945238Y-84712295D02*
X191792857Y-84712295D01*
X191792857Y-84712295D02*
X191716666Y-84674200D01*
X191716666Y-84674200D02*
X191678571Y-84636104D01*
X191678571Y-84636104D02*
X191640476Y-84559914D01*
X191640476Y-84559914D02*
X191640476Y-84407533D01*
X191640476Y-84407533D02*
X191678571Y-84331342D01*
X191678571Y-84331342D02*
X191716666Y-84293247D01*
X191716666Y-84293247D02*
X191792857Y-84255152D01*
X195126190Y-77888485D02*
X195202380Y-77850390D01*
X195202380Y-77850390D02*
X195278571Y-77774200D01*
X195278571Y-77774200D02*
X195392857Y-77659914D01*
X195392857Y-77659914D02*
X195469047Y-77621819D01*
X195469047Y-77621819D02*
X195545238Y-77621819D01*
X195507142Y-77812295D02*
X195583333Y-77774200D01*
X195583333Y-77774200D02*
X195659523Y-77698009D01*
X195659523Y-77698009D02*
X195697619Y-77545628D01*
X195697619Y-77545628D02*
X195697619Y-77278961D01*
X195697619Y-77278961D02*
X195659523Y-77126580D01*
X195659523Y-77126580D02*
X195583333Y-77050390D01*
X195583333Y-77050390D02*
X195507142Y-77012295D01*
X195507142Y-77012295D02*
X195354761Y-77012295D01*
X195354761Y-77012295D02*
X195278571Y-77050390D01*
X195278571Y-77050390D02*
X195202380Y-77126580D01*
X195202380Y-77126580D02*
X195164285Y-77278961D01*
X195164285Y-77278961D02*
X195164285Y-77545628D01*
X195164285Y-77545628D02*
X195202380Y-77698009D01*
X195202380Y-77698009D02*
X195278571Y-77774200D01*
X195278571Y-77774200D02*
X195354761Y-77812295D01*
X195354761Y-77812295D02*
X195507142Y-77812295D01*
X194402381Y-77812295D02*
X194859524Y-77812295D01*
X194630952Y-77812295D02*
X194630952Y-77012295D01*
X194630952Y-77012295D02*
X194707143Y-77126580D01*
X194707143Y-77126580D02*
X194783333Y-77202771D01*
X194783333Y-77202771D02*
X194859524Y-77240866D01*
X185414285Y-75212295D02*
X185680952Y-74831342D01*
X185871428Y-75212295D02*
X185871428Y-74412295D01*
X185871428Y-74412295D02*
X185566666Y-74412295D01*
X185566666Y-74412295D02*
X185490476Y-74450390D01*
X185490476Y-74450390D02*
X185452381Y-74488485D01*
X185452381Y-74488485D02*
X185414285Y-74564676D01*
X185414285Y-74564676D02*
X185414285Y-74678961D01*
X185414285Y-74678961D02*
X185452381Y-74755152D01*
X185452381Y-74755152D02*
X185490476Y-74793247D01*
X185490476Y-74793247D02*
X185566666Y-74831342D01*
X185566666Y-74831342D02*
X185871428Y-74831342D01*
X185109524Y-74488485D02*
X185071428Y-74450390D01*
X185071428Y-74450390D02*
X184995238Y-74412295D01*
X184995238Y-74412295D02*
X184804762Y-74412295D01*
X184804762Y-74412295D02*
X184728571Y-74450390D01*
X184728571Y-74450390D02*
X184690476Y-74488485D01*
X184690476Y-74488485D02*
X184652381Y-74564676D01*
X184652381Y-74564676D02*
X184652381Y-74640866D01*
X184652381Y-74640866D02*
X184690476Y-74755152D01*
X184690476Y-74755152D02*
X185147619Y-75212295D01*
X185147619Y-75212295D02*
X184652381Y-75212295D01*
X183966666Y-74678961D02*
X183966666Y-75212295D01*
X184157142Y-74374200D02*
X184347619Y-74945628D01*
X184347619Y-74945628D02*
X183852380Y-74945628D01*
X189364285Y-75212295D02*
X189630952Y-74831342D01*
X189821428Y-75212295D02*
X189821428Y-74412295D01*
X189821428Y-74412295D02*
X189516666Y-74412295D01*
X189516666Y-74412295D02*
X189440476Y-74450390D01*
X189440476Y-74450390D02*
X189402381Y-74488485D01*
X189402381Y-74488485D02*
X189364285Y-74564676D01*
X189364285Y-74564676D02*
X189364285Y-74678961D01*
X189364285Y-74678961D02*
X189402381Y-74755152D01*
X189402381Y-74755152D02*
X189440476Y-74793247D01*
X189440476Y-74793247D02*
X189516666Y-74831342D01*
X189516666Y-74831342D02*
X189821428Y-74831342D01*
X189059524Y-74488485D02*
X189021428Y-74450390D01*
X189021428Y-74450390D02*
X188945238Y-74412295D01*
X188945238Y-74412295D02*
X188754762Y-74412295D01*
X188754762Y-74412295D02*
X188678571Y-74450390D01*
X188678571Y-74450390D02*
X188640476Y-74488485D01*
X188640476Y-74488485D02*
X188602381Y-74564676D01*
X188602381Y-74564676D02*
X188602381Y-74640866D01*
X188602381Y-74640866D02*
X188640476Y-74755152D01*
X188640476Y-74755152D02*
X189097619Y-75212295D01*
X189097619Y-75212295D02*
X188602381Y-75212295D01*
X188335714Y-74412295D02*
X187840476Y-74412295D01*
X187840476Y-74412295D02*
X188107142Y-74717057D01*
X188107142Y-74717057D02*
X187992857Y-74717057D01*
X187992857Y-74717057D02*
X187916666Y-74755152D01*
X187916666Y-74755152D02*
X187878571Y-74793247D01*
X187878571Y-74793247D02*
X187840476Y-74869438D01*
X187840476Y-74869438D02*
X187840476Y-75059914D01*
X187840476Y-75059914D02*
X187878571Y-75136104D01*
X187878571Y-75136104D02*
X187916666Y-75174200D01*
X187916666Y-75174200D02*
X187992857Y-75212295D01*
X187992857Y-75212295D02*
X188221428Y-75212295D01*
X188221428Y-75212295D02*
X188297619Y-75174200D01*
X188297619Y-75174200D02*
X188335714Y-75136104D01*
X127467997Y-96981837D02*
X127506093Y-96943741D01*
X127506093Y-96943741D02*
X127544188Y-96829456D01*
X127544188Y-96829456D02*
X127544188Y-96753265D01*
X127544188Y-96753265D02*
X127506093Y-96638979D01*
X127506093Y-96638979D02*
X127429902Y-96562789D01*
X127429902Y-96562789D02*
X127353712Y-96524694D01*
X127353712Y-96524694D02*
X127201331Y-96486598D01*
X127201331Y-96486598D02*
X127087045Y-96486598D01*
X127087045Y-96486598D02*
X126934664Y-96524694D01*
X126934664Y-96524694D02*
X126858473Y-96562789D01*
X126858473Y-96562789D02*
X126782283Y-96638979D01*
X126782283Y-96638979D02*
X126744188Y-96753265D01*
X126744188Y-96753265D02*
X126744188Y-96829456D01*
X126744188Y-96829456D02*
X126782283Y-96943741D01*
X126782283Y-96943741D02*
X126820378Y-96981837D01*
X127010854Y-97667551D02*
X127544188Y-97667551D01*
X126706093Y-97477075D02*
X127277521Y-97286598D01*
X127277521Y-97286598D02*
X127277521Y-97781837D01*
X126744188Y-98010408D02*
X126744188Y-98543742D01*
X126744188Y-98543742D02*
X127544188Y-98200884D01*
X156514285Y-89512295D02*
X156780952Y-89131342D01*
X156971428Y-89512295D02*
X156971428Y-88712295D01*
X156971428Y-88712295D02*
X156666666Y-88712295D01*
X156666666Y-88712295D02*
X156590476Y-88750390D01*
X156590476Y-88750390D02*
X156552381Y-88788485D01*
X156552381Y-88788485D02*
X156514285Y-88864676D01*
X156514285Y-88864676D02*
X156514285Y-88978961D01*
X156514285Y-88978961D02*
X156552381Y-89055152D01*
X156552381Y-89055152D02*
X156590476Y-89093247D01*
X156590476Y-89093247D02*
X156666666Y-89131342D01*
X156666666Y-89131342D02*
X156971428Y-89131342D01*
X155828571Y-88712295D02*
X155980952Y-88712295D01*
X155980952Y-88712295D02*
X156057143Y-88750390D01*
X156057143Y-88750390D02*
X156095238Y-88788485D01*
X156095238Y-88788485D02*
X156171428Y-88902771D01*
X156171428Y-88902771D02*
X156209524Y-89055152D01*
X156209524Y-89055152D02*
X156209524Y-89359914D01*
X156209524Y-89359914D02*
X156171428Y-89436104D01*
X156171428Y-89436104D02*
X156133333Y-89474200D01*
X156133333Y-89474200D02*
X156057143Y-89512295D01*
X156057143Y-89512295D02*
X155904762Y-89512295D01*
X155904762Y-89512295D02*
X155828571Y-89474200D01*
X155828571Y-89474200D02*
X155790476Y-89436104D01*
X155790476Y-89436104D02*
X155752381Y-89359914D01*
X155752381Y-89359914D02*
X155752381Y-89169438D01*
X155752381Y-89169438D02*
X155790476Y-89093247D01*
X155790476Y-89093247D02*
X155828571Y-89055152D01*
X155828571Y-89055152D02*
X155904762Y-89017057D01*
X155904762Y-89017057D02*
X156057143Y-89017057D01*
X156057143Y-89017057D02*
X156133333Y-89055152D01*
X156133333Y-89055152D02*
X156171428Y-89093247D01*
X156171428Y-89093247D02*
X156209524Y-89169438D01*
X155028571Y-88712295D02*
X155409523Y-88712295D01*
X155409523Y-88712295D02*
X155447619Y-89093247D01*
X155447619Y-89093247D02*
X155409523Y-89055152D01*
X155409523Y-89055152D02*
X155333333Y-89017057D01*
X155333333Y-89017057D02*
X155142857Y-89017057D01*
X155142857Y-89017057D02*
X155066666Y-89055152D01*
X155066666Y-89055152D02*
X155028571Y-89093247D01*
X155028571Y-89093247D02*
X154990476Y-89169438D01*
X154990476Y-89169438D02*
X154990476Y-89359914D01*
X154990476Y-89359914D02*
X155028571Y-89436104D01*
X155028571Y-89436104D02*
X155066666Y-89474200D01*
X155066666Y-89474200D02*
X155142857Y-89512295D01*
X155142857Y-89512295D02*
X155333333Y-89512295D01*
X155333333Y-89512295D02*
X155409523Y-89474200D01*
X155409523Y-89474200D02*
X155447619Y-89436104D01*
X113633071Y-94881613D02*
X113671167Y-94843517D01*
X113671167Y-94843517D02*
X113709262Y-94729232D01*
X113709262Y-94729232D02*
X113709262Y-94653041D01*
X113709262Y-94653041D02*
X113671167Y-94538755D01*
X113671167Y-94538755D02*
X113594976Y-94462565D01*
X113594976Y-94462565D02*
X113518786Y-94424470D01*
X113518786Y-94424470D02*
X113366405Y-94386374D01*
X113366405Y-94386374D02*
X113252119Y-94386374D01*
X113252119Y-94386374D02*
X113099738Y-94424470D01*
X113099738Y-94424470D02*
X113023547Y-94462565D01*
X113023547Y-94462565D02*
X112947357Y-94538755D01*
X112947357Y-94538755D02*
X112909262Y-94653041D01*
X112909262Y-94653041D02*
X112909262Y-94729232D01*
X112909262Y-94729232D02*
X112947357Y-94843517D01*
X112947357Y-94843517D02*
X112985452Y-94881613D01*
X113175928Y-95567327D02*
X113709262Y-95567327D01*
X112871167Y-95376851D02*
X113442595Y-95186374D01*
X113442595Y-95186374D02*
X113442595Y-95681613D01*
X112985452Y-95948279D02*
X112947357Y-95986375D01*
X112947357Y-95986375D02*
X112909262Y-96062565D01*
X112909262Y-96062565D02*
X112909262Y-96253041D01*
X112909262Y-96253041D02*
X112947357Y-96329232D01*
X112947357Y-96329232D02*
X112985452Y-96367327D01*
X112985452Y-96367327D02*
X113061643Y-96405422D01*
X113061643Y-96405422D02*
X113137833Y-96405422D01*
X113137833Y-96405422D02*
X113252119Y-96367327D01*
X113252119Y-96367327D02*
X113709262Y-95910184D01*
X113709262Y-95910184D02*
X113709262Y-96405422D01*
X185414285Y-84732295D02*
X185680952Y-84351342D01*
X185871428Y-84732295D02*
X185871428Y-83932295D01*
X185871428Y-83932295D02*
X185566666Y-83932295D01*
X185566666Y-83932295D02*
X185490476Y-83970390D01*
X185490476Y-83970390D02*
X185452381Y-84008485D01*
X185452381Y-84008485D02*
X185414285Y-84084676D01*
X185414285Y-84084676D02*
X185414285Y-84198961D01*
X185414285Y-84198961D02*
X185452381Y-84275152D01*
X185452381Y-84275152D02*
X185490476Y-84313247D01*
X185490476Y-84313247D02*
X185566666Y-84351342D01*
X185566666Y-84351342D02*
X185871428Y-84351342D01*
X184652381Y-84732295D02*
X185109524Y-84732295D01*
X184880952Y-84732295D02*
X184880952Y-83932295D01*
X184880952Y-83932295D02*
X184957143Y-84046580D01*
X184957143Y-84046580D02*
X185033333Y-84122771D01*
X185033333Y-84122771D02*
X185109524Y-84160866D01*
X184271428Y-84732295D02*
X184119047Y-84732295D01*
X184119047Y-84732295D02*
X184042857Y-84694200D01*
X184042857Y-84694200D02*
X184004761Y-84656104D01*
X184004761Y-84656104D02*
X183928571Y-84541819D01*
X183928571Y-84541819D02*
X183890476Y-84389438D01*
X183890476Y-84389438D02*
X183890476Y-84084676D01*
X183890476Y-84084676D02*
X183928571Y-84008485D01*
X183928571Y-84008485D02*
X183966666Y-83970390D01*
X183966666Y-83970390D02*
X184042857Y-83932295D01*
X184042857Y-83932295D02*
X184195238Y-83932295D01*
X184195238Y-83932295D02*
X184271428Y-83970390D01*
X184271428Y-83970390D02*
X184309523Y-84008485D01*
X184309523Y-84008485D02*
X184347619Y-84084676D01*
X184347619Y-84084676D02*
X184347619Y-84275152D01*
X184347619Y-84275152D02*
X184309523Y-84351342D01*
X184309523Y-84351342D02*
X184271428Y-84389438D01*
X184271428Y-84389438D02*
X184195238Y-84427533D01*
X184195238Y-84427533D02*
X184042857Y-84427533D01*
X184042857Y-84427533D02*
X183966666Y-84389438D01*
X183966666Y-84389438D02*
X183928571Y-84351342D01*
X183928571Y-84351342D02*
X183890476Y-84275152D01*
D11*
%TO.C,C63*%
X108952000Y-100592164D02*
X108952000Y-100807836D01*
X109672000Y-100592164D02*
X109672000Y-100807836D01*
%TO.C,Q7*%
X183640000Y-89690000D02*
X183640000Y-91210000D01*
X183640000Y-91210000D02*
X183690000Y-91210000D01*
X184640000Y-89690000D02*
X183640000Y-89690000D01*
X184810000Y-91210000D02*
X185590000Y-91210000D01*
X186710000Y-91210000D02*
X186760000Y-91210000D01*
X186760000Y-89690000D02*
X185760000Y-89690000D01*
X186760000Y-91210000D02*
X186760000Y-89690000D01*
X185580000Y-91750000D02*
X185250000Y-91990000D01*
X185250000Y-91510000D01*
X185580000Y-91750000D01*
G36*
X185580000Y-91750000D02*
G01*
X185250000Y-91990000D01*
X185250000Y-91510000D01*
X185580000Y-91750000D01*
G37*
%TO.C,C44*%
X114949010Y-97531436D02*
X114949010Y-97315764D01*
X115669010Y-97531436D02*
X115669010Y-97315764D01*
%TO.C,C65*%
X112440000Y-100592164D02*
X112440000Y-100807836D01*
X113160000Y-100592164D02*
X113160000Y-100807836D01*
%TO.C,Q10*%
X187640000Y-89690000D02*
X187640000Y-91210000D01*
X187640000Y-91210000D02*
X187690000Y-91210000D01*
X188640000Y-89690000D02*
X187640000Y-89690000D01*
X188810000Y-91210000D02*
X189590000Y-91210000D01*
X190710000Y-91210000D02*
X190760000Y-91210000D01*
X190760000Y-89690000D02*
X189760000Y-89690000D01*
X190760000Y-91210000D02*
X190760000Y-89690000D01*
X189580000Y-91750000D02*
X189250000Y-91990000D01*
X189250000Y-91510000D01*
X189580000Y-91750000D01*
G36*
X189580000Y-91750000D02*
G01*
X189250000Y-91990000D01*
X189250000Y-91510000D01*
X189580000Y-91750000D01*
G37*
%TO.C,C76*%
X163440000Y-97531436D02*
X163440000Y-97315764D01*
X164160000Y-97531436D02*
X164160000Y-97315764D01*
%TO.C,C89*%
X165840000Y-100492164D02*
X165840000Y-100707836D01*
X166560000Y-100492164D02*
X166560000Y-100707836D01*
%TO.C,C72*%
X145049010Y-97531436D02*
X145049010Y-97315764D01*
X145769010Y-97531436D02*
X145769010Y-97315764D01*
%TO.C,R42*%
X193496359Y-93853900D02*
X193803641Y-93853900D01*
X193496359Y-94613900D02*
X193803641Y-94613900D01*
%TO.C,R21*%
X176603641Y-82807500D02*
X176296359Y-82807500D01*
X176603641Y-83567500D02*
X176296359Y-83567500D01*
%TO.C,Q8*%
X179640000Y-89690000D02*
X179640000Y-91210000D01*
X179640000Y-91210000D02*
X179690000Y-91210000D01*
X180640000Y-89690000D02*
X179640000Y-89690000D01*
X180810000Y-91210000D02*
X181590000Y-91210000D01*
X182710000Y-91210000D02*
X182760000Y-91210000D01*
X182760000Y-89690000D02*
X181760000Y-89690000D01*
X182760000Y-91210000D02*
X182760000Y-89690000D01*
X181580000Y-91750000D02*
X181250000Y-91990000D01*
X181250000Y-91510000D01*
X181580000Y-91750000D01*
G36*
X181580000Y-91750000D02*
G01*
X181250000Y-91990000D01*
X181250000Y-91510000D01*
X181580000Y-91750000D01*
G37*
%TO.C,C86*%
X152640000Y-100492164D02*
X152640000Y-100707836D01*
X153360000Y-100492164D02*
X153360000Y-100707836D01*
%TO.C,C90*%
X142240000Y-100492164D02*
X142240000Y-100707836D01*
X142960000Y-100492164D02*
X142960000Y-100707836D01*
%TO.C,C73*%
X149949010Y-97531436D02*
X149949010Y-97315764D01*
X150669010Y-97531436D02*
X150669010Y-97315764D01*
%TO.C,Q6*%
X171290000Y-79102500D02*
X171290000Y-80622500D01*
X171290000Y-80622500D02*
X172290000Y-80622500D01*
X171340000Y-79102500D02*
X171290000Y-79102500D01*
X173240000Y-79102500D02*
X172460000Y-79102500D01*
X173410000Y-80622500D02*
X174410000Y-80622500D01*
X174410000Y-79102500D02*
X174360000Y-79102500D01*
X174410000Y-80622500D02*
X174410000Y-79102500D01*
X172800000Y-78802500D02*
X172470000Y-78562500D01*
X172800000Y-78322500D01*
X172800000Y-78802500D01*
G36*
X172800000Y-78802500D02*
G01*
X172470000Y-78562500D01*
X172800000Y-78322500D01*
X172800000Y-78802500D01*
G37*
%TO.C,C92*%
X145640000Y-100492164D02*
X145640000Y-100707836D01*
X146360000Y-100492164D02*
X146360000Y-100707836D01*
%TO.C,R53*%
X124203641Y-88720000D02*
X123896359Y-88720000D01*
X124203641Y-89480000D02*
X123896359Y-89480000D01*
%TO.C,C45*%
X111499010Y-97531436D02*
X111499010Y-97315764D01*
X112219010Y-97531436D02*
X112219010Y-97315764D01*
%TO.C,C59*%
X119540000Y-100592164D02*
X119540000Y-100807836D01*
X120260000Y-100592164D02*
X120260000Y-100807836D01*
%TO.C,C91*%
X158740000Y-100492164D02*
X158740000Y-100707836D01*
X159460000Y-100492164D02*
X159460000Y-100707836D01*
%TO.C,R36*%
X185546359Y-86020000D02*
X185853641Y-86020000D01*
X185546359Y-86780000D02*
X185853641Y-86780000D01*
%TO.C,R64*%
X140853641Y-88220000D02*
X140546359Y-88220000D01*
X140853641Y-88980000D02*
X140546359Y-88980000D01*
%TO.C,Q5*%
X179733200Y-79105990D02*
X179733200Y-80625990D01*
X179733200Y-80625990D02*
X180733200Y-80625990D01*
X179783200Y-79105990D02*
X179733200Y-79105990D01*
X181683200Y-79105990D02*
X180903200Y-79105990D01*
X181853200Y-80625990D02*
X182853200Y-80625990D01*
X182853200Y-79105990D02*
X182803200Y-79105990D01*
X182853200Y-80625990D02*
X182853200Y-79105990D01*
X181243200Y-78805990D02*
X180913200Y-78565990D01*
X181243200Y-78325990D01*
X181243200Y-78805990D01*
G36*
X181243200Y-78805990D02*
G01*
X180913200Y-78565990D01*
X181243200Y-78325990D01*
X181243200Y-78805990D01*
G37*
%TO.C,C66*%
X128928000Y-100492164D02*
X128928000Y-100707836D01*
X129648000Y-100492164D02*
X129648000Y-100707836D01*
%TO.C,R26*%
X176696359Y-75431560D02*
X177003641Y-75431560D01*
X176696359Y-76191560D02*
X177003641Y-76191560D01*
%TO.C,R52*%
X106646359Y-87420000D02*
X106953641Y-87420000D01*
X106646359Y-88180000D02*
X106953641Y-88180000D01*
%TO.C,C48*%
X129799010Y-97531436D02*
X129799010Y-97315764D01*
X130519010Y-97531436D02*
X130519010Y-97315764D01*
%TO.C,C50*%
X133299010Y-97531436D02*
X133299010Y-97315764D01*
X134019010Y-97531436D02*
X134019010Y-97315764D01*
%TO.C,R22*%
X192546359Y-75720000D02*
X192853641Y-75720000D01*
X192546359Y-76480000D02*
X192853641Y-76480000D01*
%TO.C,C78*%
X161840000Y-97531436D02*
X161840000Y-97315764D01*
X162560000Y-97531436D02*
X162560000Y-97315764D01*
%TO.C,C71*%
X148149010Y-97531436D02*
X148149010Y-97315764D01*
X148869010Y-97531436D02*
X148869010Y-97315764D01*
%TO.C,R62*%
X140803641Y-92120000D02*
X140496359Y-92120000D01*
X140803641Y-92880000D02*
X140496359Y-92880000D01*
%TO.C,R63*%
X158253641Y-92620000D02*
X157946359Y-92620000D01*
X158253641Y-93380000D02*
X157946359Y-93380000D01*
%TO.C,R31*%
X172286359Y-75431560D02*
X172593641Y-75431560D01*
X172286359Y-76191560D02*
X172593641Y-76191560D01*
%TO.C,R38*%
X185396359Y-93853900D02*
X185703641Y-93853900D01*
X185396359Y-94613900D02*
X185703641Y-94613900D01*
%TO.C,C77*%
X166440000Y-97531436D02*
X166440000Y-97315764D01*
X167160000Y-97531436D02*
X167160000Y-97315764D01*
%TO.C,R67*%
X157946359Y-90520000D02*
X158253641Y-90520000D01*
X157946359Y-91280000D02*
X158253641Y-91280000D01*
%TO.C,R20*%
X188853641Y-82720000D02*
X188546359Y-82720000D01*
X188853641Y-83480000D02*
X188546359Y-83480000D01*
%TO.C,C49*%
X131299010Y-97531436D02*
X131299010Y-97315764D01*
X132019010Y-97531436D02*
X132019010Y-97315764D01*
%TO.C,R41*%
X189546359Y-86020000D02*
X189853641Y-86020000D01*
X189546359Y-86780000D02*
X189853641Y-86780000D01*
%TO.C,C62*%
X132540000Y-100492164D02*
X132540000Y-100707836D01*
X133260000Y-100492164D02*
X133260000Y-100707836D01*
%TO.C,R54*%
X106646359Y-89620000D02*
X106953641Y-89620000D01*
X106646359Y-90380000D02*
X106953641Y-90380000D01*
%TO.C,C87*%
X169328000Y-100492164D02*
X169328000Y-100707836D01*
X170048000Y-100492164D02*
X170048000Y-100707836D01*
%TO.C,R51*%
X124203641Y-92120000D02*
X123896359Y-92120000D01*
X124203641Y-92880000D02*
X123896359Y-92880000D01*
%TO.C,Q9*%
X191640000Y-89690000D02*
X191640000Y-91210000D01*
X191640000Y-91210000D02*
X191690000Y-91210000D01*
X192640000Y-89690000D02*
X191640000Y-89690000D01*
X192810000Y-91210000D02*
X193590000Y-91210000D01*
X194710000Y-91210000D02*
X194760000Y-91210000D01*
X194760000Y-89690000D02*
X193760000Y-89690000D01*
X194760000Y-91210000D02*
X194760000Y-89690000D01*
X193580000Y-91750000D02*
X193250000Y-91990000D01*
X193250000Y-91510000D01*
X193580000Y-91750000D01*
G36*
X193580000Y-91750000D02*
G01*
X193250000Y-91990000D01*
X193250000Y-91510000D01*
X193580000Y-91750000D01*
G37*
%TO.C,C70*%
X146749010Y-97531436D02*
X146749010Y-97315764D01*
X147469010Y-97531436D02*
X147469010Y-97315764D01*
%TO.C,R28*%
X181696359Y-82520000D02*
X182003641Y-82520000D01*
X181696359Y-83280000D02*
X182003641Y-83280000D01*
%TO.C,C75*%
X165040000Y-97531436D02*
X165040000Y-97315764D01*
X165760000Y-97531436D02*
X165760000Y-97315764D01*
%TO.C,Q4*%
X175740000Y-79102500D02*
X175740000Y-80622500D01*
X175740000Y-80622500D02*
X176740000Y-80622500D01*
X175790000Y-79102500D02*
X175740000Y-79102500D01*
X177690000Y-79102500D02*
X176910000Y-79102500D01*
X177860000Y-80622500D02*
X178860000Y-80622500D01*
X178860000Y-79102500D02*
X178810000Y-79102500D01*
X178860000Y-80622500D02*
X178860000Y-79102500D01*
X177250000Y-78802500D02*
X176920000Y-78562500D01*
X177250000Y-78322500D01*
X177250000Y-78802500D01*
G36*
X177250000Y-78802500D02*
G01*
X176920000Y-78562500D01*
X177250000Y-78322500D01*
X177250000Y-78802500D01*
G37*
%TO.C,R55*%
X124203641Y-90320000D02*
X123896359Y-90320000D01*
X124203641Y-91080000D02*
X123896359Y-91080000D01*
%TO.C,R37*%
X181496359Y-85820000D02*
X181803641Y-85820000D01*
X181496359Y-86580000D02*
X181803641Y-86580000D01*
%TO.C,R43*%
X189446359Y-93853900D02*
X189753641Y-93853900D01*
X189446359Y-94613900D02*
X189753641Y-94613900D01*
%TO.C,R40*%
X193546359Y-86070000D02*
X193853641Y-86070000D01*
X193546359Y-86830000D02*
X193853641Y-86830000D01*
%TO.C,C88*%
X149140000Y-100492164D02*
X149140000Y-100707836D01*
X149860000Y-100492164D02*
X149860000Y-100707836D01*
%TO.C,R30*%
X180646359Y-75431560D02*
X180953641Y-75431560D01*
X180646359Y-76191560D02*
X180953641Y-76191560D01*
%TO.C,R39*%
X181446359Y-93853900D02*
X181753641Y-93853900D01*
X181446359Y-94613900D02*
X181753641Y-94613900D01*
%TO.C,C60*%
X136040000Y-100492164D02*
X136040000Y-100707836D01*
X136760000Y-100492164D02*
X136760000Y-100707836D01*
%TO.C,R50*%
X107303641Y-92170000D02*
X106996359Y-92170000D01*
X107303641Y-92930000D02*
X106996359Y-92930000D01*
%TO.C,Q2*%
X187640000Y-79290000D02*
X187640000Y-80810000D01*
X187640000Y-80810000D02*
X188640000Y-80810000D01*
X187690000Y-79290000D02*
X187640000Y-79290000D01*
X189590000Y-79290000D02*
X188810000Y-79290000D01*
X189760000Y-80810000D02*
X190760000Y-80810000D01*
X190760000Y-79290000D02*
X190710000Y-79290000D01*
X190760000Y-80810000D02*
X190760000Y-79290000D01*
X189150000Y-78990000D02*
X188820000Y-78750000D01*
X189150000Y-78510000D01*
X189150000Y-78990000D01*
G36*
X189150000Y-78990000D02*
G01*
X188820000Y-78750000D01*
X189150000Y-78510000D01*
X189150000Y-78990000D01*
G37*
%TO.C,R66*%
X140853641Y-90370000D02*
X140546359Y-90370000D01*
X140853641Y-91130000D02*
X140546359Y-91130000D01*
%TO.C,C93*%
X162340000Y-100492164D02*
X162340000Y-100707836D01*
X163060000Y-100492164D02*
X163060000Y-100707836D01*
%TO.C,Q3*%
X183740000Y-79190000D02*
X183740000Y-80710000D01*
X183740000Y-80710000D02*
X184740000Y-80710000D01*
X183790000Y-79190000D02*
X183740000Y-79190000D01*
X185690000Y-79190000D02*
X184910000Y-79190000D01*
X185860000Y-80710000D02*
X186860000Y-80710000D01*
X186860000Y-79190000D02*
X186810000Y-79190000D01*
X186860000Y-80710000D02*
X186860000Y-79190000D01*
X185250000Y-78890000D02*
X184920000Y-78650000D01*
X185250000Y-78410000D01*
X185250000Y-78890000D01*
G36*
X185250000Y-78890000D02*
G01*
X184920000Y-78650000D01*
X185250000Y-78410000D01*
X185250000Y-78890000D01*
G37*
%TO.C,R29*%
X172493641Y-82807500D02*
X172186359Y-82807500D01*
X172493641Y-83567500D02*
X172186359Y-83567500D01*
%TO.C,C43*%
X116749010Y-97531436D02*
X116749010Y-97315764D01*
X117469010Y-97531436D02*
X117469010Y-97315764D01*
%TO.C,C61*%
X115940000Y-100592164D02*
X115940000Y-100807836D01*
X116660000Y-100592164D02*
X116660000Y-100807836D01*
%TO.C,C64*%
X125540000Y-100492164D02*
X125540000Y-100707836D01*
X126260000Y-100492164D02*
X126260000Y-100707836D01*
%TO.C,R18*%
X192853641Y-82720000D02*
X192546359Y-82720000D01*
X192853641Y-83480000D02*
X192546359Y-83480000D01*
%TO.C,Q1*%
X191640000Y-79327500D02*
X191640000Y-80847500D01*
X191640000Y-80847500D02*
X192640000Y-80847500D01*
X191690000Y-79327500D02*
X191640000Y-79327500D01*
X193590000Y-79327500D02*
X192810000Y-79327500D01*
X193760000Y-80847500D02*
X194760000Y-80847500D01*
X194760000Y-79327500D02*
X194710000Y-79327500D01*
X194760000Y-80847500D02*
X194760000Y-79327500D01*
X193150000Y-79027500D02*
X192820000Y-78787500D01*
X193150000Y-78547500D01*
X193150000Y-79027500D01*
G36*
X193150000Y-79027500D02*
G01*
X192820000Y-78787500D01*
X193150000Y-78547500D01*
X193150000Y-79027500D01*
G37*
%TO.C,R24*%
X184746359Y-75494060D02*
X185053641Y-75494060D01*
X184746359Y-76254060D02*
X185053641Y-76254060D01*
%TO.C,R23*%
X188646359Y-75594060D02*
X188953641Y-75594060D01*
X188646359Y-76354060D02*
X188953641Y-76354060D01*
%TO.C,C47*%
X127899010Y-97531436D02*
X127899010Y-97315764D01*
X128619010Y-97531436D02*
X128619010Y-97315764D01*
%TO.C,R65*%
X157946359Y-88870000D02*
X158253641Y-88870000D01*
X157946359Y-89630000D02*
X158253641Y-89630000D01*
%TO.C,C42*%
X113199010Y-97531436D02*
X113199010Y-97315764D01*
X113919010Y-97531436D02*
X113919010Y-97315764D01*
%TO.C,R19*%
X184746359Y-82820000D02*
X185053641Y-82820000D01*
X184746359Y-83580000D02*
X185053641Y-83580000D01*
%TD*%
%LPC*%
D12*
%TO.C,J3*%
X140095000Y-35332500D03*
D13*
X136595000Y-35332500D03*
%TD*%
D14*
%TO.C,C69*%
X138659010Y-96603600D03*
D15*
X138659010Y-99103600D03*
%TD*%
D14*
%TO.C,C51*%
X100780000Y-91820000D03*
D15*
X100780000Y-94320000D03*
%TD*%
D14*
%TO.C,C74*%
X156109010Y-96803600D03*
D15*
X156109010Y-99303600D03*
%TD*%
D16*
%TO.C,U4*%
X109305000Y-104267500D03*
D13*
X112805000Y-104267500D03*
X116305000Y-104267500D03*
X119805000Y-104267500D03*
%TD*%
D15*
%TO.C,CLKIN1*%
X166753600Y-34151600D03*
X166753600Y-41151600D03*
%TD*%
D16*
%TO.C,U13*%
X159103900Y-104263900D03*
D13*
X162603900Y-104263900D03*
X166103900Y-104263900D03*
X169603900Y-104263900D03*
%TD*%
D16*
%TO.C,U8*%
X125903900Y-104263900D03*
D13*
X129403900Y-104263900D03*
X132903900Y-104263900D03*
X136403900Y-104263900D03*
%TD*%
D17*
%TO.C,VEE_TP1*%
X91500000Y-46400000D03*
%TD*%
D15*
%TO.C,CLKOUT1*%
X154253600Y-34151600D03*
X154253600Y-41151600D03*
%TD*%
D17*
%TO.C,GND_TP1*%
X177159010Y-55603600D03*
%TD*%
%TO.C,+5V_TP1*%
X101050000Y-87000000D03*
%TD*%
D14*
%TO.C,C46*%
X121609010Y-96771221D03*
D15*
X121609010Y-99271221D03*
%TD*%
D12*
%TO.C,J1*%
X97593900Y-35332500D03*
D13*
X94093900Y-35332500D03*
%TD*%
D17*
%TO.C,GND_TP2*%
X128450000Y-43300000D03*
%TD*%
%TO.C,+3V3_TP1*%
X107750000Y-70150000D03*
%TD*%
D18*
%TO.C,J2*%
X195870000Y-35080000D03*
X190090000Y-35080000D03*
D19*
X197300000Y-35580000D03*
D20*
X197300000Y-31400000D03*
D19*
X188660000Y-35580000D03*
D20*
X188660000Y-31400000D03*
%TD*%
D21*
%TO.C,PDI1*%
X119290990Y-55074600D03*
D22*
X119290990Y-57614600D03*
X116750990Y-55074600D03*
X116750990Y-57614600D03*
X114210990Y-55074600D03*
X114210990Y-57614600D03*
%TD*%
D16*
%TO.C,U10*%
X142503900Y-104267500D03*
D13*
X146003900Y-104267500D03*
X149503900Y-104267500D03*
X153003900Y-104267500D03*
%TD*%
D23*
%TO.C,C63*%
X109312000Y-100220000D03*
X109312000Y-101180000D03*
%TD*%
D24*
%TO.C,Q7*%
X186150000Y-91387500D03*
X184250000Y-91387500D03*
X185200000Y-89512500D03*
%TD*%
D25*
%TO.C,C44*%
X115309010Y-97903600D03*
X115309010Y-96943600D03*
%TD*%
D23*
%TO.C,C65*%
X112800000Y-100220000D03*
X112800000Y-101180000D03*
%TD*%
D24*
%TO.C,Q10*%
X190150000Y-91387500D03*
X188250000Y-91387500D03*
X189200000Y-89512500D03*
%TD*%
D25*
%TO.C,C76*%
X163800000Y-97903600D03*
X163800000Y-96943600D03*
%TD*%
D23*
%TO.C,C89*%
X166200000Y-100120000D03*
X166200000Y-101080000D03*
%TD*%
D25*
%TO.C,C72*%
X145409010Y-97903600D03*
X145409010Y-96943600D03*
%TD*%
D26*
%TO.C,R42*%
X193140000Y-94233900D03*
X194160000Y-94233900D03*
%TD*%
D27*
%TO.C,R21*%
X176960000Y-83187500D03*
X175940000Y-83187500D03*
%TD*%
D24*
%TO.C,Q8*%
X182150000Y-91387500D03*
X180250000Y-91387500D03*
X181200000Y-89512500D03*
%TD*%
D23*
%TO.C,C86*%
X153000000Y-100120000D03*
X153000000Y-101080000D03*
%TD*%
%TO.C,C90*%
X142600000Y-100120000D03*
X142600000Y-101080000D03*
%TD*%
D25*
%TO.C,C73*%
X150309010Y-97903600D03*
X150309010Y-96943600D03*
%TD*%
D28*
%TO.C,Q6*%
X171900000Y-78925000D03*
X173800000Y-78925000D03*
X172850000Y-80800000D03*
%TD*%
D23*
%TO.C,C92*%
X146000000Y-100120000D03*
X146000000Y-101080000D03*
%TD*%
D27*
%TO.C,R53*%
X124560000Y-89100000D03*
X123540000Y-89100000D03*
%TD*%
D25*
%TO.C,C45*%
X111859010Y-97903600D03*
X111859010Y-96943600D03*
%TD*%
D23*
%TO.C,C59*%
X119900000Y-100220000D03*
X119900000Y-101180000D03*
%TD*%
%TO.C,C91*%
X159100000Y-100120000D03*
X159100000Y-101080000D03*
%TD*%
D26*
%TO.C,R36*%
X185190000Y-86400000D03*
X186210000Y-86400000D03*
%TD*%
D27*
%TO.C,R64*%
X141210000Y-88600000D03*
X140190000Y-88600000D03*
%TD*%
D28*
%TO.C,Q5*%
X180343200Y-78928490D03*
X182243200Y-78928490D03*
X181293200Y-80803490D03*
%TD*%
D23*
%TO.C,C66*%
X129288000Y-100120000D03*
X129288000Y-101080000D03*
%TD*%
D26*
%TO.C,R26*%
X176340000Y-75811560D03*
X177360000Y-75811560D03*
%TD*%
%TO.C,R52*%
X106290000Y-87800000D03*
X107310000Y-87800000D03*
%TD*%
D25*
%TO.C,C48*%
X130159010Y-97903600D03*
X130159010Y-96943600D03*
%TD*%
%TO.C,C50*%
X133659010Y-97903600D03*
X133659010Y-96943600D03*
%TD*%
D26*
%TO.C,R22*%
X192190000Y-76100000D03*
X193210000Y-76100000D03*
%TD*%
D25*
%TO.C,C78*%
X162200000Y-97903600D03*
X162200000Y-96943600D03*
%TD*%
%TO.C,C71*%
X148509010Y-97903600D03*
X148509010Y-96943600D03*
%TD*%
D27*
%TO.C,R62*%
X141160000Y-92500000D03*
X140140000Y-92500000D03*
%TD*%
%TO.C,R63*%
X158610000Y-93000000D03*
X157590000Y-93000000D03*
%TD*%
D26*
%TO.C,R31*%
X171930000Y-75811560D03*
X172950000Y-75811560D03*
%TD*%
%TO.C,R38*%
X185040000Y-94233900D03*
X186060000Y-94233900D03*
%TD*%
D25*
%TO.C,C77*%
X166800000Y-97903600D03*
X166800000Y-96943600D03*
%TD*%
D26*
%TO.C,R67*%
X157590000Y-90900000D03*
X158610000Y-90900000D03*
%TD*%
D27*
%TO.C,R20*%
X189210000Y-83100000D03*
X188190000Y-83100000D03*
%TD*%
D25*
%TO.C,C49*%
X131659010Y-97903600D03*
X131659010Y-96943600D03*
%TD*%
D26*
%TO.C,R41*%
X189190000Y-86400000D03*
X190210000Y-86400000D03*
%TD*%
D23*
%TO.C,C62*%
X132900000Y-100120000D03*
X132900000Y-101080000D03*
%TD*%
D26*
%TO.C,R54*%
X106290000Y-90000000D03*
X107310000Y-90000000D03*
%TD*%
D23*
%TO.C,C87*%
X169688000Y-100120000D03*
X169688000Y-101080000D03*
%TD*%
D27*
%TO.C,R51*%
X124560000Y-92500000D03*
X123540000Y-92500000D03*
%TD*%
D24*
%TO.C,Q9*%
X194150000Y-91387500D03*
X192250000Y-91387500D03*
X193200000Y-89512500D03*
%TD*%
D25*
%TO.C,C70*%
X147109010Y-97903600D03*
X147109010Y-96943600D03*
%TD*%
D26*
%TO.C,R28*%
X181340000Y-82900000D03*
X182360000Y-82900000D03*
%TD*%
D25*
%TO.C,C75*%
X165400000Y-97903600D03*
X165400000Y-96943600D03*
%TD*%
D28*
%TO.C,Q4*%
X176350000Y-78925000D03*
X178250000Y-78925000D03*
X177300000Y-80800000D03*
%TD*%
D27*
%TO.C,R55*%
X124560000Y-90700000D03*
X123540000Y-90700000D03*
%TD*%
D26*
%TO.C,R37*%
X181140000Y-86200000D03*
X182160000Y-86200000D03*
%TD*%
%TO.C,R43*%
X189090000Y-94233900D03*
X190110000Y-94233900D03*
%TD*%
%TO.C,R40*%
X193190000Y-86450000D03*
X194210000Y-86450000D03*
%TD*%
D23*
%TO.C,C88*%
X149500000Y-100120000D03*
X149500000Y-101080000D03*
%TD*%
D26*
%TO.C,R30*%
X180290000Y-75811560D03*
X181310000Y-75811560D03*
%TD*%
%TO.C,R39*%
X181090000Y-94233900D03*
X182110000Y-94233900D03*
%TD*%
D23*
%TO.C,C60*%
X136400000Y-100120000D03*
X136400000Y-101080000D03*
%TD*%
D27*
%TO.C,R50*%
X107660000Y-92550000D03*
X106640000Y-92550000D03*
%TD*%
D28*
%TO.C,Q2*%
X188250000Y-79112500D03*
X190150000Y-79112500D03*
X189200000Y-80987500D03*
%TD*%
D27*
%TO.C,R66*%
X141210000Y-90750000D03*
X140190000Y-90750000D03*
%TD*%
D23*
%TO.C,C93*%
X162700000Y-100120000D03*
X162700000Y-101080000D03*
%TD*%
D28*
%TO.C,Q3*%
X184350000Y-79012500D03*
X186250000Y-79012500D03*
X185300000Y-80887500D03*
%TD*%
D27*
%TO.C,R29*%
X172850000Y-83187500D03*
X171830000Y-83187500D03*
%TD*%
D25*
%TO.C,C43*%
X117109010Y-97903600D03*
X117109010Y-96943600D03*
%TD*%
D23*
%TO.C,C61*%
X116300000Y-100220000D03*
X116300000Y-101180000D03*
%TD*%
%TO.C,C64*%
X125900000Y-100120000D03*
X125900000Y-101080000D03*
%TD*%
D27*
%TO.C,R18*%
X193210000Y-83100000D03*
X192190000Y-83100000D03*
%TD*%
D28*
%TO.C,Q1*%
X192250000Y-79150000D03*
X194150000Y-79150000D03*
X193200000Y-81025000D03*
%TD*%
D26*
%TO.C,R24*%
X184390000Y-75874060D03*
X185410000Y-75874060D03*
%TD*%
%TO.C,R23*%
X188290000Y-75974060D03*
X189310000Y-75974060D03*
%TD*%
D25*
%TO.C,C47*%
X128259010Y-97903600D03*
X128259010Y-96943600D03*
%TD*%
D26*
%TO.C,R65*%
X157590000Y-89250000D03*
X158610000Y-89250000D03*
%TD*%
D25*
%TO.C,C42*%
X113559010Y-97903600D03*
X113559010Y-96943600D03*
%TD*%
D26*
%TO.C,R19*%
X184390000Y-83200000D03*
X185410000Y-83200000D03*
%TD*%
%LPD*%
D29*
X204400000Y-110000000D02*
X197400000Y-110000000D01*
X87000000Y-104200000D02*
X87000000Y-110000000D01*
X88200000Y-103000000D02*
X105800000Y-103000000D01*
X197400000Y-104400000D02*
X197400000Y-110000000D01*
X204400000Y-110000000D02*
X204400000Y-30800000D01*
X88200000Y-103000000D02*
X87000000Y-104200000D01*
X107200000Y-109400000D02*
X107800000Y-110000000D01*
X81270000Y-29600000D02*
X203200000Y-29600000D01*
X173100000Y-103200000D02*
X171900000Y-104400000D01*
X171900000Y-109200000D02*
X171900000Y-104400000D01*
X107200000Y-104400000D02*
X105800000Y-103000000D01*
X107800000Y-110000000D02*
X171100000Y-110000000D01*
X80000000Y-110000000D02*
X87000000Y-110000000D01*
X107200000Y-104400000D02*
X107200000Y-109400000D01*
X196200000Y-103200000D02*
X197400000Y-104400000D01*
X80000000Y-30887000D02*
X80000000Y-110000000D01*
X173100000Y-103200000D02*
X196200000Y-103200000D01*
X204400000Y-30800000D02*
X203200000Y-29600000D01*
X171100000Y-110000000D02*
X171900000Y-109200000D01*
X80000000Y-30887000D02*
X81270000Y-29600000D01*
M02*
