%TF.GenerationSoftware,KiCad,Pcbnew,9.0.7*%
%TF.CreationDate,2026-04-16T10:12:26+01:00*%
%TF.ProjectId,stepper driver,73746570-7065-4722-9064-72697665722e,rev?*%
%TF.SameCoordinates,Original*%
%TF.FileFunction,Paste,Top*%
%TF.FilePolarity,Positive*%
%FSLAX46Y46*%
G04 Gerber Fmt 4.6, Leading zero omitted, Abs format (unit mm)*
G04 Created by KiCad (PCBNEW 9.0.7) date 2026-04-16 10:12:26*
%MOMM*%
%LPD*%
G01*
G04 APERTURE LIST*
G04 Aperture macros list*
%AMRoundRect*
0 Rectangle with rounded corners*
0 $1 Rounding radius*
0 $2 $3 $4 $5 $6 $7 $8 $9 X,Y pos of 4 corners*
0 Add a 4 corners polygon primitive as box body*
4,1,4,$2,$3,$4,$5,$6,$7,$8,$9,$2,$3,0*
0 Add four circle primitives for the rounded corners*
1,1,$1+$1,$2,$3*
1,1,$1+$1,$4,$5*
1,1,$1+$1,$6,$7*
1,1,$1+$1,$8,$9*
0 Add four rect primitives between the rounded corners*
20,1,$1+$1,$2,$3,$4,$5,0*
20,1,$1+$1,$4,$5,$6,$7,0*
20,1,$1+$1,$6,$7,$8,$9,0*
20,1,$1+$1,$8,$9,$2,$3,0*%
%AMFreePoly0*
4,1,14,0.340806,0.106694,0.394194,0.053306,0.412500,0.009112,0.412500,-0.062500,0.394194,-0.106694,0.350000,-0.125000,-0.350000,-0.125000,-0.394194,-0.106694,-0.412500,-0.062500,-0.412500,0.062500,-0.394194,0.106694,-0.350000,0.125000,0.296612,0.125000,0.340806,0.106694,0.340806,0.106694,$1*%
%AMFreePoly1*
4,1,14,0.394194,0.106694,0.412500,0.062500,0.412500,-0.009112,0.394194,-0.053306,0.340806,-0.106694,0.296612,-0.125000,-0.350000,-0.125000,-0.394194,-0.106694,-0.412500,-0.062500,-0.412500,0.062500,-0.394194,0.106694,-0.350000,0.125000,0.350000,0.125000,0.394194,0.106694,0.394194,0.106694,$1*%
%AMFreePoly2*
4,1,14,0.106694,0.394194,0.125000,0.350000,0.125000,-0.350000,0.106694,-0.394194,0.062500,-0.412500,-0.062500,-0.412500,-0.106694,-0.394194,-0.125000,-0.350000,-0.125000,0.296612,-0.106694,0.340806,-0.053306,0.394194,-0.009112,0.412500,0.062500,0.412500,0.106694,0.394194,0.106694,0.394194,$1*%
%AMFreePoly3*
4,1,14,0.053306,0.394194,0.106694,0.340806,0.125000,0.296612,0.125000,-0.350000,0.106694,-0.394194,0.062500,-0.412500,-0.062500,-0.412500,-0.106694,-0.394194,-0.125000,-0.350000,-0.125000,0.350000,-0.106694,0.394194,-0.062500,0.412500,0.009112,0.412500,0.053306,0.394194,0.053306,0.394194,$1*%
%AMFreePoly4*
4,1,14,0.394194,0.106694,0.412500,0.062500,0.412500,-0.062500,0.394194,-0.106694,0.350000,-0.125000,-0.296612,-0.125000,-0.340806,-0.106694,-0.394194,-0.053306,-0.412500,-0.009112,-0.412500,0.062500,-0.394194,0.106694,-0.350000,0.125000,0.350000,0.125000,0.394194,0.106694,0.394194,0.106694,$1*%
%AMFreePoly5*
4,1,14,0.394194,0.106694,0.412500,0.062500,0.412500,-0.062500,0.394194,-0.106694,0.350000,-0.125000,-0.350000,-0.125000,-0.394194,-0.106694,-0.412500,-0.062500,-0.412500,0.009112,-0.394194,0.053306,-0.340806,0.106694,-0.296612,0.125000,0.350000,0.125000,0.394194,0.106694,0.394194,0.106694,$1*%
%AMFreePoly6*
4,1,14,0.106694,0.394194,0.125000,0.350000,0.125000,-0.296612,0.106694,-0.340806,0.053306,-0.394194,0.009112,-0.412500,-0.062500,-0.412500,-0.106694,-0.394194,-0.125000,-0.350000,-0.125000,0.350000,-0.106694,0.394194,-0.062500,0.412500,0.062500,0.412500,0.106694,0.394194,0.106694,0.394194,$1*%
%AMFreePoly7*
4,1,14,0.106694,0.394194,0.125000,0.350000,0.125000,-0.350000,0.106694,-0.394194,0.062500,-0.412500,-0.009112,-0.412500,-0.053306,-0.394194,-0.106694,-0.340806,-0.125000,-0.296612,-0.125000,0.350000,-0.106694,0.394194,-0.062500,0.412500,0.062500,0.412500,0.106694,0.394194,0.106694,0.394194,$1*%
G04 Aperture macros list end*
%ADD10RoundRect,0.135000X0.135000X0.185000X-0.135000X0.185000X-0.135000X-0.185000X0.135000X-0.185000X0*%
%ADD11RoundRect,0.150000X-0.150000X0.825000X-0.150000X-0.825000X0.150000X-0.825000X0.150000X0.825000X0*%
%ADD12RoundRect,0.140000X-0.170000X0.140000X-0.170000X-0.140000X0.170000X-0.140000X0.170000X0.140000X0*%
%ADD13R,3.360000X4.860000*%
%ADD14R,1.390000X1.400000*%
%ADD15RoundRect,0.250000X0.650000X-1.000000X0.650000X1.000000X-0.650000X1.000000X-0.650000X-1.000000X0*%
%ADD16RoundRect,0.135000X0.185000X-0.135000X0.185000X0.135000X-0.185000X0.135000X-0.185000X-0.135000X0*%
%ADD17RoundRect,0.140000X-0.140000X-0.170000X0.140000X-0.170000X0.140000X0.170000X-0.140000X0.170000X0*%
%ADD18RoundRect,0.225000X-0.250000X0.225000X-0.250000X-0.225000X0.250000X-0.225000X0.250000X0.225000X0*%
%ADD19RoundRect,0.140000X0.140000X0.170000X-0.140000X0.170000X-0.140000X-0.170000X0.140000X-0.170000X0*%
%ADD20RoundRect,0.135000X-0.135000X-0.185000X0.135000X-0.185000X0.135000X0.185000X-0.135000X0.185000X0*%
%ADD21R,1.300000X1.100000*%
%ADD22RoundRect,0.250000X-0.325000X-0.650000X0.325000X-0.650000X0.325000X0.650000X-0.325000X0.650000X0*%
%ADD23RoundRect,0.087500X0.087500X-0.725000X0.087500X0.725000X-0.087500X0.725000X-0.087500X-0.725000X0*%
%ADD24RoundRect,0.150000X-0.512500X-0.150000X0.512500X-0.150000X0.512500X0.150000X-0.512500X0.150000X0*%
%ADD25RoundRect,0.250000X-0.420000X0.420000X-0.420000X-0.420000X0.420000X-0.420000X0.420000X0.420000X0*%
%ADD26FreePoly0,270.000000*%
%ADD27RoundRect,0.062500X-0.062500X0.350000X-0.062500X-0.350000X0.062500X-0.350000X0.062500X0.350000X0*%
%ADD28FreePoly1,270.000000*%
%ADD29FreePoly2,270.000000*%
%ADD30RoundRect,0.062500X-0.350000X0.062500X-0.350000X-0.062500X0.350000X-0.062500X0.350000X0.062500X0*%
%ADD31FreePoly3,270.000000*%
%ADD32FreePoly4,270.000000*%
%ADD33FreePoly5,270.000000*%
%ADD34FreePoly6,270.000000*%
%ADD35FreePoly7,270.000000*%
%ADD36RoundRect,0.250000X-0.650000X0.325000X-0.650000X-0.325000X0.650000X-0.325000X0.650000X0.325000X0*%
%ADD37RoundRect,0.150000X0.512500X0.150000X-0.512500X0.150000X-0.512500X-0.150000X0.512500X-0.150000X0*%
%ADD38R,6.600000X2.850000*%
%ADD39RoundRect,0.200000X0.200000X0.275000X-0.200000X0.275000X-0.200000X-0.275000X0.200000X-0.275000X0*%
%ADD40RoundRect,0.150000X0.950000X0.150000X-0.950000X0.150000X-0.950000X-0.150000X0.950000X-0.150000X0*%
%ADD41RoundRect,0.537500X0.537500X1.187500X-0.537500X1.187500X-0.537500X-1.187500X0.537500X-1.187500X0*%
%ADD42RoundRect,0.135000X-0.185000X0.135000X-0.185000X-0.135000X0.185000X-0.135000X0.185000X0.135000X0*%
%ADD43RoundRect,0.150000X0.150000X-0.512500X0.150000X0.512500X-0.150000X0.512500X-0.150000X-0.512500X0*%
%ADD44RoundRect,0.140000X0.170000X-0.140000X0.170000X0.140000X-0.170000X0.140000X-0.170000X-0.140000X0*%
%ADD45R,2.550000X2.400000*%
%ADD46R,2.750000X2.900000*%
%ADD47RoundRect,0.075000X-0.662500X-0.075000X0.662500X-0.075000X0.662500X0.075000X-0.662500X0.075000X0*%
%ADD48RoundRect,0.075000X-0.075000X-0.662500X0.075000X-0.662500X0.075000X0.662500X-0.075000X0.662500X0*%
%ADD49R,0.250000X1.100000*%
%ADD50R,1.700000X1.500000*%
%ADD51RoundRect,0.250000X1.000000X0.650000X-1.000000X0.650000X-1.000000X-0.650000X1.000000X-0.650000X0*%
%ADD52RoundRect,0.112500X-0.112500X0.187500X-0.112500X-0.187500X0.112500X-0.187500X0.112500X0.187500X0*%
%ADD53RoundRect,0.075000X0.075000X0.200000X-0.075000X0.200000X-0.075000X-0.200000X0.075000X-0.200000X0*%
%ADD54RoundRect,0.100000X0.850000X0.100000X-0.850000X0.100000X-0.850000X-0.100000X0.850000X-0.100000X0*%
%ADD55RoundRect,0.100000X0.100000X-0.637500X0.100000X0.637500X-0.100000X0.637500X-0.100000X-0.637500X0*%
%ADD56RoundRect,0.125000X-0.125000X-0.125000X0.125000X-0.125000X0.125000X0.125000X-0.125000X0.125000X0*%
%ADD57RoundRect,0.225000X0.225000X0.250000X-0.225000X0.250000X-0.225000X-0.250000X0.225000X-0.250000X0*%
%ADD58RoundRect,0.150000X0.150000X0.425000X-0.150000X0.425000X-0.150000X-0.425000X0.150000X-0.425000X0*%
%ADD59RoundRect,0.075000X0.075000X0.500000X-0.075000X0.500000X-0.075000X-0.500000X0.075000X-0.500000X0*%
%ADD60O,1.000000X2.100000*%
%ADD61O,1.000000X1.800000*%
%ADD62RoundRect,0.150000X0.725000X0.150000X-0.725000X0.150000X-0.725000X-0.150000X0.725000X-0.150000X0*%
%ADD63RoundRect,0.250000X0.325000X0.650000X-0.325000X0.650000X-0.325000X-0.650000X0.325000X-0.650000X0*%
%TA.AperFunction,Profile*%
%ADD64C,0.200000*%
%TD*%
G04 APERTURE END LIST*
D10*
%TO.C,R60*%
X158610000Y-88950000D03*
X157590000Y-88950000D03*
%TD*%
D11*
%TO.C,IC4*%
X196029000Y-65215000D03*
X194759000Y-65215000D03*
X193489000Y-65215000D03*
X192219000Y-65215000D03*
X190949000Y-65215000D03*
X189679000Y-65215000D03*
X188409000Y-65215000D03*
X187139000Y-65215000D03*
X187139000Y-70165000D03*
X188409000Y-70165000D03*
X189679000Y-70165000D03*
X190949000Y-70165000D03*
X192219000Y-70165000D03*
X193489000Y-70165000D03*
X194759000Y-70165000D03*
X196029000Y-70165000D03*
%TD*%
D12*
%TO.C,C82*%
X165850000Y-85070000D03*
X165850000Y-86030000D03*
%TD*%
D13*
%TO.C,D4*%
X86770000Y-46507000D03*
D14*
X85850000Y-42525000D03*
X87690000Y-42525000D03*
%TD*%
D12*
%TO.C,C56*%
X127509010Y-83923600D03*
X127509010Y-84883600D03*
%TD*%
%TO.C,C41*%
X130650000Y-85520000D03*
X130650000Y-86480000D03*
%TD*%
D10*
%TO.C,R46*%
X107310000Y-87650000D03*
X106290000Y-87650000D03*
%TD*%
D15*
%TO.C,D2*%
X106650000Y-62250000D03*
X106650000Y-58250000D03*
%TD*%
D16*
%TO.C,R9*%
X137690990Y-55456000D03*
X137690990Y-54436000D03*
%TD*%
D12*
%TO.C,C27*%
X185300000Y-53720000D03*
X185300000Y-54680000D03*
%TD*%
D17*
%TO.C,C33*%
X193820000Y-47525000D03*
X194780000Y-47525000D03*
%TD*%
D18*
%TO.C,C79*%
X142859010Y-94778600D03*
X142859010Y-96328600D03*
%TD*%
D19*
%TO.C,C14*%
X98380000Y-75850000D03*
X97420000Y-75850000D03*
%TD*%
D20*
%TO.C,R34*%
X133090000Y-47250000D03*
X134110000Y-47250000D03*
%TD*%
D21*
%TO.C,X1*%
X130850000Y-54275000D03*
X128750000Y-54275000D03*
X128750000Y-55925000D03*
X130850000Y-55925000D03*
%TD*%
D22*
%TO.C,C17*%
X97575000Y-71100000D03*
X100525000Y-71100000D03*
%TD*%
D16*
%TO.C,R6*%
X179550000Y-76650000D03*
X179550000Y-75630000D03*
%TD*%
D18*
%TO.C,C85*%
X158000000Y-92400000D03*
X158000000Y-93950000D03*
%TD*%
%TO.C,C58*%
X123970004Y-92196600D03*
X123970004Y-93746600D03*
%TD*%
D10*
%TO.C,R48*%
X124560000Y-88800000D03*
X123540000Y-88800000D03*
%TD*%
D23*
%TO.C,U5*%
X123756007Y-84216100D03*
X124256007Y-84216100D03*
X124756007Y-84216100D03*
X125256007Y-84216100D03*
X125756007Y-84216100D03*
X125756007Y-79991100D03*
X125256007Y-79991100D03*
X124756007Y-79991100D03*
X124256007Y-79991100D03*
X123756007Y-79991100D03*
%TD*%
D20*
%TO.C,R4*%
X122730990Y-53396000D03*
X123750990Y-53396000D03*
%TD*%
D18*
%TO.C,C84*%
X141048007Y-92196600D03*
X141048007Y-93746600D03*
%TD*%
D16*
%TO.C,R5*%
X181050000Y-76650000D03*
X181050000Y-75630000D03*
%TD*%
D24*
%TO.C,IC5*%
X165775000Y-52600000D03*
X165775000Y-53550000D03*
X165775000Y-54500000D03*
X168050000Y-54500000D03*
X168050000Y-52600000D03*
%TD*%
D25*
%TO.C,U7*%
X131825000Y-91225000D03*
X130275000Y-91225000D03*
X131825000Y-92775000D03*
X130275000Y-92775000D03*
D26*
X132800000Y-89562500D03*
D27*
X132300000Y-89562500D03*
X131800000Y-89562500D03*
X131300000Y-89562500D03*
X130800000Y-89562500D03*
X130300000Y-89562500D03*
X129800000Y-89562500D03*
D28*
X129300000Y-89562500D03*
D29*
X128612500Y-90250000D03*
D30*
X128612500Y-90750000D03*
X128612500Y-91250000D03*
X128612500Y-91750000D03*
X128612500Y-92250000D03*
X128612500Y-92750000D03*
X128612500Y-93250000D03*
D31*
X128612500Y-93750000D03*
D32*
X129300000Y-94437500D03*
D27*
X129800000Y-94437500D03*
X130300000Y-94437500D03*
X130800000Y-94437500D03*
X131300000Y-94437500D03*
X131800000Y-94437500D03*
X132300000Y-94437500D03*
D33*
X132800000Y-94437500D03*
D34*
X133487500Y-93750000D03*
D30*
X133487500Y-93250000D03*
X133487500Y-92750000D03*
X133487500Y-92250000D03*
X133487500Y-91750000D03*
X133487500Y-91250000D03*
X133487500Y-90750000D03*
D35*
X133487500Y-90250000D03*
%TD*%
D36*
%TO.C,C20*%
X101700000Y-44075000D03*
X101700000Y-47025000D03*
%TD*%
D20*
%TO.C,R15*%
X199835000Y-38225000D03*
X200855000Y-38225000D03*
%TD*%
D37*
%TO.C,U2*%
X100087500Y-52000000D03*
X100087500Y-51050000D03*
X100087500Y-50100000D03*
X97812500Y-50100000D03*
X97812500Y-51050000D03*
X97812500Y-52000000D03*
%TD*%
D38*
%TO.C,L1*%
X98650000Y-60525000D03*
X98650000Y-66175000D03*
%TD*%
D39*
%TO.C,R35*%
X134875000Y-41700000D03*
X133225000Y-41700000D03*
%TD*%
D10*
%TO.C,R61*%
X158610000Y-90550000D03*
X157590000Y-90550000D03*
%TD*%
D40*
%TO.C,U1*%
X99137500Y-83340000D03*
X99137500Y-82070000D03*
X99137500Y-80800000D03*
D41*
X92837500Y-80800000D03*
D40*
X99137500Y-79530000D03*
X99137500Y-78260000D03*
%TD*%
D42*
%TO.C,R16*%
X195960000Y-41590000D03*
X195960000Y-42610000D03*
%TD*%
D10*
%TO.C,R47*%
X107310000Y-89700000D03*
X106290000Y-89700000D03*
%TD*%
D19*
%TO.C,C39*%
X151030000Y-53650000D03*
X150070000Y-53650000D03*
%TD*%
D43*
%TO.C,IC3*%
X106200000Y-79368750D03*
X107150000Y-79368750D03*
X108100000Y-79368750D03*
X108100000Y-77093750D03*
X106200000Y-77093750D03*
%TD*%
D20*
%TO.C,R25*%
X167443600Y-49560400D03*
X168463600Y-49560400D03*
%TD*%
D18*
%TO.C,C34*%
X170650000Y-52825000D03*
X170650000Y-54375000D03*
%TD*%
D42*
%TO.C,R2*%
X178800000Y-87690000D03*
X178800000Y-88710000D03*
%TD*%
D17*
%TO.C,C7*%
X140902607Y-62631000D03*
X141862607Y-62631000D03*
%TD*%
D12*
%TO.C,C54*%
X116100000Y-85020000D03*
X116100000Y-85980000D03*
%TD*%
D19*
%TO.C,C32*%
X192380000Y-47538200D03*
X191420000Y-47538200D03*
%TD*%
D44*
%TO.C,C36*%
X159502000Y-42608000D03*
X159502000Y-41648000D03*
%TD*%
D16*
%TO.C,R14*%
X94750000Y-51510000D03*
X94750000Y-50490000D03*
%TD*%
D45*
%TO.C,CLKIN1*%
X170428600Y-34951600D03*
D46*
X163178600Y-42351600D03*
D45*
X163078600Y-33051600D03*
%TD*%
D17*
%TO.C,C23*%
X105120000Y-72300000D03*
X106080000Y-72300000D03*
%TD*%
D25*
%TO.C,U6*%
X115325000Y-91225000D03*
X113775000Y-91225000D03*
X115325000Y-92775000D03*
X113775000Y-92775000D03*
D26*
X116300000Y-89562500D03*
D27*
X115800000Y-89562500D03*
X115300000Y-89562500D03*
X114800000Y-89562500D03*
X114300000Y-89562500D03*
X113800000Y-89562500D03*
X113300000Y-89562500D03*
D28*
X112800000Y-89562500D03*
D29*
X112112500Y-90250000D03*
D30*
X112112500Y-90750000D03*
X112112500Y-91250000D03*
X112112500Y-91750000D03*
X112112500Y-92250000D03*
X112112500Y-92750000D03*
X112112500Y-93250000D03*
D31*
X112112500Y-93750000D03*
D32*
X112800000Y-94437500D03*
D27*
X113300000Y-94437500D03*
X113800000Y-94437500D03*
X114300000Y-94437500D03*
X114800000Y-94437500D03*
X115300000Y-94437500D03*
X115800000Y-94437500D03*
D33*
X116300000Y-94437500D03*
D34*
X116987500Y-93750000D03*
D30*
X116987500Y-93250000D03*
X116987500Y-92750000D03*
X116987500Y-92250000D03*
X116987500Y-91750000D03*
X116987500Y-91250000D03*
X116987500Y-90750000D03*
D35*
X116987500Y-90250000D03*
%TD*%
D20*
%TO.C,R10*%
X106790000Y-83250000D03*
X107810000Y-83250000D03*
%TD*%
D17*
%TO.C,C25*%
X196029010Y-73403600D03*
X196989010Y-73403600D03*
%TD*%
D12*
%TO.C,C21*%
X98850000Y-46070000D03*
X98850000Y-47030000D03*
%TD*%
D18*
%TO.C,C15*%
X104500000Y-82375000D03*
X104500000Y-83925000D03*
%TD*%
D12*
%TO.C,C55*%
X132350000Y-85170000D03*
X132350000Y-86130000D03*
%TD*%
D19*
%TO.C,C24*%
X195980000Y-62275000D03*
X195020000Y-62275000D03*
%TD*%
D37*
%TO.C,IC6*%
X161165500Y-51250000D03*
X161165500Y-50300000D03*
X161165500Y-49350000D03*
X158890500Y-49350000D03*
X158890500Y-51250000D03*
%TD*%
D19*
%TO.C,C4*%
X118124807Y-63100000D03*
X117164807Y-63100000D03*
%TD*%
D16*
%TO.C,R8*%
X135890990Y-55456000D03*
X135890990Y-54436000D03*
%TD*%
D42*
%TO.C,R1*%
X176950000Y-87690000D03*
X176950000Y-88710000D03*
%TD*%
%TO.C,R3*%
X180400000Y-87690000D03*
X180400000Y-88710000D03*
%TD*%
%TO.C,R17*%
X190585000Y-41540000D03*
X190585000Y-42560000D03*
%TD*%
D19*
%TO.C,C18*%
X98380000Y-73500000D03*
X97420000Y-73500000D03*
%TD*%
D25*
%TO.C,U12*%
X165450000Y-91225000D03*
X163900000Y-91225000D03*
X165450000Y-92775000D03*
X163900000Y-92775000D03*
D26*
X166425000Y-89562500D03*
D27*
X165925000Y-89562500D03*
X165425000Y-89562500D03*
X164925000Y-89562500D03*
X164425000Y-89562500D03*
X163925000Y-89562500D03*
X163425000Y-89562500D03*
D28*
X162925000Y-89562500D03*
D29*
X162237500Y-90250000D03*
D30*
X162237500Y-90750000D03*
X162237500Y-91250000D03*
X162237500Y-91750000D03*
X162237500Y-92250000D03*
X162237500Y-92750000D03*
X162237500Y-93250000D03*
D31*
X162237500Y-93750000D03*
D32*
X162925000Y-94437500D03*
D27*
X163425000Y-94437500D03*
X163925000Y-94437500D03*
X164425000Y-94437500D03*
X164925000Y-94437500D03*
X165425000Y-94437500D03*
X165925000Y-94437500D03*
D33*
X166425000Y-94437500D03*
D34*
X167112500Y-93750000D03*
D30*
X167112500Y-93250000D03*
X167112500Y-92750000D03*
X167112500Y-92250000D03*
X167112500Y-91750000D03*
X167112500Y-91250000D03*
X167112500Y-90750000D03*
D35*
X167112500Y-90250000D03*
%TD*%
D47*
%TO.C,IC2*%
X122366307Y-61533200D03*
X122366307Y-62033200D03*
X122366307Y-62533200D03*
X122366307Y-63033200D03*
X122366307Y-63533200D03*
X122366307Y-64033200D03*
X122366307Y-64533200D03*
X122366307Y-65033200D03*
X122366307Y-65533200D03*
X122366307Y-66033200D03*
X122366307Y-66533200D03*
X122366307Y-67033200D03*
X122366307Y-67533200D03*
X122366307Y-68033200D03*
X122366307Y-68533200D03*
X122366307Y-69033200D03*
X122366307Y-69533200D03*
X122366307Y-70033200D03*
X122366307Y-70533200D03*
X122366307Y-71033200D03*
X122366307Y-71533200D03*
X122366307Y-72033200D03*
X122366307Y-72533200D03*
X122366307Y-73033200D03*
X122366307Y-73533200D03*
D48*
X124028807Y-75195700D03*
X124528807Y-75195700D03*
X125028807Y-75195700D03*
X125528807Y-75195700D03*
X126028807Y-75195700D03*
X126528807Y-75195700D03*
X127028807Y-75195700D03*
X127528807Y-75195700D03*
X128028807Y-75195700D03*
X128528807Y-75195700D03*
X129028807Y-75195700D03*
X129528807Y-75195700D03*
X130028807Y-75195700D03*
X130528807Y-75195700D03*
X131028807Y-75195700D03*
X131528807Y-75195700D03*
X132028807Y-75195700D03*
X132528807Y-75195700D03*
X133028807Y-75195700D03*
X133528807Y-75195700D03*
X134028807Y-75195700D03*
X134528807Y-75195700D03*
X135028807Y-75195700D03*
X135528807Y-75195700D03*
X136028807Y-75195700D03*
D47*
X137691307Y-73533200D03*
X137691307Y-73033200D03*
X137691307Y-72533200D03*
X137691307Y-72033200D03*
X137691307Y-71533200D03*
X137691307Y-71033200D03*
X137691307Y-70533200D03*
X137691307Y-70033200D03*
X137691307Y-69533200D03*
X137691307Y-69033200D03*
X137691307Y-68533200D03*
X137691307Y-68033200D03*
X137691307Y-67533200D03*
X137691307Y-67033200D03*
X137691307Y-66533200D03*
X137691307Y-66033200D03*
X137691307Y-65533200D03*
X137691307Y-65033200D03*
X137691307Y-64533200D03*
X137691307Y-64033200D03*
X137691307Y-63533200D03*
X137691307Y-63033200D03*
X137691307Y-62533200D03*
X137691307Y-62033200D03*
X137691307Y-61533200D03*
D48*
X136028807Y-59870700D03*
X135528807Y-59870700D03*
X135028807Y-59870700D03*
X134528807Y-59870700D03*
X134028807Y-59870700D03*
X133528807Y-59870700D03*
X133028807Y-59870700D03*
X132528807Y-59870700D03*
X132028807Y-59870700D03*
X131528807Y-59870700D03*
X131028807Y-59870700D03*
X130528807Y-59870700D03*
X130028807Y-59870700D03*
X129528807Y-59870700D03*
X129028807Y-59870700D03*
X128528807Y-59870700D03*
X128028807Y-59870700D03*
X127528807Y-59870700D03*
X127028807Y-59870700D03*
X126528807Y-59870700D03*
X126028807Y-59870700D03*
X125528807Y-59870700D03*
X125028807Y-59870700D03*
X124528807Y-59870700D03*
X124028807Y-59870700D03*
%TD*%
D19*
%TO.C,C38*%
X156464400Y-53522800D03*
X155504400Y-53522800D03*
%TD*%
D18*
%TO.C,C53*%
X125759010Y-94778600D03*
X125759010Y-96328600D03*
%TD*%
D37*
%TO.C,IC7*%
X161165500Y-46802000D03*
X161165500Y-45852000D03*
X161165500Y-44902000D03*
X158890500Y-44902000D03*
X158890500Y-46802000D03*
%TD*%
D45*
%TO.C,CLKOUT1*%
X157928600Y-34951600D03*
D46*
X150678600Y-42351600D03*
D45*
X150578600Y-33051600D03*
%TD*%
D10*
%TO.C,R49*%
X124560000Y-90400000D03*
X123540000Y-90400000D03*
%TD*%
%TO.C,R59*%
X141210000Y-90350000D03*
X140190000Y-90350000D03*
%TD*%
D49*
%TO.C,J4*%
X191800000Y-99250000D03*
X191300000Y-99250000D03*
X190800000Y-99250000D03*
X190300000Y-99250000D03*
X189800000Y-99250000D03*
X189300000Y-99250000D03*
X188800000Y-99250000D03*
X188300000Y-99250000D03*
X187800000Y-99250000D03*
X187300000Y-99250000D03*
X186800000Y-99250000D03*
X186300000Y-99250000D03*
X185800000Y-99250000D03*
X185300000Y-99250000D03*
X184800000Y-99250000D03*
X184300000Y-99250000D03*
X183800000Y-99250000D03*
X183300000Y-99250000D03*
X182800000Y-99250000D03*
X182300000Y-99250000D03*
X181800000Y-99250000D03*
X181300000Y-99250000D03*
X180800000Y-99250000D03*
X180300000Y-99250000D03*
X179800000Y-99250000D03*
X179300000Y-99250000D03*
D50*
X193450000Y-95350000D03*
X177650000Y-95350000D03*
%TD*%
D42*
%TO.C,R13*%
X92900000Y-50440000D03*
X92900000Y-51460000D03*
%TD*%
D10*
%TO.C,R58*%
X141210000Y-88200000D03*
X140190000Y-88200000D03*
%TD*%
D44*
%TO.C,C3*%
X126100000Y-56030000D03*
X126100000Y-55070000D03*
%TD*%
D18*
%TO.C,C35*%
X162700000Y-53025000D03*
X162700000Y-54575000D03*
%TD*%
D17*
%TO.C,C2*%
X122780990Y-55495865D03*
X123740990Y-55495865D03*
%TD*%
%TO.C,C5*%
X133020000Y-54400000D03*
X133980000Y-54400000D03*
%TD*%
D12*
%TO.C,C11*%
X128009010Y-80223600D03*
X128009010Y-81183600D03*
%TD*%
%TO.C,C83*%
X157550000Y-82870000D03*
X157550000Y-83830000D03*
%TD*%
D19*
%TO.C,C1*%
X175830000Y-78887500D03*
X174870000Y-78887500D03*
%TD*%
D51*
%TO.C,D5*%
X99300000Y-55750000D03*
X95300000Y-55750000D03*
%TD*%
D19*
%TO.C,C31*%
X184530000Y-51700000D03*
X183570000Y-51700000D03*
%TD*%
D18*
%TO.C,C52*%
X108800000Y-95125000D03*
X108800000Y-96675000D03*
%TD*%
D12*
%TO.C,C16*%
X102650000Y-81420000D03*
X102650000Y-82380000D03*
%TD*%
D52*
%TO.C,D1*%
X106500000Y-52000000D03*
X106500000Y-54100000D03*
%TD*%
D18*
%TO.C,C80*%
X160050000Y-94525000D03*
X160050000Y-96075000D03*
%TD*%
%TO.C,C28*%
X183150000Y-53875000D03*
X183150000Y-55425000D03*
%TD*%
D10*
%TO.C,R45*%
X122019010Y-81603600D03*
X120999010Y-81603600D03*
%TD*%
D12*
%TO.C,C81*%
X149300000Y-85320000D03*
X149300000Y-86280000D03*
%TD*%
D53*
%TO.C,D6*%
X194060000Y-41605000D03*
X193560000Y-41605000D03*
X193060000Y-41605000D03*
X192560000Y-41605000D03*
X192060000Y-41605000D03*
X192060000Y-42375000D03*
X192560000Y-42375000D03*
X193060000Y-42375000D03*
X193560000Y-42375000D03*
X194060000Y-42375000D03*
%TD*%
D54*
%TO.C,U3*%
X196398900Y-58896400D03*
X196398900Y-58246400D03*
X196398900Y-57596400D03*
X196398900Y-56946400D03*
X196398900Y-56296400D03*
X196398900Y-55646400D03*
X196398900Y-54996400D03*
X196398900Y-54346400D03*
X196398900Y-53696400D03*
X196398900Y-53046400D03*
X196398900Y-52396400D03*
X196398900Y-51746400D03*
X196398900Y-51096400D03*
X196398900Y-50446400D03*
X189398900Y-50446400D03*
X189398900Y-51096400D03*
X189398900Y-51746400D03*
X189398900Y-52396400D03*
X189398900Y-53046400D03*
X189398900Y-53696400D03*
X189398900Y-54346400D03*
X189398900Y-54996400D03*
X189398900Y-55646400D03*
X189398900Y-56296400D03*
X189398900Y-56946400D03*
X189398900Y-57596400D03*
X189398900Y-58246400D03*
X189398900Y-58896400D03*
%TD*%
D10*
%TO.C,R44*%
X123760000Y-86550000D03*
X122740000Y-86550000D03*
%TD*%
D16*
%TO.C,R7*%
X177500000Y-76650000D03*
X177500000Y-75630000D03*
%TD*%
D10*
%TO.C,R27*%
X168489200Y-47294000D03*
X167469200Y-47294000D03*
%TD*%
%TO.C,R33*%
X165060000Y-46650000D03*
X164040000Y-46650000D03*
%TD*%
D55*
%TO.C,IC1*%
X177500000Y-85100000D03*
X178150000Y-85100000D03*
X178800000Y-85100000D03*
X179450000Y-85100000D03*
X180100000Y-85100000D03*
X180750000Y-85100000D03*
X181400000Y-85100000D03*
X181400000Y-79375000D03*
X180750000Y-79375000D03*
X180100000Y-79375000D03*
X179450000Y-79375000D03*
X178800000Y-79375000D03*
X178150000Y-79375000D03*
X177500000Y-79375000D03*
%TD*%
D16*
%TO.C,R57*%
X154050000Y-77410000D03*
X154050000Y-76390000D03*
%TD*%
D25*
%TO.C,U11*%
X148525000Y-91225000D03*
X146975000Y-91225000D03*
X148525000Y-92775000D03*
X146975000Y-92775000D03*
D26*
X149500000Y-89562500D03*
D27*
X149000000Y-89562500D03*
X148500000Y-89562500D03*
X148000000Y-89562500D03*
X147500000Y-89562500D03*
X147000000Y-89562500D03*
X146500000Y-89562500D03*
D28*
X146000000Y-89562500D03*
D29*
X145312500Y-90250000D03*
D30*
X145312500Y-90750000D03*
X145312500Y-91250000D03*
X145312500Y-91750000D03*
X145312500Y-92250000D03*
X145312500Y-92750000D03*
X145312500Y-93250000D03*
D31*
X145312500Y-93750000D03*
D32*
X146000000Y-94437500D03*
D27*
X146500000Y-94437500D03*
X147000000Y-94437500D03*
X147500000Y-94437500D03*
X148000000Y-94437500D03*
X148500000Y-94437500D03*
X149000000Y-94437500D03*
D33*
X149500000Y-94437500D03*
D34*
X150187500Y-93750000D03*
D30*
X150187500Y-93250000D03*
X150187500Y-92750000D03*
X150187500Y-92250000D03*
X150187500Y-91750000D03*
X150187500Y-91250000D03*
X150187500Y-90750000D03*
D35*
X150187500Y-90250000D03*
%TD*%
D44*
%TO.C,C19*%
X102950000Y-52980000D03*
X102950000Y-52020000D03*
%TD*%
D12*
%TO.C,C68*%
X163950000Y-85520000D03*
X163950000Y-86480000D03*
%TD*%
D17*
%TO.C,C9*%
X141529010Y-73276000D03*
X142489010Y-73276000D03*
%TD*%
D42*
%TO.C,R11*%
X104350000Y-78790000D03*
X104350000Y-79810000D03*
%TD*%
D56*
%TO.C,D7*%
X133050000Y-44600000D03*
X135250000Y-44600000D03*
%TD*%
D16*
%TO.C,R12*%
X102650000Y-79810000D03*
X102650000Y-78790000D03*
%TD*%
D17*
%TO.C,C29*%
X199382600Y-56860000D03*
X200342600Y-56860000D03*
%TD*%
D12*
%TO.C,C37*%
X159248000Y-53078000D03*
X159248000Y-54038000D03*
%TD*%
D57*
%TO.C,C22*%
X106175000Y-74200000D03*
X104625000Y-74200000D03*
%TD*%
D17*
%TO.C,C8*%
X142707607Y-67299800D03*
X143667607Y-67299800D03*
%TD*%
D19*
%TO.C,C13*%
X118024807Y-67850000D03*
X117064807Y-67850000D03*
%TD*%
%TO.C,C12*%
X119405000Y-73075000D03*
X118445000Y-73075000D03*
%TD*%
D17*
%TO.C,C30*%
X199830000Y-36350000D03*
X200790000Y-36350000D03*
%TD*%
D58*
%TO.C,J2*%
X196180000Y-36155000D03*
X195380000Y-36155000D03*
D59*
X194230000Y-36155000D03*
X193230000Y-36155000D03*
X192730000Y-36155000D03*
X191730000Y-36155000D03*
D58*
X190580000Y-36155000D03*
X189780000Y-36155000D03*
X189780000Y-36155000D03*
X190580000Y-36155000D03*
D59*
X191230000Y-36155000D03*
X192230000Y-36155000D03*
X193730000Y-36155000D03*
X194730000Y-36155000D03*
D58*
X195380000Y-36155000D03*
X196180000Y-36155000D03*
D60*
X197300000Y-35580000D03*
D61*
X197300000Y-31400000D03*
D60*
X188660000Y-35580000D03*
D61*
X188660000Y-31400000D03*
%TD*%
D23*
%TO.C,U9*%
X153556007Y-84316100D03*
X154056007Y-84316100D03*
X154556007Y-84316100D03*
X155056007Y-84316100D03*
X155556007Y-84316100D03*
X155556007Y-80091100D03*
X155056007Y-80091100D03*
X154556007Y-80091100D03*
X154056007Y-80091100D03*
X153556007Y-80091100D03*
%TD*%
D12*
%TO.C,C67*%
X147350000Y-85520000D03*
X147350000Y-86480000D03*
%TD*%
D17*
%TO.C,C10*%
X133020000Y-78850000D03*
X133980000Y-78850000D03*
%TD*%
D12*
%TO.C,C40*%
X114300000Y-85520000D03*
X114300000Y-86480000D03*
%TD*%
D18*
%TO.C,C57*%
X106692000Y-92196600D03*
X106692000Y-93746600D03*
%TD*%
D17*
%TO.C,C6*%
X133220000Y-56350000D03*
X134180000Y-56350000D03*
%TD*%
D42*
%TO.C,R56*%
X153600000Y-86840000D03*
X153600000Y-87860000D03*
%TD*%
D62*
%TO.C,IC8*%
X156019400Y-51059000D03*
X156019400Y-49789000D03*
X156019400Y-48519000D03*
X156019400Y-47249000D03*
X150869400Y-47249000D03*
X150869400Y-48519000D03*
X150869400Y-49789000D03*
X150869400Y-51059000D03*
%TD*%
D42*
%TO.C,R32*%
X159050000Y-57540000D03*
X159050000Y-58560000D03*
%TD*%
D15*
%TO.C,D3*%
X95150000Y-47100000D03*
X95150000Y-43100000D03*
%TD*%
D63*
%TO.C,C26*%
X198575000Y-44600000D03*
X195625000Y-44600000D03*
%TD*%
D64*
X204400000Y-110000000D02*
X197400000Y-110000000D01*
X87000000Y-104200000D02*
X87000000Y-110000000D01*
X88200000Y-103000000D02*
X105800000Y-103000000D01*
X197400000Y-104400000D02*
X197400000Y-110000000D01*
X204400000Y-110000000D02*
X204400000Y-30800000D01*
X88200000Y-103000000D02*
X87000000Y-104200000D01*
X107200000Y-109400000D02*
X107800000Y-110000000D01*
X81270000Y-29600000D02*
X203200000Y-29600000D01*
X173100000Y-103200000D02*
X171900000Y-104400000D01*
X171900000Y-109200000D02*
X171900000Y-104400000D01*
X107200000Y-104400000D02*
X105800000Y-103000000D01*
X107800000Y-110000000D02*
X171100000Y-110000000D01*
X80000000Y-110000000D02*
X87000000Y-110000000D01*
X107200000Y-104400000D02*
X107200000Y-109400000D01*
X196200000Y-103200000D02*
X197400000Y-104400000D01*
X80000000Y-30887000D02*
X80000000Y-110000000D01*
X173100000Y-103200000D02*
X196200000Y-103200000D01*
X204400000Y-30800000D02*
X203200000Y-29600000D01*
X171100000Y-110000000D02*
X171900000Y-109200000D01*
X80000000Y-30887000D02*
X81270000Y-29600000D01*
M02*
