M48
; DRILL file {KiCad 9.0.7} date 2026-04-16T18:18:31+0100
; FORMAT={-:-/ absolute / inch / decimal}
; #@! TF.CreationDate,2026-04-16T18:18:31+01:00
; #@! TF.GenerationSoftware,Kicad,Pcbnew,9.0.7
; #@! TF.FileFunction,Plated,1,4,PTH
FMAT,2
INCH
; #@! TA.AperFunction,Plated,PTH,ComponentDrill
T1C0.0079
; #@! TA.AperFunction,Plated,PTH,ViaDrill
T2C0.0098
; #@! TA.AperFunction,Plated,PTH,ViaDrill
T3C0.0177
; #@! TA.AperFunction,Plated,PTH,ComponentDrill
T4C0.0236
; #@! TA.AperFunction,Plated,PTH,ComponentDrill
T5C0.0315
; #@! TA.AperFunction,Plated,PTH,ComponentDrill
T6C0.0394
; #@! TA.AperFunction,Plated,PTH,ComponentDrill
T7C0.0472
%
G90
G05
T1
X4.4587Y-3.5709
X4.4587Y-3.622
X4.4587Y-3.6732
X4.5098Y-3.5709
X4.5098Y-3.622
X4.5098Y-3.6732
X4.561Y-3.5709
X4.561Y-3.622
X4.561Y-3.6732
X5.1083Y-3.5709
X5.1083Y-3.622
X5.1083Y-3.6732
X5.1594Y-3.5709
X5.1594Y-3.622
X5.1594Y-3.6732
X5.2106Y-3.5709
X5.2106Y-3.622
X5.2106Y-3.6732
X5.7657Y-3.5709
X5.7657Y-3.622
X5.7657Y-3.6732
X5.8169Y-3.5709
X5.8169Y-3.622
X5.8169Y-3.6732
X5.8681Y-3.5709
X5.8681Y-3.622
X5.8681Y-3.6732
X6.4321Y-3.5709
X6.4321Y-3.622
X6.4321Y-3.6732
X6.4833Y-3.5709
X6.4833Y-3.622
X6.4833Y-3.6732
X6.5344Y-3.5709
X6.5344Y-3.622
X6.5344Y-3.6732
T2
X3.2264Y-1.5669
X3.2264Y-2.1043
X3.2267Y-2.6399
X3.2267Y-3.5848
X3.2283Y-2.9508
X3.2307Y-3.3072
X3.2464Y-3.8978
X3.2539Y-1.8898
X3.2742Y-1.2658
X3.2772Y-1.7217
X3.2783Y-1.6669
X3.2791Y-1.8059
X3.2874Y-1.6024
X3.2878Y-1.8591
X3.2961Y-1.7642
X3.305Y-1.5598
X3.3212Y-2.3742
X3.3212Y-3.0927
X3.3228Y-2.0039
X3.3252Y-3.7029
X3.3271Y-2.7246
X3.3291Y-3.4096
X3.333Y-3.9982
X3.3744Y-1.4037
X3.3803Y-3.8545
X3.4098Y-3.0395
X3.4118Y-2.3958
X3.4146Y-1.9862
X3.4154Y-2.2264
X3.4157Y-2.7167
X3.4157Y-3.4175
X3.4177Y-3.6714
X3.4941Y-1.5886
X3.4964Y-3.1458
X3.498Y-2.0197
X3.498Y-3.3181
X3.4984Y-2.384
X3.4992Y-3.2685
X3.5004Y-2.7108
X3.5004Y-3.4037
X3.5005Y-3.209
X3.5016Y-3.0244
X3.5023Y-3.6497
X3.5055Y-3.0925
X3.5279Y-3.8407
X3.5339Y-1.7134
X3.5394Y-1.6213
X3.5441Y-1.7661
X3.5563Y-1.6685
X3.5567Y-1.8949
X3.5732Y-3.7659
X3.5831Y-3.2272
X3.5846Y-1.7244
X3.5846Y-3.1772
X3.5862Y-2.9492
X3.587Y-3.069
X3.587Y-3.3309
X3.5882Y-3.1343
X3.589Y-3.2839
X3.589Y-3.3929
X3.5898Y-2.9969
X3.5929Y-2.6123
X3.5948Y-2.0474
X3.5961Y-2.4827
X3.5984Y-1.6665
X3.5988Y-2.3965
X3.5996Y-1.9783
X3.6016Y-2.1039
X3.6027Y-2.3112
X3.6047Y-2.1646
X3.6067Y-3.6773
X3.6079Y-2.2287
X3.6098Y-3.0331
X3.6228Y-2.6937
X3.6307Y-3.3413
X3.6315Y-2.5811
X3.6374Y-3.2831
X3.6382Y-3.3929
X3.6417Y-1.5197
X3.6421Y-2.9969
X3.6469Y-1.6976
X3.6496Y-3.0614
X3.6499Y-1.2598
X3.6555Y-3.1339
X3.6555Y-3.1791
X3.6555Y-3.2264
X3.6555Y-3.5236
X3.6618Y-2.6366
X3.6622Y-1.8996
X3.663Y-1.7591
X3.6693Y-2.9528
X3.672Y-3.0315
X3.6752Y-3.0886
X3.6752Y-4.0157
X3.6866Y-3.2815
X3.688Y-2.7963
X3.689Y-3.3858
X3.6909Y-2.0524
X3.6929Y-1.9878
X3.6933Y-3.3283
X3.6949Y-2.9984
X3.6969Y-2.7
X3.7031Y-2.6075
X3.7075Y-2.6559
X3.7079Y-2.4039
X3.7106Y-3.065
X3.7126Y-2.3531
X3.7154Y-3.189
X3.7165Y-3.4213
X3.7169Y-3.6891
X3.7169Y-3.1378
X3.7181Y-3.2303
X3.7205Y-2.0866
X3.7205Y-2.4882
X3.7244Y-2.2795
X3.7362Y-3.9961
X3.7657Y-1.5098
X3.7697Y-3.9961
X3.7717Y-2.1102
X3.7736Y-3.1276
X3.7772Y-3.2732
X3.7783Y-2.2937
X3.7783Y-3.3484
X3.7795Y-3.2008
X3.7831Y-2.9957
X3.7844Y-2.7264
X3.7866Y-3.0512
X3.7904Y-2.8573
X3.7992Y-3.5276
X3.7996Y-2.4862
X3.8091Y-3.3961
X3.8098Y-2.2583
X3.811Y-1.9311
X3.8271Y-3.6871
X3.8304Y-2.0923
X3.834Y-3.1811
X3.8366Y-3.1201
X3.8366Y-3.2421
X3.8402Y-2.2913
X3.865Y-3.0437
X3.876Y-1.7382
X3.8787Y-3.3217
X3.8839Y-2.4941
X3.8874Y-2.7012
X3.8917Y-2.939
X3.8969Y-2.7472
X3.9035Y-3.0256
X3.9039Y-1.9264
X3.9165Y-2.0898
X3.9488Y-3.9882
X3.9492Y-2.7011
X3.9587Y-3.3366
X3.9591Y-2.2925
X3.9724Y-3.272
X3.9752Y-3.0772
X3.9882Y-1.9724
X3.9902Y-3.1453
X3.9921Y-3.1811
X3.9941Y-2.0157
X3.9961Y-2.7421
X3.9965Y-2.1398
X4.0063Y-2.0933
X4.0094Y-2.4886
X4.0094Y-3.2083
X4.0122Y-2.6949
X4.0157Y-2.2303
X4.0223Y-1.2519
X4.0307Y-3.1693
X4.0354Y-1.9228
X4.0394Y-2.8346
X4.0394Y-3.3189
X4.0461Y-2.7327
X4.0717Y-2.6669
X4.0717Y-3.174
X4.0728Y-2.4134
X4.0728Y-3.0693
X4.0748Y-3.502
X4.0768Y-2.5118
X4.0886Y-2.624
X4.0984Y-3.4173
X4.1004Y-2.2933
X4.1004Y-2.874
X4.1024Y-2.2008
X4.1094Y-3.5669
X4.1189Y-3.6768
X4.1339Y-3.5
X4.148Y-3.5992
X4.1496Y-3.6898
X4.1516Y-1.9016
X4.152Y-3.8469
X4.1791Y-3.2524
X4.1874Y-1.7698
X4.1949Y-2.7185
X4.1969Y-1.9409
X4.1969Y-2.8051
X4.2008Y-2.565
X4.2157Y-3.2409
X4.2165Y-1.4685
X4.2185Y-2.9744
X4.2185Y-3.1791
X4.2224Y-2.8465
X4.2303Y-3.3563
X4.2303Y-3.7843
X4.2402Y-1.9567
X4.2441Y-3.5807
X4.248Y-2.9016
X4.2638Y-3.4055
X4.2698Y-3.5984
X4.2713Y-3.239
X4.2736Y-3.4567
X4.2835Y-3.6957
X4.2972Y-2.7185
X4.2992Y-2.8051
X4.2992Y-3.4882
X4.3228Y-3.5157
X4.3248Y-3.8327
X4.326Y-3.5677
X4.3268Y-2.2795
X4.3272Y-3.6945
X4.3287Y-3.3268
X4.3445Y-2.7539
X4.3484Y-2.7165
X4.3484Y-3.4429
X4.3563Y-2.9488
X4.3563Y-3.0177
X4.3563Y-3.2894
X4.3583Y-2.5039
X4.372Y-2.689
X4.374Y-2.5748
X4.376Y-3.4685
X4.3822Y-3.7679
X4.4035Y-2.4429
X4.4203Y-3.4731
X4.4256Y-1.8427
X4.4272Y-2.4114
X4.4272Y-2.7972
X4.435Y-2.6201
X4.4409Y-2.748
X4.4449Y-3.4045
X4.4469Y-2.5098
X4.4649Y-1.9962
X4.4724Y-2.4173
X4.4744Y-3.4449
X4.4902Y-3.7874
X4.4961Y-2.4744
X4.5079Y-1.5512
X4.5141Y-1.2482
X4.5217Y-3.313
X4.5236Y-3.7815
X4.5285Y-3.4518
X4.5315Y-3.3945
X4.5382Y-3.3689
X4.5413Y-2.8248
X4.5413Y-3.0157
X4.5433Y-2.9035
X4.5433Y-3.1732
X4.5433Y-3.2382
X4.5437Y-2.5749
X4.5492Y-2.7461
X4.5594Y-3.3098
X4.563Y-2.4813
X4.5778Y-3.4557
X4.5909Y-2.6005
X4.6145Y-2.7049
X4.6171Y-3.4931
X4.6181Y-3.0925
X4.6181Y-3.3957
X4.626Y-2.0649
X4.6362Y-3.7738
X4.6466Y-2.6408
X4.6555Y-2.5433
X4.6614Y-3.5039
X4.6696Y-3.8092
X4.6752Y-3.6949
X4.6764Y-3.7764
X4.6843Y-3.3146
X4.685Y-2.6929
X4.685Y-3.4193
X4.6866Y-3.3799
X4.6988Y-1.9291
X4.6988Y-3.5846
X4.7047Y-3.6811
X4.7087Y-2.5295
X4.7146Y-3.6142
X4.7165Y-3.6516
X4.7185Y-3.7752
X4.7287Y-2.8309
X4.7323Y-2.3583
X4.7444Y-2.7757
X4.7484Y-2.8112
X4.7484Y-3.7
X4.7504Y-1.7757
X4.7559Y-2.5059
X4.7563Y-3.382
X4.7567Y-3.5225
X4.7579Y-2.561
X4.7579Y-2.6358
X4.7582Y-3.0612
X4.7582Y-3.1339
X4.7582Y-3.1714
X4.7582Y-3.2718
X4.7582Y-3.4431
X4.7795Y-2.3878
X4.7854Y-2.0
X4.7913Y-2.1043
X4.7969Y-2.2853
X4.8012Y-3.6134
X4.815Y-2.0374
X4.8268Y-3.2638
X4.8268Y-3.4429
X4.8279Y-3.6965
X4.8287Y-3.5079
X4.8307Y-1.563
X4.8349Y-3.1794
X4.8366Y-3.5472
X4.8425Y-3.0946
X4.8445Y-3.8638
X4.8465Y-2.0138
X4.8465Y-2.935
X4.8505Y-1.2558
X4.8543Y-3.0118
X4.8598Y-3.8992
X4.872Y-2.4173
X4.872Y-3.0374
X4.8744Y-2.2915
X4.876Y-2.4744
X4.878Y-2.8031
X4.8807Y-3.926
X4.8874Y-3.8654
X4.8898Y-2.4449
X4.8898Y-2.6654
X4.9012Y-3.9043
X4.9016Y-2.7618
X4.9016Y-2.8209
X4.9035Y-2.2165
X4.9035Y-3.3907
X4.9035Y-3.4193
X4.9045Y-3.2648
X4.9075Y-3.7362
X4.9134Y-2.4744
X4.9157Y-3.6039
X4.9195Y-2.8702
X4.9236Y-3.8683
X4.9256Y-3.5339
X4.9291Y-2.1023
X4.9291Y-2.5945
X4.9409Y-3.5591
X4.9429Y-3.5118
X4.9452Y-2.2797
X4.9469Y-2.4764
X4.9626Y-2.6535
X4.9646Y-3.6043
X4.9803Y-2.7087
X4.9814Y-2.4764
X4.9814Y-3.0433
X4.9823Y-2.8189
X4.9906Y-3.3681
X4.9984Y-2.8978
X5.0004Y-3.1497
X5.0082Y-3.1083
X5.0082Y-3.2598
X5.0122Y-3.445
X5.0157Y-2.1358
X5.0197Y-2.6555
X5.0217Y-3.4961
X5.024Y-2.5907
X5.0354Y-3.7205
X5.0376Y-2.9017
X5.0441Y-3.4417
X5.0496Y-3.7541
X5.0551Y-3.4685
X5.0555Y-3.3425
X5.061Y-2.7402
X5.0689Y-3.0984
X5.0709Y-2.0689
X5.0709Y-2.4173
X5.0739Y-3.1288
X5.077Y-2.8938
X5.0886Y-3.4193
X5.0964Y-3.3633
X5.0968Y-2.821
X5.1004Y-2.4409
X5.1004Y-2.7303
X5.1024Y-2.874
X5.1161Y-3.4508
X5.1263Y-2.6183
X5.128Y-1.4705
X5.1303Y-1.9253
X5.1378Y-3.7854
X5.1398Y-2.4154
X5.1457Y-1.8012
X5.1457Y-3.126
X5.1457Y-3.3114
X5.1555Y-1.9862
X5.1571Y-2.2518
X5.1578Y-2.7639
X5.1618Y-3.0946
X5.1716Y-3.7856
X5.1742Y-3.4429
X5.1752Y-3.1299
X5.1756Y-2.6379
X5.1772Y-2.439
X5.1854Y-2.8545
X5.189Y-1.8602
X5.2011Y-3.2874
X5.2244Y-2.4134
X5.2264Y-1.9882
X5.2287Y-3.2598
X5.23Y-2.0964
X5.2382Y-2.4429
X5.2449Y-2.1811
X5.2549Y-3.3907
X5.2563Y-2.4883
X5.2615Y-2.0964
X5.2622Y-3.756
X5.2638Y-3.0433
X5.2727Y-2.5127
X5.2736Y-2.4488
X5.2795Y-3.4508
X5.2835Y-1.8248
X5.2878Y-2.5907
X5.2878Y-2.7167
X5.2878Y-2.8427
X5.2878Y-2.886
X5.2913Y-1.9862
X5.2913Y-3.7783
X5.2956Y-2.4765
X5.3091Y-3.4193
X5.3091Y-3.7185
X5.3153Y-2.5316
X5.3193Y-2.4332
X5.3212Y-3.7816
X5.3228Y-1.5394
X5.335Y-3.2029
X5.335Y-3.573
X5.3374Y-3.7425
X5.3425Y-3.6909
X5.3429Y-2.5612
X5.3448Y-3.6025
X5.3504Y-2.0964
X5.3507Y-2.4726
X5.3543Y-3.7701
X5.3563Y-2.6181
X5.3586Y-2.8051
X5.3586Y-2.8387
X5.3626Y-2.5001
X5.3642Y-3.6654
X5.3665Y-2.5407
X5.3665Y-2.5789
X5.3732Y-3.7224
X5.378Y-3.6319
X5.3894Y-3.8772
X5.3925Y-3.7783
X5.4177Y-2.9686
X5.4425Y-3.7472
X5.4449Y-3.6953
X5.4472Y-3.2167
X5.451Y-2.9411
X5.4528Y-3.5276
X5.4551Y-3.382
X5.4571Y-3.6091
X5.4649Y-3.4608
X5.4685Y-2.2638
X5.4707Y-2.9686
X5.474Y-3.7256
X5.4823Y-3.6732
X5.4961Y-3.4193
X5.5012Y-2.4765
X5.5013Y-3.1876
X5.5022Y-2.1437
X5.5106Y-3.3783
X5.5154Y-3.8638
X5.5236Y-3.7717
X5.5315Y-3.9
X5.5412Y-2.6479
X5.5453Y-3.3902
X5.5472Y-2.5256
X5.5528Y-3.7449
X5.5551Y-2.0315
X5.5654Y-3.8587
X5.5681Y-3.8917
X5.5752Y-2.9383
X5.576Y-3.778
X5.5846Y-3.3819
X5.5909Y-3.2364
X5.5965Y-3.1909
X5.5965Y-3.5728
X5.6024Y-3.4882
X5.6027Y-1.2538
X5.6035Y-3.8594
X5.6086Y-1.7285
X5.624Y-3.311
X5.624Y-3.4547
X5.626Y-3.5984
X5.6319Y-2.9449
X5.6342Y-2.4765
X5.6476Y-3.4744
X5.6696Y-3.5311
X5.6831Y-3.7303
X5.685Y-2.939
X5.6909Y-2.187
X5.6949Y-3.4862
X5.7011Y-2.6478
X5.713Y-3.756
X5.7205Y-3.4646
X5.7208Y-1.9253
X5.7382Y-2.9135
X5.7598Y-2.7146
X5.7681Y-2.8427
X5.7697Y-2.002
X5.7736Y-3.4646
X5.7889Y-2.273
X5.7973Y-2.3545
X5.7996Y-1.5415
X5.8035Y-3.7659
X5.8156Y-1.9246
X5.8178Y-1.3128
X5.8209Y-2.6654
X5.8228Y-3.313
X5.8268Y-3.7856
X5.8316Y-2.1486
X5.8317Y-3.4094
X5.8386Y-3.4498
X5.8429Y-2.9214
X5.8488Y-3.2127
X5.8626Y-2.8427
X5.8654Y-3.313
X5.8776Y-2.0786
X5.8896Y-1.5586
X5.9016Y-3.2047
X5.9016Y-3.4646
X5.9122Y-1.8105
X5.9156Y-3.1694
X5.9177Y-3.7541
X5.9216Y-1.4175
X5.9301Y-3.4852
X5.9311Y-2.6437
X5.94Y-3.1525
X5.9433Y-2.9214
X5.9587Y-3.5413
X5.9601Y-3.0533
X5.9689Y-3.7815
X5.9776Y-1.7506
X5.9787Y-3.7413
X5.9843Y-3.0809
X5.9866Y-3.3732
X5.9878Y-3.3165
X5.9882Y-3.4094
X5.9882Y-3.7087
X5.9969Y-3.813
X5.9972Y-1.4386
X6.0067Y-3.7728
X6.0141Y-3.0809
X6.0157Y-3.5945
X6.0201Y-3.739
X6.0283Y-3.7972
X6.0295Y-3.622
X6.0315Y-3.6831
X6.0316Y-2.1506
X6.0397Y-3.0966
X6.0472Y-3.6516
X6.0516Y-3.7618
X6.061Y-3.7268
X6.0711Y-1.7791
X6.0736Y-1.2566
X6.0752Y-3.902
X6.0756Y-3.9421
X6.0817Y-2.1043
X6.0929Y-1.5425
X6.0945Y-3.8677
X6.0972Y-3.7539
X6.0985Y-3.5413
X6.1043Y-3.6496
X6.1086Y-2.9234
X6.1087Y-3.4335
X6.1122Y-3.3868
X6.1142Y-3.7067
X6.1156Y-2.1806
X6.1161Y-3.252
X6.1177Y-3.9571
X6.1366Y-3.7433
X6.1417Y-4.0217
X6.1421Y-2.8427
X6.1476Y-3.2205
X6.1555Y-2.622
X6.1587Y-3.2705
X6.1594Y-3.5374
X6.1608Y-1.8034
X6.1673Y-3.0571
X6.1691Y-2.1552
X6.1732Y-3.435
X6.1774Y-3.7031
X6.1776Y-3.7453
X6.1776Y-3.961
X6.189Y-3.124
X6.1909Y-2.622
X6.1909Y-3.0866
X6.1925Y-3.8669
X6.1935Y-1.643
X6.2016Y-1.4526
X6.2028Y-3.3435
X6.2047Y-3.1791
X6.2047Y-3.4094
X6.2106Y-2.2638
X6.2146Y-3.7642
X6.2185Y-2.9213
X6.2244Y-3.8976
X6.2286Y-1.7168
X6.2346Y-3.4339
X6.2396Y-1.2966
X6.2421Y-3.3602
X6.25Y-3.4587
X6.252Y-3.2638
X6.2528Y-3.7315
X6.2539Y-1.5354
X6.2555Y-3.7732
X6.2579Y-2.1909
X6.2657Y-3.3169
X6.2657Y-3.622
X6.2661Y-3.8547
X6.2677Y-1.8071
X6.2736Y-2.8425
X6.2736Y-3.1476
X6.2736Y-3.5453
X6.2953Y-3.6024
X6.2972Y-2.5236
X6.2972Y-3.5138
X6.2996Y-2.0896
X6.3169Y-1.6772
X6.3228Y-2.9726
X6.3248Y-3.5354
X6.3251Y-1.2672
X6.3296Y-2.0512
X6.3296Y-2.2835
X6.3445Y-3.7205
X6.3484Y-3.4844
X6.3504Y-2.4488
X6.3596Y-2.3031
X6.3685Y-3.7521
X6.3701Y-2.9724
X6.374Y-2.5315
X6.3822Y-3.4626
X6.3957Y-1.876
X6.4154Y-1.9508
X6.4173Y-1.8425
X6.4211Y-1.3932
X6.4291Y-2.311
X6.4315Y-2.4253
X6.4346Y-1.7786
X6.4419Y-3.4537
X6.4433Y-3.287
X6.4549Y-1.5551
X6.457Y-3.1773
X6.4596Y-2.1792
X6.461Y-3.0001
X6.461Y-3.0592
X6.4649Y-3.7738
X6.4728Y-2.5395
X6.4728Y-2.9201
X6.4734Y-3.4341
X6.4774Y-2.1102
X6.4826Y-2.447
X6.4905Y-3.7895
X6.4941Y-3.3563
X6.4961Y-3.4118
X6.5079Y-1.9134
X6.5098Y-3.4567
X6.5102Y-3.2305
X6.5246Y-2.3036
X6.5293Y-1.7227
X6.5319Y-1.8352
X6.5364Y-2.1912
X6.5364Y-1.9675
X6.5591Y-1.812
X6.563Y-1.4528
X6.5728Y-3.0551
X6.5732Y-3.1773
X6.5748Y-2.0286
X6.5756Y-3.3555
X6.5771Y-3.2816
X6.5778Y-3.3878
X6.5791Y-3.0001
X6.5797Y-2.1072
X6.5829Y-1.9066
X6.587Y-3.756
X6.6067Y-2.9175
X6.6067Y-3.4606
X6.6327Y-3.7764
X6.6339Y-3.435
X6.6339Y-3.7106
X6.6354Y-3.3598
X6.6362Y-3.3264
X6.6374Y-3.3937
X6.648Y-3.8072
X6.6484Y-1.7451
X6.6571Y-2.2012
X6.6594Y-3.7457
X6.6614Y-1.5394
X6.6618Y-2.8602
X6.6618Y-3.5748
X6.665Y-3.7783
X6.6654Y-3.6063
X6.6724Y-3.6988
X6.6831Y-3.8209
X6.685Y-2.6812
X6.6902Y-3.7386
X6.6972Y-2.6458
X6.7008Y-3.6201
X6.7063Y-3.7783
X6.7091Y-1.2612
X6.7169Y-3.7196
X6.7219Y-1.8936
X6.724Y-3.8083
X6.7264Y-3.6713
X6.7267Y-2.5946
X6.7283Y-3.6339
X6.7362Y-3.7484
X6.7444Y-3.9568
X6.752Y-2.569
X6.7546Y-1.5336
X6.7546Y-1.7436
X6.7555Y-3.7012
X6.7669Y-3.7764
X6.7776Y-3.3287
X6.7791Y-3.5201
X6.7791Y-3.5583
X6.7795Y-2.3209
X6.7795Y-4.0236
X6.7799Y-3.4864
X6.7799Y-3.5953
X6.7799Y-3.7311
X6.7815Y-3.6374
X6.7823Y-3.678
X6.7826Y-2.9114
X6.7898Y-3.4051
X6.7933Y-3.3602
X6.7956Y-3.0592
X6.7984Y-3.439
X6.8043Y-3.4728
X6.8074Y-2.0238
X6.8106Y-3.5406
X6.8106Y-3.6157
X6.811Y-2.5965
X6.8122Y-3.5008
X6.813Y-2.8602
X6.815Y-2.3051
X6.815Y-2.9114
X6.815Y-3.7421
X6.8153Y-2.4431
X6.8244Y-3.6705
X6.8425Y-3.6004
X6.8429Y-1.9686
X6.8696Y-1.4586
X6.8704Y-2.445
X6.8704Y-2.5513
X6.8704Y-2.6222
X6.8704Y-3.437
X6.872Y-3.8307
X6.8941Y-2.4017
X6.8941Y-3.4882
X6.9177Y-2.3781
X6.9193Y-3.4646
X6.9213Y-2.3425
X6.9256Y-3.5257
X6.9425Y-2.8646
X6.9449Y-3.0277
X6.9449Y-3.3366
X6.9449Y-3.4094
X6.9665Y-2.6516
X6.9685Y-2.5453
X6.9689Y-2.7167
X6.9882Y-3.4114
X6.9921Y-2.512
X6.9921Y-2.9213
X7.0039Y-3.2854
X7.0059Y-3.5138
X7.0138Y-3.1988
X7.0157Y-2.4803
X7.0157Y-2.8583
X7.0358Y-1.2718
X7.0358Y-2.01
X7.0374Y-3.0531
X7.0394Y-2.8307
X7.0394Y-3.0039
X7.0413Y-2.7106
X7.0437Y-1.6931
X7.0453Y-3.187
X7.0554Y-2.4121
X7.0689Y-2.6791
X7.0768Y-3.2874
X7.0866Y-3.8051
X7.0925Y-2.813
X7.0925Y-3.0531
X7.1024Y-3.7736
X7.128Y-3.0551
X7.128Y-3.6594
X7.1339Y-3.439
X7.1417Y-2.75
X7.1673Y-3.0531
X7.1691Y-2.3669
X7.1693Y-3.5177
X7.1696Y-1.8921
X7.1696Y-2.5586
X7.1811Y-3.437
X7.1841Y-1.2402
X7.187Y-2.7205
X7.1909Y-3.2972
X7.2087Y-3.3366
X7.2185Y-2.9764
X7.2205Y-2.7795
X7.2205Y-3.124
X7.2362Y-3.3957
X7.2421Y-3.435
X7.2539Y-3.1949
X7.2539Y-3.2303
X7.2598Y-2.185
X7.2598Y-2.8346
X7.2618Y-2.115
X7.2638Y-1.499
X7.2657Y-3.8268
X7.2799Y-2.7659
X7.2815Y-1.8789
X7.2835Y-2.3957
X7.2854Y-3.7972
X7.2913Y-3.3366
X7.315Y-3.7756
X7.3152Y-2.7231
X7.3327Y-3.1909
X7.3445Y-3.2539
X7.3465Y-3.3012
X7.3465Y-3.8524
X7.3602Y-3.0277
X7.368Y-3.9923
X7.376Y-3.8583
X7.3778Y-2.0756
X7.3819Y-2.2539
X7.3878Y-3.3327
X7.3878Y-3.3602
X7.3878Y-3.3878
X7.3937Y-3.9665
X7.3941Y-1.9608
X7.3976Y-3.7343
X7.4014Y-2.4772
X7.4016Y-3.1654
X7.4035Y-3.5138
X7.4075Y-3.4331
X7.4222Y-1.5217
X7.4409Y-3.3405
X7.4488Y-3.4567
X7.4528Y-3.6654
X7.4557Y-2.378
X7.4606Y-3.0571
X7.4862Y-3.6496
X7.498Y-2.9921
X7.5033Y-1.7165
X7.5256Y-3.6634
X7.5512Y-3.9744
X7.5689Y-3.0591
X7.5786Y-2.111
X7.5876Y-1.3789
X7.5965Y-1.9183
X7.6014Y-1.7057
X7.6063Y-3.4724
X7.6224Y-3.0671
X7.6368Y-1.3809
X7.6534Y-2.3984
X7.6573Y-2.174
X7.6594Y-2.998
X7.6618Y-2.886
X7.6732Y-4.0098
X7.6933Y-1.949
X7.7169Y-3.0277
X7.747Y-1.5128
X7.7677Y-1.689
X7.7717Y-3.8268
X7.7912Y-2.4063
X7.7991Y-2.2724
X7.803Y-2.1819
X7.8045Y-2.0001
X7.8252Y-3.2521
X7.8291Y-2.8899
X7.8704Y-3.0592
X7.8929Y-2.2957
X7.8933Y-2.5686
X7.8935Y-2.1701
X7.9453Y-1.4311
X7.9453Y-1.5059
X7.9665Y-3.9803
X7.9807Y-2.7364
X7.9826Y-3.7531
X7.9964Y-3.0159
T3
X3.583Y-3.9529
X3.587Y-3.8072
X3.5909Y-3.886
X3.6342Y-3.9529
X3.6381Y-3.8072
X3.6421Y-3.886
X3.6893Y-3.9529
X3.6933Y-3.8072
X3.6972Y-3.886
T5
X3.9677Y-3.615
X3.9677Y-3.7134
X4.7878Y-3.8099
X4.7878Y-3.9083
X5.459Y-3.8033
X5.459Y-3.9017
X6.146Y-3.8112
X6.146Y-3.9096
T6
X3.6024Y-1.8268
X3.9783Y-3.4252
X4.2421Y-2.7618
X4.4965Y-2.1683
X4.4965Y-2.2683
X4.5965Y-2.1683
X4.5965Y-2.2683
X4.6965Y-2.1683
X4.6965Y-2.2683
X5.0571Y-1.7047
X6.9748Y-2.1891
T7
X3.7045Y-1.391
X3.8423Y-1.391
X4.3033Y-4.105
X4.4411Y-4.105
X4.5789Y-4.105
X4.7167Y-4.105
X4.9568Y-4.1049
X5.0946Y-4.1049
X5.2324Y-4.1049
X5.3702Y-4.1049
X5.3778Y-1.391
X5.5156Y-1.391
X5.6104Y-4.105
X5.7482Y-4.105
X5.886Y-4.105
X6.0238Y-4.105
X6.2639Y-4.1049
X6.4017Y-4.1049
X6.5395Y-4.1049
X6.6773Y-4.1049
T4
G00X7.4276Y-1.252
M15
G01X7.4276Y-1.2205
M16
G05
G00X7.4276Y-1.4224
M15
G01X7.4276Y-1.3791
M16
G05
G00X7.7677Y-1.252
M15
G01X7.7677Y-1.2205
M16
G05
G00X7.7677Y-1.4224
M15
G01X7.7677Y-1.3791
M16
G05
M30
