%TF.GenerationSoftware,KiCad,Pcbnew,9.0.7*%
%TF.CreationDate,2026-04-16T18:18:56+01:00*%
%TF.ProjectId,stepper driver,73746570-7065-4722-9064-72697665722e,rev?*%
%TF.SameCoordinates,Original*%
%TF.FileFunction,Paste,Bot*%
%TF.FilePolarity,Positive*%
%FSLAX46Y46*%
G04 Gerber Fmt 4.6, Leading zero omitted, Abs format (unit mm)*
G04 Created by KiCad (PCBNEW 9.0.7) date 2026-04-16 18:18:56*
%MOMM*%
%LPD*%
G01*
G04 APERTURE LIST*
G04 Aperture macros list*
%AMRoundRect*
0 Rectangle with rounded corners*
0 $1 Rounding radius*
0 $2 $3 $4 $5 $6 $7 $8 $9 X,Y pos of 4 corners*
0 Add a 4 corners polygon primitive as box body*
4,1,4,$2,$3,$4,$5,$6,$7,$8,$9,$2,$3,0*
0 Add four circle primitives for the rounded corners*
1,1,$1+$1,$2,$3*
1,1,$1+$1,$4,$5*
1,1,$1+$1,$6,$7*
1,1,$1+$1,$8,$9*
0 Add four rect primitives between the rounded corners*
20,1,$1+$1,$2,$3,$4,$5,0*
20,1,$1+$1,$4,$5,$6,$7,0*
20,1,$1+$1,$6,$7,$8,$9,0*
20,1,$1+$1,$8,$9,$2,$3,0*%
G04 Aperture macros list end*
%ADD10RoundRect,0.140000X-0.170000X0.140000X-0.170000X-0.140000X0.170000X-0.140000X0.170000X0.140000X0*%
%ADD11RoundRect,0.150000X0.150000X-0.587500X0.150000X0.587500X-0.150000X0.587500X-0.150000X-0.587500X0*%
%ADD12RoundRect,0.140000X0.170000X-0.140000X0.170000X0.140000X-0.170000X0.140000X-0.170000X-0.140000X0*%
%ADD13RoundRect,0.135000X-0.135000X-0.185000X0.135000X-0.185000X0.135000X0.185000X-0.135000X0.185000X0*%
%ADD14RoundRect,0.135000X0.135000X0.185000X-0.135000X0.185000X-0.135000X-0.185000X0.135000X-0.185000X0*%
%ADD15RoundRect,0.150000X-0.150000X0.587500X-0.150000X-0.587500X0.150000X-0.587500X0.150000X0.587500X0*%
%TA.AperFunction,Profile*%
%ADD16C,0.200000*%
%TD*%
G04 APERTURE END LIST*
D10*
%TO.C,C63*%
X109312000Y-100220000D03*
X109312000Y-101180000D03*
%TD*%
D11*
%TO.C,Q7*%
X186150000Y-91387500D03*
X184250000Y-91387500D03*
X185200000Y-89512500D03*
%TD*%
D12*
%TO.C,C44*%
X115309010Y-97903600D03*
X115309010Y-96943600D03*
%TD*%
D10*
%TO.C,C65*%
X112800000Y-100220000D03*
X112800000Y-101180000D03*
%TD*%
D11*
%TO.C,Q10*%
X190150000Y-91387500D03*
X188250000Y-91387500D03*
X189200000Y-89512500D03*
%TD*%
D12*
%TO.C,C76*%
X163800000Y-97903600D03*
X163800000Y-96943600D03*
%TD*%
D10*
%TO.C,C89*%
X166200000Y-100120000D03*
X166200000Y-101080000D03*
%TD*%
D12*
%TO.C,C72*%
X145409010Y-97903600D03*
X145409010Y-96943600D03*
%TD*%
D13*
%TO.C,R42*%
X193140000Y-94233900D03*
X194160000Y-94233900D03*
%TD*%
D14*
%TO.C,R21*%
X176960000Y-83187500D03*
X175940000Y-83187500D03*
%TD*%
D11*
%TO.C,Q8*%
X182150000Y-91387500D03*
X180250000Y-91387500D03*
X181200000Y-89512500D03*
%TD*%
D10*
%TO.C,C86*%
X153000000Y-100120000D03*
X153000000Y-101080000D03*
%TD*%
%TO.C,C90*%
X142600000Y-100120000D03*
X142600000Y-101080000D03*
%TD*%
D12*
%TO.C,C73*%
X150309010Y-97903600D03*
X150309010Y-96943600D03*
%TD*%
D15*
%TO.C,Q6*%
X171900000Y-78925000D03*
X173800000Y-78925000D03*
X172850000Y-80800000D03*
%TD*%
D10*
%TO.C,C92*%
X146000000Y-100120000D03*
X146000000Y-101080000D03*
%TD*%
D14*
%TO.C,R53*%
X124560000Y-89100000D03*
X123540000Y-89100000D03*
%TD*%
D12*
%TO.C,C45*%
X111859010Y-97903600D03*
X111859010Y-96943600D03*
%TD*%
D10*
%TO.C,C59*%
X119900000Y-100220000D03*
X119900000Y-101180000D03*
%TD*%
%TO.C,C91*%
X159100000Y-100120000D03*
X159100000Y-101080000D03*
%TD*%
D13*
%TO.C,R36*%
X185190000Y-86400000D03*
X186210000Y-86400000D03*
%TD*%
D14*
%TO.C,R64*%
X141210000Y-88600000D03*
X140190000Y-88600000D03*
%TD*%
D15*
%TO.C,Q5*%
X180343200Y-78928490D03*
X182243200Y-78928490D03*
X181293200Y-80803490D03*
%TD*%
D10*
%TO.C,C66*%
X129288000Y-100120000D03*
X129288000Y-101080000D03*
%TD*%
D13*
%TO.C,R26*%
X176340000Y-75811560D03*
X177360000Y-75811560D03*
%TD*%
%TO.C,R52*%
X106290000Y-87800000D03*
X107310000Y-87800000D03*
%TD*%
D12*
%TO.C,C48*%
X130159010Y-97903600D03*
X130159010Y-96943600D03*
%TD*%
%TO.C,C50*%
X133659010Y-97903600D03*
X133659010Y-96943600D03*
%TD*%
D13*
%TO.C,R22*%
X192190000Y-76100000D03*
X193210000Y-76100000D03*
%TD*%
D12*
%TO.C,C78*%
X162200000Y-97903600D03*
X162200000Y-96943600D03*
%TD*%
%TO.C,C71*%
X148509010Y-97903600D03*
X148509010Y-96943600D03*
%TD*%
D14*
%TO.C,R62*%
X141160000Y-92500000D03*
X140140000Y-92500000D03*
%TD*%
%TO.C,R63*%
X158610000Y-93000000D03*
X157590000Y-93000000D03*
%TD*%
D13*
%TO.C,R31*%
X171930000Y-75811560D03*
X172950000Y-75811560D03*
%TD*%
%TO.C,R38*%
X185040000Y-94233900D03*
X186060000Y-94233900D03*
%TD*%
D12*
%TO.C,C77*%
X166800000Y-97903600D03*
X166800000Y-96943600D03*
%TD*%
D13*
%TO.C,R67*%
X157590000Y-90900000D03*
X158610000Y-90900000D03*
%TD*%
D14*
%TO.C,R20*%
X189210000Y-83100000D03*
X188190000Y-83100000D03*
%TD*%
D12*
%TO.C,C49*%
X131659010Y-97903600D03*
X131659010Y-96943600D03*
%TD*%
D13*
%TO.C,R41*%
X189190000Y-86400000D03*
X190210000Y-86400000D03*
%TD*%
D10*
%TO.C,C62*%
X132900000Y-100120000D03*
X132900000Y-101080000D03*
%TD*%
D13*
%TO.C,R54*%
X106290000Y-90000000D03*
X107310000Y-90000000D03*
%TD*%
D10*
%TO.C,C87*%
X169688000Y-100120000D03*
X169688000Y-101080000D03*
%TD*%
D14*
%TO.C,R51*%
X124560000Y-92500000D03*
X123540000Y-92500000D03*
%TD*%
D11*
%TO.C,Q9*%
X194150000Y-91387500D03*
X192250000Y-91387500D03*
X193200000Y-89512500D03*
%TD*%
D12*
%TO.C,C70*%
X147109010Y-97903600D03*
X147109010Y-96943600D03*
%TD*%
D13*
%TO.C,R28*%
X181340000Y-82900000D03*
X182360000Y-82900000D03*
%TD*%
D12*
%TO.C,C75*%
X165400000Y-97903600D03*
X165400000Y-96943600D03*
%TD*%
D15*
%TO.C,Q4*%
X176350000Y-78925000D03*
X178250000Y-78925000D03*
X177300000Y-80800000D03*
%TD*%
D14*
%TO.C,R55*%
X124560000Y-90700000D03*
X123540000Y-90700000D03*
%TD*%
D13*
%TO.C,R37*%
X181140000Y-86200000D03*
X182160000Y-86200000D03*
%TD*%
%TO.C,R43*%
X189090000Y-94233900D03*
X190110000Y-94233900D03*
%TD*%
%TO.C,R40*%
X193190000Y-86450000D03*
X194210000Y-86450000D03*
%TD*%
D10*
%TO.C,C88*%
X149500000Y-100120000D03*
X149500000Y-101080000D03*
%TD*%
D13*
%TO.C,R30*%
X180290000Y-75811560D03*
X181310000Y-75811560D03*
%TD*%
%TO.C,R39*%
X181090000Y-94233900D03*
X182110000Y-94233900D03*
%TD*%
D10*
%TO.C,C60*%
X136400000Y-100120000D03*
X136400000Y-101080000D03*
%TD*%
D14*
%TO.C,R50*%
X107660000Y-92550000D03*
X106640000Y-92550000D03*
%TD*%
D15*
%TO.C,Q2*%
X188250000Y-79112500D03*
X190150000Y-79112500D03*
X189200000Y-80987500D03*
%TD*%
D14*
%TO.C,R66*%
X141210000Y-90750000D03*
X140190000Y-90750000D03*
%TD*%
D10*
%TO.C,C93*%
X162700000Y-100120000D03*
X162700000Y-101080000D03*
%TD*%
D15*
%TO.C,Q3*%
X184350000Y-79012500D03*
X186250000Y-79012500D03*
X185300000Y-80887500D03*
%TD*%
D14*
%TO.C,R29*%
X172850000Y-83187500D03*
X171830000Y-83187500D03*
%TD*%
D12*
%TO.C,C43*%
X117109010Y-97903600D03*
X117109010Y-96943600D03*
%TD*%
D10*
%TO.C,C61*%
X116300000Y-100220000D03*
X116300000Y-101180000D03*
%TD*%
%TO.C,C64*%
X125900000Y-100120000D03*
X125900000Y-101080000D03*
%TD*%
D14*
%TO.C,R18*%
X193210000Y-83100000D03*
X192190000Y-83100000D03*
%TD*%
D15*
%TO.C,Q1*%
X192250000Y-79150000D03*
X194150000Y-79150000D03*
X193200000Y-81025000D03*
%TD*%
D13*
%TO.C,R24*%
X184390000Y-75874060D03*
X185410000Y-75874060D03*
%TD*%
%TO.C,R23*%
X188290000Y-75974060D03*
X189310000Y-75974060D03*
%TD*%
D12*
%TO.C,C47*%
X128259010Y-97903600D03*
X128259010Y-96943600D03*
%TD*%
D13*
%TO.C,R65*%
X157590000Y-89250000D03*
X158610000Y-89250000D03*
%TD*%
D12*
%TO.C,C42*%
X113559010Y-97903600D03*
X113559010Y-96943600D03*
%TD*%
D13*
%TO.C,R19*%
X184390000Y-83200000D03*
X185410000Y-83200000D03*
%TD*%
D16*
X204400000Y-110000000D02*
X197400000Y-110000000D01*
X87000000Y-104200000D02*
X87000000Y-110000000D01*
X88200000Y-103000000D02*
X105800000Y-103000000D01*
X197400000Y-104400000D02*
X197400000Y-110000000D01*
X204400000Y-110000000D02*
X204400000Y-30800000D01*
X88200000Y-103000000D02*
X87000000Y-104200000D01*
X107200000Y-109400000D02*
X107800000Y-110000000D01*
X81270000Y-29600000D02*
X203200000Y-29600000D01*
X173100000Y-103200000D02*
X171900000Y-104400000D01*
X171900000Y-109200000D02*
X171900000Y-104400000D01*
X107200000Y-104400000D02*
X105800000Y-103000000D01*
X107800000Y-110000000D02*
X171100000Y-110000000D01*
X80000000Y-110000000D02*
X87000000Y-110000000D01*
X107200000Y-104400000D02*
X107200000Y-109400000D01*
X196200000Y-103200000D02*
X197400000Y-104400000D01*
X80000000Y-30887000D02*
X80000000Y-110000000D01*
X173100000Y-103200000D02*
X196200000Y-103200000D01*
X204400000Y-30800000D02*
X203200000Y-29600000D01*
X171100000Y-110000000D02*
X171900000Y-109200000D01*
X80000000Y-30887000D02*
X81270000Y-29600000D01*
M02*
