%TF.GenerationSoftware,KiCad,Pcbnew,9.0.7*%
%TF.CreationDate,2026-04-16T10:12:13+01:00*%
%TF.ProjectId,stepper driver,73746570-7065-4722-9064-72697665722e,rev?*%
%TF.SameCoordinates,Original*%
%TF.FileFunction,Drillmap*%
%TF.FilePolarity,Positive*%
%FSLAX45Y45*%
G04 Gerber Fmt 4.5, Leading zero omitted, Abs format (unit mm)*
G04 Created by KiCad (PCBNEW 9.0.7) date 2026-04-16 10:12:13*
%MOMM*%
%LPD*%
G01*
G04 APERTURE LIST*
%ADD10C,0.200000*%
%ADD11C,0.100000*%
%ADD12C,0.160000*%
G04 APERTURE END LIST*
D10*
X20440000Y-11000000D02*
X19740000Y-11000000D01*
X8700000Y-10420000D02*
X8700000Y-11000000D01*
X8820000Y-10300000D02*
X10580000Y-10300000D01*
X19740000Y-10440000D02*
X19740000Y-11000000D01*
X20440000Y-11000000D02*
X20440000Y-3080000D01*
X8820000Y-10300000D02*
X8700000Y-10420000D01*
X10720000Y-10940000D02*
X10780000Y-11000000D01*
X8127000Y-2960000D02*
X20320000Y-2960000D01*
X17310000Y-10320000D02*
X17190000Y-10440000D01*
X17190000Y-10920000D02*
X17190000Y-10440000D01*
X10720000Y-10440000D02*
X10580000Y-10300000D01*
X10780000Y-11000000D02*
X17110000Y-11000000D01*
X8000000Y-11000000D02*
X8700000Y-11000000D01*
X10720000Y-10440000D02*
X10720000Y-10940000D01*
X19620000Y-10320000D02*
X19740000Y-10440000D01*
X8000000Y-3088700D02*
X8000000Y-11000000D01*
X17310000Y-10320000D02*
X19620000Y-10320000D01*
X20440000Y-3080000D02*
X20320000Y-2960000D01*
X17110000Y-11000000D02*
X17190000Y-10920000D01*
X8000000Y-3088700D02*
X8127000Y-2960000D01*
D11*
X18976500Y-3475500D02*
X19041500Y-3540500D01*
X19041500Y-3475500D02*
X18976500Y-3540500D01*
X19554500Y-3475500D02*
X19619500Y-3540500D01*
X19619500Y-3475500D02*
X19554500Y-3540500D01*
D12*
X15505360Y-3415160D02*
G75*
G02*
X15345360Y-3415160I-80000J0D01*
G01*
X15345360Y-3415160D02*
G75*
G02*
X15505360Y-3415160I80000J0D01*
G01*
X15505360Y-4115160D02*
G75*
G02*
X15345360Y-4115160I-80000J0D01*
G01*
X15345360Y-4115160D02*
G75*
G02*
X15505360Y-4115160I80000J0D01*
G01*
X16755360Y-3415160D02*
G75*
G02*
X16595360Y-3415160I-80000J0D01*
G01*
X16595360Y-3415160D02*
G75*
G02*
X16755360Y-3415160I80000J0D01*
G01*
X16755360Y-4115160D02*
G75*
G02*
X16595360Y-4115160I-80000J0D01*
G01*
X16595360Y-4115160D02*
G75*
G02*
X16755360Y-4115160I80000J0D01*
G01*
D10*
X8250777Y-11321484D02*
X8250777Y-11121484D01*
X8250777Y-11121484D02*
X8298396Y-11121484D01*
X8298396Y-11121484D02*
X8326967Y-11131008D01*
X8326967Y-11131008D02*
X8346015Y-11150055D01*
X8346015Y-11150055D02*
X8355539Y-11169103D01*
X8355539Y-11169103D02*
X8365062Y-11207198D01*
X8365062Y-11207198D02*
X8365062Y-11235769D01*
X8365062Y-11235769D02*
X8355539Y-11273865D01*
X8355539Y-11273865D02*
X8346015Y-11292912D01*
X8346015Y-11292912D02*
X8326967Y-11311960D01*
X8326967Y-11311960D02*
X8298396Y-11321484D01*
X8298396Y-11321484D02*
X8250777Y-11321484D01*
X8450777Y-11321484D02*
X8450777Y-11188150D01*
X8450777Y-11226246D02*
X8460301Y-11207198D01*
X8460301Y-11207198D02*
X8469824Y-11197674D01*
X8469824Y-11197674D02*
X8488872Y-11188150D01*
X8488872Y-11188150D02*
X8507920Y-11188150D01*
X8574586Y-11321484D02*
X8574586Y-11188150D01*
X8574586Y-11121484D02*
X8565063Y-11131008D01*
X8565063Y-11131008D02*
X8574586Y-11140531D01*
X8574586Y-11140531D02*
X8584110Y-11131008D01*
X8584110Y-11131008D02*
X8574586Y-11121484D01*
X8574586Y-11121484D02*
X8574586Y-11140531D01*
X8698396Y-11321484D02*
X8679348Y-11311960D01*
X8679348Y-11311960D02*
X8669824Y-11292912D01*
X8669824Y-11292912D02*
X8669824Y-11121484D01*
X8803158Y-11321484D02*
X8784110Y-11311960D01*
X8784110Y-11311960D02*
X8774586Y-11292912D01*
X8774586Y-11292912D02*
X8774586Y-11121484D01*
X9031729Y-11321484D02*
X9031729Y-11121484D01*
X9031729Y-11121484D02*
X9098396Y-11264341D01*
X9098396Y-11264341D02*
X9165063Y-11121484D01*
X9165063Y-11121484D02*
X9165063Y-11321484D01*
X9346015Y-11321484D02*
X9346015Y-11216722D01*
X9346015Y-11216722D02*
X9336491Y-11197674D01*
X9336491Y-11197674D02*
X9317444Y-11188150D01*
X9317444Y-11188150D02*
X9279348Y-11188150D01*
X9279348Y-11188150D02*
X9260301Y-11197674D01*
X9346015Y-11311960D02*
X9326967Y-11321484D01*
X9326967Y-11321484D02*
X9279348Y-11321484D01*
X9279348Y-11321484D02*
X9260301Y-11311960D01*
X9260301Y-11311960D02*
X9250777Y-11292912D01*
X9250777Y-11292912D02*
X9250777Y-11273865D01*
X9250777Y-11273865D02*
X9260301Y-11254817D01*
X9260301Y-11254817D02*
X9279348Y-11245293D01*
X9279348Y-11245293D02*
X9326967Y-11245293D01*
X9326967Y-11245293D02*
X9346015Y-11235769D01*
X9441253Y-11188150D02*
X9441253Y-11388150D01*
X9441253Y-11197674D02*
X9460301Y-11188150D01*
X9460301Y-11188150D02*
X9498396Y-11188150D01*
X9498396Y-11188150D02*
X9517444Y-11197674D01*
X9517444Y-11197674D02*
X9526967Y-11207198D01*
X9526967Y-11207198D02*
X9536491Y-11226246D01*
X9536491Y-11226246D02*
X9536491Y-11283388D01*
X9536491Y-11283388D02*
X9526967Y-11302436D01*
X9526967Y-11302436D02*
X9517444Y-11311960D01*
X9517444Y-11311960D02*
X9498396Y-11321484D01*
X9498396Y-11321484D02*
X9460301Y-11321484D01*
X9460301Y-11321484D02*
X9441253Y-11311960D01*
X9622205Y-11302436D02*
X9631729Y-11311960D01*
X9631729Y-11311960D02*
X9622205Y-11321484D01*
X9622205Y-11321484D02*
X9612682Y-11311960D01*
X9612682Y-11311960D02*
X9622205Y-11302436D01*
X9622205Y-11302436D02*
X9622205Y-11321484D01*
X9622205Y-11197674D02*
X9631729Y-11207198D01*
X9631729Y-11207198D02*
X9622205Y-11216722D01*
X9622205Y-11216722D02*
X9612682Y-11207198D01*
X9612682Y-11207198D02*
X9622205Y-11197674D01*
X9622205Y-11197674D02*
X9622205Y-11216722D01*
D11*
X7925000Y-11617500D02*
X7990000Y-11682500D01*
X7990000Y-11617500D02*
X7925000Y-11682500D01*
D10*
X8288872Y-11541484D02*
X8307920Y-11541484D01*
X8307920Y-11541484D02*
X8326967Y-11551008D01*
X8326967Y-11551008D02*
X8336491Y-11560531D01*
X8336491Y-11560531D02*
X8346015Y-11579579D01*
X8346015Y-11579579D02*
X8355539Y-11617674D01*
X8355539Y-11617674D02*
X8355539Y-11665293D01*
X8355539Y-11665293D02*
X8346015Y-11703388D01*
X8346015Y-11703388D02*
X8336491Y-11722436D01*
X8336491Y-11722436D02*
X8326967Y-11731960D01*
X8326967Y-11731960D02*
X8307920Y-11741484D01*
X8307920Y-11741484D02*
X8288872Y-11741484D01*
X8288872Y-11741484D02*
X8269824Y-11731960D01*
X8269824Y-11731960D02*
X8260301Y-11722436D01*
X8260301Y-11722436D02*
X8250777Y-11703388D01*
X8250777Y-11703388D02*
X8241253Y-11665293D01*
X8241253Y-11665293D02*
X8241253Y-11617674D01*
X8241253Y-11617674D02*
X8250777Y-11579579D01*
X8250777Y-11579579D02*
X8260301Y-11560531D01*
X8260301Y-11560531D02*
X8269824Y-11551008D01*
X8269824Y-11551008D02*
X8288872Y-11541484D01*
X8441253Y-11722436D02*
X8450777Y-11731960D01*
X8450777Y-11731960D02*
X8441253Y-11741484D01*
X8441253Y-11741484D02*
X8431729Y-11731960D01*
X8431729Y-11731960D02*
X8441253Y-11722436D01*
X8441253Y-11722436D02*
X8441253Y-11741484D01*
X8622205Y-11541484D02*
X8584110Y-11541484D01*
X8584110Y-11541484D02*
X8565063Y-11551008D01*
X8565063Y-11551008D02*
X8555539Y-11560531D01*
X8555539Y-11560531D02*
X8536491Y-11589103D01*
X8536491Y-11589103D02*
X8526967Y-11627198D01*
X8526967Y-11627198D02*
X8526967Y-11703388D01*
X8526967Y-11703388D02*
X8536491Y-11722436D01*
X8536491Y-11722436D02*
X8546015Y-11731960D01*
X8546015Y-11731960D02*
X8565063Y-11741484D01*
X8565063Y-11741484D02*
X8603158Y-11741484D01*
X8603158Y-11741484D02*
X8622205Y-11731960D01*
X8622205Y-11731960D02*
X8631729Y-11722436D01*
X8631729Y-11722436D02*
X8641253Y-11703388D01*
X8641253Y-11703388D02*
X8641253Y-11655769D01*
X8641253Y-11655769D02*
X8631729Y-11636722D01*
X8631729Y-11636722D02*
X8622205Y-11627198D01*
X8622205Y-11627198D02*
X8603158Y-11617674D01*
X8603158Y-11617674D02*
X8565063Y-11617674D01*
X8565063Y-11617674D02*
X8546015Y-11627198D01*
X8546015Y-11627198D02*
X8536491Y-11636722D01*
X8536491Y-11636722D02*
X8526967Y-11655769D01*
X8822205Y-11541484D02*
X8726967Y-11541484D01*
X8726967Y-11541484D02*
X8717444Y-11636722D01*
X8717444Y-11636722D02*
X8726967Y-11627198D01*
X8726967Y-11627198D02*
X8746015Y-11617674D01*
X8746015Y-11617674D02*
X8793634Y-11617674D01*
X8793634Y-11617674D02*
X8812682Y-11627198D01*
X8812682Y-11627198D02*
X8822205Y-11636722D01*
X8822205Y-11636722D02*
X8831729Y-11655769D01*
X8831729Y-11655769D02*
X8831729Y-11703388D01*
X8831729Y-11703388D02*
X8822205Y-11722436D01*
X8822205Y-11722436D02*
X8812682Y-11731960D01*
X8812682Y-11731960D02*
X8793634Y-11741484D01*
X8793634Y-11741484D02*
X8746015Y-11741484D01*
X8746015Y-11741484D02*
X8726967Y-11731960D01*
X8726967Y-11731960D02*
X8717444Y-11722436D01*
X8955539Y-11541484D02*
X8974586Y-11541484D01*
X8974586Y-11541484D02*
X8993634Y-11551008D01*
X8993634Y-11551008D02*
X9003158Y-11560531D01*
X9003158Y-11560531D02*
X9012682Y-11579579D01*
X9012682Y-11579579D02*
X9022205Y-11617674D01*
X9022205Y-11617674D02*
X9022205Y-11665293D01*
X9022205Y-11665293D02*
X9012682Y-11703388D01*
X9012682Y-11703388D02*
X9003158Y-11722436D01*
X9003158Y-11722436D02*
X8993634Y-11731960D01*
X8993634Y-11731960D02*
X8974586Y-11741484D01*
X8974586Y-11741484D02*
X8955539Y-11741484D01*
X8955539Y-11741484D02*
X8936491Y-11731960D01*
X8936491Y-11731960D02*
X8926967Y-11722436D01*
X8926967Y-11722436D02*
X8917444Y-11703388D01*
X8917444Y-11703388D02*
X8907920Y-11665293D01*
X8907920Y-11665293D02*
X8907920Y-11617674D01*
X8907920Y-11617674D02*
X8917444Y-11579579D01*
X8917444Y-11579579D02*
X8926967Y-11560531D01*
X8926967Y-11560531D02*
X8936491Y-11551008D01*
X8936491Y-11551008D02*
X8955539Y-11541484D01*
X9107920Y-11741484D02*
X9107920Y-11608150D01*
X9107920Y-11627198D02*
X9117444Y-11617674D01*
X9117444Y-11617674D02*
X9136491Y-11608150D01*
X9136491Y-11608150D02*
X9165063Y-11608150D01*
X9165063Y-11608150D02*
X9184110Y-11617674D01*
X9184110Y-11617674D02*
X9193634Y-11636722D01*
X9193634Y-11636722D02*
X9193634Y-11741484D01*
X9193634Y-11636722D02*
X9203158Y-11617674D01*
X9203158Y-11617674D02*
X9222205Y-11608150D01*
X9222205Y-11608150D02*
X9250777Y-11608150D01*
X9250777Y-11608150D02*
X9269825Y-11617674D01*
X9269825Y-11617674D02*
X9279348Y-11636722D01*
X9279348Y-11636722D02*
X9279348Y-11741484D01*
X9374586Y-11741484D02*
X9374586Y-11608150D01*
X9374586Y-11627198D02*
X9384110Y-11617674D01*
X9384110Y-11617674D02*
X9403158Y-11608150D01*
X9403158Y-11608150D02*
X9431729Y-11608150D01*
X9431729Y-11608150D02*
X9450777Y-11617674D01*
X9450777Y-11617674D02*
X9460301Y-11636722D01*
X9460301Y-11636722D02*
X9460301Y-11741484D01*
X9460301Y-11636722D02*
X9469825Y-11617674D01*
X9469825Y-11617674D02*
X9488872Y-11608150D01*
X9488872Y-11608150D02*
X9517444Y-11608150D01*
X9517444Y-11608150D02*
X9536491Y-11617674D01*
X9536491Y-11617674D02*
X9546015Y-11636722D01*
X9546015Y-11636722D02*
X9546015Y-11741484D01*
X9936491Y-11531960D02*
X9765063Y-11789103D01*
X10193634Y-11541484D02*
X10212682Y-11541484D01*
X10212682Y-11541484D02*
X10231729Y-11551008D01*
X10231729Y-11551008D02*
X10241253Y-11560531D01*
X10241253Y-11560531D02*
X10250777Y-11579579D01*
X10250777Y-11579579D02*
X10260301Y-11617674D01*
X10260301Y-11617674D02*
X10260301Y-11665293D01*
X10260301Y-11665293D02*
X10250777Y-11703388D01*
X10250777Y-11703388D02*
X10241253Y-11722436D01*
X10241253Y-11722436D02*
X10231729Y-11731960D01*
X10231729Y-11731960D02*
X10212682Y-11741484D01*
X10212682Y-11741484D02*
X10193634Y-11741484D01*
X10193634Y-11741484D02*
X10174587Y-11731960D01*
X10174587Y-11731960D02*
X10165063Y-11722436D01*
X10165063Y-11722436D02*
X10155539Y-11703388D01*
X10155539Y-11703388D02*
X10146015Y-11665293D01*
X10146015Y-11665293D02*
X10146015Y-11617674D01*
X10146015Y-11617674D02*
X10155539Y-11579579D01*
X10155539Y-11579579D02*
X10165063Y-11560531D01*
X10165063Y-11560531D02*
X10174587Y-11551008D01*
X10174587Y-11551008D02*
X10193634Y-11541484D01*
X10346015Y-11722436D02*
X10355539Y-11731960D01*
X10355539Y-11731960D02*
X10346015Y-11741484D01*
X10346015Y-11741484D02*
X10336491Y-11731960D01*
X10336491Y-11731960D02*
X10346015Y-11722436D01*
X10346015Y-11722436D02*
X10346015Y-11741484D01*
X10479348Y-11541484D02*
X10498396Y-11541484D01*
X10498396Y-11541484D02*
X10517444Y-11551008D01*
X10517444Y-11551008D02*
X10526968Y-11560531D01*
X10526968Y-11560531D02*
X10536491Y-11579579D01*
X10536491Y-11579579D02*
X10546015Y-11617674D01*
X10546015Y-11617674D02*
X10546015Y-11665293D01*
X10546015Y-11665293D02*
X10536491Y-11703388D01*
X10536491Y-11703388D02*
X10526968Y-11722436D01*
X10526968Y-11722436D02*
X10517444Y-11731960D01*
X10517444Y-11731960D02*
X10498396Y-11741484D01*
X10498396Y-11741484D02*
X10479348Y-11741484D01*
X10479348Y-11741484D02*
X10460301Y-11731960D01*
X10460301Y-11731960D02*
X10450777Y-11722436D01*
X10450777Y-11722436D02*
X10441253Y-11703388D01*
X10441253Y-11703388D02*
X10431729Y-11665293D01*
X10431729Y-11665293D02*
X10431729Y-11617674D01*
X10431729Y-11617674D02*
X10441253Y-11579579D01*
X10441253Y-11579579D02*
X10450777Y-11560531D01*
X10450777Y-11560531D02*
X10460301Y-11551008D01*
X10460301Y-11551008D02*
X10479348Y-11541484D01*
X10622206Y-11560531D02*
X10631729Y-11551008D01*
X10631729Y-11551008D02*
X10650777Y-11541484D01*
X10650777Y-11541484D02*
X10698396Y-11541484D01*
X10698396Y-11541484D02*
X10717444Y-11551008D01*
X10717444Y-11551008D02*
X10726968Y-11560531D01*
X10726968Y-11560531D02*
X10736491Y-11579579D01*
X10736491Y-11579579D02*
X10736491Y-11598627D01*
X10736491Y-11598627D02*
X10726968Y-11627198D01*
X10726968Y-11627198D02*
X10612682Y-11741484D01*
X10612682Y-11741484D02*
X10736491Y-11741484D01*
X10917444Y-11541484D02*
X10822206Y-11541484D01*
X10822206Y-11541484D02*
X10812682Y-11636722D01*
X10812682Y-11636722D02*
X10822206Y-11627198D01*
X10822206Y-11627198D02*
X10841253Y-11617674D01*
X10841253Y-11617674D02*
X10888872Y-11617674D01*
X10888872Y-11617674D02*
X10907920Y-11627198D01*
X10907920Y-11627198D02*
X10917444Y-11636722D01*
X10917444Y-11636722D02*
X10926968Y-11655769D01*
X10926968Y-11655769D02*
X10926968Y-11703388D01*
X10926968Y-11703388D02*
X10917444Y-11722436D01*
X10917444Y-11722436D02*
X10907920Y-11731960D01*
X10907920Y-11731960D02*
X10888872Y-11741484D01*
X10888872Y-11741484D02*
X10841253Y-11741484D01*
X10841253Y-11741484D02*
X10822206Y-11731960D01*
X10822206Y-11731960D02*
X10812682Y-11722436D01*
X11098396Y-11541484D02*
X11060301Y-11541484D01*
X11060301Y-11541484D02*
X11041253Y-11551008D01*
X11041253Y-11551008D02*
X11031729Y-11560531D01*
X11031729Y-11560531D02*
X11012682Y-11589103D01*
X11012682Y-11589103D02*
X11003158Y-11627198D01*
X11003158Y-11627198D02*
X11003158Y-11703388D01*
X11003158Y-11703388D02*
X11012682Y-11722436D01*
X11012682Y-11722436D02*
X11022206Y-11731960D01*
X11022206Y-11731960D02*
X11041253Y-11741484D01*
X11041253Y-11741484D02*
X11079349Y-11741484D01*
X11079349Y-11741484D02*
X11098396Y-11731960D01*
X11098396Y-11731960D02*
X11107920Y-11722436D01*
X11107920Y-11722436D02*
X11117444Y-11703388D01*
X11117444Y-11703388D02*
X11117444Y-11655769D01*
X11117444Y-11655769D02*
X11107920Y-11636722D01*
X11107920Y-11636722D02*
X11098396Y-11627198D01*
X11098396Y-11627198D02*
X11079349Y-11617674D01*
X11079349Y-11617674D02*
X11041253Y-11617674D01*
X11041253Y-11617674D02*
X11022206Y-11627198D01*
X11022206Y-11627198D02*
X11012682Y-11636722D01*
X11012682Y-11636722D02*
X11003158Y-11655769D01*
X11193634Y-11541484D02*
X11193634Y-11579579D01*
X11269825Y-11541484D02*
X11269825Y-11579579D01*
X11565063Y-11817674D02*
X11555539Y-11808150D01*
X11555539Y-11808150D02*
X11536491Y-11779579D01*
X11536491Y-11779579D02*
X11526968Y-11760531D01*
X11526968Y-11760531D02*
X11517444Y-11731960D01*
X11517444Y-11731960D02*
X11507920Y-11684341D01*
X11507920Y-11684341D02*
X11507920Y-11646246D01*
X11507920Y-11646246D02*
X11517444Y-11598627D01*
X11517444Y-11598627D02*
X11526968Y-11570055D01*
X11526968Y-11570055D02*
X11536491Y-11551008D01*
X11536491Y-11551008D02*
X11555539Y-11522436D01*
X11555539Y-11522436D02*
X11565063Y-11512912D01*
X11631729Y-11560531D02*
X11641253Y-11551008D01*
X11641253Y-11551008D02*
X11660301Y-11541484D01*
X11660301Y-11541484D02*
X11707920Y-11541484D01*
X11707920Y-11541484D02*
X11726968Y-11551008D01*
X11726968Y-11551008D02*
X11736491Y-11560531D01*
X11736491Y-11560531D02*
X11746015Y-11579579D01*
X11746015Y-11579579D02*
X11746015Y-11598627D01*
X11746015Y-11598627D02*
X11736491Y-11627198D01*
X11736491Y-11627198D02*
X11622206Y-11741484D01*
X11622206Y-11741484D02*
X11746015Y-11741484D01*
X11984110Y-11741484D02*
X11984110Y-11541484D01*
X12069825Y-11741484D02*
X12069825Y-11636722D01*
X12069825Y-11636722D02*
X12060301Y-11617674D01*
X12060301Y-11617674D02*
X12041253Y-11608150D01*
X12041253Y-11608150D02*
X12012682Y-11608150D01*
X12012682Y-11608150D02*
X11993634Y-11617674D01*
X11993634Y-11617674D02*
X11984110Y-11627198D01*
X12193634Y-11741484D02*
X12174587Y-11731960D01*
X12174587Y-11731960D02*
X12165063Y-11722436D01*
X12165063Y-11722436D02*
X12155539Y-11703388D01*
X12155539Y-11703388D02*
X12155539Y-11646246D01*
X12155539Y-11646246D02*
X12165063Y-11627198D01*
X12165063Y-11627198D02*
X12174587Y-11617674D01*
X12174587Y-11617674D02*
X12193634Y-11608150D01*
X12193634Y-11608150D02*
X12222206Y-11608150D01*
X12222206Y-11608150D02*
X12241253Y-11617674D01*
X12241253Y-11617674D02*
X12250777Y-11627198D01*
X12250777Y-11627198D02*
X12260301Y-11646246D01*
X12260301Y-11646246D02*
X12260301Y-11703388D01*
X12260301Y-11703388D02*
X12250777Y-11722436D01*
X12250777Y-11722436D02*
X12241253Y-11731960D01*
X12241253Y-11731960D02*
X12222206Y-11741484D01*
X12222206Y-11741484D02*
X12193634Y-11741484D01*
X12374587Y-11741484D02*
X12355539Y-11731960D01*
X12355539Y-11731960D02*
X12346015Y-11712912D01*
X12346015Y-11712912D02*
X12346015Y-11541484D01*
X12526968Y-11731960D02*
X12507920Y-11741484D01*
X12507920Y-11741484D02*
X12469825Y-11741484D01*
X12469825Y-11741484D02*
X12450777Y-11731960D01*
X12450777Y-11731960D02*
X12441253Y-11712912D01*
X12441253Y-11712912D02*
X12441253Y-11636722D01*
X12441253Y-11636722D02*
X12450777Y-11617674D01*
X12450777Y-11617674D02*
X12469825Y-11608150D01*
X12469825Y-11608150D02*
X12507920Y-11608150D01*
X12507920Y-11608150D02*
X12526968Y-11617674D01*
X12526968Y-11617674D02*
X12536491Y-11636722D01*
X12536491Y-11636722D02*
X12536491Y-11655769D01*
X12536491Y-11655769D02*
X12441253Y-11674817D01*
X12612682Y-11731960D02*
X12631730Y-11741484D01*
X12631730Y-11741484D02*
X12669825Y-11741484D01*
X12669825Y-11741484D02*
X12688872Y-11731960D01*
X12688872Y-11731960D02*
X12698396Y-11712912D01*
X12698396Y-11712912D02*
X12698396Y-11703388D01*
X12698396Y-11703388D02*
X12688872Y-11684341D01*
X12688872Y-11684341D02*
X12669825Y-11674817D01*
X12669825Y-11674817D02*
X12641253Y-11674817D01*
X12641253Y-11674817D02*
X12622206Y-11665293D01*
X12622206Y-11665293D02*
X12612682Y-11646246D01*
X12612682Y-11646246D02*
X12612682Y-11636722D01*
X12612682Y-11636722D02*
X12622206Y-11617674D01*
X12622206Y-11617674D02*
X12641253Y-11608150D01*
X12641253Y-11608150D02*
X12669825Y-11608150D01*
X12669825Y-11608150D02*
X12688872Y-11617674D01*
X12765063Y-11817674D02*
X12774587Y-11808150D01*
X12774587Y-11808150D02*
X12793634Y-11779579D01*
X12793634Y-11779579D02*
X12803158Y-11760531D01*
X12803158Y-11760531D02*
X12812682Y-11731960D01*
X12812682Y-11731960D02*
X12822206Y-11684341D01*
X12822206Y-11684341D02*
X12822206Y-11646246D01*
X12822206Y-11646246D02*
X12812682Y-11598627D01*
X12812682Y-11598627D02*
X12803158Y-11570055D01*
X12803158Y-11570055D02*
X12793634Y-11551008D01*
X12793634Y-11551008D02*
X12774587Y-11522436D01*
X12774587Y-11522436D02*
X12765063Y-11512912D01*
X13126968Y-11817674D02*
X13117444Y-11808150D01*
X13117444Y-11808150D02*
X13098396Y-11779579D01*
X13098396Y-11779579D02*
X13088872Y-11760531D01*
X13088872Y-11760531D02*
X13079349Y-11731960D01*
X13079349Y-11731960D02*
X13069825Y-11684341D01*
X13069825Y-11684341D02*
X13069825Y-11646246D01*
X13069825Y-11646246D02*
X13079349Y-11598627D01*
X13079349Y-11598627D02*
X13088872Y-11570055D01*
X13088872Y-11570055D02*
X13098396Y-11551008D01*
X13098396Y-11551008D02*
X13117444Y-11522436D01*
X13117444Y-11522436D02*
X13126968Y-11512912D01*
X13203158Y-11608150D02*
X13203158Y-11741484D01*
X13203158Y-11627198D02*
X13212682Y-11617674D01*
X13212682Y-11617674D02*
X13231730Y-11608150D01*
X13231730Y-11608150D02*
X13260301Y-11608150D01*
X13260301Y-11608150D02*
X13279349Y-11617674D01*
X13279349Y-11617674D02*
X13288872Y-11636722D01*
X13288872Y-11636722D02*
X13288872Y-11741484D01*
X13412682Y-11741484D02*
X13393634Y-11731960D01*
X13393634Y-11731960D02*
X13384111Y-11722436D01*
X13384111Y-11722436D02*
X13374587Y-11703388D01*
X13374587Y-11703388D02*
X13374587Y-11646246D01*
X13374587Y-11646246D02*
X13384111Y-11627198D01*
X13384111Y-11627198D02*
X13393634Y-11617674D01*
X13393634Y-11617674D02*
X13412682Y-11608150D01*
X13412682Y-11608150D02*
X13441253Y-11608150D01*
X13441253Y-11608150D02*
X13460301Y-11617674D01*
X13460301Y-11617674D02*
X13469825Y-11627198D01*
X13469825Y-11627198D02*
X13479349Y-11646246D01*
X13479349Y-11646246D02*
X13479349Y-11703388D01*
X13479349Y-11703388D02*
X13469825Y-11722436D01*
X13469825Y-11722436D02*
X13460301Y-11731960D01*
X13460301Y-11731960D02*
X13441253Y-11741484D01*
X13441253Y-11741484D02*
X13412682Y-11741484D01*
X13536492Y-11608150D02*
X13612682Y-11608150D01*
X13565063Y-11541484D02*
X13565063Y-11712912D01*
X13565063Y-11712912D02*
X13574587Y-11731960D01*
X13574587Y-11731960D02*
X13593634Y-11741484D01*
X13593634Y-11741484D02*
X13612682Y-11741484D01*
X13831730Y-11608150D02*
X13831730Y-11808150D01*
X13831730Y-11617674D02*
X13850777Y-11608150D01*
X13850777Y-11608150D02*
X13888873Y-11608150D01*
X13888873Y-11608150D02*
X13907920Y-11617674D01*
X13907920Y-11617674D02*
X13917444Y-11627198D01*
X13917444Y-11627198D02*
X13926968Y-11646246D01*
X13926968Y-11646246D02*
X13926968Y-11703388D01*
X13926968Y-11703388D02*
X13917444Y-11722436D01*
X13917444Y-11722436D02*
X13907920Y-11731960D01*
X13907920Y-11731960D02*
X13888873Y-11741484D01*
X13888873Y-11741484D02*
X13850777Y-11741484D01*
X13850777Y-11741484D02*
X13831730Y-11731960D01*
X14041253Y-11741484D02*
X14022206Y-11731960D01*
X14022206Y-11731960D02*
X14012682Y-11712912D01*
X14012682Y-11712912D02*
X14012682Y-11541484D01*
X14203158Y-11741484D02*
X14203158Y-11636722D01*
X14203158Y-11636722D02*
X14193634Y-11617674D01*
X14193634Y-11617674D02*
X14174587Y-11608150D01*
X14174587Y-11608150D02*
X14136492Y-11608150D01*
X14136492Y-11608150D02*
X14117444Y-11617674D01*
X14203158Y-11731960D02*
X14184111Y-11741484D01*
X14184111Y-11741484D02*
X14136492Y-11741484D01*
X14136492Y-11741484D02*
X14117444Y-11731960D01*
X14117444Y-11731960D02*
X14107920Y-11712912D01*
X14107920Y-11712912D02*
X14107920Y-11693865D01*
X14107920Y-11693865D02*
X14117444Y-11674817D01*
X14117444Y-11674817D02*
X14136492Y-11665293D01*
X14136492Y-11665293D02*
X14184111Y-11665293D01*
X14184111Y-11665293D02*
X14203158Y-11655769D01*
X14269825Y-11608150D02*
X14346015Y-11608150D01*
X14298396Y-11541484D02*
X14298396Y-11712912D01*
X14298396Y-11712912D02*
X14307920Y-11731960D01*
X14307920Y-11731960D02*
X14326968Y-11741484D01*
X14326968Y-11741484D02*
X14346015Y-11741484D01*
X14488873Y-11731960D02*
X14469825Y-11741484D01*
X14469825Y-11741484D02*
X14431730Y-11741484D01*
X14431730Y-11741484D02*
X14412682Y-11731960D01*
X14412682Y-11731960D02*
X14403158Y-11712912D01*
X14403158Y-11712912D02*
X14403158Y-11636722D01*
X14403158Y-11636722D02*
X14412682Y-11617674D01*
X14412682Y-11617674D02*
X14431730Y-11608150D01*
X14431730Y-11608150D02*
X14469825Y-11608150D01*
X14469825Y-11608150D02*
X14488873Y-11617674D01*
X14488873Y-11617674D02*
X14498396Y-11636722D01*
X14498396Y-11636722D02*
X14498396Y-11655769D01*
X14498396Y-11655769D02*
X14403158Y-11674817D01*
X14669825Y-11741484D02*
X14669825Y-11541484D01*
X14669825Y-11731960D02*
X14650777Y-11741484D01*
X14650777Y-11741484D02*
X14612682Y-11741484D01*
X14612682Y-11741484D02*
X14593634Y-11731960D01*
X14593634Y-11731960D02*
X14584111Y-11722436D01*
X14584111Y-11722436D02*
X14574587Y-11703388D01*
X14574587Y-11703388D02*
X14574587Y-11646246D01*
X14574587Y-11646246D02*
X14584111Y-11627198D01*
X14584111Y-11627198D02*
X14593634Y-11617674D01*
X14593634Y-11617674D02*
X14612682Y-11608150D01*
X14612682Y-11608150D02*
X14650777Y-11608150D01*
X14650777Y-11608150D02*
X14669825Y-11617674D01*
X14746015Y-11817674D02*
X14755539Y-11808150D01*
X14755539Y-11808150D02*
X14774587Y-11779579D01*
X14774587Y-11779579D02*
X14784111Y-11760531D01*
X14784111Y-11760531D02*
X14793634Y-11731960D01*
X14793634Y-11731960D02*
X14803158Y-11684341D01*
X14803158Y-11684341D02*
X14803158Y-11646246D01*
X14803158Y-11646246D02*
X14793634Y-11598627D01*
X14793634Y-11598627D02*
X14784111Y-11570055D01*
X14784111Y-11570055D02*
X14774587Y-11551008D01*
X14774587Y-11551008D02*
X14755539Y-11522436D01*
X14755539Y-11522436D02*
X14746015Y-11512912D01*
D12*
X7990000Y-11914000D02*
G75*
G02*
X7830000Y-11914000I-80000J0D01*
G01*
X7830000Y-11914000D02*
G75*
G02*
X7990000Y-11914000I80000J0D01*
G01*
D10*
X8355539Y-12005484D02*
X8241253Y-12005484D01*
X8298396Y-12005484D02*
X8298396Y-11805484D01*
X8298396Y-11805484D02*
X8279348Y-11834055D01*
X8279348Y-11834055D02*
X8260301Y-11853103D01*
X8260301Y-11853103D02*
X8241253Y-11862627D01*
X8441253Y-11986436D02*
X8450777Y-11995960D01*
X8450777Y-11995960D02*
X8441253Y-12005484D01*
X8441253Y-12005484D02*
X8431729Y-11995960D01*
X8431729Y-11995960D02*
X8441253Y-11986436D01*
X8441253Y-11986436D02*
X8441253Y-12005484D01*
X8622205Y-11805484D02*
X8584110Y-11805484D01*
X8584110Y-11805484D02*
X8565063Y-11815008D01*
X8565063Y-11815008D02*
X8555539Y-11824531D01*
X8555539Y-11824531D02*
X8536491Y-11853103D01*
X8536491Y-11853103D02*
X8526967Y-11891198D01*
X8526967Y-11891198D02*
X8526967Y-11967388D01*
X8526967Y-11967388D02*
X8536491Y-11986436D01*
X8536491Y-11986436D02*
X8546015Y-11995960D01*
X8546015Y-11995960D02*
X8565063Y-12005484D01*
X8565063Y-12005484D02*
X8603158Y-12005484D01*
X8603158Y-12005484D02*
X8622205Y-11995960D01*
X8622205Y-11995960D02*
X8631729Y-11986436D01*
X8631729Y-11986436D02*
X8641253Y-11967388D01*
X8641253Y-11967388D02*
X8641253Y-11919769D01*
X8641253Y-11919769D02*
X8631729Y-11900722D01*
X8631729Y-11900722D02*
X8622205Y-11891198D01*
X8622205Y-11891198D02*
X8603158Y-11881674D01*
X8603158Y-11881674D02*
X8565063Y-11881674D01*
X8565063Y-11881674D02*
X8546015Y-11891198D01*
X8546015Y-11891198D02*
X8536491Y-11900722D01*
X8536491Y-11900722D02*
X8526967Y-11919769D01*
X8765063Y-11805484D02*
X8784110Y-11805484D01*
X8784110Y-11805484D02*
X8803158Y-11815008D01*
X8803158Y-11815008D02*
X8812682Y-11824531D01*
X8812682Y-11824531D02*
X8822205Y-11843579D01*
X8822205Y-11843579D02*
X8831729Y-11881674D01*
X8831729Y-11881674D02*
X8831729Y-11929293D01*
X8831729Y-11929293D02*
X8822205Y-11967388D01*
X8822205Y-11967388D02*
X8812682Y-11986436D01*
X8812682Y-11986436D02*
X8803158Y-11995960D01*
X8803158Y-11995960D02*
X8784110Y-12005484D01*
X8784110Y-12005484D02*
X8765063Y-12005484D01*
X8765063Y-12005484D02*
X8746015Y-11995960D01*
X8746015Y-11995960D02*
X8736491Y-11986436D01*
X8736491Y-11986436D02*
X8726967Y-11967388D01*
X8726967Y-11967388D02*
X8717444Y-11929293D01*
X8717444Y-11929293D02*
X8717444Y-11881674D01*
X8717444Y-11881674D02*
X8726967Y-11843579D01*
X8726967Y-11843579D02*
X8736491Y-11824531D01*
X8736491Y-11824531D02*
X8746015Y-11815008D01*
X8746015Y-11815008D02*
X8765063Y-11805484D01*
X8955539Y-11805484D02*
X8974586Y-11805484D01*
X8974586Y-11805484D02*
X8993634Y-11815008D01*
X8993634Y-11815008D02*
X9003158Y-11824531D01*
X9003158Y-11824531D02*
X9012682Y-11843579D01*
X9012682Y-11843579D02*
X9022205Y-11881674D01*
X9022205Y-11881674D02*
X9022205Y-11929293D01*
X9022205Y-11929293D02*
X9012682Y-11967388D01*
X9012682Y-11967388D02*
X9003158Y-11986436D01*
X9003158Y-11986436D02*
X8993634Y-11995960D01*
X8993634Y-11995960D02*
X8974586Y-12005484D01*
X8974586Y-12005484D02*
X8955539Y-12005484D01*
X8955539Y-12005484D02*
X8936491Y-11995960D01*
X8936491Y-11995960D02*
X8926967Y-11986436D01*
X8926967Y-11986436D02*
X8917444Y-11967388D01*
X8917444Y-11967388D02*
X8907920Y-11929293D01*
X8907920Y-11929293D02*
X8907920Y-11881674D01*
X8907920Y-11881674D02*
X8917444Y-11843579D01*
X8917444Y-11843579D02*
X8926967Y-11824531D01*
X8926967Y-11824531D02*
X8936491Y-11815008D01*
X8936491Y-11815008D02*
X8955539Y-11805484D01*
X9107920Y-12005484D02*
X9107920Y-11872150D01*
X9107920Y-11891198D02*
X9117444Y-11881674D01*
X9117444Y-11881674D02*
X9136491Y-11872150D01*
X9136491Y-11872150D02*
X9165063Y-11872150D01*
X9165063Y-11872150D02*
X9184110Y-11881674D01*
X9184110Y-11881674D02*
X9193634Y-11900722D01*
X9193634Y-11900722D02*
X9193634Y-12005484D01*
X9193634Y-11900722D02*
X9203158Y-11881674D01*
X9203158Y-11881674D02*
X9222205Y-11872150D01*
X9222205Y-11872150D02*
X9250777Y-11872150D01*
X9250777Y-11872150D02*
X9269825Y-11881674D01*
X9269825Y-11881674D02*
X9279348Y-11900722D01*
X9279348Y-11900722D02*
X9279348Y-12005484D01*
X9374586Y-12005484D02*
X9374586Y-11872150D01*
X9374586Y-11891198D02*
X9384110Y-11881674D01*
X9384110Y-11881674D02*
X9403158Y-11872150D01*
X9403158Y-11872150D02*
X9431729Y-11872150D01*
X9431729Y-11872150D02*
X9450777Y-11881674D01*
X9450777Y-11881674D02*
X9460301Y-11900722D01*
X9460301Y-11900722D02*
X9460301Y-12005484D01*
X9460301Y-11900722D02*
X9469825Y-11881674D01*
X9469825Y-11881674D02*
X9488872Y-11872150D01*
X9488872Y-11872150D02*
X9517444Y-11872150D01*
X9517444Y-11872150D02*
X9536491Y-11881674D01*
X9536491Y-11881674D02*
X9546015Y-11900722D01*
X9546015Y-11900722D02*
X9546015Y-12005484D01*
X9936491Y-11795960D02*
X9765063Y-12053103D01*
X10193634Y-11805484D02*
X10212682Y-11805484D01*
X10212682Y-11805484D02*
X10231729Y-11815008D01*
X10231729Y-11815008D02*
X10241253Y-11824531D01*
X10241253Y-11824531D02*
X10250777Y-11843579D01*
X10250777Y-11843579D02*
X10260301Y-11881674D01*
X10260301Y-11881674D02*
X10260301Y-11929293D01*
X10260301Y-11929293D02*
X10250777Y-11967388D01*
X10250777Y-11967388D02*
X10241253Y-11986436D01*
X10241253Y-11986436D02*
X10231729Y-11995960D01*
X10231729Y-11995960D02*
X10212682Y-12005484D01*
X10212682Y-12005484D02*
X10193634Y-12005484D01*
X10193634Y-12005484D02*
X10174587Y-11995960D01*
X10174587Y-11995960D02*
X10165063Y-11986436D01*
X10165063Y-11986436D02*
X10155539Y-11967388D01*
X10155539Y-11967388D02*
X10146015Y-11929293D01*
X10146015Y-11929293D02*
X10146015Y-11881674D01*
X10146015Y-11881674D02*
X10155539Y-11843579D01*
X10155539Y-11843579D02*
X10165063Y-11824531D01*
X10165063Y-11824531D02*
X10174587Y-11815008D01*
X10174587Y-11815008D02*
X10193634Y-11805484D01*
X10346015Y-11986436D02*
X10355539Y-11995960D01*
X10355539Y-11995960D02*
X10346015Y-12005484D01*
X10346015Y-12005484D02*
X10336491Y-11995960D01*
X10336491Y-11995960D02*
X10346015Y-11986436D01*
X10346015Y-11986436D02*
X10346015Y-12005484D01*
X10479348Y-11805484D02*
X10498396Y-11805484D01*
X10498396Y-11805484D02*
X10517444Y-11815008D01*
X10517444Y-11815008D02*
X10526968Y-11824531D01*
X10526968Y-11824531D02*
X10536491Y-11843579D01*
X10536491Y-11843579D02*
X10546015Y-11881674D01*
X10546015Y-11881674D02*
X10546015Y-11929293D01*
X10546015Y-11929293D02*
X10536491Y-11967388D01*
X10536491Y-11967388D02*
X10526968Y-11986436D01*
X10526968Y-11986436D02*
X10517444Y-11995960D01*
X10517444Y-11995960D02*
X10498396Y-12005484D01*
X10498396Y-12005484D02*
X10479348Y-12005484D01*
X10479348Y-12005484D02*
X10460301Y-11995960D01*
X10460301Y-11995960D02*
X10450777Y-11986436D01*
X10450777Y-11986436D02*
X10441253Y-11967388D01*
X10441253Y-11967388D02*
X10431729Y-11929293D01*
X10431729Y-11929293D02*
X10431729Y-11881674D01*
X10431729Y-11881674D02*
X10441253Y-11843579D01*
X10441253Y-11843579D02*
X10450777Y-11824531D01*
X10450777Y-11824531D02*
X10460301Y-11815008D01*
X10460301Y-11815008D02*
X10479348Y-11805484D01*
X10717444Y-11805484D02*
X10679348Y-11805484D01*
X10679348Y-11805484D02*
X10660301Y-11815008D01*
X10660301Y-11815008D02*
X10650777Y-11824531D01*
X10650777Y-11824531D02*
X10631729Y-11853103D01*
X10631729Y-11853103D02*
X10622206Y-11891198D01*
X10622206Y-11891198D02*
X10622206Y-11967388D01*
X10622206Y-11967388D02*
X10631729Y-11986436D01*
X10631729Y-11986436D02*
X10641253Y-11995960D01*
X10641253Y-11995960D02*
X10660301Y-12005484D01*
X10660301Y-12005484D02*
X10698396Y-12005484D01*
X10698396Y-12005484D02*
X10717444Y-11995960D01*
X10717444Y-11995960D02*
X10726968Y-11986436D01*
X10726968Y-11986436D02*
X10736491Y-11967388D01*
X10736491Y-11967388D02*
X10736491Y-11919769D01*
X10736491Y-11919769D02*
X10726968Y-11900722D01*
X10726968Y-11900722D02*
X10717444Y-11891198D01*
X10717444Y-11891198D02*
X10698396Y-11881674D01*
X10698396Y-11881674D02*
X10660301Y-11881674D01*
X10660301Y-11881674D02*
X10641253Y-11891198D01*
X10641253Y-11891198D02*
X10631729Y-11900722D01*
X10631729Y-11900722D02*
X10622206Y-11919769D01*
X10803158Y-11805484D02*
X10926968Y-11805484D01*
X10926968Y-11805484D02*
X10860301Y-11881674D01*
X10860301Y-11881674D02*
X10888872Y-11881674D01*
X10888872Y-11881674D02*
X10907920Y-11891198D01*
X10907920Y-11891198D02*
X10917444Y-11900722D01*
X10917444Y-11900722D02*
X10926968Y-11919769D01*
X10926968Y-11919769D02*
X10926968Y-11967388D01*
X10926968Y-11967388D02*
X10917444Y-11986436D01*
X10917444Y-11986436D02*
X10907920Y-11995960D01*
X10907920Y-11995960D02*
X10888872Y-12005484D01*
X10888872Y-12005484D02*
X10831729Y-12005484D01*
X10831729Y-12005484D02*
X10812682Y-11995960D01*
X10812682Y-11995960D02*
X10803158Y-11986436D01*
X11050777Y-11805484D02*
X11069825Y-11805484D01*
X11069825Y-11805484D02*
X11088872Y-11815008D01*
X11088872Y-11815008D02*
X11098396Y-11824531D01*
X11098396Y-11824531D02*
X11107920Y-11843579D01*
X11107920Y-11843579D02*
X11117444Y-11881674D01*
X11117444Y-11881674D02*
X11117444Y-11929293D01*
X11117444Y-11929293D02*
X11107920Y-11967388D01*
X11107920Y-11967388D02*
X11098396Y-11986436D01*
X11098396Y-11986436D02*
X11088872Y-11995960D01*
X11088872Y-11995960D02*
X11069825Y-12005484D01*
X11069825Y-12005484D02*
X11050777Y-12005484D01*
X11050777Y-12005484D02*
X11031729Y-11995960D01*
X11031729Y-11995960D02*
X11022206Y-11986436D01*
X11022206Y-11986436D02*
X11012682Y-11967388D01*
X11012682Y-11967388D02*
X11003158Y-11929293D01*
X11003158Y-11929293D02*
X11003158Y-11881674D01*
X11003158Y-11881674D02*
X11012682Y-11843579D01*
X11012682Y-11843579D02*
X11022206Y-11824531D01*
X11022206Y-11824531D02*
X11031729Y-11815008D01*
X11031729Y-11815008D02*
X11050777Y-11805484D01*
X11193634Y-11805484D02*
X11193634Y-11843579D01*
X11269825Y-11805484D02*
X11269825Y-11843579D01*
X11565063Y-12081674D02*
X11555539Y-12072150D01*
X11555539Y-12072150D02*
X11536491Y-12043579D01*
X11536491Y-12043579D02*
X11526968Y-12024531D01*
X11526968Y-12024531D02*
X11517444Y-11995960D01*
X11517444Y-11995960D02*
X11507920Y-11948341D01*
X11507920Y-11948341D02*
X11507920Y-11910246D01*
X11507920Y-11910246D02*
X11517444Y-11862627D01*
X11517444Y-11862627D02*
X11526968Y-11834055D01*
X11526968Y-11834055D02*
X11536491Y-11815008D01*
X11536491Y-11815008D02*
X11555539Y-11786436D01*
X11555539Y-11786436D02*
X11565063Y-11776912D01*
X11726968Y-11872150D02*
X11726968Y-12005484D01*
X11679348Y-11795960D02*
X11631729Y-11938817D01*
X11631729Y-11938817D02*
X11755539Y-11938817D01*
X11984110Y-12005484D02*
X11984110Y-11805484D01*
X12069825Y-12005484D02*
X12069825Y-11900722D01*
X12069825Y-11900722D02*
X12060301Y-11881674D01*
X12060301Y-11881674D02*
X12041253Y-11872150D01*
X12041253Y-11872150D02*
X12012682Y-11872150D01*
X12012682Y-11872150D02*
X11993634Y-11881674D01*
X11993634Y-11881674D02*
X11984110Y-11891198D01*
X12193634Y-12005484D02*
X12174587Y-11995960D01*
X12174587Y-11995960D02*
X12165063Y-11986436D01*
X12165063Y-11986436D02*
X12155539Y-11967388D01*
X12155539Y-11967388D02*
X12155539Y-11910246D01*
X12155539Y-11910246D02*
X12165063Y-11891198D01*
X12165063Y-11891198D02*
X12174587Y-11881674D01*
X12174587Y-11881674D02*
X12193634Y-11872150D01*
X12193634Y-11872150D02*
X12222206Y-11872150D01*
X12222206Y-11872150D02*
X12241253Y-11881674D01*
X12241253Y-11881674D02*
X12250777Y-11891198D01*
X12250777Y-11891198D02*
X12260301Y-11910246D01*
X12260301Y-11910246D02*
X12260301Y-11967388D01*
X12260301Y-11967388D02*
X12250777Y-11986436D01*
X12250777Y-11986436D02*
X12241253Y-11995960D01*
X12241253Y-11995960D02*
X12222206Y-12005484D01*
X12222206Y-12005484D02*
X12193634Y-12005484D01*
X12374587Y-12005484D02*
X12355539Y-11995960D01*
X12355539Y-11995960D02*
X12346015Y-11976912D01*
X12346015Y-11976912D02*
X12346015Y-11805484D01*
X12526968Y-11995960D02*
X12507920Y-12005484D01*
X12507920Y-12005484D02*
X12469825Y-12005484D01*
X12469825Y-12005484D02*
X12450777Y-11995960D01*
X12450777Y-11995960D02*
X12441253Y-11976912D01*
X12441253Y-11976912D02*
X12441253Y-11900722D01*
X12441253Y-11900722D02*
X12450777Y-11881674D01*
X12450777Y-11881674D02*
X12469825Y-11872150D01*
X12469825Y-11872150D02*
X12507920Y-11872150D01*
X12507920Y-11872150D02*
X12526968Y-11881674D01*
X12526968Y-11881674D02*
X12536491Y-11900722D01*
X12536491Y-11900722D02*
X12536491Y-11919769D01*
X12536491Y-11919769D02*
X12441253Y-11938817D01*
X12612682Y-11995960D02*
X12631730Y-12005484D01*
X12631730Y-12005484D02*
X12669825Y-12005484D01*
X12669825Y-12005484D02*
X12688872Y-11995960D01*
X12688872Y-11995960D02*
X12698396Y-11976912D01*
X12698396Y-11976912D02*
X12698396Y-11967388D01*
X12698396Y-11967388D02*
X12688872Y-11948341D01*
X12688872Y-11948341D02*
X12669825Y-11938817D01*
X12669825Y-11938817D02*
X12641253Y-11938817D01*
X12641253Y-11938817D02*
X12622206Y-11929293D01*
X12622206Y-11929293D02*
X12612682Y-11910246D01*
X12612682Y-11910246D02*
X12612682Y-11900722D01*
X12612682Y-11900722D02*
X12622206Y-11881674D01*
X12622206Y-11881674D02*
X12641253Y-11872150D01*
X12641253Y-11872150D02*
X12669825Y-11872150D01*
X12669825Y-11872150D02*
X12688872Y-11881674D01*
X12765063Y-12081674D02*
X12774587Y-12072150D01*
X12774587Y-12072150D02*
X12793634Y-12043579D01*
X12793634Y-12043579D02*
X12803158Y-12024531D01*
X12803158Y-12024531D02*
X12812682Y-11995960D01*
X12812682Y-11995960D02*
X12822206Y-11948341D01*
X12822206Y-11948341D02*
X12822206Y-11910246D01*
X12822206Y-11910246D02*
X12812682Y-11862627D01*
X12812682Y-11862627D02*
X12803158Y-11834055D01*
X12803158Y-11834055D02*
X12793634Y-11815008D01*
X12793634Y-11815008D02*
X12774587Y-11786436D01*
X12774587Y-11786436D02*
X12765063Y-11776912D01*
X13126968Y-12081674D02*
X13117444Y-12072150D01*
X13117444Y-12072150D02*
X13098396Y-12043579D01*
X13098396Y-12043579D02*
X13088872Y-12024531D01*
X13088872Y-12024531D02*
X13079349Y-11995960D01*
X13079349Y-11995960D02*
X13069825Y-11948341D01*
X13069825Y-11948341D02*
X13069825Y-11910246D01*
X13069825Y-11910246D02*
X13079349Y-11862627D01*
X13079349Y-11862627D02*
X13088872Y-11834055D01*
X13088872Y-11834055D02*
X13098396Y-11815008D01*
X13098396Y-11815008D02*
X13117444Y-11786436D01*
X13117444Y-11786436D02*
X13126968Y-11776912D01*
X13203158Y-11872150D02*
X13203158Y-12005484D01*
X13203158Y-11891198D02*
X13212682Y-11881674D01*
X13212682Y-11881674D02*
X13231730Y-11872150D01*
X13231730Y-11872150D02*
X13260301Y-11872150D01*
X13260301Y-11872150D02*
X13279349Y-11881674D01*
X13279349Y-11881674D02*
X13288872Y-11900722D01*
X13288872Y-11900722D02*
X13288872Y-12005484D01*
X13412682Y-12005484D02*
X13393634Y-11995960D01*
X13393634Y-11995960D02*
X13384111Y-11986436D01*
X13384111Y-11986436D02*
X13374587Y-11967388D01*
X13374587Y-11967388D02*
X13374587Y-11910246D01*
X13374587Y-11910246D02*
X13384111Y-11891198D01*
X13384111Y-11891198D02*
X13393634Y-11881674D01*
X13393634Y-11881674D02*
X13412682Y-11872150D01*
X13412682Y-11872150D02*
X13441253Y-11872150D01*
X13441253Y-11872150D02*
X13460301Y-11881674D01*
X13460301Y-11881674D02*
X13469825Y-11891198D01*
X13469825Y-11891198D02*
X13479349Y-11910246D01*
X13479349Y-11910246D02*
X13479349Y-11967388D01*
X13479349Y-11967388D02*
X13469825Y-11986436D01*
X13469825Y-11986436D02*
X13460301Y-11995960D01*
X13460301Y-11995960D02*
X13441253Y-12005484D01*
X13441253Y-12005484D02*
X13412682Y-12005484D01*
X13536492Y-11872150D02*
X13612682Y-11872150D01*
X13565063Y-11805484D02*
X13565063Y-11976912D01*
X13565063Y-11976912D02*
X13574587Y-11995960D01*
X13574587Y-11995960D02*
X13593634Y-12005484D01*
X13593634Y-12005484D02*
X13612682Y-12005484D01*
X13831730Y-11872150D02*
X13831730Y-12072150D01*
X13831730Y-11881674D02*
X13850777Y-11872150D01*
X13850777Y-11872150D02*
X13888873Y-11872150D01*
X13888873Y-11872150D02*
X13907920Y-11881674D01*
X13907920Y-11881674D02*
X13917444Y-11891198D01*
X13917444Y-11891198D02*
X13926968Y-11910246D01*
X13926968Y-11910246D02*
X13926968Y-11967388D01*
X13926968Y-11967388D02*
X13917444Y-11986436D01*
X13917444Y-11986436D02*
X13907920Y-11995960D01*
X13907920Y-11995960D02*
X13888873Y-12005484D01*
X13888873Y-12005484D02*
X13850777Y-12005484D01*
X13850777Y-12005484D02*
X13831730Y-11995960D01*
X14041253Y-12005484D02*
X14022206Y-11995960D01*
X14022206Y-11995960D02*
X14012682Y-11976912D01*
X14012682Y-11976912D02*
X14012682Y-11805484D01*
X14203158Y-12005484D02*
X14203158Y-11900722D01*
X14203158Y-11900722D02*
X14193634Y-11881674D01*
X14193634Y-11881674D02*
X14174587Y-11872150D01*
X14174587Y-11872150D02*
X14136492Y-11872150D01*
X14136492Y-11872150D02*
X14117444Y-11881674D01*
X14203158Y-11995960D02*
X14184111Y-12005484D01*
X14184111Y-12005484D02*
X14136492Y-12005484D01*
X14136492Y-12005484D02*
X14117444Y-11995960D01*
X14117444Y-11995960D02*
X14107920Y-11976912D01*
X14107920Y-11976912D02*
X14107920Y-11957865D01*
X14107920Y-11957865D02*
X14117444Y-11938817D01*
X14117444Y-11938817D02*
X14136492Y-11929293D01*
X14136492Y-11929293D02*
X14184111Y-11929293D01*
X14184111Y-11929293D02*
X14203158Y-11919769D01*
X14269825Y-11872150D02*
X14346015Y-11872150D01*
X14298396Y-11805484D02*
X14298396Y-11976912D01*
X14298396Y-11976912D02*
X14307920Y-11995960D01*
X14307920Y-11995960D02*
X14326968Y-12005484D01*
X14326968Y-12005484D02*
X14346015Y-12005484D01*
X14488873Y-11995960D02*
X14469825Y-12005484D01*
X14469825Y-12005484D02*
X14431730Y-12005484D01*
X14431730Y-12005484D02*
X14412682Y-11995960D01*
X14412682Y-11995960D02*
X14403158Y-11976912D01*
X14403158Y-11976912D02*
X14403158Y-11900722D01*
X14403158Y-11900722D02*
X14412682Y-11881674D01*
X14412682Y-11881674D02*
X14431730Y-11872150D01*
X14431730Y-11872150D02*
X14469825Y-11872150D01*
X14469825Y-11872150D02*
X14488873Y-11881674D01*
X14488873Y-11881674D02*
X14498396Y-11900722D01*
X14498396Y-11900722D02*
X14498396Y-11919769D01*
X14498396Y-11919769D02*
X14403158Y-11938817D01*
X14669825Y-12005484D02*
X14669825Y-11805484D01*
X14669825Y-11995960D02*
X14650777Y-12005484D01*
X14650777Y-12005484D02*
X14612682Y-12005484D01*
X14612682Y-12005484D02*
X14593634Y-11995960D01*
X14593634Y-11995960D02*
X14584111Y-11986436D01*
X14584111Y-11986436D02*
X14574587Y-11967388D01*
X14574587Y-11967388D02*
X14574587Y-11910246D01*
X14574587Y-11910246D02*
X14584111Y-11891198D01*
X14584111Y-11891198D02*
X14593634Y-11881674D01*
X14593634Y-11881674D02*
X14612682Y-11872150D01*
X14612682Y-11872150D02*
X14650777Y-11872150D01*
X14650777Y-11872150D02*
X14669825Y-11881674D01*
X14746015Y-12081674D02*
X14755539Y-12072150D01*
X14755539Y-12072150D02*
X14774587Y-12043579D01*
X14774587Y-12043579D02*
X14784111Y-12024531D01*
X14784111Y-12024531D02*
X14793634Y-11995960D01*
X14793634Y-11995960D02*
X14803158Y-11948341D01*
X14803158Y-11948341D02*
X14803158Y-11910246D01*
X14803158Y-11910246D02*
X14793634Y-11862627D01*
X14793634Y-11862627D02*
X14784111Y-11834055D01*
X14784111Y-11834055D02*
X14774587Y-11815008D01*
X14774587Y-11815008D02*
X14755539Y-11786436D01*
X14755539Y-11786436D02*
X14746015Y-11776912D01*
M02*
