%TF.GenerationSoftware,KiCad,Pcbnew,9.0.7*%
%TF.CreationDate,2026-04-16T11:14:28+01:00*%
%TF.ProjectId,stepper driver rear panel,73746570-7065-4722-9064-726976657220,rev?*%
%TF.SameCoordinates,Original*%
%TF.FileFunction,Drillmap*%
%TF.FilePolarity,Positive*%
%FSLAX45Y45*%
G04 Gerber Fmt 4.5, Leading zero omitted, Abs format (unit mm)*
G04 Created by KiCad (PCBNEW 9.0.7) date 2026-04-16 11:14:28*
%MOMM*%
%LPD*%
G01*
G04 APERTURE LIST*
%ADD10C,0.050000*%
%ADD11C,0.200000*%
%ADD12C,0.330000*%
G04 APERTURE END LIST*
D10*
X15680000Y-10796360D02*
G75*
G02*
X15630000Y-10846360I-50000J0D01*
G01*
X21300110Y-10800360D02*
X21300110Y-11750360D01*
X21500110Y-9325360D02*
X21500110Y-9050360D01*
X19030355Y-10796360D02*
X19030355Y-10146360D01*
X9400000Y-10855000D02*
G75*
G02*
X9300000Y-10755000I0J100000D01*
G01*
X8400110Y-11750360D02*
X8200110Y-11650360D01*
X21500110Y-11950360D02*
G75*
G02*
X21200110Y-12250360I-300000J0D01*
G01*
X15630000Y-10846360D02*
X14830000Y-10846360D01*
X21500110Y-10075360D02*
X21500110Y-10900360D01*
X21300110Y-9225360D02*
X21300110Y-10175360D01*
X19930000Y-10796360D02*
G75*
G02*
X19880000Y-10846360I-50000J0D01*
G01*
X9400000Y-10460000D02*
X10155000Y-10460000D01*
X21500110Y-11650360D02*
X21500110Y-11950360D01*
X19080355Y-10096360D02*
X19880000Y-10096360D01*
X19880000Y-10096360D02*
G75*
G02*
X19930000Y-10146360I0J-50000D01*
G01*
X19930000Y-10146360D02*
X19930000Y-10796360D01*
X8200110Y-10075360D02*
X8200110Y-10900360D01*
X8500110Y-12250360D02*
G75*
G02*
X8200110Y-11950360I0J300000D01*
G01*
X9400000Y-10855000D02*
X10155000Y-10855000D01*
X19880000Y-10846360D02*
X19080355Y-10846360D01*
X8500110Y-8750360D02*
X21200110Y-8750360D01*
X8200110Y-9050360D02*
X8200110Y-9325360D01*
X8200110Y-11650360D02*
X8200110Y-11950360D01*
X8400110Y-10175360D02*
X8200110Y-10075360D01*
X14830000Y-10846360D02*
G75*
G02*
X14780000Y-10796360I0J50000D01*
G01*
X8400110Y-10800360D02*
X8400110Y-11750360D01*
X14780000Y-10146360D02*
G75*
G02*
X14830000Y-10096360I50000J0D01*
G01*
X8400110Y-9225360D02*
X8200110Y-9325360D01*
X21300110Y-9225360D02*
X21500110Y-9325360D01*
X10255000Y-10755000D02*
X10255000Y-10560000D01*
X21200110Y-8750360D02*
G75*
G02*
X21500110Y-9050360I0J-300000D01*
G01*
X21300110Y-10175360D02*
X21500110Y-10075360D01*
X19030355Y-10146360D02*
G75*
G02*
X19080355Y-10096355I50005J0D01*
G01*
X21300110Y-11750360D02*
X21500110Y-11650360D01*
X19080355Y-10846360D02*
G75*
G02*
X19030360Y-10796360I5J50000D01*
G01*
X15630000Y-10096360D02*
G75*
G02*
X15680000Y-10146360I0J-50000D01*
G01*
X21300110Y-10800360D02*
X21500110Y-10900360D01*
X15680000Y-10146360D02*
X15680000Y-10796360D01*
X9300000Y-10755000D02*
X9300000Y-10560000D01*
X10155000Y-10460000D02*
G75*
G02*
X10255000Y-10560000I0J-100000D01*
G01*
X8400110Y-9225360D02*
X8400110Y-10175360D01*
X8200110Y-9050360D02*
G75*
G02*
X8500110Y-8750360I300000J0D01*
G01*
X8400110Y-10800360D02*
X8200110Y-10900360D01*
X8500110Y-12250360D02*
X21200110Y-12250360D01*
X9300000Y-10560000D02*
G75*
G02*
X9400000Y-10460000I100000J0D01*
G01*
X14830000Y-10096360D02*
X15630000Y-10096360D01*
X14780000Y-10796360D02*
X14780000Y-10146360D01*
X10255000Y-10755000D02*
G75*
G02*
X10155000Y-10855000I-100000J0D01*
G01*
D11*
D12*
X8627210Y-9019360D02*
X8957210Y-9349360D01*
X8957210Y-9019360D02*
X8627210Y-9349360D01*
X8627210Y-11518360D02*
X8957210Y-11848360D01*
X8957210Y-11518360D02*
X8627210Y-11848360D01*
X20727210Y-9019360D02*
X21057210Y-9349360D01*
X21057210Y-9019360D02*
X20727210Y-9349360D01*
X20727210Y-11518360D02*
X21057210Y-11848360D01*
X21057210Y-11518360D02*
X20727210Y-11848360D01*
D11*
X8458387Y-12564344D02*
X8458387Y-12364344D01*
X8458387Y-12364344D02*
X8506006Y-12364344D01*
X8506006Y-12364344D02*
X8534577Y-12373868D01*
X8534577Y-12373868D02*
X8553625Y-12392915D01*
X8553625Y-12392915D02*
X8563149Y-12411963D01*
X8563149Y-12411963D02*
X8572673Y-12450058D01*
X8572673Y-12450058D02*
X8572673Y-12478629D01*
X8572673Y-12478629D02*
X8563149Y-12516725D01*
X8563149Y-12516725D02*
X8553625Y-12535772D01*
X8553625Y-12535772D02*
X8534577Y-12554820D01*
X8534577Y-12554820D02*
X8506006Y-12564344D01*
X8506006Y-12564344D02*
X8458387Y-12564344D01*
X8658387Y-12564344D02*
X8658387Y-12431010D01*
X8658387Y-12469106D02*
X8667911Y-12450058D01*
X8667911Y-12450058D02*
X8677434Y-12440534D01*
X8677434Y-12440534D02*
X8696482Y-12431010D01*
X8696482Y-12431010D02*
X8715530Y-12431010D01*
X8782196Y-12564344D02*
X8782196Y-12431010D01*
X8782196Y-12364344D02*
X8772673Y-12373868D01*
X8772673Y-12373868D02*
X8782196Y-12383391D01*
X8782196Y-12383391D02*
X8791720Y-12373868D01*
X8791720Y-12373868D02*
X8782196Y-12364344D01*
X8782196Y-12364344D02*
X8782196Y-12383391D01*
X8906006Y-12564344D02*
X8886958Y-12554820D01*
X8886958Y-12554820D02*
X8877434Y-12535772D01*
X8877434Y-12535772D02*
X8877434Y-12364344D01*
X9010768Y-12564344D02*
X8991720Y-12554820D01*
X8991720Y-12554820D02*
X8982196Y-12535772D01*
X8982196Y-12535772D02*
X8982196Y-12364344D01*
X9239339Y-12564344D02*
X9239339Y-12364344D01*
X9239339Y-12364344D02*
X9306006Y-12507201D01*
X9306006Y-12507201D02*
X9372673Y-12364344D01*
X9372673Y-12364344D02*
X9372673Y-12564344D01*
X9553625Y-12564344D02*
X9553625Y-12459582D01*
X9553625Y-12459582D02*
X9544101Y-12440534D01*
X9544101Y-12440534D02*
X9525054Y-12431010D01*
X9525054Y-12431010D02*
X9486958Y-12431010D01*
X9486958Y-12431010D02*
X9467911Y-12440534D01*
X9553625Y-12554820D02*
X9534577Y-12564344D01*
X9534577Y-12564344D02*
X9486958Y-12564344D01*
X9486958Y-12564344D02*
X9467911Y-12554820D01*
X9467911Y-12554820D02*
X9458387Y-12535772D01*
X9458387Y-12535772D02*
X9458387Y-12516725D01*
X9458387Y-12516725D02*
X9467911Y-12497677D01*
X9467911Y-12497677D02*
X9486958Y-12488153D01*
X9486958Y-12488153D02*
X9534577Y-12488153D01*
X9534577Y-12488153D02*
X9553625Y-12478629D01*
X9648863Y-12431010D02*
X9648863Y-12631010D01*
X9648863Y-12440534D02*
X9667911Y-12431010D01*
X9667911Y-12431010D02*
X9706006Y-12431010D01*
X9706006Y-12431010D02*
X9725054Y-12440534D01*
X9725054Y-12440534D02*
X9734577Y-12450058D01*
X9734577Y-12450058D02*
X9744101Y-12469106D01*
X9744101Y-12469106D02*
X9744101Y-12526248D01*
X9744101Y-12526248D02*
X9734577Y-12545296D01*
X9734577Y-12545296D02*
X9725054Y-12554820D01*
X9725054Y-12554820D02*
X9706006Y-12564344D01*
X9706006Y-12564344D02*
X9667911Y-12564344D01*
X9667911Y-12564344D02*
X9648863Y-12554820D01*
X9829815Y-12545296D02*
X9839339Y-12554820D01*
X9839339Y-12554820D02*
X9829815Y-12564344D01*
X9829815Y-12564344D02*
X9820292Y-12554820D01*
X9820292Y-12554820D02*
X9829815Y-12545296D01*
X9829815Y-12545296D02*
X9829815Y-12564344D01*
X9829815Y-12440534D02*
X9839339Y-12450058D01*
X9839339Y-12450058D02*
X9829815Y-12459582D01*
X9829815Y-12459582D02*
X9820292Y-12450058D01*
X9820292Y-12450058D02*
X9829815Y-12440534D01*
X9829815Y-12440534D02*
X9829815Y-12459582D01*
X7997610Y-12792860D02*
X8197610Y-12992860D01*
X8197610Y-12792860D02*
X7997610Y-12992860D01*
X8439339Y-12784344D02*
X8563149Y-12784344D01*
X8563149Y-12784344D02*
X8496482Y-12860534D01*
X8496482Y-12860534D02*
X8525054Y-12860534D01*
X8525054Y-12860534D02*
X8544101Y-12870058D01*
X8544101Y-12870058D02*
X8553625Y-12879582D01*
X8553625Y-12879582D02*
X8563149Y-12898629D01*
X8563149Y-12898629D02*
X8563149Y-12946248D01*
X8563149Y-12946248D02*
X8553625Y-12965296D01*
X8553625Y-12965296D02*
X8544101Y-12974820D01*
X8544101Y-12974820D02*
X8525054Y-12984344D01*
X8525054Y-12984344D02*
X8467911Y-12984344D01*
X8467911Y-12984344D02*
X8448863Y-12974820D01*
X8448863Y-12974820D02*
X8439339Y-12965296D01*
X8648863Y-12965296D02*
X8658387Y-12974820D01*
X8658387Y-12974820D02*
X8648863Y-12984344D01*
X8648863Y-12984344D02*
X8639339Y-12974820D01*
X8639339Y-12974820D02*
X8648863Y-12965296D01*
X8648863Y-12965296D02*
X8648863Y-12984344D01*
X8725054Y-12784344D02*
X8848863Y-12784344D01*
X8848863Y-12784344D02*
X8782196Y-12860534D01*
X8782196Y-12860534D02*
X8810768Y-12860534D01*
X8810768Y-12860534D02*
X8829815Y-12870058D01*
X8829815Y-12870058D02*
X8839339Y-12879582D01*
X8839339Y-12879582D02*
X8848863Y-12898629D01*
X8848863Y-12898629D02*
X8848863Y-12946248D01*
X8848863Y-12946248D02*
X8839339Y-12965296D01*
X8839339Y-12965296D02*
X8829815Y-12974820D01*
X8829815Y-12974820D02*
X8810768Y-12984344D01*
X8810768Y-12984344D02*
X8753625Y-12984344D01*
X8753625Y-12984344D02*
X8734577Y-12974820D01*
X8734577Y-12974820D02*
X8725054Y-12965296D01*
X8972673Y-12784344D02*
X8991720Y-12784344D01*
X8991720Y-12784344D02*
X9010768Y-12793868D01*
X9010768Y-12793868D02*
X9020292Y-12803391D01*
X9020292Y-12803391D02*
X9029815Y-12822439D01*
X9029815Y-12822439D02*
X9039339Y-12860534D01*
X9039339Y-12860534D02*
X9039339Y-12908153D01*
X9039339Y-12908153D02*
X9029815Y-12946248D01*
X9029815Y-12946248D02*
X9020292Y-12965296D01*
X9020292Y-12965296D02*
X9010768Y-12974820D01*
X9010768Y-12974820D02*
X8991720Y-12984344D01*
X8991720Y-12984344D02*
X8972673Y-12984344D01*
X8972673Y-12984344D02*
X8953625Y-12974820D01*
X8953625Y-12974820D02*
X8944101Y-12965296D01*
X8944101Y-12965296D02*
X8934577Y-12946248D01*
X8934577Y-12946248D02*
X8925054Y-12908153D01*
X8925054Y-12908153D02*
X8925054Y-12860534D01*
X8925054Y-12860534D02*
X8934577Y-12822439D01*
X8934577Y-12822439D02*
X8944101Y-12803391D01*
X8944101Y-12803391D02*
X8953625Y-12793868D01*
X8953625Y-12793868D02*
X8972673Y-12784344D01*
X9163149Y-12784344D02*
X9182196Y-12784344D01*
X9182196Y-12784344D02*
X9201244Y-12793868D01*
X9201244Y-12793868D02*
X9210768Y-12803391D01*
X9210768Y-12803391D02*
X9220292Y-12822439D01*
X9220292Y-12822439D02*
X9229815Y-12860534D01*
X9229815Y-12860534D02*
X9229815Y-12908153D01*
X9229815Y-12908153D02*
X9220292Y-12946248D01*
X9220292Y-12946248D02*
X9210768Y-12965296D01*
X9210768Y-12965296D02*
X9201244Y-12974820D01*
X9201244Y-12974820D02*
X9182196Y-12984344D01*
X9182196Y-12984344D02*
X9163149Y-12984344D01*
X9163149Y-12984344D02*
X9144101Y-12974820D01*
X9144101Y-12974820D02*
X9134577Y-12965296D01*
X9134577Y-12965296D02*
X9125054Y-12946248D01*
X9125054Y-12946248D02*
X9115530Y-12908153D01*
X9115530Y-12908153D02*
X9115530Y-12860534D01*
X9115530Y-12860534D02*
X9125054Y-12822439D01*
X9125054Y-12822439D02*
X9134577Y-12803391D01*
X9134577Y-12803391D02*
X9144101Y-12793868D01*
X9144101Y-12793868D02*
X9163149Y-12784344D01*
X9315530Y-12984344D02*
X9315530Y-12851010D01*
X9315530Y-12870058D02*
X9325054Y-12860534D01*
X9325054Y-12860534D02*
X9344101Y-12851010D01*
X9344101Y-12851010D02*
X9372673Y-12851010D01*
X9372673Y-12851010D02*
X9391720Y-12860534D01*
X9391720Y-12860534D02*
X9401244Y-12879582D01*
X9401244Y-12879582D02*
X9401244Y-12984344D01*
X9401244Y-12879582D02*
X9410768Y-12860534D01*
X9410768Y-12860534D02*
X9429815Y-12851010D01*
X9429815Y-12851010D02*
X9458387Y-12851010D01*
X9458387Y-12851010D02*
X9477435Y-12860534D01*
X9477435Y-12860534D02*
X9486958Y-12879582D01*
X9486958Y-12879582D02*
X9486958Y-12984344D01*
X9582196Y-12984344D02*
X9582196Y-12851010D01*
X9582196Y-12870058D02*
X9591720Y-12860534D01*
X9591720Y-12860534D02*
X9610768Y-12851010D01*
X9610768Y-12851010D02*
X9639339Y-12851010D01*
X9639339Y-12851010D02*
X9658387Y-12860534D01*
X9658387Y-12860534D02*
X9667911Y-12879582D01*
X9667911Y-12879582D02*
X9667911Y-12984344D01*
X9667911Y-12879582D02*
X9677435Y-12860534D01*
X9677435Y-12860534D02*
X9696482Y-12851010D01*
X9696482Y-12851010D02*
X9725054Y-12851010D01*
X9725054Y-12851010D02*
X9744101Y-12860534D01*
X9744101Y-12860534D02*
X9753625Y-12879582D01*
X9753625Y-12879582D02*
X9753625Y-12984344D01*
X10144101Y-12774820D02*
X9972673Y-13031963D01*
X10401244Y-12784344D02*
X10420292Y-12784344D01*
X10420292Y-12784344D02*
X10439339Y-12793868D01*
X10439339Y-12793868D02*
X10448863Y-12803391D01*
X10448863Y-12803391D02*
X10458387Y-12822439D01*
X10458387Y-12822439D02*
X10467911Y-12860534D01*
X10467911Y-12860534D02*
X10467911Y-12908153D01*
X10467911Y-12908153D02*
X10458387Y-12946248D01*
X10458387Y-12946248D02*
X10448863Y-12965296D01*
X10448863Y-12965296D02*
X10439339Y-12974820D01*
X10439339Y-12974820D02*
X10420292Y-12984344D01*
X10420292Y-12984344D02*
X10401244Y-12984344D01*
X10401244Y-12984344D02*
X10382197Y-12974820D01*
X10382197Y-12974820D02*
X10372673Y-12965296D01*
X10372673Y-12965296D02*
X10363149Y-12946248D01*
X10363149Y-12946248D02*
X10353625Y-12908153D01*
X10353625Y-12908153D02*
X10353625Y-12860534D01*
X10353625Y-12860534D02*
X10363149Y-12822439D01*
X10363149Y-12822439D02*
X10372673Y-12803391D01*
X10372673Y-12803391D02*
X10382197Y-12793868D01*
X10382197Y-12793868D02*
X10401244Y-12784344D01*
X10553625Y-12965296D02*
X10563149Y-12974820D01*
X10563149Y-12974820D02*
X10553625Y-12984344D01*
X10553625Y-12984344D02*
X10544101Y-12974820D01*
X10544101Y-12974820D02*
X10553625Y-12965296D01*
X10553625Y-12965296D02*
X10553625Y-12984344D01*
X10753625Y-12984344D02*
X10639339Y-12984344D01*
X10696482Y-12984344D02*
X10696482Y-12784344D01*
X10696482Y-12784344D02*
X10677435Y-12812915D01*
X10677435Y-12812915D02*
X10658387Y-12831963D01*
X10658387Y-12831963D02*
X10639339Y-12841487D01*
X10829816Y-12803391D02*
X10839339Y-12793868D01*
X10839339Y-12793868D02*
X10858387Y-12784344D01*
X10858387Y-12784344D02*
X10906006Y-12784344D01*
X10906006Y-12784344D02*
X10925054Y-12793868D01*
X10925054Y-12793868D02*
X10934578Y-12803391D01*
X10934578Y-12803391D02*
X10944101Y-12822439D01*
X10944101Y-12822439D02*
X10944101Y-12841487D01*
X10944101Y-12841487D02*
X10934578Y-12870058D01*
X10934578Y-12870058D02*
X10820292Y-12984344D01*
X10820292Y-12984344D02*
X10944101Y-12984344D01*
X11039339Y-12984344D02*
X11077435Y-12984344D01*
X11077435Y-12984344D02*
X11096482Y-12974820D01*
X11096482Y-12974820D02*
X11106006Y-12965296D01*
X11106006Y-12965296D02*
X11125054Y-12936725D01*
X11125054Y-12936725D02*
X11134578Y-12898629D01*
X11134578Y-12898629D02*
X11134578Y-12822439D01*
X11134578Y-12822439D02*
X11125054Y-12803391D01*
X11125054Y-12803391D02*
X11115530Y-12793868D01*
X11115530Y-12793868D02*
X11096482Y-12784344D01*
X11096482Y-12784344D02*
X11058387Y-12784344D01*
X11058387Y-12784344D02*
X11039339Y-12793868D01*
X11039339Y-12793868D02*
X11029816Y-12803391D01*
X11029816Y-12803391D02*
X11020292Y-12822439D01*
X11020292Y-12822439D02*
X11020292Y-12870058D01*
X11020292Y-12870058D02*
X11029816Y-12889106D01*
X11029816Y-12889106D02*
X11039339Y-12898629D01*
X11039339Y-12898629D02*
X11058387Y-12908153D01*
X11058387Y-12908153D02*
X11096482Y-12908153D01*
X11096482Y-12908153D02*
X11115530Y-12898629D01*
X11115530Y-12898629D02*
X11125054Y-12889106D01*
X11125054Y-12889106D02*
X11134578Y-12870058D01*
X11229816Y-12984344D02*
X11267911Y-12984344D01*
X11267911Y-12984344D02*
X11286958Y-12974820D01*
X11286958Y-12974820D02*
X11296482Y-12965296D01*
X11296482Y-12965296D02*
X11315530Y-12936725D01*
X11315530Y-12936725D02*
X11325054Y-12898629D01*
X11325054Y-12898629D02*
X11325054Y-12822439D01*
X11325054Y-12822439D02*
X11315530Y-12803391D01*
X11315530Y-12803391D02*
X11306006Y-12793868D01*
X11306006Y-12793868D02*
X11286958Y-12784344D01*
X11286958Y-12784344D02*
X11248863Y-12784344D01*
X11248863Y-12784344D02*
X11229816Y-12793868D01*
X11229816Y-12793868D02*
X11220292Y-12803391D01*
X11220292Y-12803391D02*
X11210768Y-12822439D01*
X11210768Y-12822439D02*
X11210768Y-12870058D01*
X11210768Y-12870058D02*
X11220292Y-12889106D01*
X11220292Y-12889106D02*
X11229816Y-12898629D01*
X11229816Y-12898629D02*
X11248863Y-12908153D01*
X11248863Y-12908153D02*
X11286958Y-12908153D01*
X11286958Y-12908153D02*
X11306006Y-12898629D01*
X11306006Y-12898629D02*
X11315530Y-12889106D01*
X11315530Y-12889106D02*
X11325054Y-12870058D01*
X11401244Y-12784344D02*
X11401244Y-12822439D01*
X11477435Y-12784344D02*
X11477435Y-12822439D01*
X11772673Y-13060534D02*
X11763149Y-13051010D01*
X11763149Y-13051010D02*
X11744101Y-13022439D01*
X11744101Y-13022439D02*
X11734578Y-13003391D01*
X11734578Y-13003391D02*
X11725054Y-12974820D01*
X11725054Y-12974820D02*
X11715530Y-12927201D01*
X11715530Y-12927201D02*
X11715530Y-12889106D01*
X11715530Y-12889106D02*
X11725054Y-12841487D01*
X11725054Y-12841487D02*
X11734578Y-12812915D01*
X11734578Y-12812915D02*
X11744101Y-12793868D01*
X11744101Y-12793868D02*
X11763149Y-12765296D01*
X11763149Y-12765296D02*
X11772673Y-12755772D01*
X11934578Y-12851010D02*
X11934578Y-12984344D01*
X11886958Y-12774820D02*
X11839339Y-12917677D01*
X11839339Y-12917677D02*
X11963149Y-12917677D01*
X12191720Y-12984344D02*
X12191720Y-12784344D01*
X12277435Y-12984344D02*
X12277435Y-12879582D01*
X12277435Y-12879582D02*
X12267911Y-12860534D01*
X12267911Y-12860534D02*
X12248863Y-12851010D01*
X12248863Y-12851010D02*
X12220292Y-12851010D01*
X12220292Y-12851010D02*
X12201244Y-12860534D01*
X12201244Y-12860534D02*
X12191720Y-12870058D01*
X12401244Y-12984344D02*
X12382197Y-12974820D01*
X12382197Y-12974820D02*
X12372673Y-12965296D01*
X12372673Y-12965296D02*
X12363149Y-12946248D01*
X12363149Y-12946248D02*
X12363149Y-12889106D01*
X12363149Y-12889106D02*
X12372673Y-12870058D01*
X12372673Y-12870058D02*
X12382197Y-12860534D01*
X12382197Y-12860534D02*
X12401244Y-12851010D01*
X12401244Y-12851010D02*
X12429816Y-12851010D01*
X12429816Y-12851010D02*
X12448863Y-12860534D01*
X12448863Y-12860534D02*
X12458387Y-12870058D01*
X12458387Y-12870058D02*
X12467911Y-12889106D01*
X12467911Y-12889106D02*
X12467911Y-12946248D01*
X12467911Y-12946248D02*
X12458387Y-12965296D01*
X12458387Y-12965296D02*
X12448863Y-12974820D01*
X12448863Y-12974820D02*
X12429816Y-12984344D01*
X12429816Y-12984344D02*
X12401244Y-12984344D01*
X12582197Y-12984344D02*
X12563149Y-12974820D01*
X12563149Y-12974820D02*
X12553625Y-12955772D01*
X12553625Y-12955772D02*
X12553625Y-12784344D01*
X12734578Y-12974820D02*
X12715530Y-12984344D01*
X12715530Y-12984344D02*
X12677435Y-12984344D01*
X12677435Y-12984344D02*
X12658387Y-12974820D01*
X12658387Y-12974820D02*
X12648863Y-12955772D01*
X12648863Y-12955772D02*
X12648863Y-12879582D01*
X12648863Y-12879582D02*
X12658387Y-12860534D01*
X12658387Y-12860534D02*
X12677435Y-12851010D01*
X12677435Y-12851010D02*
X12715530Y-12851010D01*
X12715530Y-12851010D02*
X12734578Y-12860534D01*
X12734578Y-12860534D02*
X12744101Y-12879582D01*
X12744101Y-12879582D02*
X12744101Y-12898629D01*
X12744101Y-12898629D02*
X12648863Y-12917677D01*
X12820292Y-12974820D02*
X12839340Y-12984344D01*
X12839340Y-12984344D02*
X12877435Y-12984344D01*
X12877435Y-12984344D02*
X12896482Y-12974820D01*
X12896482Y-12974820D02*
X12906006Y-12955772D01*
X12906006Y-12955772D02*
X12906006Y-12946248D01*
X12906006Y-12946248D02*
X12896482Y-12927201D01*
X12896482Y-12927201D02*
X12877435Y-12917677D01*
X12877435Y-12917677D02*
X12848863Y-12917677D01*
X12848863Y-12917677D02*
X12829816Y-12908153D01*
X12829816Y-12908153D02*
X12820292Y-12889106D01*
X12820292Y-12889106D02*
X12820292Y-12879582D01*
X12820292Y-12879582D02*
X12829816Y-12860534D01*
X12829816Y-12860534D02*
X12848863Y-12851010D01*
X12848863Y-12851010D02*
X12877435Y-12851010D01*
X12877435Y-12851010D02*
X12896482Y-12860534D01*
X12972673Y-13060534D02*
X12982197Y-13051010D01*
X12982197Y-13051010D02*
X13001244Y-13022439D01*
X13001244Y-13022439D02*
X13010768Y-13003391D01*
X13010768Y-13003391D02*
X13020292Y-12974820D01*
X13020292Y-12974820D02*
X13029816Y-12927201D01*
X13029816Y-12927201D02*
X13029816Y-12889106D01*
X13029816Y-12889106D02*
X13020292Y-12841487D01*
X13020292Y-12841487D02*
X13010768Y-12812915D01*
X13010768Y-12812915D02*
X13001244Y-12793868D01*
X13001244Y-12793868D02*
X12982197Y-12765296D01*
X12982197Y-12765296D02*
X12972673Y-12755772D01*
M02*
