%TF.GenerationSoftware,KiCad,Pcbnew,9.0.7*%
%TF.CreationDate,2026-04-16T11:14:31+01:00*%
%TF.ProjectId,stepper driver rear panel,73746570-7065-4722-9064-726976657220,rev?*%
%TF.SameCoordinates,Original*%
%TF.FileFunction,Legend,Top*%
%TF.FilePolarity,Positive*%
%FSLAX46Y46*%
G04 Gerber Fmt 4.6, Leading zero omitted, Abs format (unit mm)*
G04 Created by KiCad (PCBNEW 9.0.7) date 2026-04-16 11:14:31*
%MOMM*%
%LPD*%
G01*
G04 APERTURE LIST*
%ADD10C,0.200000*%
%ADD11C,6.000000*%
%ADD12C,4.316000*%
%TA.AperFunction,Profile*%
%ADD13C,0.050000*%
%TD*%
G04 APERTURE END LIST*
D10*
X192492252Y-97036875D02*
X192492252Y-96036875D01*
X192492252Y-96036875D02*
X192873204Y-96036875D01*
X192873204Y-96036875D02*
X192968442Y-96084494D01*
X192968442Y-96084494D02*
X193016061Y-96132113D01*
X193016061Y-96132113D02*
X193063680Y-96227351D01*
X193063680Y-96227351D02*
X193063680Y-96370208D01*
X193063680Y-96370208D02*
X193016061Y-96465446D01*
X193016061Y-96465446D02*
X192968442Y-96513065D01*
X192968442Y-96513065D02*
X192873204Y-96560684D01*
X192873204Y-96560684D02*
X192492252Y-96560684D01*
X193682728Y-96036875D02*
X193873204Y-96036875D01*
X193873204Y-96036875D02*
X193968442Y-96084494D01*
X193968442Y-96084494D02*
X194063680Y-96179732D01*
X194063680Y-96179732D02*
X194111299Y-96370208D01*
X194111299Y-96370208D02*
X194111299Y-96703541D01*
X194111299Y-96703541D02*
X194063680Y-96894017D01*
X194063680Y-96894017D02*
X193968442Y-96989256D01*
X193968442Y-96989256D02*
X193873204Y-97036875D01*
X193873204Y-97036875D02*
X193682728Y-97036875D01*
X193682728Y-97036875D02*
X193587490Y-96989256D01*
X193587490Y-96989256D02*
X193492252Y-96894017D01*
X193492252Y-96894017D02*
X193444633Y-96703541D01*
X193444633Y-96703541D02*
X193444633Y-96370208D01*
X193444633Y-96370208D02*
X193492252Y-96179732D01*
X193492252Y-96179732D02*
X193587490Y-96084494D01*
X193587490Y-96084494D02*
X193682728Y-96036875D01*
X194444633Y-96036875D02*
X194682728Y-97036875D01*
X194682728Y-97036875D02*
X194873204Y-96322589D01*
X194873204Y-96322589D02*
X195063680Y-97036875D01*
X195063680Y-97036875D02*
X195301776Y-96036875D01*
X195682728Y-96513065D02*
X196016061Y-96513065D01*
X196158918Y-97036875D02*
X195682728Y-97036875D01*
X195682728Y-97036875D02*
X195682728Y-96036875D01*
X195682728Y-96036875D02*
X196158918Y-96036875D01*
X197158918Y-97036875D02*
X196825585Y-96560684D01*
X196587490Y-97036875D02*
X196587490Y-96036875D01*
X196587490Y-96036875D02*
X196968442Y-96036875D01*
X196968442Y-96036875D02*
X197063680Y-96084494D01*
X197063680Y-96084494D02*
X197111299Y-96132113D01*
X197111299Y-96132113D02*
X197158918Y-96227351D01*
X197158918Y-96227351D02*
X197158918Y-96370208D01*
X197158918Y-96370208D02*
X197111299Y-96465446D01*
X197111299Y-96465446D02*
X197063680Y-96513065D01*
X197063680Y-96513065D02*
X196968442Y-96560684D01*
X196968442Y-96560684D02*
X196587490Y-96560684D01*
X192158919Y-98599200D02*
X192301776Y-98646819D01*
X192301776Y-98646819D02*
X192539871Y-98646819D01*
X192539871Y-98646819D02*
X192635109Y-98599200D01*
X192635109Y-98599200D02*
X192682728Y-98551580D01*
X192682728Y-98551580D02*
X192730347Y-98456342D01*
X192730347Y-98456342D02*
X192730347Y-98361104D01*
X192730347Y-98361104D02*
X192682728Y-98265866D01*
X192682728Y-98265866D02*
X192635109Y-98218247D01*
X192635109Y-98218247D02*
X192539871Y-98170628D01*
X192539871Y-98170628D02*
X192349395Y-98123009D01*
X192349395Y-98123009D02*
X192254157Y-98075390D01*
X192254157Y-98075390D02*
X192206538Y-98027771D01*
X192206538Y-98027771D02*
X192158919Y-97932533D01*
X192158919Y-97932533D02*
X192158919Y-97837295D01*
X192158919Y-97837295D02*
X192206538Y-97742057D01*
X192206538Y-97742057D02*
X192254157Y-97694438D01*
X192254157Y-97694438D02*
X192349395Y-97646819D01*
X192349395Y-97646819D02*
X192587490Y-97646819D01*
X192587490Y-97646819D02*
X192730347Y-97694438D01*
X193158919Y-97646819D02*
X193158919Y-98456342D01*
X193158919Y-98456342D02*
X193206538Y-98551580D01*
X193206538Y-98551580D02*
X193254157Y-98599200D01*
X193254157Y-98599200D02*
X193349395Y-98646819D01*
X193349395Y-98646819D02*
X193539871Y-98646819D01*
X193539871Y-98646819D02*
X193635109Y-98599200D01*
X193635109Y-98599200D02*
X193682728Y-98551580D01*
X193682728Y-98551580D02*
X193730347Y-98456342D01*
X193730347Y-98456342D02*
X193730347Y-97646819D01*
X194206538Y-98646819D02*
X194206538Y-97646819D01*
X194206538Y-97646819D02*
X194587490Y-97646819D01*
X194587490Y-97646819D02*
X194682728Y-97694438D01*
X194682728Y-97694438D02*
X194730347Y-97742057D01*
X194730347Y-97742057D02*
X194777966Y-97837295D01*
X194777966Y-97837295D02*
X194777966Y-97980152D01*
X194777966Y-97980152D02*
X194730347Y-98075390D01*
X194730347Y-98075390D02*
X194682728Y-98123009D01*
X194682728Y-98123009D02*
X194587490Y-98170628D01*
X194587490Y-98170628D02*
X194206538Y-98170628D01*
X195206538Y-98646819D02*
X195206538Y-97646819D01*
X195206538Y-97646819D02*
X195587490Y-97646819D01*
X195587490Y-97646819D02*
X195682728Y-97694438D01*
X195682728Y-97694438D02*
X195730347Y-97742057D01*
X195730347Y-97742057D02*
X195777966Y-97837295D01*
X195777966Y-97837295D02*
X195777966Y-97980152D01*
X195777966Y-97980152D02*
X195730347Y-98075390D01*
X195730347Y-98075390D02*
X195682728Y-98123009D01*
X195682728Y-98123009D02*
X195587490Y-98170628D01*
X195587490Y-98170628D02*
X195206538Y-98170628D01*
X196682728Y-98646819D02*
X196206538Y-98646819D01*
X196206538Y-98646819D02*
X196206538Y-97646819D01*
X197206538Y-98170628D02*
X197206538Y-98646819D01*
X196873205Y-97646819D02*
X197206538Y-98170628D01*
X197206538Y-98170628D02*
X197539871Y-97646819D01*
X196312857Y-112641112D02*
X197241429Y-112641112D01*
X197241429Y-112641112D02*
X196741429Y-113212541D01*
X196741429Y-113212541D02*
X196955714Y-113212541D01*
X196955714Y-113212541D02*
X197098572Y-113283969D01*
X197098572Y-113283969D02*
X197170000Y-113355398D01*
X197170000Y-113355398D02*
X197241429Y-113498255D01*
X197241429Y-113498255D02*
X197241429Y-113855398D01*
X197241429Y-113855398D02*
X197170000Y-113998255D01*
X197170000Y-113998255D02*
X197098572Y-114069684D01*
X197098572Y-114069684D02*
X196955714Y-114141112D01*
X196955714Y-114141112D02*
X196527143Y-114141112D01*
X196527143Y-114141112D02*
X196384286Y-114069684D01*
X196384286Y-114069684D02*
X196312857Y-113998255D01*
X198527143Y-112641112D02*
X198241428Y-112641112D01*
X198241428Y-112641112D02*
X198098571Y-112712541D01*
X198098571Y-112712541D02*
X198027143Y-112783969D01*
X198027143Y-112783969D02*
X197884285Y-112998255D01*
X197884285Y-112998255D02*
X197812857Y-113283969D01*
X197812857Y-113283969D02*
X197812857Y-113855398D01*
X197812857Y-113855398D02*
X197884285Y-113998255D01*
X197884285Y-113998255D02*
X197955714Y-114069684D01*
X197955714Y-114069684D02*
X198098571Y-114141112D01*
X198098571Y-114141112D02*
X198384285Y-114141112D01*
X198384285Y-114141112D02*
X198527143Y-114069684D01*
X198527143Y-114069684D02*
X198598571Y-113998255D01*
X198598571Y-113998255D02*
X198670000Y-113855398D01*
X198670000Y-113855398D02*
X198670000Y-113498255D01*
X198670000Y-113498255D02*
X198598571Y-113355398D01*
X198598571Y-113355398D02*
X198527143Y-113283969D01*
X198527143Y-113283969D02*
X198384285Y-113212541D01*
X198384285Y-113212541D02*
X198098571Y-113212541D01*
X198098571Y-113212541D02*
X197955714Y-113283969D01*
X197955714Y-113283969D02*
X197884285Y-113355398D01*
X197884285Y-113355398D02*
X197812857Y-113498255D01*
X199098571Y-112641112D02*
X199598571Y-114141112D01*
X199598571Y-114141112D02*
X200098571Y-112641112D01*
X197241429Y-116556028D02*
X196384286Y-116556028D01*
X196812857Y-116556028D02*
X196812857Y-115056028D01*
X196812857Y-115056028D02*
X196670000Y-115270314D01*
X196670000Y-115270314D02*
X196527143Y-115413171D01*
X196527143Y-115413171D02*
X196384286Y-115484600D01*
X197812857Y-115198885D02*
X197884285Y-115127457D01*
X197884285Y-115127457D02*
X198027143Y-115056028D01*
X198027143Y-115056028D02*
X198384285Y-115056028D01*
X198384285Y-115056028D02*
X198527143Y-115127457D01*
X198527143Y-115127457D02*
X198598571Y-115198885D01*
X198598571Y-115198885D02*
X198670000Y-115341742D01*
X198670000Y-115341742D02*
X198670000Y-115484600D01*
X198670000Y-115484600D02*
X198598571Y-115698885D01*
X198598571Y-115698885D02*
X197741428Y-116556028D01*
X197741428Y-116556028D02*
X198670000Y-116556028D01*
X199098571Y-115056028D02*
X199598571Y-116556028D01*
X199598571Y-116556028D02*
X200098571Y-115056028D01*
X149776190Y-96513009D02*
X150109523Y-96513009D01*
X150252380Y-97036819D02*
X149776190Y-97036819D01*
X149776190Y-97036819D02*
X149776190Y-96036819D01*
X149776190Y-96036819D02*
X150252380Y-96036819D01*
X150680952Y-97036819D02*
X150680952Y-96036819D01*
X150680952Y-96036819D02*
X151252380Y-97036819D01*
X151252380Y-97036819D02*
X151252380Y-96036819D01*
X151680952Y-96751104D02*
X152157142Y-96751104D01*
X151585714Y-97036819D02*
X151919047Y-96036819D01*
X151919047Y-96036819D02*
X152252380Y-97036819D01*
X152919047Y-96513009D02*
X153061904Y-96560628D01*
X153061904Y-96560628D02*
X153109523Y-96608247D01*
X153109523Y-96608247D02*
X153157142Y-96703485D01*
X153157142Y-96703485D02*
X153157142Y-96846342D01*
X153157142Y-96846342D02*
X153109523Y-96941580D01*
X153109523Y-96941580D02*
X153061904Y-96989200D01*
X153061904Y-96989200D02*
X152966666Y-97036819D01*
X152966666Y-97036819D02*
X152585714Y-97036819D01*
X152585714Y-97036819D02*
X152585714Y-96036819D01*
X152585714Y-96036819D02*
X152919047Y-96036819D01*
X152919047Y-96036819D02*
X153014285Y-96084438D01*
X153014285Y-96084438D02*
X153061904Y-96132057D01*
X153061904Y-96132057D02*
X153109523Y-96227295D01*
X153109523Y-96227295D02*
X153109523Y-96322533D01*
X153109523Y-96322533D02*
X153061904Y-96417771D01*
X153061904Y-96417771D02*
X153014285Y-96465390D01*
X153014285Y-96465390D02*
X152919047Y-96513009D01*
X152919047Y-96513009D02*
X152585714Y-96513009D01*
X154061904Y-97036819D02*
X153585714Y-97036819D01*
X153585714Y-97036819D02*
X153585714Y-96036819D01*
X154395238Y-96513009D02*
X154728571Y-96513009D01*
X154871428Y-97036819D02*
X154395238Y-97036819D01*
X154395238Y-97036819D02*
X154395238Y-96036819D01*
X154395238Y-96036819D02*
X154871428Y-96036819D01*
X136286814Y-116379914D02*
X135786814Y-116379914D01*
X135786814Y-117165628D02*
X135786814Y-115665628D01*
X135786814Y-115665628D02*
X136501100Y-115665628D01*
X137286814Y-117165628D02*
X137143957Y-117094200D01*
X137143957Y-117094200D02*
X137072528Y-117022771D01*
X137072528Y-117022771D02*
X137001100Y-116879914D01*
X137001100Y-116879914D02*
X137001100Y-116451342D01*
X137001100Y-116451342D02*
X137072528Y-116308485D01*
X137072528Y-116308485D02*
X137143957Y-116237057D01*
X137143957Y-116237057D02*
X137286814Y-116165628D01*
X137286814Y-116165628D02*
X137501100Y-116165628D01*
X137501100Y-116165628D02*
X137643957Y-116237057D01*
X137643957Y-116237057D02*
X137715386Y-116308485D01*
X137715386Y-116308485D02*
X137786814Y-116451342D01*
X137786814Y-116451342D02*
X137786814Y-116879914D01*
X137786814Y-116879914D02*
X137715386Y-117022771D01*
X137715386Y-117022771D02*
X137643957Y-117094200D01*
X137643957Y-117094200D02*
X137501100Y-117165628D01*
X137501100Y-117165628D02*
X137286814Y-117165628D01*
X138429671Y-117165628D02*
X138429671Y-116165628D01*
X138429671Y-116451342D02*
X138501100Y-116308485D01*
X138501100Y-116308485D02*
X138572529Y-116237057D01*
X138572529Y-116237057D02*
X138715386Y-116165628D01*
X138715386Y-116165628D02*
X138858243Y-116165628D01*
X141358242Y-117165628D02*
X140858242Y-116451342D01*
X140501099Y-117165628D02*
X140501099Y-115665628D01*
X140501099Y-115665628D02*
X141072528Y-115665628D01*
X141072528Y-115665628D02*
X141215385Y-115737057D01*
X141215385Y-115737057D02*
X141286814Y-115808485D01*
X141286814Y-115808485D02*
X141358242Y-115951342D01*
X141358242Y-115951342D02*
X141358242Y-116165628D01*
X141358242Y-116165628D02*
X141286814Y-116308485D01*
X141286814Y-116308485D02*
X141215385Y-116379914D01*
X141215385Y-116379914D02*
X141072528Y-116451342D01*
X141072528Y-116451342D02*
X140501099Y-116451342D01*
X142572528Y-117094200D02*
X142429671Y-117165628D01*
X142429671Y-117165628D02*
X142143957Y-117165628D01*
X142143957Y-117165628D02*
X142001099Y-117094200D01*
X142001099Y-117094200D02*
X141929671Y-116951342D01*
X141929671Y-116951342D02*
X141929671Y-116379914D01*
X141929671Y-116379914D02*
X142001099Y-116237057D01*
X142001099Y-116237057D02*
X142143957Y-116165628D01*
X142143957Y-116165628D02*
X142429671Y-116165628D01*
X142429671Y-116165628D02*
X142572528Y-116237057D01*
X142572528Y-116237057D02*
X142643957Y-116379914D01*
X142643957Y-116379914D02*
X142643957Y-116522771D01*
X142643957Y-116522771D02*
X141929671Y-116665628D01*
X143215385Y-117094200D02*
X143358242Y-117165628D01*
X143358242Y-117165628D02*
X143643956Y-117165628D01*
X143643956Y-117165628D02*
X143786813Y-117094200D01*
X143786813Y-117094200D02*
X143858242Y-116951342D01*
X143858242Y-116951342D02*
X143858242Y-116879914D01*
X143858242Y-116879914D02*
X143786813Y-116737057D01*
X143786813Y-116737057D02*
X143643956Y-116665628D01*
X143643956Y-116665628D02*
X143429671Y-116665628D01*
X143429671Y-116665628D02*
X143286813Y-116594200D01*
X143286813Y-116594200D02*
X143215385Y-116451342D01*
X143215385Y-116451342D02*
X143215385Y-116379914D01*
X143215385Y-116379914D02*
X143286813Y-116237057D01*
X143286813Y-116237057D02*
X143429671Y-116165628D01*
X143429671Y-116165628D02*
X143643956Y-116165628D01*
X143643956Y-116165628D02*
X143786813Y-116237057D01*
X145072528Y-117094200D02*
X144929671Y-117165628D01*
X144929671Y-117165628D02*
X144643957Y-117165628D01*
X144643957Y-117165628D02*
X144501099Y-117094200D01*
X144501099Y-117094200D02*
X144429671Y-116951342D01*
X144429671Y-116951342D02*
X144429671Y-116379914D01*
X144429671Y-116379914D02*
X144501099Y-116237057D01*
X144501099Y-116237057D02*
X144643957Y-116165628D01*
X144643957Y-116165628D02*
X144929671Y-116165628D01*
X144929671Y-116165628D02*
X145072528Y-116237057D01*
X145072528Y-116237057D02*
X145143957Y-116379914D01*
X145143957Y-116379914D02*
X145143957Y-116522771D01*
X145143957Y-116522771D02*
X144429671Y-116665628D01*
X146429671Y-117165628D02*
X146429671Y-116379914D01*
X146429671Y-116379914D02*
X146358242Y-116237057D01*
X146358242Y-116237057D02*
X146215385Y-116165628D01*
X146215385Y-116165628D02*
X145929671Y-116165628D01*
X145929671Y-116165628D02*
X145786813Y-116237057D01*
X146429671Y-117094200D02*
X146286813Y-117165628D01*
X146286813Y-117165628D02*
X145929671Y-117165628D01*
X145929671Y-117165628D02*
X145786813Y-117094200D01*
X145786813Y-117094200D02*
X145715385Y-116951342D01*
X145715385Y-116951342D02*
X145715385Y-116808485D01*
X145715385Y-116808485D02*
X145786813Y-116665628D01*
X145786813Y-116665628D02*
X145929671Y-116594200D01*
X145929671Y-116594200D02*
X146286813Y-116594200D01*
X146286813Y-116594200D02*
X146429671Y-116522771D01*
X147143956Y-117165628D02*
X147143956Y-116165628D01*
X147143956Y-116451342D02*
X147215385Y-116308485D01*
X147215385Y-116308485D02*
X147286814Y-116237057D01*
X147286814Y-116237057D02*
X147429671Y-116165628D01*
X147429671Y-116165628D02*
X147572528Y-116165628D01*
X148715385Y-117094200D02*
X148572527Y-117165628D01*
X148572527Y-117165628D02*
X148286813Y-117165628D01*
X148286813Y-117165628D02*
X148143956Y-117094200D01*
X148143956Y-117094200D02*
X148072527Y-117022771D01*
X148072527Y-117022771D02*
X148001099Y-116879914D01*
X148001099Y-116879914D02*
X148001099Y-116451342D01*
X148001099Y-116451342D02*
X148072527Y-116308485D01*
X148072527Y-116308485D02*
X148143956Y-116237057D01*
X148143956Y-116237057D02*
X148286813Y-116165628D01*
X148286813Y-116165628D02*
X148572527Y-116165628D01*
X148572527Y-116165628D02*
X148715385Y-116237057D01*
X149358241Y-117165628D02*
X149358241Y-115665628D01*
X150001099Y-117165628D02*
X150001099Y-116379914D01*
X150001099Y-116379914D02*
X149929670Y-116237057D01*
X149929670Y-116237057D02*
X149786813Y-116165628D01*
X149786813Y-116165628D02*
X149572527Y-116165628D01*
X149572527Y-116165628D02*
X149429670Y-116237057D01*
X149429670Y-116237057D02*
X149358241Y-116308485D01*
X151858241Y-115665628D02*
X151858241Y-116879914D01*
X151858241Y-116879914D02*
X151929670Y-117022771D01*
X151929670Y-117022771D02*
X152001099Y-117094200D01*
X152001099Y-117094200D02*
X152143956Y-117165628D01*
X152143956Y-117165628D02*
X152429670Y-117165628D01*
X152429670Y-117165628D02*
X152572527Y-117094200D01*
X152572527Y-117094200D02*
X152643956Y-117022771D01*
X152643956Y-117022771D02*
X152715384Y-116879914D01*
X152715384Y-116879914D02*
X152715384Y-115665628D01*
X153358242Y-117094200D02*
X153501099Y-117165628D01*
X153501099Y-117165628D02*
X153786813Y-117165628D01*
X153786813Y-117165628D02*
X153929670Y-117094200D01*
X153929670Y-117094200D02*
X154001099Y-116951342D01*
X154001099Y-116951342D02*
X154001099Y-116879914D01*
X154001099Y-116879914D02*
X153929670Y-116737057D01*
X153929670Y-116737057D02*
X153786813Y-116665628D01*
X153786813Y-116665628D02*
X153572528Y-116665628D01*
X153572528Y-116665628D02*
X153429670Y-116594200D01*
X153429670Y-116594200D02*
X153358242Y-116451342D01*
X153358242Y-116451342D02*
X153358242Y-116379914D01*
X153358242Y-116379914D02*
X153429670Y-116237057D01*
X153429670Y-116237057D02*
X153572528Y-116165628D01*
X153572528Y-116165628D02*
X153786813Y-116165628D01*
X153786813Y-116165628D02*
X153929670Y-116237057D01*
X155215385Y-117094200D02*
X155072528Y-117165628D01*
X155072528Y-117165628D02*
X154786814Y-117165628D01*
X154786814Y-117165628D02*
X154643956Y-117094200D01*
X154643956Y-117094200D02*
X154572528Y-116951342D01*
X154572528Y-116951342D02*
X154572528Y-116379914D01*
X154572528Y-116379914D02*
X154643956Y-116237057D01*
X154643956Y-116237057D02*
X154786814Y-116165628D01*
X154786814Y-116165628D02*
X155072528Y-116165628D01*
X155072528Y-116165628D02*
X155215385Y-116237057D01*
X155215385Y-116237057D02*
X155286814Y-116379914D01*
X155286814Y-116379914D02*
X155286814Y-116522771D01*
X155286814Y-116522771D02*
X154572528Y-116665628D01*
X157358242Y-115665628D02*
X157643956Y-115665628D01*
X157643956Y-115665628D02*
X157786813Y-115737057D01*
X157786813Y-115737057D02*
X157929670Y-115879914D01*
X157929670Y-115879914D02*
X158001099Y-116165628D01*
X158001099Y-116165628D02*
X158001099Y-116665628D01*
X158001099Y-116665628D02*
X157929670Y-116951342D01*
X157929670Y-116951342D02*
X157786813Y-117094200D01*
X157786813Y-117094200D02*
X157643956Y-117165628D01*
X157643956Y-117165628D02*
X157358242Y-117165628D01*
X157358242Y-117165628D02*
X157215385Y-117094200D01*
X157215385Y-117094200D02*
X157072527Y-116951342D01*
X157072527Y-116951342D02*
X157001099Y-116665628D01*
X157001099Y-116665628D02*
X157001099Y-116165628D01*
X157001099Y-116165628D02*
X157072527Y-115879914D01*
X157072527Y-115879914D02*
X157215385Y-115737057D01*
X157215385Y-115737057D02*
X157358242Y-115665628D01*
X158643956Y-116165628D02*
X158643956Y-117165628D01*
X158643956Y-116308485D02*
X158715385Y-116237057D01*
X158715385Y-116237057D02*
X158858242Y-116165628D01*
X158858242Y-116165628D02*
X159072528Y-116165628D01*
X159072528Y-116165628D02*
X159215385Y-116237057D01*
X159215385Y-116237057D02*
X159286814Y-116379914D01*
X159286814Y-116379914D02*
X159286814Y-117165628D01*
X160215385Y-117165628D02*
X160072528Y-117094200D01*
X160072528Y-117094200D02*
X160001099Y-116951342D01*
X160001099Y-116951342D02*
X160001099Y-115665628D01*
X160643956Y-116165628D02*
X161001099Y-117165628D01*
X161358242Y-116165628D02*
X161001099Y-117165628D01*
X161001099Y-117165628D02*
X160858242Y-117522771D01*
X160858242Y-117522771D02*
X160786813Y-117594200D01*
X160786813Y-117594200D02*
X160643956Y-117665628D01*
X189537142Y-114141112D02*
X189537142Y-112641112D01*
X189537142Y-112641112D02*
X190037142Y-113712541D01*
X190037142Y-113712541D02*
X190537142Y-112641112D01*
X190537142Y-112641112D02*
X190537142Y-114141112D01*
X191894286Y-114141112D02*
X191894286Y-113355398D01*
X191894286Y-113355398D02*
X191822857Y-113212541D01*
X191822857Y-113212541D02*
X191680000Y-113141112D01*
X191680000Y-113141112D02*
X191394286Y-113141112D01*
X191394286Y-113141112D02*
X191251428Y-113212541D01*
X191894286Y-114069684D02*
X191751428Y-114141112D01*
X191751428Y-114141112D02*
X191394286Y-114141112D01*
X191394286Y-114141112D02*
X191251428Y-114069684D01*
X191251428Y-114069684D02*
X191180000Y-113926826D01*
X191180000Y-113926826D02*
X191180000Y-113783969D01*
X191180000Y-113783969D02*
X191251428Y-113641112D01*
X191251428Y-113641112D02*
X191394286Y-113569684D01*
X191394286Y-113569684D02*
X191751428Y-113569684D01*
X191751428Y-113569684D02*
X191894286Y-113498255D01*
X192465714Y-114141112D02*
X193251429Y-113141112D01*
X192465714Y-113141112D02*
X193251429Y-114141112D01*
X193822857Y-113998255D02*
X193894286Y-114069684D01*
X193894286Y-114069684D02*
X193822857Y-114141112D01*
X193822857Y-114141112D02*
X193751429Y-114069684D01*
X193751429Y-114069684D02*
X193822857Y-113998255D01*
X193822857Y-113998255D02*
X193822857Y-114141112D01*
X193822857Y-113212541D02*
X193894286Y-113283969D01*
X193894286Y-113283969D02*
X193822857Y-113355398D01*
X193822857Y-113355398D02*
X193751429Y-113283969D01*
X193751429Y-113283969D02*
X193822857Y-113212541D01*
X193822857Y-113212541D02*
X193822857Y-113355398D01*
X189787142Y-116556028D02*
X189787142Y-115056028D01*
X189787142Y-115056028D02*
X190287142Y-116127457D01*
X190287142Y-116127457D02*
X190787142Y-115056028D01*
X190787142Y-115056028D02*
X190787142Y-116556028D01*
X191501428Y-116556028D02*
X191501428Y-115556028D01*
X191501428Y-115056028D02*
X191430000Y-115127457D01*
X191430000Y-115127457D02*
X191501428Y-115198885D01*
X191501428Y-115198885D02*
X191572857Y-115127457D01*
X191572857Y-115127457D02*
X191501428Y-115056028D01*
X191501428Y-115056028D02*
X191501428Y-115198885D01*
X192215714Y-115556028D02*
X192215714Y-116556028D01*
X192215714Y-115698885D02*
X192287143Y-115627457D01*
X192287143Y-115627457D02*
X192430000Y-115556028D01*
X192430000Y-115556028D02*
X192644286Y-115556028D01*
X192644286Y-115556028D02*
X192787143Y-115627457D01*
X192787143Y-115627457D02*
X192858572Y-115770314D01*
X192858572Y-115770314D02*
X192858572Y-116556028D01*
X193572857Y-116413171D02*
X193644286Y-116484600D01*
X193644286Y-116484600D02*
X193572857Y-116556028D01*
X193572857Y-116556028D02*
X193501429Y-116484600D01*
X193501429Y-116484600D02*
X193572857Y-116413171D01*
X193572857Y-116413171D02*
X193572857Y-116556028D01*
X193572857Y-115627457D02*
X193644286Y-115698885D01*
X193644286Y-115698885D02*
X193572857Y-115770314D01*
X193572857Y-115770314D02*
X193501429Y-115698885D01*
X193501429Y-115698885D02*
X193572857Y-115627457D01*
X193572857Y-115627457D02*
X193572857Y-115770314D01*
X123377261Y-96941636D02*
X123329642Y-96989256D01*
X123329642Y-96989256D02*
X123186785Y-97036875D01*
X123186785Y-97036875D02*
X123091547Y-97036875D01*
X123091547Y-97036875D02*
X122948690Y-96989256D01*
X122948690Y-96989256D02*
X122853452Y-96894017D01*
X122853452Y-96894017D02*
X122805833Y-96798779D01*
X122805833Y-96798779D02*
X122758214Y-96608303D01*
X122758214Y-96608303D02*
X122758214Y-96465446D01*
X122758214Y-96465446D02*
X122805833Y-96274970D01*
X122805833Y-96274970D02*
X122853452Y-96179732D01*
X122853452Y-96179732D02*
X122948690Y-96084494D01*
X122948690Y-96084494D02*
X123091547Y-96036875D01*
X123091547Y-96036875D02*
X123186785Y-96036875D01*
X123186785Y-96036875D02*
X123329642Y-96084494D01*
X123329642Y-96084494D02*
X123377261Y-96132113D01*
X124282023Y-97036875D02*
X123805833Y-97036875D01*
X123805833Y-97036875D02*
X123805833Y-96036875D01*
X124615357Y-97036875D02*
X124615357Y-96036875D01*
X125186785Y-97036875D02*
X124758214Y-96465446D01*
X125186785Y-96036875D02*
X124615357Y-96608303D01*
X123448691Y-98646819D02*
X123448691Y-97646819D01*
X123924881Y-98646819D02*
X123924881Y-97646819D01*
X123924881Y-97646819D02*
X124496309Y-98646819D01*
X124496309Y-98646819D02*
X124496309Y-97646819D01*
X186068095Y-104044838D02*
X185972857Y-103997219D01*
X185972857Y-103997219D02*
X185830000Y-103997219D01*
X185830000Y-103997219D02*
X185687143Y-104044838D01*
X185687143Y-104044838D02*
X185591905Y-104140076D01*
X185591905Y-104140076D02*
X185544286Y-104235314D01*
X185544286Y-104235314D02*
X185496667Y-104425790D01*
X185496667Y-104425790D02*
X185496667Y-104568647D01*
X185496667Y-104568647D02*
X185544286Y-104759123D01*
X185544286Y-104759123D02*
X185591905Y-104854361D01*
X185591905Y-104854361D02*
X185687143Y-104949600D01*
X185687143Y-104949600D02*
X185830000Y-104997219D01*
X185830000Y-104997219D02*
X185925238Y-104997219D01*
X185925238Y-104997219D02*
X186068095Y-104949600D01*
X186068095Y-104949600D02*
X186115714Y-104901980D01*
X186115714Y-104901980D02*
X186115714Y-104568647D01*
X186115714Y-104568647D02*
X185925238Y-104568647D01*
X186544286Y-104997219D02*
X186544286Y-103997219D01*
X186544286Y-103997219D02*
X187115714Y-104997219D01*
X187115714Y-104997219D02*
X187115714Y-103997219D01*
X187591905Y-104997219D02*
X187591905Y-103997219D01*
X187591905Y-103997219D02*
X187830000Y-103997219D01*
X187830000Y-103997219D02*
X187972857Y-104044838D01*
X187972857Y-104044838D02*
X188068095Y-104140076D01*
X188068095Y-104140076D02*
X188115714Y-104235314D01*
X188115714Y-104235314D02*
X188163333Y-104425790D01*
X188163333Y-104425790D02*
X188163333Y-104568647D01*
X188163333Y-104568647D02*
X188115714Y-104759123D01*
X188115714Y-104759123D02*
X188068095Y-104854361D01*
X188068095Y-104854361D02*
X187972857Y-104949600D01*
X187972857Y-104949600D02*
X187830000Y-104997219D01*
X187830000Y-104997219D02*
X187591905Y-104997219D01*
X201520476Y-104616266D02*
X202282381Y-104616266D01*
X201901428Y-104997219D02*
X201901428Y-104235314D01*
X202615714Y-103997219D02*
X202949047Y-104997219D01*
X202949047Y-104997219D02*
X203282380Y-103997219D01*
X135877261Y-96941636D02*
X135829642Y-96989256D01*
X135829642Y-96989256D02*
X135686785Y-97036875D01*
X135686785Y-97036875D02*
X135591547Y-97036875D01*
X135591547Y-97036875D02*
X135448690Y-96989256D01*
X135448690Y-96989256D02*
X135353452Y-96894017D01*
X135353452Y-96894017D02*
X135305833Y-96798779D01*
X135305833Y-96798779D02*
X135258214Y-96608303D01*
X135258214Y-96608303D02*
X135258214Y-96465446D01*
X135258214Y-96465446D02*
X135305833Y-96274970D01*
X135305833Y-96274970D02*
X135353452Y-96179732D01*
X135353452Y-96179732D02*
X135448690Y-96084494D01*
X135448690Y-96084494D02*
X135591547Y-96036875D01*
X135591547Y-96036875D02*
X135686785Y-96036875D01*
X135686785Y-96036875D02*
X135829642Y-96084494D01*
X135829642Y-96084494D02*
X135877261Y-96132113D01*
X136782023Y-97036875D02*
X136305833Y-97036875D01*
X136305833Y-97036875D02*
X136305833Y-96036875D01*
X137115357Y-97036875D02*
X137115357Y-96036875D01*
X137686785Y-97036875D02*
X137258214Y-96465446D01*
X137686785Y-96036875D02*
X137115357Y-96608303D01*
X135472500Y-97646819D02*
X135662976Y-97646819D01*
X135662976Y-97646819D02*
X135758214Y-97694438D01*
X135758214Y-97694438D02*
X135853452Y-97789676D01*
X135853452Y-97789676D02*
X135901071Y-97980152D01*
X135901071Y-97980152D02*
X135901071Y-98313485D01*
X135901071Y-98313485D02*
X135853452Y-98503961D01*
X135853452Y-98503961D02*
X135758214Y-98599200D01*
X135758214Y-98599200D02*
X135662976Y-98646819D01*
X135662976Y-98646819D02*
X135472500Y-98646819D01*
X135472500Y-98646819D02*
X135377262Y-98599200D01*
X135377262Y-98599200D02*
X135282024Y-98503961D01*
X135282024Y-98503961D02*
X135234405Y-98313485D01*
X135234405Y-98313485D02*
X135234405Y-97980152D01*
X135234405Y-97980152D02*
X135282024Y-97789676D01*
X135282024Y-97789676D02*
X135377262Y-97694438D01*
X135377262Y-97694438D02*
X135472500Y-97646819D01*
X136329643Y-97646819D02*
X136329643Y-98456342D01*
X136329643Y-98456342D02*
X136377262Y-98551580D01*
X136377262Y-98551580D02*
X136424881Y-98599200D01*
X136424881Y-98599200D02*
X136520119Y-98646819D01*
X136520119Y-98646819D02*
X136710595Y-98646819D01*
X136710595Y-98646819D02*
X136805833Y-98599200D01*
X136805833Y-98599200D02*
X136853452Y-98551580D01*
X136853452Y-98551580D02*
X136901071Y-98456342D01*
X136901071Y-98456342D02*
X136901071Y-97646819D01*
X137234405Y-97646819D02*
X137805833Y-97646819D01*
X137520119Y-98646819D02*
X137520119Y-97646819D01*
X96520195Y-96036819D02*
X96520195Y-96846342D01*
X96520195Y-96846342D02*
X96567814Y-96941580D01*
X96567814Y-96941580D02*
X96615433Y-96989200D01*
X96615433Y-96989200D02*
X96710671Y-97036819D01*
X96710671Y-97036819D02*
X96901147Y-97036819D01*
X96901147Y-97036819D02*
X96996385Y-96989200D01*
X96996385Y-96989200D02*
X97044004Y-96941580D01*
X97044004Y-96941580D02*
X97091623Y-96846342D01*
X97091623Y-96846342D02*
X97091623Y-96036819D01*
X97520195Y-96989200D02*
X97663052Y-97036819D01*
X97663052Y-97036819D02*
X97901147Y-97036819D01*
X97901147Y-97036819D02*
X97996385Y-96989200D01*
X97996385Y-96989200D02*
X98044004Y-96941580D01*
X98044004Y-96941580D02*
X98091623Y-96846342D01*
X98091623Y-96846342D02*
X98091623Y-96751104D01*
X98091623Y-96751104D02*
X98044004Y-96655866D01*
X98044004Y-96655866D02*
X97996385Y-96608247D01*
X97996385Y-96608247D02*
X97901147Y-96560628D01*
X97901147Y-96560628D02*
X97710671Y-96513009D01*
X97710671Y-96513009D02*
X97615433Y-96465390D01*
X97615433Y-96465390D02*
X97567814Y-96417771D01*
X97567814Y-96417771D02*
X97520195Y-96322533D01*
X97520195Y-96322533D02*
X97520195Y-96227295D01*
X97520195Y-96227295D02*
X97567814Y-96132057D01*
X97567814Y-96132057D02*
X97615433Y-96084438D01*
X97615433Y-96084438D02*
X97710671Y-96036819D01*
X97710671Y-96036819D02*
X97948766Y-96036819D01*
X97948766Y-96036819D02*
X98091623Y-96084438D01*
X98853528Y-96513009D02*
X98996385Y-96560628D01*
X98996385Y-96560628D02*
X99044004Y-96608247D01*
X99044004Y-96608247D02*
X99091623Y-96703485D01*
X99091623Y-96703485D02*
X99091623Y-96846342D01*
X99091623Y-96846342D02*
X99044004Y-96941580D01*
X99044004Y-96941580D02*
X98996385Y-96989200D01*
X98996385Y-96989200D02*
X98901147Y-97036819D01*
X98901147Y-97036819D02*
X98520195Y-97036819D01*
X98520195Y-97036819D02*
X98520195Y-96036819D01*
X98520195Y-96036819D02*
X98853528Y-96036819D01*
X98853528Y-96036819D02*
X98948766Y-96084438D01*
X98948766Y-96084438D02*
X98996385Y-96132057D01*
X98996385Y-96132057D02*
X99044004Y-96227295D01*
X99044004Y-96227295D02*
X99044004Y-96322533D01*
X99044004Y-96322533D02*
X98996385Y-96417771D01*
X98996385Y-96417771D02*
X98948766Y-96465390D01*
X98948766Y-96465390D02*
X98853528Y-96513009D01*
X98853528Y-96513009D02*
X98520195Y-96513009D01*
%LPC*%
D11*
%TO.C,REF\u002A\u002A*%
X123977500Y-105723600D03*
%TD*%
%TO.C,REF\u002A\u002A*%
X136477500Y-105723600D03*
%TD*%
D12*
X208922100Y-91843600D03*
X208922100Y-116833600D03*
X87922100Y-91843600D03*
X87922100Y-116833600D03*
%LPD*%
D13*
X156800000Y-107963600D02*
G75*
G02*
X156300000Y-108463600I-500000J0D01*
G01*
X213001100Y-108003600D02*
X213001100Y-117503600D01*
X215001100Y-93253600D02*
X215001100Y-90503600D01*
X190303553Y-107963600D02*
X190303553Y-101463600D01*
X94000000Y-108550000D02*
G75*
G02*
X93000000Y-107550000I0J1000000D01*
G01*
X84001100Y-117503600D02*
X82001100Y-116503600D01*
X215001100Y-119503600D02*
G75*
G02*
X212001100Y-122503600I-3000000J0D01*
G01*
X156300000Y-108463600D02*
X148300000Y-108463600D01*
X215001100Y-100753600D02*
X215001100Y-109003600D01*
X213001100Y-92253600D02*
X213001100Y-101753600D01*
X199300000Y-107963600D02*
G75*
G02*
X198800000Y-108463600I-500000J0D01*
G01*
X94000000Y-104600000D02*
X101550000Y-104600000D01*
X215001100Y-116503600D02*
X215001100Y-119503600D01*
X190803553Y-100963600D02*
X198800000Y-100963600D01*
X198800000Y-100963600D02*
G75*
G02*
X199300000Y-101463600I0J-500000D01*
G01*
X199300000Y-101463600D02*
X199300000Y-107963600D01*
X82001100Y-100753600D02*
X82001100Y-109003600D01*
X85001100Y-122503600D02*
G75*
G02*
X82001100Y-119503600I0J3000000D01*
G01*
X94000000Y-108550000D02*
X101550000Y-108550000D01*
X198800000Y-108463600D02*
X190803553Y-108463600D01*
X85001100Y-87503600D02*
X212001100Y-87503600D01*
X82001100Y-90503600D02*
X82001100Y-93253600D01*
X82001100Y-116503600D02*
X82001100Y-119503600D01*
X84001100Y-101753600D02*
X82001100Y-100753600D01*
X148300000Y-108463600D02*
G75*
G02*
X147800000Y-107963600I0J500000D01*
G01*
X84001100Y-108003600D02*
X84001100Y-117503600D01*
X147800000Y-101463600D02*
G75*
G02*
X148300000Y-100963600I500000J0D01*
G01*
X84001100Y-92253600D02*
X82001100Y-93253600D01*
X213001100Y-92253600D02*
X215001100Y-93253600D01*
X102550000Y-107550000D02*
X102550000Y-105600000D01*
X212001100Y-87503600D02*
G75*
G02*
X215001100Y-90503600I0J-3000000D01*
G01*
X213001100Y-101753600D02*
X215001100Y-100753600D01*
X190303553Y-101463600D02*
G75*
G02*
X190803553Y-100963553I500047J0D01*
G01*
X213001100Y-117503600D02*
X215001100Y-116503600D01*
X190803553Y-108463600D02*
G75*
G02*
X190303600Y-107963600I47J500000D01*
G01*
X156300000Y-100963600D02*
G75*
G02*
X156800000Y-101463600I0J-500000D01*
G01*
X213001100Y-108003600D02*
X215001100Y-109003600D01*
X156800000Y-101463600D02*
X156800000Y-107963600D01*
X93000000Y-107550000D02*
X93000000Y-105600000D01*
X101550000Y-104600000D02*
G75*
G02*
X102550000Y-105600000I0J-1000000D01*
G01*
X84001100Y-92253600D02*
X84001100Y-101753600D01*
X82001100Y-90503600D02*
G75*
G02*
X85001100Y-87503600I3000000J0D01*
G01*
X84001100Y-108003600D02*
X82001100Y-109003600D01*
X85001100Y-122503600D02*
X212001100Y-122503600D01*
X93000000Y-105600000D02*
G75*
G02*
X94000000Y-104600000I1000000J0D01*
G01*
X148300000Y-100963600D02*
X156300000Y-100963600D01*
X147800000Y-107963600D02*
X147800000Y-101463600D01*
X102550000Y-107550000D02*
G75*
G02*
X101550000Y-108550000I-1000000J0D01*
G01*
M02*
