%TF.GenerationSoftware,KiCad,Pcbnew,9.0.7*%
%TF.CreationDate,2026-04-16T11:14:32+01:00*%
%TF.ProjectId,stepper driver rear panel,73746570-7065-4722-9064-726976657220,rev?*%
%TF.SameCoordinates,Original*%
%TF.FileFunction,Soldermask,Bot*%
%TF.FilePolarity,Negative*%
%FSLAX46Y46*%
G04 Gerber Fmt 4.6, Leading zero omitted, Abs format (unit mm)*
G04 Created by KiCad (PCBNEW 9.0.7) date 2026-04-16 11:14:32*
%MOMM*%
%LPD*%
G01*
G04 APERTURE LIST*
%ADD10C,6.000000*%
%ADD11C,4.316000*%
%TA.AperFunction,Profile*%
%ADD12C,0.050000*%
%TD*%
G04 APERTURE END LIST*
D10*
%TO.C,REF\u002A\u002A*%
X123977500Y-105723600D03*
%TD*%
%TO.C,REF\u002A\u002A*%
X136477500Y-105723600D03*
%TD*%
D11*
X208922100Y-91843600D03*
X208922100Y-116833600D03*
X87922100Y-91843600D03*
X87922100Y-116833600D03*
D12*
X156800000Y-107963600D02*
G75*
G02*
X156300000Y-108463600I-500000J0D01*
G01*
X213001100Y-108003600D02*
X213001100Y-117503600D01*
X215001100Y-93253600D02*
X215001100Y-90503600D01*
X190303553Y-107963600D02*
X190303553Y-101463600D01*
X94000000Y-108550000D02*
G75*
G02*
X93000000Y-107550000I0J1000000D01*
G01*
X84001100Y-117503600D02*
X82001100Y-116503600D01*
X215001100Y-119503600D02*
G75*
G02*
X212001100Y-122503600I-3000000J0D01*
G01*
X156300000Y-108463600D02*
X148300000Y-108463600D01*
X215001100Y-100753600D02*
X215001100Y-109003600D01*
X213001100Y-92253600D02*
X213001100Y-101753600D01*
X199300000Y-107963600D02*
G75*
G02*
X198800000Y-108463600I-500000J0D01*
G01*
X94000000Y-104600000D02*
X101550000Y-104600000D01*
X215001100Y-116503600D02*
X215001100Y-119503600D01*
X190803553Y-100963600D02*
X198800000Y-100963600D01*
X198800000Y-100963600D02*
G75*
G02*
X199300000Y-101463600I0J-500000D01*
G01*
X199300000Y-101463600D02*
X199300000Y-107963600D01*
X82001100Y-100753600D02*
X82001100Y-109003600D01*
X85001100Y-122503600D02*
G75*
G02*
X82001100Y-119503600I0J3000000D01*
G01*
X94000000Y-108550000D02*
X101550000Y-108550000D01*
X198800000Y-108463600D02*
X190803553Y-108463600D01*
X85001100Y-87503600D02*
X212001100Y-87503600D01*
X82001100Y-90503600D02*
X82001100Y-93253600D01*
X82001100Y-116503600D02*
X82001100Y-119503600D01*
X84001100Y-101753600D02*
X82001100Y-100753600D01*
X148300000Y-108463600D02*
G75*
G02*
X147800000Y-107963600I0J500000D01*
G01*
X84001100Y-108003600D02*
X84001100Y-117503600D01*
X147800000Y-101463600D02*
G75*
G02*
X148300000Y-100963600I500000J0D01*
G01*
X84001100Y-92253600D02*
X82001100Y-93253600D01*
X213001100Y-92253600D02*
X215001100Y-93253600D01*
X102550000Y-107550000D02*
X102550000Y-105600000D01*
X212001100Y-87503600D02*
G75*
G02*
X215001100Y-90503600I0J-3000000D01*
G01*
X213001100Y-101753600D02*
X215001100Y-100753600D01*
X190303553Y-101463600D02*
G75*
G02*
X190803553Y-100963553I500047J0D01*
G01*
X213001100Y-117503600D02*
X215001100Y-116503600D01*
X190803553Y-108463600D02*
G75*
G02*
X190303600Y-107963600I47J500000D01*
G01*
X156300000Y-100963600D02*
G75*
G02*
X156800000Y-101463600I0J-500000D01*
G01*
X213001100Y-108003600D02*
X215001100Y-109003600D01*
X156800000Y-101463600D02*
X156800000Y-107963600D01*
X93000000Y-107550000D02*
X93000000Y-105600000D01*
X101550000Y-104600000D02*
G75*
G02*
X102550000Y-105600000I0J-1000000D01*
G01*
X84001100Y-92253600D02*
X84001100Y-101753600D01*
X82001100Y-90503600D02*
G75*
G02*
X85001100Y-87503600I3000000J0D01*
G01*
X84001100Y-108003600D02*
X82001100Y-109003600D01*
X85001100Y-122503600D02*
X212001100Y-122503600D01*
X93000000Y-105600000D02*
G75*
G02*
X94000000Y-104600000I1000000J0D01*
G01*
X148300000Y-100963600D02*
X156300000Y-100963600D01*
X147800000Y-107963600D02*
X147800000Y-101463600D01*
X102550000Y-107550000D02*
G75*
G02*
X101550000Y-108550000I-1000000J0D01*
G01*
M02*
